<!-- Generator: Adobe Illustrator 25.0.0, SVG Export Plug-In  -->
<svg version="1.1" xmlns="http://www.w3.org/2000/svg" xmlns:xlink="http://www.w3.org/1999/xlink" x="0px" y="0px" width="766.8px"
	 height="53.9px" viewBox="0 0 766.8 53.9" style="overflow:visible;enable-background:new 0 0 766.8 53.9;" xml:space="preserve">
<defs>
</defs>
<g>
	<path d="M20.8,2.9c-0.3,0.7-1,1.3-2.2,1.2c-1.7,4.4-3.6,8.4-5.9,12l3.2,1.2c-0.2,0.5-0.6,0.9-1.7,1.1v33.2
		c-0.1,0.5-2.9,1.9-5.5,1.9H7.5V23.4c-2.1,2.5-4.4,4.7-6.8,6.6L0,29.6c4.7-7.1,9.3-18.4,11.6-29.5L20.8,2.9z M32.1,24.9
		c-0.2,0.7-1,1.2-2.3,1.1c-3.2,7.7-7.8,13.9-13.1,17.9L16,43.4c3.1-5.1,6-13.2,7.6-21.1L32.1,24.9z M16.2,24.3
		c3.8-5.8,7.5-14.9,9.4-24l8.9,3.2c-0.2,0.7-1,1.2-2.3,1.1c-1.1,2.5-2.3,4.7-3.5,6.9h16.5L48.7,8l6,5.8c-0.5,0.5-1,0.6-2.2,0.7
		c-1.9,2.3-5.1,5.6-7.8,7.5l-0.5-0.4c0.5-2.3,1.1-5.8,1.4-8.4h-18c-3.1,4.8-6.7,8.7-10.8,11.7L16.2,24.3z M32.6,13.7l8.6,0.8
		c-0.1,0.8-0.7,1.3-2,1.5v29.6c0,4.7-1,7.4-8.7,8c-0.2-2.2-0.5-3.8-1.4-4.8c-1-1.1-2.3-1.8-5.2-2.3v-0.8c0,0,6.2,0.4,7.5,0.4
		c0.9,0,1.3-0.3,1.3-1V13.7z M42,22.8c17.8,10.4,12.4,24.5,5.9,18.6c-0.7-5.9-3.9-13-6.6-18.3L42,22.8z"/>
	<path d="M80.3,43.5c3.8-0.4,7.8-0.9,11.9-1.3l0.1,0.8c-5.4,2.1-13.3,4.9-25.3,8.5c-0.3,0.7-1,1.2-1.7,1.4l-3.2-7.8
		c2.5-0.1,6.6-0.5,11.6-1v-7.7h-8.2l-0.5-1.7h8.7v-7.2h-9.6L63.7,26h15.1c0.7-2.9,1.5-7,2-9.9h-12c11.2,4.4,5,13,0.5,8.6
		c0.2-3-0.8-6.3-1.9-8.6h-5l-0.5-1.7h8.8V0.2l6.6,0.7c-0.1,0.6-0.5,1-1.5,1.2v12.3h2.6V0.2l6.7,0.7c-0.1,0.6-0.6,1.1-1.7,1.4v12.1
		h2.9l3-3.9c0,0,3.5,2.7,5.6,4.6c-0.2,0.6-0.7,0.9-1.5,0.9H82.8l6.1,1.4c-0.2,0.7-0.9,1.2-2.1,1.2c-1.7,2.1-4.3,5-6.6,7.3h3.6
		l2.9-3.6c0,0,3.2,2.6,5.3,4.4c-0.2,0.6-0.7,0.9-1.5,0.9H80.3v7.2h1.9l3.1-4c0,0,3.5,2.8,5.6,4.7c-0.2,0.6-0.7,0.9-1.5,0.9h-9V43.5z
		 M63,2.1c12.3,4.9,6.5,14.3,2.1,9.9c0.1-3.2-1.2-7-2.7-9.5L63,2.1z M94.6,5c-0.3,0.6-1,1.1-2.2,1c-2.6,2.6-5.6,5.2-8.3,7l-0.7-0.4
		c1-2.6,2.4-6.9,3.5-10.7L94.6,5z M112.4,12.1c0,0,3,3,4.7,5c-0.2,0.6-0.7,0.9-1.5,0.9h-5.8v27.9c0,4.6-1,7.1-8.4,7.8
		c-0.2-2.1-0.5-3.6-1.4-4.6c-0.9-1-2.2-1.8-5-2.2v-0.8c0,0,5.9,0.4,7.1,0.4c0.9,0,1.3-0.3,1.3-1.1V18.1H91.7l-0.5-1.7h12.3V0.9
		l8.4,0.9c-0.2,0.8-0.7,1.4-2.1,1.6v13L112.4,12.1z M93.3,22c14.3,6.6,7.5,18.1,2.1,12.6c0.2-4.2-1.1-8.8-2.7-12.3L93.3,22z"/>
	<path d="M171.5,44.9c0,0,4.1,3.5,6.4,5.9c-0.1,0.6-0.7,0.9-1.5,0.9h-37.7l-0.5-1.7h17.3V39.8h-11.7l-0.5-1.6h12.1v-9h-5.4v1.6
		c0,0.7-2.7,2.2-5.5,2.2h-1V23c-0.2,0.4-0.7,0.6-1.3,0.6h-6.4v14.1c2.5-0.7,5.2-1.5,7.8-2.3l0.2,0.6c-3.6,2.7-9.2,6.5-17.1,11.2
		c-0.2,0.7-0.7,1.4-1.4,1.6l-3-7.5c1.5-0.3,3.9-1,6.9-1.8v-16h-5.7l-0.5-1.6h6.2V7.8h-5.8l-0.5-1.7h12.2l3.4-4.7
		c0,0,2.7,2.3,4.9,4.3V1.9l6.8,2.7H167l3.1-3.4l6.3,5c-0.3,0.5-1.1,1-2.3,1.2v22.3c-0.1,0.5-3.1,2-5.5,2h-1.1v-2.5h-5.6v9h4.2
		l3.4-4.7c0,0,3.8,3.2,6,5.4c-0.1,0.6-0.7,0.9-1.6,0.9h-12V50h6L171.5,44.9z M138.9,17.4c0,0,3.1,3,4.7,5V7.8h-0.3h-7.4v14.1h0.2
		L138.9,17.4z M150.1,6.3v9.8h5.4V6.3H150.1z M155.4,27.6v-9.8h-5.4v9.8H155.4z M161.9,6.3v9.8h5.6V6.3H161.9z M167.6,27.6v-9.8
		h-5.6v9.8H167.6z"/>
	<path d="M201.3,32.7c0,0.6-2.8,1.9-5.2,1.9h-1.2V22.5c-2.7,3.8-6.2,7.2-10.2,10l-0.6-0.7c4.4-5.4,7.4-13,9-20.4h-7.7l-0.5-1.6h10V0
		l8.3,0.9c-0.2,0.7-0.5,1.2-1.9,1.4v7.5h1.1l3.1-4.6c0,0,3.6,3.1,5.7,5.2c-0.2,0.6-0.7,0.9-1.5,0.9h-8.3v4.3
		c13.7,3.2,8.4,13.5,3.1,9.3c-0.2-2.7-1.5-5.5-3.1-7.7V32.7z M192.7,36.2c3.1,7.2,1,12.3-1.8,14c-2,1.2-4.7,0.7-5.4-1.4
		c-0.6-2.1,0.6-3.7,2.3-4.6c2.1-1.2,4.3-4.3,4.2-7.8L192.7,36.2z M225.3,45.4c2.1,0.7,2.6,1.5,2.6,2.6c0,2.9-2.7,3.8-14.1,3.8h-7.5
		c-6.6,0-8-1-8-5.4V35.2l8.5,0.7c-0.1,0.7-0.6,1.3-1.8,1.4v7.8c0,0.8,0.2,1,2.4,1h7.1c2.5,0,4.7,0,5.6-0.1c0.9-0.1,1.3-0.2,1.7-0.8
		c0.7-0.9,1.5-3,2.7-6h0.6L225.3,45.4z M208.8,33.5c15.1,3.4,9.3,14.5,3.8,9.9c-0.3-3.4-2.3-7.1-4.3-9.6L208.8,33.5z M217.9,31.8
		c0,0.7-2.7,2.2-5.4,2.2h-0.9V2.1l6.6,2.7h9.2l3.1-3.5l6.4,5c-0.4,0.5-1.1,1-2.3,1.3V32c-0.1,0.5-3.3,1.8-5.5,1.8h-1.1v-3.6h-10
		V31.8z M217.9,6.4v6.2h10V6.4H217.9z M227.8,20.4v-6.2h-10v6.2H227.8z M227.8,28.4v-6.4h-10v6.4H227.8z M225.8,35.7
		c17,4.8,11.1,17.7,5,12.7c-0.2-4.3-2.7-9.2-5.5-12.3L225.8,35.7z"/>
	<path d="M292.4,20c0,0,4.1,3.4,6.6,5.6c-0.2,0.6-0.8,0.9-1.7,0.9h-17.2v7.8h5.2l3.1-3.4l6.4,4.9c-0.3,0.5-1.1,0.9-2.3,1.2v14.3
		c-0.1,0.5-3.2,1.8-5.5,1.8h-1.1v-3.7h-18.8v1.9c0,0.6-2.9,2.1-5.5,2.1h-0.9V31.6l6.8,2.7h6v-7.8h-14.9c-0.7,9.5-3.4,19.9-12.4,27.4
		l-0.6-0.4c5.9-10.7,6.4-24,6.4-35.6v-17L260,4H286l3.1-3.4l6.6,5c-0.3,0.5-1.1,1-2.3,1.2v11.1c-0.1,0.3-3.5,1.5-5.6,1.5h-1.2v-3.2
		H259v1.8c0,2.2-0.1,4.6-0.2,7h14.8V17l8.5,0.7c-0.1,0.7-0.5,1.3-1.9,1.5v5.7h8.7L292.4,20z M259,5.6v8.8h27.6V5.6H259z M267.1,36
		v11.9h18.8V36H267.1z"/>
	<path d="M356.7,24.3c-0.4,0.5-0.9,0.7-2.2,0.3c-3.4,1.5-8.2,3.1-13.1,4.4c3.7,7.7,11.2,12,19.2,14.5l-0.1,0.6
		c-2.6,0.5-4.4,2.6-5.4,5.7c-7.3-4.4-12.3-10.4-14.9-20.5c-1.2,0.3-2.4,0.6-3.6,0.9c4.4,8,3.9,17.2,0.9,20.9
		c-1.5,1.8-4.3,2.5-8.4,2.5c-0.1-1.9-0.5-3.2-1.4-4.2c-0.7-0.7-2.6-1.5-4.8-2.1l-0.1-0.7c2.3,0.2,6.2,0.5,7.5,0.5
		c0.8,0,1.4-0.1,1.7-0.6c0.8-1.2,1.3-3.6,1.4-6.5c-6.8,4.4-16,8.2-25.1,10l-0.4-0.9c9.5-3.4,19.2-10.1,24.6-17.2
		c-0.1-0.5-0.2-0.9-0.4-1.4c-5.8,3.8-14.3,7.6-22.3,9.7l-0.3-0.7c7.4-3.4,15.4-9.7,19.8-15.4l-0.5-0.7c-5.3,3.1-11.8,5.6-18.5,7.2
		l-0.4-0.7c6.8-3.1,13.2-7.9,17.4-12.2h-11l-0.5-1.6h27.3l3.5-4.4c0,0,2.2,1.7,4.3,3.4c0.2-1.6,0.5-3.8,0.6-5.6h-35.4
		c0.3,4-1.1,6.8-3.1,8c-1.7,1.1-4.4,0.7-5.2-1.4c-0.6-2,0.6-3.5,2.2-4.4c2-1.1,4.2-3.9,4.1-7.1h0.8c0.4,1.1,0.7,2.2,0.9,3.2h17
		c-0.3-0.1-0.7-0.3-1-0.5c-0.3-2.6-2.1-5.4-4-6.8l0.4-0.3c11.5-0.6,11.2,6.2,7.6,7.6H351l3.4-3.4l5.9,5.6c-0.4,0.5-1,0.6-2.2,0.7
		c-1.7,1.5-4.4,3.6-6.7,4.8c0.5,0.4,1,0.8,1.4,1.2c-0.1,0.6-0.7,0.9-1.5,0.9h-14.9c-1.8,1.8-4,3.4-6.4,4.9c2.4,1.9,4.3,4,5.8,6.3
		c5.2-3.1,10.9-7.5,14-10.3L356.7,24.3z"/>
	<path d="M388.3,25.9l6.3,4.8c-0.3,0.5-1.1,0.9-2.3,1.1v18.5c-0.1,0.5-3.2,1.9-5.4,1.9h-1.1v-4.7h-8.3v3.6c0,0.6-2.7,2.1-5.4,2.1h-1
		V26.5l6.6,2.6h7.5L388.3,25.9z M385.9,45.8v-15h-8.3v15H385.9z M386.9,23.5c0,0.6-2.9,2.1-5.7,2.1h-1V1.5l7.1,2.8h15.5l3.1-3.4
		l6.5,5c-0.3,0.5-1.1,1-2.3,1.2v16.3c-0.1,0.5-3.3,1.8-5.6,1.8h-1.1v-4.6h-16.4V23.5z M386.9,5.9v13h16.4v-13H386.9z M421.5,30.7
		c-0.4,0.5-1.2,0.9-2.3,1.2v18.9c-0.1,0.5-3.3,1.7-5.5,1.7h-1.1v-5h-8.8v3.7c0,0.6-2.7,2.1-5.4,2.1h-1V26.5l6.6,2.6h7.9l3.1-3.3
		L421.5,30.7z M412.6,45.8v-15h-8.8v15H412.6z"/>
	<path d="M437.7,33.9v6.7c0,0.7-2.6,2.1-5.2,2.1h-1V6.1l6.4,2.7h4.2l3-3.3l6,4.8c-0.3,0.5-1.1,0.9-2.3,1.2v25.8
		c-0.1,0.5-3,1.9-5.2,1.9h-1v-5.3H437.7z M437.7,10.4v21.9h5V10.4H437.7z M468.4,26.3c3.3,7.4,9.5,13.3,15.7,16.2l-0.2,0.6
		c-2.5,0.6-4.4,2.6-5.4,5.9c-5.5-5-9.1-12.5-11.1-22.5v25c0,0.6-2.9,1.9-5.5,1.9h-1.4V36.8c-4.7,5.8-11.3,10.4-19.8,13.8l-0.5-0.7
		c9-5.6,15.2-14.4,18.2-23.6h-8.6l-0.5-1.7h11.2V14.2h-10l-0.5-1.5h10.4V0.7l8.9,0.9c-0.2,0.8-0.6,1.4-2.1,1.6v9.4h4.3l3.6-5
		c0,0,4,3.4,6.4,5.6c-0.2,0.6-0.8,0.9-1.6,0.9h-12.7v10.4h5.7l3.6-5c0,0,4,3.4,6.5,5.7c-0.2,0.6-0.7,0.9-1.6,0.9H468.4z"/>
	<path d="M516.8,12.7c-0.4,0.5-1.3,1-2.4,1.2v34c-0.1,0.5-3.1,1.9-5.3,1.9h-1v-4.5h-8.7v4.2c0,0.7-2.4,2.2-5.1,2.2h-1V8.5l6.4,2.7
		h0.3c0.4-3.1,0.9-7.6,1.2-10.8l9.2,2.2c-0.2,1-1,1.4-2.3,1.4c-1.5,2-3.7,5-5.5,7.2h5l3-3.4L516.8,12.7z M499.4,12.8V27h8.7V12.8
		H499.4z M508.1,43.6v-15h-8.7v15H508.1z M544.6,12.7c-0.5,0.5-1.2,0.9-2.5,1.1c-0.4,23-1.2,33.4-4.3,36.8c-2.1,2.2-4.6,3.1-8.3,3.1
		c0-2.2-0.3-3.8-1.3-4.7c-1-1.1-3.2-2-6-2.5l0.1-0.8c2.7,0.2,6.7,0.5,8.2,0.5c1,0,1.5-0.2,2.1-0.7c2.1-1.9,2.7-13.3,3.1-32.7h-10.6
		c-2.7,4.8-6,8.9-9.6,12l-0.7-0.5c3.1-5.8,6.2-15.1,7.7-23.8l9,2.6c-0.2,0.7-0.9,1.1-2.2,1.1c-1,2.5-2,4.7-3.2,6.9h9.1l3.6-3.7
		L544.6,12.7z M519.4,22.6c16.6,4.9,10.4,17.2,4.4,12.1c-0.3-4-2.6-8.7-4.8-11.8L519.4,22.6z"/>
	<path d="M551.7,53.2c3.2-3.6,6.4-9.6,8.2-15.8l8.2,3.3c-0.3,0.6-1.1,1-2.3,0.9c-3.5,5.7-8.3,9.6-13.5,12.1L551.7,53.2z M605.7,6
		c-0.4,0.5-1.3,1-2.4,1.2v38.7c0,4.4-0.9,7-8,7.6c-0.2-2.1-0.5-3.6-1.2-4.6c-0.9-1-2.1-1.7-4.7-2.1v-0.8c0,0,5.3,0.3,6.4,0.3
		c1,0,1.2-0.3,1.2-1.1V31.6h-8.2c-0.9,8.2-3.9,16.2-13.5,21.8l-0.6-0.5c4.4-4.8,6.6-10.3,7.6-16.3h-0.1h-30.1l-0.5-1.6h5.3V11.3
		h-3.9l-0.5-1.7h4.4V0.9l8,0.8c-0.1,0.7-0.5,1.2-1.8,1.4v6.5h7.1V1l8.2,0.7c-0.1,0.7-0.5,1.3-1.9,1.5v6.3l2.3-3.8
		c0,0,2.7,2.7,4.2,4.6c-0.1,0.6-0.7,0.9-1.4,0.9h-5.1v23.4l2.5-4c0,0,2,1.9,3.6,3.8c0.5-3.6,0.6-7.4,0.6-11.1V2l7.1,2.6h6.2l3-3.4
		L605.7,6z M563.3,11.3v6.2h7.1v-6.2H563.3z M563.3,26h7.1v-6.8h-7.1V26z M563.3,35.1h7.1v-7.5h-7.1V35.1z M569.1,37.9
		c14.8,3.1,9.3,13.9,3.8,9.7c-0.4-3.3-2.4-7-4.3-9.3L569.1,37.9z M597.1,30V18.6h-7.8v4.7c0,2.2-0.1,4.4-0.2,6.7H597.1z M589.3,6.2
		V17h7.8V6.2H589.3z"/>
	<path d="M632.7,16.2c-0.3,0.5-0.9,0.9-2.2,0.7c-1.4,1.8-3,3.8-4.9,5.8l3.2,1.2c-0.2,0.5-0.7,0.9-1.8,1.1v26.5
		c0,0.6-2.5,2.2-5.3,2.2h-1.2V27.5c-2.2,2-4.6,3.9-7.1,5.5l-0.5-0.6c4.7-6,9.5-15,11.6-20.6L632.7,16.2z M632,4.9
		c-0.3,0.5-0.9,0.9-2.2,0.6c-3.8,3.6-9.7,8.3-16,11.2l-0.5-0.6c4.3-4.5,8.9-11.4,10.9-16L632,4.9z M661.5,25.6c0,0,3.8,3,6.1,5.1
		c-0.2,0.6-0.7,0.9-1.5,0.9h-8.8v14.7c0,4.5-1.1,6.9-9.2,7.5c-0.2-1.9-0.6-3.3-1.7-4.3c-1.1-0.9-2.6-1.6-6-2.1v-0.7
		c0,0,7.6,0.5,9,0.5c1,0,1.3-0.3,1.3-1.1V31.6h-20.2L630,30h20.6v-6.8l8.6,0.7c-0.1,0.9-0.7,1.3-1.9,1.5V30h0.9L661.5,25.6z
		 M643.9,10.3V0.2l8.5,0.7c-0.1,0.7-0.5,1.3-1.9,1.5v7.9h6.6l3.5-4.6c0,0,4,3.1,6.4,5.3c-0.2,0.6-0.8,0.9-1.5,0.9h-14.9v8.7h5.5
		l3.3-4.3c0,0,3.9,3,6.2,5.1c-0.2,0.6-0.7,0.9-1.5,0.9h-30.7l-0.5-1.7h11.1V12h-12.7l-0.5-1.7H643.9z M635,32.8
		c16,3.4,11,14.9,5.1,10.7c-0.9-3.5-3.4-7.6-5.6-10.3L635,32.8z"/>
	<path d="M705.5,46.7c1.1,0.1,2.2,0.1,3.4,0.1c4.3,0,14.8,0,19.4-0.1v0.7c-2.1,0.5-3.1,2.7-3.1,5.2h-16.4c-10.1,0-15.7-2.2-19-11.2
		c-2.9,4.8-7.6,9.3-15.2,12.3l-0.5-0.6c8.1-6,10.9-14.9,11.7-22.3l9.3,1.8c-0.2,0.8-0.7,1.3-2.2,1.3c-0.6,2.1-1.3,4.2-2.4,6.2
		c1.9,3.2,4.4,4.9,7.8,5.8V28.2h-23l-0.5-1.6H718l3.6-4.8c0,0,4,3.3,6.4,5.5c-0.2,0.6-0.8,0.9-1.6,0.9h-21v7.9h6.9l3.8-5.1
		c0,0,4.4,3.5,7,5.9c-0.2,0.6-0.7,0.9-1.6,0.9h-16.1V46.7z M691.4,22.9c0,0.7-3.1,2.2-6,2.2h-1V1.2l7.5,3h19.4l3.2-3.5l6.8,5.1
		c-0.3,0.5-1.1,1-2.3,1.3v15.6c-0.1,0.3-3.6,1.6-5.9,1.6h-1.2v-2.9h-20.4V22.9z M691.4,5.8v6h20.4v-6H691.4z M711.8,19.6v-6.2h-20.4
		v6.2H711.8z"/>
	<path d="M746.6,12.6c-0.6,3.7-2,4.9-4.3,4.9c-1.4,0-2.6-0.6-3.4-1.8c0.4-7,6.3-10.9,14.2-10.9c9.1,0,13.7,4,13.7,10
		c0,4.5-2.2,7.4-8,10.9c-4.4,2.7-5.9,3.8-6.2,6.8l-0.3,3.5h-2.1c-0.3-1.9-0.7-4.3-0.7-5.8c0-2.7,1.4-4.2,5.1-7.3
		c3.5-2.9,5.1-5,5.1-8.7c0-4.9-3.4-7.3-8.6-7.3c-1.3,0-2.3,0.1-3.4,0.5L746.6,12.6z M756.1,44.9c0,2.5-2,4.5-4.6,4.5
		c-2.6,0-4.6-2.1-4.6-4.5c0-2.5,1.9-4.6,4.6-4.6C754.1,40.4,756.1,42.4,756.1,44.9z"/>
</g>
</svg>
