<!-- Generator: Adobe Illustrator 25.0.0, SVG Export Plug-In  -->
<svg version="1.1" xmlns="http://www.w3.org/2000/svg" xmlns:xlink="http://www.w3.org/1999/xlink" x="0px" y="0px" width="480.1px"
	 height="143.7px" viewBox="0 0 480.1 143.7" style="overflow:visible;enable-background:new 0 0 480.1 143.7;"
	 xml:space="preserve">
<defs>
</defs>
<g>
	<path d="M18.4,43.4c3.8-0.4,7.8-0.9,11.9-1.3l0.1,0.8C24.9,45,17,47.8,5.1,51.4c-0.3,0.7-1,1.2-1.7,1.4L0.2,45
		c2.5-0.1,6.6-0.5,11.6-1v-7.7H3.6l-0.5-1.7h8.7v-7.2H2.3l-0.5-1.6h15.1c0.7-2.9,1.5-7,2-9.9h-12c11.2,4.4,5,13,0.5,8.6
		c0.2-3-0.8-6.3-1.9-8.6h-5L0,14.4h8.8V0.2l6.6,0.7c-0.1,0.6-0.5,1-1.5,1.2v12.3h2.6V0.2l6.7,0.7c-0.1,0.6-0.6,1.1-1.7,1.4v12.1h2.9
		l3-3.9c0,0,3.5,2.7,5.6,4.6c-0.2,0.6-0.7,0.9-1.5,0.9H20.9l6.1,1.4c-0.2,0.7-0.9,1.2-2.1,1.2c-1.7,2.1-4.3,5-6.6,7.3h3.6l2.9-3.6
		c0,0,3.2,2.6,5.3,4.4c-0.2,0.6-0.7,0.9-1.5,0.9H18.4v7.2h1.9l3.1-4c0,0,3.5,2.8,5.6,4.7c-0.2,0.6-0.7,0.9-1.5,0.9h-9V43.4z M1.1,2
		c12.3,4.9,6.5,14.3,2.1,9.9c0.1-3.2-1.2-7-2.7-9.5L1.1,2z M32.7,4.9c-0.3,0.6-1,1.1-2.2,1c-2.6,2.6-5.6,5.2-8.3,7l-0.7-0.4
		c1-2.6,2.4-6.9,3.5-10.7L32.7,4.9z M50.5,12.1c0,0,3,3,4.7,5C55,17.7,54.5,18,53.7,18h-5.8v27.9c0,4.6-1,7.1-8.4,7.8
		c-0.2-2.1-0.5-3.6-1.4-4.6c-0.9-1-2.2-1.8-5-2.2v-0.8c0,0,5.9,0.4,7.1,0.4c0.9,0,1.3-0.3,1.3-1.1V18H29.8l-0.5-1.7h12.3V0.8L50,1.7
		c-0.2,0.8-0.7,1.4-2.1,1.6v13L50.5,12.1z M31.4,21.9c14.3,6.6,7.5,18.1,2.1,12.6c0.2-4.2-1.1-8.8-2.7-12.3L31.4,21.9z"/>
	<path d="M87.8,23.3c-0.5,0.5-1.1,0.9-2.4,1.1C85,42,84,48.3,81.1,50.9c-1.8,1.6-4,2.3-6.7,2.3c0-1.9-0.2-3.4-0.9-4.3
		c-0.7-0.9-2-1.6-3.8-2v-0.8c1.5,0.1,4,0.3,5.1,0.3c0.9,0,1.3-0.2,1.8-0.6c1.5-1.4,2.3-8,2.7-22.4h-5.1c-1,11.7-4,22.7-13.1,30.4
		l-0.5-0.5c6.8-11.5,7.4-26.1,6.9-39.8h-5.8l-0.5-1.6h19.4l3.4-4.5c0,0,3.9,3.1,6.2,5.2c-0.2,0.6-0.8,0.9-1.6,0.9H74.7
		c-0.1,2.7-0.2,5.5-0.3,8.2h4.4l3.3-3.3L87.8,23.3z M69.3,0.3c15.6,2.9,9.7,14.6,3.8,10c-0.3-3.4-2.3-7.2-4.3-9.6L69.3,0.3z
		 M115.7,20.5l-0.1,0.8c-2.6,1.3-4.3,3.2-4.7,5.7c-4.3-5.2-7.2-13.2-8.8-21.3c-3,7.8-8.4,16.5-15.7,22.1l-0.6-0.5
		C91,19.9,94.9,8,95.9,0l9.2,2.1c-0.2,0.8-0.7,1.2-2.3,1.4C105.1,10.9,110.4,17,115.7,20.5z M89.1,36.9
		c26.3,3.3,23.8,19.2,15.7,15.7c-3.3-5.5-10.4-11.7-16.1-15.2L89.1,36.9z M93.9,22.4c16.6,0.3,13.4,12.3,7,9.3
		c-1.4-3.1-4.8-6.7-7.4-9L93.9,22.4z"/>
	<path d="M129.3,0.1h18.4v2.2h-16v34.3h-2.3V0.1z"/>
	<path d="M155.5,13.9c14.9,1.1,9.9,12,4.1,8.2c-0.6-2.8-2.7-5.9-4.5-7.8L155.5,13.9z M172,11.3c-1.9,6.8-5.4,19.2-6.1,22.1
		c-0.5,1.9-0.9,3.8-0.8,5.3c0.2,3,2.5,5.1,2.2,10.2c-0.1,2.9-2,4.8-4.7,4.8c-1.3,0-2.6-0.9-3-3c1.1-6,0.8-11.3-0.5-12.2
		c-0.8-0.6-1.7-0.8-2.9-0.9v-1.1h2.5c0.9,0,1.1,0,1.7-1.1c1.2-2.1,1.2-2.1,10.7-24.2L172,11.3z M159.8,0.7
		c15.6,1.5,10.4,12.9,4.4,8.8c-0.7-3-2.9-6.4-4.8-8.4L159.8,0.7z M199.2,23l6.5,4.8c-0.4,0.5-1.2,1-2.4,1.2v16.8
		c0,4.2-0.9,6.6-8,7.2c-0.2-1.9-0.4-3.5-1.1-4.4s-1.8-1.6-4.3-2v-0.8c0,0,4.8,0.3,5.9,0.3c0.8,0,1.1-0.4,1.1-1.1v-4.3h-16.2
		c-0.6,4.8-2.7,9.7-10.1,12.9l-0.5-0.5c4.2-4.4,4.4-10.3,4.4-16.2V23.8l7.4,2.6h14.5L199.2,23z M202.9,16.2c0,0,3.9,3,6.3,5.2
		c-0.1,0.6-0.7,0.9-1.5,0.9H171l-0.5-1.7h14.3v-5.3h-10.3l-0.5-1.7h10.8V8.6h-12.3L172.1,7h12.7V0.1l8.4,0.7
		c-0.1,0.7-0.5,1.3-1.9,1.5V7h6.5l3.4-4.4c0,0,3.9,3,6.2,5.1c-0.1,0.6-0.7,0.9-1.5,0.9h-14.6v5.1h5.4l3.2-4.1c0,0,3.6,2.9,5.8,4.8
		c-0.2,0.6-0.8,0.9-1.6,0.9h-12.9v5.3h8.1L202.9,16.2z M196.9,39.3v-4.8h-16.1v2.6c0,0.7,0,1.4-0.1,2.2H196.9z M180.9,28v4.9h16.1
		V28H180.9z"/>
	<path d="M216.7,14c14.1,2,9.3,12.3,3.9,8.5c-0.6-2.9-2.6-6-4.4-8.1L216.7,14z M230.6,17.4c-1.6,6.2-3.5,13.9-3.9,16.1
		c-0.4,1.7-0.7,3.6-0.6,5.1c0.1,3.1,2.4,5.2,2.2,10.3c-0.1,2.9-1.9,4.7-4.6,4.7c-1.3,0-2.5-0.9-2.9-3c1-6,0.8-11.4-0.5-12.3
		c-0.8-0.6-1.7-0.8-2.9-0.9v-1.1h2.5c0.7,0,1,0,1.6-1.1c1.1-2,1.1-2,9.3-22.6l0.9,0.2l-1,4.2c1.5-0.1,3.7-0.2,6.3-0.4v-4.1h-4.3
		l-0.5-1.6h4.7V6.8h-5.8l-0.5-1.7h6.2v-5l7.8,0.7c-0.1,0.8-0.6,1.4-2.1,1.6v2.7h1.8l2.2-2.8c0,0,2.6,2,4,3.5
		c-0.1,0.6-0.7,0.9-1.4,0.9h-6.7v4.1h1.1L246,8c0,0,2.6,2.1,4.1,3.5c-0.2,0.6-0.6,0.9-1.4,0.9h-6v3.6c2.7-0.3,5.5-0.6,8.3-1L251,16
		c-2.2,1-5,2.1-8.4,3.2v3.9c0,0.5-2.5,1.5-4.6,1.5h-1v-3.5l-2.9,0.9c-0.3,0.7-0.9,1.1-1.5,1.3L230.6,17.4z M220.4,0.6
		c14.9,2.1,9.8,12.9,4.2,8.9c-0.6-3-2.8-6.3-4.7-8.5L220.4,0.6z M256.6,31.5c15.5-0.3,12.9,11.3,7,8.7c-0.5-1.2-1.3-2.5-2.3-3.6
		c-2.1,0.4-4.7,0.9-7.6,1.4v9.2c0,3.9-1,6-7.5,6.6c-0.1-1.5-0.3-2.8-1-3.6c-0.7-0.7-1.7-1.3-4.2-1.7v-0.8c0,0,4.7,0.3,5.8,0.3
		c0.9,0,1-0.3,1-0.9V39c-2.1,0.3-4.3,0.7-6.7,1l5.4,3.1c-0.3,0.5-0.9,0.7-2.2,0.6c-3.3,3-8.8,6-14.5,7.8l-0.5-0.7
		c3.8-2.7,7.5-7,9.5-10.4l-3,0.5c-0.3,0.4-0.6,0.6-0.9,0.8l-3-5.7c0,0,1.3-0.1,2.1-0.3c4.7-1.1,10.4-3.6,15.2-6.2
		c-3.5,0.9-7.9,2-12.5,3c-0.2,0.2-0.4,0.5-0.6,0.6l-2.7-4.6c0,0,0.9-0.2,1.4-0.3c4.4-1.3,10.3-5.6,12.5-7.8l5.4,3.9
		c-0.3,0.5-1.3,0.8-2.5,0.3c-2.3,1.2-5.6,2.5-9,3.6c3.3-0.2,7.3-0.4,11.3-0.7c1.9-1.1,3.5-2.3,4.7-3.2l6.1,4.7
		c-0.3,0.5-1.3,0.8-2.6,0.3c-4.4,2.2-12.4,4.8-20,6.8c5.2-0.1,12.2-0.4,19.5-0.7c-1.3-1.3-2.8-2.5-4.2-3.2L256.6,31.5z M270.5,5.6
		c-0.4,0.5-1.1,0.7-2.2,0.9c-0.3,10.5-1,14.3-3.2,16c-1.4,1.1-3.4,1.5-5.8,1.5c0-1.5-0.1-2.6-0.7-3.3c-0.7-0.8-1.8-1.3-3.3-1.7v-0.7
		c1.3,0.1,3.5,0.2,4.4,0.2c0.8,0,1.1-0.1,1.5-0.5c0.9-0.9,1.3-4.4,1.5-12.4h-3c-0.5,5.6-2.6,12.1-8.9,16.7l-0.7-0.7
		c3.2-5.4,3.6-11.2,3.8-16h-3.1L250.2,4h11.9l2.9-2.9L270.5,5.6z M255.2,39.6c17.8,2.5,15.1,14.1,9.1,11.2
		c-1.8-3.6-6.1-8.2-9.6-10.8L255.2,39.6z"/>
	<path d="M299.2,29.2c-0.3,0.2-0.9,0.3-1.7,0.4c-1.7,4.1-5,8.3-9.1,11.7c0.3,0.1,0.6,0.3,1,0.5c4.4,3.6,11.3,4.5,23.7,4.4
		c6.6,0,12.1-0.1,18.8-0.4v0.7c-2.7,0.6-4.3,3-4.6,5.6h-16.3c-12.3,0-17.4-2.3-22.2-8.3c-0.8-1-1.4-0.9-1.9,0.1
		c-1,1.7-2.6,4.8-3.9,7.7c0.1,0.5-0.1,0.9-0.5,1.1l-4.4-6.5c2.2-1.1,5.3-3.2,7.4-4.4c2.5-3.6,4.5-8.6,5.4-12.8h-3.5l-2.1,1.9
		l-5.3-3.8c0.6-0.4,1.4-0.8,2.3-1.1c1.9-2.7,4.3-6.5,5.9-9.3h-8.8l-0.5-1.7h9.5l2.9-2.9l5.7,5.2c-0.5,0.6-1.7,0.9-3,0.9
		c-1.5,2.5-3.9,6.3-5.8,9h2.6l3.4-3.3l5.4,4.3v-1.8l6.8,2.6h12.2l3.1-3.3l6.4,4.8c-0.3,0.5-1.1,1-2.3,1.2v10.7
		c-0.1,0.4-3.4,1.5-5.5,1.5h-1.1v-2.6h-13.1v0.7c0,0.5-2.9,1.9-5.6,1.9h-0.9V29.2z M280.8,1.1c16.2,0.7,11.4,13.1,5,9.1
		c-0.7-3.1-3.1-6.7-5.4-8.8L280.8,1.1z M295.9,11.3l-0.5-1.6h26.5l3.5-4.3c0,0,3.9,2.9,6.3,5c-0.2,0.6-0.7,0.9-1.5,0.9H295.9z
		 M320.6,12.3c0,0,3.8,2.9,6.2,4.8c-0.1,0.6-0.7,0.9-1.5,0.9h-25.3l-0.5-1.6h17.8L320.6,12.3z M320.6,18.6c0,0,3.8,2.9,6.2,4.9
		c-0.1,0.6-0.7,0.9-1.5,0.9h-25.3l-0.5-1.7h17.8L320.6,18.6z M306.1,0c15,1.4,9.4,12.8,3.5,8.6c-0.3-3-2.1-6.2-4-8.3L306.1,0z
		 M305.7,31v9.2h13.1V31H305.7z"/>
	<path d="M354.4,17.1c-0.2,0.5-0.6,0.9-1.7,1.1v33.4c-0.1,0.5-2.9,1.9-5.5,1.9H346V23c-2.1,2.5-4.3,4.7-6.7,6.7l-0.7-0.5
		c4.4-7.1,8.8-18.2,11-29.1l9,3.2c-0.2,0.7-1,1.1-2.3,1.1c-1.5,4.1-3.3,7.9-5.3,11.3L354.4,17.1z M386.8,25c0,0,4.2,3.3,6.6,5.6
		c-0.2,0.6-0.8,0.9-1.6,0.9h-14.6v20.1c0,0.7-2.9,2-5.5,2h-1.4V31.5H355l-0.5-1.7h15.8V16h-7.1c-2.2,4.5-5,8.3-8.2,11.3l-0.7-0.4
		c2.6-6,4.8-15.2,5.8-23.7l8.8,2.7c-0.2,0.7-1,1.2-2.2,1.2c-0.8,2.6-1.8,5-2.8,7.2h6.3V0.9l9.1,0.9c-0.2,0.8-0.6,1.4-2.2,1.7v11h4.7
		l3.5-4.7c0,0,3.9,3.2,6.3,5.4c-0.2,0.6-0.8,0.9-1.6,0.9h-12.9v13.9h5.9L386.8,25z"/>
	<path d="M449.3,29.3c0,0,3.5,3,5.5,5c-0.2,0.6-0.7,0.9-1.5,0.9H446v8.4c-0.1,0.5-3.2,1.8-5.4,1.8h-1.1v-3.4h-9.1v4
		c0,4.5-1.1,7-9.2,7.6c-0.2-1.9-0.6-3.4-1.6-4.3c-1.1-0.9-2.5-1.7-5.8-2.1v-0.8c0,0,7.1,0.5,8.4,0.5c1,0,1.4-0.3,1.4-1.1v-3.8h-16.7
		l-0.5-1.6h17.2v-5.2h-22.5l-0.5-1.6h23v-5.2h-16.2l-0.5-1.5h16.8v-5.2h-9V23c0,0.6-3.1,2-5.8,2H408v-15l7.2,2.7h8.5V8.2h-22.3
		l-0.5-1.6h22.9V0.1l8.8,0.9c-0.1,0.9-0.6,1.4-2.1,1.7v4h12.3l3.8-4.7c0,0,4.2,3.1,6.9,5.4c-0.1,0.6-0.7,0.9-1.6,0.9h-21.4v4.5h8.7
		l3.1-3.2l6.4,4.7c-0.3,0.4-1,0.9-2.1,1.1v6.6c-0.1,0.4-3.4,1.7-5.6,1.7h-1.2v-1.9h-9.3v5.2h8.6l3-3.2l6.2,4.6
		c-0.3,0.5-1,0.9-2.2,1.1v4.3h0.3L449.3,29.3z M423.6,20v-5.8h-9V20H423.6z M430.4,14.3V20h9.3v-5.8H430.4z M430.4,33.6h9.1v-5.2
		h-9.1V33.6z M439.5,35.2h-9.1v5.2h9.1V35.2z"/>
	<path d="M480.1,53.8h-18.4v-2.2h16V17.3h2.3V53.8z"/>
	<path d="M92.6,92.9c-0.3,0.7-1,1.3-2.2,1.2c-1.7,4.4-3.6,8.4-5.9,12l3.2,1.2c-0.2,0.5-0.6,0.9-1.7,1.1v33.2
		c-0.1,0.5-2.9,1.9-5.5,1.9h-1.2v-30.2c-2.1,2.5-4.4,4.7-6.8,6.6l-0.7-0.5c4.7-7.1,9.3-18.4,11.6-29.5L92.6,92.9z M103.9,114.8
		c-0.2,0.7-1,1.2-2.3,1.1c-3.2,7.7-7.8,13.9-13.1,17.9l-0.7-0.5c3.1-5.1,6-13.2,7.6-21.1L103.9,114.8z M88,114.2
		c3.8-5.8,7.5-14.9,9.4-24l8.9,3.2c-0.2,0.7-1,1.2-2.3,1.1c-1.1,2.5-2.3,4.7-3.5,6.9H117l3.5-3.5l6,5.8c-0.5,0.5-1,0.6-2.2,0.7
		c-1.9,2.3-5.1,5.6-7.8,7.5l-0.5-0.4c0.5-2.3,1.1-5.8,1.4-8.4h-18c-3.1,4.8-6.7,8.7-10.8,11.7L88,114.2z M104.4,103.6l8.6,0.8
		c-0.1,0.8-0.7,1.3-2,1.5v29.6c0,4.7-1,7.4-8.7,8c-0.2-2.2-0.5-3.8-1.4-4.8c-1-1.1-2.3-1.8-5.2-2.3v-0.8c0,0,6.2,0.4,7.5,0.4
		c0.9,0,1.3-0.3,1.3-1V103.6z M113.8,112.7c17.8,10.4,12.4,24.5,5.9,18.6c-0.7-5.9-3.9-13-6.6-18.3L113.8,112.7z"/>
	<path d="M159.6,102.6c-0.4,0.5-1.3,1-2.4,1.2v34c-0.1,0.5-3.1,1.9-5.3,1.9h-1v-4.5h-8.7v4.2c0,0.7-2.4,2.2-5.1,2.2h-1V98.4l6.4,2.7
		h0.3c0.4-3.1,0.9-7.6,1.2-10.8l9.2,2.2c-0.2,1-1,1.4-2.3,1.4c-1.5,2-3.7,5-5.5,7.2h5l3-3.4L159.6,102.6z M142.3,102.8v14.1h8.7
		v-14.1H142.3z M150.9,133.6v-15h-8.7v15H150.9z M187.4,102.6c-0.5,0.5-1.2,0.9-2.5,1.1c-0.4,23-1.2,33.4-4.3,36.8
		c-2.1,2.2-4.6,3.1-8.3,3.1c0-2.2-0.3-3.8-1.3-4.7c-1-1.1-3.2-2-6-2.5l0.1-0.8c2.7,0.2,6.7,0.5,8.2,0.5c1,0,1.5-0.2,2.1-0.7
		c2.1-1.9,2.7-13.3,3.1-32.7h-10.6c-2.7,4.8-6,8.9-9.6,12l-0.7-0.5c3.1-5.8,6.2-15.1,7.7-23.8l9,2.6c-0.2,0.7-0.9,1.1-2.2,1.1
		c-1,2.5-2,4.7-3.2,6.9h9.1l3.6-3.7L187.4,102.6z M162.2,112.6c16.6,4.9,10.4,17.2,4.4,12.1c-0.3-4-2.6-8.7-4.8-11.8L162.2,112.6z"
		/>
	<path d="M211.8,122.7c0,0.6-2.8,1.9-5.2,1.9h-1.2v-12.1c-2.7,3.8-6.2,7.2-10.2,10l-0.6-0.7c4.4-5.4,7.4-13,9-20.4h-7.7l-0.5-1.6h10
		v-9.8l8.3,0.9c-0.2,0.7-0.5,1.2-1.9,1.4v7.5h1.1l3.1-4.6c0,0,3.6,3.1,5.7,5.2c-0.2,0.6-0.7,0.9-1.5,0.9h-8.3v4.3
		c13.7,3.2,8.4,13.5,3.1,9.3c-0.2-2.7-1.5-5.5-3.1-7.7V122.7z M203.2,126.1c3.1,7.2,1,12.3-1.8,14c-2,1.2-4.7,0.7-5.4-1.4
		c-0.6-2.1,0.6-3.7,2.3-4.6c2.1-1.2,4.3-4.3,4.2-7.8L203.2,126.1z M235.8,135.3c2.1,0.7,2.6,1.5,2.6,2.6c0,2.9-2.7,3.8-14.1,3.8
		h-7.5c-6.6,0-8-1-8-5.4v-11.2l8.5,0.7c-0.1,0.7-0.6,1.3-1.8,1.4v7.8c0,0.8,0.2,1,2.4,1h7.1c2.5,0,4.7,0,5.6-0.1
		c0.9-0.1,1.3-0.2,1.7-0.8c0.7-0.9,1.5-3,2.7-6h0.6L235.8,135.3z M219.3,123.4c15.1,3.4,9.3,14.5,3.8,9.9c-0.3-3.4-2.3-7.1-4.3-9.6
		L219.3,123.4z M228.3,121.8c0,0.7-2.7,2.2-5.4,2.2H222V92l6.6,2.7h9.2l3.1-3.5l6.4,5c-0.4,0.5-1.1,1-2.3,1.3v24.5
		c-0.1,0.5-3.3,1.8-5.5,1.8h-1.1V120h-10V121.8z M228.3,96.3v6.2h10v-6.2H228.3z M238.3,110.4v-6.2h-10v6.2H238.3z M238.3,118.4V112
		h-10v6.4H238.3z M236.3,125.7c17,4.8,11.1,17.7,5,12.7c-0.2-4.3-2.7-9.2-5.5-12.3L236.3,125.7z"/>
	<path d="M256.6,103.9c15.2,0.9,10.5,12.1,4.6,8.4c-0.7-2.9-3.1-6.1-5.1-8L256.6,103.9z M275.1,98.2c-2.5,7.6-6.8,21.5-7.6,24.8
		c-0.6,2.1-1,4.2-0.9,5.7c0.1,3.1,2.4,5.1,2.2,10.2c-0.1,2.9-2,4.8-4.7,4.8c-1.4,0-2.7-0.8-3.1-3c1-5.9,0.8-11.3-0.6-12.2
		c-0.8-0.6-1.8-0.8-3-0.9v-1.1h2.7c0.8,0,1.1,0,1.7-1.2c1.3-2.3,1.3-2.3,12.4-27.2L275.1,98.2z M261.3,90.9c16,1.4,10.9,13,4.8,9
		c-0.8-3.1-3.2-6.4-5.3-8.6L261.3,90.9z M303.8,111c0,0,4.3,3.4,6.9,5.7c-0.2,0.6-0.7,0.9-1.6,0.9h-21.7l7.6,3.5
		c-0.2,0.5-1,1-2.1,0.9c-3.4,4.1-9.6,9.5-15.1,12.9c5.5-0.2,13.6-0.7,22.1-1.3c-1.5-3.2-3.5-6.3-5.3-8.8l0.6-0.3
		c20.2,8,14.7,22.9,7.6,17.3c-0.4-2.2-1.2-4.4-2.2-6.7c-5.5,1.7-13.6,3.9-23.5,6.2c-0.5,0.6-0.9,1-1.4,1.3l-3.2-7.9
		c0,0,1.4-0.3,2.1-0.8c3.8-2.7,9.1-11.2,11.1-16.4h-13.8l-0.5-1.6h15.2v-12.2h-10.8l-0.5-1.7h11.2V90.3l8.8,0.7
		c-0.2,0.8-0.6,1.4-2.1,1.6v9.5h4.6l3.6-4.7c0,0,4,3.2,6.6,5.5c-0.2,0.6-0.8,0.9-1.7,0.9h-13.1V116h7L303.8,111z"/>
	<path d="M348.3,136.7c1.1,0.1,2.2,0.1,3.4,0.1c4.3,0,14.8,0,19.4-0.1v0.7c-2.1,0.5-3.1,2.7-3.1,5.2h-16.4c-10.1,0-15.7-2.2-19-11.2
		c-2.9,4.8-7.6,9.3-15.2,12.3L317,143c8.1-6,10.9-14.9,11.7-22.3l9.3,1.8c-0.2,0.8-0.7,1.3-2.2,1.3c-0.6,2.1-1.3,4.2-2.4,6.2
		c1.9,3.2,4.4,4.9,7.8,5.8v-17.7h-23l-0.5-1.6h43.2l3.6-4.8c0,0,4,3.3,6.4,5.5c-0.2,0.6-0.8,0.9-1.6,0.9h-21v7.9h6.9l3.8-5.1
		c0,0,4.4,3.5,7,5.9c-0.2,0.6-0.7,0.9-1.6,0.9h-16.1V136.7z M334.2,112.8c0,0.7-3.1,2.2-6,2.2h-1V91.1l7.5,3h19.4l3.2-3.5l6.8,5.1
		c-0.3,0.5-1.1,1-2.3,1.3v15.6c-0.1,0.3-3.6,1.6-5.9,1.6h-1.2v-2.9h-20.4V112.8z M334.2,95.7v6h20.4v-6H334.2z M354.7,109.5v-6.2
		h-20.4v6.2H354.7z"/>
	<path d="M389.5,102.5c-0.6,3.7-2,4.9-4.3,4.9c-1.4,0-2.6-0.6-3.4-1.8c0.4-7,6.3-10.9,14.2-10.9c9.1,0,13.7,4,13.7,10
		c0,4.5-2.2,7.4-8,10.9c-4.4,2.7-5.9,3.8-6.2,6.8l-0.3,3.5h-2.1c-0.3-1.9-0.7-4.3-0.7-5.8c0-2.7,1.4-4.2,5.1-7.3
		c3.5-2.9,5.1-5,5.1-8.7c0-4.9-3.4-7.3-8.6-7.3c-1.3,0-2.3,0.1-3.4,0.5L389.5,102.5z M398.9,134.9c0,2.5-2,4.5-4.6,4.5
		c-2.6,0-4.6-2.1-4.6-4.5c0-2.5,1.9-4.6,4.6-4.6C396.9,130.3,398.9,132.4,398.9,134.9z"/>
</g>
</svg>
