<!-- Generator: Adobe Illustrator 25.0.0, SVG Export Plug-In  -->
<svg version="1.1" xmlns="http://www.w3.org/2000/svg" xmlns:xlink="http://www.w3.org/1999/xlink" x="0px" y="0px" width="339.3px"
	 height="71.6px" viewBox="0 0 339.3 71.6" style="overflow:visible;enable-background:new 0 0 339.3 71.6;" xml:space="preserve">
<style type="text/css">
	.st0{fill:#FFFFFF;}
</style>
<defs>
</defs>
<g>
	<path class="st0" d="M19.9,26.7l-9.7,40.8c-0.3,1.4-4.4,3.9-8.6,3.9H0L16.5,1.8l8.6,4.4h6.6l5-4.7l6.4,6.7
		c-0.5,0.5-1.4,1.1-2.8,1.4l-4.2,17.9c-0.2,0.7-4.9,2.7-7.9,2.7h-1.6l0.9-3.6H19.9z M43.6,49.4l-3.8,15.9c-0.2,0.4-2.9,1.9-7,1.9
		h-1.5l4.2-17.8H31c-2.3,6.7-6.7,14.1-18.3,18.7l-0.4-0.7c6.3-5.3,9.1-11.7,10.9-18h-7.4l0-2.1h8l0.5-2l2.1-8.9h-5.8l0-2.1H44
		l5.3-5.7c0,0,3.5,3.9,5.5,6.6c-0.4,0.8-1.2,1.2-2.1,1.2h-6.1l-2.2,9.4l3.7-4.2c0,0,3.1,3.9,4.9,6.6c-0.4,0.8-1.2,1.2-2.1,1.2H43.6z
		 M28,24.6l1.7-7.1h-7.6l-1.7,7.1H28z M24.2,8.3l-1.7,7h7.6l1.7-7H24.2z M36,47.3l2.6-10.9h-4.3l-2.1,8.9c-0.2,0.7-0.3,1.4-0.5,2H36
		z M75.1,8.4C74.5,9,73.4,9.7,72,10L60.2,59.7c-1.7,7-3.8,10.7-13.7,11.7c0.7-3.5,1-6,0.5-7.4c-0.5-1.6-1.3-2.7-3.9-3.4l0.2-0.9
		c0,0,4.9,0.3,6.1,0.3c1,0,1.3-0.5,1.6-1.4l7.6-31.9h-7.9c-0.2,0.9-4.6,3-8.4,3H41l6.5-27.4l8.3,4h7l5.5-5.3L75.1,8.4z M59.1,24.6
		l1.7-7.1h-7.9l-1.7,7.1H59.1z M55,8.3l-1.7,7h7.9l1.7-7H55z"/>
	<path class="st0" d="M148.2,35.4l6.4,6.8c-0.6,0.7-1.4,1.2-3,1.5l-5.7,24c-0.1,0.5-3.4,2.2-8.2,2.2H136l1.4-5.9h-12.6l-1.1,4.5
		c-0.2,0.7-3.3,2.3-7.9,2.3h-1.6l8-33.9l-0.2,0.1l-0.3-11.9c-2.9,8.1-6.3,15.9-10.9,23.1c11.5,8.9,0.4,18-4.6,13.5
		c-0.4-1.7-1-3.4-1.8-5c-5.2,5.8-11.5,10.8-19.4,14.8l-0.5-0.7c6.9-5.5,12.5-12.2,16.9-19.4c-2.5-3.6-5.5-6.9-8.4-9.2
		c1.7-3.5,3.8-8.5,5.9-13.9L98,28.5c-0.6,1-1.7,1.6-2.5,1.7l0.6-10.4c1.5,0.1,3.6,0.1,6,0c3-7.9,5.7-15.5,6.9-19.7L120,2
		c-0.4,0.9-1,1.7-3.2,2c-1.5,3.8-3.6,9.5-6.1,15.6l3.7-0.2c0.7-2.7,1.3-5.3,1.9-8l11.4,2.2c-0.6,1.2-1.5,2-3.1,2l-0.9,3.1l2.8-0.2
		l-0.2,1l-3.2,1.2c-0.5,1.4-1,2.9-1.4,4.4c0.4-0.1,2-0.6,2.9-1.2C129.2,20.3,138,7.3,141.1,0l12.5,4.5c-0.5,0.8-1.3,1.5-2.7,1.6
		c-5.7,6.4-15,14.3-22.5,19.2c5.3,0.1,12.6,0,20.4-0.1c-0.5-3.8-1.5-7.3-2.9-10.1l0.6-0.5c22.9,6.2,9.6,27.4,2.2,19.2
		c0.3-2,0.3-4,0.3-5.9c-6.1,2.1-14.5,4.8-24.6,7.5c-0.7,0.7-1.4,1.2-2.2,1.4l8.7,4h11.7L148.2,35.4z M105,44.7
		c3.4-6.8,6-13.8,8.1-20.7c-1.5,0.5-3.1,1-4.8,1.5c-2.5,6.1-5.2,12.2-7.6,17.3C102.3,43.4,103.8,44,105,44.7z M137.9,61.9l4.5-18.9
		h-12.6l-4.5,18.9H137.9z"/>
	<path class="st0" d="M204.4,14.4c-4.1,8.8-11.4,25-13.1,29.1c-1,2.5-2,5.2-2.4,7.1c-0.9,4.4,1.5,7-0.4,14.1c-1.1,4-4.2,6.6-7.7,6.6
		c-1.7,0-3.2-1-3.1-4c3.3-8,4.8-15.7,3.5-16.9c-0.8-0.8-1.8-1.1-3.2-1.2l0.3-1.4h3c1,0,1.3,0,2.4-1.6c2.1-2.8,2.1-2.8,19.7-32.1
		L204.4,14.4z M185.4,17.7c17.1,3.9,5.6,19,0.1,12.5c0.9-4.3,0.3-9-0.8-12.2L185.4,17.7z M207.2,52.2c17.3,6.4,5.5,22.6,0.1,15.6
		c0.8-3.7,0.7-7.7,0.1-11.3c-0.6,0.6-1.5,1-2.6,0.8c-5.5,6.8-11.9,11.3-18.3,14.1l-0.6-0.8c4.2-4.1,8.9-10.5,12.3-17.5
		c-0.4,0.1-0.9,0.1-1.3,0.1h-1.3l12.1-51l7.3,3.8h3.4l4.8-4.4l5.7,6.2c-0.5,0.5-1.2,1-2.4,1.3l-9.6,40.4c-0.2,0.6-4.6,2.6-7.4,2.6
		h-1.4l0.7-2.8h-4.3l-0.2,0.8c-0.1,0.6-1.6,1.7-3.6,2.4l6.6,3.2c-0.3-1.1-0.5-2.1-0.8-3.1L207.2,52.2z M193.5,0.6
		c18.2,4.1,6.5,19.8,0.5,13.2c0.7-4.5-0.2-9.4-1.1-12.9L193.5,0.6z M209.3,47.2l2.8-11.9h-4.3l-2.8,11.9H209.3z M212.6,33.1
		l2.7-11.4H211l-2.7,11.4H212.6z M214.2,8l-2.7,11.6h4.3L218.6,8H214.2z M253.1,2c-0.4,1.1-1.2,1.8-3,2.1l-13.2,55.8
		c-1.6,6.5-3.7,10.1-13.3,11c0.5-3,0.7-5.3,0-6.7c-0.7-1.5-1.8-2.5-5-3.2l0.2-1.1c0,0,6.6,0.5,8,0.5c1.1,0,1.5-0.4,1.7-1.3
		l13.9-58.5L253.1,2z M227,52.2c-0.2,0.8-4.1,2.6-6.8,2.6h-1.6l11.4-48.2l9.1,1c-0.2,0.8-0.7,1.3-2,1.5L227,52.2z"/>
	<path class="st0" d="M270.6,47.1c1.6,22.2-14,18.8-6.7,10.5c2.4-1.8,4.4-5.5,5.7-10.5H270.6z M326.6,3.6c-0.4,0.9-1.1,1.4-3.3,1.7
		c2.9,4.5,8.6,7.7,16,8.6l-0.2,0.9c-3.4,1.5-5.6,6.2-7,10.2c-5.1-4.1-8.5-11-9.6-19c-4.9,6.8-14.9,15.6-24.6,19.9
		c0.6,0.8,1.3,1.7,1.8,2.4l0.7-3.1l6,2.9h1.4l3.8-3.7l4.6,4.7l1-4.1l6.2,3.1h1.6l3.9-3.8l4.9,5.1c-0.5,0.6-1.3,1.1-2.7,1.3
		l-3.2,13.7c-0.1,0.3-2.5,1.6-5.7,1.6h-1.1l0.7-2.9H319l-0.5,2c-0.1,0.5-2.4,1.7-5.6,1.7h-1.1l4-17c-0.5,0.5-1.3,0.8-2.4,1
		l-3.2,13.7c-0.1,0.3-2.5,1.6-5.5,1.6h-1.1l0.7-2.9h-2.3l-0.5,2c-0.1,0.5-2.3,1.7-5.3,1.7h-1l1.3-5.3c-0.4,0.1-0.9,0.3-1.4,0.4
		c-4.9,18.4-7.4,24.4-11.2,27.2c-2.3,1.8-4.9,2.6-8,2.6c0.6-2.4,0.9-4.4,0.4-5.5c-0.5-1.2-1.4-2-3.1-2.5l0.2-1.1
		c1.4,0.2,3.6,0.3,4.7,0.3c0.9,0,1.5-0.1,2.1-0.7c1.1-0.9,2.5-3.9,4.4-10c-0.5-0.1-0.9-0.2-1.3-0.6c0.3-2.8-1.1-6-2.8-7.7l0.8-0.6
		c2.5,0.5,4.1,1.4,5.1,2.5c0.4-1.6,0.9-3.4,1.5-5.3h-10.6l-0.7,2.9c-0.1,0.5-2.9,2.4-6.6,2.4h-1.3L279,2.9l7.4,3.5h9.3l4.9-5.3
		c0,0,3.3,3.7,5.3,6.2c-0.4,0.8-1.2,1.2-2.1,1.2h-9l-2,8.4h0.8l4.2-4.7c0,0,2.8,3.3,4.3,5.6c-0.3,0.8-1.1,1.2-2,1.2h-7.8l-2,8.5h0.8
		l4.2-4.7c0,0,1,1.2,2.1,2.7c7.1-6.2,15-17.6,18.7-25.3L326.6,3.6z M273.7,46.3c6.2,9.1-1.3,18-3.5,13.4c1.7-4.2,2.5-9.5,2.5-13.1
		L273.7,46.3z M277.8,44.7c8.5,7.3,2,16.2-0.7,12.2c1-3.8,0.5-8.8-0.3-11.9L277.8,44.7z M277.9,38.3h2.7l2.1-8.7H280L277.9,38.3z
		 M285.2,18.9h-2.7l-2,8.5h2.7L285.2,18.9z M285,8.4l-2,8.4h2.7l2-8.4H285z M325.2,50.4c-0.4,0.8-1.1,1.4-2.8,1.4
		c-1.2,2-2.4,4-3.9,5.9c14.1,3.5,5.6,17-0.4,12.2c-0.2-3-1.1-6.3-2.2-9.1c-4.2,4.7-9.5,8.6-16.1,10.7l-0.2-0.9
		c1.9-1.4,3.7-2.9,5.3-4.7c-1.4,0.3-2.7-0.1-3.8-1.4c0.6-2,0.7-4.2,0.3-6c-4.4,5.3-10.2,10.1-17.1,13l-0.3-0.9
		c7.2-6,12.6-15.8,15.5-23.7l9.3,4.1c-0.5,0.8-1.2,1.4-2.8,1.3c-0.8,1.2-1.6,2.4-2.5,3.5c3.8,0.8,5.4,2.5,5.7,4.3
		c2.7-4.2,4.7-8.8,6.1-13.2L325.2,50.4z M299.6,28.6c-0.3,0.6-1.1,0.9-1.9,0.9h-7.8l-2.1,8.7h0.1l4.9-4.2l4.3,5.1L299.6,28.6z
		 M305.1,30.2l-2.5,10.7h2.3l2.5-10.7H305.1z M322.6,15.3c0,0,3.3,3.6,5.3,6.2c-0.4,0.8-1.2,1.2-2.1,1.2h-18.7l0-2.1h10.6
		L322.6,15.3z M322,30.2l-2.5,10.7h2.5l2.5-10.7H322z"/>
</g>
</svg>
