<!-- Generator: Adobe Illustrator 25.0.0, SVG Export Plug-In  -->
<svg version="1.1" xmlns="http://www.w3.org/2000/svg" xmlns:xlink="http://www.w3.org/1999/xlink" x="0px" y="0px" width="356.6px"
	 height="75.8px" viewBox="0 0 356.6 75.8" style="overflow:visible;enable-background:new 0 0 356.6 75.8;" xml:space="preserve">
<style type="text/css">
	.st0{fill:#FFFFFF;}
</style>
<defs>
</defs>
<g>
	<g>
		<path class="st0" d="M59.5,59.5c0,0,5.4,5.5,8.6,9.3c-0.4,0.9-1.4,1.3-2.4,1.3H0.1L0,67.8h36c6.3-13.1,13.8-31.2,18.3-43.4l13.7,4
			c-0.5,1-1.5,1.9-3.4,1.9c-6.1,10-16.4,25.5-26.4,37.5h13.5L59.5,59.5z M14.1,20.8L14,18.5h47.1l7.5-8.1c0,0,5.2,5.4,8.3,9
			c-0.4,0.9-1.3,1.3-2.4,1.3H14.1z M22.7,25.4c20.8,20.4,6.6,47.9-1.7,36.1c2.3-11.7,1.8-24.6,0.8-35.8L22.7,25.4z M40.8,0.3
			c23.5,2.8,9.8,23.5,1.9,15.6c0.6-5.5-0.8-11.2-2.5-15.2L40.8,0.3z"/>
		<path class="st0" d="M146.6,53.2c-0.2,0.8-4.6,2.8-8.2,2.8h-1.6l2.8-12.3c-0.4,0.1-1,0.1-1.7,0c-4.1,4.9-8.3,9.1-12.5,12.8
			c16.9,6.7,5.1,23.6-1.8,16.3c0.3-4.6-0.4-9.5-1.4-13.6c-9.5,7.6-19.6,12.6-31,16.2l-0.1-1.1c15.2-8.2,28.3-19.7,40-38.3l9,5.9
			l6-26.1h-0.3h-27.2l9.7,4.8c-0.4,0.7-1.3,1.3-2.6,1.2c-3.7,3-9.5,6.9-14.3,9.4c3.3,0.1,7.2,0.1,11.6,0c2.1-3,4.2-6.2,6.2-9.6
			l10,6.3c-0.7,1-1.6,1.3-3.2,1C123.9,43.5,111,52.9,95.7,59l-0.3-1c8.7-5.6,16.4-12.8,23.6-21.8c-3.4,1.2-7.3,2.5-11.3,3.7
			c-1.1,1.1-2.2,1.7-3.1,1.9l-0.5-11.1c0,0,3.9-0.7,4.9-1.3c2.4-2,6.1-9.4,7.8-13.7h-11.1l-0.1-2.2h17.7c-0.4-0.2-0.9-0.6-1.3-1
			c0.7-4.4-0.1-9-1.4-12l0.6-0.4c15.2,1,12.6,10.7,7.4,13.4h6.4l6.3-7.2c0,0,2.9,3.4,5.2,6.4l1-4.3l11.5,1.2
			c-0.4,1.1-1.1,1.9-3.1,2.2L146.6,53.2z M175.4,2.3c-0.3,1.2-1.2,1.9-3.1,2.2L158.9,63c-1.7,7.6-4.2,11.6-15.4,12.8
			c0.5-3.6,0.8-6.3,0-8c-0.8-1.7-2.1-2.9-5.8-3.7l0.2-1c0,0,7.7,0.5,9.3,0.5c1.1,0,1.6-0.4,1.8-1.3L163,1L175.4,2.3z"/>
		<path class="st0" d="M248.6,60.4c0,0,3,4.4,4.4,7.2c-0.3,0.9-1.1,1.3-2.1,1.3h-17.2l-0.7,3.1c-0.1,0.6-3.1,2.7-7.2,2.7h-1.5
			l7.2-31.6H231c-4.8,12.9-12.9,25.5-30.5,32.6l-0.4-0.9c10.1-6.3,16.2-15.2,20.1-24.3c-2.2,1.3-4.8,2.9-7.4,4.4
			c-0.8,0.8-1.5,1.3-2.2,1.6l-0.7-9.7c0,0,1.8-0.4,2.5-0.9c2.3-1.9,5.2-5.4,8-9.2l-3.4,1.8c-0.8,1.1-1.6,1.8-2.4,2.1l-1.1-7.1
			c-1.2,1-2.6,2.1-4.2,3.3l-6,26.1c-1.7,7.4-3.9,11.5-13.6,12.4c0.7-3.6,1-6.3,0.6-8c-0.4-1.7-1.3-2.9-3.9-3.6l0.2-1
			c0,0,4.8,0.3,6.1,0.3c0.9,0,1.3-0.4,1.5-1.2l3.8-16.7c-1.3,0.9-2.5,1.7-3.9,2.7c-0.5,1-1.5,2.1-2.5,2.4l-0.5-12.2
			c1.8-0.4,5.1-1.3,9-2.3l3.2-14h-7.2l-0.1-2.2h7.8l4.3-19l11.5,1.3c-0.4,1.2-1.3,1.9-3.1,2.2l-3.3,14.4l4.2-5.5
			c0,0,2.8,4.7,4.2,7.6c-0.3,0.9-1.1,1.3-2.1,1.3h-7l-2.6,11.2l3-0.9l-0.1-0.8c0,0,1.4-0.3,2.1-0.8c3.1-2.7,8.2-11.4,10-15.8l8.8,5
			c-0.5,0.8-1.3,1.3-2.6,1.2c-3.3,3.3-8,7.4-12.3,10.4c1.6,0,3.3,0,5.1,0c1.8-2.8,3.3-5.5,4.4-7.5l6.1,4.8c2-4.4,3.8-9,5.3-13.5
			l8.2,2.6c0-0.9-0.1-1.7-0.2-2.4l0.8-0.4c13.3,5.5,1.8,17.3-1.9,10.7c0.7-1.8,1.2-3.8,1.3-5.6c-0.3,0.1-0.7,0.1-1,0.1
			c-1.6,2.7-3.3,5.2-5,7.6l1.8,0.8h7.8l4.7-5.5c0,0,2.9,3.8,4.5,6.4c-0.3,0.9-1.1,1.3-2.1,1.3h-6.1l-2,8.6l3.1-4c0,0,2.5,4,3.6,6.6
			c-0.3,0.9-1.1,1.3-2.1,1.3h-5.5l-2,9l3.1-4c0,0,2.5,4,3.6,6.6c-0.3,0.9-1.1,1.3-2.1,1.3h-5.5l-2.2,9.8L248.6,60.4z M222,45.9
			c0.7-2,1.3-4,1.8-5.9c-2.5,2.2-5.1,4.4-7.6,6.3C218,46.2,220,46,222,45.9z M259,5.2c0,0,4.4,4.7,7,7.8c-0.4,0.9-1.3,1.3-2.4,1.3
			h-43.7l-0.1-2.2h20.4c-0.9-0.2-1.6-0.6-2.4-1.3c0.6-3.7-0.4-7.7-1.9-10l0.5-0.4c16.8-1.1,12.4,10.3,6.2,11.6h10L259,5.2z
			 M231.9,40.7l0.7-2.9c-0.9,0.8-1.8,1.5-2.7,2.2l-0.9-0.6c1.5-2.5,3.1-5.6,4.7-9l-0.3-0.1c-2.3,2.7-5.5,5.9-8.9,9L231.9,40.7z
			 M234.1,66.6h3.1l2.5-11h-3.1L234.1,66.6z M242.7,42.9h-3.1l-2.4,10.5h3.1L242.7,42.9z M242.4,30.4l-2.3,10.2h3.1l2.3-10.2H242.4z
			"/>
		<path class="st0" d="M348.4,6.6c0,0,5.2,5.2,8.3,8.9c-0.4,0.9-1.4,1.3-2.4,1.3h-33.5c-2.3,3.2-4.9,6.5-7.8,9.7l2.7,1.1h16.7
			l6.1-5.9l7.8,8.3c-0.7,0.8-1.9,1.6-3.6,1.9l-7.1,30.9c-1.7,7.4-4.2,11.6-15.7,12.8c0.6-3.8,0.8-6.5,0-8.2s-2-3-5.7-3.8l0.2-1
			c0,0,7.6,0.5,9.2,0.5c1.1,0,1.6-0.6,1.8-1.6l1.8-7.9h-19.6c-3,8.1-8.5,16.5-20,22.3l-0.3-0.6c7.2-8.8,10-20.3,12.5-30.8l1.5-6.5
			c-5.3,4.3-11.3,8.2-17.8,11.2l-0.4-0.7c10.7-8.4,19.7-20,26.6-31.5h-18l-0.1-2.2h19.4c2.9-5.1,5.3-10,7.2-14.5l12.7,4.4
			c-0.5,0.9-1.2,1.6-3.1,1.7c-1.6,2.8-3.4,5.6-5.4,8.5h18.6L348.4,6.6z M327.6,51.2l2.2-9.8h-19l-0.7,2.9c-0.5,2.2-1.1,4.5-1.9,6.9
			H327.6z M313.5,29.7l-2.2,9.4h19l2.2-9.4H313.5z"/>
	</g>
</g>
</svg>
