<!-- Generator: Adobe Illustrator 25.0.0, SVG Export Plug-In  -->
<svg version="1.1" xmlns="http://www.w3.org/2000/svg" xmlns:xlink="http://www.w3.org/1999/xlink" x="0px" y="0px" width="666.3px"
	 height="144px" viewBox="0 0 666.3 144" style="overflow:visible;enable-background:new 0 0 666.3 144;" xml:space="preserve">
<defs>
</defs>
<g>
	<path d="M46.1,0.7c0,0,4.4,3.4,7.2,5.6c-0.2,0.6-0.8,0.9-1.6,0.9H30.4c-2.3,2.9-5.3,6.1-7.8,8.4h19.2l3.4-3.9l6.2,4.9
		c-0.5,0.5-1.1,1-2.5,1.2v33.2c0,0.4-2.2,1.8-5.7,1.8h-1.1v-4.2H10.6v2.9c0,0.5-2.1,1.8-5.4,1.8H4V12.9l7.2,2.7h9.2
		c0.3-2.4,0.6-5.7,0.9-8.4H0.5L0,5.6h42.1L46.1,0.7z M10.6,47.1h6V17.3h-6V47.1z M29.7,17.3h-6.9V26h6.9V17.3z M22.8,36.5h6.9v-9
		h-6.9V36.5z M22.8,47.1h6.9v-8.9h-6.9V47.1z M35.9,17.3v29.9h6.2V17.3H35.9z"/>
	<path d="M79.3,43.5c3.8-0.4,7.8-0.9,11.9-1.3l0.1,0.8c-5.4,2.1-13.3,4.9-25.3,8.5c-0.3,0.7-1,1.2-1.7,1.4l-3.2-7.8
		c2.5-0.1,6.6-0.5,11.6-1v-7.7h-8.2l-0.5-1.7h8.7v-7.2h-9.6L62.8,26h15.1c0.7-2.9,1.5-7,2-9.9h-12c11.2,4.4,5,13,0.5,8.6
		c0.2-3-0.8-6.3-1.9-8.6h-5L61,14.4h8.8V0.2l6.6,0.7c-0.1,0.6-0.5,1-1.5,1.2v12.3h2.6V0.2l6.7,0.7c-0.1,0.6-0.6,1.1-1.7,1.4v12.1
		h2.9l3-3.9c0,0,3.5,2.7,5.6,4.6c-0.2,0.6-0.7,0.9-1.5,0.9H81.9l6.1,1.4c-0.2,0.7-0.9,1.2-2.1,1.2c-1.7,2.1-4.3,5-6.6,7.3h3.6
		l2.9-3.6c0,0,3.2,2.6,5.3,4.4c-0.2,0.6-0.7,0.9-1.5,0.9H79.3v7.2h1.9l3.1-4c0,0,3.5,2.8,5.6,4.7c-0.2,0.6-0.7,0.9-1.5,0.9h-9V43.5z
		 M62.1,2.1c12.3,4.9,6.5,14.3,2.1,9.9c0.1-3.2-1.2-7-2.7-9.5L62.1,2.1z M93.7,5c-0.3,0.6-1,1.1-2.2,1c-2.6,2.6-5.6,5.2-8.3,7
		l-0.7-0.4c1-2.6,2.4-6.9,3.5-10.7L93.7,5z M111.5,12.1c0,0,3,3,4.7,5c-0.2,0.6-0.7,0.9-1.5,0.9h-5.8v27.9c0,4.6-1,7.1-8.4,7.8
		c-0.2-2.1-0.5-3.6-1.4-4.6c-0.9-1-2.2-1.8-5-2.2v-0.8c0,0,5.9,0.4,7.1,0.4c0.9,0,1.3-0.3,1.3-1.1V18.1H90.7l-0.5-1.7h12.3V0.9
		l8.4,0.9c-0.2,0.8-0.7,1.4-2.1,1.6v13L111.5,12.1z M92.3,22c14.3,6.6,7.5,18.1,2.1,12.6c0.2-4.2-1.1-8.8-2.7-12.3L92.3,22z"/>
	<path d="M171.9,24.3c-0.4,0.5-0.9,0.7-2.2,0.3c-3.4,1.5-8.2,3.1-13.1,4.4c3.7,7.7,11.2,12,19.2,14.5l-0.1,0.6
		c-2.6,0.5-4.4,2.6-5.4,5.7c-7.3-4.4-12.3-10.4-14.9-20.5c-1.2,0.3-2.4,0.6-3.6,0.9c4.4,8,3.9,17.2,0.9,20.9
		c-1.5,1.8-4.3,2.5-8.4,2.5c-0.1-1.9-0.5-3.2-1.4-4.2c-0.7-0.7-2.6-1.5-4.8-2.1l-0.1-0.7c2.3,0.2,6.2,0.5,7.5,0.5
		c0.8,0,1.4-0.1,1.7-0.6c0.8-1.2,1.3-3.6,1.4-6.5c-6.8,4.4-16,8.2-25.1,10l-0.4-0.9c9.5-3.4,19.2-10.1,24.6-17.2
		c-0.1-0.5-0.2-0.9-0.4-1.4c-5.8,3.8-14.3,7.6-22.3,9.7l-0.3-0.7c7.4-3.4,15.4-9.7,19.8-15.4l-0.5-0.7c-5.3,3.1-11.8,5.6-18.5,7.2
		l-0.4-0.7c6.8-3.1,13.2-7.9,17.4-12.2h-11l-0.5-1.6h27.3l3.5-4.4c0,0,2.2,1.7,4.3,3.4c0.2-1.6,0.5-3.8,0.6-5.6h-35.4
		c0.3,4-1.1,6.8-3.1,8c-1.7,1.1-4.4,0.7-5.2-1.4c-0.6-2,0.6-3.5,2.2-4.4c2-1.1,4.2-3.9,4.1-7.1h0.8c0.4,1.1,0.7,2.2,0.9,3.2h17
		c-0.3-0.1-0.7-0.3-1-0.5c-0.3-2.6-2.1-5.4-4-6.8l0.4-0.3c11.5-0.6,11.2,6.2,7.6,7.6h15.2l3.4-3.4l5.9,5.6c-0.4,0.5-1,0.6-2.2,0.7
		c-1.7,1.5-4.4,3.6-6.7,4.8c0.5,0.4,1,0.8,1.4,1.2c-0.1,0.6-0.7,0.9-1.5,0.9h-14.9c-1.8,1.8-4,3.4-6.4,4.9c2.4,1.9,4.3,4,5.8,6.3
		c5.2-3.1,10.9-7.5,14-10.3L171.9,24.3z"/>
	<path d="M236.1,14.4c-0.4,0.5-1.1,1-2.3,1.3v18.8c-0.1,0.5-3.6,1.7-5.9,1.7h-1.2v-4.8h-12.8v20c0,0.7-3.1,2.5-5.8,2.5h-1.3V31.3
		H194v3.4c0,0.7-3.1,2.3-6,2.3h-1V9.8l7.6,3h12.2V0.3l9.2,0.9c-0.1,0.8-0.6,1.4-2.1,1.7v10h12.3l3.2-3.5L236.1,14.4z M206.7,29.6
		V14.4H194v15.2H206.7z M226.6,29.6V14.4h-12.8v15.2H226.6z"/>
	<path d="M272.6,31.9c4.1,9.8,13.5,13.2,24.8,14.8l-0.1,0.7c-2.7,0.7-4.6,2.9-5.4,6.2c-10.2-3.3-16.6-8.2-19.9-19.6
		c-2.4,8.6-8.5,15.3-26.5,19.8l-0.5-0.9c13.9-6,18.5-12.9,20.3-21.4h-17.4l-0.5-1.7h18.1c0.5-3.1,0.6-6.4,0.7-9.9l9.4,0.8
		c-0.1,0.8-0.7,1.4-2.1,1.6c-0.2,2.6-0.5,5.1-0.9,7.5h12.8l3.6-4.9c0,0,4.1,3.4,6.6,5.6c-0.2,0.6-0.8,0.9-1.7,0.9h-21.6L272.6,31.9z
		 M297.7,10.4c-0.4,0.5-1,0.6-2.2,0.7c-2.2,1.6-5.8,3.7-8.3,4.9l-0.6-0.3c0.6-1.6,1.3-3.9,1.7-5.9H281V10v5.8c0,0.7,0.1,0.9,1.7,0.9
		h4.3c1.4,0,3,0,3.8-0.1c0.5,0,1.3-0.1,1.7-0.2c0.4-0.1,1.1-0.2,1.6-0.3h0.5l0.3,0.1c1.8,0.6,2.3,1.3,2.3,2.3c0,2.3-2,3.1-10.9,3.1
		H281c-5.4,0-6.3-1.1-6.3-4.9V9.8h-20.1c0.3,4.1-1.4,7-3.5,8c-2.1,1-4.7,0.3-5.4-1.9c-0.5-2.1,0.7-3.7,2.6-4.5c2.2-1,4.3-3.8,4-7.2
		l0.8-0.1c0.6,1.4,1,2.7,1.3,4h17.5c-0.7-0.1-1.4-0.4-2.2-1c-0.2-2.5-1.5-5.2-2.7-6.8l0.5-0.3c11.2,0.9,9.5,7.5,5.5,8.1h15.2
		l3.5-3.5L297.7,10.4z M271,14.9c-0.3,0.7-1.1,1.1-2.9,1.1c-3.9,4.4-10.3,8.5-18.8,10.2l-0.5-0.6c7.1-3.9,12.4-10.4,14.4-15.4
		L271,14.9z M276.5,22.2c13.5,0.3,9,10.1,3.8,6.8c-0.6-2.3-2.6-4.9-4.2-6.4L276.5,22.2z"/>
	<path d="M334.1,16.8c-1.3,0.3-2.6,0.7-4.1,1c-0.7,7.4-2.1,14.3-5.4,20.3c12.3,7.2,6,13.7,1.3,10.8c-1.1-1.9-2.7-3.9-4.6-5.8
		c-3.4,4.3-8,7.9-14.5,10.5l-0.6-0.6c5.4-3.5,9.2-8,11.9-13c-3.1-2.8-6.7-5.3-10-7.2c0.9-2.8,1.9-6.7,2.9-11l-2,0.4
		c-0.4,0.7-1.1,1.1-1.8,1.3l-1.8-7c1.6,0,3.9,0,6.8-0.1c1.3-6.3,2.4-12.5,2.8-16l8.4,1.1c-0.2,0.6-0.5,1.3-2.2,1.4
		c-0.6,3.3-1.7,8.1-2.9,13.3l5.2-0.1c0.1-1.9,0.1-3.9,0.1-5.8l8.8,1.5c-0.2,1-0.9,1.4-2.2,1.5c-0.1,0.9-0.1,1.7-0.2,2.6L334,16
		L334.1,16.8z M323.5,19.3c-1.9,0.4-3.9,0.9-6.2,1.3c-1,4.5-2.2,9.1-3.4,12.9c2.3,0.7,4.3,1.6,6.1,2.4
		C322.1,30.7,323.1,25.1,323.5,19.3z M359.2,10.5c-0.4,0.5-1.2,1-2.4,1.3v35.1c-0.1,0.5-3.2,2.3-5.7,2.3H350V44h-9v4.3
		c0,0.8-2.5,2.4-5.5,2.4h-1V6.1l6.7,2.9h8.1l3.3-3.6L359.2,10.5z M350,42.4V10.6h-9v31.8H350z"/>
	<path d="M414.2,32.2c0,0,4.3,3.3,7,5.6c-0.2,0.6-0.8,0.9-1.6,0.9H368l-0.5-1.6h12.8v-26h-11l-0.5-1.6h11.5V0.4l8.7,0.9
		c-0.1,0.8-0.6,1.4-2,1.7v6.6h14.7V0.4l8.9,0.9c-0.1,0.9-0.6,1.4-2.1,1.7v6.6h1.5l3.5-4.4c0,0,4,3,6.4,5.1c-0.2,0.6-0.8,0.9-1.6,0.9
		h-9.9v26h1.8L414.2,32.2z M367.7,53.1c6.8-3.4,13.9-9.2,17.1-13.6l8.3,4.3c-0.5,0.7-1.4,1-3.2,0.7c-4.8,3.6-13.3,7.3-21.8,9.1
		L367.7,53.1z M387.1,11.1v7.4h14.7v-7.4H387.1z M387.1,27.6h14.7v-7.5h-14.7V27.6z M387.1,37.1h14.7v-7.8h-14.7V37.1z M399,41.1
		c30.6,3.3,19,16.7,13.3,11.1c-2.2-3.1-6.5-7.3-13.6-10.4L399,41.1z"/>
	<path d="M474.3,15.2c-0.2,0.7-0.9,1.3-2.2,1.3c-0.5,1.6-1.1,3.1-1.8,4.4c13.2,3.8,8.6,13.9,3.1,10c-0.6-2.7-2.3-5.5-4.2-7.9
		c-1.9,3.4-4.4,6-7.3,8c5,6.4,12.5,11.1,20.3,13.2l-0.1,0.7c-2.6,0.6-4.6,2.7-5.4,5.9c-8.8-4.3-14.7-11.7-18.2-22.5v23.1
		c0,0.7-3,2.5-5.5,2.5h-1.3V36.5c-5.7,5.9-13.8,11.2-22.7,14.3l-0.5-0.7c9.9-5.4,19.1-15.6,23.1-26.3V11.5H430l-0.5-1.7h22.2V0.4
		l8.9,0.9c-0.1,0.8-0.5,1.4-2.1,1.6v6.9h11.9l3.9-4.8c0,0,4.3,3.3,7.1,5.6c-0.2,0.6-0.8,0.9-1.7,0.9h-21.3v13.9
		c0.7,1.5,1.5,3,2.6,4.4c2.5-4.3,4.2-10.1,4.7-16.5L474.3,15.2z M447.6,15.6c-0.2,0.7-1,1.3-2.2,1.3c-0.6,1.5-1.2,2.9-1.9,4.2
		c10,3.8,4.7,11.6,0.1,7.7c-0.1-1.7-0.7-3.5-1.5-5.1c-2.8,4.4-6.3,7.8-10.3,10.1l-0.7-0.5c3.8-4.7,7-12,8.3-20L447.6,15.6z"/>
	<path d="M515.9,12.7c-0.4,0.5-1.3,1-2.4,1.2v34c-0.1,0.5-3.1,1.9-5.3,1.9h-1v-4.5h-8.7v4.2c0,0.7-2.4,2.2-5.1,2.2h-1V8.5l6.4,2.7
		h0.3c0.4-3.1,0.9-7.6,1.2-10.8l9.2,2.2c-0.2,1-1,1.4-2.3,1.4c-1.5,2-3.7,5-5.5,7.2h5l3-3.4L515.9,12.7z M498.5,12.8V27h8.7V12.8
		H498.5z M507.2,43.6v-15h-8.7v15H507.2z M543.7,12.7c-0.5,0.5-1.2,0.9-2.5,1.1c-0.4,23-1.2,33.4-4.3,36.8c-2.1,2.2-4.6,3.1-8.3,3.1
		c0-2.2-0.3-3.8-1.3-4.7c-1-1.1-3.2-2-6-2.5l0.1-0.8c2.7,0.2,6.7,0.5,8.2,0.5c1,0,1.5-0.2,2.1-0.7c2.1-1.9,2.7-13.3,3.1-32.7H524
		c-2.7,4.8-6,8.9-9.6,12l-0.7-0.5c3.1-5.8,6.2-15.1,7.7-23.8l9,2.6c-0.2,0.7-0.9,1.1-2.2,1.1c-1,2.5-2,4.7-3.2,6.9h9.1l3.6-3.7
		L543.7,12.7z M518.5,22.6c16.6,4.9,10.4,17.2,4.4,12.1c-0.3-4-2.6-8.7-4.8-11.8L518.5,22.6z"/>
	<path d="M594.7,33c-3.8,0-4.4-1.1-4.4-4.2v-8c-0.3,0.1-0.7,0.1-1.1,0.2c-2.1,5.6-4.9,9.7-9.8,12.7l7.4,0.7
		c-0.1,0.7-0.6,1.3-1.8,1.4v3.7h5.4v-5.7l7.2,0.7c-0.1,0.6-0.5,1.1-1.6,1.3v3.8h1.7L600,36c0,0,2.7,2.5,4.3,4.3
		c-0.2,0.6-0.7,0.9-1.5,0.9h-6.8v11.1c0,0.5-2.5,1.5-4.6,1.5h-1V41.2h-5.5c-0.5,4.7-3,9.9-12.6,12.8l-0.5-0.6
		c5.8-3.3,7.3-7.9,7.5-12.1h-5.7l-0.5-1.7h6.2v-5.8c-1.7,1-3.5,1.9-5.6,2.7l-0.6-0.9c3.4-2.1,6.1-4.6,8.2-7.8
		c-0.7,0.1-1.5,0-2.3-0.6c-0.1-1.1-0.6-2.4-1.3-3.3c-1.3,1.1-2.6,2.2-3.9,3l-0.6-0.7c1.1-1.3,2.1-3,3-4.8c-0.3,0.2-0.9,0.2-1.6,0.3
		c-0.8,1.1-2.2,2.9-3.1,3.8l-0.9-0.3l0.3-4.1h-15.2c0.4,2.4,0,4.2-1,5c-1,1-3.1,0.9-3.8-0.6c-0.6-1.4,0.2-2.7,1.6-3.5
		c0.9-0.9,1.6-3.1,1-4.6h1c0.3,0.8,0.6,1.5,0.9,2.2h0.7V2.2l4.8,2h5.6l2.1-2.8l5.4,3.9c-0.4,0.6-1.2,0.9-2.6,1.1v12l1.3-1.3l3.8,3.7
		c1-1.9,1.7-4,2.2-5.9h-4.8l-0.5-1.6h23.8l2.6-3.4c0,0,2.9,2.4,4.7,4.1c-0.2,0.6-0.7,0.9-1.5,0.9h-7.8v0.7V21h1.4l2.5-3.1
		c0,0,2.8,2.2,4.5,3.9c-0.2,0.6-0.7,0.9-1.4,0.9h-7v5c0,0.7,0.1,0.9,1,0.9h1.8c0.7,0,1.4,0,1.8-0.1c0.3,0,0.6-0.1,0.9-0.4
		c0.4-0.5,1-2.4,1.6-4.3h0.6l0.2,4.4c1.3,0.5,1.7,1.1,1.7,2c0,1.9-1.7,2.8-7.1,2.8H594.7z M574,27.7c-0.3,0.4-1.2,0.9-2.3,1.1v18.8
		c0,3.5-0.7,5.4-6,5.9c-0.1-1.5-0.3-2.6-0.9-3.3c-0.6-0.7-1.4-1.2-3.3-1.5v-0.9c0,0,3.5,0.2,4.4,0.2c0.8,0,1-0.3,1-1v-7.8
		c-1,1.1-2.1,2.3-3.2,3.8c-0.1,0.6-0.6,1.3-1.1,1.5l-2.1-4.1c-0.6,4.7-2.5,9.8-8.4,13.5l-0.6-0.6c4.2-5.1,4.5-11.4,4.5-17.6V24.2
		l5.7,2.2h4.7l2.3-2.7L574,27.7z M560.3,19.3h2.1V9.1l3.8,1.7h1.1v-5h-7V19.3z M560.8,35.7c0,1.1,0,2.2-0.1,3.4
		c1.5-0.5,3.9-1.3,6.3-2.2v-2.3c-0.5,0.6-1.5,1-2.7,0.6c-0.7-1-2.2-2.1-3.5-3V35.7z M560.8,28v2.9c3.5-0.5,5.4,0.3,6.2,1.3V28H560.8
		z M565.3,19.3h1.9v-6.9h-1.9V19.3z M600.8,2.8c0,0,2.6,2.2,4.2,3.9c-0.1,0.6-0.7,0.9-1.4,0.9h-5.9l-0.6,3.8c-1,0.8-2.9,1-5.1,0.6
		l0.7-4.3h-3.6V7.5c-0.2,0.1-0.5,0.1-0.8,0.1h-4.8l0.5,3.4c-0.8,1-2.7,1.5-5.2,1.4l-0.6-4.8h-4.6L573.1,6h4.9l-0.6-5.6l7.1,0.6
		c-0.1,0.6-0.5,1.3-1.7,1.5l0.5,3.5h0.2l2.2-3c0,0,1.8,1.5,3.2,2.9h4.1l0.9-5.5l6.8,1.3C600.5,2.5,600,3,598.6,3L598,5.9h0.6
		L600.8,2.8z M580.9,20.4c-0.6,0.8-1.3,1.5-1.9,2.2c2.3,0.4,3.6,1.3,4,2.2c0.6-1.4,1.2-2.8,1.7-4.4H580.9z M590.3,19.2v-4.3h-6.1
		c-0.6,1.4-1.3,2.6-2.2,3.9h2.7l2.2-2.3L590.3,19.2z"/>
	<path d="M640.9,21.1l6,4.6c-0.4,0.5-1.1,1-2.3,1.1v20.2c0,3.9-0.8,6-7.2,6.6c-0.1-1.7-0.3-3-1-3.8c-0.6-0.8-1.6-1.4-3.8-1.8v-0.8
		c0,0,4,0.3,5.1,0.3c0.8,0,1-0.3,1-1V25.8h-7.1c-1.6,1.4-3.7,3.1-5.7,4.4c2.1-0.1,4.6-0.3,7.2-0.5c-0.6-1.1-1.3-2.1-2.1-2.8l0.6-0.4
		c9.7,2.5,6.3,9.5,2.8,6.8c-0.1-0.7-0.3-1.5-0.6-2.2c-2.4,0.9-5.6,2.1-9,3.1c-0.4,0.7-0.9,1.1-1.3,1.3l-2.2-5.2c0,0,0.9-0.2,1.3-0.3
		c1.2-0.6,2.5-2.6,3.2-4.2h-5.4v25.8c0,0.6-2.4,2-4.8,2h-0.9V21.7l6.1,2.5h9.1c-1.5-2.2-4.7-4.6-7.2-5.9l0.5-0.5
		c4.8-0.4,7.6,0.6,9.2,1.9c1.3-1,2.7-2.2,3.8-3.3h-20.2l-0.5-1.7h5.9c-0.6-0.1-1.1-0.3-1.7-0.7c-0.3-2-1.6-4.2-2.8-5.5l0.5-0.3
		c9.2,0.6,7.9,6,4.8,6.5h10.3c1.8-2.1,3.5-5.2,4.8-8.7c-7,1-16.1,1.8-23.8,1.9l-0.2-0.9c8.8-1.6,19.9-4.8,25.6-7.2l6.3,5.3
		c-0.6,0.6-1.8,0.7-3.5,0.1c-1.1,0.2-2.4,0.5-3.8,0.7l5.8,2.7c-0.3,0.6-1,1.1-2.2,0.9c-1.9,2.1-4.3,3.9-6.6,5.1h2.4l3-2.9l5.1,4.8
		c-0.5,0.4-1.1,0.5-2.3,0.6c-2.3,1.1-6.3,2.6-9.5,3.5c0.7,1.3,0.5,2.6-0.3,3.3h5L640.9,21.1z M638.1,37.7c-0.4,0.5-1,0.6-2.3,0.7
		c-0.7,1.3-1.5,2.5-2.5,3.6c3.5,2.6,2.2,6-0.8,5.1c-0.6-0.7-1.3-1.5-2.2-2.3c-2.3,1.8-5.1,3.2-8.3,4.2l-0.5-0.9
		c2.6-1.3,5-3.1,6.8-5.1c-1.7-1.3-3.5-2.4-5-3.2l0.4-0.6c2.7,0.2,4.8,0.6,6.4,1.1c0.5-0.7,0.9-1.5,1.3-2.3H623l-0.5-1.6h9l2.5-2.2
		L638.1,37.7z M626,7.5c11.3,2.2,5.3,9.9,1.2,6c0-2.1-0.8-4.3-1.8-5.8L626,7.5z M664.3,46.1c1.5,0.8,2,1.6,2,2.7
		c0,2.6-2.3,3.9-8.8,3.9H654c-4.7,0-5.8-1.4-5.8-5.8V2l8.5,0.9c-0.1,0.7-0.6,1.4-2,1.6V45c0,1,0.2,1.4,1.3,1.4h2h1.9
		c0.4-0.1,0.7-0.2,1.1-0.8c0.6-1.1,1.6-5.4,2.4-9h0.6L664.3,46.1z"/>
	<path d="M120.8,92.9c-0.3,0.7-1,1.3-2.2,1.2c-1.7,4.4-3.6,8.4-5.9,12l3.2,1.2c-0.2,0.5-0.6,0.9-1.7,1.1v33.2
		c-0.1,0.5-2.9,1.9-5.5,1.9h-1.2v-30.2c-2.1,2.5-4.4,4.7-6.8,6.6l-0.7-0.5c4.7-7.1,9.3-18.4,11.6-29.5L120.8,92.9z M132.1,114.9
		c-0.2,0.7-1,1.2-2.3,1.1c-3.2,7.7-7.8,13.9-13.1,17.9l-0.7-0.5c3.1-5.1,6-13.2,7.6-21.1L132.1,114.9z M116.2,114.3
		c3.8-5.8,7.5-14.9,9.4-24l8.9,3.2c-0.2,0.7-1,1.2-2.3,1.1c-1.1,2.5-2.3,4.7-3.5,6.9h16.5l3.5-3.5l6,5.8c-0.5,0.5-1,0.6-2.2,0.7
		c-1.9,2.3-5.1,5.6-7.8,7.5l-0.5-0.4c0.5-2.3,1.1-5.8,1.4-8.4h-18c-3.1,4.8-6.7,8.7-10.8,11.7L116.2,114.3z M132.6,103.7l8.6,0.8
		c-0.1,0.8-0.7,1.3-2,1.5v29.6c0,4.7-1,7.4-8.7,8c-0.2-2.2-0.5-3.8-1.4-4.8c-1-1.1-2.3-1.8-5.2-2.3v-0.8c0,0,6.2,0.4,7.5,0.4
		c0.9,0,1.3-0.3,1.3-1V103.7z M142,112.8c17.8,10.4,12.4,24.5,5.9,18.6c-0.7-5.9-3.9-13-6.6-18.3L142,112.8z"/>
	<path d="M187.8,102.7c-0.4,0.5-1.3,1-2.4,1.2v34c-0.1,0.5-3.1,1.9-5.3,1.9h-1v-4.5h-8.7v4.2c0,0.7-2.4,2.2-5.1,2.2h-1V98.5l6.4,2.7
		h0.3c0.4-3.1,0.9-7.6,1.2-10.8l9.2,2.2c-0.2,1-1,1.4-2.3,1.4c-1.5,2-3.7,5-5.5,7.2h5l3-3.4L187.8,102.7z M170.5,102.8V117h8.7
		v-14.1H170.5z M179.2,133.6v-15h-8.7v15H179.2z M215.6,102.7c-0.5,0.5-1.2,0.9-2.5,1.1c-0.4,23-1.2,33.4-4.3,36.8
		c-2.1,2.2-4.6,3.1-8.3,3.1c0-2.2-0.3-3.8-1.3-4.7c-1-1.1-3.2-2-6-2.5l0.1-0.8c2.7,0.2,6.7,0.5,8.2,0.5c1,0,1.5-0.2,2.1-0.7
		c2.1-1.9,2.7-13.3,3.1-32.7H196c-2.7,4.8-6,8.9-9.6,12l-0.7-0.5c3.1-5.8,6.2-15.1,7.7-23.8l9,2.6c-0.2,0.7-0.9,1.1-2.2,1.1
		c-1,2.5-2,4.7-3.2,6.9h9.1l3.6-3.7L215.6,102.7z M190.4,112.6c16.6,4.9,10.4,17.2,4.4,12.1c-0.3-4-2.6-8.7-4.8-11.8L190.4,112.6z"
		/>
	<path d="M234.9,98.4c-3.2,4.2-7.2,7.4-11.2,9.5l-0.7-0.5c3.4-4.1,6.7-10.7,8.6-17.5l8.7,2.7c-0.2,0.7-1,1.2-2.2,1.1
		c-0.6,1.1-1.3,2.1-1.9,3h6.8l2.9-3.9c0,0,3.3,2.7,5.2,4.6c-0.2,0.6-0.7,0.9-1.5,0.9H234.9z M269.5,121.5l6,4.8
		c-0.4,0.5-1.1,0.8-2.2,1c-0.6,6.4-1.8,10.1-4.4,11.6c-1.7,1-3.7,1.5-6.7,1.5c0-1.8-0.2-3.4-1.1-4.3c-0.9-0.9-2.5-1.6-4.7-2.1v-0.7
		c2.1,0.1,5.4,0.3,6.5,0.3c0.8,0,1.3-0.1,1.7-0.4c0.8-0.6,1.5-3.1,2-7.1h-13V142c-0.1,0.4-2.1,1.7-5.6,1.7h-1.3v-12.4
		c-5.5,4.9-13.4,8.5-22.7,10.8l-0.4-0.7c8.4-3.6,15.2-9.1,19.2-15.2h-7.6l-2.3,2.8l-5.9-3.6c0.5-0.5,1.3-0.9,2.1-1.3
		c0.7-3.2,1.7-8.4,1.9-11.3l7.3,3.4h8.5v-6.8h-18.5l-0.5-1.7h35.7l3-3.1l6.2,4.6c-0.3,0.4-1,0.9-2.1,1.1v8.4
		c-0.1,0.5-3.3,1.8-5.5,1.8H264v-2.7h-10.4v6.8h12.6L269.5,121.5z M246.8,124.6v-6.8h-10.1c-0.5,2.1-1,4.8-1.5,6.8H246.8z
		 M237.1,99.4c11.8,1.2,6.7,9.7,2.2,6.2c-0.1-2.1-1.4-4.5-2.7-5.9L237.1,99.4z M271.1,92.6c0,0,3.6,2.8,5.8,4.8
		c-0.1,0.6-0.7,0.9-1.5,0.9h-18c-2.7,3.2-6,5.7-9.5,7.4l-0.6-0.5c2.8-3.6,5.5-9.5,7.1-15.4l8.4,3.1c-0.2,0.7-1,1.2-2.2,1.1
		c-0.6,0.9-1.2,1.8-1.8,2.7h9.2L271.1,92.6z M253.6,116.2H264v-6.8h-10.4V116.2z M258.9,99.5c12.3,0.4,7.2,9.5,2.3,5.9
		c-0.2-1.9-1.5-4.3-2.9-5.5L258.9,99.5z"/>
	<path d="M325,114.6l4.7-6.6c0,0,5.2,4.6,8.4,7.5c-0.2,0.6-0.8,0.9-1.8,0.9h-51.1l-0.5-1.8H325z"/>
	<path d="M394.1,111.5c-0.4,0.6-1,0.8-2.5,1c-2.5,6.7-5.9,12.7-10.9,17.6c5.6,3.2,12.3,5.2,19.6,6.6l-0.2,0.6
		c-3.1,0.6-5.4,2.8-6.4,6.2c-7.1-2.2-12.9-5.2-17.6-9.5c-5.9,4.3-13.4,7.5-23,9.3l-0.4-0.7c8.3-3,14.9-7.2,20-12.4
		c-3.7-4.8-6.4-11-7.9-19.2h-4.1c-0.1,10.4-1.5,24-14.5,32.6l-0.6-0.5c7.4-9.9,8.3-22.2,8.3-33.3V93l7.9,3.2h25.1l3.8-4.8
		c0,0,4.3,3.2,6.9,5.6c-0.2,0.6-0.8,0.9-1.6,0.9h-35.3v11.5h22.8l4.1-3.9L394.1,111.5z M365.8,111c2,6.8,5.4,11.9,10,15.7
		c3.6-4.6,6.3-9.9,7.9-15.7H365.8z"/>
	<path d="M417.5,114.2c-0.1,9.7-0.7,21.7-10.3,29.8l-0.7-0.4c4.6-8.8,4.8-20.1,4.8-30.4v-19l7.1,2.6h16.4c-0.3-0.1-0.6-0.2-0.9-0.4
		c-0.5-2.2-2.3-4.8-3.8-6.1l0.4-0.3c10.5-0.5,10.2,5.5,6.9,6.8h13.1l3.5-4.7c0,0,3.8,3.2,6.2,5.4c-0.2,0.6-0.7,0.9-1.6,0.9h-25.9
		l7,2.1c-0.2,0.7-0.9,1.2-2.2,1.1c-0.6,1.1-1.3,2.1-1.9,3l0.1,0.1h7.7c-0.2-0.1-0.4-0.2-0.6-0.3c-0.2-1.9-1.4-4.1-2.6-5.4l0.5-0.3
		c7.9,0.4,7.8,4.7,5.5,6h4.7l2.6-3.2c0,0,3,2.3,4.9,4c-0.2,0.6-0.7,0.9-1.5,0.9h-9.7v4.2h3.2l2.3-3c0,0,2.7,2.1,4.4,3.6
		c-0.2,0.6-0.7,0.9-1.5,0.9h-8.6v4.3h3.4l2.3-3c0,0,2.7,2.2,4.4,3.7c-0.1,0.6-0.7,0.9-1.4,0.9h-8.7v4.6h4.9l2.5-3.1
		c0,0,3,2.2,4.8,3.8c-0.1,0.6-0.7,0.9-1.5,0.9H435v0.4c0,0.5-1.8,2.1-4.6,2.1h-1v-15.4c-0.8,0.6-1.5,1.1-2.3,1.7l-0.7-0.5
		c2.2-3.4,4.4-8.7,5.8-14h-7.3l6.6,2.3c-0.2,0.7-1,1.1-2.2,1.1c-1,1.8-2.1,3.4-3.2,4.9l1.7,0.7c-0.2,0.5-0.7,0.9-1.7,1.1v17.3
		c-0.1,0.4-2.4,1.5-4.6,1.5h-1v-14.9c-0.9,0.7-1.8,1.4-2.7,2L417.5,114.2z M421.2,127.7c2.5,6.3,0.7,10.8-1.9,12.3
		c-1.8,1-4.2,0.6-4.8-1.4c-0.5-1.8,0.6-3.3,2.2-4.1c1.9-1,3.9-3.8,3.7-6.7H421.2z M417.5,98.4v14.8c2.6-3.7,5.2-9.2,6.8-14.8H417.5z
		 M450.7,136.2c1.9,0.7,2.4,1.4,2.4,2.6c0,2.7-2.7,3.3-13.5,3.3h-7c-6.3,0-7.7-1-7.7-5.2v-10.1l8.4,0.7c-0.1,0.7-0.6,1.3-1.8,1.4
		v7.1c0,0.7,0.3,1,2.3,1h6.6c2.3,0,4.4-0.1,5.3-0.1c0.9-0.1,1.1-0.2,1.5-0.7c0.7-0.9,1.6-2.9,2.7-5.9h0.6L450.7,136.2z M435,106.2
		v4.2h7v-4.2H435z M441.9,112.1h-7v4.3h7V112.1z M441.9,118h-7v4.6h7V118z M435.8,125.6c13.2,2.8,7.6,12.5,2.7,8.3
		c-0.1-2.8-1.7-6-3.2-8L435.8,125.6z M449.7,126.9c15.8,3.2,10.5,15.2,4.7,10.7c-0.3-3.6-2.7-7.8-5.2-10.3L449.7,126.9z"/>
	<path d="M499.1,136.7c1.1,0.1,2.2,0.1,3.4,0.1c4.3,0,14.8,0,19.4-0.1v0.7c-2.1,0.5-3.1,2.7-3.1,5.2h-16.4c-10.1,0-15.7-2.2-19-11.2
		c-2.9,4.8-7.6,9.3-15.2,12.3l-0.5-0.6c8.1-6,10.9-14.9,11.7-22.3l9.3,1.8c-0.2,0.8-0.7,1.3-2.2,1.3c-0.6,2.1-1.3,4.2-2.4,6.2
		c1.9,3.2,4.4,4.9,7.8,5.8v-17.7h-23l-0.5-1.6h43.2l3.6-4.8c0,0,4,3.3,6.4,5.5c-0.2,0.6-0.8,0.9-1.6,0.9h-21v7.9h6.9l3.8-5.1
		c0,0,4.4,3.5,7,5.9c-0.2,0.6-0.7,0.9-1.6,0.9h-16.1V136.7z M485,112.9c0,0.7-3.1,2.2-6,2.2h-1V91.2l7.5,3h19.4l3.2-3.5l6.8,5.1
		c-0.3,0.5-1.1,1-2.3,1.3v15.6c-0.1,0.3-3.6,1.6-5.9,1.6h-1.2v-2.9H485V112.9z M485,95.8v6h20.4v-6H485z M505.4,109.6v-6.2H485v6.2
		H505.4z"/>
	<path d="M540.2,102.6c-0.6,3.7-2,4.9-4.3,4.9c-1.4,0-2.6-0.6-3.4-1.8c0.4-7,6.3-10.9,14.2-10.9c9.1,0,13.7,4,13.7,10
		c0,4.5-2.2,7.4-8,10.9c-4.4,2.7-5.9,3.8-6.2,6.8l-0.3,3.5h-2.1c-0.3-1.9-0.7-4.3-0.7-5.8c0-2.7,1.4-4.2,5.1-7.3
		c3.5-2.9,5.1-5,5.1-8.7c0-4.9-3.4-7.3-8.6-7.3c-1.3,0-2.3,0.1-3.4,0.5L540.2,102.6z M549.7,134.9c0,2.5-2,4.5-4.6,4.5
		c-2.6,0-4.6-2.1-4.6-4.5c0-2.5,1.9-4.6,4.6-4.6C547.7,130.4,549.7,132.4,549.7,134.9z"/>
</g>
</svg>
