<!-- Generator: Adobe Illustrator 25.0.0, SVG Export Plug-In  -->
<svg version="1.1" xmlns="http://www.w3.org/2000/svg" xmlns:xlink="http://www.w3.org/1999/xlink" x="0px" y="0px" width="360.5px"
	 height="144.1px" viewBox="0 0 360.5 144.1" style="overflow:visible;enable-background:new 0 0 360.5 144.1;"
	 xml:space="preserve">
<defs>
</defs>
<g>
	<path d="M20.8,3.1c-0.3,0.7-1,1.3-2.2,1.2c-1.7,4.4-3.6,8.4-5.9,12l3.2,1.2c-0.2,0.5-0.6,0.9-1.7,1.1v33.2
		c-0.1,0.5-2.9,1.9-5.5,1.9H7.5V23.7c-2.1,2.5-4.4,4.7-6.8,6.6L0,29.8c4.7-7.1,9.3-18.4,11.6-29.5L20.8,3.1z M32.1,25.1
		c-0.2,0.7-1,1.2-2.3,1.1c-3.2,7.7-7.8,13.9-13.1,17.9L16,43.6c3.1-5.1,6-13.2,7.6-21.1L32.1,25.1z M16.2,24.5
		c3.8-5.8,7.5-14.9,9.4-24l8.9,3.2c-0.2,0.7-1,1.2-2.3,1.1c-1.1,2.5-2.3,4.7-3.5,6.9h16.5l3.5-3.5l6,5.8c-0.5,0.5-1,0.6-2.2,0.7
		c-1.9,2.3-5.1,5.6-7.8,7.5l-0.5-0.4c0.5-2.3,1.1-5.8,1.4-8.4h-18C24.7,18.1,21,22,16.9,25L16.2,24.5z M32.6,13.9l8.6,0.8
		c-0.1,0.8-0.7,1.3-2,1.5v29.6c0,4.7-1,7.4-8.7,8c-0.2-2.2-0.5-3.8-1.4-4.8c-1-1.1-2.3-1.8-5.2-2.3v-0.8c0,0,6.2,0.4,7.5,0.4
		c0.9,0,1.3-0.3,1.3-1V13.9z M42,23c17.8,10.4,12.4,24.5,5.9,18.6c-0.7-5.9-3.9-13-6.6-18.3L42,23z"/>
	<path d="M87.8,12.9c-0.4,0.5-1.3,1-2.4,1.2v34c-0.1,0.5-3.1,1.9-5.3,1.9h-1v-4.5h-8.7v4.2c0,0.7-2.4,2.2-5.1,2.2h-1V8.7l6.4,2.7
		h0.3c0.4-3.1,0.9-7.6,1.2-10.8l9.2,2.2c-0.2,1-1,1.4-2.3,1.4c-1.5,2-3.7,5-5.5,7.2h5l3-3.4L87.8,12.9z M70.5,13.1v14.1h8.7V13.1
		H70.5z M79.2,43.8v-15h-8.7v15H79.2z M115.7,12.9c-0.5,0.5-1.2,0.9-2.5,1.1c-0.4,23-1.2,33.4-4.3,36.8c-2.1,2.2-4.6,3.1-8.3,3.1
		c0-2.2-0.3-3.8-1.3-4.7c-1-1.1-3.2-2-6-2.5l0.1-0.8c2.7,0.2,6.7,0.5,8.2,0.5c1,0,1.5-0.2,2.1-0.7c2.1-1.9,2.7-13.3,3.1-32.7H96
		c-2.7,4.8-6,8.9-9.6,12l-0.7-0.5c3.1-5.8,6.2-15.1,7.7-23.8l9,2.6c-0.2,0.7-0.9,1.1-2.2,1.1c-1,2.5-2,4.7-3.2,6.9h9.1l3.6-3.7
		L115.7,12.9z M90.5,22.9c16.6,4.9,10.4,17.2,4.4,12.1c-0.3-4-2.6-8.7-4.8-11.8L90.5,22.9z"/>
	<path d="M171.5,45.1c0,0,4.1,3.5,6.4,5.9c-0.1,0.6-0.7,0.9-1.5,0.9h-37.7l-0.5-1.7h17.3V40.1h-11.7l-0.5-1.6h12.1v-9h-5.4v1.6
		c0,0.7-2.7,2.2-5.5,2.2h-1v-10c-0.2,0.4-0.7,0.6-1.3,0.6h-6.4v14.1c2.5-0.7,5.2-1.5,7.8-2.3l0.2,0.6c-3.6,2.7-9.2,6.5-17.1,11.2
		c-0.2,0.7-0.7,1.4-1.4,1.6l-3-7.5c1.5-0.3,3.9-1,6.9-1.8v-16h-5.7l-0.5-1.6h6.2V8h-5.8l-0.5-1.7h12.2l3.4-4.7c0,0,2.7,2.3,4.9,4.3
		V2.2l6.8,2.7H167l3.1-3.4l6.3,5c-0.3,0.5-1.1,1-2.3,1.2V30c-0.1,0.5-3.1,2-5.5,2h-1.1v-2.5h-5.6v9h4.2l3.4-4.7c0,0,3.8,3.2,6,5.4
		c-0.1,0.6-0.7,0.9-1.6,0.9h-12v10.1h6L171.5,45.1z M138.9,17.7c0,0,3.1,3,4.7,5V8h-0.3h-7.4v14.1h0.2L138.9,17.7z M150.1,6.6v9.8
		h5.4V6.6H150.1z M155.4,27.8V18h-5.4v9.8H155.4z M161.9,6.6v9.8h5.6V6.6H161.9z M167.6,27.8V18h-5.6v9.8H167.6z"/>
	<path d="M201.3,33c0,0.6-2.8,1.9-5.2,1.9h-1.2V22.7c-2.7,3.8-6.2,7.2-10.2,10l-0.6-0.7c4.4-5.4,7.4-13,9-20.4h-7.7l-0.5-1.6h10V0.2
		l8.3,0.9c-0.2,0.7-0.5,1.2-1.9,1.4V10h1.1l3.1-4.6c0,0,3.6,3.1,5.7,5.2c-0.2,0.6-0.7,0.9-1.5,0.9h-8.3v4.3
		c13.7,3.2,8.4,13.5,3.1,9.3c-0.2-2.7-1.5-5.5-3.1-7.7V33z M192.7,36.4c3.1,7.2,1,12.3-1.8,14c-2,1.2-4.7,0.7-5.4-1.4
		c-0.6-2.1,0.6-3.7,2.3-4.6c2.1-1.2,4.3-4.3,4.2-7.8L192.7,36.4z M225.3,45.6c2.1,0.7,2.6,1.5,2.6,2.6c0,2.9-2.7,3.8-14.1,3.8h-7.5
		c-6.6,0-8-1-8-5.4V35.4l8.5,0.7c-0.1,0.7-0.6,1.3-1.8,1.4v7.8c0,0.8,0.2,1,2.4,1h7.1c2.5,0,4.7,0,5.6-0.1c0.9-0.1,1.3-0.2,1.7-0.8
		c0.7-0.9,1.5-3,2.7-6h0.6L225.3,45.6z M208.8,33.7c15.1,3.4,9.3,14.5,3.8,9.9c-0.3-3.4-2.3-7.1-4.3-9.6L208.8,33.7z M217.9,32
		c0,0.7-2.7,2.2-5.4,2.2h-0.9V2.3l6.6,2.7h9.2l3.1-3.5l6.4,5c-0.4,0.5-1.1,1-2.3,1.3v24.5c-0.1,0.5-3.3,1.8-5.5,1.8h-1.1v-3.6h-10
		V32z M217.9,6.6v6.2h10V6.6H217.9z M227.8,20.6v-6.2h-10v6.2H227.8z M227.8,28.7v-6.4h-10v6.4H227.8z M225.8,36
		c17,4.8,11.1,17.7,5,12.7c-0.2-4.3-2.7-9.2-5.5-12.3L225.8,36z"/>
	<path d="M257.7,8.7c-3.4,4.4-7.5,7.6-11.8,9.8l-0.6-0.5c3.6-4.1,7.2-10.9,9.1-17.9l8.7,2.8c-0.2,0.7-1,1.3-2.3,1.2
		c-0.6,1-1.2,2.1-1.9,3h6.7l2.9-3.9c0,0,3.3,2.7,5.2,4.6c-0.2,0.6-0.7,0.9-1.5,0.9H257.7z M292.4,17l5.8,5.5
		c-0.5,0.5-1.1,0.6-2.2,0.7c-1.7,1.7-4.5,4-6.8,5.3l-0.5-0.3c-0.3,0.3-0.9,0.6-1.7,0.8v6.8c-0.1,0.3-3.5,1.5-5.6,1.5h-1.1v-2.1
		h-16.5v5.1h19.3l3-3.1l6.2,4.6c-0.3,0.3-1,0.7-1.9,1V52c-0.1,0.5-3.4,1.6-5.5,1.6h-1.2V50h-19.8v1.9c0,0.5-2,2-5.5,2h-1.2V24
		l6.9,2.6h15.8l2.9-3.1l5.9,4.3c0.3-1.7,0.7-4,0.9-5.9h-35.2c0.6,3.9-0.5,6.7-2.2,7.9c-1.7,1.3-4.3,0.9-5.1-1.1
		c-0.7-1.9,0.4-3.5,2.1-4.4c1.6-1.3,3.1-4.6,2.6-7.8l0.8-0.1c0.7,1.4,1.1,2.6,1.5,3.8h35.1L292.4,17z M258,10.1
		c12.4,1.6,7.2,10.4,2.6,6.8c-0.2-2.3-1.7-5-3.1-6.5L258,10.1z M280.3,33.7v-5.5h-16.5v5.5H280.3z M263.8,42v6.4h19.8V42H263.8z
		 M268.1,13.5c13.6-0.1,7.4,9.9,1.9,5.8c-0.1-2-1.2-4.3-2.3-5.5L268.1,13.5z M293.7,2.9c0,0,3.7,2.8,5.8,4.8
		c-0.2,0.6-0.7,0.9-1.5,0.9h-18.9c-2.3,2-4.7,3.5-7.3,4.6l-0.6-0.6c2.3-3,4.4-7.7,5.6-12.7l8.4,3.3c-0.3,0.7-1,1.1-2.3,1
		c-0.7,1-1.4,1.8-2.2,2.7h9.7L293.7,2.9z M280.8,10.1c12.8,0.9,7.7,10.3,2.8,6.6c-0.2-2.3-1.8-4.8-3.3-6.3L280.8,10.1z"/>
	<path d="M356.7,24.6c-0.4,0.5-0.9,0.7-2.2,0.3c-3.4,1.5-8.2,3.1-13.1,4.4c3.7,7.7,11.2,12,19.2,14.5l-0.1,0.6
		c-2.6,0.5-4.4,2.6-5.4,5.7c-7.3-4.4-12.3-10.4-14.9-20.5c-1.2,0.3-2.4,0.6-3.6,0.9c4.4,8,3.9,17.2,0.9,20.9
		c-1.5,1.8-4.3,2.5-8.4,2.5c-0.1-1.9-0.5-3.2-1.4-4.2c-0.7-0.7-2.6-1.5-4.8-2.1l-0.1-0.7c2.3,0.2,6.2,0.5,7.5,0.5
		c0.8,0,1.4-0.1,1.7-0.6c0.8-1.2,1.3-3.6,1.4-6.5c-6.8,4.4-16,8.2-25.1,10l-0.4-0.9c9.5-3.4,19.2-10.1,24.6-17.2
		c-0.1-0.5-0.2-0.9-0.4-1.4c-5.8,3.8-14.3,7.6-22.3,9.7l-0.3-0.7c7.4-3.4,15.4-9.7,19.8-15.4l-0.5-0.7c-5.3,3.1-11.8,5.6-18.5,7.2
		l-0.4-0.7c6.8-3.1,13.2-7.9,17.4-12.2h-11l-0.5-1.6h27.3l3.5-4.4c0,0,2.2,1.7,4.3,3.4c0.2-1.6,0.5-3.8,0.6-5.6h-35.4
		c0.3,4-1.1,6.8-3.1,8c-1.7,1.1-4.4,0.7-5.2-1.4c-0.6-2,0.6-3.5,2.2-4.4c2-1.1,4.2-3.9,4.1-7.1h0.8c0.4,1.1,0.7,2.2,0.9,3.2h17
		c-0.3-0.1-0.7-0.3-1-0.5c-0.3-2.6-2.1-5.4-4-6.8l0.4-0.3c11.5-0.6,11.2,6.2,7.6,7.6H351l3.4-3.4l5.9,5.6c-0.4,0.5-1,0.6-2.2,0.7
		c-1.7,1.5-4.4,3.6-6.7,4.8c0.5,0.4,1,0.8,1.4,1.2c-0.1,0.6-0.7,0.9-1.5,0.9h-14.9c-1.8,1.8-4,3.4-6.4,4.9c2.4,1.9,4.3,4,5.8,6.3
		c5.2-3.1,10.9-7.5,14-10.3L356.7,24.6z"/>
	<path d="M40.4,137c1.1,0.1,2.2,0.1,3.4,0.1c4.3,0,14.8,0,19.4-0.1v0.7c-2.1,0.5-3.1,2.7-3.1,5.2H43.8c-10.1,0-15.7-2.2-19-11.2
		c-2.9,4.8-7.6,9.3-15.2,12.3l-0.5-0.6c8.1-6,10.9-14.9,11.7-22.3l9.3,1.8c-0.2,0.8-0.7,1.3-2.2,1.3c-0.6,2.1-1.3,4.2-2.4,6.2
		c1.9,3.2,4.4,4.9,7.8,5.8v-17.7h-23l-0.5-1.6H53l3.6-4.8c0,0,4,3.3,6.4,5.5c-0.2,0.6-0.8,0.9-1.6,0.9h-21v7.9h6.9l3.8-5.1
		c0,0,4.4,3.5,7,5.9c-0.2,0.6-0.7,0.9-1.6,0.9H40.4V137z M26.4,113.1c0,0.7-3.1,2.2-6,2.2h-1V91.4l7.5,3h19.4l3.2-3.5l6.8,5.1
		c-0.3,0.5-1.1,1-2.3,1.3v15.6c-0.1,0.3-3.6,1.6-5.9,1.6h-1.2v-2.9H26.4V113.1z M26.4,96v6h20.4v-6H26.4z M46.8,109.8v-6.2H26.4v6.2
		H46.8z"/>
	<path d="M92.4,93.4c-0.2,0.7-1,1.3-2.3,1.2c-1.7,4.3-3.8,8.3-6,11.8l2.9,1.1c-0.2,0.5-0.7,0.9-1.8,1.1v33.4
		c-0.1,0.5-2.9,1.9-5.5,1.9h-1.3v-30c-2.3,2.6-4.8,4.8-7.5,6.7l-0.6-0.5c5-7.1,9.9-18.5,12.4-29.8L92.4,93.4z M118.1,105.8
		c0,0,4.3,3.5,6.8,5.9c-0.2,0.6-0.8,0.9-1.6,0.9h-14.3V141c0,0.7-3.1,2.4-5.7,2.4H102v-30.8H88.8l-0.5-1.7H102V91.4l9.1,0.9
		c-0.1,0.9-0.5,1.4-2.1,1.7V111h5.2L118.1,105.8z"/>
	<path d="M179.8,92.3c0,0,3.9,3.2,6.2,5.4c-0.2,0.6-0.7,0.9-1.6,0.9h-41.9v13.8c0,9.9-0.5,22.8-10.1,31.5l-0.7-0.5
		c4.6-9,4.8-20.6,4.8-31V94.4l7,2.6h16.8c-0.3-0.1-0.7-0.2-1-0.5c-0.3-2.2-1.9-4.6-3.2-5.9l0.5-0.3c9.7-0.3,9.2,5.5,5.9,6.7h14
		L179.8,92.3z M149.7,109.3c-0.2,0.4-0.7,0.7-1.4,0.7c-0.3,3-0.9,7-5.2,9.7l-0.8-0.7c1.9-3.2,1.8-7.2,1.8-10.8l5.6,0.5v-2.5h-6.4
		l-0.5-1.6h6.3V99l7.4,0.7c-0.1,0.8-0.5,1.2-1.9,1.4v3.5h0.5l2.6-3.4c0,0,2.2,1.8,3.9,3.4h7.4V99l7.4,0.7c-0.1,0.8-0.5,1.2-1.8,1.4
		v3.5h1.8l2.9-4c0,0,3.3,2.7,5.3,4.7c-0.2,0.6-0.7,0.9-1.5,0.9h-9.2v13.6c-0.1,0.3-1.7,1.1-3.6,1.1h-0.7v-11.5
		c-0.3,0.2-0.7,0.5-1.3,0.5c-0.3,3-0.9,7-5.2,9.7l-0.8-0.8c1.9-3.2,1.8-7.1,1.8-10.8l5.5,0.5v-2.4H162l-0.1-0.3
		c-0.2,0.2-0.6,0.3-1,0.3H154v13.7c-0.1,0.3-1.8,1.1-3.6,1.1h-0.7V109.3z M171.8,130.2c17.4,4.8,12.4,17.2,6.2,12.8
		c-0.3-1.7-1.1-3.4-1.9-5.1c-7,1.4-16.9,3.1-28.7,4.9c-0.5,0.5-0.9,0.8-1.4,0.9l-2.1-6.6c0,0,1.5-0.2,2.3-0.5
		c4.5-1.3,9.9-4.2,14.7-7.1c-3.5,0.9-7.6,1.9-12.1,2.9c-0.4,0.4-0.8,0.7-1.2,0.8l-1.9-6c0,0,1-0.2,1.5-0.4c4.2-1.4,9.6-6.3,11.5-8.9
		l7.3,3.6c-0.3,0.6-1,0.9-2.3,0.7c-2.7,1.7-7,3.6-11.1,5c3.4-0.1,7.6-0.2,12-0.3c2.5-1.8,4.6-3.5,6-4.8l7.1,4.6
		c-0.3,0.5-1.2,0.9-2.6,0.5c-5.1,3.1-14.8,7.3-23.6,10c6.1-0.1,14.6-0.5,23.7-0.9c-1.3-2.1-2.7-4.1-4-5.8L171.8,130.2z M160.5,108.6
		c-0.1,0.7-0.6,1.2-1.4,1.3v3.8c0,0.5,0.1,0.6,0.2,0.6h-0.1h-0.1c0.1,0.1,0.4,0,0.5,0c0.2,0,0.6-0.1,0.7-0.1h0.7
		c1,0.4,1.4,0.6,1.4,1.5c0,1.4-1.2,2.1-3.8,2.1H158c-2.3,0-2.6-0.9-2.6-3v-6.7L160.5,108.6z M183.2,115.4c1,0.3,1.4,0.6,1.4,1.4
		c0,1.5-1.3,2.2-4.7,2.2h-1.4c-2.6,0-3-0.9-3-3.1v-7.7l5.2,0.6c-0.1,0.7-0.7,1.1-1.5,1.3v4.8c0,0.5,0.1,0.7,0.5,0.7h0.7h0.6h0.6
		c0.2,0,0.6-0.1,0.9-0.2h0.5L183.2,115.4z"/>
	<path d="M246.3,136.8c1.2,3.4,1.3,5.9,0.1,6.7c-2.6,1.7-5.4-0.3-7.1-3c-5.5-7.2-5.6-26.8-5.3-43.7h-28.3V110
		c0,10.5-0.6,24.6-11.7,33.9l-0.7-0.5c5.5-9.9,5.9-22.3,5.9-33.3V92.5l7.5,2.7h26.7l3.4-3.9l6.5,5.5c-0.3,0.5-1.1,0.9-2.6,1.1
		c-0.9,11.1-0.6,30.7,2.7,35.1c0.5,0.6,0.8,0.5,1.1-0.3c0.7-2,1.3-4.2,1.8-6.4l0.6,0.1L246.3,136.8z M226.4,127.6
		c14.7,7,8.4,18.3,3.1,13.1c0-1.7-0.3-3.5-0.7-5.4c-5,1.5-11.7,3.2-20.8,5.4c-0.3,0.7-1,1.1-1.7,1.3l-3.3-7.3
		c2.9-0.1,7.9-0.2,13.9-0.5V125h-3.7v2c0,0.5-2.3,1.5-4.4,1.5H208V109l5.4,2.2h3.4v-7.4h-9.7l-0.5-1.6h18.6l2.8-4.2
		c0,0,3.2,3,5.1,4.9c-0.2,0.6-0.7,0.9-1.5,0.9h-9v7.4h3.2l2.4-2.5l5.1,3.8c-0.2,0.3-0.9,0.7-1.8,0.9v12.3c0,0.3-2.7,1.4-4.3,1.4
		h-0.9V125h-3.7v8.9l5.6-0.3c-0.7-2.1-1.6-4.1-2.5-5.8L226.4,127.6z M216.9,123.3v-10.4h-3.7v10.4H216.9z M222.7,112.9v10.4h3.7
		v-10.4H222.7z"/>
	<path d="M269,110.2c12.4,4.3,7,13.3,2.5,9.1c-0.1-2.5-1.2-5.4-2.5-7.6v30.2c0,0.7-2.6,2.1-4.9,2.1h-1.3v-23.1
		c-2.2,3.6-4.8,6.9-7.9,9.8l-0.7-0.6c4.1-6.6,6.6-15.5,7.8-24.1h-6.7l-0.5-1.6h8V90.3l8.3,0.8c-0.1,0.9-0.5,1.4-2.1,1.6v11.7h1.1
		l3-4.3c0,0,3.4,3,5.2,5c-0.2,0.6-0.7,0.9-1.5,0.9H269V110.2z M306,99.7c-0.4,0.6-1,0.8-2.4,0.9c-2.1,4-4.7,7.8-8,11.1
		c3.8,1.9,8.4,3.3,13.7,4.3l-0.1,0.6c-2.7,1-4,2.9-4.4,6c-0.8-0.3-1.6-0.6-2.4-0.9l2.8,2.1c-0.4,0.5-1,0.8-2.2,1.1v16.9
		c0,0.3-2.1,1.4-5.4,1.4h-1.1v-3.4h-10.8v2.5c0,0.4-1.9,1.5-5.1,1.5h-1.1v-22c-2.1,0.8-4.4,1.5-6.8,2.2l-0.4-0.7
		c6.6-2.9,12.2-6.8,16.6-11.5c-1.9-2.3-3.4-5-4.8-7.8c-2.6,3.2-5.6,5.8-8.7,7.8l-0.7-0.5c3.7-4.9,7.4-12.7,9.1-20.7l8.4,2.9
		c-0.2,0.7-1,1.1-2.2,1.1c-0.5,1.1-1.1,2.3-1.7,3.4h8.5l3.6-3.4L306,99.7z M298.5,119.9c-2.7-1.4-5-3.1-6.9-5c-3,2.3-6.4,4.3-10.3,6
		l4.8,1.8h9.9L298.5,119.9z M287.1,99.5c-0.7,1.1-1.5,2.2-2.3,3.3c1.7,2.3,3.8,4.4,6.2,6.2c2.3-2.9,4.2-6.1,5.6-9.5H287.1z
		 M296.3,138.2v-13.8h-10.8v13.8H296.3z"/>
	<path d="M326.7,102.8c-0.6,3.7-2,4.9-4.3,4.9c-1.4,0-2.6-0.6-3.4-1.8c0.4-7,6.3-10.9,14.2-10.9c9.1,0,13.7,4,13.7,10
		c0,4.5-2.2,7.4-8,10.9c-4.4,2.7-5.9,3.8-6.2,6.8l-0.3,3.5h-2.1c-0.3-1.9-0.7-4.3-0.7-5.8c0-2.7,1.4-4.2,5.1-7.3
		c3.5-2.9,5.1-5,5.1-8.7c0-4.9-3.4-7.3-8.6-7.3c-1.3,0-2.3,0.1-3.4,0.5L326.7,102.8z M336.1,135.1c0,2.5-2,4.5-4.6,4.5
		c-2.6,0-4.6-2.1-4.6-4.5c0-2.5,1.9-4.6,4.6-4.6C334.1,130.6,336.1,132.6,336.1,135.1z"/>
</g>
</svg>
