<!-- Generator: Adobe Illustrator 25.0.0, SVG Export Plug-In  -->
<svg version="1.1" xmlns="http://www.w3.org/2000/svg" xmlns:xlink="http://www.w3.org/1999/xlink" x="0px" y="0px" width="460.5px"
	 height="143.8px" viewBox="0 0 460.5 143.8" style="overflow:visible;enable-background:new 0 0 460.5 143.8;"
	 xml:space="preserve">
<defs>
</defs>
<g>
	<path d="M73.7,33.2l6.5,0.6c-0.1,0.7-0.5,1.2-1.9,1.4v3.6c-0.1,4.7-2.3,10-13.3,12.8L64.4,51c6-2.5,8.3-5.9,9.1-9.3h-3.4l-1.8,2.4
		L63.2,41c0.4-0.5,1.3-1,2.1-1.4V34c-0.1,0.1-0.3,0.2-0.4,0.2l-1.8-4c0,0,0.8-0.2,1.2-0.4c1.9-1,4-2.7,5.9-4.7
		c-1.4,0.4-3,0.8-4.4,1.1c-0.3,0.6-0.7,0.9-1.1,1.1l-1.8-4c0,0,0.7-0.2,1-0.3c2.4-1.3,5.2-5.2,6.2-7.2l1.7,1v-1H61.3v35.5
		c0,0.7-2.2,2.2-4.9,2.2h-1V0.7l6.2,2.7h9.7l2.6-2.8l5.6,4.2c-0.3,0.4-1.1,0.9-2.1,1v10.4c-0.1,0.3-2.4,1.3-4.2,1.4l2,1.1
		c-0.3,0.5-1,0.9-2.2,0.6c-1.5,1.3-3.6,2.7-5.7,3.9c1.4,0,3,0,4.6-0.1c1.3-1.5,2.4-2.9,3.1-3.9l4.8,3.5c-0.3,0.4-1.1,0.8-2.2,0.4
		c-2.3,2.1-6.2,4.8-9.8,7c2.2-0.2,5-0.3,7.8-0.6c-0.5-1.2-1-2.4-1.5-3.2l0.7-0.3c8,3.5,4.4,9.1,1.6,6.4c-0.1-0.5-0.2-1.1-0.3-1.8
		c-2.5,0.7-6.3,1.8-10.1,2.9l5.8,0.6c-0.1,0.7-0.6,1.2-1.8,1.4v4.4h4c0.1-0.5,0.1-0.9,0.1-1.3V33.2z M61.3,5v3.9h10.4V5H61.3z
		 M71.7,14.1v-3.6H61.3v3.6H71.7z M106.1,4.8c-0.4,0.5-1.3,1-2.4,1.2v40.2c0,4.2-0.9,6.7-8.2,7.3c-0.2-1.9-0.6-3.4-1.5-4.2
		c-1-1-2.3-1.7-5.3-2.1v-0.9c0,0,6.4,0.5,7.7,0.5c1,0,1.3-0.4,1.3-1.3V15.7H87.5v0.5c0,0.2-0.2,0.4-0.6,0.6l3.9,2.3
		c-0.2,0.5-0.9,0.8-2.1,0.6c-1.5,1.2-3.6,2.7-5.6,3.8c1.5,0,3.4-0.1,5.2-0.1c1.4-1.5,2.6-2.9,3.4-3.9l4.7,3.4
		c-0.3,0.5-1.1,0.9-2.3,0.5c-2.4,1.9-6.2,4.4-10,6.3c2.3-0.2,5.2-0.3,8.2-0.6c-0.4-1-0.8-1.9-1.2-2.7l0.7-0.3c7.8,3.8,4,9.3,1.3,6.6
		c0-0.7-0.2-1.5-0.4-2.3c-2.6,0.7-6.6,1.9-10.5,2.9l6.2,0.6c-0.1,0.8-0.6,1.4-2.1,1.6v4.7h4.4v-6.6l6.2,0.6
		c-0.1,0.7-0.5,1.2-1.8,1.4V43c0,0.4-2,1.1-3.6,1.1h-0.8v-2.5h-4.4v7.8c0,0.5-2.1,1.3-3.9,1.3h-0.8V33.6l-0.1,0.1l-1.8-4.1
		c0,0,0.8-0.2,1.3-0.3c1.7-0.8,3.6-2.3,5.4-3.9c-1.4,0.4-3.1,0.8-4.6,1.1c-0.3,0.6-0.7,0.9-1.1,1.1l-1.8-4.1c0,0,0.7-0.2,1.1-0.3
		c1.8-0.9,3.8-3.4,5.1-5.5c-0.7,0.2-1.5,0.3-2.3,0.3L81.7,18V1l6,2.4h9.5l2.8-3.2L106.1,4.8z M87.5,5v3.9h10.3V5H87.5z M97.7,14.1
		v-3.6H87.5v3.6H97.7z"/>
	<path d="M140.8,23.3c-0.5,0.5-1.1,0.9-2.4,1.1c-0.5,17.6-1.5,23.9-4.4,26.5c-1.8,1.6-4,2.3-6.7,2.3c0-1.9-0.2-3.4-0.9-4.3
		c-0.7-0.9-2-1.6-3.8-2v-0.8c1.5,0.1,4,0.3,5.1,0.3c0.9,0,1.3-0.2,1.8-0.6c1.5-1.4,2.3-8,2.7-22.4h-5.1c-1,11.7-4,22.7-13.1,30.4
		l-0.5-0.5c6.8-11.5,7.4-26.1,6.9-39.8h-5.8l-0.5-1.6h19.4l3.4-4.5c0,0,3.9,3.1,6.2,5.2c-0.2,0.6-0.8,0.9-1.6,0.9h-13.9
		c-0.1,2.7-0.2,5.5-0.3,8.2h4.4l3.3-3.3L140.8,23.3z M122.2,0.3c15.6,2.9,9.7,14.6,3.8,10c-0.3-3.4-2.3-7.2-4.3-9.6L122.2,0.3z
		 M168.6,20.5l-0.1,0.8c-2.6,1.3-4.3,3.2-4.7,5.7c-4.3-5.2-7.2-13.2-8.8-21.3c-3,7.8-8.4,16.5-15.7,22.1l-0.6-0.5
		C144,19.9,147.8,8,148.9,0l9.2,2.1c-0.2,0.8-0.7,1.2-2.3,1.4C158,10.9,163.3,17,168.6,20.5z M142,36.9
		c26.3,3.3,23.8,19.2,15.7,15.7c-3.3-5.5-10.4-11.7-16.1-15.2L142,36.9z M146.8,22.4c16.6,0.3,13.4,12.3,7,9.3
		c-1.4-3.1-4.8-6.7-7.4-9L146.8,22.4z"/>
	<path d="M175.6,13.9c14.9,1.1,9.9,12,4.1,8.2c-0.6-2.8-2.7-5.9-4.5-7.8L175.6,13.9z M192.2,11.3c-1.9,6.8-5.4,19.2-6.1,22.1
		c-0.5,1.9-0.9,3.8-0.8,5.3c0.2,3,2.5,5.1,2.2,10.2c-0.1,2.9-2,4.8-4.7,4.8c-1.3,0-2.6-0.9-3-3c1.1-6,0.8-11.3-0.5-12.2
		c-0.8-0.6-1.7-0.8-2.9-0.9v-1.1h2.5c0.9,0,1.1,0,1.7-1.1c1.2-2.1,1.2-2.1,10.7-24.2L192.2,11.3z M180,0.7
		c15.6,1.5,10.4,12.9,4.4,8.8c-0.7-3-2.9-6.4-4.8-8.4L180,0.7z M219.4,23l6.5,4.8c-0.4,0.5-1.2,1-2.4,1.2v16.8c0,4.2-0.9,6.6-8,7.2
		c-0.2-1.9-0.4-3.5-1.1-4.4c-0.7-0.9-1.8-1.6-4.3-2v-0.8c0,0,4.8,0.3,5.9,0.3c0.8,0,1.1-0.4,1.1-1.1v-4.3h-16.2
		c-0.6,4.8-2.7,9.7-10.1,12.9l-0.5-0.5c4.2-4.4,4.4-10.3,4.4-16.2V23.8l7.4,2.6h14.5L219.4,23z M223.1,16.2c0,0,3.9,3,6.3,5.2
		c-0.1,0.6-0.7,0.9-1.5,0.9h-36.7l-0.5-1.7H205v-5.3h-10.3l-0.5-1.7H205V8.6h-12.3L192.3,7H205V0.1l8.4,0.7
		c-0.1,0.7-0.5,1.3-1.9,1.5V7h6.5l3.4-4.4c0,0,3.9,3,6.2,5.1c-0.1,0.6-0.7,0.9-1.5,0.9h-14.6v5.1h5.4l3.2-4.1c0,0,3.6,2.9,5.8,4.8
		c-0.2,0.6-0.8,0.9-1.6,0.9h-12.9v5.3h8.1L223.1,16.2z M217.1,39.3v-4.8H201v2.6c0,0.7,0,1.4-0.1,2.2H217.1z M201,28v4.9h16.1V28
		H201z"/>
	<path d="M236.8,14c14.1,2,9.3,12.3,3.9,8.5c-0.6-2.9-2.6-6-4.4-8.1L236.8,14z M250.7,17.4c-1.6,6.2-3.5,13.9-3.9,16.1
		c-0.4,1.7-0.7,3.6-0.6,5.1c0.1,3.1,2.4,5.2,2.2,10.3c-0.1,2.9-1.9,4.7-4.6,4.7c-1.3,0-2.5-0.9-2.9-3c1-6,0.8-11.4-0.5-12.3
		c-0.8-0.6-1.7-0.8-2.9-0.9v-1.1h2.5c0.7,0,1,0,1.6-1.1c1.1-2,1.1-2,9.3-22.6l0.9,0.2l-1,4.2c1.5-0.1,3.7-0.2,6.3-0.4v-4.1h-4.3
		l-0.5-1.6h4.7V6.8h-5.8l-0.5-1.7h6.2v-5l7.8,0.7c-0.1,0.8-0.6,1.4-2.1,1.6v2.7h1.8l2.2-2.8c0,0,2.6,2,4,3.5
		c-0.1,0.6-0.7,0.9-1.4,0.9h-6.7v4.1h1.1l2.2-2.9c0,0,2.6,2.1,4.1,3.5c-0.2,0.6-0.6,0.9-1.4,0.9h-6v3.6c2.7-0.3,5.5-0.6,8.3-1
		l0.1,0.8c-2.2,1-5,2.1-8.4,3.2v3.9c0,0.5-2.5,1.5-4.6,1.5h-1v-3.5l-2.8,0.9c-0.3,0.7-0.9,1.1-1.5,1.3L250.7,17.4z M240.6,0.6
		c14.9,2.1,9.8,12.9,4.2,8.9c-0.6-3-2.9-6.3-4.7-8.5L240.6,0.6z M276.7,31.5c15.5-0.3,12.9,11.3,7,8.7c-0.5-1.2-1.3-2.5-2.3-3.6
		c-2.1,0.4-4.7,0.9-7.6,1.4v9.2c0,3.9-1,6-7.5,6.6c-0.1-1.5-0.3-2.8-1-3.6c-0.7-0.7-1.7-1.3-4.2-1.7v-0.8c0,0,4.7,0.3,5.8,0.3
		c0.9,0,1-0.3,1-0.9V39c-2.1,0.3-4.3,0.7-6.7,1l5.4,3.1c-0.3,0.5-0.9,0.7-2.2,0.6c-3.3,3-8.8,6-14.5,7.8l-0.5-0.7
		c3.8-2.7,7.5-7,9.5-10.4l-3,0.5c-0.3,0.4-0.6,0.6-0.9,0.8l-3-5.7c0,0,1.3-0.1,2.1-0.3c4.7-1.1,10.4-3.6,15.2-6.2
		c-3.5,0.9-7.9,2-12.5,3c-0.2,0.2-0.4,0.5-0.6,0.6l-2.7-4.6c0,0,0.9-0.2,1.4-0.3c4.4-1.3,10.3-5.6,12.5-7.8l5.4,3.9
		c-0.3,0.5-1.3,0.8-2.5,0.3c-2.3,1.2-5.6,2.5-8.9,3.6c3.3-0.2,7.3-0.4,11.3-0.7c1.9-1.1,3.5-2.3,4.7-3.2l6.1,4.7
		c-0.3,0.5-1.3,0.8-2.6,0.3c-4.4,2.2-12.4,4.8-20,6.8c5.2-0.1,12.2-0.4,19.5-0.7c-1.3-1.3-2.8-2.5-4.2-3.2L276.7,31.5z M290.6,5.6
		c-0.4,0.5-1.1,0.7-2.2,0.9c-0.3,10.5-1,14.3-3.2,16c-1.4,1.1-3.4,1.5-5.8,1.5c0-1.5-0.1-2.6-0.7-3.3c-0.7-0.8-1.8-1.3-3.3-1.7v-0.7
		c1.3,0.1,3.5,0.2,4.4,0.2c0.8,0,1.1-0.1,1.5-0.5c0.9-0.9,1.3-4.4,1.5-12.4h-3c-0.5,5.6-2.6,12.1-8.9,16.7l-0.7-0.7
		c3.2-5.4,3.6-11.2,3.8-16h-3.1L270.4,4h11.9l2.9-2.9L290.6,5.6z M275.3,39.6c17.8,2.5,15.1,14.1,9.1,11.2
		c-1.8-3.6-6.1-8.2-9.6-10.8L275.3,39.6z"/>
	<path d="M344.3,42.1c0,0,4.6,3.5,7.4,6c-0.2,0.6-0.7,0.9-1.7,0.9h-51.4l-0.5-1.6h22.9V10.8h-18.6L302,9.1h34.7l4.1-5.2
		c0,0,4.6,3.5,7.4,6c-0.2,0.6-0.9,0.9-1.7,0.9h-18.1v36.6h11.7L344.3,42.1z"/>
	<path d="M406.8,32.2c0,0,4.2,3.8,6.7,6.3c-0.2,0.6-0.7,0.9-1.6,0.9h-52.1l-0.5-1.7h11.4V1.4l7.5,2.9h17.2l3.4-3.5l6.3,5.1
		c-0.4,0.5-1.1,1-2.3,1.2v30.8h0.3L406.8,32.2z M359.8,53c6.4-3.4,12.9-9,15.8-13.3l8.3,4.1c-0.3,0.7-1.3,1-3.1,0.8
		c-4.6,3.6-12.6,7.1-20.8,9.1L359.8,53z M377.5,5.9v6.8H396V5.9H377.5z M396,14.3h-18.5v6.5H396V14.3z M377.5,22.4v6.7H396v-6.7
		H377.5z M377.5,37.7H396v-7h-18.5V37.7z M389.8,41.2c31,3.3,19.7,16.7,13.9,11.1c-2.4-3.1-6.8-7.3-14.1-10.4L389.8,41.2z"/>
	<path d="M20.8,92.9c-0.3,0.7-1,1.3-2.2,1.2c-1.7,4.4-3.6,8.4-5.9,12l3.2,1.2c-0.2,0.5-0.6,0.9-1.7,1.1v33.2
		c-0.1,0.5-2.9,1.9-5.5,1.9H7.5v-30.2c-2.1,2.5-4.4,4.7-6.8,6.6L0,119.5c4.7-7.1,9.3-18.4,11.6-29.5L20.8,92.9z M32.1,114.8
		c-0.2,0.7-1,1.2-2.3,1.1c-3.2,7.7-7.8,13.9-13.1,17.9l-0.7-0.5c3.1-5.1,6-13.2,7.6-21.1L32.1,114.8z M16.2,114.2
		c3.8-5.8,7.5-14.9,9.4-24l8.9,3.2c-0.2,0.7-1,1.2-2.3,1.1c-1.1,2.5-2.3,4.7-3.5,6.9h16.5l3.5-3.5l6,5.8c-0.5,0.5-1,0.6-2.2,0.7
		c-1.9,2.3-5.1,5.6-7.8,7.5l-0.5-0.4c0.5-2.3,1.1-5.8,1.4-8.4h-18c-3.1,4.8-6.7,8.7-10.8,11.7L16.2,114.2z M32.6,103.6l8.6,0.8
		c-0.1,0.8-0.7,1.3-2,1.5v29.6c0,4.7-1,7.4-8.7,8c-0.2-2.2-0.5-3.8-1.4-4.8c-1-1.1-2.3-1.8-5.2-2.3v-0.8c0,0,6.2,0.4,7.5,0.4
		c0.9,0,1.3-0.3,1.3-1V103.6z M42,112.7c17.8,10.4,12.4,24.5,5.9,18.6c-0.7-5.9-3.9-13-6.6-18.3L42,112.7z"/>
	<path d="M89.6,142.2c0,0.4-2,1.6-5.3,1.6h-1.1v-9.2c-3.9,1.4-8.9,2.9-15.3,4.8c-0.3,0.7-0.9,1.2-1.5,1.3l-3.1-7.1
		c1.3-0.1,3.1-0.2,5.4-0.3v-19.1h-5.6l-0.5-1.6H105l3.6-5c0,0,4,3.4,6.4,5.6c-0.2,0.6-0.7,0.9-1.6,0.9H89.6V142.2z M77.1,109.3
		c0,0.6-3,2-5.6,2h-1V91.1l7,2.7h22.4l3.1-3.4l6.5,4.9c-0.3,0.5-1.1,1-2.3,1.2v12.3c-0.1,0.3-3.4,1.5-5.6,1.5h-1.1V95.5H77.1V109.3z
		 M74.8,114.2v5h8.3v-5H74.8z M74.8,126h8.3v-5.1h-8.3V126z M74.8,132.8c2.6-0.2,5.4-0.4,8.3-0.7v-4.6h-8.3V132.8z M94.9,97.3
		c0,0,2.6,1.9,4.3,3.4c-0.2,0.6-0.7,0.9-1.5,0.9H79.5l-0.5-1.7h13.5L94.9,97.3z M94.8,103.3c0,0,2.6,1.9,4.3,3.4
		c-0.2,0.6-0.7,0.9-1.4,0.9H79.5l-0.5-1.7h13.5L94.8,103.3z M113.7,120.8c-0.4,0.6-0.9,0.8-2.2,0.9c-1.4,4.2-3.4,8.2-6.4,11.6
		c3.4,1.7,7.2,2.9,11.3,3.8v0.6c-2.7,0.6-4.7,2.7-5.5,6c-4-1.7-7.3-3.7-10-6.3c-3.1,2.4-6.7,4.5-11.2,6.1l-0.4-0.7
		c3.6-2.3,6.6-5.2,8.9-8.6c-2.5-3.4-4.2-7.8-5.4-13.5h-2.5l-0.5-1.7h13.9l3.7-3.6L113.7,120.8z M93.8,120.8c1.5,4.1,3.7,7.2,6.7,9.6
		c1.6-3.1,2.7-6.3,3.5-9.6H93.8z"/>
	<path d="M141.1,115.5c-0.2,0.6-0.7,0.9-1.8,1.1v25c-0.1,0.5-2.9,1.9-5.5,1.9h-1.3v-22.2c-2.7,2.3-5.8,4.3-9.1,6.1l-0.5-0.6
		c7.3-6.1,12.6-14.7,16.1-23.3h-14.2l-0.5-1.7h15.3c1.5-4,2.7-8,3.5-11.7l9.6,2.5c-0.2,0.7-0.7,1.1-2.2,1.2c-0.9,2.6-2.1,5.3-3.4,8
		h17.5l4-5.1c0,0,4.5,3.5,7.2,5.8c-0.2,0.6-0.7,0.9-1.6,0.9h-28c-1.9,3.9-4.4,7.8-7.5,11.3L141.1,115.5z M169.8,133.6
		c0,0,4.3,3.2,7,5.5c-0.2,0.6-0.8,0.9-1.7,0.9h-34.4l-0.5-1.7H153V121h-10.3l-0.5-1.6H153V106l8.7,0.8c-0.1,0.7-0.5,1.3-1.8,1.5
		v11.1h3.2l3.6-4.5c0,0,4,3.1,6.4,5.2c-0.2,0.6-0.8,0.9-1.6,0.9h-11.6v17.4h6.2L169.8,133.6z"/>
	<path d="M193.4,127.9c2.3,6.7-0.1,11.3-3,12.8c-2,1-4.5,0.5-5.1-1.5c-0.6-1.9,0.6-3.5,2.3-4.3c2.3-1,4.9-3.6,5-7H193.4z
		 M231.1,101.1c0,0,4,3,6.4,5.1c-0.2,0.6-0.7,0.9-1.6,0.9h-50.2l-0.5-1.7h17.6c-0.6-0.2-1.1-0.4-1.6-0.8c-0.2-2.3-1.5-5-2.7-6.5
		l0.5-0.3c10.3,0.7,9.3,6.6,5.9,7.6h10.4c0.7-2.3,1.5-5.4,2.1-7.7h-27.8l-0.5-1.7h20.4c-0.8-2.3-3-4.7-4.8-6l0.4-0.4
		c9.9-1,11.2,4.2,9,6.4h10l3.5-4.3c0,0,3.9,3,6.4,5.1c-0.2,0.6-0.8,0.9-1.6,0.9h-12.9l6.6,1.9c-0.2,0.7-0.9,1.1-2.2,1.1
		c-1.7,1.3-4.3,3.2-6.7,4.7h10.4L231.1,101.1z M200.4,126c0,0.6-3,2-5.6,2h-1v-20l6.9,2.7h20.6l3.1-3.4l6.4,4.8
		c-0.3,0.5-1.1,1-2.3,1.3v12.1c-0.1,0.5-3.3,1.8-5.5,1.8h-1.1v-2.1h-21.5V126z M224.5,136.2c1.8,0.6,2.3,1.3,2.3,2.5
		c0,2.7-2.6,3.6-13.6,3.6h-7.4c-6.2,0-7.5-0.9-7.5-5.1v-9.3l8,0.7c-0.1,0.7-0.6,1.2-1.8,1.4v6c0,0.7,0.2,0.9,2.4,0.9h7
		c2.6,0,4.8,0,5.7-0.1c0.9-0.1,1.3-0.2,1.7-0.8c0.6-0.9,1.4-2.9,2.5-5.8h0.6L224.5,136.2z M200.4,112.3v4.8h21.5v-4.8H200.4z
		 M221.9,123.6v-4.8h-21.5v4.8H221.9z M208.3,126.3c13.7,1.6,9.1,11.9,3.8,8.2c-0.4-2.8-2.4-5.9-4.3-7.8L208.3,126.3z M226.2,127.9
		c15.8,3.6,10.7,15.5,5,11.1c-0.3-3.8-2.9-8-5.5-10.7L226.2,127.9z"/>
	<path d="M261.5,129.7c-0.1,0.5-2.4,1.8-4.3,1.8h-0.8v-4.8h-3.8v6.2c0,0.6-1.9,1.8-4.3,1.8h-0.8V93.9l5.3,2.3h3l2.6-2.9l5.5,4.3
		c-0.4,0.5-1.3,0.9-2.5,1.1V129.7z M256.4,124.9V97.9h-3.8v27.1H256.4z M276.9,91.3l5.4,4.8c-0.5,0.6-1.1,0.9-2.5,1.1
		c0,30.8,0,39.8-2.6,43.3c-1.7,2.2-4.1,3.1-6.7,3.1c0-2-0.2-3.3-0.8-4.1c-0.7-0.9-2.1-1.5-4-2l0.1-0.9c1.7,0.1,3.9,0.3,5,0.3
		c0.9,0,1.4-0.2,1.8-0.7c1-1.1,1.4-5,1.6-12.8h-3.9c-1.5,7.4-4.8,14.7-12.3,20.3l-0.7-0.5c4.7-6,7-12.9,8-19.8H263l-0.5-1.6h3.1
		c0.5-4.1,0.6-8.2,0.6-12.1h-3l-0.5-1.6h3.5V96.3h-3.5l-0.5-1.6h11.6L276.9,91.3z M274.3,121.8c0.1-3.4,0.1-7.4,0.1-12.1h-2.9
		c0,3.8-0.2,7.9-0.9,12.1H274.3z M271.5,108.1h2.9V96.3h-2.9V108.1z M300.4,97c-0.5,0.5-1.1,0.7-2.5,0.7c-1.6,3.8-4.3,10.4-6.7,14.4
		c5.5,4.4,7.8,10,7.8,14.8c0,6-1.9,9-7.8,9.2c0-1.5-0.2-3.8-0.6-4.6c-0.4-0.5-1.1-0.9-2.1-1.2v11.5c0,0.5-1.7,1.8-4.5,1.8h-1V92.4
		l5.7,2.2h2.8l3-3L300.4,97z M291.4,129.5c0.5,0,0.7-0.1,1-0.3c0.6-0.6,1-1.6,1-3.8c0-4.4-1-9.1-3.6-13.2c0.7-3.9,1.7-11.2,2.1-16
		h-3.5v33.2H291.4z"/>
	<path d="M347.6,114.5l4.7-6.6c0,0,5.2,4.6,8.4,7.5c-0.2,0.6-0.8,0.9-1.8,0.9h-51.1l-0.5-1.8H347.6z"/>
	<path d="M373.2,129.6c2.2,5.8,1.7,10.2,0.1,12.4c-1.2,1.5-4.1,1.6-5.1-0.3c-0.9-1.7-0.1-3.4,1.5-4.5c1.3-1.4,3-4.7,2.7-7.6H373.2z
		 M390.5,122.3c0,0,3.5,2.6,5.6,4.5c-0.2,0.6-0.7,0.9-1.5,0.9h-26.2l-0.5-1.7H379v-7.5h-9.3l-0.5-1.7h9.7v-5.5h-3.7v0.6
		c0,0.5-2.3,1.7-4.5,1.7H370V91.3l5.6,2.3h12.3l2.6-2.8l5.4,4.2c-0.3,0.4-1.1,0.9-2.1,1v15.5c-0.1,0.4-2.7,1.5-4.5,1.5h-0.9v-1.5
		h-3.5v5.5h1.9l2.7-3.5c0,0,3.2,2.4,5.2,4.2c-0.1,0.6-0.7,0.9-1.5,0.9h-8.3v7.5h2.6L390.5,122.3z M375.3,95.2v2.2l0.5-0.2
		c2.8,2.5,3.9,4.9,4.1,6.6v-8.6H375.3z M375.3,109.8h4.6v-5.1c-0.2,2-1.8,2.9-3.1,1.4c0-2.4-0.7-5.4-1.4-7.7V109.8z M377.3,129.9
		c8.6,7.6,2.4,15.6-1,10.9c0.8-3.5,0.8-7.7,0.2-10.7L377.3,129.9z M382.1,129.6c11.1,5.9,5.6,14.9,1.5,10.5
		c0.4-3.4-0.7-7.5-2.2-10.3L382.1,129.6z M384,95.2v14.6h4.3v-8.5c-1,1.7-2.2,3.9-3.5,5.8l-0.7-0.3c0.5-2.9,1.1-7.3,1.3-9.5l2.9,1
		v-3.1H384z M388.5,129.4c12.2,5.4,6.6,15.1,2.2,10.7c0.3-3.5-1.1-7.6-2.8-10.3L388.5,129.4z M410.6,106v11.4h2.2l3.1-3.6l6,4.6
		c-0.4,0.5-1,0.9-2.3,1.1v22c0,0.3-2.1,1.5-5.5,1.5h-1.1v-4.2h-10.5v3.2c0,0.4-1.9,1.5-5.2,1.5h-1.1v-28.8l6.9,2.7h1V90.9l8.4,0.7
		c-0.1,0.9-0.6,1.4-2,1.7v11.1h2.6l3.2-4.4c0,0,3.7,3,5.9,5.1c-0.2,0.6-0.8,0.9-1.6,0.9H410.6z M402.7,119v18.2h10.5V119H402.7z"/>
	<path d="M440.3,102.5c-0.6,3.7-2,4.9-4.3,4.9c-1.4,0-2.6-0.6-3.4-1.8c0.4-7,6.3-10.9,14.2-10.9c9.1,0,13.7,4,13.7,10
		c0,4.5-2.2,7.4-8,10.9c-4.4,2.7-5.9,3.8-6.2,6.8l-0.3,3.5h-2.1c-0.3-1.9-0.7-4.3-0.7-5.8c0-2.7,1.4-4.2,5.1-7.3
		c3.5-2.9,5.1-5,5.1-8.7c0-4.9-3.4-7.3-8.6-7.3c-1.3,0-2.3,0.1-3.4,0.5L440.3,102.5z M449.7,134.9c0,2.5-2,4.5-4.6,4.5
		s-4.6-2.1-4.6-4.5c0-2.5,1.9-4.6,4.6-4.6S449.7,132.4,449.7,134.9z"/>
</g>
</svg>
