<!-- Generator: Adobe Illustrator 25.0.0, SVG Export Plug-In  -->
<svg version="1.1" xmlns="http://www.w3.org/2000/svg" xmlns:xlink="http://www.w3.org/1999/xlink" x="0px" y="0px" width="513.1px"
	 height="42.9px" viewBox="0 0 513.1 42.9" style="overflow:visible;enable-background:new 0 0 513.1 42.9;" xml:space="preserve">
<defs>
</defs>
<g>
	<g>
		<path d="M0,3.2h39.1v5.3H0V3.2z M1.4,12.3h33.7v5H6.6v25.1H1.4V12.3z M10.7,22.4l3.3,0.4c-0.3,2.8-0.9,5.3-1.7,7.6
			c-0.8,2.3-1.9,4.2-3.4,5.7c-0.3-0.3-0.7-0.6-1.3-1c-0.6-0.4-1-0.8-1.4-1c1.3-1.4,2.3-3.1,3-5.1C10,27,10.4,24.8,10.7,22.4z
			 M8.3,19.5h3.8V23H8.3V19.5z M11.1,19.5h2.9c0,1.7,0.1,3.4,0.2,5.1c0.1,1.7,0.5,3.3,1,4.9c0.5,1.6,1.3,3,2.4,4.4
			c-0.4,0.2-0.8,0.5-1.4,1s-1,0.8-1.3,1.2c-1.1-1.5-2-3.2-2.5-5c-0.6-1.8-0.9-3.8-1.1-5.7C11.2,23.3,11.1,21.4,11.1,19.5z M16.7,5.7
			h5.1v36.8h-5.1V5.7z M26,22.2l3.3,0.5c-0.4,2.6-1,5.1-1.8,7.4c-0.8,2.3-1.8,4.2-3.1,5.7c-0.3-0.3-0.7-0.7-1.3-1.1
			c-0.6-0.4-1.1-0.7-1.5-0.9c1.2-1.4,2.2-3.1,2.8-5.1C25.2,26.7,25.7,24.5,26,22.2z M23.6,19.5h4.5V23h-4.5V19.5z M26.4,19.5h3.1
			c0,1.7,0.1,3.4,0.2,5.1c0.1,1.7,0.5,3.3,1,4.9c0.5,1.6,1.3,3,2.4,4.4c-0.4,0.2-0.9,0.5-1.6,0.9c-0.6,0.4-1.1,0.8-1.4,1.1
			c-0.8-1.1-1.4-2.3-1.9-3.6c-0.5-1.3-0.9-2.7-1.1-4.1c-0.2-1.4-0.4-2.8-0.5-4.3C26.4,22.3,26.4,20.9,26.4,19.5z M32.4,12.3h5.3
			v24.8c0,1.2-0.1,2.2-0.4,2.9c-0.3,0.7-0.9,1.2-1.7,1.6c-0.8,0.4-1.8,0.6-3,0.7c-1.2,0.1-2.6,0.1-4.1,0.1c-0.1-0.7-0.3-1.4-0.7-2.3
			c-0.3-0.9-0.7-1.6-1-2.2c1,0,1.9,0,2.9,0c1,0,1.6,0,1.9,0c0.4,0,0.6-0.1,0.7-0.2c0.1-0.1,0.2-0.3,0.2-0.6V12.3z"/>
		<path d="M57.2,0.8L62,2.4c-0.8,2.6-1.8,5.1-3.1,7.7c-1.2,2.6-2.5,5.1-3.9,7.4c-1.4,2.3-2.9,4.3-4.5,6.1c-0.1-0.4-0.3-1-0.6-1.8
			c-0.3-0.7-0.6-1.5-1-2.2c-0.4-0.7-0.7-1.4-0.9-1.8c1.2-1.4,2.4-3,3.6-4.8c1.1-1.8,2.2-3.8,3.1-5.8C55.7,5.1,56.5,3,57.2,0.8z
			 M53.5,13.1l5-5l0,0v34.5h-5.1V13.1z M62.7,3h26.8v39.1h-5.1V7.7H67.6v34.9h-4.9V3z M65.2,35.3h21.6v4.6H65.2V35.3z M68.7,13.1
			h14.7V17H68.7V13.1z M69.8,20.9h12.4v12H69.8V20.9z M73.7,24.6v4.7h4.5v-4.7H73.7z M73.8,8.6h4.1v14.3h-4.1V8.6z"/>
		<path d="M100,22.4h40.6v5.4H100V22.4z M102.3,3.5H138v5.3h-35.7V3.5z M105,11.7l4.9-1.5c0.5,1,1,2,1.5,3.1
			c0.5,1.1,0.9,2.2,1.3,3.2c0.4,1.1,0.6,2,0.8,2.8l-5.2,1.6c-0.1-0.8-0.4-1.8-0.7-2.8c-0.3-1.1-0.7-2.2-1.2-3.3
			C106,13.7,105.5,12.7,105,11.7z M117.4,5.7h5.6v36.9h-5.6V5.7z M130.4,10.1l5.7,1.5c-0.5,1.2-1.1,2.3-1.7,3.4
			c-0.6,1.1-1.1,2.2-1.7,3.2c-0.6,1-1.1,1.9-1.6,2.7l-4.7-1.4c0.5-0.9,1-1.8,1.4-2.9c0.5-1.1,1-2.2,1.4-3.3
			C129.8,12.1,130.1,11.1,130.4,10.1z"/>
		<path d="M154,19.9c-0.1-0.4-0.2-0.8-0.4-1.5c-0.2-0.6-0.4-1.3-0.7-2c-0.2-0.7-0.5-1.2-0.7-1.7c0.6-0.1,1.2-0.4,1.8-0.9
			c0.6-0.4,1.2-1,2-1.7c0.4-0.4,1-1,1.7-1.8c0.7-0.8,1.6-1.8,2.5-2.9c0.9-1.1,1.8-2.3,2.8-3.6c0.9-1.3,1.8-2.6,2.5-3.9l5.4,2.3
			c-1.3,1.9-2.8,3.7-4.3,5.5c-1.5,1.8-3.1,3.5-4.7,5.1c-1.6,1.6-3.2,3-4.7,4.3v0.1c-0.6,0.4-1.1,0.7-1.6,0.9
			c-0.4,0.3-0.8,0.5-1.1,0.8C154.1,19.4,154,19.7,154,19.9z M154,19.9l0-4.1l3.6-1.9l27.4-0.9c0,0.7,0.1,1.6,0.2,2.5
			c0.1,1,0.2,1.7,0.3,2.3c-4.3,0.2-8,0.4-11.1,0.5c-3.1,0.1-5.8,0.3-7.9,0.4c-2.2,0.1-4,0.2-5.4,0.3c-1.4,0.1-2.6,0.2-3.5,0.3
			c-0.9,0.1-1.6,0.2-2.1,0.3C154.9,19.6,154.4,19.8,154,19.9z M155.4,22.9h30.2v19.7h-5.7V28h-19v14.6h-5.5V22.9z M158.1,35.1h24.6
			v5.2h-24.6V35.1z M174.2,7.6l4.2-2.8c1.4,1.3,2.8,2.7,4.3,4.3c1.5,1.6,2.9,3.1,4.3,4.7c1.3,1.5,2.4,2.9,3.2,4.2l-4.5,3.3
			c-0.7-1.2-1.7-2.7-3-4.3c-1.3-1.6-2.6-3.2-4.1-4.9C177,10.5,175.6,9,174.2,7.6z"/>
		<path d="M219.8,2.7l4.8,1.3c-2.3,5.9-5.3,11-9.1,15.4c-3.8,4.4-8.3,8-13.3,10.7c-0.2-0.4-0.5-0.9-0.8-1.4
			c-0.4-0.5-0.8-1.1-1.1-1.7c-0.4-0.6-0.8-1-1.1-1.4c4.8-2.3,9-5.4,12.5-9.3C215.2,12.5,217.9,7.9,219.8,2.7z M200.3,13.7h22.8v4.6
			h-22.8V13.7z M202.2,5.4h15.4v4.6h-15.4V5.4z M209.3,21.7h9.4v4.2h-9.4v16.6h-4.9V24.7l2.9-3.1H209.3z M207.5,28.7h11.4v4h-11.4
			V28.7z M207.5,35.9h11.2v4.3h-11.2V35.9z M208.1,1.1h4.9v15.7h-4.9V1.1z M216.5,21.7h5.1v20.2h-5.1V21.7z M224.5,3.2h13.1v5h-7.9
			v34.3h-5.3V3.2z M236.4,3.2h1l0.8-0.2l3.9,2.4c-0.8,2.1-1.7,4.4-2.6,6.8c-1,2.4-1.9,4.5-2.8,6.5c1.3,1.3,2.2,2.6,2.9,3.8
			c0.7,1.2,1.1,2.4,1.3,3.5c0.2,1.1,0.3,2.1,0.3,3.1c0,1.7-0.2,3.1-0.6,4.2c-0.4,1.1-1,2-1.9,2.6c-0.8,0.6-1.9,1-3.2,1.2
			c-0.5,0.1-1.1,0.1-1.8,0.1c-0.7,0-1.4,0-2.1,0c0-0.7-0.2-1.6-0.4-2.6c-0.2-1-0.6-1.8-1-2.6c0.6,0,1.1,0.1,1.6,0.1
			c0.5,0,0.9,0,1.2,0c0.4,0,0.7-0.1,1-0.1c0.3-0.1,0.6-0.2,0.8-0.3c0.4-0.2,0.7-0.6,0.9-1.1c0.2-0.5,0.2-1.1,0.2-1.9
			c0-1.2-0.3-2.6-1-4.2c-0.6-1.6-1.9-3.2-3.7-5c0.4-1.1,0.9-2.3,1.4-3.6c0.5-1.3,0.9-2.6,1.4-4c0.5-1.3,0.9-2.6,1.2-3.8
			c0.4-1.2,0.7-2.2,0.9-3V3.2z"/>
		<path d="M251.1,3.7h40.4v5.4h-40.4V3.7z M255.3,14.1h5.2v20.8h-5.2V14.1z M257.4,14.1h16.8v17.3h-16.8v-5.1H269v-7.1h-11.5V14.1z
			 M280.7,5.2h5.6v30.6c0,1.6-0.2,2.8-0.6,3.7c-0.4,0.9-1.2,1.5-2.3,2c-1.1,0.4-2.4,0.7-4.1,0.8c-1.7,0.1-3.6,0.2-5.9,0.2
			c-0.1-0.5-0.3-1.2-0.5-1.8c-0.2-0.7-0.5-1.4-0.8-2.1c-0.3-0.7-0.6-1.3-0.9-1.7c1.1,0,2.2,0.1,3.3,0.1c1.1,0,2.1,0,3,0s1.5,0,1.9,0
			c0.5,0,0.9-0.1,1.1-0.3c0.2-0.2,0.3-0.5,0.3-1V5.2z"/>
		<path d="M300.5,31.8c1.5-0.5,3.3-1.1,5.3-1.9c2-0.8,4.1-1.6,6.3-2.5c2.2-0.9,4.4-1.8,6.6-2.7l1.2,5.2c-2,0.9-4,1.8-6.1,2.7
			c-2.1,0.9-4.1,1.8-6,2.6c-2,0.8-3.8,1.6-5.5,2.3L300.5,31.8z M305.5,3.5l5.6-0.2l1,29l-5.6,0.2L305.5,3.5z M332.7,3.3l5.9,0.5
			c-0.5,5.1-1.3,9.6-2.3,13.7c-1,4.1-2.4,7.7-4.1,10.8s-3.8,5.9-6.4,8.3c-2.6,2.4-5.7,4.4-9.3,6c-0.3-0.4-0.7-0.9-1.2-1.5
			c-0.5-0.6-1-1.2-1.6-1.8c-0.6-0.6-1.1-1.1-1.5-1.4c3.6-1.4,6.6-3.1,9-5.1c2.4-2,4.4-4.5,5.9-7.3c1.5-2.8,2.7-6.1,3.6-9.8
			C331.6,12,332.3,7.9,332.7,3.3z M314.9,8.4l4.9-2.4c1,1.1,1.9,2.2,2.8,3.5c0.9,1.3,1.7,2.5,2.5,3.8c0.7,1.2,1.3,2.4,1.8,3.4
			l-5.3,2.8c-0.4-1-0.9-2.2-1.6-3.5c-0.7-1.3-1.5-2.7-2.4-4C316.8,10.7,315.9,9.5,314.9,8.4z M326.6,27.9l4.1-3.8
			c1,1.1,2.1,2.2,3.3,3.4c1.2,1.2,2.3,2.5,3.5,3.7c1.1,1.3,2.2,2.5,3.2,3.7c1,1.2,1.8,2.3,2.4,3.2l-4.6,4.5c-0.6-1-1.3-2.1-2.3-3.4
			s-1.9-2.5-3-3.8c-1.1-1.3-2.2-2.6-3.3-3.9C328.7,30.2,327.6,29,326.6,27.9z"/>
		<path d="M350.6,23.5c2-0.4,4.4-1,7.1-1.6s5.5-1.4,8.3-2.1l0.6,4.8c-2.5,0.7-5.1,1.4-7.6,2.1c-2.6,0.7-4.9,1.4-7.1,1.9L350.6,23.5z
			 M351.3,9.1h14.8v4.9h-14.8V9.1z M356.7,0.7h5.1V37c0,1.3-0.1,2.3-0.4,3c-0.3,0.7-0.8,1.3-1.5,1.6c-0.7,0.4-1.7,0.6-2.8,0.8
			c-1.1,0.1-2.4,0.2-4,0.2c-0.1-0.7-0.3-1.5-0.6-2.4c-0.3-0.9-0.6-1.7-0.9-2.5c0.9,0,1.7,0.1,2.5,0.1c0.8,0,1.4,0,1.6,0
			c0.3,0,0.5-0.1,0.6-0.2c0.1-0.1,0.2-0.3,0.2-0.6V0.7z M367.2,10.7H392v31.5h-5.3V15.8h-14.4v26.7h-5.1V10.7z M370.3,22.2h17.8v5
			h-17.8V22.2z M370.5,34.1h17.8v5.1h-17.8V34.1z M376.8,0.8h5.1v36.5h-5.1V0.8z"/>
		<path d="M419.6,25h5.3v3.1c0,1-0.1,2.1-0.4,3.2c-0.3,1.1-0.9,2.3-1.7,3.4c-0.8,1.1-2,2.2-3.5,3.2s-3.5,2-5.9,2.9
			c-2.5,0.9-5.5,1.6-9,2.1c-0.3-0.6-0.8-1.4-1.4-2.2s-1.1-1.6-1.6-2.1c3.2-0.5,5.9-1.1,8-1.7c2.2-0.6,3.9-1.3,5.3-2.1
			c1.4-0.8,2.4-1.5,3.1-2.3c0.7-0.8,1.2-1.6,1.5-2.3c0.3-0.8,0.4-1.5,0.4-2.2V25z M404.3,15.8h4.7V18c0,0.7-0.1,1.5-0.3,2.7
			c-0.2,1.1-0.5,2.2-1,3.4c-0.5,1.1-1.3,2.1-2.3,3c-0.3-0.2-0.7-0.5-1.2-0.8c-0.5-0.3-1-0.6-1.5-0.8c-0.5-0.3-1-0.5-1.4-0.6
			c0.9-0.7,1.5-1.5,1.9-2.4c0.4-0.9,0.7-1.8,0.8-2.6c0.1-0.8,0.2-1.5,0.2-2V15.8z M401.6,29.1h41.7v4.4h-41.7V29.1z M401.8,13.9
			h12.5v4.2h-12.5V13.9z M403.6,1.9h4.5v5.6h6.1v4.1h-10.6V1.9z M411.4,0.8h4.8v25.5h-4.8V0.8z M437.1,3h0.8l0.8-0.2l2.8,1.4
			c-1,1.8-2.2,3.3-3.7,4.6c-1.5,1.3-3.2,2.3-5.1,3.2c-1.9,0.9-4,1.6-6.2,2.1c-2.2,0.5-4.5,1-7,1.3c-0.2-0.5-0.5-1-0.9-1.6
			c-0.4-0.6-0.8-1-1.1-1.4c2.1-0.2,4.2-0.6,6.2-1s3.9-1,5.6-1.7c1.7-0.7,3.3-1.6,4.6-2.6c1.3-1,2.4-2.2,3.1-3.5V3z M417.6,14.9h25
			v3.4h-25V14.9z M429.3,0.5l4.4,0.9c-1.7,1.5-3.6,2.7-5.8,3.7c-2.2,1-4.8,1.9-7.7,2.8c-0.3-0.5-0.7-1-1.2-1.6
			c-0.5-0.6-1-1.1-1.4-1.4c2.6-0.5,5-1.2,7-1.9C426.6,2.3,428.2,1.4,429.3,0.5z M418.9,8.4c1-0.1,2-0.1,3.1-0.2
			c1.1-0.1,2.3-0.2,3.6-0.2l0.1,2.5c-1.1,0.1-2.2,0.2-3.3,0.3c-1,0.1-2.1,0.2-3.1,0.4L418.9,8.4z M420.2,19.7l3.3-2.5
			c0.8,0.5,1.6,1.1,2.5,1.8c0.9,0.7,1.6,1.4,2.1,2l-3.5,2.7c-0.4-0.6-1-1.3-1.9-2.1C421.8,20.9,421,20.2,420.2,19.7z M423.5,35.7
			l2.3-3.6c1.3,0.4,2.8,0.9,4.4,1.4c1.6,0.6,3.2,1.1,4.9,1.7c1.6,0.6,3.2,1.1,4.6,1.7c1.4,0.6,2.7,1.1,3.7,1.5l-2.4,4.1
			c-1-0.4-2.2-1-3.6-1.6c-1.4-0.6-2.9-1.2-4.5-1.8s-3.2-1.3-4.8-1.8C426.4,36.8,424.9,36.2,423.5,35.7z M428.3,3h10.2v2.9h-14.1
			L428.3,3z M424.4,5.9l3.3-1.2c1,0.7,2.1,1.6,3.1,2.6c1.1,1,1.9,2,2.5,2.8l-3.5,1.2c-0.5-0.8-1.3-1.7-2.3-2.7
			C426.5,7.6,425.4,6.7,424.4,5.9z M432.5,12h5.1v9.1c0,1-0.1,1.8-0.4,2.4c-0.3,0.6-0.8,1-1.5,1.3c-0.7,0.3-1.6,0.5-2.6,0.5
			c-1,0-2.1,0.1-3.5,0.1c-0.1-0.6-0.3-1.3-0.6-2c-0.3-0.7-0.5-1.4-0.8-1.9c0.7,0,1.5,0.1,2.2,0.1c0.7,0,1.2,0,1.4,0
			c0.2,0,0.4-0.1,0.5-0.2c0.1-0.1,0.1-0.2,0.1-0.4V12z M429.7,26.8l2.5-2.3c0.8,0.5,1.6,1.1,2.5,1.8s1.6,1.3,2.1,1.8l-2.6,2.6
			c-0.5-0.6-1.2-1.2-2-1.9C431.3,28,430.5,27.4,429.7,26.8z"/>
		<path d="M453.3,4.6h4.9v30.3h-4.9V4.6z M456,4.6h9.8v26.3H456V26h5V9.5h-5V4.6z M467.9,2.4h4.8v13.8c0,2-0.1,4.1-0.2,6.4
			c-0.1,2.3-0.4,4.7-0.8,7.1s-1,4.8-1.8,7c-0.8,2.3-1.8,4.3-3.1,6.1c-0.3-0.3-0.7-0.6-1.2-1c-0.5-0.4-1-0.7-1.5-1.1
			c-0.5-0.3-1-0.6-1.4-0.7c1.2-1.7,2.2-3.5,2.9-5.6c0.7-2,1.2-4.1,1.6-6.2c0.3-2.1,0.6-4.2,0.6-6.3c0.1-2.1,0.1-4,0.1-5.8V2.4z
			 M470.1,2.4H492v10.9h-21.9V9.1h17V6.6h-17V2.4z M470.1,37.6h23.5v4.2h-23.5V37.6z M471.1,15.3h22.3v4h-22.3V15.3z M473.9,28.4
			c-0.1-0.3-0.2-0.8-0.4-1.3c-0.2-0.5-0.4-1.1-0.6-1.6c-0.2-0.5-0.4-1-0.6-1.4c0.3-0.1,0.7-0.3,1-0.5s0.7-0.6,1.1-1
			c0.2-0.2,0.6-0.7,1.1-1.3c0.5-0.6,1.1-1.4,1.7-2.3c0.6-0.9,1.1-1.8,1.5-2.8l4.3,2.3c-0.9,1.4-2,2.7-3.1,4.1
			c-1.2,1.4-2.3,2.5-3.5,3.5v0.1c-0.5,0.3-1,0.6-1.3,0.8c-0.3,0.2-0.6,0.5-0.9,0.7C474.1,28,473.9,28.2,473.9,28.4z M472.5,30.3H492
			v4h-19.5V30.3z M473.9,28.4l-0.1-3.3l2.2-1.4l12.7-0.7c0.2,0.6,0.5,1.2,0.8,2c0.3,0.7,0.6,1.3,0.7,1.8c-2.6,0.2-4.9,0.4-6.7,0.5
			c-1.8,0.1-3.3,0.3-4.5,0.4c-1.2,0.1-2.1,0.2-2.7,0.3c-0.7,0.1-1.2,0.2-1.6,0.2C474.5,28.2,474.2,28.3,473.9,28.4z M479.6,26.9h4.8
			v12.4h-4.8V26.9z M484.4,20.9l3.6-1.6c1,1.1,1.9,2.3,2.8,3.7c0.9,1.4,1.6,2.6,1.9,3.7l-3.9,1.7c-0.2-0.7-0.6-1.5-1.1-2.4
			c-0.5-0.9-1-1.8-1.6-2.7C485.6,22.4,485,21.6,484.4,20.9z"/>
		<path d="M509,39.2c-1.2,0-2.2-0.4-2.9-1.2c-0.8-0.8-1.1-1.8-1.1-3c0-1.2,0.4-2.3,1.1-3.1c0.8-0.8,1.7-1.2,2.9-1.2
			c1.2,0,2.2,0.4,2.9,1.2c0.8,0.8,1.1,1.8,1.1,3.1c0,1.2-0.4,2.2-1.1,3C511.2,38.8,510.2,39.2,509,39.2z M506.9,27.4l-0.9-16.4
			l-0.2-6.2h6.6l-0.2,6.2l-0.9,16.4H506.9z"/>
	</g>
</g>
</svg>
