<!-- Generator: Adobe Illustrator 25.0.0, SVG Export Plug-In  -->
<svg version="1.1" xmlns="http://www.w3.org/2000/svg" xmlns:xlink="http://www.w3.org/1999/xlink" x="0px" y="0px" width="851.8px"
	 height="107.9px" viewBox="0 0 851.8 107.9" style="overflow:visible;enable-background:new 0 0 851.8 107.9;"
	 xml:space="preserve">
<style type="text/css">
	.st0{fill:#333337;}
</style>
<defs>
</defs>
<g>
	<path class="st0" d="M11,0.6l4.1,1.2c-1,2.6-2.2,5.2-3.5,7.8c-1.4,2.6-2.8,5-4.4,7.3c-1.6,2.3-3.2,4.3-4.8,6
		c-0.2-0.4-0.4-0.8-0.6-1.4s-0.6-1.1-0.9-1.7c-0.3-0.6-0.6-1-0.9-1.3c1.5-1.5,2.9-3.2,4.3-5.1c1.4-1.9,2.6-4,3.8-6.2
		C9.2,5.1,10.2,2.8,11,0.6z M6.4,12.8l4.1-4.1l0,0v34.4H6.4V12.8z M20.6,0.6l4.3,1c-0.6,2.4-1.4,4.8-2.3,7.1
		c-0.9,2.3-1.8,4.5-2.9,6.6c-1,2-2.2,3.8-3.4,5.4c-0.2-0.2-0.6-0.6-1-0.9c-0.4-0.4-0.9-0.7-1.3-1.1c-0.4-0.4-0.9-0.6-1.2-0.9
		c1.2-1.4,2.3-3,3.2-4.8c1-1.8,1.8-3.8,2.6-5.9C19.4,4.9,20.1,2.8,20.6,0.6z M19.6,20.6l4.2,0.8c-0.5,2-1,4-1.7,5.9
		c-0.7,1.9-1.4,3.7-2.3,5.4c-0.8,1.7-1.7,3.1-2.6,4.4c-0.2-0.2-0.6-0.5-1.1-0.8c-0.5-0.3-0.9-0.6-1.4-0.9c-0.5-0.3-0.9-0.5-1.2-0.7
		c1.4-1.7,2.5-3.8,3.6-6.4C18.2,25.8,19,23.2,19.6,20.6z M20.8,9h20v4.1H19.1L20.8,9z M27.1,10.7h4.3v27.4c0,1.1-0.1,2-0.4,2.7
		c-0.3,0.7-0.7,1.2-1.5,1.5c-0.7,0.3-1.6,0.6-2.7,0.7c-1.1,0.1-2.3,0.2-3.8,0.2c-0.1-0.6-0.3-1.4-0.6-2.2c-0.3-0.8-0.6-1.6-0.9-2.1
		c1,0,2,0,2.9,0c0.9,0,1.5,0,1.8,0c0.3,0,0.5,0,0.6-0.1c0.1-0.1,0.2-0.3,0.2-0.6V10.7z M34.1,21.4l3.9-1.3c0.9,1.6,1.7,3.3,2.4,5.1
		c0.7,1.8,1.4,3.6,1.9,5.4c0.5,1.8,0.9,3.4,1.2,4.8l-4.2,1.5c-0.2-1.4-0.5-3-1.1-4.8c-0.5-1.8-1.1-3.6-1.8-5.5
		C35.6,24.8,34.9,23.1,34.1,21.4z M39.5,9h0.6l0.7-0.1l3,0.6c-0.3,1.8-0.6,3.6-1,5.5c-0.4,1.9-0.7,3.5-1.1,4.8l-3.7-0.7
		c0.2-0.8,0.3-1.7,0.5-2.8c0.2-1.1,0.4-2.2,0.5-3.4c0.2-1.2,0.3-2.3,0.4-3.3V9z"/>
	<path class="st0" d="M55.2,7.8h4v34.1h-4V7.8z M57.6,20.5h12.3v3.8H57.6V20.5z M57.8,7.8h14.1v30.6H57.8v-3.9h10.1V11.7H57.8V7.8z
		 M62,0.3l4.7,0.8c-0.5,1.5-1,3-1.6,4.5c-0.6,1.5-1.1,2.8-1.5,3.8l-3.5-0.8c0.2-0.8,0.4-1.6,0.7-2.6c0.2-1,0.5-2,0.7-2.9
		C61.8,2,61.9,1.1,62,0.3z M78.8,0.3l4.2,1c-0.6,2.3-1.3,4.5-2.1,6.7c-0.8,2.2-1.7,4.3-2.7,6.2c-1,2-2,3.7-3,5.1
		c-0.2-0.2-0.6-0.5-1-0.9c-0.4-0.3-0.9-0.6-1.3-0.9c-0.4-0.3-0.9-0.6-1.2-0.7c1-1.3,2-2.9,2.9-4.7c0.9-1.8,1.7-3.7,2.4-5.7
		C77.7,4.4,78.3,2.4,78.8,0.3z M76.6,20.2l3.4-1.9c0.8,1,1.7,2.2,2.6,3.5c0.9,1.3,1.8,2.5,2.5,3.7s1.4,2.3,1.9,3.2l-3.7,2.3
		c-0.4-1-1-2-1.8-3.3c-0.8-1.2-1.6-2.5-2.4-3.8C78.3,22.5,77.4,21.3,76.6,20.2z M78.2,7.6H92v4H78.2V7.6z M90.5,7.6h4.1
		c0,0.5,0,1,0,1.3c0,0.3,0,0.6,0,0.8c-0.2,5.3-0.3,9.7-0.5,13.3s-0.4,6.6-0.6,9c-0.2,2.3-0.5,4.1-0.8,5.4c-0.3,1.3-0.7,2.2-1.2,2.8
		c-0.6,0.8-1.2,1.3-1.8,1.6c-0.6,0.3-1.4,0.5-2.3,0.6c-0.8,0.1-1.8,0.1-3.1,0.1c-1.3,0-2.6-0.1-3.9-0.1c0-0.6-0.2-1.3-0.4-2.1
		c-0.3-0.8-0.6-1.5-1-2.1c1.5,0.1,2.9,0.2,4.1,0.2c1.3,0,2.2,0,2.8,0c0.5,0,0.8,0,1.1-0.1c0.3-0.1,0.6-0.3,0.9-0.6
		c0.4-0.4,0.7-1.3,1-2.5c0.3-1.2,0.5-3,0.7-5.3c0.2-2.3,0.4-5.2,0.6-8.7c0.2-3.5,0.3-7.8,0.4-12.7V7.6z"/>
	<path class="st0" d="M127.3,27.3l3,2.3c-1.3,1.1-2.8,2.3-4.5,3.4c-1.7,1.1-3.6,2.2-5.5,3.2c-2,1-4,1.9-6,2.8c-2,0.8-4,1.5-5.9,2.1
		c-0.2-0.5-0.6-1.1-1-1.8s-0.8-1.3-1.3-1.8c1.9-0.4,3.8-1,5.8-1.7c2-0.7,4-1.5,5.9-2.4c1.9-0.9,3.7-1.9,5.4-2.9
		C124.8,29.3,126.1,28.3,127.3,27.3z M124.6,21.8l2.8,2.1c-1.1,0.8-2.4,1.7-3.9,2.5c-1.5,0.8-3.1,1.7-4.7,2.5
		c-1.7,0.8-3.4,1.5-5,2.2c-1.7,0.7-3.3,1.2-4.8,1.7c-0.2-0.5-0.6-1.1-1-1.7c-0.4-0.7-0.8-1.2-1.2-1.7c1.5-0.3,3-0.8,4.7-1.3
		c1.7-0.6,3.3-1.2,5-1.9c1.6-0.7,3.2-1.4,4.6-2.1C122.4,23.3,123.6,22.6,124.6,21.8z M126.2,13.1l3.6,1.5c-1.6,1.6-3.5,3.1-5.8,4.4
		c-2.3,1.3-4.7,2.5-7.2,3.5c-2.5,1-5,1.9-7.5,2.6c-0.2-0.3-0.4-0.6-0.6-1.1c-0.3-0.4-0.6-0.9-0.9-1.3c-0.3-0.4-0.6-0.8-0.8-1.1
		c2.4-0.6,4.8-1.2,7.2-2.1c2.4-0.8,4.7-1.8,6.8-2.9C123.1,15.6,124.8,14.4,126.2,13.1z M107.1,4.3h39.2v10h-4.4v-6h-30.5v6h-4.3V4.3
		z M113.4,11.9h26.4v3.8h-26.4V11.9z M121.4,18.9l3.3-1.8c1.8,1.5,3.2,3.2,4.3,5.1c1.1,1.9,1.9,3.8,2.4,5.8c0.5,2,0.7,3.8,0.6,5.6
		c0,1.8-0.3,3.3-0.8,4.7c-0.5,1.4-1.2,2.4-2,3c-0.8,0.7-1.5,1.2-2.3,1.5c-0.8,0.2-1.7,0.4-2.8,0.4c-0.5,0-1.1,0-1.8,0
		c-0.7,0-1.4,0-2.1-0.1c0-0.6-0.1-1.3-0.3-2.1c-0.2-0.8-0.5-1.5-0.9-2.1c0.8,0.1,1.6,0.1,2.4,0.2c0.7,0,1.4,0.1,1.8,0.1
		c0.6,0,1.1-0.1,1.6-0.2c0.4-0.1,0.8-0.4,1.2-0.8c0.5-0.4,0.9-1.2,1.2-2.2c0.3-1,0.5-2.2,0.4-3.6c0-1.4-0.2-2.9-0.6-4.4
		s-1.1-3.1-2-4.7C124.2,21.7,122.9,20.2,121.4,18.9z M122.8,1.3l4.6-1.3c0.5,0.8,1,1.8,1.5,2.8c0.5,1,0.9,1.9,1,2.7l-4.8,1.5
		c-0.2-0.8-0.5-1.7-0.9-2.7C123.7,3.1,123.2,2.2,122.8,1.3z M139.7,17l3.5,2.9c-1.3,1.1-2.8,2.2-4.3,3.2c-1.5,1.1-3.1,2.1-4.6,3.1
		c-1.5,1-3,1.8-4.3,2.6l-2.8-2.5c1.3-0.8,2.7-1.7,4.3-2.7s3-2.2,4.5-3.3C137.4,19.1,138.7,18,139.7,17z M136.6,24.4
		c0.6,2,1.5,3.8,2.7,5.6c1.1,1.7,2.4,3.3,4,4.6c1.5,1.3,3.2,2.4,5.1,3.1c-0.3,0.3-0.6,0.6-1,1c-0.4,0.4-0.7,0.8-1,1.3
		c-0.3,0.4-0.6,0.9-0.8,1.2c-2.1-1-3.9-2.2-5.5-3.8c-1.6-1.6-3-3.4-4.3-5.4c-1.2-2-2.2-4.3-2.9-6.7L136.6,24.4z"/>
	<path class="st0" d="M163.3,31.2l-1.2-3c1.9-0.7,3.4-1.6,4.4-2.8c1-1.1,1.5-2.5,1.5-4.1l-0.6-4.2l2.5,3.8c-0.4,0.4-0.8,0.6-1.2,0.8
		c-0.4,0.2-0.9,0.3-1.4,0.3c-1,0-2-0.3-2.7-0.9c-0.8-0.6-1.2-1.5-1.2-2.7c0-1.2,0.4-2.1,1.2-2.7c0.8-0.6,1.7-1,2.7-1
		c1.4,0,2.5,0.5,3.3,1.6c0.8,1,1.1,2.4,1.1,4.2c0,2.6-0.8,4.8-2.3,6.7C168,29,166,30.3,163.3,31.2z"/>
	<path class="st0" d="M194.7,22.4h1.2l0.7-0.1l1.9,0.8c-0.7,4.9-1.9,9.1-3.6,12.4c-1.7,3.4-3.7,5.9-6.2,7.7c-0.2-0.3-0.5-0.6-0.8-1
		c-0.4-0.4-0.7-0.8-1.1-1.1c-0.4-0.4-0.7-0.6-1-0.8c2.3-1.6,4.2-3.8,5.7-6.7c1.5-2.9,2.6-6.4,3.1-10.5V22.4z M187.5,26.6
		c-0.1-0.3-0.2-0.7-0.4-1.2c-0.2-0.5-0.4-0.9-0.6-1.4c-0.2-0.5-0.4-0.9-0.5-1.1c0.4-0.1,0.7-0.2,1.1-0.4c0.4-0.2,0.8-0.5,1.2-0.9
		c0.4-0.3,0.9-0.9,1.5-1.8c0.6-0.8,1.3-1.8,2.1-2.8c0.7-1,1.4-2.1,2.1-3s1.2-1.8,1.6-2.4v-0.1l1.2-0.5l2.7,1.2
		c-0.5,0.8-1.2,1.7-1.9,2.7s-1.5,2.2-2.3,3.3c-0.8,1.1-1.6,2.2-2.4,3.2c-0.8,1-1.5,1.9-2.2,2.6c-0.6,0.3-1.1,0.6-1.5,0.9
		c-0.4,0.3-0.8,0.5-1.1,0.8C187.6,26.1,187.5,26.3,187.5,26.6z M186.7,11.1h9.9v3.5h-9.9V11.1z M187.5,26.6v-3.2l1.8-0.9h7.1l0,3.5
		h-6.1c-0.6,0-1.1,0.1-1.7,0.2C188,26.2,187.7,26.4,187.5,26.6z M188.2,2.4l3.3-1.9c1,1.1,2.1,2.3,3.1,3.7c1.1,1.3,1.9,2.5,2.5,3.4
		l-3.4,2.3c-0.4-0.7-0.9-1.4-1.5-2.3c-0.6-0.9-1.3-1.7-2-2.6C189.5,4,188.8,3.1,188.2,2.4z M195.5,31.8c0.9,2,2.1,3.5,3.7,4.5
		c1.6,1,3.5,1.6,5.8,1.9c2.3,0.3,4.9,0.5,7.8,0.5c1.6,0,3.4,0,5.4-0.1c2-0.1,4-0.1,6-0.2c2-0.1,3.8-0.2,5.5-0.4
		c-0.2,0.3-0.4,0.7-0.6,1.2s-0.3,1-0.5,1.5c-0.1,0.5-0.3,1-0.3,1.4c-1.5,0.1-3.1,0.2-4.9,0.2c-1.8,0.1-3.5,0.1-5.4,0.1
		c-1.8,0-3.6,0-5.4,0c-2.7,0-5.1-0.1-7.2-0.3c-2.1-0.2-4-0.7-5.6-1.3c-1.6-0.7-3-1.6-4.2-2.9c-1.2-1.2-2.2-2.9-3.1-4.9L195.5,31.8z
		 M211,10.5l3.1,1.2c-1,1.4-2.2,2.6-3.6,3.9c-1.4,1.2-3,2.4-4.6,3.4c-1.6,1-3.3,1.8-4.9,2.5c-0.3-0.5-0.7-1-1.2-1.6s-1-1.1-1.4-1.5
		c1.6-0.5,3.2-1.1,4.8-1.9c1.6-0.8,3.1-1.7,4.5-2.8C209,12.6,210.1,11.6,211,10.5z M199.5,8.8h28.8v3.3h-28.8V8.8z M208,21.5h4
		c-0.2,2.3-0.6,4.5-1.2,6.4c-0.6,1.9-1.6,3.6-2.9,5c-1.4,1.4-3.3,2.6-5.8,3.5c-0.2-0.5-0.5-1.1-1-1.7c-0.5-0.6-0.9-1.2-1.3-1.5
		c2.2-0.7,3.8-1.6,4.9-2.7c1.1-1.1,1.9-2.4,2.4-3.9C207.5,25,207.8,23.3,208,21.5z M223.8,1.1l2.7,2.9c-1.6,0.4-3.4,0.7-5.5,0.9
		c-2,0.3-4.1,0.5-6.3,0.7c-2.2,0.2-4.4,0.4-6.6,0.5c-2.2,0.1-4.3,0.2-6.4,0.2c0-0.4-0.1-0.9-0.3-1.5c-0.2-0.6-0.4-1.1-0.6-1.5
		c2-0.1,4.1-0.2,6.2-0.3c2.1-0.1,4.2-0.3,6.3-0.5c2.1-0.2,4-0.4,5.8-0.6C220.8,1.6,222.4,1.4,223.8,1.1z M203.3,20.6h15v3.2h-15
		V20.6z M212,4.2h4.1v15.4H212V4.2z M223.2,24.5h4c-0.1,0.7-0.1,1.2-0.1,1.5c-0.2,2.6-0.5,4.6-0.8,5.9c-0.3,1.3-0.7,2.2-1.3,2.8
		c-0.4,0.4-0.9,0.7-1.4,0.9c-0.5,0.2-1.1,0.3-1.7,0.3c-0.6,0-1.3,0-2.4,0c-1,0-2.1,0-3.3-0.1c0-0.5-0.1-1-0.3-1.7
		c-0.2-0.6-0.4-1.2-0.7-1.6c1,0.1,2,0.1,2.9,0.1c0.9,0,1.6,0,1.9,0s0.7,0,0.9-0.1c0.2,0,0.4-0.1,0.6-0.3c0.3-0.3,0.6-1,0.9-2.1
		c0.2-1.1,0.5-2.9,0.7-5.3V24.5z M217.2,20.6h3.7c-0.2,1.2-0.5,2.4-0.8,3.7c-0.3,1.3-0.6,2.4-0.9,3.3h-3.7c0.3-1,0.7-2.1,0.9-3.4
		C216.8,22.9,217,21.7,217.2,20.6z M216.7,14.4l2.2-2.5c1.3,0.7,2.6,1.4,3.9,2.1c1.3,0.8,2.6,1.5,3.7,2.3c1.2,0.8,2.2,1.5,3,2.1
		l-2.7,2.7c-1.2-1-2.7-2.1-4.5-3.3C220.4,16.6,218.5,15.5,216.7,14.4z M217.6,24.5h6.7v3.1h-6.7V24.5z"/>
	<path class="st0" d="M246.8,22.4h1.2l0.7-0.1l1.9,0.8c-0.7,4.9-1.9,9.1-3.6,12.4c-1.7,3.4-3.7,5.9-6.2,7.7c-0.2-0.3-0.5-0.6-0.8-1
		c-0.4-0.4-0.7-0.8-1.1-1.1c-0.4-0.4-0.7-0.6-1-0.8c2.3-1.6,4.2-3.8,5.7-6.7c1.5-2.9,2.6-6.4,3.1-10.5V22.4z M239.6,26.6
		c-0.1-0.3-0.2-0.7-0.4-1.2c-0.2-0.5-0.4-0.9-0.6-1.4c-0.2-0.5-0.4-0.9-0.5-1.1c0.4-0.1,0.7-0.2,1.1-0.4c0.4-0.2,0.8-0.5,1.2-0.9
		c0.4-0.3,0.9-0.9,1.5-1.8c0.6-0.8,1.3-1.8,2.1-2.8c0.7-1,1.4-2.1,2.1-3s1.2-1.8,1.6-2.4v-0.1l1.2-0.5l2.7,1.2
		c-0.5,0.8-1.2,1.7-1.9,2.7s-1.5,2.2-2.3,3.3c-0.8,1.1-1.6,2.2-2.4,3.2c-0.8,1-1.5,1.9-2.2,2.6c-0.6,0.3-1.1,0.6-1.5,0.9
		c-0.4,0.3-0.8,0.5-1.1,0.8C239.7,26.1,239.6,26.3,239.6,26.6z M238.8,11.1h9.9v3.5h-9.9V11.1z M239.6,26.6v-3.2l1.8-0.9h7.1l0,3.5
		h-6.1c-0.6,0-1.1,0.1-1.7,0.2C240.1,26.2,239.8,26.4,239.6,26.6z M240.3,2.4l3.3-1.9c1,1.1,2.1,2.3,3.1,3.7
		c1.1,1.3,1.9,2.5,2.5,3.4l-3.4,2.3c-0.4-0.7-0.9-1.4-1.5-2.3c-0.6-0.9-1.3-1.7-2-2.6C241.6,4,240.9,3.1,240.3,2.4z M247.5,31.8
		c0.9,2,2.1,3.5,3.7,4.5c1.6,1,3.5,1.6,5.8,1.9c2.3,0.3,4.9,0.5,7.8,0.5c1.6,0,3.4,0,5.4-0.1c2-0.1,4-0.1,6-0.2
		c2-0.1,3.8-0.2,5.5-0.4c-0.2,0.3-0.4,0.7-0.6,1.2s-0.3,1-0.5,1.5c-0.1,0.5-0.3,1-0.3,1.4c-1.5,0.1-3.1,0.2-4.9,0.2
		c-1.8,0.1-3.5,0.1-5.4,0.1c-1.8,0-3.6,0-5.4,0c-2.7,0-5.1-0.1-7.2-0.3c-2.1-0.2-4-0.7-5.6-1.3c-1.6-0.7-3-1.6-4.2-2.9
		c-1.2-1.2-2.2-2.9-3.1-4.9L247.5,31.8z M252.6,16.1h24.9v3.4h-21.1v16.7h-3.8V16.1z M256,1.9h19.4v15.5h-3.9V5.2h-11.7v12.2H256
		V1.9z M259.7,22h3.2v11.6h-3.2V22z M261.7,22h10v10h-10v-2.9h6.8v-4.1h-6.8V22z M263.5,8.6h9.8v2.9h-6.5v6.5h-3.3V8.6z M275.1,16.1
		h4v16.1c0,0.9-0.1,1.7-0.3,2.2c-0.2,0.5-0.6,0.9-1.3,1.2c-0.6,0.3-1.4,0.5-2.3,0.6c-0.9,0.1-2.1,0.1-3.4,0.1
		c-0.1-0.5-0.2-1.1-0.4-1.8c-0.2-0.7-0.4-1.2-0.7-1.7c0.9,0,1.6,0.1,2.4,0.1c0.7,0,1.2,0,1.4,0c0.4,0,0.6-0.2,0.6-0.6V16.1z"/>
	<path class="st0" d="M303.2,21.1h4.7c-0.2,2.6-0.6,5-1,7.3s-1.2,4.3-2.2,6.2c-1,1.9-2.5,3.5-4.4,5c-1.9,1.5-4.3,2.7-7.3,3.7
		c-0.2-0.4-0.4-0.8-0.7-1.3c-0.3-0.5-0.6-0.9-1-1.4c-0.4-0.4-0.7-0.8-1-1.1c2.8-0.8,5-1.8,6.6-3c1.7-1.2,2.9-2.6,3.8-4.1
		c0.9-1.6,1.5-3.3,1.8-5.1C302.8,25.3,303,23.3,303.2,21.1z M291.2,17.7h41.4v4.1h-41.4V17.7z M294.9,4l3.9-1.5
		c0.8,1.2,1.5,2.4,2.2,3.8c0.7,1.4,1.4,2.7,2,4c0.6,1.3,1,2.5,1.2,3.5l-4.2,1.7c-0.2-1-0.6-2.2-1.2-3.5c-0.5-1.3-1.2-2.7-1.8-4.1
		C296.3,6.5,295.6,5.2,294.9,4z M309.5,0.4h4.4v19h-4.4V0.4z M315.5,20.9h4.4v16.2c0,0.8,0.1,1.3,0.3,1.5c0.2,0.2,0.8,0.4,1.6,0.4
		c0.2,0,0.6,0,1,0s1,0,1.5,0c0.6,0,1.1,0,1.6,0c0.5,0,0.9,0,1.1,0c0.6,0,1-0.2,1.3-0.6c0.3-0.4,0.5-1.1,0.6-2.2
		c0.1-1.1,0.2-2.7,0.3-4.8c0.3,0.2,0.7,0.5,1.2,0.7c0.5,0.2,1,0.4,1.5,0.6c0.5,0.2,1,0.3,1.4,0.5c-0.2,2.6-0.4,4.6-0.8,6
		c-0.4,1.4-1,2.4-1.8,3c-0.8,0.6-1.9,0.9-3.2,0.9c-0.2,0-0.7,0-1.2,0c-0.6,0-1.2,0-1.9,0c-0.7,0-1.3,0-1.9,0c-0.6,0-1,0-1.2,0
		c-1.5,0-2.7-0.2-3.5-0.6c-0.8-0.4-1.4-1-1.8-1.8c-0.3-0.9-0.5-2-0.5-3.5V20.9z M325,2.1l4.6,1.6c-0.6,1.4-1.3,2.7-2.1,4.2
		c-0.8,1.4-1.5,2.8-2.2,4.1c-0.7,1.3-1.4,2.4-2.1,3.4l-3.8-1.4c0.6-1,1.3-2.3,2-3.6c0.7-1.4,1.4-2.8,2-4.2
		C324,4.6,324.5,3.3,325,2.1z"/>
	<path class="st0" d="M347.7,32.7l3.6,1.1c-0.6,1.4-1.4,2.8-2.3,4.2c-0.9,1.4-1.8,2.6-2.7,3.6c-0.2-0.2-0.5-0.5-0.9-0.8
		c-0.4-0.3-0.7-0.6-1.1-0.9c-0.4-0.3-0.7-0.5-1-0.7c0.9-0.9,1.7-1.9,2.4-3C346.5,35.1,347.1,33.9,347.7,32.7z M343.4,17.5h25.2v3.4
		h-25.2V17.5z M345.5,2H367v12.9h-21.4V2z M346.1,22.9h20.3V32h-20.3V22.9z M353.9,30.5h4.2V39c0,1-0.1,1.7-0.3,2.2
		c-0.2,0.5-0.6,0.9-1.3,1.2c-0.6,0.3-1.4,0.4-2.4,0.5c-0.9,0.1-2,0.1-3.3,0.1c-0.1-0.6-0.3-1.2-0.5-1.8c-0.2-0.6-0.5-1.2-0.8-1.8
		c0.8,0,1.6,0,2.3,0s1.2,0,1.4,0c0.3,0,0.5,0,0.5-0.1c0.1-0.1,0.1-0.2,0.1-0.4V30.5z M349.7,4.8v2.4h13V4.8H349.7z M349.7,9.8v2.4
		h13V9.8H349.7z M350.1,25.9v3.2h12v-3.2H350.1z M353.1,15.7l4.1-0.9c0.4,0.6,0.7,1.2,1.1,1.9c0.4,0.7,0.6,1.3,0.8,1.9l-4.3,1
		c-0.1-0.5-0.3-1.1-0.6-1.9C353.8,17,353.4,16.3,353.1,15.7z M359.8,34l3.1-1.4c0.8,1.1,1.6,2.3,2.4,3.6c0.8,1.3,1.4,2.4,1.8,3.4
		l-3.3,1.6c-0.4-1-1-2.1-1.7-3.5C361.4,36.4,360.6,35.1,359.8,34z M381.3,26.9l4.1,1.5c-1.2,2-2.6,3.9-4.2,5.7
		c-1.6,1.8-3.4,3.4-5.3,4.9c-1.9,1.5-3.9,2.7-6,3.8c-0.3-0.5-0.8-1.1-1.4-1.8c-0.6-0.6-1.1-1.2-1.6-1.6c1.9-0.9,3.8-2,5.7-3.3
		c1.8-1.3,3.5-2.7,5.1-4.3C379.1,30.3,380.4,28.6,381.3,26.9z M379.1,1.3l4.1,1.7c-1,1.4-2.2,2.8-3.6,4.1c-1.3,1.4-2.7,2.6-4.2,3.8
		c-1.5,1.2-2.9,2.2-4.4,3.1c-0.4-0.5-0.8-1-1.4-1.6c-0.6-0.6-1.2-1.1-1.7-1.5c1.4-0.7,2.7-1.6,4.1-2.7c1.4-1,2.7-2.2,4-3.4
		C377.3,3.7,378.3,2.5,379.1,1.3z M380.5,13.8l4,1.7c-1.1,1.5-2.4,3-3.9,4.4c-1.5,1.4-3,2.8-4.7,4c-1.6,1.2-3.3,2.3-4.9,3.2
		c-0.3-0.5-0.7-1-1.3-1.6c-0.6-0.6-1.1-1.1-1.7-1.5c1.5-0.8,3-1.7,4.6-2.8c1.6-1.1,3-2.3,4.4-3.6C378.4,16.4,379.6,15.1,380.5,13.8z
		"/>
	<path class="st0" d="M397.6,33.6l3.2,1.3c-0.4,1.3-0.8,2.8-1.4,4.3c-0.5,1.5-1.2,2.8-1.9,3.9l-3.3-1.6c0.5-0.7,0.9-1.5,1.3-2.4
		c0.4-0.9,0.8-1.8,1.1-2.8C397.1,35.4,397.4,34.5,397.6,33.6z M395.8,32.8c-0.1-0.3-0.2-0.8-0.4-1.5c-0.2-0.7-0.4-1.2-0.6-1.6
		c0.4-0.1,0.8-0.3,1.2-0.6c0.4-0.3,0.8-0.7,1.2-1.2c0.3-0.3,0.8-0.9,1.5-1.8c0.7-0.9,1.4-1.9,2.2-3.1c0.8-1.2,1.5-2.4,2.1-3.6
		l3.2,1.2c-1.2,2-2.6,4-4,5.8c-1.5,1.8-2.9,3.4-4.3,4.7v0.1c-0.7,0.4-1.2,0.7-1.6,0.9C396,32.3,395.8,32.5,395.8,32.8z M396,25.6
		c-0.1-0.4-0.2-0.9-0.4-1.5c-0.2-0.6-0.4-1.1-0.6-1.5c0.2-0.1,0.5-0.2,0.7-0.4c0.2-0.2,0.4-0.5,0.6-0.8c0.1-0.2,0.3-0.6,0.6-1.1
		c0.3-0.5,0.6-1.2,1-1.9c0.3-0.7,0.6-1.5,0.8-2.3l3.3,0.9c-0.5,1.3-1.2,2.6-1.9,3.8c-0.8,1.2-1.5,2.3-2.1,3.1v0
		c-0.6,0.4-1.1,0.7-1.4,1C396.1,25.1,396,25.3,396,25.6z M395.8,32.8l0-2.4l1.6-0.9l7.6-0.6c0.1,0.4,0.2,0.9,0.3,1.4
		c0.1,0.5,0.2,0.9,0.3,1.3c-2.5,0.3-4.4,0.5-5.7,0.6c-1.3,0.1-2.2,0.3-2.7,0.4C396.5,32.5,396.1,32.6,395.8,32.8z M396,25.6l0-2.4
		l1.6-0.9l6.1-0.4c-0.2,0.4-0.3,0.9-0.5,1.4c-0.2,0.6-0.3,1-0.4,1.3c-1.7,0.1-3,0.2-3.9,0.3c-0.9,0.1-1.5,0.2-2,0.3
		C396.5,25.3,396.2,25.5,396,25.6z M396.8,2.4h19.9v13.8h-19.9V2.4z M400.5,5.2v2.8h12.4V5.2H400.5z M400.5,10.6v2.8h12.4v-2.8
		H400.5z M402.1,34.7l3.1-0.4c0.3,1.2,0.5,2.5,0.7,3.9c0.2,1.4,0.3,2.7,0.3,3.7l-3.3,0.6c0-1-0.1-2.3-0.2-3.8
		C402.5,37.3,402.3,35.9,402.1,34.7z M402.4,26.6l2.4-0.7c0.4,1,0.8,2.1,1.2,3.3c0.4,1.2,0.6,2.2,0.8,3.1l-2.5,0.8
		c-0.1-0.9-0.3-2-0.7-3.2C403.1,28.8,402.8,27.7,402.4,26.6z M407.4,25.4c-0.1-0.4-0.3-0.9-0.5-1.5c-0.2-0.6-0.4-1.2-0.6-1.6
		c0.2-0.1,0.5-0.2,0.7-0.4c0.2-0.2,0.5-0.4,0.7-0.7c0.2-0.2,0.4-0.5,0.7-1.1c0.3-0.5,0.7-1.1,1.1-1.9c0.4-0.7,0.7-1.5,0.9-2.3l3.3,1
		c-0.6,1.3-1.3,2.5-2.1,3.7c-0.8,1.2-1.6,2.2-2.3,2.9v0.1c-0.6,0.4-1.1,0.7-1.5,1C407.6,24.9,407.4,25.2,407.4,25.4z M407.4,32.5
		c-0.1-0.3-0.2-0.8-0.4-1.5c-0.2-0.7-0.4-1.2-0.6-1.6c0.4-0.1,0.7-0.3,1.1-0.6c0.4-0.3,0.8-0.7,1.3-1.2c0.3-0.3,0.9-0.9,1.6-1.8
		c0.7-0.8,1.5-1.9,2.3-3c0.8-1.2,1.5-2.4,2.2-3.6l3.3,1.2c-1.3,2-2.7,3.9-4.2,5.7c-1.5,1.8-3,3.4-4.4,4.7v0.1
		c-0.4,0.2-0.8,0.4-1.1,0.6c-0.3,0.2-0.5,0.4-0.8,0.6C407.5,32.2,407.4,32.4,407.4,32.5z M407,34.4l2.9-0.7c0.4,1.1,0.8,2.3,1.2,3.5
		c0.4,1.3,0.7,2.4,0.8,3.3l-3.1,0.9c-0.1-0.9-0.4-2-0.7-3.4C407.7,36.7,407.4,35.5,407,34.4z M407.4,32.6l0-2.5l1.6-1l8.2-0.6
		c0,0.4,0.1,0.9,0.2,1.4c0.1,0.5,0.2,1,0.3,1.4c-2.1,0.2-3.7,0.3-5,0.5c-1.3,0.1-2.2,0.3-2.9,0.4c-0.7,0.1-1.2,0.2-1.6,0.3
		C407.9,32.4,407.6,32.5,407.4,32.6z M407.4,25.4l0-2.4l1.5-1l6.1-0.4c-0.1,0.4-0.3,0.9-0.4,1.5c-0.1,0.6-0.2,1-0.3,1.3
		c-1.7,0.2-3,0.3-4,0.4c-0.9,0.1-1.6,0.2-2,0.3C408,25.2,407.6,25.3,407.4,25.4z M412,33.5l2.8-1.1c0.6,1,1.2,2,1.8,3.1
		c0.6,1.1,1,2.1,1.3,2.9l-3,1.3c-0.2-0.9-0.6-1.9-1.2-3C413.1,35.5,412.6,34.5,412,33.5z M414.3,26.6l2.5-1c0.6,1,1.1,2.2,1.6,3.4
		c0.5,1.2,0.9,2.3,1.2,3.2l-2.7,1.2c-0.2-1-0.6-2.1-1-3.3C415.4,28.8,414.9,27.6,414.3,26.6z M423.5,35l3.4,2.1
		c-1,1.2-2.3,2.3-3.8,3.5c-1.5,1.1-2.9,2.1-4.3,2.8c-0.3-0.4-0.7-0.9-1.3-1.4c-0.5-0.5-1-0.9-1.5-1.3c0.9-0.4,1.9-1,2.8-1.6
		c0.9-0.6,1.8-1.3,2.6-2C422.3,36.3,423,35.6,423.5,35z M418.5,2.4h18.3v3.7h-18.3V2.4z M419.7,9.9h16.2v24.3h-16.2V9.9z
		 M423.2,13.2v3.7h9.2v-3.7H423.2z M423.2,20.1v3.8h9.2v-3.8H423.2z M423.2,27v3.8h9.2V27H423.2z M425.5,4.3l4.4,0.6
		c-0.3,1.3-0.6,2.6-1,4c-0.3,1.3-0.6,2.5-0.9,3.5l-3.4-0.6c0.2-1,0.4-2.3,0.6-3.7C425.3,6.6,425.4,5.4,425.5,4.3z M429.1,37.1l3-2
		c0.7,0.6,1.4,1.2,2.1,1.9c0.7,0.7,1.4,1.4,2.1,2.1c0.7,0.7,1.2,1.4,1.7,1.9l-3.2,2.2c-0.4-0.6-0.9-1.2-1.6-2
		c-0.6-0.7-1.3-1.5-2.1-2.2C430.4,38.4,429.7,37.7,429.1,37.1z"/>
	<path class="st0" d="M447.5,39.5c1.6-0.2,3.5-0.3,5.6-0.5c2.1-0.2,4.3-0.4,6.6-0.6c2.3-0.2,4.7-0.4,7-0.6l0,3.2
		c-3.4,0.4-6.7,0.7-10.1,1c-3.3,0.3-6.3,0.6-8.8,0.9L447.5,39.5z M448.3,7.1h39.9v9h-4.4V9.8h-31.2v6.3h-4.2V7.1z M449.8,30.3h3.3
		v9.9l-3.3,0.3V30.3z M450.3,19.9h15v9.1h-15V19.9z M450.3,2.1h35.8v2.8h-35.8V2.1z M453,16c1.4-0.2,3.1-0.4,5-0.6
		c1.9-0.3,3.9-0.6,6-0.9l0.1,2.4c-1.8,0.4-3.5,0.7-5.2,1.1c-1.7,0.4-3.3,0.7-4.8,1L453,16z M453.8,22.7v3.4h7.8v-3.4H453.8z
		 M454.4,12.1l1.2-2c0.9,0.2,1.8,0.4,2.8,0.6c1,0.2,2,0.5,2.9,0.8c0.9,0.3,1.7,0.6,2.4,0.9l-1.2,2.3c-0.6-0.3-1.4-0.6-2.3-0.9
		c-0.9-0.3-1.9-0.6-2.9-0.9C456.3,12.6,455.4,12.3,454.4,12.1z M456.1,27.7h3.7v12.6l-3.7,0.2V27.7z M458,31.6h7.5v3H458V31.6z
		 M482.9,20.4h0.7l0.6-0.2l2.3,1.2c-1.2,2.3-2.8,4.3-4.9,6c-2.1,1.7-4.4,3.1-6.9,4.3c-2.5,1.2-5.1,2.1-7.7,2.8
		c-0.2-0.4-0.5-0.9-0.9-1.5c-0.4-0.6-0.7-1-1.1-1.4c1.8-0.4,3.6-0.9,5.4-1.6c1.8-0.7,3.5-1.5,5.1-2.4c1.6-0.9,3.1-1.9,4.3-3.1
		c1.3-1.2,2.3-2.4,3-3.7V20.4z M473.6,18.2l3.4,0.6c-1,1.7-2.3,3.2-3.8,4.8c-1.5,1.5-3.3,2.9-5.5,4.2c-0.3-0.4-0.7-0.8-1.1-1.2
		c-0.5-0.4-0.9-0.8-1.3-1c2-1,3.7-2.2,5.1-3.5C471.8,20.7,472.8,19.5,473.6,18.2z M465.9,3.4h4.2v15.8h-4.2V3.4z M469.7,33h15.5
		v10.1h-3.8v-7.5h-8v7.6h-3.7V33z M472.7,22.4c1.1,1.4,2.5,2.7,4.2,3.9c1.8,1.2,3.8,2.1,6,2.9c2.3,0.8,4.6,1.4,7.2,1.8
		c-0.4,0.3-0.8,0.8-1.2,1.4c-0.4,0.6-0.8,1.2-1,1.7c-2.6-0.5-5-1.3-7.3-2.3c-2.3-1-4.4-2.2-6.2-3.6c-1.8-1.4-3.3-3-4.5-4.9
		L472.7,22.4z M471.1,39.4h12.8v2.8h-12.8V39.4z M471.7,16.5l0.8-2.3c1.2,0.1,2.5,0.3,3.8,0.6c1.3,0.3,2.6,0.5,3.8,0.8
		c1.2,0.3,2.3,0.6,3.1,0.9l-0.8,2.5c-0.8-0.3-1.9-0.6-3.1-0.9c-1.2-0.3-2.5-0.6-3.8-0.9C474.2,16.8,473,16.6,471.7,16.5z
		 M473.7,20.4H484v2.7h-12.2L473.7,20.4z M480.7,10l1.6,2.1c-0.8,0.3-1.8,0.7-2.8,1c-1,0.3-2.1,0.6-3.1,0.8c-1,0.2-2,0.5-2.8,0.6
		l-1.2-1.8c0.8-0.2,1.8-0.5,2.8-0.8c1-0.3,2-0.6,3-1C479.2,10.6,480,10.2,480.7,10z"/>
	<path class="st0" d="M500.4,30.4l3.4,0.6c-0.2,2-0.5,4-0.9,6c-0.4,2-0.8,3.8-1.3,5.2c-0.4-0.2-0.9-0.4-1.6-0.7
		c-0.7-0.2-1.2-0.4-1.7-0.5c0.6-1.4,1-3,1.3-4.9C500,34.2,500.3,32.3,500.4,30.4z M499.8,18.1c-0.1-0.2-0.2-0.6-0.3-1
		c-0.1-0.4-0.3-0.9-0.5-1.4c-0.2-0.5-0.3-0.9-0.5-1.2c0.4-0.1,0.8-0.4,1.2-0.8c0.4-0.4,0.9-1,1.3-1.7c0.3-0.4,0.9-1.2,1.5-2.4
		c0.7-1.2,1.4-2.6,2.2-4.2c0.8-1.6,1.5-3.2,2-4.9l3.7,1.5c-1.1,2.6-2.4,5.1-3.9,7.6c-1.5,2.5-2.9,4.7-4.4,6.5v0.1
		c-0.5,0.2-0.9,0.5-1.2,0.7c-0.3,0.2-0.6,0.4-0.9,0.7C499.9,17.7,499.8,17.9,499.8,18.1z M500.2,28.7c-0.1-0.3-0.2-0.6-0.3-1.1
		c-0.2-0.4-0.3-0.9-0.5-1.4c-0.2-0.5-0.3-0.9-0.4-1.2c0.5-0.1,1.1-0.5,1.6-1c0.5-0.6,1.2-1.3,1.9-2.1c0.4-0.4,0.9-1.1,1.7-2.1
		c0.7-1,1.5-2.2,2.4-3.5c0.9-1.4,1.8-2.8,2.7-4.4c0.9-1.6,1.7-3.2,2.5-4.7l3.4,2c-1.1,2.1-2.3,4.2-3.7,6.3c-1.4,2.1-2.8,4.1-4.2,6
		c-1.5,1.9-2.9,3.6-4.4,5.2v0.1c-0.5,0.2-0.9,0.5-1.2,0.7c-0.3,0.2-0.6,0.4-0.9,0.6C500.3,28.2,500.2,28.5,500.2,28.7z M499.8,18
		l-0.1-2.9l1.8-1.2l8.1-0.6c-0.1,0.5-0.2,1.1-0.2,1.7c-0.1,0.6-0.1,1.1-0.1,1.5c-1.8,0.2-3.3,0.4-4.4,0.5c-1.2,0.1-2.1,0.3-2.7,0.3
		s-1.1,0.2-1.5,0.3C500.3,17.8,500,17.9,499.8,18z M500.2,28.7l-0.1-2.9l1.8-1.2l12.4-1.7c-0.1,0.5-0.1,1-0.1,1.7c0,0.6,0,1.1,0,1.5
		c-2.8,0.4-5.1,0.8-6.8,1.1c-1.7,0.3-3,0.5-4,0.7c-0.9,0.2-1.6,0.3-2.1,0.5C500.8,28.4,500.4,28.5,500.2,28.7z M505.5,30.8l3.1-0.7
		c0.3,1.6,0.6,3.2,0.8,5s0.4,3.4,0.5,4.7l-3.3,0.8c0-1.4-0.2-2.9-0.4-4.8C506,34.1,505.8,32.4,505.5,30.8z M510,18.9l3-1.1
		c0.5,0.9,1,1.9,1.4,3c0.4,1.1,0.8,2.1,1.1,3.1c0.3,1,0.6,1.9,0.7,2.7l-3.2,1.2c-0.2-0.8-0.4-1.7-0.7-2.7c-0.3-1-0.6-2.1-1-3.2
		C510.9,20.9,510.5,19.8,510,18.9z M510.6,29.9l2.9-1c0.6,1.4,1.1,2.9,1.6,4.6c0.5,1.6,0.9,3.1,1.2,4.2l-3.1,1.1
		c-0.2-1.2-0.6-2.7-1.1-4.4C511.6,32.8,511.1,31.2,510.6,29.9z M517.9,2.7h22.5V42h-4.1V7.1h-14.4v35.3h-4V2.7z M520.1,19.5h18.1
		v4.1h-18.1V19.5z M520.2,35.5h17.8v4.1h-17.8V35.5z M526.9,5.9h4v31.6h-4V5.9z"/>
	<path class="st0" d="M558,0.1l4.3,1.3c-0.6,1.6-1.4,3.2-2.3,4.7c-0.9,1.6-1.9,3-2.9,4.4c-1,1.4-2.1,2.6-3.2,3.6
		c-0.2-0.3-0.4-0.7-0.8-1.2c-0.3-0.5-0.7-1-1.1-1.4c-0.4-0.5-0.7-0.9-1-1.1c1.4-1.3,2.8-2.8,4.1-4.7C556.2,4,557.2,2.1,558,0.1z
		 M554.3,42.1c-0.1-0.3-0.3-0.7-0.5-1.1c-0.2-0.4-0.5-0.9-0.7-1.3c-0.3-0.4-0.5-0.8-0.8-1c0.4-0.2,0.9-0.7,1.3-1.3
		c0.4-0.6,0.6-1.4,0.6-2.4V13.6h4v24.5c-0.8,0.6-1.5,1-2,1.5c-0.5,0.4-1,0.9-1.3,1.3C554.5,41.3,554.3,41.8,554.3,42.1z M554.3,42.1
		l-0.4-3.5l1.9-1.4l13.1-2.9c-0.1,0.6-0.1,1.3-0.2,2c0,0.8,0,1.4,0,1.8c-3,0.7-5.4,1.3-7.2,1.8c-1.8,0.5-3.2,0.8-4.2,1.1
		c-1,0.3-1.7,0.5-2.1,0.6C554.9,41.8,554.5,42,554.3,42.1z M555.9,13.6h15.8v15.9H556v-3.3h11.6V17h-11.7V13.6z M556.6,20.1H569v3.2
		h-12.4V20.1z M557.5,3.5h14.6v3.7h-14.6V3.5z M560.4,9.4l3-2.4c0.7,0.6,1.4,1.3,2.2,2.1c0.8,0.8,1.4,1.5,1.8,2.1l-3.2,2.7
		c-0.4-0.6-0.9-1.4-1.7-2.2C561.8,10.8,561.1,10,560.4,9.4z M563.4,31.8l3.5-1.6c0.8,1,1.6,2.1,2.5,3.3c0.8,1.2,1.6,2.4,2.4,3.5
		c0.7,1.1,1.3,2.1,1.8,3l-3.6,1.9c-0.4-0.9-1-1.9-1.8-3.1s-1.5-2.4-2.3-3.7C564.9,33.9,564.1,32.8,563.4,31.8z M576.4,0.1l4.4,1.1
		c-0.5,1.7-1.1,3.4-1.8,5c-0.7,1.6-1.5,3.2-2.4,4.6c-0.9,1.4-1.8,2.7-2.8,3.8c-0.2-0.3-0.5-0.6-0.9-1c-0.4-0.4-0.8-0.8-1.3-1.2
		c-0.4-0.4-0.8-0.7-1.2-1c1.3-1.4,2.5-3.1,3.5-5.1C575,4.4,575.8,2.3,576.4,0.1z M574.7,13.6h14.7v4h-10.6v25.5h-4.1V13.6z M576,3.5
		h17.4v3.7H576V3.5z M580.5,9.1l2.9-2.4c0.7,0.6,1.5,1.3,2.3,2.1c0.8,0.8,1.4,1.5,1.8,2.1l-3.1,2.6c-0.4-0.6-0.9-1.4-1.7-2.2
		C581.9,10.6,581.2,9.8,580.5,9.1z M587.5,13.6h4.1V33c0,1-0.1,1.9-0.4,2.5c-0.3,0.6-0.8,1.1-1.6,1.5c-0.7,0.3-1.7,0.5-2.9,0.6
		c-1.2,0.1-2.7,0.1-4.5,0.1c-0.1-0.6-0.3-1.3-0.5-2c-0.2-0.8-0.5-1.4-0.8-2c1.2,0,2.4,0,3.4,0s1.8,0,2.1,0c0.4,0,0.6-0.1,0.7-0.2
		c0.1-0.1,0.2-0.3,0.2-0.6V13.6z"/>
	<path class="st0" d="M141.6,64.5l3.8,1.2c-0.9,1.7-1.9,3.4-3.1,5.1c-1.2,1.7-2.4,3.2-3.8,4.7c-1.4,1.5-2.7,2.7-4.1,3.8
		c-0.2-0.3-0.4-0.6-0.7-1.1c-0.3-0.4-0.6-0.9-1-1.3c-0.3-0.4-0.7-0.8-1-1.1c1.9-1.4,3.8-3,5.5-5C139.1,68.9,140.5,66.7,141.6,64.5z
		 M132.8,91.8h41.1v4h-41.1V91.8z M137.9,97.2l4.2,1.1c-0.4,1-0.9,2.2-1.4,3.3c-0.6,1.2-1.1,2.3-1.7,3.4c-0.6,1.1-1.2,2-1.8,2.9
		l-4.2-1.7c0.6-0.8,1.1-1.7,1.7-2.7c0.6-1,1.2-2.1,1.7-3.2C137.1,99.2,137.5,98.2,137.9,97.2z M134.3,80.9h38.6v3.9h-38.6V80.9z
		 M140.8,70.1h31.8v3.9h-33L140.8,70.1z M139.6,76.2h3.9V94h-3.9V76.2z M145.8,98.7l4.1-0.4c0.3,1.4,0.6,2.8,0.8,4.4
		c0.2,1.6,0.3,2.9,0.4,4.1l-4.3,0.6c0-0.7,0-1.6-0.1-2.6c-0.1-1-0.2-2-0.3-3.1C146.1,100.6,146,99.6,145.8,98.7z M147.6,76.2h3.7
		v17.7h-3.7V76.2z M155.2,98.6l4.1-0.7c0.4,0.9,0.8,1.9,1.2,2.9c0.4,1,0.7,2,1,3c0.3,1,0.5,1.8,0.7,2.6l-4.3,0.9
		c-0.2-1.1-0.5-2.5-1-4.1C156.3,101.5,155.8,100,155.2,98.6z M155.8,76.2h3.7V94h-3.7V76.2z M163.9,76.2h4V94h-4V76.2z M164.7,98.4
		l4-1.6c0.6,0.9,1.2,1.9,1.9,3c0.6,1.1,1.3,2.2,1.8,3.2c0.6,1,1,2,1.4,2.8l-4.3,1.9c-0.3-0.8-0.7-1.8-1.3-2.8
		c-0.5-1.1-1.1-2.2-1.8-3.3C165.9,100.5,165.3,99.4,164.7,98.4z"/>
	<path class="st0" d="M184.1,72.7h14.5v3.5h-14.5V72.7z M185.5,91.3h3.6v15.8h-3.6V91.3z M185.7,78.9h11.6v3.4h-11.6V78.9z
		 M185.7,85.1h11.6v3.4h-11.6V85.1z M187.4,91.3h10.2V105h-10.2v-3.6h6.6v-6.6h-6.6V91.3z M187.9,66.4l3.4-1.7c0.6,1,1.3,2,2,3.1
		c0.7,1.1,1.2,2.1,1.5,3l-3.5,1.9c-0.3-0.8-0.8-1.9-1.4-3.1C189.2,68.5,188.6,67.4,187.9,66.4z M212,64.7l3.4,2.3
		c-1.1,2-2.5,4-4.2,6c-1.7,2-3.5,3.8-5.5,5.5c-2,1.7-3.9,3.1-5.9,4.2c-0.3-0.6-0.7-1.3-1.2-2.1c-0.5-0.8-1-1.4-1.4-1.9
		c1.9-0.9,3.8-2.1,5.7-3.5c1.9-1.5,3.7-3.1,5.3-4.9C209.7,68.3,211,66.5,212,64.7z M200.6,84.8h21.7v3.6h-18.1v19.4h-3.5V84.8z
		 M202.6,93.9h20.1v3.6h-20.1V93.9z M204.5,77.7H220v3.8h-15.6V77.7z M207.5,86.6h3v20h-3V86.6z M213.9,67.5
		c0.9,1.4,2.1,2.9,3.5,4.2c1.4,1.4,2.9,2.6,4.7,3.7c1.7,1.1,3.4,2,5.2,2.6c-0.3,0.3-0.7,0.7-1,1.2c-0.4,0.5-0.8,0.9-1.1,1.4
		c-0.4,0.5-0.7,0.9-0.9,1.3c-1.8-0.8-3.6-1.9-5.4-3.3c-1.7-1.4-3.3-2.9-4.8-4.6c-1.4-1.7-2.7-3.5-3.7-5.3L213.9,67.5z M213.9,86.6h3
		v20h-3V86.6z M220.4,84.8h3.6v18.6c0,0.9-0.1,1.6-0.2,2.1c-0.1,0.5-0.5,1-0.9,1.3c-0.5,0.3-1.1,0.5-1.8,0.6
		c-0.7,0.1-1.5,0.1-2.4,0.1c0-0.5-0.1-1.1-0.3-1.8s-0.4-1.3-0.6-1.8c0.5,0,0.9,0,1.4,0s0.7,0,0.9,0c0.3,0,0.4-0.2,0.4-0.5V84.8z"/>
	<path class="st0" d="M238.7,69.3h4.3v16.4c0,1.7,0,3.5-0.1,5.4c-0.1,2-0.3,3.9-0.5,5.9c-0.3,2-0.7,3.9-1.2,5.8
		c-0.5,1.9-1.2,3.5-2.1,5c-0.2-0.3-0.5-0.6-1-1c-0.4-0.4-0.9-0.7-1.4-1c-0.5-0.3-0.9-0.6-1.2-0.7c1-1.8,1.7-3.9,2.2-6.1
		c0.4-2.2,0.7-4.5,0.9-6.8c0.1-2.3,0.2-4.5,0.2-6.5V69.3z M254.5,65.9l2.8,3.7c-1.6,0.6-3.3,1.1-5.3,1.5c-2,0.4-4,0.8-6.1,1.1
		c-2.1,0.3-4.1,0.5-6,0.8c-0.1-0.5-0.2-1.1-0.5-1.8c-0.2-0.7-0.5-1.3-0.7-1.8c1.8-0.2,3.7-0.5,5.7-0.9c1.9-0.3,3.8-0.7,5.6-1.2
		C251.7,66.8,253.2,66.4,254.5,65.9z M241.1,76.5h14.1V91h-14.1v-3.9h9.9v-6.6h-9.9V76.5z M259,69.4h4.5v15c0,1.8-0.1,3.7-0.3,5.8
		c-0.2,2.1-0.5,4.2-1,6.3c-0.5,2.1-1.3,4.2-2.3,6.1c-1,2-2.3,3.7-3.9,5.2c-0.2-0.3-0.5-0.6-1-1c-0.4-0.4-0.9-0.8-1.3-1.1
		c-0.4-0.4-0.8-0.6-1.1-0.8c1.5-1.4,2.6-3,3.5-4.7c0.9-1.7,1.5-3.4,1.9-5.3c0.4-1.8,0.7-3.6,0.8-5.4c0.1-1.8,0.2-3.5,0.2-5.1V69.4z
		 M275.2,65.5l2.9,3.7c-1.6,0.6-3.4,1.2-5.4,1.7c-2,0.5-4.1,0.9-6.2,1.3c-2.1,0.4-4.2,0.7-6.1,0.9c-0.1-0.5-0.2-1.1-0.5-1.9
		c-0.3-0.7-0.5-1.3-0.8-1.8c1.9-0.3,3.9-0.7,5.9-1c2-0.4,3.9-0.8,5.7-1.3C272.4,66.6,273.9,66,275.2,65.5z M260.9,80.5h18v4.2h-18
		V80.5z M269.6,83.4h4.3v24.1h-4.3V83.4z"/>
	<path class="st0" d="M301,91.7h4.7c-0.2,2.1-0.6,3.9-1.1,5.6c-0.5,1.7-1.3,3.2-2.4,4.5c-1.1,1.3-2.5,2.5-4.4,3.5
		c-1.9,1-4.2,1.8-7.2,2.5c-0.1-0.4-0.3-0.8-0.6-1.3c-0.3-0.5-0.6-1-0.9-1.4c-0.3-0.5-0.7-0.9-1-1.1c2.6-0.5,4.7-1.2,6.3-1.9
		c1.6-0.7,2.9-1.6,3.8-2.6c0.9-1,1.5-2.1,1.9-3.4C300.5,94.8,300.8,93.3,301,91.7z M294.8,66.5h29.7v26.7h-29.7V66.5z M299.1,70.3
		v3.9h21v-3.9H299.1z M299.1,77.8v3.9h21v-3.9H299.1z M299.1,85.4v4h21v-4H299.1z M312.2,90.3h4.5v11.3c0,0.7,0.1,1.2,0.4,1.4
		c0.3,0.2,0.9,0.3,1.8,0.3c0.2,0,0.5,0,1.1,0c0.5,0,1.1,0,1.8,0s1.3,0,1.8,0c0.6,0,1,0,1.3,0c0.6,0,1.1-0.1,1.4-0.4
		c0.3-0.3,0.5-0.9,0.6-1.8c0.1-0.9,0.2-2.3,0.3-4.1c0.3,0.2,0.7,0.5,1.2,0.7c0.5,0.2,1,0.4,1.5,0.6c0.5,0.2,1,0.3,1.4,0.4
		c-0.2,2.3-0.4,4.1-0.8,5.4c-0.4,1.3-1,2.1-1.8,2.6c-0.8,0.5-1.9,0.7-3.3,0.7c-0.2,0-0.6,0-1,0c-0.5,0-1,0-1.6,0c-0.6,0-1.2,0-1.8,0
		c-0.6,0-1.1,0-1.5,0c-0.4,0-0.8,0-1,0c-1.6,0-2.9-0.2-3.8-0.5c-0.9-0.3-1.5-0.9-1.9-1.8c-0.3-0.8-0.5-2-0.5-3.4V90.3z"/>
	<path class="st0" d="M340.6,92.9h42.1V97h-42.1V92.9z M354,97.2l3.6,2.7c-1.3,1-2.7,1.9-4.4,2.8c-1.6,0.9-3.3,1.8-4.9,2.7
		c-1.7,0.8-3.3,1.6-4.8,2.2c-0.3-0.5-0.7-1-1.2-1.7c-0.5-0.6-0.9-1.2-1.4-1.7c1.5-0.6,3-1.2,4.7-2.1c1.6-0.8,3.2-1.7,4.7-2.6
		C351.8,98.8,353,98,354,97.2z M353,65.2l2,3.5c-1.5,0.6-3.1,1.1-4.8,1.6s-3.3,1-4.8,1.4c-0.1-0.4-0.2-0.9-0.4-1.5
		c-0.2-0.6-0.4-1.1-0.6-1.5c1.5-0.5,3-1.1,4.6-1.7C350.4,66.4,351.8,65.8,353,65.2z M344.2,68.7l4,1.1l0.8,24.4h-3.9L344.2,68.7z
		 M346.4,75.8h7.8v3.6h-7.8V75.8z M346.7,84.3h7.7V88h-7.7V84.3z M357.5,82l3.4,0.6c-0.2,1.5-0.5,3-1,4.5c-0.4,1.5-1,2.8-1.7,3.8
		c-0.3-0.2-0.8-0.6-1.4-0.9s-1.1-0.6-1.5-0.8c0.7-1,1.2-2.1,1.5-3.3C357.1,84.6,357.4,83.4,357.5,82z M356.4,65.3h3.7V77h5.7v3.5
		h-9.4V65.3z M358.5,69.1h9.1v3.6h-9.1V69.1z M363.6,77h3.7v12c0,0.8-0.1,1.4-0.3,1.8c-0.2,0.4-0.6,0.8-1.2,1
		c-0.6,0.2-1.3,0.3-2.1,0.4c-0.8,0-1.8,0.1-3,0.1c-0.1-0.4-0.2-0.9-0.4-1.4c-0.2-0.5-0.4-1-0.6-1.4c0.7,0,1.4,0.1,2,0.1
		c0.6,0,1,0,1.2,0c0.2,0,0.4,0,0.4-0.1c0.1-0.1,0.1-0.2,0.1-0.4V77z M365.8,100l2.4-3c1.6,0.7,3.3,1.5,4.9,2.4
		c1.7,0.9,3.2,1.7,4.7,2.5c1.5,0.8,2.7,1.6,3.8,2.3l-2.9,3.3c-1-0.7-2.2-1.5-3.6-2.4c-1.4-0.9-2.9-1.7-4.5-2.6
		C369,101.6,367.4,100.8,365.8,100z M369,67.2h8.6v3.8H369V67.2z M369.2,84.5h7.8v3.6h-7.8V84.5z M369.5,76h7.9v3.6h-7.9V76z
		 M375.2,67.2h4c0,2.2-0.1,4.6-0.1,7c0,2.5-0.1,4.9-0.1,7.4c-0.1,2.5-0.1,4.8-0.2,7c-0.1,2.2-0.2,4.2-0.3,5.9h-4.1
		c0.1-1.7,0.2-3.7,0.4-5.9c0.1-2.2,0.2-4.6,0.3-7.1c0.1-2.5,0.1-4.9,0.2-7.4C375.2,71.6,375.2,69.3,375.2,67.2z"/>
	<path class="st0" d="M409.4,68.7l4.5,0.9c-1,3.7-2.4,7.4-4,10.9c-1.7,3.5-3.7,6.8-6.2,9.7c-2.5,2.9-5.4,5.5-8.9,7.5
		c-0.2-0.3-0.4-0.7-0.8-1.2c-0.3-0.4-0.7-0.9-1-1.3c-0.4-0.4-0.7-0.8-0.9-1c3.3-1.8,6-4.1,8.3-6.8c2.3-2.7,4.2-5.7,5.6-8.9
		C407.5,75.3,408.6,72,409.4,68.7z M393.3,79.2h40.8v3.5h-40.8V79.2z M428.6,65.2l2.7,3.1c-2.2,0.4-4.8,0.7-7.5,1
		c-2.8,0.3-5.7,0.5-8.7,0.7c-3,0.2-6.1,0.3-9.2,0.4c-3.1,0.1-6.1,0.1-8.9,0.1c0-0.5-0.1-1.1-0.3-1.7c-0.2-0.6-0.3-1.2-0.5-1.6
		c2.8,0,5.7-0.1,8.7-0.2c3-0.1,6-0.2,8.9-0.4c2.9-0.2,5.7-0.4,8.2-0.6C424.5,65.9,426.7,65.6,428.6,65.2z M396.6,73.1h35v3.4h-35
		V73.1z M402.5,85.4h27.1v22.4h-4.3V88.8h-18.6v19.1h-4.2V85.4z M404.9,102.7h22.2v3.4h-22.2V102.7z M405.4,91.4h21.8v2.9h-21.8
		V91.4z M405.4,97h21.8v2.9h-21.8V97z"/>
	<path class="st0" d="M467,69.7l4.8,1.8c-1.7,3.2-3.8,6.3-6.2,9.3c-2.4,3-5.2,5.8-8.2,8.4c-3,2.6-6.3,4.8-9.8,6.6
		c-0.2-0.4-0.5-0.8-0.9-1.3c-0.4-0.5-0.7-1-1.1-1.4c-0.4-0.5-0.7-0.9-1-1.2c2.5-1.2,4.9-2.7,7.1-4.3c2.2-1.7,4.3-3.5,6.3-5.4
		c2-2,3.7-4,5.2-6.1S466,71.8,467,69.7z M445.9,68.1h39.9v4.4h-39.9V68.1z M463.4,79.7l4.7-4.7v0v32.5h-4.7V79.7z M468.3,82.4
		l3.3-2.8c1.3,0.9,2.7,1.9,4.2,2.9c1.5,1,2.9,2.1,4.4,3.2c1.4,1.1,2.8,2.2,4,3.3c1.2,1.1,2.3,2.1,3.1,2.9l-3.6,3.4
		c-0.8-0.9-1.8-1.9-2.9-3c-1.2-1.1-2.5-2.2-3.9-3.4c-1.4-1.2-2.8-2.3-4.3-3.4C471.1,84.4,469.7,83.4,468.3,82.4z"/>
	<path class="st0" d="M509.3,91.7h4.7c-0.2,2.1-0.6,3.9-1.1,5.6c-0.5,1.7-1.3,3.2-2.4,4.5c-1.1,1.3-2.5,2.5-4.4,3.5
		c-1.9,1-4.2,1.8-7.2,2.5c-0.1-0.4-0.3-0.8-0.6-1.3c-0.3-0.5-0.6-1-0.9-1.4c-0.3-0.5-0.7-0.9-1-1.1c2.6-0.5,4.7-1.2,6.3-1.9
		c1.6-0.7,2.9-1.6,3.8-2.6c0.9-1,1.5-2.1,1.9-3.4C508.9,94.8,509.2,93.3,509.3,91.7z M503.2,66.5h29.7v26.7h-29.7V66.5z M507.4,70.3
		v3.9h21v-3.9H507.4z M507.4,77.8v3.9h21v-3.9H507.4z M507.4,85.4v4h21v-4H507.4z M520.5,90.3h4.5v11.3c0,0.7,0.1,1.2,0.4,1.4
		c0.3,0.2,0.9,0.3,1.8,0.3c0.2,0,0.5,0,1.1,0c0.5,0,1.1,0,1.8,0s1.3,0,1.8,0c0.6,0,1,0,1.3,0c0.6,0,1.1-0.1,1.4-0.4
		c0.3-0.3,0.5-0.9,0.6-1.8c0.1-0.9,0.2-2.3,0.3-4.1c0.3,0.2,0.7,0.5,1.2,0.7c0.5,0.2,1,0.4,1.5,0.6c0.5,0.2,1,0.3,1.4,0.4
		c-0.2,2.3-0.4,4.1-0.8,5.4c-0.4,1.3-1,2.1-1.8,2.6c-0.8,0.5-1.9,0.7-3.3,0.7c-0.2,0-0.6,0-1,0c-0.5,0-1,0-1.6,0c-0.6,0-1.2,0-1.8,0
		c-0.6,0-1.1,0-1.5,0c-0.4,0-0.8,0-1,0c-1.6,0-2.9-0.2-3.8-0.5c-0.9-0.3-1.5-0.9-1.9-1.8c-0.3-0.8-0.5-2-0.5-3.4V90.3z"/>
	<path class="st0" d="M558,97.2c0.7,0,1.5,0.3,2.2,0.9c0.7,0.6,1.7,1.3,2.9,2.1c1.5,0.9,3.2,1.5,5.1,1.8c2,0.3,4.2,0.4,6.8,0.4
		c1.7,0,3.5,0,5.5-0.1c2-0.1,4-0.2,5.9-0.3c1.9-0.2,3.6-0.3,5.1-0.5c-0.2,0.4-0.3,0.9-0.5,1.5c-0.2,0.6-0.4,1.2-0.5,1.7
		c-0.1,0.6-0.2,1.1-0.3,1.5c-0.8,0.1-1.9,0.1-3.2,0.2c-1.3,0-2.6,0.1-4.1,0.1c-1.5,0-2.9,0.1-4.3,0.1c-1.4,0-2.7,0-3.8,0
		c-2.8,0-5.2-0.2-7.2-0.5c-2-0.3-3.7-1-5.3-2c-1-0.6-1.8-1.2-2.6-1.8c-0.7-0.6-1.3-0.9-1.9-0.9c-0.5,0-1,0.3-1.7,0.8
		c-0.6,0.6-1.3,1.3-1.9,2.2c-0.7,0.9-1.4,1.9-2.1,2.9l-3.2-4.1c1.6-1.8,3.1-3.2,4.7-4.3C555.4,97.8,556.8,97.2,558,97.2z
		 M551.4,73.8h32.8v4.2h-32.8V73.8z M582.5,73.8h1l0.9-0.2l3.3,2.2c-1.6,2.3-3.4,4.7-5.5,7.1c-2.1,2.4-4.4,4.7-6.8,7
		c-2.5,2.3-5,4.4-7.6,6.3c-2.6,2-5.2,3.6-7.7,5.1c-0.3-0.5-0.8-1-1.4-1.6c-0.6-0.6-1.1-1.1-1.6-1.5c2.4-1.4,4.9-3,7.4-4.8
		c2.5-1.9,4.9-3.9,7.2-6c2.3-2.1,4.4-4.3,6.3-6.5c1.9-2.2,3.4-4.2,4.6-6.1V73.8z M565.7,66.6l3.9-2.1c0.6,0.8,1.3,1.6,1.9,2.5
		c0.7,0.9,1.3,1.8,1.8,2.7c0.6,0.9,1,1.6,1.4,2.3l-4.1,2.4c-0.3-0.7-0.7-1.5-1.2-2.4c-0.6-0.9-1.1-1.8-1.8-2.8
		C566.8,68.3,566.2,67.4,565.7,66.6z"/>
	<path class="st0" d="M604.6,73.4h4.1v11.1c0,1.7-0.1,3.5-0.2,5.6c-0.1,2-0.4,4.1-0.7,6.2c-0.3,2.1-0.8,4.2-1.4,6.2
		c-0.6,2-1.5,3.8-2.5,5.4c-0.2-0.2-0.5-0.5-1-0.9c-0.4-0.4-0.9-0.7-1.3-1c-0.4-0.3-0.8-0.5-1.1-0.7c0.9-1.5,1.7-3.2,2.2-5
		c0.5-1.8,0.9-3.6,1.2-5.4c0.3-1.8,0.4-3.7,0.5-5.4c0.1-1.8,0.1-3.4,0.1-4.9V73.4z M620.1,89.3h0.7l0.6-0.1l2.2,0.6
		c-0.6,3.4-1.6,6.3-3,8.6c-1.4,2.4-3.1,4.3-5,5.9c-2,1.5-4.2,2.8-6.8,3.7c-0.2-0.5-0.5-1-0.8-1.6s-0.7-1.1-1.1-1.5
		c2.2-0.7,4.3-1.7,6-3c1.8-1.3,3.3-3,4.5-5c1.2-2,2.1-4.4,2.7-7.1V89.3z M607,73.4h32.7v3.4H607V73.4z M614.1,85.7l3.4,0.8
		c-0.8,2.5-1.9,4.8-3.3,7c-1.4,2.2-2.9,4.1-4.5,5.5c-0.2-0.2-0.4-0.5-0.7-0.8c-0.3-0.3-0.6-0.6-0.9-1c-0.3-0.3-0.6-0.6-0.9-0.8
		c1.5-1.3,2.9-2.9,4.1-4.8C612.5,89.8,613.4,87.8,614.1,85.7z M610.8,79.8l24-1.4l0.2,2.7l-24.1,1.5L610.8,79.8z M614.1,92.1
		c0.7,2.4,1.6,4.4,2.7,5.9c1.1,1.5,2.4,2.7,3.9,3.4c1.5,0.8,3.1,1.3,4.9,1.6c1.8,0.3,3.8,0.4,5.9,0.4c0.3,0,0.9,0,1.7,0
		c0.8,0,1.7,0,2.7,0c1,0,2.1,0,3.1,0s2,0,2.9,0c0.9,0,1.5,0,1.9,0c-0.3,0.4-0.5,1-0.8,1.7c-0.2,0.7-0.4,1.4-0.6,1.9h-2.4h-8.8
		c-2.6,0-4.9-0.2-7-0.6c-2.1-0.4-4-1-5.6-2s-3.1-2.4-4.4-4.2c-1.2-1.8-2.3-4.2-3.1-7.2L614.1,92.1z M614,89.3h7.1v3H614V89.3z
		 M619.4,64.9h4.3v10.3h-4.3V64.9z M619.4,76h4.1v6.4c0,0.6,0.1,1.1,0.3,1.3c0.2,0.3,0.7,0.4,1.5,0.4c0.3,0,0.8,0,1.5,0
		c0.7,0,1.4,0,2.2,0s1.7,0,2.5,0c0.8,0,1.6,0,2.3,0c0.7,0,1.2,0,1.5,0c0.5,0,1.1,0,1.8,0c0.7,0,1.3-0.1,2-0.1
		c0.6-0.1,1.1-0.1,1.5-0.2c0.1,0.6,0.1,1.1,0.2,1.7c0,0.5,0.1,1,0.2,1.5c-0.5,0.2-1.2,0.2-2.2,0.3c-1,0-2,0-3,0c-0.3,0-0.9,0-1.7,0
		c-0.8,0-1.6,0-2.5,0c-0.9,0-1.8,0-2.8,0c-0.9,0-1.7,0-2.4,0c-0.7,0-1.2,0-1.4,0c-1.5,0-2.6-0.2-3.4-0.5c-0.8-0.3-1.4-0.9-1.7-1.6
		c-0.3-0.7-0.4-1.7-0.4-2.8V76z M621.4,67.6h17.8v3.2h-17.8V67.6z M625.9,89.3h3.5v3.5c0,1-0.1,2.1-0.3,3.2
		c-0.2,1.2-0.7,2.3-1.3,3.3c-0.6,1.1-1.5,2.1-2.7,2.9c-0.2-0.2-0.4-0.5-0.7-0.8c-0.3-0.3-0.7-0.6-1-0.9c-0.4-0.3-0.7-0.5-0.9-0.7
		c1.5-1.1,2.5-2.3,2.9-3.6c0.4-1.3,0.6-2.5,0.6-3.7V89.3z M627.7,89.3h7.9v3.2h-7.9V89.3z M633.2,89.3h3.3v8.6c0,0.5,0,0.8,0.1,0.9
		c0.1,0.1,0.3,0.2,0.5,0.2c0.1,0,0.2,0,0.4,0c0.2,0,0.4,0,0.6,0c0.2,0,0.4,0,0.4,0c0.3,0,0.5-0.2,0.6-0.6c0.1-0.4,0.2-1.2,0.3-2.5
		c0.3,0.2,0.7,0.4,1.2,0.6c0.5,0.2,1,0.3,1.4,0.5c-0.1,1.7-0.4,2.9-0.8,3.5c-0.5,0.6-1.2,0.9-2.2,0.9c-0.2,0-0.4,0-0.7,0
		c-0.3,0-0.7,0-1,0c-0.3,0-0.6,0-0.7,0c-1.3,0-2.2-0.2-2.7-0.7c-0.5-0.5-0.7-1.4-0.7-2.7V89.3z M638.2,73.4h0.7l0.7-0.2l3.1,0.8
		c-0.5,1.4-1,2.8-1.5,4.2c-0.6,1.4-1.1,2.6-1.7,3.7l-3.6-1.1c0.4-0.9,0.9-2,1.3-3.2c0.4-1.3,0.8-2.5,1.1-3.6V73.4z"/>
	<path class="st0" d="M673.9,66.7l3.9,1.1c-2.5,5.9-5.7,11.1-9.6,15.6c-4,4.5-8.5,8.1-13.7,10.9c-0.1-0.3-0.3-0.7-0.7-1.2
		c-0.3-0.5-0.7-0.9-1-1.4c-0.3-0.4-0.6-0.8-0.9-1.1c5-2.4,9.4-5.7,13.1-9.8C668.8,76.8,671.7,72.1,673.9,66.7z M653,78.7h23.7v3.8
		H653V78.7z M655,70.1h16v3.8h-16V70.1z M661.6,86.5h10.9v3.5h-10.9v17.5h-4V89l2.4-2.5H661.6z M660.2,93.8h12.4v3.4h-12.4V93.8z
		 M660.2,101.4h12.4v3.5h-12.4V101.4z M661.7,65.3h4.1v15.8h-4.1V65.3z M670.7,86.5h4.1v20.4h-4.1V86.5z M678.4,67.5h13.7v4.1h-9.4
		v36.1h-4.3V67.5z M691.1,67.5h0.8l0.6-0.1l3.2,2c-0.9,2.2-1.9,4.5-3,7c-1.1,2.5-2.2,4.8-3.2,6.8c1.5,1.4,2.7,2.8,3.4,4
		c0.8,1.3,1.3,2.5,1.6,3.7c0.3,1.2,0.5,2.3,0.5,3.4c0,1.5-0.2,2.9-0.6,3.9c-0.4,1.1-1,1.9-1.9,2.5c-0.8,0.6-1.9,0.9-3.2,1.1
		c-0.6,0.1-1.2,0.1-2,0.1c-0.8,0-1.5,0-2.2,0c0-0.6-0.1-1.3-0.3-2.1c-0.2-0.8-0.5-1.5-0.9-2.1c0.7,0.1,1.4,0.1,1.9,0.1
		c0.6,0,1.1,0,1.6,0c0.4,0,0.8,0,1.1-0.1c0.4-0.1,0.7-0.2,0.9-0.4c0.5-0.3,0.8-0.7,1-1.3c0.2-0.6,0.3-1.3,0.3-2.1
		c0-1.4-0.4-2.9-1.2-4.6c-0.8-1.7-2.3-3.5-4.4-5.4c0.5-1.2,1.1-2.4,1.6-3.8c0.6-1.4,1.1-2.7,1.6-4.1c0.5-1.4,1-2.6,1.5-3.8
		c0.4-1.2,0.8-2.3,1.2-3.1V67.5z"/>
	<path class="st0" d="M735.8,88.5l4.2,1.2c-1.1,3.1-2.5,5.8-4.4,7.9c-1.8,2.2-4.1,3.9-6.7,5.3c-2.7,1.4-5.8,2.4-9.4,3.2
		c-3.6,0.7-7.8,1.3-12.5,1.7c-0.2-0.6-0.4-1.3-0.7-2c-0.3-0.7-0.6-1.3-1-1.8c4.5-0.2,8.4-0.7,11.8-1.3c3.4-0.6,6.3-1.5,8.8-2.7
		c2.5-1.2,4.5-2.7,6.1-4.5C733.6,93.6,734.9,91.3,735.8,88.5z M705.5,91.2H747v3.6h-41.5V91.2z M706.2,66.8h40v3.8h-40V66.8z
		 M708.4,73.9h36v12.4h-36V73.9z M711,99.9c1-1.1,2.1-2.5,3.2-4c1.1-1.5,2.2-3.1,3.2-4.7c1-1.6,1.9-3.2,2.5-4.7l4.3,1
		c-0.7,1.4-1.5,2.9-2.5,4.4c-1,1.5-2,3-2.9,4.3c-1,1.4-1.9,2.6-2.7,3.6L711,99.9z M711,99.9l3.4-2.8c3,0.5,6,1,8.9,1.6
		c3,0.6,5.9,1.2,8.7,1.9c2.8,0.6,5.4,1.3,7.9,2c2.4,0.7,4.6,1.3,6.5,2l-4,3.1c-2.3-0.9-5.1-1.8-8.4-2.7c-3.3-0.9-6.9-1.8-10.8-2.7
		C719.3,101.4,715.2,100.6,711,99.9z M712.5,77.4v5.4h27.6v-5.4H712.5z M718.6,68.2h4.1v16h-4.1V68.2z M729.2,68.2h4.1v16h-4.1V68.2
		z"/>
	<path class="st0" d="M775.6,87.9h4.6c-0.2,2.1-0.5,4.1-1,5.9c-0.4,1.8-1.1,3.4-2,4.9c-0.9,1.5-2.1,2.8-3.6,3.9
		c-1.5,1.1-3.4,2.1-5.8,3c-2.3,0.8-5.2,1.5-8.6,2.1c-0.1-0.4-0.3-0.8-0.6-1.3c-0.2-0.5-0.5-1-0.8-1.4c-0.3-0.5-0.6-0.9-0.9-1.2
		c3.1-0.4,5.7-1,7.8-1.6c2.1-0.7,3.9-1.4,5.2-2.4c1.4-0.9,2.4-1.9,3.1-3.1c0.7-1.2,1.3-2.5,1.6-3.9
		C775.1,91.2,775.4,89.6,775.6,87.9z M757.7,85h41.5v3.8h-41.5V85z M758.8,91.9h39.5v3.7h-39.5V91.9z M759.3,71h38v3.9h-38V71z
		 M761.9,78.1H795v3.7h-33.1V78.1z M765.5,66.2l3.9-1.5c0.8,0.8,1.5,1.8,2.2,2.8c0.7,1.1,1.2,2,1.6,2.8l-4.1,1.8
		c-0.3-0.9-0.8-1.8-1.5-2.9C766.9,68.1,766.2,67.1,765.5,66.2z M776,73.4h4.5V88H776V73.4z M778.5,98.9l1.9-3.2
		c1.5,0.5,3.2,1.1,4.9,1.8c1.7,0.7,3.5,1.4,5.2,2.2c1.7,0.8,3.4,1.5,4.9,2.3c1.5,0.8,2.8,1.5,3.8,2.1l-2,3.8c-1-0.7-2.3-1.4-3.8-2.2
		c-1.5-0.8-3.1-1.6-4.8-2.4c-1.7-0.8-3.4-1.6-5.2-2.4C781.7,100.2,780.1,99.5,778.5,98.9z M786.6,64.7l4.7,1.2
		c-0.8,1.3-1.6,2.5-2.5,3.7c-0.9,1.2-1.7,2.2-2.4,3.1l-3.8-1.2c0.5-0.6,0.9-1.3,1.4-2.1c0.5-0.8,1-1.6,1.4-2.4
		C785.9,66.1,786.3,65.4,786.6,64.7z"/>
	<path class="st0" d="M808.9,75.3c1.7-0.1,3.7-0.1,5.8-0.3c2.2-0.1,4.4-0.2,6.8-0.4c2.4-0.1,4.8-0.3,7.2-0.4v4
		c-3.5,0.2-6.9,0.4-10.3,0.6c-3.4,0.2-6.4,0.4-9.1,0.6L808.9,75.3z M822.1,71.5h4.1v4.8c0,1.8-0.1,3.7-0.2,5.8
		c-0.2,2.1-0.5,4.3-1,6.5c-0.5,2.2-1.3,4.5-2.3,6.7c-1,2.2-2.4,4.4-4.1,6.5c-1.7,2.1-3.8,4.1-6.4,6c-0.2-0.3-0.5-0.7-0.9-1.1
		c-0.4-0.4-0.8-0.8-1.2-1.1c-0.4-0.4-0.8-0.6-1.1-0.9c2.4-1.7,4.4-3.5,6-5.5c1.6-1.9,2.9-3.9,3.8-6c1-2,1.7-4.1,2.1-6.1
		c0.5-2,0.8-4,0.9-5.8c0.1-1.9,0.2-3.6,0.2-5.3V71.5z M810,90.2c0.5-1.6,1-3.4,1.4-5.5c0.5-2,0.9-4.2,1.3-6.5s0.8-4.5,1.1-6.8
		c0.3-2.3,0.6-4.4,0.7-6.4l4.3,0.2c-0.2,2.1-0.5,4.4-0.9,6.7c-0.4,2.4-0.8,4.7-1.2,7c-0.4,2.3-0.9,4.6-1.4,6.7
		c-0.5,2.1-0.9,4-1.4,5.7L810,90.2z M810,90.2l2.6-3c1.3,1,2.7,2.1,4.2,3.3c1.5,1.2,2.9,2.4,4.4,3.7c1.5,1.3,2.8,2.5,4.1,3.7
		c1.2,1.2,2.3,2.3,3.1,3.2l-2.9,3.6c-0.8-1-1.8-2.1-3-3.3c-1.2-1.2-2.5-2.5-3.9-3.8c-1.4-1.3-2.9-2.6-4.3-3.8
		C812.7,92.4,811.3,91.2,810,90.2z M827.2,84.3h24.6v4.1h-24.6V84.3z M829.2,68.1h18v4h-18V68.1z M837.5,79.4h4.5v23.4
		c0,1.2-0.2,2.1-0.5,2.8c-0.3,0.6-0.9,1.1-1.8,1.5c-0.8,0.3-1.8,0.5-3,0.6c-1.2,0.1-2.8,0.1-4.6,0.1c-0.1-0.6-0.3-1.3-0.6-2.1
		c-0.3-0.8-0.6-1.5-0.9-2.1c0.8,0,1.7,0.1,2.5,0.1c0.8,0,1.5,0,2.1,0s1,0,1.3,0c0.4,0,0.6-0.1,0.8-0.2c0.2-0.1,0.2-0.4,0.2-0.7V79.4
		z M845.6,68.1h1.2l1-0.2l3,2.1c-0.9,1.4-2,2.8-3.1,4.2c-1.2,1.4-2.4,2.8-3.7,4.1c-1.3,1.3-2.6,2.5-3.9,3.5
		c-0.3-0.4-0.7-0.8-1.2-1.3c-0.5-0.5-1-0.9-1.3-1.2c1-0.9,2.1-1.9,3.1-3.2c1-1.2,2-2.5,2.9-3.7c0.9-1.3,1.6-2.4,2.1-3.4V68.1z"/>
</g>
</svg>
