<!-- Generator: Adobe Illustrator 25.0.0, SVG Export Plug-In  -->
<svg version="1.1" xmlns="http://www.w3.org/2000/svg" xmlns:xlink="http://www.w3.org/1999/xlink" x="0px" y="0px" width="775.9px"
	 height="107.9px" viewBox="0 0 775.9 107.9" style="overflow:visible;enable-background:new 0 0 775.9 107.9;"
	 xml:space="preserve">
<style type="text/css">
	.st0{fill:#333337;}
</style>
<defs>
</defs>
<g>
	<path class="st0" d="M11,0.6l4.1,1.2c-1,2.6-2.2,5.2-3.5,7.8c-1.4,2.6-2.8,5-4.4,7.3c-1.6,2.3-3.2,4.3-4.8,6
		c-0.2-0.4-0.4-0.8-0.6-1.4c-0.3-0.6-0.6-1.1-0.9-1.7c-0.3-0.6-0.6-1-0.9-1.3c1.5-1.5,2.9-3.2,4.3-5.1c1.4-1.9,2.6-4,3.8-6.2
		C9.2,5.1,10.2,2.8,11,0.6z M6.4,12.8l4.1-4.1l0,0v34.4H6.4V12.8z M20.6,0.6l4.3,1c-0.6,2.4-1.4,4.8-2.3,7.1
		c-0.9,2.3-1.8,4.5-2.9,6.6c-1,2-2.2,3.8-3.4,5.4c-0.2-0.2-0.6-0.6-1-0.9c-0.4-0.4-0.9-0.7-1.3-1.1c-0.4-0.4-0.9-0.6-1.2-0.9
		c1.2-1.4,2.3-3,3.2-4.8c1-1.8,1.8-3.8,2.6-5.9C19.4,4.9,20.1,2.8,20.6,0.6z M19.6,20.6l4.2,0.8c-0.5,2-1,4-1.7,5.9
		c-0.7,1.9-1.4,3.7-2.3,5.4c-0.8,1.7-1.7,3.1-2.6,4.4c-0.2-0.2-0.6-0.5-1.1-0.8c-0.5-0.3-0.9-0.6-1.4-0.9c-0.5-0.3-0.9-0.5-1.2-0.7
		c1.4-1.7,2.5-3.8,3.6-6.4C18.2,25.8,19,23.2,19.6,20.6z M20.8,9h20v4.1H19.1L20.8,9z M27.1,10.7h4.3v27.4c0,1.1-0.1,2-0.4,2.7
		c-0.3,0.7-0.7,1.2-1.5,1.5c-0.7,0.3-1.6,0.6-2.7,0.7c-1.1,0.1-2.3,0.2-3.8,0.2c-0.1-0.6-0.3-1.4-0.6-2.2c-0.3-0.8-0.6-1.6-0.9-2.1
		c1,0,2,0,2.9,0s1.5,0,1.8,0c0.3,0,0.5,0,0.6-0.1c0.1-0.1,0.2-0.3,0.2-0.6V10.7z M34.1,21.4l3.9-1.3c0.9,1.6,1.7,3.3,2.4,5.1
		s1.4,3.6,1.9,5.4c0.5,1.8,0.9,3.4,1.2,4.8l-4.2,1.5c-0.2-1.4-0.5-3-1.1-4.8c-0.5-1.8-1.1-3.6-1.8-5.5
		C35.6,24.8,34.9,23.1,34.1,21.4z M39.5,9h0.6l0.7-0.1l3,0.6c-0.3,1.8-0.6,3.6-1,5.5c-0.4,1.9-0.7,3.5-1.1,4.8l-3.7-0.7
		c0.2-0.8,0.3-1.7,0.5-2.8c0.2-1.1,0.4-2.2,0.5-3.4c0.2-1.2,0.3-2.3,0.4-3.3V9z"/>
	<path class="st0" d="M55.2,7.8h4v34.1h-4V7.8z M57.6,20.5h12.3v3.8H57.6V20.5z M57.8,7.8h14.1v30.6H57.8v-3.9h10.1V11.7H57.8V7.8z
		 M62,0.3l4.7,0.8c-0.5,1.5-1,3-1.6,4.5c-0.6,1.5-1.1,2.8-1.5,3.8l-3.5-0.8c0.2-0.8,0.4-1.6,0.7-2.6c0.2-1,0.5-2,0.7-2.9
		C61.8,2,61.9,1.1,62,0.3z M78.8,0.3l4.2,1c-0.6,2.3-1.3,4.5-2.1,6.7c-0.8,2.2-1.7,4.3-2.6,6.2c-1,2-2,3.7-3,5.1
		c-0.2-0.2-0.6-0.5-1-0.9c-0.4-0.3-0.9-0.6-1.3-0.9c-0.4-0.3-0.9-0.6-1.2-0.7c1-1.3,2-2.9,2.9-4.7c0.9-1.8,1.7-3.7,2.4-5.7
		C77.7,4.4,78.3,2.4,78.8,0.3z M76.6,20.2l3.4-1.9c0.8,1,1.7,2.2,2.6,3.5c0.9,1.3,1.8,2.5,2.5,3.7c0.8,1.2,1.4,2.3,1.9,3.2l-3.7,2.3
		c-0.4-1-1-2-1.8-3.3c-0.8-1.2-1.6-2.5-2.4-3.8C78.3,22.5,77.4,21.3,76.6,20.2z M78.2,7.6H92v4H78.2V7.6z M90.5,7.6h4.1
		c0,0.5,0,1,0,1.3c0,0.3,0,0.6,0,0.8c-0.2,5.3-0.3,9.7-0.5,13.3c-0.2,3.6-0.4,6.6-0.6,9c-0.2,2.3-0.5,4.1-0.8,5.4
		c-0.3,1.3-0.7,2.2-1.2,2.8c-0.6,0.8-1.2,1.3-1.8,1.6c-0.6,0.3-1.4,0.5-2.3,0.6c-0.8,0.1-1.8,0.1-3.1,0.1c-1.3,0-2.6-0.1-3.9-0.1
		c0-0.6-0.2-1.3-0.4-2.1c-0.3-0.8-0.6-1.5-1-2.1c1.5,0.1,2.9,0.2,4.1,0.2c1.3,0,2.2,0,2.8,0c0.5,0,0.8,0,1.1-0.1s0.6-0.3,0.9-0.6
		c0.4-0.4,0.7-1.3,1-2.5c0.3-1.2,0.5-3,0.7-5.3c0.2-2.3,0.4-5.2,0.6-8.7c0.2-3.5,0.3-7.8,0.4-12.7V7.6z"/>
	<path class="st0" d="M127.3,27.3l3,2.3c-1.3,1.1-2.8,2.3-4.5,3.4c-1.7,1.1-3.6,2.2-5.5,3.2c-2,1-4,1.9-6,2.8c-2,0.8-4,1.5-5.9,2.1
		c-0.2-0.5-0.6-1.1-1-1.8c-0.4-0.7-0.8-1.3-1.3-1.8c1.9-0.4,3.8-1,5.8-1.7c2-0.7,4-1.5,5.9-2.4c1.9-0.9,3.7-1.9,5.4-2.9
		C124.8,29.3,126.1,28.3,127.3,27.3z M124.6,21.8l2.8,2.1c-1.1,0.8-2.4,1.7-3.9,2.5c-1.5,0.8-3.1,1.7-4.7,2.5
		c-1.7,0.8-3.4,1.5-5,2.2c-1.7,0.7-3.3,1.2-4.8,1.7c-0.2-0.5-0.6-1.1-1-1.7c-0.4-0.7-0.8-1.2-1.2-1.7c1.5-0.3,3-0.8,4.7-1.3
		c1.7-0.6,3.3-1.2,5-1.9c1.6-0.7,3.2-1.4,4.6-2.1C122.4,23.3,123.6,22.6,124.6,21.8z M126.2,13.1l3.6,1.5c-1.6,1.6-3.5,3.1-5.8,4.4
		c-2.3,1.3-4.7,2.5-7.2,3.5c-2.5,1-5,1.9-7.5,2.6c-0.2-0.3-0.4-0.6-0.6-1.1c-0.3-0.4-0.6-0.9-0.9-1.3c-0.3-0.4-0.6-0.8-0.8-1.1
		c2.4-0.6,4.8-1.2,7.2-2.1c2.4-0.8,4.7-1.8,6.8-2.9C123.1,15.6,124.8,14.4,126.2,13.1z M107.1,4.3h39.2v10h-4.4v-6h-30.5v6h-4.3V4.3
		z M113.4,11.9h26.4v3.8h-26.4V11.9z M121.4,18.9l3.3-1.8c1.8,1.5,3.2,3.2,4.3,5.1c1.1,1.9,1.9,3.8,2.4,5.8c0.5,2,0.7,3.8,0.6,5.6
		c0,1.8-0.3,3.3-0.8,4.7c-0.5,1.4-1.2,2.4-2,3c-0.8,0.7-1.5,1.2-2.3,1.5c-0.8,0.2-1.7,0.4-2.8,0.4c-0.5,0-1.1,0-1.8,0
		c-0.7,0-1.4,0-2.1-0.1c0-0.6-0.1-1.3-0.3-2.1c-0.2-0.8-0.5-1.5-0.9-2.1c0.8,0.1,1.6,0.1,2.4,0.2c0.7,0,1.4,0.1,1.8,0.1
		c0.6,0,1.1-0.1,1.6-0.2c0.4-0.1,0.8-0.4,1.2-0.8c0.5-0.4,0.9-1.2,1.2-2.2c0.3-1,0.5-2.2,0.4-3.6c0-1.4-0.2-2.9-0.6-4.4
		c-0.4-1.6-1.1-3.1-2-4.7C124.2,21.7,122.9,20.2,121.4,18.9z M122.8,1.3l4.6-1.3c0.5,0.8,1,1.8,1.5,2.8c0.5,1,0.9,1.9,1,2.7
		l-4.8,1.5c-0.2-0.8-0.5-1.7-0.9-2.7C123.7,3.1,123.2,2.2,122.8,1.3z M139.7,17l3.5,2.9c-1.3,1.1-2.8,2.2-4.3,3.2
		c-1.5,1.1-3.1,2.1-4.6,3.1c-1.5,1-3,1.8-4.3,2.6l-2.8-2.5c1.3-0.8,2.7-1.7,4.3-2.7s3-2.2,4.5-3.3C137.4,19.1,138.7,18,139.7,17z
		 M136.6,24.4c0.6,2,1.5,3.8,2.6,5.6c1.1,1.7,2.5,3.3,4,4.6c1.5,1.3,3.2,2.4,5.1,3.1c-0.3,0.3-0.6,0.6-1,1c-0.4,0.4-0.7,0.8-1,1.3
		c-0.3,0.4-0.6,0.9-0.8,1.2c-2.1-1-3.9-2.2-5.5-3.8c-1.6-1.6-3-3.4-4.3-5.4c-1.2-2-2.2-4.3-2.9-6.7L136.6,24.4z"/>
	<path class="st0" d="M163.3,31.2l-1.2-3c1.9-0.7,3.4-1.6,4.4-2.8c1-1.1,1.5-2.5,1.5-4.1l-0.6-4.2l2.5,3.8c-0.4,0.4-0.8,0.6-1.2,0.8
		c-0.4,0.2-0.9,0.3-1.4,0.3c-1,0-2-0.3-2.7-0.9c-0.8-0.6-1.2-1.5-1.2-2.7c0-1.2,0.4-2.1,1.2-2.7c0.8-0.6,1.7-1,2.7-1
		c1.4,0,2.5,0.5,3.3,1.6c0.8,1,1.1,2.4,1.1,4.2c0,2.6-0.8,4.8-2.3,6.7C168,29,166,30.3,163.3,31.2z"/>
	<path class="st0" d="M186.4,8.2H202v3.5h-15.6V8.2z M188,26.8h3.3v15.8H188V26.8z M188.1,14.4h12.4v3.4h-12.4V14.4z M188.1,20.6
		h12.4v3.4h-12.4V20.6z M189.8,26.8h11.1v13.7h-11.1v-3.6h7.7v-6.6h-7.7V26.8z M190.8,1.9l3.3-1.9c0.8,0.9,1.5,1.9,2.3,3.1
		c0.8,1.1,1.4,2.1,1.8,2.9l-3.4,2.2c-0.4-0.8-1-1.9-1.7-3.1S191.5,2.9,190.8,1.9z M202,32.4h27.1v3.2H202V32.4z M202.1,15.3H229v3.2
		h-26.9V15.3z M203,4h25.1v3.2H203V4z M204.1,9.5h23.1v3.1h-23.1V9.5z M204.6,20.7h19.5v3.2h-15.4v19.4h-4.1V20.7z M206.7,26.7h17.4
		v2.8h-17.4V26.7z M208.4,0.4h4v16.2h-4V0.4z M213.4,16.7h4v16.7h-4V16.7z M222.4,20.7h4.2V39c0,1-0.1,1.8-0.4,2.3
		c-0.3,0.6-0.7,1-1.5,1.3c-0.7,0.3-1.6,0.4-2.7,0.5c-1.1,0.1-2.5,0.1-4.1,0.1c-0.1-0.5-0.3-1.1-0.5-1.8c-0.2-0.7-0.5-1.3-0.8-1.8
		c1.1,0,2.1,0.1,3.1,0.1c1,0,1.6,0,1.9,0c0.3,0,0.5-0.1,0.6-0.2c0.1-0.1,0.2-0.3,0.2-0.6V20.7z M218.5,0.4h4.1v16.2h-4.1V0.4z"/>
	<path class="st0" d="M254.7,19.3h4.6v5.8c0,1.3-0.1,2.6-0.4,4c-0.3,1.4-0.7,2.7-1.4,4.1c-0.7,1.4-1.7,2.7-3,3.9
		c-1.3,1.3-3,2.4-5.1,3.5c-2.1,1.1-4.7,2.1-7.7,2.9c-0.3-0.6-0.8-1.2-1.4-1.9c-0.6-0.7-1.2-1.3-1.7-1.8c2.8-0.7,5.2-1.6,7.1-2.5
		c1.9-0.9,3.5-1.9,4.7-2.9c1.2-1,2.1-2.1,2.7-3.1s1-2.1,1.3-3.2s0.3-2.1,0.3-3V19.3z M240.2,4.7h39.6v8.4h-4.6V8.7h-30.7v4.9h-4.3
		V4.7z M252.4,7.8h4.6c-0.2,1.8-0.5,3.5-1,4.9c-0.5,1.4-1.3,2.7-2.3,3.8c-1,1.1-2.4,2-4.1,2.8c-1.7,0.8-3.9,1.5-6.6,2
		c-0.2-0.5-0.5-1.1-1-1.8c-0.5-0.7-0.9-1.3-1.3-1.7c2.3-0.4,4.2-0.9,5.7-1.5c1.5-0.6,2.6-1.3,3.4-2.1c0.8-0.8,1.4-1.7,1.8-2.8
		C252,10.4,252.2,9.2,252.4,7.8z M241.9,24.7h26.7v4.1h-26.7V24.7z M256.5,1.1l4.5-0.8c0.4,1,0.9,2,1.3,3.1c0.4,1.1,0.7,2.1,0.9,2.8
		l-4.7,1c-0.2-0.8-0.5-1.8-0.8-2.9C257.2,3.1,256.9,2,256.5,1.1z M262.8,7.7h4.3v7.9c0,0.6,0.1,1,0.3,1.3c0.2,0.3,0.5,0.4,1.1,0.4
		c0.2,0,0.7,0,1.2,0c0.6,0,1.2,0,1.9,0s1.3,0,2,0c0.6,0,1,0,1.3,0c0.6,0,1.3,0,2-0.1c0.8-0.1,1.3-0.1,1.7-0.2
		c0.1,0.6,0.1,1.2,0.2,1.9c0.1,0.7,0.1,1.3,0.2,1.8c-0.4,0.1-0.9,0.2-1.7,0.2c-0.7,0-1.5,0-2.3,0c-0.3,0-0.8,0-1.4,0
		c-0.6,0-1.3,0-2.1,0c-0.8,0-1.4,0-2.1,0c-0.6,0-1.1,0-1.3,0c-1.4,0-2.6-0.2-3.3-0.5c-0.8-0.4-1.3-0.9-1.6-1.7
		c-0.3-0.8-0.4-1.8-0.4-3.1V7.7z M266.1,24.7h4.6v11.8c0,0.7,0.1,1.1,0.3,1.3c0.2,0.2,0.6,0.3,1.2,0.3c0.1,0,0.3,0,0.7,0
		c0.3,0,0.7,0,1.1,0c0.4,0,0.8,0,1.1,0c0.4,0,0.6,0,0.8,0c0.4,0,0.8-0.2,1-0.5c0.2-0.3,0.4-0.9,0.5-1.9s0.2-2.4,0.2-4.4
		c0.3,0.2,0.7,0.5,1.2,0.7c0.5,0.2,1,0.4,1.5,0.6c0.5,0.2,1,0.4,1.4,0.5c-0.2,2.4-0.4,4.3-0.8,5.6c-0.4,1.3-0.9,2.3-1.6,2.8
		c-0.7,0.5-1.7,0.8-2.9,0.8c-0.2,0-0.6,0-1,0s-0.9,0-1.5,0c-0.5,0-1,0-1.5,0c-0.4,0-0.8,0-0.9,0c-1.4,0-2.4-0.2-3.2-0.5
		c-0.8-0.3-1.3-0.9-1.6-1.8c-0.3-0.9-0.5-2-0.5-3.5V24.7z"/>
	<path class="st0" d="M301.1,0.1l4.3,1.2c-1,2.1-2,4.2-3.2,6.2s-2.5,3.9-3.8,5.7c-1.4,1.8-2.7,3.3-4.1,4.7c-0.3-0.2-0.7-0.5-1.2-0.8
		s-0.9-0.6-1.5-1c-0.5-0.3-0.9-0.6-1.3-0.8c1.4-1.2,2.8-2.7,4.1-4.3c1.3-1.6,2.5-3.4,3.7-5.3C299.3,4,300.3,2.1,301.1,0.1z
		 M290.6,23h9.1v0.1h24.8V23h8.7v3.9h-8.7v-0.1h-24.8v0.1h-9.1V23z M298.9,13h4.4c-0.2,2-0.5,4-0.7,6.2c-0.3,2.2-0.6,4.4-0.9,6.5
		c-0.3,2.2-0.6,4.2-0.9,6.2c-0.3,2-0.6,3.7-0.9,5.2h-4.5c0.3-1.6,0.7-3.3,1-5.3c0.3-2,0.6-4,1-6.2c0.3-2.2,0.6-4.4,0.9-6.5
		C298.5,16.9,298.7,14.9,298.9,13z M297.7,33.3h33.7v3.8h-33.7V33.3z M299.4,4.8h32.2v3.9h-32.2V4.8z M301,13h23.4v3.9H301V13z
		 M305.9,28.6l2.4-2.4c1,0.4,2,1,3.1,1.6c1.1,0.6,2.1,1.2,3,1.9c0.9,0.6,1.7,1.3,2.3,1.8l-2.5,2.7c-0.6-0.6-1.3-1.3-2.2-1.9
		c-0.9-0.7-1.9-1.3-2.9-2C307.9,29.7,306.9,29.1,305.9,28.6z M306.8,18.8l2.4-2.4c1,0.4,1.9,0.9,3,1.4c1,0.6,2,1.1,2.9,1.7
		c0.9,0.6,1.6,1.2,2.2,1.7l-2.5,2.6c-0.6-0.6-1.3-1.1-2.1-1.8c-0.9-0.6-1.8-1.2-2.8-1.8C308.8,19.7,307.8,19.2,306.8,18.8z
		 M322.7,13h4.3c0,0.5,0,0.9,0,1.2c0,0.3,0,0.6,0,0.8c-0.1,4.5-0.3,8.4-0.4,11.5c-0.2,3.1-0.3,5.7-0.5,7.7c-0.2,2-0.4,3.5-0.7,4.6
		s-0.6,1.9-1,2.4c-0.5,0.6-1,1.1-1.6,1.4c-0.6,0.3-1.2,0.4-1.9,0.5c-0.7,0.1-1.6,0.1-2.7,0.1c-1.1,0-2.2-0.1-3.4-0.1
		c0-0.5-0.1-1-0.3-1.7c-0.2-0.7-0.4-1.2-0.7-1.7c1.1,0.1,2.2,0.2,3.1,0.2c0.9,0,1.6,0,2.1,0c0.4,0,0.8,0,1-0.1
		c0.2-0.1,0.5-0.3,0.7-0.6c0.3-0.4,0.5-1.1,0.7-2.1c0.2-1,0.4-2.5,0.6-4.5c0.2-2,0.3-4.5,0.5-7.6c0.1-3.1,0.3-6.8,0.4-11.2V13z"/>
	<path class="st0" d="M342.9,18.9h42.4v4.8h-42.4V18.9z"/>
	<path class="st0" d="M398.5,8.8h4.1V20c0,1.7-0.1,3.5-0.2,5.6c-0.1,2-0.4,4.1-0.7,6.2c-0.3,2.1-0.8,4.2-1.4,6.2
		c-0.6,2-1.5,3.8-2.5,5.4c-0.2-0.2-0.5-0.5-1-0.9c-0.4-0.4-0.9-0.7-1.3-1c-0.4-0.3-0.8-0.5-1.1-0.7c0.9-1.5,1.7-3.2,2.2-5
		c0.5-1.8,0.9-3.6,1.2-5.4c0.3-1.8,0.4-3.7,0.5-5.4c0.1-1.8,0.1-3.4,0.1-4.9V8.8z M414.1,24.8h0.7l0.6-0.1l2.2,0.6
		c-0.6,3.4-1.6,6.3-3,8.6c-1.4,2.4-3.1,4.3-5,5.9c-2,1.5-4.2,2.8-6.8,3.7c-0.2-0.5-0.5-1-0.8-1.6s-0.7-1.1-1.1-1.5
		c2.2-0.7,4.3-1.7,6-3c1.8-1.3,3.3-3,4.5-5c1.2-2,2.1-4.4,2.6-7.1V24.8z M400.9,8.8h32.7v3.4h-32.7V8.8z M408.1,21.2l3.4,0.8
		c-0.8,2.5-1.9,4.8-3.3,7c-1.4,2.2-2.9,4.1-4.5,5.5c-0.2-0.2-0.4-0.5-0.7-0.8s-0.6-0.6-0.9-1c-0.3-0.3-0.6-0.6-0.9-0.8
		c1.5-1.3,2.9-2.9,4.1-4.8C406.5,25.3,407.4,23.3,408.1,21.2z M404.8,15.3l24-1.4l0.2,2.7l-24.1,1.5L404.8,15.3z M408,27.6
		c0.7,2.4,1.6,4.4,2.7,5.9c1.1,1.5,2.4,2.7,3.9,3.4c1.5,0.8,3.1,1.3,4.9,1.6c1.8,0.3,3.8,0.4,5.9,0.4c0.3,0,0.9,0,1.7,0
		c0.8,0,1.7,0,2.7,0c1,0,2.1,0,3.1,0s2,0,2.9,0c0.9,0,1.5,0,1.9,0c-0.3,0.4-0.5,1-0.8,1.7c-0.2,0.7-0.4,1.4-0.6,1.9h-2.4h-8.8
		c-2.6,0-4.9-0.2-7-0.6c-2.1-0.4-4-1-5.6-2s-3.1-2.4-4.4-4.2c-1.2-1.8-2.3-4.2-3.1-7.2L408,27.6z M408,24.8h7.1v3H408V24.8z
		 M413.4,0.4h4.3v10.3h-4.3V0.4z M413.4,11.5h4.1v6.4c0,0.6,0.1,1.1,0.3,1.3c0.2,0.3,0.7,0.4,1.5,0.4c0.3,0,0.8,0,1.5,0
		c0.7,0,1.4,0,2.2,0s1.7,0,2.5,0c0.8,0,1.6,0,2.3,0c0.7,0,1.2,0,1.5,0c0.5,0,1.1,0,1.8,0c0.7,0,1.3-0.1,2-0.1
		c0.6-0.1,1.1-0.1,1.5-0.2c0.1,0.6,0.1,1.1,0.2,1.7c0,0.5,0.1,1,0.2,1.5c-0.5,0.2-1.2,0.2-2.2,0.3c-1,0-2,0-3,0c-0.3,0-0.9,0-1.7,0
		c-0.8,0-1.6,0-2.5,0c-0.9,0-1.8,0-2.8,0s-1.7,0-2.4,0c-0.7,0-1.2,0-1.4,0c-1.5,0-2.6-0.2-3.4-0.5c-0.8-0.3-1.4-0.9-1.7-1.6
		c-0.3-0.7-0.4-1.7-0.4-2.8V11.5z M415.4,3.1h17.8v3.2h-17.8V3.1z M419.9,24.8h3.5v3.5c0,1-0.1,2.1-0.3,3.2
		c-0.2,1.2-0.7,2.3-1.3,3.3c-0.6,1.1-1.5,2.1-2.7,2.9c-0.2-0.2-0.4-0.5-0.7-0.8c-0.3-0.3-0.7-0.6-1-0.9c-0.4-0.3-0.7-0.5-0.9-0.7
		c1.5-1.1,2.5-2.3,2.9-3.6c0.4-1.3,0.6-2.5,0.6-3.7V24.8z M421.7,24.8h7.9V28h-7.9V24.8z M427.2,24.8h3.3v8.6c0,0.5,0,0.8,0.1,0.9
		c0.1,0.1,0.3,0.2,0.5,0.2c0.1,0,0.2,0,0.4,0s0.4,0,0.6,0c0.2,0,0.4,0,0.4,0c0.3,0,0.5-0.2,0.6-0.6c0.1-0.4,0.2-1.2,0.3-2.5
		c0.3,0.2,0.7,0.4,1.2,0.6c0.5,0.2,1,0.3,1.4,0.5c-0.1,1.7-0.4,2.9-0.8,3.5c-0.5,0.6-1.2,0.9-2.2,0.9c-0.2,0-0.4,0-0.7,0
		c-0.3,0-0.7,0-1,0s-0.6,0-0.7,0c-1.3,0-2.2-0.2-2.7-0.7c-0.5-0.5-0.7-1.4-0.7-2.7V24.8z M432.2,8.8h0.7l0.7-0.2l3.1,0.8
		c-0.5,1.4-1,2.8-1.5,4.2s-1.1,2.6-1.7,3.7l-3.6-1.1c0.4-0.9,0.9-2,1.3-3.2c0.4-1.3,0.8-2.5,1.1-3.6V8.8z"/>
	<path class="st0" d="M448.4,30.4l3.4,0.6c-0.2,2-0.5,4-0.9,6c-0.4,2-0.8,3.8-1.3,5.2c-0.4-0.2-0.9-0.4-1.6-0.7s-1.2-0.4-1.7-0.5
		c0.6-1.4,1-3,1.3-4.9C447.9,34.2,448.2,32.3,448.4,30.4z M447.7,18.1c-0.1-0.2-0.2-0.6-0.3-1c-0.1-0.4-0.3-0.9-0.5-1.4
		c-0.2-0.5-0.3-0.9-0.5-1.2c0.4-0.1,0.8-0.4,1.2-0.8c0.4-0.4,0.9-1,1.3-1.7c0.3-0.4,0.9-1.2,1.5-2.4c0.7-1.2,1.4-2.6,2.2-4.2
		c0.8-1.6,1.5-3.2,2-4.9l3.7,1.5c-1.1,2.6-2.4,5.1-3.9,7.6c-1.5,2.5-2.9,4.7-4.4,6.5v0.1c-0.5,0.2-0.9,0.5-1.2,0.7
		c-0.3,0.2-0.6,0.4-0.9,0.7C447.8,17.7,447.7,17.9,447.7,18.1z M448.1,28.7c-0.1-0.3-0.2-0.6-0.3-1.1c-0.2-0.4-0.3-0.9-0.5-1.4
		c-0.2-0.5-0.3-0.9-0.4-1.2c0.5-0.1,1.1-0.5,1.6-1c0.5-0.6,1.2-1.3,1.9-2.1c0.4-0.4,0.9-1.1,1.7-2.1c0.7-1,1.5-2.2,2.4-3.5
		c0.9-1.4,1.8-2.8,2.7-4.4c0.9-1.6,1.7-3.2,2.5-4.7l3.4,2c-1.1,2.1-2.3,4.2-3.7,6.3c-1.4,2.1-2.8,4.1-4.2,6s-2.9,3.6-4.4,5.2v0.1
		c-0.5,0.2-0.9,0.5-1.2,0.7c-0.3,0.2-0.6,0.4-0.9,0.6C448.2,28.2,448.1,28.5,448.1,28.7z M447.8,18l-0.1-2.9l1.8-1.2l8.1-0.6
		c-0.1,0.5-0.2,1.1-0.2,1.7c-0.1,0.6-0.1,1.1-0.1,1.5c-1.8,0.2-3.3,0.4-4.4,0.5c-1.2,0.1-2.1,0.3-2.7,0.3c-0.6,0.1-1.1,0.2-1.5,0.3
		C448.2,17.8,447.9,17.9,447.8,18z M448.1,28.7l-0.1-2.9l1.8-1.2l12.4-1.7c-0.1,0.5-0.1,1-0.1,1.7c0,0.6,0,1.1,0,1.5
		c-2.8,0.4-5.1,0.8-6.8,1.1c-1.7,0.3-3,0.5-4,0.7c-0.9,0.2-1.6,0.3-2.1,0.5C448.7,28.4,448.3,28.5,448.1,28.7z M453.4,30.8l3.1-0.7
		c0.3,1.6,0.6,3.2,0.8,5s0.4,3.4,0.5,4.7l-3.3,0.8c0-1.4-0.2-2.9-0.4-4.8C454,34.1,453.7,32.4,453.4,30.8z M457.9,18.9l3-1.1
		c0.5,0.9,1,1.9,1.4,3c0.4,1.1,0.8,2.1,1.1,3.1c0.3,1,0.6,1.9,0.7,2.7l-3.2,1.2c-0.2-0.8-0.4-1.7-0.7-2.7c-0.3-1-0.6-2.1-1-3.2
		C458.8,20.9,458.4,19.8,457.9,18.9z M458.5,29.9l2.9-1c0.6,1.4,1.1,2.9,1.6,4.6c0.5,1.6,0.9,3.1,1.2,4.2l-3.1,1.1
		c-0.2-1.2-0.6-2.7-1.1-4.4C459.5,32.8,459,31.2,458.5,29.9z M465.8,2.7h22.5V42h-4.1V7.1h-14.4v35.3h-4V2.7z M468,19.5h18.1v4.1
		H468V19.5z M468.1,35.5H486v4.1h-17.8V35.5z M474.8,5.9h4v31.6h-4V5.9z"/>
	<path class="st0" d="M505.9,0.1l4.3,1.3c-0.6,1.6-1.4,3.2-2.3,4.7c-0.9,1.6-1.9,3-2.9,4.4c-1,1.4-2.1,2.6-3.2,3.6
		c-0.2-0.3-0.4-0.7-0.8-1.2c-0.3-0.5-0.7-1-1.1-1.4c-0.4-0.5-0.7-0.9-1-1.1c1.4-1.3,2.8-2.8,4.1-4.7C504.1,4,505.1,2.1,505.9,0.1z
		 M502.2,42.1c-0.1-0.3-0.3-0.7-0.5-1.1c-0.2-0.4-0.5-0.9-0.7-1.3c-0.3-0.4-0.5-0.8-0.8-1c0.4-0.2,0.9-0.7,1.3-1.3s0.6-1.4,0.6-2.4
		V13.6h4v24.5c-0.8,0.6-1.5,1-2,1.5c-0.5,0.4-1,0.9-1.3,1.3S502.2,41.8,502.2,42.1z M502.2,42.1l-0.4-3.5l1.9-1.4l13.1-2.9
		c-0.1,0.6-0.1,1.3-0.2,2c0,0.8,0,1.4,0,1.8c-3,0.7-5.4,1.3-7.2,1.8s-3.2,0.8-4.2,1.1c-1,0.3-1.7,0.5-2.1,0.6
		C502.8,41.8,502.4,42,502.2,42.1z M503.9,13.6h15.8v15.9h-15.7v-3.3h11.6V17h-11.7V13.6z M504.5,20.1h12.4v3.2h-12.4V20.1z
		 M505.5,3.5H520v3.7h-14.6V3.5z M508.3,9.4l3-2.4c0.7,0.6,1.4,1.3,2.2,2.1c0.8,0.8,1.4,1.5,1.8,2.1l-3.2,2.7
		c-0.4-0.6-0.9-1.4-1.7-2.2C509.7,10.8,509,10,508.3,9.4z M511.3,31.8l3.5-1.6c0.8,1,1.6,2.1,2.5,3.3c0.8,1.2,1.6,2.4,2.4,3.5
		c0.7,1.1,1.3,2.1,1.8,3l-3.6,1.9c-0.4-0.9-1-1.9-1.8-3.1c-0.7-1.2-1.5-2.4-2.3-3.7C512.8,33.9,512,32.8,511.3,31.8z M524.3,0.1
		l4.4,1.1c-0.5,1.7-1.1,3.4-1.8,5c-0.7,1.6-1.5,3.2-2.4,4.6c-0.9,1.4-1.8,2.7-2.8,3.8c-0.2-0.3-0.5-0.6-0.9-1
		c-0.4-0.4-0.8-0.8-1.3-1.2c-0.4-0.4-0.8-0.7-1.2-1c1.3-1.4,2.5-3.1,3.5-5.1C522.9,4.4,523.7,2.3,524.3,0.1z M522.7,13.6h14.7v4
		h-10.6v25.5h-4.1V13.6z M524,3.5h17.4v3.7H524V3.5z M528.4,9.1l2.9-2.4c0.7,0.6,1.5,1.3,2.3,2.1c0.8,0.8,1.4,1.5,1.8,2.1l-3.1,2.6
		c-0.4-0.6-0.9-1.4-1.7-2.2C529.9,10.6,529.1,9.8,528.4,9.1z M535.4,13.6h4.1V33c0,1-0.1,1.9-0.4,2.5c-0.3,0.6-0.8,1.1-1.6,1.5
		c-0.7,0.3-1.7,0.5-2.9,0.6c-1.2,0.1-2.7,0.1-4.5,0.1c-0.1-0.6-0.3-1.3-0.5-2c-0.2-0.8-0.5-1.4-0.8-2c1.2,0,2.4,0,3.4,0s1.8,0,2.1,0
		c0.4,0,0.6-0.1,0.7-0.2c0.1-0.1,0.2-0.3,0.2-0.6V13.6z"/>
	<path class="st0" d="M132.4,102.7h41.9v3.8h-41.9V102.7z M134.2,66.6h18.5V70h-14.5v19h-4V66.6z M134.2,87.2h19.2v3.4h-19.2V87.2z
		 M136.1,73.4h16.7v10.1h-16.7v-3.1h12.8v-3.8h-12.8V73.4z M137.3,94.3h32.3v3.7h-32.3V94.3z M143.4,68.4h3.8v6.6h-3.8V68.4z
		 M143.4,81.9h3.8v6.6h-3.8V81.9z M151,90.8h4.5v14H151V90.8z M169,66.7h0.8l0.7-0.1l2.7,1c-0.8,3.9-2.1,7.3-3.7,10.4
		c-1.7,3.1-3.6,5.7-5.9,7.9c-2.3,2.2-4.7,4-7.4,5.3c-0.2-0.4-0.4-0.8-0.7-1.2c-0.3-0.4-0.6-0.9-0.9-1.3c-0.3-0.4-0.7-0.8-1-1.1
		c2.5-1,4.7-2.6,6.8-4.5c2.1-2,3.9-4.3,5.4-6.9s2.6-5.6,3.3-8.7V66.7z M154.3,66.7H170v4h-15.8V66.7z M158.9,70.1
		c0.9,2.8,2,5.4,3.5,7.8c1.5,2.4,3.2,4.5,5.3,6.3c2.1,1.8,4.4,3.2,7,4.3c-0.5,0.4-1,0.9-1.5,1.6c-0.5,0.7-0.9,1.3-1.2,1.8
		c-4.1-1.8-7.6-4.6-10.3-8.2c-2.8-3.6-4.9-7.8-6.5-12.7L158.9,70.1z"/>
	<path class="st0" d="M183.5,89c1.8-0.5,4-1.1,6.6-1.8c2.6-0.7,5.2-1.5,7.9-2.3l0.6,4c-2.4,0.7-4.9,1.5-7.3,2.3
		c-2.5,0.8-4.7,1.5-6.7,2.1L183.5,89z M184.2,74h14.1V78h-14.1V74z M190,65h4v37.5c0,1.1-0.1,1.9-0.4,2.5c-0.2,0.6-0.7,1.1-1.3,1.5
		c-0.6,0.3-1.4,0.6-2.4,0.7c-1,0.1-2.2,0.1-3.7,0.1c-0.1-0.5-0.2-1.2-0.4-2c-0.2-0.8-0.5-1.5-0.8-2.1c1,0,1.8,0,2.6,0
		c0.8,0,1.3,0,1.6,0c0.3,0,0.5-0.1,0.6-0.2c0.1-0.1,0.2-0.3,0.2-0.6V65z M199,70.6h27.8v4H199V70.6z M199.5,88.1h27v4h-27V88.1z
		 M201.4,79.4h23.4v4h-23.4V79.4z M202.5,94.8l3.4-1.8c0.6,0.8,1.3,1.7,1.9,2.7c0.7,1,1.3,1.9,1.9,2.8c0.6,0.9,1.1,1.7,1.5,2.5
		l-3.6,2.1c-0.3-0.7-0.8-1.5-1.4-2.5c-0.6-0.9-1.2-1.9-1.8-2.9S203.1,95.7,202.5,94.8z M216.9,84.4h4.2v18.5c0,1.2-0.1,2.1-0.4,2.7
		c-0.3,0.6-0.8,1.1-1.6,1.5c-0.7,0.3-1.7,0.5-2.9,0.6c-1.2,0.1-2.6,0.1-4.3,0.1c-0.1-0.6-0.3-1.3-0.5-2.1c-0.2-0.8-0.5-1.5-0.8-2
		c1.2,0,2.3,0.1,3.4,0.1c1.1,0,1.8,0,2.1,0c0.4,0,0.6-0.1,0.7-0.2c0.1-0.1,0.2-0.3,0.2-0.6V84.4z M210.9,65.1h4.1v16.6h-4.1V65.1z"
		/>
	<path class="st0" d="M236.2,95.9h21.4v3.9h-21.4V95.9z M236.8,69.5h20.4v3.9h-20.4V69.5z M238.1,76.7h18.3v15.8h-18.3V76.7z
		 M242,80v3.1h10.4V80H242z M242,86.1v3.2h10.4v-3.2H242z M244.9,64.9h4.2v13.3h-4.2V64.9z M244.9,90.2h4.2v17.5h-4.2V90.2z
		 M262.5,64.9l4.3,0.9c-0.8,3.3-1.9,6.4-3.2,9.3c-1.4,2.9-2.9,5.4-4.6,7.4c-0.2-0.3-0.5-0.6-1-1c-0.4-0.4-0.9-0.7-1.3-1.1
		c-0.4-0.4-0.8-0.7-1.2-0.9c1.6-1.8,3-3.9,4.2-6.5C261,70.5,261.9,67.8,262.5,64.9z M271.7,81.7h0.7l1,0l2.8,1.1
		c-0.1,0.1-0.1,0.3-0.2,0.4c-0.1,0.2-0.1,0.3-0.2,0.4c-2.4,2.9-4.4,5.3-5.9,7.2c-1.6,2-2.8,3.6-3.7,4.8c-0.9,1.3-1.6,2.3-2.1,3
		c-0.5,0.8-0.8,1.3-0.9,1.8c-0.1,0.4-0.2,0.8-0.2,1.1c0,0.5,0.2,0.8,0.6,1.1c0.4,0.2,1,0.3,1.8,0.3h8.1c0.5,0,0.9-0.1,1.1-0.4
		c0.3-0.3,0.5-0.9,0.6-1.8s0.2-2.3,0.3-4.2c0.6,0.3,1.2,0.6,1.8,0.8c0.7,0.2,1.3,0.4,1.9,0.6c-0.2,2.6-0.4,4.6-0.9,5.9
		c-0.4,1.3-1,2.2-1.8,2.7c-0.8,0.5-1.9,0.7-3.2,0.7h-8c-2.4,0-4.1-0.4-5.2-1.3c-1.1-0.9-1.6-2.1-1.6-3.6c0-0.5,0.1-1,0.2-1.6
		c0.1-0.6,0.4-1.3,0.8-2.2c0.4-0.9,1.1-2.1,2.1-3.5c0.9-1.4,2.2-3.2,3.8-5.4C267.1,87.4,269.1,84.8,271.7,81.7z M259.8,81.7h12.6v4
		h-12.6V81.7z M262.6,71.8h16.1v4h-18.1L262.6,71.8z"/>
	<path class="st0" d="M287.6,81.3l2.1-3.3c1,0.4,1.9,0.8,3,1.3c1,0.5,2,1.1,2.9,1.7c0.9,0.6,1.7,1.1,2.3,1.7l-2.2,3.6
		c-0.6-0.6-1.3-1.1-2.2-1.7c-0.9-0.6-1.9-1.2-2.9-1.8C289.5,82.3,288.5,81.8,287.6,81.3z M288.8,104.2c0.8-1.1,1.6-2.5,2.5-4.1
		c0.9-1.6,1.9-3.3,2.8-5.1c1-1.8,1.8-3.5,2.7-5.2l2.9,2.9c-0.7,1.6-1.5,3.2-2.4,4.9c-0.9,1.7-1.7,3.3-2.6,5s-1.7,3.2-2.6,4.6
		L288.8,104.2z M290,68.6l2.2-3.2c0.9,0.4,1.9,0.9,2.9,1.5c1,0.6,2,1.2,2.9,1.8c0.9,0.6,1.6,1.2,2.2,1.8l-2.3,3.6
		c-0.6-0.6-1.3-1.2-2.1-1.9c-0.9-0.7-1.8-1.3-2.8-1.9C291.9,69.6,291,69.1,290,68.6z M299.7,86.2h31.2V90h-31.2V86.2z M324.6,65.1
		l3,3.1c-1.7,0.5-3.6,0.9-5.7,1.3c-2.1,0.4-4.2,0.7-6.5,1c-2.3,0.3-4.5,0.6-6.8,0.8c-2.3,0.2-4.5,0.4-6.6,0.5
		c-0.1-0.5-0.2-1-0.4-1.7c-0.2-0.7-0.4-1.2-0.6-1.7c2.1-0.2,4.3-0.3,6.5-0.6c2.2-0.2,4.3-0.5,6.5-0.8s4.1-0.6,5.9-0.9
		C321.6,65.8,323.2,65.5,324.6,65.1z M302.5,79.3h24.8V97h-25.2v-3.5h21.3V82.8h-21V79.3z M302.3,73.7l3-1.3
		c0.6,0.8,1.2,1.8,1.7,2.8c0.5,1,0.9,2,1.1,2.8l-3.2,1.5c-0.2-0.8-0.5-1.7-1-2.8C303.4,75.5,302.9,74.5,302.3,73.7z M312.4,81.2h4.1
		v21.5c0,1.2-0.1,2.1-0.4,2.6s-0.8,1.1-1.6,1.4c-0.8,0.3-1.8,0.5-3,0.6c-1.2,0.1-2.7,0.1-4.4,0.1c-0.1-0.6-0.3-1.2-0.5-2
		c-0.2-0.8-0.5-1.4-0.8-2c1.3,0,2.4,0,3.5,0c1.1,0,1.8,0,2.2,0c0.3,0,0.6-0.1,0.7-0.2c0.1-0.1,0.2-0.3,0.2-0.6V81.2z M311.3,72.4
		l3.2-1c0.6,0.9,1.1,2,1.5,3.1c0.4,1.2,0.7,2.2,0.9,3l-3.3,1.2c-0.2-0.9-0.5-1.9-0.9-3.1C312.3,74.5,311.9,73.4,311.3,72.4z
		 M323.6,70.5l4,1.1c-0.7,1.3-1.4,2.6-2.1,3.8c-0.7,1.3-1.4,2.3-2,3.2l-3.5-1.1c0.4-0.6,0.9-1.3,1.3-2.2s0.9-1.7,1.3-2.5
		C323.1,72,323.4,71.2,323.6,70.5z"/>
	<path class="st0" d="M345,78.2l4.1,1.1c-0.3,1.8-0.7,3.6-1.2,5.6c-0.5,2-1,3.8-1.7,5.6c-0.6,1.8-1.4,3.3-2.2,4.7l-4.2-1.6
		c0.9-1.3,1.6-2.8,2.3-4.6c0.7-1.7,1.2-3.5,1.7-5.4C344.4,81.7,344.7,79.9,345,78.2z M374.6,67.7l4.4,1.8c-1.9,3.6-4.1,7.1-6.5,10.5
		c-2.4,3.4-5.2,6.7-8.2,9.8c-3,3.1-6.3,5.9-9.9,8.6c-3.6,2.6-7.4,4.9-11.5,6.9c-0.2-0.4-0.5-0.8-0.8-1.2c-0.3-0.4-0.7-0.8-1-1.2
		c-0.4-0.4-0.7-0.8-1-1c3.9-1.8,7.6-4,11.1-6.5c3.5-2.5,6.7-5.3,9.7-8.3c2.9-3,5.6-6.1,7.9-9.4C371,74.3,373,71,374.6,67.7z
		 M352.4,75.8h4.6v24.5c0,0.8,0.1,1.3,0.2,1.7s0.4,0.6,0.9,0.8c0.4,0.1,1.1,0.2,1.9,0.2c0.3,0,0.8,0,1.5,0c0.7,0,1.5,0,2.4,0
		c0.9,0,1.7,0,2.4,0c0.8,0,1.3,0,1.7,0c0.9,0,1.5-0.2,1.9-0.6c0.4-0.4,0.7-1.3,0.9-2.5c0.2-1.2,0.3-3,0.4-5.3
		c0.4,0.2,0.8,0.5,1.3,0.8c0.5,0.3,1,0.5,1.6,0.7c0.5,0.2,1,0.3,1.4,0.5c-0.2,2.8-0.5,4.9-1,6.5c-0.4,1.6-1.2,2.7-2.1,3.4
		c-1,0.7-2.4,1-4.1,1c-0.2,0-0.7,0-1.3,0s-1.3,0-2,0c-0.8,0-1.5,0-2.3,0c-0.8,0-1.4,0-2,0c-0.6,0-1,0-1.2,0c-1.8,0-3.3-0.2-4.3-0.6
		c-1-0.4-1.8-1.1-2.2-2.1c-0.4-1-0.6-2.5-0.6-4.3V75.8z M352.7,68.1l2.9-3.1c1.3,0.8,2.6,1.8,4.1,2.8c1.4,1,2.8,2,4.1,2.9
		c1.3,1,2.4,1.8,3.2,2.5l-2.9,3.5c-0.9-0.8-1.9-1.7-3.2-2.7c-1.3-1-2.6-2.1-4.1-3.1C355.3,69.9,354,69,352.7,68.1z M372.2,82.3
		l3.9-1.8c1,1.5,2.1,3.1,3,4.8c1,1.7,1.8,3.4,2.6,5.1c0.8,1.7,1.3,3.1,1.8,4.5l-4.2,2.1c-0.4-1.3-0.9-2.8-1.7-4.5
		c-0.7-1.7-1.6-3.4-2.5-5.2C374.2,85.5,373.2,83.8,372.2,82.3z"/>
	<path class="st0" d="M405.4,91.5l4.1,1.6c-1.1,1.9-2.4,3.7-3.9,5.3c-1.5,1.7-3.1,3.2-4.9,4.6c-1.8,1.4-3.6,2.6-5.5,3.6
		c-0.3-0.5-0.8-1.1-1.4-1.8c-0.6-0.7-1.2-1.2-1.8-1.7c1.8-0.8,3.5-1.8,5.2-3c1.7-1.2,3.2-2.5,4.7-4
		C403.4,94.7,404.5,93.2,405.4,91.5z M403.5,65.7l4.1,1.7c-1.1,1.4-2.3,2.7-3.7,3.9c-1.4,1.3-2.8,2.4-4.3,3.5
		c-1.5,1.1-2.9,2.1-4.3,2.9c-0.4-0.5-0.8-1-1.4-1.6c-0.6-0.6-1.2-1.1-1.8-1.5c1.3-0.7,2.7-1.5,4.1-2.5c1.4-1,2.8-2,4-3.1
		C401.6,67.9,402.7,66.8,403.5,65.7z M404.4,78.7l4.1,1.7c-1.1,1.4-2.3,2.8-3.7,4.2c-1.4,1.4-2.8,2.6-4.3,3.8
		c-1.5,1.2-3,2.2-4.5,3.1c-0.4-0.5-0.9-1.1-1.5-1.8c-0.6-0.6-1.2-1.2-1.8-1.6c1.4-0.7,2.8-1.6,4.3-2.6c1.5-1,2.8-2.1,4.1-3.2
		C402.5,81.1,403.6,79.9,404.4,78.7z M416,99.2l3.6,2.4c-1,0.8-2.1,1.5-3.5,2.3s-2.7,1.5-4.1,2.1c-1.4,0.6-2.8,1.2-4.2,1.6
		c-0.3-0.4-0.7-0.9-1.2-1.5c-0.5-0.6-1-1.1-1.5-1.5c1.3-0.4,2.7-0.9,4.1-1.5c1.4-0.6,2.7-1.2,3.9-1.9
		C414.2,100.5,415.2,99.8,416,99.2z M408.8,67.1h26v3.7h-26V67.1z M410.8,74.4h22.4v24.2h-22.4V74.4z M414.9,77.7v3.8h14v-3.8H414.9
		z M414.9,84.6v3.8h14v-3.8H414.9z M414.9,91.5v3.9h14v-3.9H414.9z M419.4,68.9l5,0.6c-0.4,1.4-0.8,2.8-1.3,4.1
		c-0.5,1.4-0.9,2.5-1.4,3.5l-3.9-0.7c0.3-1.1,0.6-2.3,0.9-3.7C419.1,71.3,419.3,70,419.4,68.9z M423.4,101.8l3.3-2.4
		c1,0.5,2.1,1.1,3.3,1.8c1.2,0.7,2.3,1.4,3.3,2.1s1.9,1.3,2.6,1.9l-3.5,2.6c-0.6-0.6-1.5-1.2-2.5-1.9c-1-0.7-2.1-1.4-3.3-2.2
		C425.5,103,424.4,102.3,423.4,101.8z"/>
	<path class="st0" d="M461.4,68.7l4.5,0.9c-1,3.7-2.4,7.4-4,10.9c-1.7,3.5-3.7,6.8-6.2,9.7c-2.5,2.9-5.4,5.5-8.9,7.5
		c-0.2-0.3-0.4-0.7-0.8-1.2c-0.3-0.4-0.7-0.9-1-1.3c-0.4-0.4-0.7-0.8-0.9-1c3.3-1.8,6-4.1,8.3-6.8c2.3-2.7,4.2-5.7,5.6-8.9
		C459.6,75.3,460.7,72,461.4,68.7z M445.4,79.2h40.8v3.5h-40.8V79.2z M480.7,65.2l2.7,3.1c-2.2,0.4-4.8,0.7-7.5,1
		c-2.8,0.3-5.7,0.5-8.7,0.7c-3,0.2-6.1,0.3-9.2,0.4s-6.1,0.1-8.9,0.1c0-0.5-0.1-1.1-0.3-1.7c-0.2-0.6-0.3-1.2-0.5-1.6
		c2.8,0,5.7-0.1,8.7-0.2c3-0.1,6-0.2,8.9-0.4c2.9-0.2,5.7-0.4,8.2-0.6C476.6,65.9,478.8,65.6,480.7,65.2z M448.7,73.1h35v3.4h-35
		V73.1z M454.6,85.4h27.1v22.4h-4.3V88.8h-18.6v19.1h-4.2V85.4z M457,102.7h22.2v3.4H457V102.7z M457.4,91.4h21.8v2.9h-21.8V91.4z
		 M457.4,97h21.8v2.9h-21.8V97z"/>
	<path class="st0" d="M507,75.2l3.8,1.6c-1.1,1.8-2.3,3.7-3.8,5.5c-1.4,1.8-2.9,3.6-4.5,5.2c-1.6,1.6-3.2,3.1-4.7,4.3
		c-0.1-0.3-0.3-0.8-0.6-1.3c-0.2-0.6-0.5-1.1-0.8-1.7c-0.3-0.6-0.6-1-0.8-1.4c1.4-1,2.8-2.1,4.2-3.5c1.4-1.3,2.7-2.7,4-4.2
		C505.1,78.2,506.1,76.7,507,75.2z M506.1,65l4.1,1.7c-1,1.4-2.1,2.7-3.4,4.1s-2.6,2.7-4.1,3.9c-1.4,1.2-2.8,2.3-4.2,3.3
		c-0.2-0.4-0.4-0.8-0.6-1.2c-0.3-0.4-0.6-0.9-0.8-1.3c-0.3-0.4-0.5-0.8-0.8-1.1c1.2-0.8,2.5-1.7,3.7-2.7c1.2-1,2.4-2.1,3.5-3.3
		S505.4,66.1,506.1,65z M502.7,84.3l4.1-4.1l0.2,0.1v27.4h-4.3V84.3z M509.9,91.6h28.9v3.7h-28.9V91.6z M511,84.6h27v3.6h-27V84.6z
		 M513.5,97.7l3.1-2.1c1,1,2.1,2,3.2,3.2c1.1,1.2,2,2.2,2.5,3.1l-3.3,2.4c-0.3-0.6-0.8-1.3-1.5-2.1c-0.6-0.8-1.3-1.6-2-2.4
		C514.9,99,514.2,98.3,513.5,97.7z M513.6,66.3h22.4v15.6h-22.4V66.3z M517.8,69.5v3.1h13.9v-3.1H517.8z M517.8,75.6v3.1h13.9v-3.1
		H517.8z M527.8,87.8h4.4v15.4c0,1.1-0.1,1.9-0.4,2.5c-0.3,0.6-0.8,1.1-1.6,1.4c-0.8,0.3-1.7,0.5-2.9,0.6c-1.2,0.1-2.6,0.1-4.2,0.1
		c-0.1-0.6-0.3-1.2-0.6-2c-0.3-0.7-0.6-1.4-0.9-2c1.2,0,2.3,0.1,3.2,0.1c1,0,1.7,0,2,0c0.4,0,0.6-0.1,0.7-0.2
		c0.1-0.1,0.2-0.3,0.2-0.6V87.8z"/>
	<path class="st0" d="M561.4,91.7h4.7c-0.2,2.1-0.6,3.9-1.1,5.6c-0.5,1.7-1.3,3.2-2.4,4.5c-1.1,1.3-2.5,2.5-4.4,3.5
		c-1.9,1-4.2,1.8-7.2,2.5c-0.1-0.4-0.3-0.8-0.6-1.3c-0.3-0.5-0.6-1-0.9-1.4c-0.3-0.5-0.7-0.9-1-1.1c2.6-0.5,4.7-1.2,6.3-1.9
		c1.6-0.7,2.9-1.6,3.8-2.6c0.9-1,1.5-2.1,1.9-3.4C560.9,94.8,561.2,93.3,561.4,91.7z M555.2,66.5h29.7v26.7h-29.7V66.5z M559.5,70.3
		v3.9h21v-3.9H559.5z M559.5,77.8v3.9h21v-3.9H559.5z M559.5,85.4v4h21v-4H559.5z M572.6,90.3h4.5v11.3c0,0.7,0.1,1.2,0.4,1.4
		c0.3,0.2,0.9,0.3,1.8,0.3c0.2,0,0.5,0,1.1,0s1.1,0,1.8,0c0.6,0,1.3,0,1.8,0c0.6,0,1,0,1.3,0c0.6,0,1.1-0.1,1.4-0.4
		c0.3-0.3,0.5-0.9,0.6-1.8c0.1-0.9,0.2-2.3,0.3-4.1c0.3,0.2,0.7,0.5,1.2,0.7c0.5,0.2,1,0.4,1.5,0.6c0.5,0.2,1,0.3,1.4,0.4
		c-0.2,2.3-0.4,4.1-0.8,5.4c-0.4,1.3-1,2.1-1.8,2.6c-0.8,0.5-1.9,0.7-3.3,0.7c-0.2,0-0.6,0-1,0c-0.5,0-1,0-1.6,0c-0.6,0-1.2,0-1.8,0
		c-0.6,0-1.1,0-1.5,0c-0.4,0-0.8,0-1,0c-1.6,0-2.9-0.2-3.8-0.5c-0.9-0.3-1.5-0.9-1.9-1.8c-0.3-0.8-0.5-2-0.5-3.4V90.3z"/>
	<path class="st0" d="M613.7,93.5c-1-1.2-2-2.4-3.2-3.6c-1.2-1.2-2.3-2.4-3.5-3.5c-1.2-1.1-2.3-2.2-3.4-3l3.8-3.3
		c1.1,0.9,2.3,1.9,3.5,3.1c1.2,1.2,2.5,2.4,3.6,3.6c1.2,1.2,2.2,2.4,3.1,3.4L613.7,93.5z"/>
	<path class="st0" d="M629.5,89c1.8-0.4,3.9-1,6.4-1.7c2.5-0.7,5-1.5,7.6-2.2l0.6,4c-2.3,0.7-4.6,1.5-7,2.2c-2.4,0.7-4.5,1.4-6.5,2
		L629.5,89z M630.2,74h13.5V78h-13.5V74z M635.2,65h4.1v37.5c0,1.1-0.1,1.9-0.4,2.5c-0.2,0.6-0.7,1.1-1.3,1.5
		c-0.6,0.3-1.4,0.6-2.4,0.7c-1,0.1-2.2,0.1-3.7,0.1c-0.1-0.5-0.2-1.2-0.4-2c-0.2-0.8-0.5-1.5-0.8-2.1c0.9,0,1.8,0,2.6,0s1.3,0,1.6,0
		c0.3,0,0.5-0.1,0.6-0.2c0.1-0.1,0.2-0.3,0.2-0.6V65z M655.5,90.3h4.3c-0.2,2.2-0.6,4.3-1.1,6.1c-0.5,1.8-1.3,3.5-2.4,4.9
		c-1.1,1.4-2.6,2.7-4.5,3.8c-1.9,1.1-4.4,1.9-7.4,2.6c-0.2-0.5-0.5-1.1-0.9-1.8c-0.4-0.7-0.9-1.3-1.3-1.7c2.7-0.6,4.9-1.3,6.6-2.1
		c1.7-0.8,3-1.8,3.9-3c0.9-1.1,1.6-2.4,2-3.9C655,93.8,655.3,92.1,655.5,90.3z M643.5,94.1h28.2v3.6h-28.2V94.1z M644.3,68.5h13v3.6
		h-13V68.5z M646.3,76h22.9v14.7h-22.9V76z M650,64.9h3.9V75H650V64.9z M650.4,79.2v2.7H665v-2.7H650.4z M650.4,84.9v2.7H665v-2.7
		H650.4z M658,100.4l2.6-2.7c1.3,0.6,2.7,1.4,4.2,2.2c1.5,0.8,3,1.6,4.4,2.4c1.4,0.8,2.6,1.5,3.5,2.1l-2.7,3.1
		c-0.9-0.6-2-1.4-3.4-2.2c-1.4-0.8-2.8-1.7-4.3-2.5C660.8,101.9,659.3,101.1,658,100.4z M658.7,68.5H672v3.6h-13.3V68.5z
		 M662.2,64.9h3.9V75h-3.9V64.9z"/>
	<path class="st0" d="M692.3,75.2l3.8,1.6c-1.1,1.8-2.3,3.7-3.8,5.5c-1.4,1.8-2.9,3.6-4.5,5.2c-1.6,1.6-3.2,3.1-4.7,4.3
		c-0.1-0.3-0.3-0.8-0.6-1.3c-0.2-0.6-0.5-1.1-0.8-1.7c-0.3-0.6-0.6-1-0.8-1.4c1.4-1,2.8-2.1,4.2-3.5c1.4-1.3,2.7-2.7,4-4.2
		C690.4,78.2,691.4,76.7,692.3,75.2z M691.3,65l4.1,1.7c-1,1.4-2.1,2.7-3.4,4.1s-2.6,2.7-4.1,3.9c-1.4,1.2-2.8,2.3-4.2,3.3
		c-0.2-0.4-0.4-0.8-0.6-1.2c-0.3-0.4-0.6-0.9-0.8-1.3c-0.3-0.4-0.5-0.8-0.8-1.1c1.2-0.8,2.5-1.7,3.7-2.7c1.2-1,2.4-2.1,3.5-3.3
		S690.7,66.1,691.3,65z M688,84.3l4.1-4.1l0.2,0.1v27.4H688V84.3z M695.2,91.6h28.9v3.7h-28.9V91.6z M696.3,84.6h27v3.6h-27V84.6z
		 M698.8,97.7l3.1-2.1c1,1,2.1,2,3.2,3.2c1.1,1.2,2,2.2,2.5,3.1l-3.3,2.4c-0.3-0.6-0.8-1.3-1.5-2.1c-0.6-0.8-1.3-1.6-2-2.4
		C700.1,99,699.4,98.3,698.8,97.7z M698.9,66.3h22.4v15.6h-22.4V66.3z M703.1,69.5v3.1H717v-3.1H703.1z M703.1,75.6v3.1H717v-3.1
		H703.1z M713.1,87.8h4.4v15.4c0,1.1-0.1,1.9-0.4,2.5c-0.3,0.6-0.8,1.1-1.6,1.4c-0.8,0.3-1.7,0.5-2.9,0.6c-1.2,0.1-2.6,0.1-4.2,0.1
		c-0.1-0.6-0.3-1.2-0.6-2c-0.3-0.7-0.6-1.4-0.9-2c1.2,0,2.3,0.1,3.2,0.1c1,0,1.7,0,2,0c0.4,0,0.6-0.1,0.7-0.2
		c0.1-0.1,0.2-0.3,0.2-0.6V87.8z"/>
	<path class="st0" d="M771.6,75.1l3.2,2c-2.3,2.3-5,4.5-8,6.4c-3,1.9-6.2,3.6-9.6,5.2c-3.4,1.5-6.9,2.9-10.6,4.1
		c-3.7,1.2-7.3,2.2-10.9,3.1c-0.2-0.3-0.4-0.7-0.6-1.1c-0.2-0.4-0.5-0.9-0.7-1.3c-0.2-0.4-0.5-0.8-0.7-1c3.7-0.7,7.3-1.7,10.9-2.7
		c3.6-1.1,7.1-2.4,10.4-3.8c3.3-1.4,6.4-3.1,9.2-4.8C767,79.2,769.5,77.2,771.6,75.1z M734.8,83.6h41.1v3.8h-41.1V83.6z M734.9,67.8
		h19.4v3.8h-19.4V67.8z M738.7,76.5h26.6v3.6h-26.6V76.5z M743.7,64.9h4.3v9.9h-4.3V64.9z M743.7,90.5h28v17.1h-4.4V93.9H748v13.8
		h-4.2V90.5z M746.7,97h21.8v2.9h-21.8V97z M746.7,103h21.7v3.4h-21.7V103z M750.2,73.5h4.3v12.4h-4.3V73.5z M756.1,67.8h19.7v3.8
		h-19.7V67.8z M762.7,64.9h4.3v10h-4.3V64.9z"/>
</g>
</svg>
