<!-- Generator: Adobe Illustrator 25.0.0, SVG Export Plug-In  -->
<svg version="1.1" xmlns="http://www.w3.org/2000/svg" xmlns:xlink="http://www.w3.org/1999/xlink" x="0px" y="0px" width="918.8px"
	 height="108px" viewBox="0 0 918.8 108" style="overflow:visible;enable-background:new 0 0 918.8 108;" xml:space="preserve">
<style type="text/css">
	.st0{fill:#333337;}
</style>
<defs>
</defs>
<g>
	<path class="st0" d="M11,0.6l4.1,1.2c-1,2.6-2.2,5.2-3.5,7.8c-1.4,2.6-2.8,5-4.4,7.3c-1.6,2.3-3.2,4.3-4.8,6
		c-0.2-0.4-0.4-0.8-0.6-1.4c-0.3-0.6-0.6-1.1-0.9-1.7c-0.3-0.6-0.6-1-0.9-1.3c1.5-1.5,2.9-3.2,4.3-5.1c1.4-1.9,2.6-4,3.8-6.2
		C9.2,5.1,10.2,2.8,11,0.6z M6.4,12.8l4.1-4.1l0,0v34.4H6.4V12.8z M20.6,0.6l4.3,1c-0.6,2.4-1.4,4.8-2.3,7.1
		c-0.9,2.3-1.8,4.5-2.9,6.6c-1,2-2.2,3.8-3.4,5.4c-0.2-0.2-0.6-0.6-1-0.9c-0.4-0.4-0.9-0.7-1.3-1.1c-0.4-0.4-0.9-0.6-1.2-0.9
		c1.2-1.4,2.3-3,3.2-4.8c1-1.8,1.8-3.8,2.6-5.9C19.4,4.9,20.1,2.8,20.6,0.6z M19.6,20.6l4.2,0.8c-0.5,2-1,4-1.7,5.9
		c-0.7,1.9-1.4,3.7-2.3,5.4c-0.8,1.7-1.7,3.1-2.6,4.4c-0.2-0.2-0.6-0.5-1.1-0.8c-0.5-0.3-0.9-0.6-1.4-0.9c-0.5-0.3-0.9-0.5-1.2-0.7
		c1.4-1.7,2.5-3.8,3.6-6.4C18.2,25.8,19,23.2,19.6,20.6z M20.8,9h20v4.1H19.1L20.8,9z M27.1,10.7h4.3v27.4c0,1.1-0.1,2-0.4,2.7
		c-0.3,0.7-0.7,1.2-1.5,1.5c-0.7,0.3-1.6,0.6-2.7,0.7c-1.1,0.1-2.3,0.2-3.8,0.2c-0.1-0.6-0.3-1.4-0.6-2.2c-0.3-0.8-0.6-1.6-0.9-2.1
		c1,0,2,0,2.9,0c0.9,0,1.5,0,1.8,0c0.3,0,0.5,0,0.6-0.1c0.1-0.1,0.2-0.3,0.2-0.6V10.7z M34.1,21.4l3.9-1.3c0.9,1.6,1.7,3.3,2.4,5.1
		c0.7,1.8,1.4,3.6,1.9,5.4c0.5,1.8,0.9,3.4,1.2,4.8l-4.2,1.5c-0.2-1.4-0.5-3-1.1-4.8c-0.5-1.8-1.1-3.6-1.8-5.5
		C35.6,24.8,34.9,23.1,34.1,21.4z M39.5,9h0.6l0.7-0.1l3,0.6c-0.3,1.8-0.6,3.6-1,5.5c-0.4,1.9-0.7,3.5-1.1,4.8l-3.7-0.7
		c0.2-0.8,0.3-1.7,0.5-2.8c0.2-1.1,0.4-2.2,0.5-3.4c0.2-1.2,0.3-2.3,0.4-3.3V9z"/>
	<path class="st0" d="M55.2,7.8h4v34.1h-4V7.8z M57.6,20.5h12.3v3.8H57.6V20.5z M57.8,7.8h14.1v30.6H57.8v-3.9h10.1V11.7H57.8V7.8z
		 M62,0.3l4.7,0.8c-0.5,1.5-1,3-1.6,4.5c-0.6,1.5-1.1,2.8-1.5,3.8l-3.5-0.8c0.2-0.8,0.4-1.6,0.7-2.6c0.2-1,0.5-2,0.7-2.9
		C61.8,2,61.9,1.1,62,0.3z M78.8,0.3l4.2,1c-0.6,2.3-1.3,4.5-2.1,6.7c-0.8,2.2-1.7,4.3-2.6,6.2c-1,2-2,3.7-3,5.1
		c-0.2-0.2-0.6-0.5-1-0.9c-0.4-0.3-0.9-0.6-1.3-0.9c-0.4-0.3-0.9-0.6-1.2-0.7c1-1.3,2-2.9,2.9-4.7c0.9-1.8,1.7-3.7,2.4-5.7
		C77.7,4.4,78.3,2.4,78.8,0.3z M76.6,20.2l3.4-1.9c0.8,1,1.7,2.2,2.6,3.5c0.9,1.3,1.8,2.5,2.5,3.7s1.4,2.3,1.9,3.2l-3.7,2.3
		c-0.4-1-1-2-1.8-3.3c-0.8-1.2-1.6-2.5-2.4-3.8C78.3,22.5,77.4,21.3,76.6,20.2z M78.2,7.6H92v4H78.2V7.6z M90.5,7.6h4.1
		c0,0.5,0,1,0,1.3c0,0.3,0,0.6,0,0.8c-0.2,5.3-0.3,9.7-0.5,13.3s-0.4,6.6-0.6,9c-0.2,2.3-0.5,4.1-0.8,5.4c-0.3,1.3-0.7,2.2-1.2,2.8
		c-0.6,0.8-1.2,1.3-1.8,1.6c-0.6,0.3-1.4,0.5-2.3,0.6c-0.8,0.1-1.8,0.1-3.1,0.1c-1.3,0-2.6-0.1-3.9-0.1c0-0.6-0.2-1.3-0.4-2.1
		c-0.3-0.8-0.6-1.5-1-2.1c1.5,0.1,2.9,0.2,4.1,0.2c1.3,0,2.2,0,2.8,0c0.5,0,0.8,0,1.1-0.1s0.6-0.3,0.9-0.6c0.4-0.4,0.7-1.3,1-2.5
		c0.3-1.2,0.5-3,0.7-5.3c0.2-2.3,0.4-5.2,0.6-8.7c0.2-3.5,0.3-7.8,0.4-12.7V7.6z"/>
	<path class="st0" d="M127.3,27.3l3,2.3c-1.3,1.1-2.8,2.3-4.5,3.4c-1.7,1.1-3.6,2.2-5.5,3.2c-2,1-4,1.9-6,2.8c-2,0.8-4,1.5-5.9,2.1
		c-0.2-0.5-0.6-1.1-1-1.8c-0.4-0.7-0.8-1.3-1.3-1.8c1.9-0.4,3.8-1,5.8-1.7c2-0.7,4-1.5,5.9-2.4c1.9-0.9,3.7-1.9,5.4-2.9
		C124.8,29.3,126.1,28.3,127.3,27.3z M124.6,21.8l2.8,2.1c-1.1,0.8-2.4,1.7-3.9,2.5c-1.5,0.8-3,1.7-4.7,2.5c-1.7,0.8-3.4,1.5-5,2.2
		c-1.7,0.7-3.3,1.2-4.8,1.7c-0.2-0.5-0.6-1.1-1-1.7c-0.4-0.7-0.8-1.2-1.2-1.7c1.5-0.3,3-0.8,4.7-1.3c1.7-0.6,3.3-1.2,5-1.9
		c1.6-0.7,3.2-1.4,4.6-2.1C122.4,23.3,123.6,22.6,124.6,21.8z M126.2,13.1l3.6,1.5c-1.6,1.6-3.5,3.1-5.8,4.4
		c-2.3,1.3-4.7,2.5-7.2,3.5c-2.5,1-5,1.9-7.5,2.6c-0.2-0.3-0.4-0.6-0.6-1.1c-0.3-0.4-0.6-0.9-0.9-1.3c-0.3-0.4-0.6-0.8-0.8-1.1
		c2.4-0.6,4.8-1.2,7.2-2.1c2.4-0.8,4.7-1.8,6.8-2.9C123.1,15.6,124.8,14.4,126.2,13.1z M107.1,4.3h39.2v10h-4.4v-6h-30.5v6h-4.3V4.3
		z M113.4,11.9h26.4v3.8h-26.4V11.9z M121.4,18.9l3.3-1.8c1.8,1.5,3.2,3.2,4.3,5.1c1.1,1.9,1.9,3.8,2.4,5.8c0.5,2,0.7,3.8,0.6,5.6
		c0,1.8-0.3,3.3-0.8,4.7c-0.5,1.4-1.2,2.4-2,3c-0.8,0.7-1.5,1.2-2.3,1.5c-0.8,0.2-1.7,0.4-2.8,0.4c-0.5,0-1.1,0-1.8,0
		c-0.7,0-1.4,0-2.1-0.1c0-0.6-0.1-1.3-0.3-2.1c-0.2-0.8-0.5-1.5-0.9-2.1c0.8,0.1,1.6,0.1,2.4,0.2c0.7,0,1.4,0.1,1.8,0.1
		c0.6,0,1.1-0.1,1.6-0.2c0.4-0.1,0.8-0.4,1.2-0.8c0.5-0.4,0.9-1.2,1.2-2.2c0.3-1,0.5-2.2,0.4-3.6c0-1.4-0.2-2.9-0.6-4.4
		c-0.4-1.6-1.1-3.1-2-4.7S122.9,20.2,121.4,18.9z M122.8,1.3l4.6-1.3c0.5,0.8,1,1.8,1.5,2.8c0.5,1,0.9,1.9,1,2.7l-4.8,1.5
		c-0.2-0.8-0.5-1.7-0.9-2.7C123.7,3.1,123.2,2.2,122.8,1.3z M139.7,17l3.5,2.9c-1.3,1.1-2.8,2.2-4.3,3.2c-1.5,1.1-3.1,2.1-4.6,3.1
		c-1.5,1-3,1.8-4.3,2.6l-2.8-2.5c1.3-0.8,2.7-1.7,4.3-2.7s3-2.2,4.5-3.3C137.4,19.1,138.7,18,139.7,17z M136.6,24.4
		c0.6,2,1.5,3.8,2.6,5.6c1.1,1.7,2.4,3.3,4,4.6c1.5,1.3,3.2,2.4,5.1,3.1c-0.3,0.3-0.6,0.6-1,1c-0.4,0.4-0.7,0.8-1,1.3
		c-0.3,0.4-0.6,0.9-0.8,1.2c-2.1-1-3.9-2.2-5.5-3.8c-1.6-1.6-3-3.4-4.3-5.4c-1.2-2-2.2-4.3-2.9-6.7L136.6,24.4z"/>
	<path class="st0" d="M163.3,31.2l-1.2-3c1.9-0.7,3.4-1.6,4.4-2.8c1-1.1,1.5-2.5,1.5-4.1l-0.6-4.2l2.5,3.8c-0.4,0.4-0.8,0.6-1.2,0.8
		c-0.4,0.2-0.9,0.3-1.4,0.3c-1,0-2-0.3-2.7-0.9c-0.8-0.6-1.2-1.5-1.2-2.7c0-1.2,0.4-2.1,1.2-2.7c0.8-0.6,1.7-1,2.7-1
		c1.4,0,2.5,0.5,3.3,1.6c0.8,1,1.1,2.4,1.1,4.2c0,2.6-0.8,4.8-2.3,6.7C168,29,166,30.3,163.3,31.2z"/>
	<path class="st0" d="M195.5,22.4h1.1l0.7-0.1l2.2,0.8c-0.8,5-2.1,9.2-4,12.5c-1.9,3.3-4.1,5.9-6.7,7.6c-0.2-0.3-0.5-0.7-0.8-1
		c-0.4-0.4-0.7-0.8-1.1-1.1c-0.4-0.4-0.7-0.6-1-0.8c2.5-1.5,4.6-3.7,6.2-6.6c1.7-2.9,2.8-6.4,3.4-10.5V22.4z M187.5,26.6
		c-0.1-0.3-0.2-0.7-0.4-1.2c-0.2-0.5-0.4-0.9-0.6-1.4c-0.2-0.5-0.4-0.9-0.5-1.1c0.3-0.1,0.7-0.2,1.1-0.4c0.4-0.2,0.8-0.5,1.2-0.9
		c0.3-0.4,0.8-1,1.5-1.8c0.7-0.8,1.4-1.8,2.1-2.8c0.8-1,1.5-2,2.2-3c0.7-1,1.2-1.8,1.6-2.4v-0.1l1.2-0.5l2.7,1.3
		c-0.6,0.8-1.2,1.7-2,2.7c-0.8,1.1-1.6,2.2-2.4,3.3c-0.8,1.1-1.7,2.2-2.5,3.2c-0.8,1-1.6,1.9-2.3,2.6c-0.6,0.3-1.1,0.6-1.5,0.9
		c-0.4,0.3-0.8,0.5-1.1,0.8C187.7,26.1,187.5,26.3,187.5,26.6z M186.8,11.1h10v3.5h-10V11.1z M187.5,26.6v-3.2l1.8-0.9h7.4l0,3.5
		h-6.3c-0.6,0-1.2,0.1-1.7,0.2C188.1,26.2,187.7,26.4,187.5,26.6z M188.2,2.6l3.2-2c0.7,0.7,1.5,1.5,2.2,2.4
		c0.8,0.8,1.5,1.7,2.1,2.5c0.7,0.8,1.2,1.5,1.7,2.1l-3.3,2.4c-0.4-0.7-1-1.4-1.6-2.3c-0.7-0.9-1.4-1.7-2.1-2.7
		C189.7,4.1,188.9,3.3,188.2,2.6z M195.5,31.8c0.9,2,2.1,3.5,3.7,4.5c1.6,1,3.5,1.6,5.7,1.9c2.3,0.3,4.8,0.5,7.8,0.5
		c1.6,0,3.4,0,5.4-0.1c2-0.1,4-0.1,6-0.2s3.9-0.2,5.5-0.4c-0.2,0.3-0.4,0.7-0.6,1.2c-0.2,0.5-0.3,1-0.5,1.5c-0.1,0.5-0.3,1-0.3,1.4
		c-1.5,0.1-3.1,0.2-4.9,0.2s-3.5,0.1-5.3,0.1c-1.8,0-3.6,0-5.3,0c-2.7,0-5.1-0.1-7.2-0.4c-2.1-0.2-4-0.7-5.6-1.3
		c-1.6-0.6-3-1.6-4.2-2.8c-1.2-1.2-2.2-2.9-3.1-5L195.5,31.8z M202.6,5.1h4.2v30h-4.2V5.1z M204.7,5.1h19.6v12.7h-19.6v-3.6H220V8.7
		h-15.3V5.1z M205,21.5h21.1v13.6H205v-3.6h16.8v-6.4H205V21.5z M211.4,0.3l5.1,0.7c-0.5,1.2-1,2.4-1.5,3.5c-0.5,1.1-1,2.1-1.5,2.9
		l-4-0.8c0.3-0.9,0.7-2,1.1-3.1C210.9,2.2,211.2,1.2,211.4,0.3z"/>
	<path class="st0" d="M238.4,34.7c1.6-0.8,3.6-1.8,5.8-3c2.2-1.2,4.6-2.5,7.1-3.9c2.5-1.4,4.9-2.8,7.3-4.2l1.3,3.6
		c-2.1,1.4-4.2,2.7-6.5,4.1c-2.2,1.4-4.4,2.7-6.4,3.9c-2.1,1.3-4,2.4-5.8,3.5L238.4,34.7z M239.6,7.8h40.6V12h-40.6V7.8z
		 M241.6,16.6l3.3-2.3c1,0.8,1.9,1.7,2.9,2.7c1,1,1.9,2,2.8,3c0.8,1,1.5,1.9,2,2.7l-3.5,2.6c-0.5-0.8-1.1-1.8-1.9-2.8
		c-0.8-1-1.7-2.1-2.7-3.2S242.6,17.5,241.6,16.6z M257.5,0.5h4.5v37.1c0,1.4-0.2,2.5-0.5,3.2c-0.3,0.7-0.9,1.3-1.8,1.6
		c-0.9,0.4-2,0.7-3.5,0.8c-1.4,0.1-3.2,0.1-5.3,0.1c-0.1-0.6-0.3-1.4-0.6-2.3c-0.3-0.9-0.6-1.7-0.9-2.3c1.5,0,2.9,0.1,4.2,0.1
		c1.3,0,2.2,0,2.7,0c0.4,0,0.7-0.1,0.9-0.3c0.2-0.2,0.3-0.5,0.3-0.9V0.5z M261.6,11.6c0.9,2.6,1.9,5.1,3.2,7.5
		c1.3,2.4,2.8,4.7,4.5,6.8c1.7,2.1,3.5,4,5.6,5.6c2,1.6,4.2,2.9,6.6,4c-0.3,0.3-0.7,0.7-1.1,1.1c-0.4,0.4-0.8,0.9-1.2,1.4
		c-0.4,0.5-0.7,0.9-0.9,1.4c-3.2-1.6-6.1-3.8-8.7-6.5c-2.6-2.7-4.8-5.7-6.7-9.2c-1.9-3.5-3.5-7.1-4.7-11L261.6,11.6z M274.7,13.8
		l3.8,2.7c-1,1.2-2.1,2.4-3.3,3.6c-1.2,1.2-2.4,2.4-3.6,3.5c-1.2,1.1-2.3,2.1-3.4,3l-3.2-2.4c1-0.9,2.1-1.9,3.3-3.1
		c1.2-1.2,2.4-2.4,3.5-3.7C272.9,16.1,273.9,14.9,274.7,13.8z M265.7,3.3l2.6-2.8c1,0.5,2,1,3,1.6c1.1,0.6,2.1,1.2,3.1,1.8
		c1,0.6,1.8,1.2,2.4,1.7l-2.7,3.1c-0.6-0.6-1.4-1.1-2.4-1.8c-1-0.6-2-1.3-3-1.9C267.6,4.3,266.6,3.8,265.7,3.3z"/>
	<path class="st0" d="M290.4,16.4l2.4-3.2c0.9,0.3,1.8,0.7,2.8,1.2c1,0.5,1.9,1,2.8,1.5c0.9,0.5,1.6,1.1,2.1,1.5l-2.6,3.5
		c-0.5-0.5-1.2-1-2-1.6c-0.8-0.6-1.8-1.1-2.7-1.7C292.2,17.2,291.3,16.8,290.4,16.4z M290.9,40.1c0.6-1.2,1.3-2.7,2.1-4.4
		c0.7-1.7,1.5-3.5,2.2-5.4c0.8-1.9,1.4-3.8,2-5.6l3.5,2.3c-0.6,1.7-1.2,3.4-1.8,5.2c-0.7,1.8-1.3,3.6-2,5.3c-0.7,1.7-1.4,3.4-2,4.9
		L290.9,40.1z M292.6,3.9l2.4-3.1c0.9,0.3,1.8,0.8,2.8,1.3c1,0.5,1.9,1.1,2.8,1.6c0.9,0.5,1.6,1.1,2.1,1.6l-2.6,3.5
		c-0.5-0.5-1.2-1.1-2.1-1.7c-0.8-0.6-1.7-1.2-2.7-1.7C294.4,4.8,293.5,4.3,292.6,3.9z M302.8,7.5h3.8v12.6c0,1.7-0.1,3.6-0.2,5.6
		c-0.1,2-0.3,4-0.7,6.1c-0.3,2.1-0.8,4.1-1.4,6c-0.6,2-1.5,3.7-2.5,5.4c-0.2-0.2-0.5-0.5-0.9-0.8c-0.4-0.3-0.8-0.6-1.3-0.9
		c-0.4-0.3-0.8-0.5-1.1-0.6c1.3-2,2.2-4.2,2.9-6.7c0.6-2.4,1-4.9,1.2-7.4c0.2-2.5,0.3-4.7,0.3-6.8V7.5z M305.2,7.5h27.5v3.9h-27.5
		V7.5z M308.4,14.6h10.6v3.3h-10.6V14.6z M308.5,21.1h2.9v15.3h-2.9V21.1z M310.2,21.1h8.8v12.7h-8.8v-3.3h5.8v-6.2h-5.8V21.1z
		 M328.4,15l3.8,0.7c-1.4,6.2-3.5,11.5-6.2,16.1c-2.7,4.5-6.2,8.2-10.4,11.1c-0.2-0.2-0.5-0.6-0.8-0.9s-0.7-0.7-1.1-1.1
		c-0.4-0.4-0.7-0.7-1-0.9c4.2-2.5,7.5-5.9,10.1-10.1C325.3,25.7,327.2,20.7,328.4,15z M319.4,0.9h4c0.1,3.9,0.2,7.7,0.4,11.3
		c0.2,3.7,0.5,7,0.8,10.1c0.4,3.1,0.8,5.8,1.2,8.2c0.5,2.3,1,4.2,1.6,5.5c0.6,1.3,1.2,2,1.8,2c0.4,0,0.7-0.6,0.9-1.8
		c0.3-1.2,0.5-2.9,0.6-5.1c0.2,0.3,0.6,0.6,1,0.9c0.4,0.3,0.8,0.6,1.2,0.8c0.4,0.2,0.7,0.4,0.9,0.6c-0.3,2.6-0.8,4.7-1.3,6.1
		c-0.5,1.4-1.1,2.4-1.7,2.9c-0.6,0.5-1.2,0.8-1.8,0.8c-1.4,0-2.6-0.7-3.7-2.1c-1-1.4-1.9-3.3-2.7-5.9c-0.7-2.5-1.3-5.6-1.8-9.1
		c-0.5-3.5-0.9-7.4-1.1-11.6C319.7,10.2,319.5,5.7,319.4,0.9z M324.3,2.8l2.4-2.2c1.1,0.6,2.2,1.4,3.4,2.3c1.2,0.9,2.1,1.7,2.7,2.4
		l-2.5,2.5c-0.6-0.7-1.4-1.6-2.6-2.5C326.6,4.3,325.4,3.5,324.3,2.8z"/>
	<path class="st0" d="M342.7,16.5l2.3-3.2c1,0.4,2,0.8,3.1,1.3c1.1,0.5,2.2,1.1,3.1,1.6c1,0.6,1.8,1.1,2.4,1.6l-2.4,3.6
		c-0.6-0.5-1.4-1.1-2.4-1.7c-1-0.6-2-1.2-3.1-1.8C344.7,17.5,343.7,17,342.7,16.5z M344.3,39.7c0.8-1.2,1.8-2.6,2.8-4.2
		c1-1.6,2-3.4,3.1-5.2c1-1.8,2-3.6,3-5.4l3.2,2.9c-0.8,1.6-1.7,3.3-2.6,5c-0.9,1.7-1.9,3.4-2.9,5.1c-1,1.7-1.9,3.2-2.8,4.7
		L344.3,39.7z M345.3,4.1l2.4-3.2c1,0.4,2,0.8,3.1,1.4c1.1,0.6,2.2,1.1,3.2,1.7c1,0.6,1.8,1.1,2.5,1.7L354,9.3
		c-0.6-0.6-1.4-1.1-2.4-1.8c-1-0.6-2-1.2-3.1-1.8C347.4,5,346.3,4.5,345.3,4.1z M356.6,19.5h27.6v4.1h-27.6V19.5z M359,41.8
		c-0.1-0.3-0.2-0.7-0.4-1.2c-0.2-0.5-0.4-1.1-0.6-1.6c-0.2-0.6-0.4-1.1-0.6-1.5c0.5-0.1,1-0.4,1.4-1c0.5-0.5,1-1.2,1.6-2.1
		c0.3-0.4,0.7-1.1,1.3-2c0.6-0.9,1.2-2.1,1.8-3.3c0.7-1.3,1.4-2.7,2-4.2c0.7-1.5,1.3-3,1.8-4.5l4.7,1.5c-0.9,2.1-2,4.2-3.1,6.4
		c-1.1,2.1-2.3,4.1-3.5,6c-1.2,1.9-2.4,3.6-3.6,5.1v0.1c-0.6,0.3-1.1,0.6-1.5,0.9c-0.4,0.3-0.7,0.5-1,0.8
		C359.1,41.3,359,41.6,359,41.8z M358.5,7.9h23.9V12h-23.9V7.9z M359,41.8l-0.2-3.5l2.4-1.4l18.1-2c0,0.6,0,1.3,0.1,2
		c0.1,0.8,0.1,1.4,0.2,1.8c-3.4,0.4-6.2,0.8-8.5,1.1c-2.3,0.3-4.2,0.5-5.6,0.7c-1.5,0.2-2.6,0.4-3.4,0.5c-0.8,0.1-1.4,0.3-1.9,0.4
		C359.6,41.6,359.2,41.7,359,41.8z M368.1,0.4h4.4v21.8h-4.4V0.4z M373.2,29.7l3.5-1.7c1.1,1.4,2.1,2.8,3.2,4.4c1,1.6,2,3.1,2.8,4.7
		c0.8,1.5,1.5,2.9,1.9,4.1l-3.9,2c-0.4-1.2-1-2.6-1.8-4.2c-0.8-1.6-1.7-3.1-2.7-4.8C375.4,32.6,374.3,31.1,373.2,29.7z"/>
	<path class="st0" d="M413.3,23.4h4.6c-0.2,2.1-0.5,4.1-1,5.9c-0.4,1.8-1.1,3.4-2,4.9c-0.9,1.5-2.1,2.8-3.6,3.9
		c-1.5,1.1-3.4,2.1-5.8,3c-2.3,0.8-5.2,1.5-8.6,2.1c-0.1-0.4-0.3-0.8-0.6-1.3c-0.2-0.5-0.5-1-0.8-1.4c-0.3-0.5-0.6-0.9-0.9-1.2
		c3.1-0.4,5.7-1,7.8-1.6c2.1-0.7,3.9-1.4,5.2-2.4c1.4-0.9,2.4-1.9,3.1-3.1c0.7-1.2,1.3-2.5,1.6-3.9
		C412.8,26.7,413.1,25.1,413.3,23.4z M395.5,20.5H437v3.8h-41.5V20.5z M396.5,27.4H436v3.7h-39.5V27.4z M397,6.5h38v3.9h-38V6.5z
		 M399.6,13.6h33.1v3.7h-33.1V13.6z M403.2,1.7l3.9-1.5c0.8,0.8,1.5,1.8,2.2,2.8c0.7,1.1,1.2,2,1.6,2.8l-4.1,1.8
		c-0.3-0.9-0.8-1.8-1.5-2.9C404.7,3.6,404,2.6,403.2,1.7z M413.7,8.8h4.5v14.6h-4.5V8.8z M416.2,34.4l1.9-3.2
		c1.5,0.5,3.2,1.1,4.9,1.8c1.7,0.7,3.5,1.4,5.2,2.2c1.7,0.8,3.4,1.5,4.9,2.3c1.5,0.8,2.8,1.5,3.8,2.1l-2,3.8c-1-0.7-2.3-1.4-3.8-2.2
		c-1.5-0.8-3.1-1.6-4.8-2.4c-1.7-0.8-3.4-1.6-5.2-2.4C419.5,35.7,417.8,35,416.2,34.4z M424.3,0.2l4.7,1.2c-0.8,1.3-1.6,2.5-2.5,3.7
		c-0.9,1.2-1.7,2.2-2.4,3.1L420.3,7c0.5-0.6,0.9-1.3,1.4-2.1c0.5-0.8,1-1.6,1.4-2.4C423.7,1.6,424,0.9,424.3,0.2z"/>
	<path class="st0" d="M447.4,30.8h41.5v3.5h-41.5V30.8z M448.3,17h39.8v8.9h-4.3v-5.7h-31.3v5.7h-4.1V17z M460.2,0.7l1.8,2.6
		c-1.4,0.6-3,1-4.7,1.4c-1.8,0.4-3.3,0.7-4.7,0.9L451,3.1c0.9-0.2,1.9-0.4,3-0.7c1.1-0.3,2.2-0.6,3.3-0.9
		C458.4,1.3,459.4,1,460.2,0.7z M451,3.1l4.1,1.1l0.9,14.3H452L451,3.1z M453.2,7h8.5v2.9h-8.5V7z M453.4,12h8.5v2.8h-8.5V12z
		 M456.2,22.8h21.1V26h-21.1V22.8z M466.5,29.1h4.3v9.7c0,1-0.1,1.8-0.4,2.4c-0.3,0.6-0.9,1-1.7,1.3c-0.8,0.3-1.9,0.4-3.1,0.5
		c-1.2,0-2.8,0.1-4.6,0.1c-0.1-0.6-0.3-1.2-0.6-1.8c-0.3-0.7-0.6-1.3-0.9-1.8c0.9,0,1.7,0.1,2.6,0.1c0.8,0,1.5,0,2.2,0s1.1,0,1.3,0
		c0.4,0,0.6-0.1,0.8-0.2c0.1-0.1,0.2-0.3,0.2-0.6V29.1z M470.3,8.5l2.9,0.9c-1.1,1.5-2.5,2.9-4.1,4.3c-1.7,1.3-3.3,2.5-5,3.3
		c-0.2-0.3-0.6-0.7-1.1-1.2c-0.5-0.5-0.9-0.8-1.2-1.1c1.6-0.7,3.2-1.7,4.8-2.7C468,11,469.3,9.8,470.3,8.5z M470.2,0.8l2.9,0.8
		c-1,1.4-2.3,2.8-3.9,4c-1.6,1.3-3.2,2.3-4.7,3.1c-0.2-0.3-0.6-0.6-1.1-1c-0.5-0.4-0.9-0.7-1.3-1c1.6-0.7,3.1-1.6,4.6-2.7
		C468.1,3,469.3,2,470.2,0.8z M462.8,10.8l2.1-1.8c1,0.5,2.1,1.1,3.2,1.7c1.1,0.6,2.2,1.3,3.2,2c1,0.7,1.8,1.3,2.5,1.9l-2.3,2
		c-0.6-0.6-1.4-1.3-2.3-2s-2-1.4-3.1-2.1C464.9,12,463.8,11.4,462.8,10.8z M463,3l2.1-1.8c1,0.4,2,0.9,3.1,1.5
		c1.1,0.6,2.1,1.2,3,1.8c1,0.6,1.7,1.2,2.4,1.7l-2.2,2c-0.6-0.6-1.3-1.2-2.3-1.8c-0.9-0.6-1.9-1.3-3-1.9C465,4,464,3.5,463,3z
		 M476.2,22.8h1.1l0.9-0.2l2.5,2.3c-1.1,0.8-2.3,1.6-3.7,2.4c-1.4,0.8-2.7,1.6-4.2,2.3c-1.4,0.7-2.9,1.3-4.3,1.9
		c-0.2-0.4-0.6-0.8-1-1.2c-0.4-0.4-0.8-0.8-1-1.1c1.2-0.4,2.4-1,3.6-1.6c1.2-0.6,2.4-1.3,3.5-2c1.1-0.7,2-1.3,2.6-1.9V22.8z
		 M474.4,2h8.7v2.9h-8.7V2z M474.5,12h8v2.8h-8V12z M474.7,7h8.1v2.9h-8.1V7z M481.5,2h4.1c-0.1,1.8-0.2,3.7-0.3,5.8
		c-0.1,2-0.3,4-0.4,5.9c-0.2,1.9-0.3,3.5-0.5,4.9h-4.2c0.2-1.4,0.4-3.1,0.5-5c0.2-1.9,0.3-3.9,0.4-5.9C481.3,5.7,481.4,3.8,481.5,2z
		"/>
	<path class="st0" d="M76.5,65.1l4.1,1.2c-1,2.6-2.2,5.2-3.5,7.8c-1.4,2.6-2.8,5-4.4,7.3c-1.6,2.3-3.2,4.3-4.8,6
		c-0.2-0.4-0.4-0.8-0.6-1.4s-0.6-1.1-0.9-1.7c-0.3-0.6-0.6-1-0.9-1.3c1.5-1.5,2.9-3.2,4.3-5.1c1.4-1.9,2.6-4,3.8-6.2
		C74.7,69.6,75.7,67.4,76.5,65.1z M71.9,77.3l4.1-4.1l0,0v34.4h-4.1V77.3z M86,65.1l4.3,1c-0.6,2.4-1.4,4.8-2.3,7.1
		c-0.9,2.3-1.8,4.5-2.9,6.6c-1,2-2.2,3.8-3.4,5.4c-0.2-0.2-0.6-0.6-1-0.9c-0.4-0.4-0.9-0.7-1.3-1.1c-0.4-0.4-0.9-0.6-1.2-0.9
		c1.2-1.4,2.3-3,3.2-4.8c1-1.8,1.8-3.8,2.6-5.9C84.9,69.5,85.5,67.3,86,65.1z M85,85.1l4.2,0.8c-0.5,2-1,4-1.7,5.9
		c-0.7,1.9-1.4,3.7-2.3,5.4c-0.8,1.7-1.7,3.1-2.6,4.4c-0.2-0.2-0.6-0.5-1.1-0.8c-0.5-0.3-0.9-0.6-1.4-0.9c-0.5-0.3-0.9-0.5-1.2-0.7
		c1.4-1.7,2.5-3.8,3.6-6.4C83.6,90.3,84.4,87.7,85,85.1z M86.2,73.6h20v4.1H84.6L86.2,73.6z M92.5,75.3h4.3v27.4
		c0,1.1-0.1,2-0.4,2.7c-0.3,0.7-0.7,1.2-1.5,1.5c-0.7,0.3-1.6,0.6-2.6,0.7c-1.1,0.1-2.3,0.2-3.8,0.2c-0.1-0.6-0.3-1.4-0.6-2.2
		c-0.3-0.8-0.6-1.6-0.9-2.1c1,0,2,0,2.9,0c0.9,0,1.5,0,1.8,0c0.3,0,0.5,0,0.6-0.1c0.1-0.1,0.2-0.3,0.2-0.6V75.3z M99.5,86l3.9-1.3
		c0.9,1.6,1.7,3.3,2.4,5.1s1.4,3.6,1.9,5.4c0.5,1.8,0.9,3.4,1.2,4.8l-4.2,1.5c-0.2-1.4-0.5-3-1.1-4.8c-0.5-1.8-1.1-3.6-1.8-5.5
		C101.1,89.3,100.3,87.6,99.5,86z M104.9,73.6h0.6l0.7-0.1l3,0.6c-0.3,1.8-0.6,3.6-1,5.5c-0.4,1.9-0.7,3.5-1.1,4.8l-3.7-0.7
		c0.2-0.8,0.3-1.7,0.5-2.8c0.2-1.1,0.4-2.2,0.5-3.4c0.2-1.2,0.3-2.3,0.4-3.3V73.6z"/>
	<path class="st0" d="M135.3,74.6l4.4,1.2c-1.2,2.9-2.6,5.8-4.4,8.6c-1.8,2.8-3.8,5.3-6.2,7.6c-2.4,2.3-5,4.3-7.9,6
		c-0.2-0.3-0.5-0.7-0.9-1.1c-0.3-0.4-0.7-0.8-1.1-1.2c-0.4-0.4-0.7-0.7-1-1c2.8-1.5,5.3-3.3,7.5-5.4c2.2-2.1,4.1-4.5,5.8-7
		C133.2,79.8,134.4,77.2,135.3,74.6z M119.5,80.1h41v3.8h-41V80.1z M152.1,64.8l3.6,2.4c-2,1.4-4.3,2.7-6.8,3.8
		c-2.5,1.2-5.2,2.2-8,3.2c-2.8,1-5.7,1.8-8.6,2.6c-2.9,0.8-5.7,1.4-8.4,2c-0.2-0.3-0.5-0.7-0.9-1.2c-0.4-0.5-0.7-0.9-1.1-1.4
		c-0.4-0.4-0.7-0.8-1-1.1c2.9-0.4,5.8-1,8.7-1.7c2.9-0.7,5.8-1.5,8.5-2.3s5.3-1.8,7.7-2.9C148.2,67.1,150.3,66,152.1,64.8z
		 M123.9,68.2l3-2.6c2.4,0.6,5,1.3,7.8,2.1c2.8,0.8,5.5,1.7,8.3,2.6c2.8,0.9,5.4,1.9,7.8,2.8c2.4,1,4.6,1.9,6.4,2.7l-3.3,3.1
		c-1.7-0.8-3.7-1.7-6-2.7c-2.4-1-4.9-2-7.6-2.9c-2.7-1-5.5-1.9-8.3-2.8C129.1,69.6,126.5,68.9,123.9,68.2z M127.2,89.1h27.2V93
		h-22.9v12.2h-4.3V89.1z M139.5,84.9h4.2v22.9h-4.2V84.9z M152.5,89.1h4.4v11.3c0,1-0.1,1.9-0.4,2.4c-0.3,0.6-0.8,1-1.5,1.4
		c-0.7,0.3-1.7,0.5-2.9,0.5c-1.2,0.1-2.6,0.1-4.2,0.1c-0.1-0.6-0.3-1.3-0.5-2c-0.3-0.7-0.5-1.3-0.8-1.8c1.2,0,2.2,0,3.2,0
		c1,0,1.6,0,2,0c0.3,0,0.5-0.1,0.6-0.2c0.1-0.1,0.2-0.3,0.2-0.6V89.1z"/>
	<path class="st0" d="M170.9,69.6h20.8v3.7h-20.8V69.6z M171.5,103.1h41v3.6h-41V103.1z M174.2,96.1h36v3.5h-36V96.1z M207.8,87.1
		l2,3.5c-2.3,0.4-4.8,0.8-7.6,1.1c-2.8,0.3-5.7,0.6-8.8,0.8c-3,0.2-6.1,0.4-9.2,0.5c-3.1,0.1-6.1,0.2-8.9,0.3c0-0.6-0.1-1.2-0.3-1.8
		c-0.2-0.7-0.4-1.2-0.6-1.7c2.9-0.1,5.9-0.2,8.9-0.3c3.1-0.1,6.1-0.3,9-0.6c3-0.2,5.8-0.5,8.4-0.8C203.4,87.8,205.8,87.5,207.8,87.1
		z M174.8,71.2h4v9.7c0,0.7,0.1,1.2,0.3,1.5c0.2,0.3,0.6,0.4,1.2,0.4c0.2,0,0.7,0,1.3,0c0.6,0,1.3,0,2,0c0.7,0,1.4,0,2,0
		c0.6,0,1.1,0,1.4,0c0.5,0,1.1,0,1.8-0.1c0.7,0,1.3-0.1,1.7-0.2c0,0.5,0.1,1.1,0.1,1.9c0.1,0.7,0.1,1.3,0.2,1.8
		c-0.4,0.1-0.9,0.2-1.6,0.3c-0.7,0-1.4,0.1-2.2,0.1c-0.3,0-0.7,0-1.4,0s-1.3,0-2.1,0s-1.4,0-2,0s-1,0-1.2,0c-1.4,0-2.6-0.2-3.3-0.6
		c-0.8-0.4-1.3-1-1.7-1.8c-0.3-0.8-0.5-1.9-0.5-3.3V71.2z M178.8,65.9l3.9-1.1c0.5,0.9,1,1.9,1.4,3c0.5,1.1,0.8,2.1,1,2.9l-4.1,1.3
		c-0.2-0.8-0.5-1.8-0.9-3C179.7,67.9,179.3,66.9,178.8,65.9z M197.9,65l4.2,0.7c-1.1,2.3-2.5,4.6-4.2,6.8c-1.7,2.2-3.8,4.2-6.2,6.1
		c-0.3-0.5-0.8-1-1.4-1.5c-0.6-0.6-1.1-1-1.6-1.2c2.3-1.5,4.2-3.3,5.7-5.2C195.9,68.6,197.1,66.8,197.9,65z M189.8,90.7h4.4v14.4
		h-4.4V90.7z M209.3,68.1h0.8l0.8-0.1l2.6,0.9c-0.9,3.9-2.2,7.2-4.1,9.7c-1.9,2.6-4.1,4.6-6.8,6.1c-2.7,1.5-5.7,2.7-9,3.5
		c-0.2-0.5-0.5-1.1-0.9-1.8c-0.4-0.6-0.8-1.2-1.2-1.6c3-0.6,5.7-1.5,8.1-2.8c2.4-1.3,4.4-3,6.1-5.2c1.7-2.2,2.9-4.9,3.6-8.1V68.1z
		 M192,76l2.7-1.4c0.8,0.7,1.7,1.6,2.6,2.5c0.9,0.9,1.7,1.8,2.5,2.7c0.8,0.9,1.5,1.6,2,2.3l-2.9,1.7c-0.5-0.7-1.1-1.5-1.9-2.4
		c-0.8-0.9-1.6-1.8-2.5-2.8C193.7,77.7,192.8,76.8,192,76z M195.7,72.7l2.4-1.7c1,0.6,2.1,1.4,3.2,2.1c1.2,0.8,2.3,1.6,3.3,2.3
		c1.1,0.8,1.9,1.4,2.7,2l-2.5,2c-0.7-0.6-1.5-1.3-2.6-2.1c-1-0.8-2.1-1.6-3.3-2.4S196.8,73.3,195.7,72.7z M199.3,68.1h11v3.4h-14.1
		L199.3,68.1z"/>
	<path class="st0" d="M234.8,65.1l4.1,1.3c-1.1,2.6-2.5,5.2-4,7.8c-1.5,2.6-3.1,5-4.9,7.2c-1.8,2.3-3.5,4.2-5.4,6
		c-0.1-0.3-0.3-0.8-0.6-1.4c-0.3-0.6-0.6-1.1-0.9-1.7c-0.3-0.6-0.6-1-0.9-1.4c1.7-1.4,3.3-3.1,4.8-5c1.6-1.9,3-4,4.3-6.2
		C232.7,69.6,233.9,67.4,234.8,65.1z M230.1,76.9l4.1-4.1v0v34.8h-4.1V76.9z M243.3,65.7h4.2v33.6c0,0.9,0.1,1.5,0.2,2
		c0.1,0.4,0.4,0.8,0.8,0.9c0.4,0.2,1,0.3,1.8,0.3c0.3,0,0.8,0,1.5,0s1.5,0,2.3,0c0.8,0,1.6,0,2.3,0c0.7,0,1.3,0,1.6,0
		c0.9,0,1.5-0.3,1.9-0.8c0.4-0.6,0.7-1.5,0.9-2.9c0.2-1.4,0.3-3.4,0.5-6c0.5,0.4,1.2,0.7,1.9,1.1c0.8,0.4,1.4,0.6,2,0.7
		c-0.2,2.9-0.5,5.2-0.9,7c-0.4,1.7-1.1,3-2,3.7c-0.9,0.8-2.3,1.1-4.1,1.1c-0.2,0-0.6,0-1.2,0c-0.6,0-1.2,0-1.9,0c-0.7,0-1.4,0-2.1,0
		c-0.7,0-1.3,0-1.9,0c-0.6,0-0.9,0-1.1,0c-1.7,0-3.1-0.2-4-0.6c-1-0.4-1.6-1.1-2-2.2c-0.4-1-0.6-2.5-0.6-4.3V65.7z M245.7,78h18.1
		v4.2h-18.1V78z"/>
	<path class="st0" d="M280.6,64.8l3.5,0.8c-0.7,1.7-1.7,3.2-2.9,4.8c-1.2,1.5-2.4,2.8-3.7,3.8c-0.2-0.2-0.5-0.4-0.9-0.6
		c-0.4-0.2-0.8-0.5-1.2-0.7c-0.4-0.2-0.8-0.4-1.1-0.6c1.4-1,2.6-2.1,3.6-3.4C279.2,67.6,280,66.2,280.6,64.8z M275.1,76.6h5.2v0.2
		h12.5v-0.2h5.3v2.5h-5.3v-0.2h-12.5v0.2h-5.2V76.6z M286.4,99.5l3.8,1.5c-1,0.8-2.2,1.5-3.5,2.3c-1.3,0.7-2.7,1.4-4.1,2.1
		c-1.4,0.6-2.7,1.2-4,1.6c-0.2-0.2-0.6-0.6-0.9-0.9c-0.4-0.4-0.8-0.8-1.2-1.1c-0.4-0.4-0.8-0.6-1.1-0.9c1.9-0.6,3.9-1.2,5.9-2
		C283.4,101.2,285,100.4,286.4,99.5z M279.3,71.4h3.2c-0.1,1.4-0.3,3-0.5,4.6c-0.2,1.6-0.4,3.2-0.6,4.7c-0.2,1.5-0.4,2.8-0.6,3.9
		h-3.2c0.2-1.1,0.4-2.5,0.6-4s0.4-3.1,0.6-4.7C279,74.3,279.2,72.8,279.3,71.4z M279.2,99.8c0-0.2-0.1-0.6-0.2-1
		c-0.1-0.4-0.2-0.8-0.3-1.3c-0.1-0.4-0.2-0.8-0.4-1.1c0.8-0.1,1.7-0.2,2.6-0.5c1-0.2,2.1-0.6,3.4-1c0.7-0.2,1.8-0.6,3.2-1.1
		c1.5-0.5,3.1-1.1,5-1.8c1.9-0.7,3.8-1.5,5.8-2.4c2-0.9,3.9-1.8,5.6-2.7l2.3,2.6c-3.9,1.9-8,3.6-12.2,5c-4.2,1.4-8.4,2.7-12.6,3.7
		v0.1c-0.5,0.2-0.8,0.3-1.1,0.5c-0.3,0.1-0.6,0.3-0.8,0.4C279.3,99.5,279.2,99.6,279.2,99.8z M279.2,99.8l0-2.4l2.3-1.2l28.3-1.6
		c0.1,0.4,0.1,0.9,0.3,1.4c0.1,0.5,0.2,1,0.3,1.3c-4.5,0.3-8.3,0.5-11.5,0.7c-3.2,0.2-5.9,0.4-8.1,0.5c-2.2,0.1-4,0.3-5.4,0.4
		c-1.4,0.1-2.5,0.2-3.3,0.3c-0.8,0.1-1.4,0.2-1.8,0.3C279.7,99.6,279.4,99.7,279.2,99.8z M279.3,82.2h17.5v2.4h-17.5V82.2z
		 M280.9,67.2H297v2.6h-17.4L280.9,67.2z M280.3,71.4h13v2.3h-13V71.4z M281.9,93.5c-0.1-0.3-0.2-0.9-0.4-1.5
		c-0.2-0.7-0.4-1.3-0.6-1.7c0.6-0.1,1.1-0.2,1.8-0.3c0.6-0.1,1.3-0.3,2.1-0.5c0.6-0.2,1.5-0.4,2.7-0.9c1.2-0.4,2.6-0.9,4.1-1.6
		c1.5-0.6,3-1.3,4.4-2.1l2.4,2.4c-2.2,1-4.6,1.9-7,2.7c-2.4,0.8-4.8,1.4-7.2,1.9V92c-0.5,0.2-0.9,0.3-1.2,0.5
		c-0.3,0.1-0.6,0.3-0.8,0.5C282,93.2,281.9,93.3,281.9,93.5z M281.9,93.5v-2.3l1.9-1l14.7-0.3c-0.2,0.4-0.3,0.9-0.4,1.4
		c-0.1,0.5-0.2,1-0.3,1.3c-3.3,0.1-5.9,0.2-7.9,0.3c-2,0.1-3.5,0.1-4.6,0.2c-1.1,0.1-1.8,0.1-2.3,0.2
		C282.5,93.3,282.1,93.4,281.9,93.5z M283.8,79.8l1.3-1.4c0.8,0.4,1.6,0.8,2.5,1.3c0.9,0.5,1.6,0.9,2.1,1.3l-1.3,1.6
		c-0.5-0.4-1.2-0.8-2.1-1.3C285.5,80.6,284.6,80.2,283.8,79.8z M284.6,74.7l1.2-1.5c0.7,0.3,1.5,0.7,2.4,1.1
		c0.8,0.4,1.5,0.8,2.1,1.2l-1.2,1.7c-0.5-0.4-1.2-0.8-2-1.2C286.1,75.4,285.3,75,284.6,74.7z M292.5,71.4h3.2c0,0.7,0,1.1,0,1.3
		c-0.2,3.1-0.4,5.5-0.6,7.4c-0.2,1.9-0.5,3.3-0.7,4.2c-0.3,1-0.6,1.6-1,2c-0.3,0.4-0.7,0.6-1.2,0.8c-0.4,0.2-0.9,0.3-1.4,0.3
		c-0.4,0-0.9,0-1.6,0c-0.7,0-1.3,0-2.1-0.1c0-0.3-0.1-0.6-0.2-1.1c-0.1-0.4-0.3-0.8-0.4-1.1c0.7,0,1.3,0.1,1.8,0.1
		c0.5,0,0.9,0,1.2,0s0.5,0,0.7-0.1c0.2,0,0.3-0.2,0.5-0.4c0.2-0.3,0.5-0.9,0.7-1.8c0.2-0.9,0.4-2.3,0.6-4.1c0.2-1.8,0.4-4.2,0.6-7.1
		V71.4z M294.3,96.1h4.2v7.7c0,1-0.1,1.7-0.4,2.3c-0.3,0.5-0.8,0.9-1.6,1.2c-0.8,0.3-1.7,0.4-2.9,0.5c-1.2,0.1-2.5,0.1-4.1,0.1
		c-0.1-0.6-0.3-1.2-0.6-1.8c-0.3-0.7-0.6-1.2-0.9-1.7c0.8,0,1.6,0.1,2.3,0.1c0.8,0,1.4,0,1.9,0c0.5,0,0.9,0,1.1-0.1
		c0.3,0,0.6-0.1,0.7-0.2c0.1-0.1,0.2-0.3,0.2-0.5V96.1z M302.1,64.8l3.7,0.7c-0.6,2.3-1.6,4.5-2.7,6.5c-1.2,2-2.5,3.8-4,5.1
		c-0.2-0.2-0.4-0.5-0.8-0.9c-0.3-0.3-0.7-0.7-1.1-1c-0.4-0.3-0.7-0.6-1-0.8c1.4-1.2,2.6-2.6,3.5-4.3
		C300.8,68.6,301.5,66.8,302.1,64.8z M310.6,70l3.7,0.6c-0.7,2.6-1.8,5-3.3,7c-1.4,2-3.2,3.7-5.1,5.2c-2,1.4-4.2,2.7-6.7,3.7
		c-0.1-0.3-0.3-0.6-0.6-1s-0.6-0.7-0.9-1.1c-0.3-0.4-0.6-0.7-0.8-0.9c3.5-1.2,6.4-2.9,8.8-5.1C308,76.2,309.7,73.4,310.6,70z
		 M303,71.2c1.2,3,3.1,5.7,5.7,7.9c2.6,2.2,5.6,3.8,9.1,4.8c-0.4,0.4-0.8,0.9-1.3,1.5c-0.5,0.6-0.9,1.2-1.1,1.7
		c-3.7-1.2-6.9-3.1-9.5-5.7c-2.6-2.6-4.6-5.7-6-9.3L303,71.2z M302,68.4h15.1v3.1h-16.8L302,68.4z M302.2,101.4l3.1-2.1
		c1.2,0.4,2.5,0.9,3.9,1.5c1.4,0.6,2.7,1.2,4,1.8c1.3,0.6,2.4,1.2,3.2,1.7l-3.4,2.4c-0.8-0.6-1.8-1.1-3-1.8c-1.2-0.6-2.6-1.3-4-1.9
		C304.7,102.5,303.4,101.9,302.2,101.4z M303.5,92.7l2.9-1.7c1,0.7,2.1,1.6,3.2,2.4c1.2,0.9,2.3,1.8,3.3,2.6
		c1.1,0.9,1.9,1.7,2.6,2.4l-3,1.9c-0.6-0.6-1.5-1.4-2.5-2.3c-1-0.9-2.1-1.8-3.2-2.8C305.7,94.3,304.6,93.5,303.5,92.7z"/>
	<path class="st0" d="M348.2,64.9l4.4,1.1c-1,3.2-2.3,6.4-3.7,9.5c-1.5,3.1-3.2,6.1-5.1,8.9c-1.9,2.8-4.1,5.4-6.6,7.8
		c-2.5,2.4-5.3,4.5-8.5,6.2c-0.2-0.4-0.4-0.8-0.7-1.2c-0.3-0.5-0.6-0.9-0.9-1.4c-0.3-0.4-0.6-0.8-0.9-1.1c2.9-1.6,5.5-3.4,7.8-5.6
		c2.3-2.2,4.4-4.6,6.2-7.2c1.8-2.6,3.3-5.4,4.6-8.2C346.3,70.8,347.3,67.8,348.2,64.9z M328.6,72.6h30.3v4h-30.3V72.6z M334.4,95.2
		l3.6,1.2c-0.3,1.3-0.7,2.6-1.2,4s-1,2.6-1.7,3.8c-0.7,1.2-1.5,2.3-2.4,3.2l-3.4-2.4c0.8-0.8,1.6-1.7,2.2-2.8
		c0.6-1.1,1.2-2.3,1.7-3.5C333.8,97.6,334.1,96.4,334.4,95.2z M334.1,66.6l3.9-1.6c0.9,0.9,1.8,1.9,2.6,3.1c0.9,1.2,1.5,2.2,2,3
		l-4.1,1.8c-0.4-0.9-1-1.9-1.8-3.1C335.8,68.6,334.9,67.5,334.1,66.6z M334.7,89.4H366v3.8h-31.3V89.4z M340.4,96.5L344,96
		c0.5,1.5,0.8,3.1,1,4.8c0.2,1.7,0.3,3.2,0.3,4.5l-3.8,0.5c0-0.8,0-1.8-0.1-2.9c-0.1-1.1-0.2-2.2-0.4-3.3
		C340.9,98.5,340.7,97.5,340.4,96.5z M341.8,81h21.1v3.8h-21.1V81z M347.3,96.1l3.4-0.8c0.6,1.3,1.2,2.7,1.6,4.2
		c0.5,1.5,0.8,2.8,1,3.9l-3.5,0.9c-0.2-1.1-0.5-2.4-0.9-4C348.3,98.8,347.8,97.3,347.3,96.1z M354.2,95.3l3-1.1
		c0.7,0.9,1.3,2,1.9,3.1c0.6,1.2,1.1,2.1,1.3,3l-3.2,1.3c-0.2-0.9-0.7-1.9-1.2-3.1C355.5,97.3,354.8,96.3,354.2,95.3z M364.2,89.4
		h4.4c0,0.5-0.1,0.8-0.1,1.1c0,0.3-0.1,0.5-0.1,0.7c-0.2,3.2-0.5,5.8-0.8,7.8c-0.3,2-0.6,3.6-1,4.7c-0.4,1.1-0.8,2-1.3,2.5
		c-0.5,0.5-1,0.9-1.5,1.1c-0.5,0.2-1.2,0.3-1.9,0.4c-0.6,0.1-1.5,0.1-2.5,0.1c-1.1,0-2.2,0-3.3,0c0-0.6-0.2-1.3-0.4-2.1
		s-0.5-1.4-0.9-2c1.1,0.1,2.1,0.2,3.1,0.2c1,0,1.6,0,2.1,0c0.4,0,0.7,0,1-0.1c0.3-0.1,0.5-0.2,0.8-0.4c0.3-0.3,0.6-1,0.9-2
		s0.6-2.4,0.8-4.2c0.3-1.9,0.5-4.3,0.7-7.2V89.4z M358,72.6h4.1c-0.3,1.7-0.7,3.4-1.1,5.2c-0.4,1.8-0.8,3.4-1.1,4.7l-3.9-0.6
		c0.4-1.3,0.7-2.7,1.1-4.4C357.5,75.8,357.8,74.2,358,72.6z M361.3,81h4.1c-0.3,1.7-0.7,3.4-1,5.2c-0.4,1.8-0.7,3.3-1.1,4.6
		l-3.9-0.5c0.3-1.3,0.7-2.7,1.1-4.4C360.7,84.1,361,82.5,361.3,81z"/>
	<path class="st0" d="M386,64.5l3.8,1.2c-0.9,2.1-2.1,4.1-3.5,6.1c-1.4,2-2.9,3.6-4.4,4.9c-0.2-0.2-0.5-0.6-0.9-0.9
		c-0.4-0.4-0.7-0.8-1.1-1.1c-0.4-0.4-0.7-0.7-1-0.9c1.4-1.1,2.8-2.5,4-4.1C384.3,68,385.3,66.3,386,64.5z M381.8,76.8h4v30.8h-4
		V76.8z M383.9,76.8h14.6v12.1h-14.6v-2.7h10.6v-6.7h-10.6V76.8z M384,81.6h11.8v2.5H384V81.6z M385.4,67.8H400v3.4h-14.5V67.8z
		 M388.3,72.7l2.7-2.2c0.8,0.6,1.6,1.3,2.4,2.1c0.9,0.8,1.5,1.5,2,2.1l-2.8,2.5c-0.5-0.6-1.1-1.4-1.9-2.2
		C389.9,74.1,389.1,73.4,388.3,72.7z M391.8,91h4v14.4h-4V91z M393.5,91H409v12.8h-15.5v-2.6h11.7v-7.6h-11.7V91z M393.6,96.1H407
		v2.5h-13.5V96.1z M405.1,64.6l4,1c-0.7,2.1-1.7,4.2-2.9,6.1c-1.2,2-2.5,3.6-3.9,4.9c-0.2-0.2-0.5-0.5-0.9-0.9s-0.8-0.6-1.2-1
		c-0.4-0.3-0.8-0.6-1.1-0.8c1.4-1.1,2.6-2.5,3.6-4.1C403.6,68.1,404.5,66.4,405.1,64.6z M415.9,76.8v2.7h-10.1v6.7h10.1v2.7h-14.1
		V76.8H415.9z M404.3,81.6h12.2v2.5h-12.2V81.6z M404.5,67.8h17.1v3.4h-17.1V67.8z M408.4,72.9l2.8-2.3c0.8,0.6,1.7,1.3,2.6,2
		c0.9,0.8,1.6,1.4,2.1,2l-2.9,2.6c-0.5-0.6-1.2-1.3-2.1-2.1S409.2,73.5,408.4,72.9z M414.9,76.8h4.1v26.2c0,1.1-0.1,1.9-0.4,2.5
		c-0.3,0.6-0.8,1.1-1.5,1.4c-0.7,0.3-1.7,0.5-2.9,0.6c-1.2,0.1-2.6,0.1-4.4,0c-0.1-0.5-0.2-1.2-0.5-1.9c-0.2-0.8-0.5-1.4-0.8-1.9
		c1.2,0,2.3,0.1,3.3,0.1c1.1,0,1.8,0,2.1,0c0.6,0,0.9-0.3,0.9-0.9V76.8z"/>
	<path class="st0" d="M437.1,95.7l-1.2-3c1.9-0.7,3.4-1.6,4.4-2.8c1-1.1,1.5-2.5,1.5-4.1l-0.6-4.2l2.5,3.8c-0.4,0.4-0.8,0.6-1.2,0.8
		c-0.4,0.2-0.9,0.3-1.4,0.3c-1,0-2-0.3-2.7-0.9c-0.8-0.6-1.2-1.5-1.2-2.7c0-1.2,0.4-2.1,1.2-2.7c0.8-0.6,1.7-1,2.7-1
		c1.4,0,2.5,0.5,3.3,1.6c0.8,1,1.1,2.4,1.1,4.2c0,2.6-0.8,4.8-2.3,6.7S439.7,94.9,437.1,95.7z"/>
	<path class="st0" d="M465.3,68.1h4.3v16.6c0,1.8-0.1,3.7-0.3,5.8s-0.5,4.1-0.9,6.2c-0.4,2.1-1.1,4.1-1.9,6c-0.8,1.9-2,3.6-3.4,5.2
		c-0.2-0.3-0.5-0.6-0.9-1c-0.4-0.4-0.8-0.7-1.3-1.1c-0.4-0.3-0.8-0.6-1.2-0.8c1.3-1.4,2.3-3,3-4.7c0.7-1.7,1.3-3.4,1.6-5.2
		c0.4-1.8,0.6-3.6,0.7-5.4c0.1-1.8,0.2-3.5,0.2-5.1V68.1z M467.6,89.7h29.5v4.1h-29.5V89.7z M467.8,68.1h29.2v4.1h-29.2V68.1z
		 M467.8,78.8h29.2v4.1h-29.2V78.8z M479.7,69.7h4.4v37.5h-4.4V69.7z M495.3,68.1h4.3v34.1c0,1.3-0.2,2.2-0.5,2.9
		c-0.3,0.7-0.9,1.2-1.8,1.6c-0.8,0.3-2,0.5-3.4,0.6c-1.4,0.1-3.2,0.1-5.4,0.1c-0.1-0.6-0.2-1.2-0.5-2.1c-0.3-0.8-0.6-1.5-0.9-2.1
		c1,0.1,2,0.1,2.9,0.1c1,0,1.8,0,2.5,0c0.7,0,1.2,0,1.5,0c0.5,0,0.8-0.1,0.9-0.3s0.3-0.5,0.3-0.9V68.1z"/>
	<path class="st0" d="M531.6,68.9h4.6v18.2c0,1.8-0.2,3.6-0.5,5.3c-0.3,1.7-0.9,3.3-1.8,4.8c-0.8,1.5-2.1,3-3.6,4.3
		c-1.6,1.3-3.6,2.5-6.1,3.5c-2.5,1-5.5,2-9.1,2.7c-0.2-0.3-0.4-0.7-0.7-1.2c-0.3-0.5-0.6-1-0.9-1.4c-0.3-0.5-0.7-0.9-1-1.2
		c3.5-0.6,6.4-1.3,8.7-2.2c2.3-0.9,4.2-1.8,5.6-2.9s2.4-2.2,3.1-3.5c0.7-1.3,1.2-2.6,1.4-4s0.3-2.8,0.3-4.3V68.9z M513.4,67.2h40.3
		v3.9h-40.3V67.2z M517.5,74.5h33.3v18.4h-33.3V74.5z M522.4,93c1.5,2.2,3.4,3.9,5.5,5.3c2.1,1.3,4.5,2.3,7.2,3
		c2.7,0.7,5.8,1.1,9.1,1.4c3.4,0.3,7.1,0.4,11.2,0.5c-0.4,0.5-0.7,1.1-1.1,2c-0.4,0.8-0.6,1.6-0.7,2.3c-4.1-0.2-8-0.4-11.5-0.8
		c-3.5-0.4-6.8-1-9.7-1.9c-2.9-0.9-5.5-2.2-7.8-3.8c-2.3-1.6-4.2-3.8-5.9-6.4L522.4,93z M521.7,78.1V82h24.8v-3.9H521.7z
		 M521.7,85.4v4h24.8v-4H521.7z"/>
	<path class="st0" d="M564.2,96.1h18.5v3.8h-18.5V96.1z M564.8,69.7h17.4v3.8h-17.4V69.7z M565.6,76.5h16.1v16.3h-16.1V76.5z
		 M568.7,79.6v3.5h9.7v-3.5H568.7z M568.7,86.1v3.5h9.7v-3.5H568.7z M571.7,64.9h3.6v13h-3.6V64.9z M572.1,78h2.9v13.2h0.4v16.5
		h-3.7V91.2h0.4V78z M582,102.9h25.2v3.7H582V102.9z M586.8,71.9l3.6,0.8c-0.6,1.2-1.2,2.5-1.9,3.9c-0.7,1.4-1.4,2.6-2.1,3.8
		c0.9,1.4,1.8,2.8,2.6,4.2c0.8,1.5,1.5,2.7,1.9,3.8l-3.5,1.4c-0.4-1.2-1.1-2.7-2-4.4c-0.9-1.7-1.9-3.3-3-5c0.6-1,1.1-2,1.6-3
		c0.5-1,1-2.1,1.5-3C586.2,73.5,586.5,72.7,586.8,71.9z M583.4,67h23.1v3.7h-23.1V67z M584.4,91h21.3v3.7h-21.3V91z M594.3,71.9
		l3.6,0.8c-0.6,1.2-1.3,2.5-2,3.9c-0.8,1.4-1.5,2.6-2.2,3.8c1,1.3,1.9,2.7,2.8,4.2c0.9,1.5,1.6,2.7,2.1,3.7l-3.5,1.5
		c-0.5-1.2-1.2-2.7-2.2-4.4c-1-1.7-2-3.3-3.1-5c0.6-1,1.2-2,1.7-3c0.6-1,1.1-2.1,1.6-3C593.6,73.5,594,72.7,594.3,71.9z M592.5,92.8
		h4.3v12.9h-4.3V92.8z M602.2,71.9l3.6,0.9c-0.6,1.2-1.3,2.5-2.1,3.9c-0.8,1.4-1.6,2.6-2.3,3.8c0.7,0.9,1.3,1.8,2,2.8
		c0.7,1,1.3,1.9,1.8,2.8c0.5,0.9,1,1.7,1.3,2.4l-3.4,1.5c-0.5-1.2-1.3-2.7-2.3-4.4c-1-1.7-2.2-3.3-3.4-5c0.6-1,1.2-2,1.8-3
		c0.6-1,1.2-2.1,1.7-3S601.8,72.7,602.2,71.9z"/>
	<path class="st0" d="M625,91.6l2.6,1c-0.6,1.5-1.5,3-2.4,4.5c-1,1.5-2,2.9-3.1,4.2c-1.1,1.3-2.2,2.4-3.2,3.3
		c-0.3-0.5-0.7-1-1.3-1.5c-0.5-0.6-1-1-1.4-1.4c1.1-0.7,2.2-1.6,3.3-2.7c1.1-1.1,2.1-2.3,3.1-3.6C623.6,94.1,624.4,92.8,625,91.6z
		 M617.1,78h22.5v2.5h-22.5V78z M617.4,89.8h17.3v3.4h-17.3V89.8z M619.3,86c-0.1-0.3-0.2-0.8-0.4-1.3c-0.2-0.6-0.4-1-0.6-1.4
		c0.3-0.1,0.6-0.2,0.9-0.3c0.3-0.1,0.5-0.3,0.8-0.5c0.2-0.2,0.5-0.4,1-0.8c0.4-0.4,0.9-0.8,1.5-1.3c0.5-0.5,1-1.1,1.5-1.7l2.7,1.3
		c-0.8,0.9-1.7,1.7-2.7,2.5c-1,0.8-2,1.5-2.9,2v0.1c-0.6,0.3-1,0.5-1.3,0.7C619.5,85.6,619.3,85.8,619.3,86z M619.3,86l0-2l1.7-0.9
		l14.4-0.8c0.2,0.4,0.4,0.8,0.6,1.2c0.2,0.4,0.4,0.8,0.6,1c-3.6,0.2-6.5,0.4-8.6,0.6c-2.2,0.2-3.8,0.3-5,0.4c-1.1,0.1-2,0.2-2.5,0.3
		C620,85.8,619.6,85.9,619.3,86z M620.9,66.1h17.5v2.6h-13.6V79h-4V66.1z M623.4,70.3h13.8v2.2h-13.8V70.3z M623.4,74.1h13.8v2.2
		h-13.8V74.1z M624.7,86.2h3.9v21.4h-3.9V86.2z M628.2,93.8c0.3,0.2,0.8,0.6,1.4,1c0.6,0.5,1.2,1,1.9,1.5c0.7,0.6,1.3,1.1,1.9,1.6
		c0.6,0.5,1,0.8,1.2,1.1l-2.4,2.9c-0.3-0.4-0.7-0.9-1.2-1.5c-0.5-0.6-1.1-1.2-1.7-1.9c-0.6-0.7-1.2-1.3-1.7-1.8
		c-0.6-0.6-1-1-1.4-1.3L628.2,93.8z M631.7,81.3l2.8-1.3c0.9,0.7,1.8,1.5,2.7,2.5c0.9,1,1.7,1.8,2.2,2.5l-2.9,1.5
		c-0.5-0.7-1.2-1.6-2.1-2.6S632.6,82,631.7,81.3z M640.4,86.4l3.6,0.9c-0.8,2-1.9,4-3.2,5.9c-1.4,1.9-2.8,3.4-4.2,4.7
		c-0.2-0.2-0.5-0.5-0.8-0.9c-0.3-0.3-0.7-0.6-1.1-0.9c-0.4-0.3-0.7-0.6-1-0.8c1.4-1.1,2.7-2.4,3.9-3.9
		C638.8,89.8,639.7,88.1,640.4,86.4z M636.9,106.9c-0.1-0.3-0.2-0.6-0.3-1.1c-0.2-0.4-0.3-0.9-0.5-1.3c-0.2-0.5-0.3-0.8-0.5-1.1
		c0.5-0.1,0.9-0.4,1.3-0.7c0.4-0.3,0.8-0.8,1.3-1.3c0.3-0.4,0.9-1,1.6-2c0.7-1,1.5-2.1,2.4-3.4c0.8-1.3,1.6-2.6,2.2-3.9L648,94
		c-1.2,2-2.6,4-4.1,5.9c-1.5,1.9-3.1,3.6-4.7,5v0.1c-0.5,0.2-0.8,0.4-1.2,0.6c-0.3,0.2-0.6,0.4-0.8,0.6
		C637,106.5,636.9,106.7,636.9,106.9z M636.9,106.9l-0.1-2.9l2.2-1.3l14.4-1.1c0.1,0.5,0.1,1.1,0.3,1.8c0.1,0.7,0.2,1.2,0.3,1.6
		c-2.8,0.2-5.1,0.5-7,0.6c-1.9,0.2-3.5,0.3-4.7,0.4c-1.2,0.1-2.2,0.2-2.9,0.3c-0.7,0.1-1.2,0.2-1.6,0.3
		C637.5,106.7,637.2,106.8,636.9,106.9z M654.8,77.1l3.5,1.3c-1.2,1.2-2.7,2.3-4.4,3.2s-3.6,1.7-5.7,2.4c-2.1,0.6-4.2,1.2-6.5,1.6
		c-0.2-0.5-0.5-1-0.9-1.5c-0.4-0.5-0.8-1-1.2-1.4c2-0.3,4-0.8,5.9-1.3c1.9-0.5,3.7-1.1,5.3-1.8C652.5,78.8,653.8,78,654.8,77.1z
		 M652.2,65.2l3.4,1.7c-1.2,0.8-2.5,1.6-4,2.3c-1.5,0.7-3,1.4-4.6,2c-1.6,0.6-3.1,1.1-4.5,1.5c-0.3-0.4-0.7-0.8-1.2-1.3
		c-0.5-0.5-0.9-0.9-1.4-1.2c1.4-0.3,2.8-0.8,4.3-1.3c1.5-0.5,3-1.1,4.4-1.7C650.1,66.5,651.3,65.8,652.2,65.2z M653.6,71.1l3.4,1.4
		c-1.1,0.9-2.5,1.8-4,2.6c-1.5,0.8-3.2,1.5-4.9,2.1c-1.7,0.6-3.4,1.1-5.1,1.5c-0.3-0.4-0.6-0.9-1.1-1.4c-0.4-0.5-0.9-0.9-1.3-1.3
		c1.6-0.3,3.2-0.8,4.8-1.2c1.6-0.5,3.2-1.1,4.6-1.7C651.5,72.5,652.7,71.8,653.6,71.1z M644.6,85.7h5.8v3.4h-5.8V85.7z M647.2,85.7
		h4.1c0.5,1.2,1.2,2.4,2.1,3.5c0.9,1.1,1.8,2.2,2.9,3.1c1,0.9,2.1,1.7,3.2,2.3c-0.3,0.2-0.6,0.6-0.9,0.9c-0.4,0.4-0.7,0.8-1,1.2
		c-0.3,0.4-0.6,0.8-0.8,1.1c-1.8-1.2-3.4-2.7-5-4.5c-1.6-1.8-2.8-3.7-3.7-5.6h-0.9V85.7z M648.3,98.5l3.3-1.3c0.7,0.9,1.4,1.9,2.1,3
		c0.8,1.1,1.5,2.2,2.2,3.2c0.7,1,1.3,2,1.7,2.7l-3.5,1.5c-0.4-0.8-0.9-1.7-1.6-2.8c-0.7-1.1-1.4-2.2-2.1-3.3
		C649.7,100.5,649,99.5,648.3,98.5z"/>
	<path class="st0" d="M670.5,72.4h4v34.1h-4V72.4z M672.9,85h12.3v3.8h-12.3V85z M673,72.4h14.1v30.6H673V99h10.1V76.2H673V72.4z
		 M677.3,64.8l4.7,0.8c-0.5,1.5-1,3-1.6,4.5c-0.6,1.5-1.1,2.8-1.5,3.8l-3.5-0.8c0.2-0.8,0.4-1.6,0.7-2.6c0.2-1,0.5-2,0.7-2.9
		C677.1,66.5,677.2,65.6,677.3,64.8z M694.1,64.8l4.2,1c-0.6,2.3-1.3,4.5-2.1,6.7c-0.8,2.2-1.7,4.3-2.6,6.2c-1,2-2,3.7-3,5.1
		c-0.2-0.2-0.6-0.5-1-0.9c-0.4-0.3-0.9-0.6-1.3-0.9c-0.4-0.3-0.9-0.6-1.2-0.7c1-1.3,2-2.9,2.9-4.7c0.9-1.8,1.7-3.7,2.4-5.7
		C693,69,693.6,66.9,694.1,64.8z M691.9,84.7l3.4-1.9c0.8,1,1.7,2.2,2.6,3.5c0.9,1.3,1.8,2.5,2.5,3.7c0.8,1.2,1.4,2.3,1.9,3.2
		l-3.7,2.3c-0.4-1-1-2-1.8-3.3c-0.8-1.2-1.6-2.5-2.4-3.8C693.6,87,692.7,85.8,691.9,84.7z M693.5,72.1h13.8v4h-13.8V72.1z
		 M705.8,72.1h4.1c0,0.5,0,1,0,1.3c0,0.3,0,0.6,0,0.8c-0.2,5.3-0.3,9.7-0.5,13.3c-0.2,3.6-0.4,6.6-0.6,9c-0.2,2.3-0.5,4.1-0.8,5.4
		c-0.3,1.3-0.7,2.2-1.2,2.8c-0.6,0.8-1.2,1.3-1.8,1.6c-0.6,0.3-1.4,0.5-2.3,0.6c-0.8,0.1-1.8,0.1-3.1,0.1c-1.3,0-2.6-0.1-3.9-0.1
		c0-0.6-0.2-1.3-0.4-2.1c-0.3-0.8-0.6-1.5-1-2.1c1.5,0.1,2.9,0.2,4.1,0.2c1.3,0,2.2,0,2.8,0c0.5,0,0.8,0,1.1-0.1
		c0.3-0.1,0.6-0.3,0.9-0.6c0.4-0.4,0.7-1.3,1-2.5c0.3-1.2,0.5-3,0.7-5.3c0.2-2.3,0.4-5.2,0.6-8.7c0.2-3.5,0.3-7.8,0.4-12.7V72.1z"/>
	<path class="st0" d="M733.9,75.3h4.8c-0.1,2.4-0.3,4.9-0.6,7.4c-0.2,2.5-0.6,4.9-1.2,7.3c-0.6,2.4-1.4,4.7-2.4,6.9
		c-1,2.2-2.4,4.2-4.2,6.1c-1.7,1.9-3.9,3.5-6.5,4.9c-0.3-0.6-0.8-1.2-1.4-1.8c-0.6-0.7-1.2-1.2-1.8-1.7c2.4-1.3,4.4-2.7,6-4.4
		c1.6-1.7,2.8-3.5,3.8-5.5c0.9-2,1.6-4,2.1-6.2c0.5-2.2,0.8-4.3,0.9-6.5C733.7,79.6,733.8,77.4,733.9,75.3z M721.7,72.7h40.6v4.2
		h-40.6V72.7z M736.5,83.5h18.1v4.2h-18.1V83.5z M738.7,66.1l4.2-1.7c0.6,1.1,1.2,2.2,1.9,3.5c0.6,1.3,1.1,2.4,1.5,3.3l-4.5,1.9
		c-0.3-1-0.7-2.1-1.3-3.4C739.9,68.5,739.3,67.2,738.7,66.1z M753.4,83.5h4.6c0,0.5-0.1,0.9-0.1,1.2c0,0.3,0,0.6-0.1,0.8
		c-0.3,4.3-0.6,7.8-1,10.4c-0.3,2.7-0.7,4.8-1.2,6.2c-0.4,1.5-1,2.5-1.6,3.2c-0.6,0.7-1.3,1.1-2,1.4c-0.7,0.2-1.5,0.4-2.5,0.5
		c-0.9,0.1-2,0.1-3.4,0.1c-1.4,0-2.9-0.1-4.5-0.2c0-0.6-0.2-1.4-0.5-2.2c-0.3-0.8-0.6-1.5-1.1-2.1c1.6,0.1,3.2,0.2,4.6,0.2
		c1.5,0,2.5,0,3.2,0c0.5,0,0.9,0,1.2-0.1c0.3-0.1,0.7-0.2,1-0.5c0.5-0.4,0.9-1.3,1.3-2.7c0.4-1.4,0.7-3.3,1-5.9
		c0.3-2.5,0.6-5.8,0.8-9.8V83.5z"/>
	<path class="st0" d="M772.7,81.1l2.3-3.2c1,0.4,2,0.8,3.1,1.3c1.1,0.5,2.2,1.1,3.1,1.6c1,0.6,1.8,1.1,2.4,1.6l-2.4,3.6
		c-0.6-0.5-1.4-1.1-2.4-1.7s-2-1.2-3.1-1.8C774.8,82,773.7,81.5,772.7,81.1z M774.3,104.2c0.8-1.2,1.8-2.6,2.8-4.2
		c1-1.6,2-3.4,3.1-5.2c1-1.8,2-3.6,3-5.4l3.2,2.9c-0.8,1.6-1.7,3.3-2.6,5c-0.9,1.7-1.9,3.4-2.9,5.1s-1.9,3.2-2.8,4.7L774.3,104.2z
		 M775.3,68.6l2.4-3.2c1,0.4,2,0.8,3.1,1.4c1.1,0.6,2.2,1.1,3.2,1.7c1,0.6,1.8,1.1,2.5,1.7l-2.5,3.6c-0.6-0.6-1.4-1.1-2.4-1.8
		c-1-0.6-2-1.2-3.1-1.8C777.4,69.6,776.3,69.1,775.3,68.6z M786.6,84.1h27.6v4.1h-27.6V84.1z M789,106.3c-0.1-0.3-0.2-0.7-0.4-1.2
		c-0.2-0.5-0.4-1.1-0.6-1.6c-0.2-0.6-0.4-1.1-0.6-1.5c0.5-0.1,1-0.4,1.4-1c0.5-0.5,1-1.2,1.6-2.1c0.3-0.4,0.7-1.1,1.3-2
		c0.6-0.9,1.2-2.1,1.8-3.3s1.4-2.7,2-4.2c0.7-1.5,1.3-3,1.8-4.5l4.7,1.5c-0.9,2.1-2,4.2-3.1,6.4c-1.1,2.1-2.3,4.1-3.5,6
		c-1.2,1.9-2.4,3.6-3.6,5.1v0.1c-0.6,0.3-1.1,0.6-1.5,0.9c-0.4,0.3-0.7,0.5-1,0.8C789.2,105.9,789,106.1,789,106.3z M788.5,72.4
		h23.9v4.1h-23.9V72.4z M789,106.3l-0.2-3.5l2.3-1.4l18.1-2c0,0.6,0,1.3,0.1,2c0.1,0.8,0.1,1.4,0.2,1.8c-3.4,0.4-6.2,0.8-8.5,1.1
		c-2.3,0.3-4.2,0.5-5.6,0.7c-1.5,0.2-2.6,0.4-3.4,0.5c-0.8,0.1-1.4,0.3-1.9,0.4C789.6,106.1,789.3,106.2,789,106.3z M798.1,64.9h4.4
		v21.8h-4.4V64.9z M803.3,94.3l3.5-1.7c1.1,1.4,2.1,2.8,3.2,4.4c1,1.6,2,3.1,2.8,4.7c0.8,1.5,1.5,2.9,1.9,4.1l-3.9,2
		c-0.4-1.2-1-2.6-1.8-4.2c-0.8-1.6-1.7-3.1-2.7-4.8C805.4,97.1,804.3,95.6,803.3,94.3z"/>
	<path class="st0" d="M824.7,88.9c1.5-0.3,3.1-0.8,5-1.2c1.9-0.5,3.9-1,6-1.6c2.1-0.6,4.2-1.1,6.2-1.6l0.6,4.1
		c-2.9,0.8-5.7,1.7-8.7,2.5c-2.9,0.8-5.5,1.6-7.9,2.2L824.7,88.9z M825.1,74h16.8v4.1h-16.8V74z M831.7,64.9h4.4v37.4
		c0,1.1-0.1,2-0.4,2.7c-0.3,0.6-0.8,1.1-1.5,1.5c-0.7,0.3-1.6,0.6-2.6,0.7c-1.1,0.1-2.4,0.2-4.1,0.2c-0.1-0.6-0.2-1.3-0.5-2.1
		c-0.3-0.8-0.5-1.5-0.9-2.1c1,0,2,0.1,2.8,0.1c0.9,0,1.5,0,1.8,0c0.6,0,0.9-0.3,0.9-0.9V64.9z M842.4,68.6h25.1V73h-25.1V68.6z
		 M854.9,70.2h4.7v31.5c0,1.4-0.2,2.4-0.6,3.2c-0.4,0.8-1,1.3-1.9,1.7c-1,0.4-2.2,0.6-3.7,0.7c-1.5,0.1-3.3,0.1-5.5,0.1
		c-0.1-0.4-0.2-0.9-0.4-1.5c-0.2-0.6-0.4-1.2-0.6-1.7s-0.5-1.1-0.7-1.5c1,0.1,2.1,0.1,3.1,0.1c1,0,1.9,0,2.7,0c0.8,0,1.4,0,1.7,0
		c0.5,0,0.8-0.1,1-0.3c0.2-0.2,0.3-0.5,0.3-0.9V70.2z"/>
	<path class="st0" d="M876.3,88.5c1.8-0.5,3.9-1.1,6.4-1.8c2.5-0.7,5-1.5,7.5-2.2l0.6,4c-2.3,0.7-4.6,1.5-7,2.2
		c-2.4,0.7-4.5,1.4-6.5,2L876.3,88.5z M877,74h14.2V78H877V74z M882.3,65h4.1v37.9c0,1.1-0.1,1.9-0.4,2.5c-0.2,0.6-0.7,1.1-1.3,1.5
		c-0.6,0.3-1.4,0.6-2.4,0.7c-1,0.1-2.2,0.2-3.7,0.2c0-0.6-0.2-1.2-0.4-2c-0.2-0.8-0.5-1.5-0.8-2.1c0.9,0,1.8,0,2.5,0
		c0.8,0,1.3,0,1.6,0c0.3,0,0.5-0.1,0.6-0.2c0.1-0.1,0.2-0.3,0.2-0.6V65z M890.9,83.1h27.7v8.8h-4v-5.3h-19.9V92h-3.8V83.1z
		 M892.5,72.2h21v3h-21V72.2z M894,90.6h20.1v3.4h-16.3v10.5H894V90.6z M895.2,66.5h20.4v14.7h-20.8v-3.3h16.7v-8.2h-16.4V66.5z
		 M902.8,86.5h3.9v21.2h-3.9V86.5z M912.2,90.6h3.8v10.1c0,0.9-0.1,1.6-0.3,2.1c-0.2,0.5-0.6,0.9-1.2,1.2c-0.6,0.3-1.4,0.5-2.2,0.5
		c-0.9,0-1.9,0.1-3.1,0.1c0-0.5-0.2-1.1-0.4-1.8c-0.2-0.6-0.4-1.2-0.6-1.7c0.8,0,1.5,0,2.1,0c0.6,0,1.1,0,1.3,0c0.2,0,0.4,0,0.5-0.1
		c0.1-0.1,0.1-0.2,0.1-0.4V90.6z M913,72h5.8v3.3H913V72z"/>
</g>
</svg>
