<!-- Generator: Adobe Illustrator 25.0.0, SVG Export Plug-In  -->
<svg version="1.1" xmlns="http://www.w3.org/2000/svg" xmlns:xlink="http://www.w3.org/1999/xlink" x="0px" y="0px"
	 width="1001.2px" height="107.9px" viewBox="0 0 1001.2 107.9" style="overflow:visible;enable-background:new 0 0 1001.2 107.9;"
	 xml:space="preserve">
<style type="text/css">
	.st0{fill:#333337;}
</style>
<defs>
</defs>
<g>
	<path class="st0" d="M11,0.6l4.1,1.2c-1,2.6-2.2,5.2-3.5,7.8c-1.4,2.6-2.8,5-4.4,7.3c-1.6,2.3-3.2,4.3-4.8,6
		c-0.2-0.4-0.4-0.8-0.6-1.4s-0.6-1.1-0.9-1.7c-0.3-0.6-0.6-1-0.9-1.3c1.5-1.5,2.9-3.2,4.3-5.1c1.4-1.9,2.6-4,3.8-6.2
		C9.2,5.1,10.2,2.8,11,0.6z M6.4,12.8l4.1-4.1l0,0v34.4H6.4V12.8z M20.6,0.6l4.3,1c-0.6,2.4-1.4,4.8-2.3,7.1
		c-0.9,2.3-1.8,4.5-2.9,6.6c-1,2-2.2,3.8-3.4,5.4c-0.2-0.2-0.6-0.6-1-0.9c-0.4-0.4-0.9-0.7-1.3-1.1c-0.4-0.4-0.9-0.6-1.2-0.9
		c1.2-1.4,2.3-3,3.2-4.8s1.8-3.8,2.6-5.9C19.4,4.9,20.1,2.8,20.6,0.6z M19.6,20.6l4.2,0.8c-0.5,2-1,4-1.7,5.9
		c-0.7,1.9-1.4,3.7-2.3,5.4c-0.8,1.7-1.7,3.1-2.6,4.4c-0.2-0.2-0.6-0.5-1.1-0.8c-0.5-0.3-0.9-0.6-1.4-0.9c-0.5-0.3-0.9-0.5-1.2-0.7
		c1.4-1.7,2.5-3.8,3.6-6.4C18.2,25.8,19,23.2,19.6,20.6z M20.8,9h20v4.1H19.1L20.8,9z M27.1,10.7h4.3v27.4c0,1.1-0.1,2-0.4,2.7
		c-0.3,0.7-0.7,1.2-1.5,1.5c-0.7,0.3-1.6,0.6-2.6,0.7c-1.1,0.1-2.3,0.2-3.8,0.2c-0.1-0.6-0.3-1.4-0.6-2.2c-0.3-0.8-0.6-1.6-0.9-2.1
		c1,0,2,0,2.9,0c0.9,0,1.5,0,1.8,0c0.3,0,0.5,0,0.6-0.1c0.1-0.1,0.2-0.3,0.2-0.6V10.7z M34.1,21.4l3.9-1.3c0.9,1.6,1.7,3.3,2.4,5.1
		s1.4,3.6,1.9,5.4c0.5,1.8,0.9,3.4,1.2,4.8l-4.2,1.5c-0.2-1.4-0.5-3-1.1-4.8c-0.5-1.8-1.1-3.6-1.8-5.5
		C35.6,24.8,34.9,23.1,34.1,21.4z M39.5,9h0.6l0.7-0.1l3,0.6c-0.3,1.8-0.6,3.6-1,5.5c-0.4,1.9-0.7,3.5-1.1,4.8l-3.7-0.7
		c0.2-0.8,0.3-1.7,0.5-2.8c0.2-1.1,0.4-2.2,0.5-3.4c0.2-1.2,0.3-2.3,0.4-3.3V9z"/>
	<path class="st0" d="M55.2,7.8h4v34.1h-4V7.8z M57.6,20.5h12.3v3.8H57.6V20.5z M57.8,7.8h14.1v30.6H57.8v-3.9h10.1V11.7H57.8V7.8z
		 M62,0.3l4.7,0.8c-0.5,1.5-1,3-1.6,4.5c-0.6,1.5-1.1,2.8-1.5,3.8l-3.5-0.8c0.2-0.8,0.4-1.6,0.7-2.6c0.2-1,0.5-2,0.7-2.9
		C61.8,2,61.9,1.1,62,0.3z M78.8,0.3l4.2,1c-0.6,2.3-1.3,4.5-2.1,6.7c-0.8,2.2-1.7,4.3-2.7,6.2c-1,2-2,3.7-3,5.1
		c-0.2-0.2-0.6-0.5-1-0.9c-0.4-0.3-0.9-0.6-1.3-0.9c-0.4-0.3-0.9-0.6-1.2-0.7c1-1.3,2-2.9,2.9-4.7c0.9-1.8,1.7-3.7,2.4-5.7
		C77.7,4.4,78.3,2.4,78.8,0.3z M76.6,20.2l3.4-1.9c0.8,1,1.7,2.2,2.6,3.5c0.9,1.3,1.8,2.5,2.5,3.7s1.4,2.3,1.9,3.2l-3.7,2.3
		c-0.4-1-1-2-1.8-3.3c-0.8-1.2-1.6-2.5-2.4-3.8C78.3,22.5,77.4,21.3,76.6,20.2z M78.2,7.6H92v4H78.2V7.6z M90.5,7.6h4.1
		c0,0.5,0,1,0,1.3c0,0.3,0,0.6,0,0.8c-0.2,5.3-0.3,9.7-0.5,13.3c-0.2,3.6-0.4,6.6-0.6,9c-0.2,2.3-0.5,4.1-0.8,5.4
		c-0.3,1.3-0.7,2.2-1.2,2.8c-0.6,0.8-1.2,1.3-1.8,1.6c-0.6,0.3-1.4,0.5-2.3,0.6c-0.8,0.1-1.8,0.1-3.1,0.1c-1.3,0-2.6-0.1-3.9-0.1
		c0-0.6-0.2-1.3-0.4-2.1c-0.3-0.8-0.6-1.5-1-2.1c1.5,0.1,2.9,0.2,4.1,0.2c1.3,0,2.2,0,2.8,0c0.5,0,0.8,0,1.1-0.1s0.6-0.3,0.9-0.6
		c0.4-0.4,0.7-1.3,1-2.5c0.3-1.2,0.5-3,0.7-5.3c0.2-2.3,0.4-5.2,0.6-8.7c0.2-3.5,0.3-7.8,0.4-12.7V7.6z"/>
	<path class="st0" d="M127.3,27.3l3,2.3c-1.3,1.1-2.8,2.3-4.5,3.4c-1.7,1.1-3.6,2.2-5.5,3.2c-2,1-4,1.9-6,2.8c-2,0.8-4,1.5-5.9,2.1
		c-0.2-0.5-0.6-1.1-1-1.8s-0.8-1.3-1.3-1.8c1.9-0.4,3.8-1,5.8-1.7c2-0.7,4-1.5,5.9-2.4c1.9-0.9,3.7-1.9,5.4-2.9
		C124.8,29.3,126.1,28.3,127.3,27.3z M124.6,21.8l2.8,2.1c-1.1,0.8-2.4,1.7-3.9,2.5c-1.5,0.8-3,1.7-4.7,2.5c-1.7,0.8-3.4,1.5-5,2.2
		c-1.7,0.7-3.3,1.2-4.8,1.7c-0.2-0.5-0.6-1.1-1-1.7c-0.4-0.7-0.8-1.2-1.2-1.7c1.5-0.3,3-0.8,4.7-1.3c1.7-0.6,3.3-1.2,5-1.9
		c1.6-0.7,3.2-1.4,4.6-2.1C122.4,23.3,123.6,22.6,124.6,21.8z M126.2,13.1l3.6,1.5c-1.6,1.6-3.5,3.1-5.8,4.4
		c-2.3,1.3-4.7,2.5-7.2,3.5c-2.5,1-5,1.9-7.5,2.6c-0.2-0.3-0.4-0.6-0.6-1.1c-0.3-0.4-0.6-0.9-0.9-1.3c-0.3-0.4-0.6-0.8-0.8-1.1
		c2.4-0.6,4.8-1.2,7.2-2.1s4.7-1.8,6.8-2.9C123.1,15.6,124.8,14.4,126.2,13.1z M107.1,4.3h39.2v10h-4.4v-6h-30.5v6h-4.3V4.3z
		 M113.4,11.9h26.4v3.8h-26.4V11.9z M121.4,18.9l3.3-1.8c1.8,1.5,3.2,3.2,4.3,5.1c1.1,1.9,1.9,3.8,2.4,5.8c0.5,2,0.7,3.8,0.6,5.6
		c0,1.8-0.3,3.3-0.8,4.7s-1.2,2.4-2,3c-0.8,0.7-1.5,1.2-2.3,1.5c-0.8,0.2-1.7,0.4-2.8,0.4c-0.5,0-1.1,0-1.8,0c-0.7,0-1.4,0-2.1-0.1
		c0-0.6-0.1-1.3-0.3-2.1c-0.2-0.8-0.5-1.5-0.9-2.1c0.8,0.1,1.6,0.1,2.4,0.2c0.7,0,1.4,0.1,1.8,0.1c0.6,0,1.1-0.1,1.6-0.2
		c0.4-0.1,0.8-0.4,1.2-0.8c0.5-0.4,0.9-1.2,1.2-2.2c0.3-1,0.5-2.2,0.4-3.6c0-1.4-0.2-2.9-0.6-4.4s-1.1-3.1-2-4.7
		C124.2,21.7,122.9,20.2,121.4,18.9z M122.8,1.3l4.6-1.3c0.5,0.8,1,1.8,1.5,2.8c0.5,1,0.9,1.9,1,2.7l-4.8,1.5
		c-0.2-0.8-0.5-1.7-0.9-2.7C123.7,3.1,123.2,2.2,122.8,1.3z M139.7,17l3.5,2.9c-1.3,1.1-2.8,2.2-4.3,3.2c-1.5,1.1-3.1,2.1-4.6,3.1
		c-1.5,1-3,1.8-4.3,2.6l-2.8-2.5c1.3-0.8,2.7-1.7,4.3-2.7s3-2.2,4.5-3.3C137.4,19.1,138.7,18,139.7,17z M136.6,24.4
		c0.6,2,1.5,3.8,2.7,5.6c1.1,1.7,2.5,3.3,4,4.6c1.5,1.3,3.2,2.4,5.1,3.1c-0.3,0.3-0.6,0.6-1,1c-0.4,0.4-0.7,0.8-1,1.3
		c-0.3,0.4-0.6,0.9-0.8,1.2c-2.1-1-3.9-2.2-5.5-3.8s-3-3.4-4.3-5.4c-1.2-2-2.2-4.3-2.9-6.7L136.6,24.4z"/>
	<path class="st0" d="M163.3,31.2l-1.2-3c1.9-0.7,3.4-1.6,4.4-2.8c1-1.1,1.5-2.5,1.5-4.1l-0.6-4.2l2.5,3.8c-0.4,0.4-0.8,0.6-1.2,0.8
		c-0.4,0.2-0.9,0.3-1.4,0.3c-1,0-2-0.3-2.7-0.9c-0.8-0.6-1.2-1.5-1.2-2.7c0-1.2,0.4-2.1,1.2-2.7c0.8-0.6,1.7-1,2.7-1
		c1.4,0,2.5,0.5,3.3,1.6c0.8,1,1.1,2.4,1.1,4.2c0,2.6-0.8,4.8-2.3,6.7C168,29,166,30.3,163.3,31.2z"/>
	<path class="st0" d="M200.1,21.4h4.5c-0.2,2.6-0.5,5.1-1,7.3c-0.5,2.2-1.2,4.3-2.2,6c-1,1.8-2.5,3.3-4.4,4.7
		c-1.9,1.4-4.4,2.5-7.4,3.5c-0.2-0.4-0.4-0.8-0.7-1.2c-0.3-0.5-0.6-0.9-0.9-1.4c-0.3-0.4-0.7-0.8-1-1.1c2.8-0.8,5-1.7,6.6-2.8
		c1.7-1.1,2.9-2.4,3.8-3.9c0.9-1.5,1.5-3.1,1.8-5C199.7,25.7,199.9,23.7,200.1,21.4z M187.6,6.4h40.2v4.1h-40.2V6.4z M191.6,24
		c-0.1-0.3-0.2-0.7-0.4-1.3s-0.4-1.1-0.6-1.7c-0.2-0.6-0.4-1.1-0.6-1.5c0.6-0.2,1.2-0.5,1.8-1.1c0.6-0.6,1.3-1.3,2.2-2.3
		c0.4-0.5,1.1-1.2,1.9-2.2c0.8-1,1.8-2.3,2.8-3.7c1-1.5,2.1-3,3.1-4.7c1.1-1.7,2-3.4,2.9-5.1l5,1.6c-1.5,2.5-3.1,5-4.7,7.3
		c-1.7,2.4-3.4,4.6-5.1,6.7c-1.7,2.1-3.4,3.9-5.1,5.6v0.1c-0.6,0.3-1.2,0.6-1.6,0.8c-0.4,0.2-0.8,0.5-1.1,0.8
		C191.8,23.6,191.6,23.8,191.6,24z M191.6,24l0-3.4l3-1.5l27.1-1.1c0.1,0.6,0.2,1.3,0.3,2c0.1,0.8,0.3,1.4,0.4,1.8
		c-4.3,0.2-8,0.4-11.1,0.6c-3.1,0.2-5.7,0.3-7.9,0.4c-2.1,0.1-3.9,0.2-5.3,0.3s-2.5,0.2-3.3,0.3c-0.8,0.1-1.5,0.2-1.9,0.3
		S191.9,23.9,191.6,24z M210.6,21.1h4.5v15.3c0,0.8,0.1,1.3,0.4,1.5c0.2,0.2,0.8,0.3,1.7,0.3c0.2,0,0.6,0,1.1,0c0.5,0,1.1,0,1.7,0
		c0.6,0,1.2,0,1.8,0c0.6,0,1,0,1.2,0c0.6,0,1-0.2,1.3-0.5c0.3-0.3,0.5-1,0.6-2.1c0.1-1,0.2-2.6,0.3-4.7c0.3,0.3,0.7,0.5,1.2,0.8
		s1,0.4,1.5,0.6c0.5,0.2,0.9,0.3,1.3,0.4c-0.2,2.5-0.4,4.4-0.8,5.7c-0.4,1.4-1,2.3-1.8,2.9s-1.9,0.8-3.3,0.8c-0.2,0-0.7,0-1.3,0
		s-1.3,0-2.1,0s-1.4,0-2,0s-1,0-1.3,0c-1.5,0-2.7-0.2-3.6-0.5c-0.9-0.4-1.5-1-1.8-1.8s-0.5-2-0.5-3.5V21.1z M211.6,13.5l3.6-2
		c1.4,1.1,2.7,2.3,4.1,3.6c1.4,1.3,2.7,2.7,3.9,4c1.2,1.3,2.2,2.6,2.9,3.7l-3.9,2.4c-0.6-1.1-1.6-2.3-2.7-3.7s-2.5-2.7-3.8-4.1
		C214.4,15.9,213,14.6,211.6,13.5z"/>
	<path class="st0" d="M238.3,16.4l2.4-3.2c0.9,0.3,1.8,0.7,2.8,1.2c1,0.5,1.9,1,2.7,1.5c0.8,0.5,1.5,1,2.1,1.5l-2.5,3.5
		c-0.5-0.5-1.2-1-2-1.5c-0.8-0.6-1.7-1.1-2.7-1.6C240.1,17.2,239.2,16.8,238.3,16.4z M239.2,40.4c0.6-1.2,1.3-2.6,2.1-4.2
		c0.7-1.6,1.5-3.4,2.2-5.2c0.7-1.8,1.4-3.6,2-5.4l3.5,2.3c-0.6,1.6-1.2,3.3-1.8,5c-0.6,1.7-1.3,3.4-2,5.1s-1.4,3.2-2,4.7L239.2,40.4
		z M240.2,4l2.4-3.1c0.9,0.4,1.8,0.8,2.7,1.3c0.9,0.5,1.8,1,2.6,1.6c0.8,0.6,1.5,1.1,2,1.6l-2.6,3.5c-0.5-0.5-1.1-1.1-1.9-1.7
		c-0.8-0.6-1.7-1.2-2.6-1.8C242,4.9,241.1,4.4,240.2,4z M249.9,4.3H281v3.8h-31.1V4.3z M250.8,18h27.1v3.7h-23.3v21.4h-3.7V18z
		 M257.7,28.1h2.4c-0.2,1.8-0.6,3.5-1.2,5.2c-0.6,1.7-1.6,3-2.9,4.1c-0.2-0.3-0.4-0.6-0.8-1c-0.4-0.4-0.7-0.6-1-0.9
		c1-0.9,1.8-2,2.4-3.4C257.2,30.9,257.6,29.5,257.7,28.1z M256,23.8h3.6v2.8H256V23.8z M256.5,0.4h4.1v11.1h9.1V0.4h4.3v14.8h-17.5
		V0.4z M257.7,23.8h2.8c0.1,2.6,0.4,4.9,0.9,6.9c0.5,2,1.3,3.5,2.3,4.4c-0.3,0.2-0.6,0.5-1,0.8s-0.7,0.7-0.9,1
		c-1-1.2-1.9-2.8-2.4-4.8c-0.6-2-0.9-4.4-1-7h-0.6V23.8z M263.1,14.3h3.8v28.4h-3.8V14.3z M270.1,28.1h2.5c-0.2,1.7-0.6,3.4-1.2,5
		c-0.6,1.6-1.6,2.9-2.9,4c-0.2-0.3-0.5-0.6-0.8-1c-0.4-0.4-0.7-0.6-1-0.8c1.1-0.8,1.9-1.9,2.4-3.2C269.6,30.7,269.9,29.4,270.1,28.1
		z M268.4,23.8h3.5v2.8h-3.5V23.8z M270.1,23.8h2.8c0.1,2.6,0.5,4.9,1.1,6.9c0.6,2,1.4,3.4,2.4,4.4c-0.3,0.2-0.6,0.5-1,0.8
		s-0.7,0.7-0.9,1c-1.1-1.2-2-2.8-2.6-4.8c-0.6-2-1-4.3-1.1-7h-0.6V23.8z M275.9,18h3.9v21.2c0,0.9-0.1,1.6-0.3,2.1
		c-0.2,0.5-0.6,0.9-1.2,1.2c-0.6,0.3-1.4,0.4-2.4,0.5c-1,0-2.1,0.1-3.5,0.1c-0.1-0.5-0.2-1-0.4-1.6s-0.4-1.1-0.6-1.6
		c0.9,0,1.7,0,2.4,0s1.3,0,1.5,0c0.5,0,0.7-0.2,0.7-0.6V18z"/>
	<path class="st0" d="M290.6,16.8l2.4-3.2c0.9,0.4,1.9,0.9,2.9,1.5c1.1,0.6,2.1,1.1,3.2,1.7c1,0.5,1.9,1,2.5,1.5l-2.4,3.6
		c-0.6-0.5-1.4-1-2.4-1.6c-1-0.6-2-1.2-3.1-1.8C292.6,17.9,291.6,17.3,290.6,16.8z M291.6,39.7c0.8-1.2,1.8-2.6,2.8-4.2
		c1-1.6,2-3.4,3.1-5.2c1-1.8,2-3.6,2.9-5.4l3.2,2.9c-0.8,1.6-1.7,3.3-2.6,5c-0.9,1.7-1.9,3.4-2.8,5.1c-1,1.7-1.9,3.2-2.9,4.7
		L291.6,39.7z M292.9,4.1l2.5-3.1c0.9,0.4,1.9,0.9,3,1.5c1.1,0.6,2.1,1.2,3.2,1.7c1,0.6,1.8,1.1,2.5,1.5l-2.5,3.5
		c-0.6-0.5-1.5-1-2.4-1.6c-1-0.6-2-1.2-3.1-1.8C294.8,5.2,293.8,4.6,292.9,4.1z M303.8,13.9h29.4v4.2h-29.4V13.9z M327.9,0.5
		l3.4,3.4c-2.2,0.8-4.6,1.5-7.3,2.1c-2.7,0.6-5.5,1.1-8.5,1.5c-2.9,0.4-5.7,0.7-8.4,1c-0.1-0.5-0.3-1.2-0.5-1.9
		c-0.3-0.7-0.5-1.3-0.8-1.8c2-0.2,4-0.5,6.1-0.8c2.1-0.3,4.1-0.6,6-1c2-0.4,3.8-0.7,5.5-1.2C325.1,1.5,326.6,1,327.9,0.5z
		 M306.9,24.9h23.5v18h-4.1V28.9h-15.3v14.2h-4V24.9z M309.7,37.2h18.3v4h-18.3V37.2z M316.7,5h4.1v22.2h-4.1V5z"/>
	<path class="st0" d="M359.3,0.5h4.6v8.7c0,2.1-0.1,4.3-0.3,6.7s-0.6,4.8-1.2,7.2c-0.6,2.5-1.6,4.9-2.8,7.3c-1.3,2.4-2.9,4.7-5,6.9
		c-2.1,2.2-4.7,4.3-7.9,6.2c-0.2-0.4-0.6-0.8-0.9-1.2c-0.4-0.4-0.8-0.9-1.2-1.3c-0.4-0.4-0.9-0.7-1.2-1c3-1.7,5.4-3.6,7.4-5.6
		c2-2,3.5-4.1,4.7-6.2c1.2-2.2,2-4.3,2.6-6.5c0.6-2.2,0.9-4.3,1.1-6.5c0.2-2.1,0.3-4.1,0.3-5.9V0.5z M344.6,10.3h35.6v4.5h-35.6
		V10.3z M378.4,10.3h4.6c0,0.6-0.1,1-0.1,1.4c0,0.3,0,0.6-0.1,0.8c-0.2,4.7-0.5,8.7-0.7,12s-0.5,6.1-0.8,8.2c-0.3,2.2-0.7,3.9-1,5.1
		c-0.4,1.2-0.8,2.2-1.4,2.7c-0.6,0.8-1.3,1.3-1.9,1.6c-0.7,0.3-1.5,0.5-2.4,0.6c-0.8,0.1-1.9,0.1-3.2,0.1c-1.4,0-2.7-0.1-4.1-0.1
		c0-0.6-0.2-1.4-0.5-2.3c-0.3-0.9-0.6-1.6-1.1-2.3c1.5,0.2,3,0.2,4.3,0.3c1.3,0,2.3,0,2.8,0c0.5,0,0.9,0,1.2-0.1
		c0.3-0.1,0.6-0.3,0.9-0.6c0.4-0.4,0.8-1.2,1.1-2.4c0.4-1.2,0.7-2.8,0.9-4.9c0.3-2.1,0.5-4.7,0.8-7.9s0.5-7,0.7-11.5V10.3z"/>
	<path class="st0" d="M395,28.4h42.1v4.1H395V28.4z M408.4,32.7l3.6,2.7c-1.3,1-2.7,1.9-4.4,2.8c-1.6,0.9-3.3,1.8-4.9,2.7
		c-1.7,0.8-3.3,1.6-4.8,2.2c-0.3-0.5-0.7-1-1.2-1.7c-0.5-0.6-0.9-1.2-1.4-1.7c1.5-0.6,3-1.2,4.7-2.1c1.6-0.8,3.2-1.7,4.7-2.6
		C406.2,34.3,407.4,33.5,408.4,32.7z M407.3,0.6l2,3.5c-1.5,0.6-3.1,1.1-4.8,1.6c-1.7,0.5-3.3,1-4.8,1.4c-0.1-0.4-0.2-0.9-0.4-1.5
		c-0.2-0.6-0.4-1.1-0.6-1.5c1.5-0.5,3-1.1,4.6-1.7C404.8,1.8,406.2,1.2,407.3,0.6z M398.6,4.1l4,1.1l0.8,24.4h-3.9L398.6,4.1z
		 M400.8,11.3h7.8v3.6h-7.8V11.3z M401.1,19.8h7.7v3.6h-7.7V19.8z M411.9,17.5l3.4,0.6c-0.2,1.5-0.5,3-1,4.5c-0.4,1.5-1,2.8-1.7,3.8
		c-0.3-0.2-0.8-0.6-1.4-0.9s-1.1-0.6-1.5-0.8c0.7-1,1.2-2.1,1.5-3.3C411.5,20.1,411.8,18.8,411.9,17.5z M410.8,0.7h3.7v11.7h5.7v3.5
		h-9.4V0.7z M412.9,4.6h9.1v3.6h-9.1V4.6z M418,12.5h3.7v12c0,0.8-0.1,1.4-0.3,1.8c-0.2,0.4-0.6,0.8-1.2,1c-0.6,0.2-1.3,0.3-2.1,0.4
		c-0.8,0-1.8,0.1-3,0.1c-0.1-0.4-0.2-0.9-0.4-1.4c-0.2-0.5-0.4-1-0.6-1.4c0.7,0,1.4,0.1,2,0.1c0.6,0,1,0,1.2,0c0.2,0,0.4,0,0.4-0.1
		c0.1-0.1,0.1-0.2,0.1-0.4V12.5z M420.2,35.5l2.4-3c1.6,0.7,3.3,1.5,4.9,2.4c1.7,0.9,3.2,1.7,4.7,2.5c1.5,0.8,2.7,1.6,3.8,2.3
		l-2.9,3.3c-1-0.7-2.2-1.5-3.6-2.4c-1.4-0.9-2.9-1.7-4.5-2.6C423.4,37.1,421.8,36.3,420.2,35.5z M423.4,2.6h8.6v3.8h-8.6V2.6z
		 M423.6,20h7.8v3.6h-7.8V20z M423.9,11.4h7.9V15h-7.9V11.4z M429.6,2.6h4c0,2.2-0.1,4.6-0.1,7c0,2.5-0.1,4.9-0.1,7.4
		c-0.1,2.5-0.1,4.8-0.2,7c-0.1,2.2-0.2,4.2-0.3,5.9h-4.1c0.1-1.7,0.2-3.7,0.4-5.9c0.1-2.2,0.2-4.6,0.3-7.1c0.1-2.5,0.1-4.9,0.2-7.4
		C429.5,7.1,429.6,4.8,429.6,2.6z"/>
	<path class="st0" d="M446.2,24.4c1.8-0.6,3.9-1.3,6.4-2.2c2.5-0.9,5-1.8,7.6-2.8l0.7,3.9c-2.3,0.9-4.7,1.8-7.1,2.7
		c-2.4,0.9-4.6,1.7-6.5,2.5L446.2,24.4z M446.8,9.4h13.8v4.1h-13.8V9.4z M452.3,0.5h4.1v37.9c0,1.1-0.1,1.9-0.4,2.5
		c-0.2,0.6-0.7,1.1-1.3,1.5c-0.6,0.3-1.4,0.6-2.4,0.7c-1,0.1-2.2,0.2-3.7,0.2c0-0.6-0.2-1.2-0.4-2c-0.2-0.8-0.5-1.5-0.8-2.1
		c0.9,0,1.8,0,2.5,0s1.3,0,1.6,0c0.3,0,0.5-0.1,0.6-0.2c0.1-0.1,0.2-0.3,0.2-0.6V0.5z M467.9,0.8h4.1v20.3c0,2.3-0.1,4.5-0.4,6.6
		c-0.2,2.1-0.7,4.1-1.5,5.9c-0.7,1.9-1.8,3.6-3.2,5.2c-1.4,1.6-3.3,3-5.7,4.2c-0.2-0.3-0.5-0.7-0.9-1.1c-0.4-0.4-0.7-0.8-1.1-1.1
		c-0.4-0.4-0.7-0.7-1.1-0.9c2.1-1.1,3.9-2.3,5.1-3.6c1.3-1.4,2.2-2.8,2.9-4.4c0.7-1.6,1.1-3.3,1.3-5.1c0.2-1.8,0.3-3.7,0.3-5.7V0.8z
		 M458.7,28.3c1.2-0.7,2.6-1.6,4.2-2.6c1.6-1.1,3.3-2.2,5-3.4l1.4,3.3c-1.4,1.1-2.8,2.2-4.3,3.3c-1.5,1.1-2.8,2.1-4.1,3.1
		L458.7,28.3z M460.4,7.9l3.3-1.8c0.7,1,1.3,2,2,3.2c0.6,1.1,1.2,2.3,1.7,3.3c0.5,1.1,0.9,2.1,1.1,3l-3.5,2c-0.2-0.9-0.6-1.9-1.1-3
		s-1-2.3-1.6-3.4C461.7,10,461,8.9,460.4,7.9z M475.9,0.8h4.1v35.6c0,1,0.1,1.6,0.2,1.9c0.2,0.3,0.5,0.4,1.1,0.4c0.1,0,0.3,0,0.6,0
		c0.3,0,0.7,0,1,0c0.4,0,0.7,0,1.1,0s0.6,0,0.7,0c0.4,0,0.6-0.2,0.8-0.5c0.2-0.4,0.3-1,0.4-1.9c0.1-0.9,0.2-2.2,0.2-3.9
		c0.5,0.4,1.1,0.8,1.8,1.1c0.7,0.3,1.4,0.6,1.9,0.7c-0.1,2.1-0.3,3.8-0.7,5s-0.8,2.1-1.5,2.7s-1.5,0.8-2.7,0.8c-0.2,0-0.5,0-0.9,0
		c-0.4,0-0.9,0-1.3,0c-0.5,0-0.9,0-1.3,0c-0.4,0-0.7,0-0.9,0c-1.2,0-2.2-0.2-2.9-0.6s-1.2-1-1.5-1.9c-0.3-0.9-0.4-2.2-0.4-3.8V0.8z
		 M478.5,23l2.7-2.6c1,0.9,2.1,1.8,3.2,2.8c1.1,1,2.1,2,3.1,3c1,1,1.8,1.8,2.4,2.6l-2.9,3.1c-0.6-0.8-1.4-1.7-2.3-2.7
		c-1-1-2-2.1-3.1-3.2C480.5,24.8,479.5,23.8,478.5,23z M485,5.6l3.9,2c-0.6,1.1-1.3,2.3-2,3.5c-0.7,1.2-1.4,2.4-2,3.5
		c-0.7,1.1-1.3,2.1-1.9,2.9l-3-1.7c0.6-0.9,1.1-2,1.8-3.1c0.6-1.2,1.2-2.4,1.8-3.6C484.1,7.8,484.6,6.7,485,5.6z"/>
	<path class="st0" d="M498.7,32.4h24.4v3.9h-24.4V32.4z M500.2,1.8h10v9.5h-10V1.8z M500.6,13.4h21.1v16.2h-21.1V13.4z M503.4,4.6
		v3.8h3.4V4.6H503.4z M504.3,16.7v3.2h13.6v-3.2H504.3z M504.3,23v3.3h13.6V23H504.3z M509.2,14.6h3.7v13.6h0.2v15h-4.2v-15h0.2
		V14.6z M512.1,1.8h10v9.5h-10V1.8z M515.3,4.6v3.8h3.5V4.6H515.3z M537,17.8l3.4,1.9c-1,3.2-2.5,6.2-4.2,9.2
		c-1.8,3-3.8,5.7-6.1,8.1c-2.3,2.4-4.8,4.4-7.5,5.8c-0.4-0.5-0.8-1-1.4-1.6c-0.6-0.6-1.2-1.1-1.8-1.5c2.7-1.3,5.3-3.1,7.6-5.3
		s4.3-4.8,6-7.7C534.7,23.8,536.1,20.9,537,17.8z M522.2,14.1l19.1-2.3l0.5,4l-19.1,2.4L522.2,14.1z M526.3,0.7h4.1
		c0.1,4,0.3,7.9,0.5,11.6c0.2,3.7,0.6,7.1,1,10.2c0.4,3.1,0.9,5.8,1.5,8.2c0.6,2.3,1.2,4.1,1.9,5.4c0.7,1.3,1.4,2,2.2,2.1
		c0.4,0,0.8-0.5,1.1-1.7c0.3-1.2,0.5-2.9,0.7-5.1c0.2,0.3,0.6,0.6,1,0.9s0.8,0.6,1.2,0.9c0.4,0.3,0.7,0.5,1,0.6
		c-0.3,2.5-0.8,4.5-1.3,5.9c-0.5,1.4-1.1,2.3-1.8,2.9s-1.3,0.8-1.9,0.8c-1.6-0.1-3-0.8-4.2-2.2c-1.2-1.4-2.2-3.4-3-5.9
		c-0.8-2.5-1.5-5.6-2.1-9.1c-0.5-3.5-1-7.4-1.2-11.7C526.7,10.2,526.5,5.6,526.3,0.7z M532.7,2.9l3.3-1.8c0.7,0.8,1.3,1.6,2,2.5
		s1.3,1.8,1.8,2.7c0.6,0.9,1,1.7,1.3,2.4l-3.5,2c-0.3-0.7-0.7-1.6-1.2-2.5c-0.5-0.9-1.1-1.9-1.8-2.8C534,4.6,533.3,3.7,532.7,2.9z"
		/>
	<path class="st0" d="M76.5,65.1l4.1,1.2c-1,2.6-2.2,5.2-3.5,7.8c-1.4,2.6-2.8,5-4.4,7.3c-1.6,2.3-3.2,4.3-4.8,6
		c-0.2-0.4-0.4-0.8-0.6-1.4c-0.3-0.6-0.6-1.1-0.9-1.7c-0.3-0.6-0.6-1-0.9-1.3c1.5-1.5,2.9-3.2,4.3-5.1c1.4-1.9,2.6-4,3.8-6.2
		C74.7,69.6,75.7,67.4,76.5,65.1z M71.9,77.3l4.1-4.1l0,0v34.4h-4.1V77.3z M86,65.1l4.3,1c-0.6,2.4-1.4,4.8-2.3,7.1
		c-0.9,2.3-1.8,4.5-2.9,6.6c-1,2-2.2,3.8-3.4,5.4c-0.2-0.2-0.6-0.6-1-0.9c-0.4-0.4-0.9-0.7-1.3-1.1c-0.4-0.4-0.9-0.6-1.2-0.9
		c1.2-1.4,2.3-3,3.2-4.8s1.8-3.8,2.6-5.9C84.9,69.5,85.5,67.3,86,65.1z M85,85.1l4.2,0.8c-0.5,2-1,4-1.7,5.9
		c-0.7,1.9-1.4,3.7-2.3,5.4c-0.8,1.7-1.7,3.1-2.6,4.4c-0.2-0.2-0.6-0.5-1.1-0.8c-0.5-0.3-0.9-0.6-1.4-0.9c-0.5-0.3-0.9-0.5-1.2-0.7
		c1.4-1.7,2.5-3.8,3.6-6.4C83.6,90.3,84.4,87.7,85,85.1z M86.2,73.6h20v4.1H84.6L86.2,73.6z M92.5,75.3h4.3v27.4
		c0,1.1-0.1,2-0.4,2.7c-0.3,0.7-0.7,1.2-1.5,1.5c-0.7,0.3-1.6,0.6-2.7,0.7c-1.1,0.1-2.3,0.2-3.8,0.2c-0.1-0.6-0.3-1.4-0.6-2.2
		c-0.3-0.8-0.6-1.6-0.9-2.1c1,0,2,0,2.9,0s1.5,0,1.8,0c0.3,0,0.5,0,0.6-0.1s0.2-0.3,0.2-0.6V75.3z M99.5,86l3.9-1.3
		c0.9,1.6,1.7,3.3,2.4,5.1c0.7,1.8,1.4,3.6,1.9,5.4c0.5,1.8,0.9,3.4,1.2,4.8l-4.2,1.5c-0.2-1.4-0.5-3-1.1-4.8
		c-0.5-1.8-1.1-3.6-1.8-5.5C101.1,89.3,100.3,87.6,99.5,86z M104.9,73.6h0.6l0.7-0.1l3,0.6c-0.3,1.8-0.6,3.6-1,5.5
		c-0.4,1.9-0.7,3.5-1.1,4.8l-3.7-0.7c0.2-0.8,0.3-1.7,0.5-2.8c0.2-1.1,0.4-2.2,0.5-3.4c0.2-1.2,0.3-2.3,0.4-3.3V73.6z"/>
	<path class="st0" d="M119.7,87.2h40.6v3.5h-40.6V87.2z M120.1,73h39.9v10.1h-4.3v-6.8h-31.3v6.8h-4.2V73z M122.1,66.9h35.6v3.2
		h-35.6V66.9z M123.2,93.5h31.3V97h-27.2v10.6h-4.1V93.5z M124.5,83.5c1.4-0.2,3.1-0.4,5-0.6c1.9-0.3,3.9-0.6,6-0.9l0.1,2.6
		c-1.8,0.4-3.5,0.8-5.2,1.2c-1.7,0.4-3.3,0.7-4.8,1L124.5,83.5z M125.9,78.9l1.2-2.2c1,0.2,2,0.4,3,0.6c1.1,0.2,2.1,0.5,3.1,0.8
		c1,0.3,1.8,0.6,2.4,0.9l-1.2,2.5c-0.6-0.3-1.5-0.6-2.4-0.9c-1-0.3-2-0.6-3.1-0.9C127.8,79.3,126.8,79.1,125.9,78.9z M133.2,95.9h4
		v11.5h-4V95.9z M137.8,88.5l4.7,0.1c-0.4,1.3-0.9,2.6-1.4,3.8c-0.5,1.2-0.9,2.3-1.3,3.2l-3.8-0.4c0.3-1,0.7-2.1,1-3.4
		C137.4,90.7,137.7,89.6,137.8,88.5z M137.7,67.9h4.3v18h-4.3V67.9z M143.3,95.9h4v11.5h-4V95.9z M143.4,84.2l0.9-2.5
		c1.2,0.1,2.4,0.3,3.8,0.6c1.3,0.2,2.6,0.5,3.9,0.8c1.2,0.3,2.3,0.6,3.1,0.9l-0.9,2.8c-0.8-0.3-1.9-0.6-3.1-0.9
		c-1.2-0.3-2.5-0.6-3.9-0.9C145.9,84.6,144.6,84.4,143.4,84.2z M152.4,76.4l1.8,2.4c-0.9,0.3-1.8,0.7-2.8,1c-1,0.3-2.1,0.6-3.1,0.8
		c-1,0.2-2,0.5-2.8,0.6L144,79c0.8-0.2,1.8-0.4,2.8-0.8c1-0.3,2-0.7,3-1C150.8,76.9,151.7,76.6,152.4,76.4z M153.6,93.5h4.2v10
		c0,1-0.1,1.7-0.3,2.2c-0.2,0.5-0.6,0.9-1.3,1.2c-0.6,0.3-1.4,0.5-2.4,0.6c-0.9,0.1-2,0.1-3.2,0.1c-0.1-0.5-0.3-1.1-0.5-1.8
		c-0.3-0.7-0.5-1.3-0.8-1.8c0.8,0,1.6,0,2.3,0s1.2,0,1.4,0c0.2,0,0.4-0.1,0.5-0.2c0.1-0.1,0.1-0.2,0.1-0.4V93.5z"/>
	<path class="st0" d="M201.6,88.5l4.2,1.2c-1.1,3.1-2.5,5.8-4.4,7.9c-1.8,2.2-4.1,3.9-6.7,5.3c-2.7,1.4-5.8,2.4-9.4,3.2
		c-3.6,0.7-7.8,1.3-12.5,1.7c-0.2-0.6-0.4-1.3-0.7-2c-0.3-0.7-0.6-1.3-1-1.8c4.5-0.2,8.4-0.7,11.8-1.3c3.4-0.6,6.3-1.5,8.8-2.7
		c2.5-1.2,4.5-2.7,6.1-4.5C199.4,93.6,200.7,91.3,201.6,88.5z M171.3,91.2h41.5v3.6h-41.5V91.2z M172,66.8h40v3.8h-40V66.8z
		 M174.3,73.9h36v12.4h-36V73.9z M176.8,99.9c1-1.1,2.1-2.5,3.2-4c1.1-1.5,2.2-3.1,3.2-4.7c1-1.6,1.9-3.2,2.5-4.7l4.3,1
		c-0.7,1.4-1.5,2.9-2.5,4.4s-2,3-3,4.3c-1,1.4-1.9,2.6-2.7,3.6L176.8,99.9z M176.8,99.9l3.4-2.8c3,0.5,6,1,8.9,1.6
		c3,0.6,5.9,1.2,8.7,1.9c2.8,0.6,5.4,1.3,7.9,2c2.4,0.7,4.6,1.3,6.5,2l-4,3.1c-2.3-0.9-5.1-1.8-8.4-2.7c-3.3-0.9-6.9-1.8-10.8-2.7
		C185.1,101.4,181.1,100.6,176.8,99.9z M178.3,77.4v5.4h27.6v-5.4H178.3z M184.4,68.2h4.1v16h-4.1V68.2z M195.1,68.2h4.1v16h-4.1
		V68.2z"/>
	<path class="st0" d="M225.8,81.4h4.1v11c0,1.6-0.1,3.3-0.3,5.1c-0.2,1.9-0.5,3.7-1.1,5.5c-0.5,1.8-1.4,3.4-2.5,4.8
		c-0.2-0.3-0.5-0.7-0.8-1c-0.4-0.4-0.8-0.8-1.2-1.1c-0.4-0.4-0.8-0.6-1.1-0.8c0.9-1.2,1.5-2.5,1.9-3.9s0.7-2.9,0.8-4.4
		c0.1-1.5,0.2-2.9,0.2-4.2V81.4z M225.3,79.1c-0.1-0.3-0.2-0.7-0.4-1.2c-0.2-0.5-0.3-1-0.5-1.5c-0.2-0.5-0.4-1-0.5-1.3
		c0.4-0.1,0.8-0.3,1.2-0.6c0.4-0.3,0.8-0.8,1.3-1.2c0.3-0.3,0.8-0.9,1.5-1.8c0.7-0.8,1.4-1.8,2.2-3c0.8-1.2,1.5-2.3,2.1-3.6l4.4,1.3
		c-0.8,1.4-1.7,2.7-2.7,4c-1,1.3-2,2.5-3,3.7c-1,1.2-2,2.2-3,3v0.1c-0.5,0.3-1,0.5-1.3,0.7c-0.3,0.2-0.6,0.4-0.9,0.7
		C225.5,78.7,225.3,79,225.3,79.1z M225.3,79.1l-0.1-3.2l2.2-1.3l14.4-1.1c0.1,0.6,0.2,1.2,0.4,1.8c0.2,0.7,0.3,1.2,0.5,1.7
		c-3.5,0.3-6.4,0.6-8.5,0.8c-2.1,0.2-3.8,0.4-5,0.5c-1.2,0.1-2,0.3-2.5,0.4C226.1,78.9,225.6,79,225.3,79.1z M227.9,81.4h12.8v3.7
		h-12.8V81.4z M229.1,98.4c1.4-0.6,3-1.4,4.8-2.3c1.9-0.9,3.8-1.9,5.7-2.9l0.9,2.7c-1.7,1.1-3.4,2.2-5.1,3.2c-1.7,1.1-3.3,2.1-4.8,3
		L229.1,98.4z M229.8,89.2l2.3-2.1c0.7,0.5,1.5,1,2.4,1.6c0.8,0.6,1.6,1.1,2.4,1.7c0.8,0.5,1.4,1,1.8,1.5l-2.3,2.4
		c-0.5-0.5-1.1-1-1.8-1.6c-0.7-0.6-1.5-1.2-2.4-1.8C231.4,90.3,230.6,89.7,229.8,89.2z M238.5,81.4h4.1v21.9c0,1-0.1,1.8-0.4,2.3
		c-0.2,0.6-0.7,1-1.3,1.3c-0.7,0.3-1.6,0.4-2.6,0.5c-1,0.1-2.3,0.1-3.7,0.1c-0.1-0.5-0.3-1.1-0.6-1.8c-0.3-0.7-0.6-1.2-0.8-1.7
		c1,0,1.9,0.1,2.7,0.1c0.8,0,1.4,0,1.7,0c0.3,0,0.5-0.1,0.6-0.2c0.1-0.1,0.2-0.3,0.2-0.6V81.4z M236.2,69.6l3.6-1.3
		c0.7,1.1,1.4,2.3,2.2,3.5c0.7,1.3,1.4,2.5,2.1,3.7s1.2,2.3,1.6,3.2l-3.8,1.6c-0.3-1-0.8-2.1-1.4-3.3c-0.6-1.2-1.3-2.5-2-3.8
		C237.6,72,236.9,70.7,236.2,69.6z M246.4,65h4.3V79c0,0.9,0.1,1.5,0.4,1.8c0.2,0.3,0.7,0.5,1.5,0.5c0.3,0,0.8,0,1.5,0
		c0.7,0,1.5,0,2.3,0c0.8,0,1.6,0,2.4,0s1.3,0,1.6,0c0.6,0,1.3,0,2.1-0.1c0.8-0.1,1.5-0.1,1.9-0.2c0.1,0.6,0.1,1.2,0.2,1.9
		c0.1,0.7,0.1,1.3,0.2,1.8c-0.4,0.1-1.1,0.2-1.9,0.3c-0.8,0-1.6,0.1-2.5,0.1c-0.3,0-0.7,0-1.3,0s-1.2,0-1.9,0s-1.3,0-2,0
		c-0.7,0-1.3,0-1.8,0s-0.9,0-1.1,0c-1.6,0-2.8-0.2-3.6-0.6c-0.9-0.4-1.5-1-1.8-1.9c-0.4-0.9-0.5-2.1-0.5-3.6V65z M246.4,86.6h4.3
		v15.1c0,0.8,0.2,1.3,0.5,1.5c0.3,0.2,1,0.3,2,0.3c0.2,0,0.6,0,1.2,0s1.2,0,2,0s1.4,0,2,0c0.6,0,1.1,0,1.4,0c0.6,0,1.1-0.1,1.4-0.4
		c0.3-0.3,0.5-0.8,0.6-1.6c0.1-0.8,0.2-2,0.3-3.5c0.5,0.3,1.1,0.6,1.9,0.9c0.8,0.3,1.4,0.5,2,0.6c-0.2,2-0.4,3.6-0.8,4.7
		c-0.4,1.1-1,1.9-1.8,2.4c-0.8,0.4-1.9,0.7-3.2,0.7c-0.2,0-0.6,0-1.1,0s-1.1,0-1.7,0s-1.3,0-1.9,0s-1.2,0-1.7,0s-0.9,0-1,0
		c-1.6,0-2.9-0.2-3.8-0.5c-0.9-0.3-1.5-0.9-1.9-1.7c-0.3-0.8-0.5-2-0.5-3.4V86.6z M249.1,71h13.7v3.8h-13.7V71z M249.1,91.7h14.1
		v3.9h-14.1V91.7z"/>
	<path class="st0" d="M278,68.4h4v13.8c0,1.8-0.1,3.9-0.2,6.1c-0.1,2.2-0.3,4.5-0.6,6.8c-0.3,2.3-0.7,4.6-1.3,6.8
		c-0.6,2.2-1.3,4.2-2.2,6c-0.2-0.2-0.5-0.5-0.9-0.9c-0.4-0.3-0.8-0.7-1.3-1c-0.4-0.3-0.8-0.5-1.1-0.7c0.9-1.7,1.5-3.5,2-5.4
		c0.5-2,0.9-4,1.1-6.1s0.4-4.1,0.4-6.1s0.1-3.8,0.1-5.5V68.4z M280.4,68.4h36.8V72h-36.8V68.4z M289.5,72l3.6,1.1
		c-1.2,2.4-2.6,4.7-4.3,6.9c-1.7,2.2-3.4,4.1-5.1,5.6c-0.2-0.2-0.4-0.5-0.8-0.9c-0.3-0.4-0.7-0.7-1-1.1c-0.4-0.4-0.7-0.6-0.9-0.9
		c1.7-1.3,3.3-2.9,4.8-4.9C287.3,76,288.5,74,289.5,72z M286.4,96.6l3.5,1.2c-0.5,1.6-1.2,3.2-2,4.9s-1.9,3-3.2,4.1l-3.3-2.2
		c1.2-1,2.2-2.2,3.1-3.6C285.2,99.5,285.9,98,286.4,96.6z M286.6,79.8l3.7-3.6l0,0v18h-3.7V79.8z M297,71.9l3.6,1
		c-1,2.2-2.1,4.4-3.5,6.5c-1.4,2.1-2.8,3.9-4.3,5.4c-0.2-0.2-0.5-0.5-0.9-0.8c-0.4-0.3-0.7-0.6-1.1-0.9c-0.4-0.3-0.7-0.5-1-0.7
		c1.4-1.3,2.8-2.9,4.1-4.7C295.1,75.7,296.2,73.8,297,71.9z M292.1,96.8h4v5.9c0,0.5,0.1,0.9,0.4,1c0.3,0.1,0.8,0.2,1.7,0.2
		c0.2,0,0.5,0,1.1,0c0.5,0,1.1,0,1.8,0s1.2,0,1.8,0c0.6,0,1,0,1.2,0c0.5,0,0.9-0.1,1.1-0.2c0.2-0.2,0.4-0.5,0.5-1s0.2-1.4,0.3-2.5
		c0.4,0.3,1,0.6,1.7,0.9c0.7,0.3,1.3,0.5,1.8,0.6c-0.1,1.6-0.4,2.8-0.7,3.6c-0.3,0.8-0.9,1.4-1.5,1.8c-0.7,0.3-1.6,0.5-2.7,0.5
		c-0.2,0-0.5,0-1,0s-1,0-1.6,0c-0.6,0-1.2,0-1.8,0s-1.1,0-1.6,0s-0.8,0-1,0c-1.5,0-2.7-0.1-3.5-0.4c-0.8-0.3-1.4-0.8-1.7-1.5
		c-0.3-0.7-0.5-1.6-0.5-2.8V96.8z M294.3,65.3l3.8-1.2c0.6,0.9,1.3,1.8,1.9,2.9c0.6,1,1,2,1.3,2.8l-4,1.4c-0.2-0.8-0.7-1.8-1.2-2.9
		C295.5,67.1,294.9,66.2,294.3,65.3z M294.5,79.3l3.6-3v17.9h-3.6V79.3z M295.4,90.1h21.1v2.8h-21.1V90.1z M297.7,76.1h18.1v2.7h-20
		L297.7,76.1z M296.2,95.5l2.5-2.4c0.9,0.4,1.8,0.9,2.7,1.4c1,0.5,1.9,1.1,2.7,1.6c0.8,0.5,1.5,1.1,2.1,1.6l-2.6,2.6
		c-0.5-0.5-1.2-1.1-2-1.7c-0.8-0.6-1.7-1.2-2.7-1.7S297.1,96,296.2,95.5z M296.7,80.9h17.8v2.3h-17.8V80.9z M296.7,85.5h17.9v2.3
		h-17.9V85.5z M303,73.1l3.1-1.2c0.6,0.6,1.1,1.2,1.6,1.9c0.5,0.7,0.9,1.3,1.2,1.9l-3.2,1.5c-0.2-0.6-0.6-1.3-1.1-2
		C304,74.3,303.5,73.6,303,73.1z M304.6,77.3h3.7v13.8h-3.7V77.3z M307.7,97.6l3.2-1.6c0.9,0.9,1.8,1.8,2.6,2.9
		c0.8,1,1.6,2.1,2.3,3.1c0.7,1,1.2,2,1.5,2.8l-3.5,1.8c-0.3-0.9-0.8-1.8-1.5-2.9c-0.7-1-1.4-2.1-2.2-3.2
		C309.4,99.5,308.6,98.5,307.7,97.6z"/>
	<path class="st0" d="M327.2,101.8c2-0.2,4.2-0.5,6.8-0.7c2.5-0.3,5.2-0.6,8-0.9c2.8-0.4,5.6-0.7,8.4-1l0.1,3.8
		c-2.7,0.3-5.4,0.7-8.2,1c-2.7,0.4-5.3,0.7-7.8,1c-2.5,0.3-4.7,0.6-6.7,0.9L327.2,101.8z M327.3,74.8h23.2v3.6h-23.2V74.8z
		 M327.7,68.2l2.7-1.8c0.8,0.9,1.6,1.8,2.4,2.9c0.8,1.1,1.4,2,1.8,2.8l-2.9,1.9c-0.3-0.8-0.9-1.8-1.7-2.9
		C329.3,70.1,328.5,69.1,327.7,68.2z M328.7,84.9h20.4v3.6h-20.4V84.9z M329.8,92.5h18.5v3.6h-18.5V92.5z M331,79.8l3-1.6
		c0.7,0.8,1.4,1.6,2.1,2.6c0.7,1,1.2,1.8,1.5,2.5l-3.2,1.8c-0.3-0.7-0.7-1.6-1.4-2.6C332.4,81.6,331.7,80.7,331,79.8z M334,65h3.5
		v11.1H334V65z M336.9,86h4.1v16.7h-4.1V86z M343.4,78.4l3.8,1.4c-0.6,1.2-1.3,2.4-2,3.7c-0.7,1.2-1.3,2.3-1.9,3.2l-3.2-1.2
		c0.4-0.6,0.8-1.4,1.2-2.2c0.4-0.8,0.8-1.6,1.2-2.5C342.9,79.9,343.2,79.1,343.4,78.4z M340.4,65h3.5v11.1h-3.5V65z M347.4,66.6
		l3.5,1.9c-0.9,1-1.8,2-2.7,3.1c-0.9,1-1.8,1.9-2.5,2.7l-2.6-1.7c0.5-0.5,1-1.1,1.5-1.8c0.5-0.7,1.1-1.4,1.6-2.2
		C346.7,67.8,347.1,67.1,347.4,66.6z M350.4,77h18.9v4.1h-18.9V77z M351.4,85.5l3.6-1.2c0.6,1.1,1.2,2.3,1.8,3.5
		c0.6,1.2,1,2.5,1.4,3.6c0.4,1.2,0.7,2.3,0.8,3.2l-3.9,1.4c-0.2-0.9-0.4-2-0.8-3.2c-0.4-1.2-0.8-2.5-1.3-3.7
		C352.5,87.8,352,86.6,351.4,85.5z M361,65h4.2v37.5c0,1.2-0.1,2.2-0.4,2.8c-0.3,0.6-0.8,1.1-1.6,1.5c-0.7,0.4-1.7,0.6-2.9,0.7
		c-1.2,0.1-2.7,0.1-4.6,0.1c-0.1-0.4-0.2-0.8-0.3-1.3c-0.2-0.5-0.4-1-0.6-1.5s-0.4-0.9-0.6-1.3c1.3,0,2.5,0,3.6,0c1.1,0,1.8,0,2.2,0
		c0.4,0,0.7-0.1,0.8-0.3s0.2-0.4,0.2-0.8V65z"/>
	<path class="st0" d="M386.1,76.3l4.9,0.8c-0.5,2.3-1.1,4.7-1.9,7.2c-0.8,2.5-1.7,4.9-2.7,7.2c-1,2.3-2.2,4.3-3.6,6
		c-0.3-0.2-0.8-0.5-1.3-0.8c-0.5-0.3-1-0.6-1.5-0.8c-0.5-0.3-1-0.5-1.4-0.7c1.3-1.6,2.5-3.5,3.5-5.6c1-2.2,1.8-4.4,2.5-6.8
		C385.2,80.5,385.8,78.3,386.1,76.3z M398.2,65.6h4.7V102c0,1.5-0.2,2.6-0.6,3.3c-0.4,0.7-1.1,1.2-2,1.6c-0.9,0.3-2.2,0.6-3.7,0.7
		c-1.5,0.1-3.4,0.2-5.6,0.2c-0.1-0.4-0.2-0.9-0.4-1.5c-0.2-0.5-0.4-1.1-0.6-1.6c-0.2-0.6-0.5-1-0.7-1.5c1.1,0.1,2.2,0.1,3.2,0.1
		c1,0,1.9,0,2.7,0c0.8,0,1.3,0,1.7,0c0.5,0,0.8-0.1,1-0.3c0.2-0.2,0.3-0.5,0.3-0.9V65.6z M409.3,77.5l4.2-1.6
		c1.3,2.2,2.6,4.5,3.8,6.9c1.2,2.5,2.3,4.9,3.2,7.3c0.9,2.4,1.6,4.5,2,6.4l-4.7,1.9c-0.3-1.8-0.9-4-1.8-6.4c-0.8-2.4-1.9-4.9-3-7.4
		C411.8,82.1,410.6,79.7,409.3,77.5z"/>
	<path class="st0" d="M430.9,89.6c1.4-0.3,3-0.8,4.8-1.2c1.8-0.5,3.7-1,5.7-1.6c2-0.6,4.1-1.2,6.1-1.8l0.5,3.9
		c-2.8,0.9-5.7,1.8-8.5,2.7c-2.9,0.9-5.4,1.7-7.7,2.5L430.9,89.6z M437.9,79.7h4.3v23.2c0,1.1-0.1,1.9-0.4,2.5
		c-0.3,0.6-0.8,1.1-1.5,1.4c-0.8,0.3-1.7,0.5-2.8,0.6c-1.1,0.1-2.5,0.1-4.1,0.1c-0.1-0.6-0.3-1.2-0.6-2c-0.3-0.8-0.6-1.4-0.9-1.9
		c1.2,0,2.2,0.1,3.2,0.1c1,0,1.6,0,1.9,0c0.6,0,0.9-0.3,0.9-0.8V79.7z M432,67.8h13v4.1h-13V67.8z M443.7,67.8h1l0.9-0.2l2.8,2
		c-0.7,1.4-1.5,2.8-2.4,4.4c-0.9,1.5-1.8,3-2.7,4.4c-1,1.4-1.9,2.7-2.8,3.7c-0.3-0.4-0.7-0.8-1.2-1.3c-0.5-0.5-1-0.8-1.3-1.1
		c0.7-1,1.5-2.1,2.2-3.4s1.4-2.6,2.1-3.9c0.6-1.3,1.1-2.5,1.5-3.6V67.8z M468.2,86.7l4.4,1.5c-1.7,2.9-3.7,5.6-6.2,8.1
		c-2.4,2.5-5.2,4.7-8.3,6.7c-3.1,2-6.5,3.6-10.2,4.8c-0.2-0.3-0.4-0.7-0.7-1.2c-0.3-0.4-0.6-0.9-0.9-1.3c-0.3-0.4-0.6-0.8-0.9-1.1
		c3.5-1.1,6.8-2.5,9.7-4.3c3-1.8,5.6-3.8,7.8-6C465.2,91.6,467,89.2,468.2,86.7z M465.4,78l4.1,1.4c-1.4,2.5-3.1,4.9-5.1,7.2
		c-2,2.3-4.3,4.4-6.8,6.3c-2.5,1.9-5.2,3.5-8.1,4.8c-0.2-0.3-0.4-0.7-0.7-1.1c-0.3-0.4-0.6-0.8-0.9-1.2c-0.3-0.4-0.6-0.7-0.8-1
		c2.7-1.2,5.2-2.6,7.6-4.3c2.4-1.7,4.5-3.6,6.3-5.7C462.8,82.3,464.3,80.2,465.4,78z M448.1,70.9h25.8v4h-25.8V70.9z M449.9,87.3
		c0-0.3-0.1-0.8-0.3-1.3c-0.1-0.5-0.3-1-0.4-1.5c-0.2-0.5-0.3-0.9-0.4-1.2c0.5-0.1,1.1-0.3,1.7-0.5c0.6-0.2,1.1-0.5,1.5-0.9
		c0.2-0.3,0.6-0.8,1.1-1.6c0.5-0.7,1-1.6,1.5-2.5c0.5-0.9,1-1.8,1.5-2.7c0.5-0.9,0.9-1.6,1.1-2.1h4.5c-0.4,0.7-0.9,1.6-1.5,2.6
		c-0.6,1-1.2,2.1-1.8,3.2c-0.6,1.1-1.2,2.2-1.8,3.2c-0.6,1-1.1,1.9-1.6,2.6c-0.7,0.2-1.3,0.4-1.8,0.6s-1,0.4-1.5,0.6
		c-0.5,0.2-0.9,0.5-1.3,0.7C450.1,86.8,449.9,87,449.9,87.3z M449.9,87.3l0-3.1l2.2-1.3l13.2-0.7c-0.2,0.6-0.4,1.2-0.7,1.9
		c-0.2,0.7-0.4,1.3-0.5,1.7c-2.8,0.2-5.1,0.3-6.9,0.5c-1.8,0.1-3.1,0.3-4.1,0.4c-1,0.1-1.7,0.2-2.1,0.3S450.2,87.2,449.9,87.3z
		 M457.4,65.9l4.1-1.3c0.6,1,1.1,2,1.6,3.2c0.5,1.2,0.8,2.2,1,3.1l-4.3,1.5c-0.2-0.9-0.5-1.9-0.9-3.1
		C458.4,68,457.9,66.9,457.4,65.9z M461.1,98.6l3.1-2.4c1,0.8,2.2,1.8,3.4,2.8c1.2,1,2.3,2,3.4,3c1.1,1,2,1.9,2.7,2.7l-3.4,2.8
		c-0.6-0.8-1.5-1.8-2.5-2.8c-1-1-2.1-2.1-3.3-3.2C463.3,100.5,462.2,99.5,461.1,98.6z"/>
	<path class="st0" d="M496.2,93.5c-1-1.2-2-2.4-3.2-3.6c-1.2-1.2-2.3-2.4-3.5-3.5c-1.2-1.1-2.3-2.2-3.4-3l3.8-3.3
		c1.1,0.9,2.3,1.9,3.5,3.1c1.2,1.2,2.4,2.4,3.6,3.6c1.2,1.2,2.2,2.4,3.1,3.4L496.2,93.5z"/>
	<path class="st0" d="M513.1,92.5l40.1-5.1l0.6,4.1l-40.1,5.3L513.1,92.5z M545.2,65.1l3.7,3.5c-2.3,0.9-4.8,1.7-7.5,2.4
		c-2.7,0.7-5.6,1.4-8.5,2c-3,0.6-6,1.2-9.1,1.6c-3.1,0.5-6,0.9-9,1.3c0-0.4-0.1-0.8-0.3-1.3c-0.1-0.5-0.3-0.9-0.5-1.4
		c-0.2-0.5-0.4-0.8-0.6-1.2c2.9-0.4,5.8-0.8,8.7-1.3c3-0.5,5.9-1.1,8.7-1.7s5.4-1.2,7.9-1.9C541.3,66.6,543.4,65.9,545.2,65.1z
		 M514.5,81.9l35.7-4.8l0.6,4.1l-35.6,4.9L514.5,81.9z M528.5,72.3h4.5v27.4c0,0.8,0.1,1.5,0.3,1.9c0.2,0.4,0.5,0.7,1.1,0.9
		c0.6,0.2,1.4,0.2,2.4,0.2c0.3,0,0.8,0,1.5,0s1.5,0,2.3,0s1.8,0,2.7,0c0.9,0,1.7,0,2.4,0c0.7,0,1.3,0,1.6,0c0.9,0,1.6-0.2,2.1-0.5
		c0.5-0.3,0.8-1,1-1.9c0.2-0.9,0.4-2.2,0.5-3.9c0.5,0.4,1.2,0.7,2,1.1c0.8,0.3,1.6,0.6,2.2,0.7c-0.2,2.2-0.6,4-1.1,5.2
		c-0.5,1.3-1.2,2.2-2.3,2.7c-1,0.6-2.4,0.8-4.2,0.8c-0.3,0-0.8,0-1.6,0s-1.6,0-2.6,0c-1,0-1.9,0-2.9,0s-1.8,0-2.6,0s-1.2,0-1.5,0
		c-2,0-3.6-0.2-4.8-0.6c-1.2-0.4-2-1.2-2.4-2.2s-0.7-2.5-0.7-4.4V72.3z"/>
	<path class="st0" d="M564.1,89.6c1.4-0.3,3-0.8,4.8-1.2c1.8-0.5,3.7-1,5.7-1.6c2-0.6,4.1-1.2,6.1-1.8l0.5,3.9
		c-2.8,0.9-5.7,1.8-8.5,2.7c-2.9,0.9-5.4,1.7-7.7,2.5L564.1,89.6z M571.1,79.7h4.3v23.2c0,1.1-0.1,1.9-0.4,2.5
		c-0.3,0.6-0.8,1.1-1.5,1.4c-0.8,0.3-1.7,0.5-2.8,0.6c-1.1,0.1-2.5,0.1-4.1,0.1c-0.1-0.6-0.3-1.2-0.6-2c-0.3-0.8-0.6-1.4-0.9-1.9
		c1.2,0,2.2,0.1,3.2,0.1c1,0,1.6,0,1.9,0c0.6,0,0.9-0.3,0.9-0.8V79.7z M565.2,67.8h13v4.1h-13V67.8z M576.9,67.8h1l0.9-0.2l2.8,2
		c-0.7,1.4-1.5,2.8-2.4,4.4s-1.8,3-2.7,4.4c-1,1.4-1.9,2.7-2.8,3.7c-0.3-0.4-0.7-0.8-1.2-1.3c-0.5-0.5-1-0.8-1.3-1.1
		c0.7-1,1.5-2.1,2.2-3.4c0.7-1.3,1.4-2.6,2.1-3.9c0.6-1.3,1.1-2.5,1.5-3.6V67.8z M601.4,86.7l4.4,1.5c-1.7,2.9-3.7,5.6-6.2,8.1
		c-2.4,2.5-5.2,4.7-8.3,6.7c-3.1,2-6.5,3.6-10.2,4.8c-0.2-0.3-0.4-0.7-0.7-1.2c-0.3-0.4-0.6-0.9-0.9-1.3c-0.3-0.4-0.6-0.8-0.9-1.1
		c3.5-1.1,6.8-2.5,9.7-4.3c3-1.8,5.6-3.8,7.8-6S600.2,89.2,601.4,86.7z M598.6,78l4.1,1.4c-1.4,2.5-3.1,4.9-5.1,7.2
		c-2,2.3-4.3,4.4-6.8,6.3c-2.5,1.9-5.2,3.5-8.1,4.8c-0.2-0.3-0.4-0.7-0.7-1.1c-0.3-0.4-0.6-0.8-0.9-1.2c-0.3-0.4-0.6-0.7-0.8-1
		c2.7-1.2,5.2-2.6,7.6-4.3c2.4-1.7,4.5-3.6,6.3-5.7C596,82.3,597.5,80.2,598.6,78z M581.3,70.9h25.8v4h-25.8V70.9z M583.1,87.3
		c0-0.3-0.1-0.8-0.3-1.3c-0.1-0.5-0.3-1-0.4-1.5c-0.2-0.5-0.3-0.9-0.4-1.2c0.5-0.1,1.1-0.3,1.7-0.5c0.6-0.2,1.1-0.5,1.5-0.9
		c0.2-0.3,0.6-0.8,1.1-1.6c0.5-0.7,1-1.6,1.5-2.5c0.5-0.9,1-1.8,1.5-2.7c0.5-0.9,0.9-1.6,1.1-2.1h4.5c-0.4,0.7-0.9,1.6-1.5,2.6
		c-0.6,1-1.2,2.1-1.8,3.2c-0.6,1.1-1.2,2.2-1.8,3.2s-1.1,1.9-1.6,2.6c-0.7,0.2-1.3,0.4-1.8,0.6s-1,0.4-1.5,0.6s-0.9,0.5-1.3,0.7
		C583.3,86.8,583.1,87,583.1,87.3z M583.1,87.3l0-3.1l2.2-1.3l13.2-0.7c-0.2,0.6-0.4,1.2-0.7,1.9c-0.2,0.7-0.4,1.3-0.5,1.7
		c-2.8,0.2-5.1,0.3-6.9,0.5c-1.8,0.1-3.1,0.3-4.1,0.4c-1,0.1-1.7,0.2-2.1,0.3S583.4,87.2,583.1,87.3z M590.6,65.9l4.1-1.3
		c0.6,1,1.1,2,1.6,3.2c0.5,1.2,0.8,2.2,1,3.1l-4.3,1.5c-0.2-0.9-0.5-1.9-0.9-3.1C591.6,68,591.1,66.9,590.6,65.9z M594.3,98.6
		l3.1-2.4c1,0.8,2.2,1.8,3.4,2.8c1.2,1,2.3,2,3.4,3c1.1,1,2,1.9,2.7,2.7l-3.4,2.8c-0.6-0.8-1.5-1.8-2.5-2.8c-1-1-2.1-2.1-3.3-3.2
		C596.5,100.5,595.4,99.5,594.3,98.6z"/>
	<path class="st0" d="M629.4,93.5c-1-1.2-2-2.4-3.2-3.6c-1.2-1.2-2.3-2.4-3.5-3.5s-2.3-2.2-3.4-3L623,80c1.1,0.9,2.3,1.9,3.5,3.1
		c1.2,1.2,2.5,2.4,3.6,3.6c1.2,1.2,2.2,2.4,3.1,3.4L629.4,93.5z"/>
	<path class="st0" d="M647.1,68.3h3.8v34.6h-3.8V68.3z M649.1,81.6h8.9v3.9h-8.9V81.6z M649.2,68.3h10.7v31h-10.7v-4h6.9v-23h-6.9
		V68.3z M661.3,80.4h26.9v3.8h-26.9V80.4z M662.5,70h24.2v3.8h-24.2V70z M664.1,87.2h21.2v20.4h-4.2V90.8h-13.1v16.9h-4V87.2z
		 M665.6,74.8l3.7-1c0.4,1,0.9,2,1.3,3.2c0.4,1.2,0.7,2.2,0.9,3l-3.9,1.2c-0.2-0.9-0.4-1.9-0.8-3.1
		C666.5,76.9,666.1,75.8,665.6,74.8z M666.4,94.7h16.2V98h-16.2V94.7z M666.5,102.1h16.3v3.6h-16.3V102.1z M671.3,65.9l4-1
		c0.5,0.9,0.9,2,1.4,3.1s0.8,2.1,0.9,2.9l-4.2,1.2c-0.1-0.8-0.4-1.8-0.8-3C672.2,67.9,671.7,66.8,671.3,65.9z M679.7,73.9l4.5,0.9
		c-0.6,1.3-1.2,2.7-1.8,4.1s-1.2,2.6-1.7,3.5l-3.5-0.9c0.3-0.7,0.7-1.5,1-2.4c0.3-0.9,0.6-1.8,0.9-2.7S679.5,74.6,679.7,73.9z"/>
	<path class="st0" d="M701.3,73.4h4.1v11.1c0,1.7-0.1,3.5-0.2,5.6c-0.1,2-0.4,4.1-0.7,6.2c-0.3,2.1-0.8,4.2-1.4,6.2
		c-0.6,2-1.5,3.8-2.5,5.4c-0.2-0.2-0.5-0.5-1-0.9c-0.4-0.4-0.9-0.7-1.3-1c-0.4-0.3-0.8-0.5-1.1-0.7c0.9-1.5,1.7-3.2,2.2-5
		c0.5-1.8,0.9-3.6,1.2-5.4c0.3-1.8,0.4-3.7,0.5-5.4c0.1-1.8,0.1-3.4,0.1-4.9V73.4z M716.9,89.3h0.7l0.6-0.1l2.2,0.6
		c-0.6,3.4-1.6,6.3-3,8.6c-1.4,2.4-3.1,4.3-5,5.9c-2,1.5-4.2,2.8-6.8,3.7c-0.2-0.5-0.5-1-0.8-1.6c-0.4-0.6-0.7-1.1-1.1-1.5
		c2.2-0.7,4.3-1.7,6-3c1.8-1.3,3.3-3,4.5-5c1.2-2,2.1-4.4,2.7-7.1V89.3z M703.7,73.4h32.7v3.4h-32.7V73.4z M710.9,85.7l3.4,0.8
		c-0.8,2.5-1.9,4.8-3.3,7s-2.9,4.1-4.5,5.5c-0.2-0.2-0.4-0.5-0.7-0.8s-0.6-0.6-0.9-1c-0.3-0.3-0.6-0.6-0.9-0.8
		c1.5-1.3,2.9-2.9,4.1-4.8C709.3,89.8,710.2,87.8,710.9,85.7z M707.6,79.8l24-1.4l0.2,2.7l-24.1,1.5L707.6,79.8z M710.8,92.1
		c0.7,2.4,1.6,4.4,2.7,5.9c1.1,1.5,2.4,2.7,3.9,3.4c1.5,0.8,3.1,1.3,4.9,1.6c1.8,0.3,3.8,0.4,5.9,0.4c0.3,0,0.9,0,1.7,0s1.7,0,2.7,0
		s2.1,0,3.1,0s2,0,2.9,0c0.9,0,1.5,0,1.9,0c-0.3,0.4-0.5,1-0.8,1.7c-0.2,0.7-0.4,1.4-0.6,1.9h-2.4H728c-2.6,0-4.9-0.2-7-0.6
		c-2.1-0.4-4-1-5.6-2s-3.1-2.4-4.4-4.2c-1.2-1.8-2.3-4.2-3.1-7.2L710.8,92.1z M710.8,89.3h7.1v3h-7.1V89.3z M716.2,64.9h4.3v10.3
		h-4.3V64.9z M716.2,76h4.1v6.4c0,0.6,0.1,1.1,0.3,1.3c0.2,0.3,0.7,0.4,1.5,0.4c0.3,0,0.8,0,1.5,0c0.7,0,1.4,0,2.2,0
		c0.8,0,1.7,0,2.5,0c0.8,0,1.6,0,2.3,0s1.2,0,1.5,0c0.5,0,1.1,0,1.8,0c0.7,0,1.3-0.1,2-0.1c0.6-0.1,1.1-0.1,1.5-0.2
		c0.1,0.6,0.1,1.1,0.2,1.7c0,0.5,0.1,1,0.2,1.5c-0.5,0.2-1.2,0.2-2.2,0.3c-1,0-2,0-3,0c-0.3,0-0.9,0-1.7,0c-0.8,0-1.6,0-2.5,0
		s-1.8,0-2.8,0s-1.7,0-2.4,0c-0.7,0-1.2,0-1.4,0c-1.5,0-2.6-0.2-3.4-0.5c-0.8-0.3-1.4-0.9-1.7-1.6c-0.3-0.7-0.4-1.7-0.4-2.8V76z
		 M718.2,67.6H736v3.2h-17.8V67.6z M722.7,89.3h3.5v3.5c0,1-0.1,2.1-0.3,3.2c-0.2,1.2-0.7,2.3-1.3,3.3c-0.6,1.1-1.5,2.1-2.7,2.9
		c-0.2-0.2-0.4-0.5-0.7-0.8c-0.3-0.3-0.7-0.6-1-0.9c-0.4-0.3-0.7-0.5-0.9-0.7c1.5-1.1,2.5-2.3,2.9-3.6c0.4-1.3,0.6-2.5,0.6-3.7V89.3
		z M724.5,89.3h7.9v3.2h-7.9V89.3z M730,89.3h3.3v8.6c0,0.5,0,0.8,0.1,0.9c0.1,0.1,0.3,0.2,0.5,0.2c0.1,0,0.2,0,0.4,0
		c0.2,0,0.4,0,0.6,0s0.4,0,0.4,0c0.3,0,0.5-0.2,0.6-0.6c0.1-0.4,0.2-1.2,0.3-2.5c0.3,0.2,0.7,0.4,1.2,0.6c0.5,0.2,1,0.3,1.4,0.5
		c-0.1,1.7-0.4,2.9-0.8,3.5c-0.5,0.6-1.2,0.9-2.2,0.9c-0.2,0-0.4,0-0.7,0c-0.3,0-0.7,0-1,0c-0.3,0-0.6,0-0.7,0
		c-1.3,0-2.2-0.2-2.6-0.7c-0.5-0.5-0.7-1.4-0.7-2.7V89.3z M735,73.4h0.7l0.7-0.2l3.1,0.8c-0.5,1.4-1,2.8-1.5,4.2
		c-0.6,1.4-1.1,2.6-1.7,3.7l-3.6-1.1c0.4-0.9,0.9-2,1.3-3.2c0.4-1.3,0.8-2.5,1.1-3.6V73.4z"/>
	<path class="st0" d="M751.6,72.4h4v34.1h-4V72.4z M754,85h12.3v3.8H754V85z M754.2,72.4h14.1v30.6h-14.1V99h10.1V76.2h-10.1V72.4z
		 M758.5,64.8l4.7,0.8c-0.5,1.5-1,3-1.6,4.5c-0.6,1.5-1.1,2.8-1.5,3.8l-3.5-0.8c0.2-0.8,0.4-1.6,0.7-2.6c0.2-1,0.5-2,0.7-2.9
		C758.2,66.5,758.4,65.6,758.5,64.8z M775.2,64.8l4.2,1c-0.6,2.3-1.3,4.5-2.1,6.7s-1.7,4.3-2.6,6.2c-1,2-2,3.7-3,5.1
		c-0.2-0.2-0.6-0.5-1-0.9c-0.4-0.3-0.9-0.6-1.3-0.9c-0.4-0.3-0.9-0.6-1.2-0.7c1-1.3,2-2.9,2.9-4.7c0.9-1.8,1.7-3.7,2.4-5.7
		S774.7,66.9,775.2,64.8z M773,84.7l3.4-1.9c0.8,1,1.7,2.2,2.6,3.5c0.9,1.3,1.8,2.5,2.5,3.7c0.8,1.2,1.4,2.3,1.9,3.2l-3.7,2.3
		c-0.4-1-1-2-1.8-3.3c-0.8-1.2-1.6-2.5-2.4-3.8C774.7,87,773.8,85.8,773,84.7z M774.6,72.1h13.8v4h-13.8V72.1z M786.9,72.1h4.1
		c0,0.5,0,1,0,1.3c0,0.3,0,0.6,0,0.8c-0.2,5.3-0.3,9.7-0.5,13.3s-0.4,6.6-0.6,9c-0.2,2.3-0.5,4.1-0.8,5.4c-0.3,1.3-0.7,2.2-1.2,2.8
		c-0.6,0.8-1.2,1.3-1.8,1.6s-1.4,0.5-2.3,0.6c-0.8,0.1-1.8,0.1-3.1,0.1c-1.3,0-2.6-0.1-3.9-0.1c0-0.6-0.2-1.3-0.4-2.1
		c-0.3-0.8-0.6-1.5-1-2.1c1.5,0.1,2.9,0.2,4.1,0.2c1.3,0,2.2,0,2.8,0c0.5,0,0.8,0,1.1-0.1c0.3-0.1,0.6-0.3,0.9-0.6
		c0.4-0.4,0.7-1.3,1-2.5c0.3-1.2,0.5-3,0.7-5.3c0.2-2.3,0.4-5.2,0.6-8.7c0.2-3.5,0.3-7.8,0.4-12.7V72.1z"/>
	<path class="st0" d="M801.3,81.3l2.2-3.3c0.8,0.4,1.7,0.9,2.7,1.5c1,0.5,1.9,1.1,2.8,1.6c0.9,0.5,1.7,1,2.2,1.4l-2.3,3.7
		c-0.6-0.5-1.3-1-2.2-1.5c-0.9-0.6-1.8-1.1-2.8-1.7C803,82.4,802.1,81.8,801.3,81.3z M802.4,104.5c0.7-1.2,1.5-2.7,2.4-4.3
		c0.9-1.6,1.8-3.4,2.7-5.2c0.9-1.8,1.7-3.6,2.5-5.4l3.1,2.4c-0.7,1.6-1.4,3.3-2.2,5.1s-1.6,3.5-2.5,5.1c-0.8,1.7-1.7,3.2-2.5,4.7
		L802.4,104.5z M803.7,68.6l2.5-3c0.8,0.5,1.6,1.1,2.5,1.7c0.9,0.6,1.8,1.3,2.6,1.9s1.5,1.2,2.1,1.6l-2.6,3.4
		c-0.5-0.5-1.2-1.1-2-1.7c-0.8-0.7-1.7-1.3-2.6-2C805.3,69.8,804.4,69.2,803.7,68.6z M812.6,79.4h31.9v3.2h-31.9V79.4z M814,67.7
		h29.5v3.2H814V67.7z M816.9,85h4.3v8.4c0,1.5-0.1,3.1-0.3,4.8c-0.2,1.8-0.6,3.5-1.1,5.1c-0.6,1.7-1.4,3.2-2.4,4.5
		c-0.2-0.3-0.5-0.7-0.9-1.1c-0.4-0.4-0.8-0.8-1.3-1.2c-0.4-0.4-0.8-0.7-1.1-0.9c0.9-1.1,1.5-2.3,1.9-3.6c0.4-1.3,0.7-2.6,0.8-4
		s0.2-2.6,0.2-3.8V85z M815.2,73.5h27v3h-27V73.5z M819.2,85h18.6v3.2h-18.6V85z M819.8,97.2h18v3h-18V97.2z M819.9,91.3h18v2.9h-18
		V91.3z M826.5,64.9h4.3V82h-4.3V64.9z M836.4,85h4.4v18.2c0,1.1-0.1,1.9-0.4,2.5c-0.3,0.6-0.8,1-1.5,1.3c-0.7,0.3-1.7,0.5-2.8,0.6
		s-2.5,0.1-4.1,0.1c-0.1-0.6-0.3-1.2-0.5-1.9c-0.3-0.7-0.5-1.3-0.8-1.8c0.7,0,1.4,0,2.1,0c0.7,0,1.3,0,1.8,0s0.9,0,1.1,0
		c0.3,0,0.6-0.1,0.7-0.2c0.1-0.1,0.2-0.3,0.2-0.6V85z"/>
	<path class="st0" d="M853.7,80.8l2.5-2.8c0.7,0.5,1.5,1.1,2.4,1.7c0.9,0.6,1.7,1.3,2.5,1.9s1.4,1.2,1.9,1.8l-2.7,3.2
		c-0.4-0.6-1-1.2-1.8-1.9c-0.8-0.7-1.6-1.4-2.4-2.1C855.3,82,854.5,81.4,853.7,80.8z M854,104.9c0.6-1.2,1.2-2.6,1.9-4.2
		c0.7-1.6,1.3-3.3,2-5.2c0.7-1.8,1.3-3.6,1.9-5.3l3.2,2.3c-0.5,1.6-1,3.3-1.6,5c-0.6,1.7-1.2,3.4-1.8,5.1c-0.6,1.7-1.2,3.2-1.8,4.7
		L854,104.9z M854.7,67.8l2.5-2.6c0.7,0.5,1.5,1.1,2.3,1.8c0.8,0.6,1.6,1.3,2.3,2c0.7,0.7,1.3,1.3,1.7,1.8l-2.7,2.9
		c-0.4-0.6-0.9-1.2-1.6-1.9c-0.7-0.7-1.4-1.4-2.2-2.1C856.2,69,855.4,68.4,854.7,67.8z M871.1,97.9l3.2,2.1
		c-1.1,1.2-2.5,2.3-4.2,3.4s-3.3,2-4.9,2.7c-0.2-0.4-0.6-0.9-1-1.4c-0.4-0.5-0.8-1-1.2-1.4c1-0.4,2-1,3.1-1.6c1-0.6,2-1.3,2.9-1.9
		C869.9,99.2,870.6,98.6,871.1,97.9z M864.2,78.8c1.9-0.1,4.1-0.2,6.6-0.4c2.5-0.2,5.2-0.4,7.9-0.6l0,2.9c-2.6,0.3-5.1,0.5-7.5,0.8
		s-4.7,0.4-6.7,0.6L864.2,78.8z M864.4,68.3h14.2v2.9h-14.2V68.3z M866.4,97.5c-0.1-0.3-0.3-0.7-0.6-1.3c-0.3-0.6-0.6-1-0.9-1.4
		c0.7-0.1,1.5-0.3,2.3-0.5c0.8-0.2,1.7-0.6,2.7-1c0.6-0.2,1.4-0.6,2.5-1.1c1.1-0.5,2.3-1.1,3.7-1.8c1.4-0.7,2.8-1.5,4.2-2.3
		c1.5-0.8,2.8-1.7,4.1-2.6l3.9,1.7c-2.9,1.8-5.9,3.5-9.1,5c-3.2,1.5-6.4,2.8-9.6,3.8v0.1c-0.6,0.2-1.2,0.3-1.6,0.5
		c-0.4,0.1-0.8,0.3-1.1,0.4C866.6,97.2,866.4,97.4,866.4,97.5z M865,73.4h13v2.8h-13V73.4z M867.1,91.5c-0.1-0.3-0.3-0.7-0.6-1.2
		c-0.3-0.6-0.6-1-0.9-1.4c0.5-0.1,1-0.2,1.6-0.4c0.5-0.2,1.1-0.4,1.7-0.7c0.4-0.2,1.1-0.5,2-1s1.9-1.1,2.9-1.8
		c1.1-0.7,2-1.5,2.9-2.3l3.5,2c-1.4,1-2.9,1.9-4.6,2.9c-1.7,0.9-3.5,1.8-5.3,2.5v0.1c-0.7,0.2-1.2,0.3-1.6,0.4
		c-0.4,0.1-0.8,0.3-1.1,0.4C867.3,91.3,867.1,91.4,867.1,91.5z M866.4,97.5l-0.2-2.5l3.1-1.1l22.5-1.1c-0.2,0.4-0.3,0.9-0.3,1.5
		c-0.1,0.6-0.1,1-0.1,1.4c-4.1,0.2-7.5,0.4-10.3,0.6c-2.8,0.2-5.1,0.3-6.8,0.4c-1.8,0.1-3.2,0.2-4.2,0.3c-1,0.1-1.8,0.2-2.3,0.3
		C867.2,97.3,866.8,97.4,866.4,97.5z M867.1,91.5l-0.1-2.3l2.5-0.9l12.4-0.4c-0.2,0.4-0.3,0.8-0.4,1.3c-0.1,0.5-0.2,0.9-0.2,1.1
		c-2.8,0.2-5,0.3-6.8,0.4c-1.7,0.1-3.1,0.2-4.1,0.3c-1,0.1-1.7,0.2-2.2,0.3C867.9,91.4,867.5,91.5,867.1,91.5z M869.7,66.1h3.6v17.7
		h-3.6V66.1z M877.4,95.7h4.1v7.8c0,0.8-0.1,1.4-0.3,1.9c-0.2,0.5-0.7,0.9-1.4,1.2c-0.7,0.2-1.5,0.4-2.4,0.4c-1,0-2.1,0.1-3.4,0.1
		c-0.1-0.5-0.3-1-0.5-1.6c-0.2-0.6-0.5-1.1-0.8-1.6c0.9,0,1.8,0,2.5,0s1.3,0,1.5,0c0.3,0,0.5,0,0.5-0.1c0.1-0.1,0.1-0.2,0.1-0.4
		V95.7z M883.9,69.6h3.5c-0.2,2-0.5,3.8-0.9,5.6c-0.5,1.8-1.1,3.4-2.1,4.9c-0.9,1.5-2.2,2.8-3.8,3.8c-0.2-0.4-0.6-0.8-1.1-1.3
		c-0.5-0.5-0.9-0.9-1.3-1.1c1.4-0.9,2.4-1.9,3.2-3.2s1.4-2.6,1.7-4.1C883.5,72.7,883.8,71.2,883.9,69.6z M879.8,67.8h12.9v3.1h-12.9
		V67.8z M884.1,100.1l2.5-2.3c1,0.6,2,1.3,3.1,2c1.1,0.7,2.2,1.5,3.2,2.2c1,0.7,1.8,1.4,2.5,1.9l-2.7,2.6c-0.6-0.6-1.4-1.3-2.4-2
		c-1-0.8-2-1.5-3.1-2.3C886.1,101.5,885.1,100.8,884.1,100.1z M891.1,67.8h3.9c0,0.7,0,1.2,0,1.5c-0.1,2.7-0.2,4.9-0.4,6.6
		c-0.1,1.7-0.3,3-0.5,4c-0.2,0.9-0.5,1.6-0.8,1.9c-0.3,0.4-0.7,0.7-1.1,0.9s-0.9,0.3-1.4,0.4c-0.4,0.1-1,0.1-1.7,0.1
		c-0.7,0-1.4,0-2.2,0c0-0.6-0.1-1.1-0.3-1.8c-0.2-0.6-0.4-1.2-0.6-1.6c0.6,0.1,1.2,0.1,1.7,0.1c0.5,0,0.9,0,1.1,0s0.5,0,0.6-0.1
		c0.2,0,0.4-0.2,0.5-0.4c0.2-0.2,0.3-0.7,0.5-1.5s0.2-1.9,0.3-3.5c0.1-1.5,0.2-3.6,0.3-6.1V67.8z M886.4,90.6l3-1.5
		c0.8,0.8,1.7,1.6,2.5,2.5c0.8,0.9,1.6,1.8,2.2,2.6c0.7,0.8,1.2,1.6,1.5,2.2l-3.3,1.8c-0.3-0.7-0.8-1.5-1.5-2.4
		c-0.6-0.9-1.3-1.8-2.1-2.7S887.2,91.4,886.4,90.6z"/>
	<path class="st0" d="M905.8,101.9c1.9-0.2,4-0.5,6.5-0.7s5.1-0.6,7.9-0.9c2.8-0.3,5.6-0.7,8.3-1l0.1,3.8c-2.6,0.4-5.3,0.8-7.9,1.2
		c-2.7,0.4-5.2,0.7-7.7,1.1c-2.4,0.3-4.7,0.6-6.7,0.9L905.8,101.9z M907.2,67.2h20.2v19h-20.2V67.2z M907.2,90.8h20.2v3.9h-20.2
		V90.8z M910.9,70.7V75h12.9v-4.3H910.9z M910.9,78.4v4.4h12.9v-4.4H910.9z M915.5,68.5h3.7v15.9h0.3v17.1h-4.2V84.3h0.3V68.5z
		 M928.4,82.2h17.7v4.1h-17.7V82.2z M935.3,84.2h4.3v18.5c0,1.1-0.1,2-0.4,2.7c-0.3,0.7-0.8,1.2-1.6,1.5c-0.8,0.3-1.8,0.5-3,0.6
		c-1.2,0.1-2.7,0.1-4.4,0.1c-0.1-0.6-0.2-1.3-0.5-2.1c-0.3-0.8-0.5-1.5-0.9-2.1c1.2,0.1,2.4,0.1,3.4,0.1c1.1,0,1.8,0,2.1,0
		c0.4,0,0.6-0.1,0.7-0.2c0.1-0.1,0.2-0.3,0.2-0.6V84.2z M929,67.2h16.4v3.9H929V67.2z M930.3,76.2l2.7-2.7c1.4,0.6,2.8,1.4,4.2,2.3
		c1.4,0.9,2.8,1.8,4,2.7c1.3,0.9,2.3,1.8,3.1,2.6l-2.8,3c-0.8-0.8-1.8-1.7-3.1-2.7s-2.6-1.9-4.1-2.8
		C933.1,77.7,931.7,76.9,930.3,76.2z M943.5,67.2h1.1l0.9-0.2l2.8,2c-0.8,1.2-1.7,2.5-2.7,3.8c-1,1.3-2.1,2.5-3.3,3.6
		c-1.2,1.2-2.4,2.1-3.5,3c-0.3-0.4-0.7-0.8-1.2-1.3c-0.5-0.5-0.9-0.9-1.3-1.2c1-0.8,1.9-1.7,2.8-2.7c0.9-1,1.8-2.1,2.6-3.2
		c0.8-1.1,1.4-2.1,1.9-3V67.2z M944.7,82.2h0.6l0.7-0.1l3,0.7c-0.5,2-1.1,4-1.7,6.1s-1.3,3.8-1.9,5.2l-3.5-0.8
		c0.4-0.9,0.7-1.9,1.1-3.1c0.3-1.2,0.7-2.4,1-3.7c0.3-1.3,0.6-2.5,0.8-3.6V82.2z"/>
	<path class="st0" d="M957.8,91.1h24.8v3.2h-24.8V91.1z M959.5,66.1h9.7v8.7h-9.7V66.1z M959.9,76.4h20.7v13h-20.7V76.4z M960.7,96
		H980v10.9h-4.1v-7.8h-11.2v8.6h-4V96z M962.6,68.7v3.4h3.3v-3.4H962.6z M962.7,102.6h14.9v3.1h-14.9V102.6z M963.7,79.1v2.4h12.8
		v-2.4H963.7z M963.7,84.2v2.5h12.8v-2.5H963.7z M968.2,77.6h3.6v10.7h-3.6V77.6z M970.9,66.1h10v8.7h-10V66.1z M974.1,68.7v3.4h3.6
		v-3.4H974.1z M987.7,65h4.2v12c0,2.2-0.1,4.7-0.3,7.3c-0.2,2.6-0.6,5.3-1.2,8c-0.6,2.7-1.6,5.4-2.8,8c-1.3,2.6-3,5.1-5.1,7.4
		c-0.2-0.3-0.5-0.6-0.9-1c-0.4-0.4-0.8-0.8-1.2-1.1c-0.4-0.4-0.8-0.6-1.2-0.9c2.1-2,3.7-4.2,4.8-6.6c1.2-2.4,2-4.8,2.5-7.4
		c0.5-2.5,0.8-4.9,1-7.3c0.1-2.4,0.2-4.5,0.2-6.5V65z M981.3,77.5h19.1v4h-19.1V77.5z M992.6,79.9c0.4,3.4,0.9,6.7,1.6,9.8
		c0.7,3.1,1.6,5.9,2.8,8.4c1.1,2.5,2.5,4.5,4.2,6.1c-0.3,0.2-0.7,0.6-1.1,1c-0.4,0.4-0.8,0.8-1.1,1.3c-0.4,0.4-0.6,0.9-0.9,1.3
		c-1.8-1.9-3.3-4.2-4.5-7c-1.2-2.8-2.2-5.9-2.9-9.4c-0.7-3.5-1.3-7.1-1.8-11L992.6,79.9z M993,67.8l3.5-1.3c0.8,1.1,1.6,2.4,2.4,3.9
		c0.8,1.4,1.3,2.7,1.6,3.7l-3.6,1.5c-0.3-1.1-0.8-2.3-1.5-3.8C994.6,70.3,993.8,69,993,67.8z"/>
</g>
</svg>
