<!-- Generator: Adobe Illustrator 25.0.0, SVG Export Plug-In  -->
<svg version="1.1" xmlns="http://www.w3.org/2000/svg" xmlns:xlink="http://www.w3.org/1999/xlink" x="0px" y="0px" width="205.8px"
	 height="75.6px" viewBox="0 0 205.8 75.6" style="overflow:visible;enable-background:new 0 0 205.8 75.6;" xml:space="preserve">
<style type="text/css">
	.st0{fill:#FFFFFF;}
</style>
<defs>
</defs>
<g>
	<g>
		<path class="st0" d="M55.4,27.2l6.8,8.3c-0.7,0.7-1.7,1.3-3.3,1.5c-5.6,20.5-9.4,30.4-14.5,34.1c-3.2,2.4-6.5,3.4-11.9,3.4
			c0.8-3.3,1-6,0-7.6c-1.1-1.7-3.6-3.2-7.1-4l0.2-0.9c3.6,0.3,9,0.6,10.7,0.6c1.1,0,1.8-0.2,2.6-0.8c2.5-1.8,5.8-11.3,10.1-26.9
			h-9.3C35.1,49.2,27.4,64.5,0.4,74.8l-0.4-1c20.6-13,25.3-26.9,28.4-38.8h-9.7l-0.1-2.2h30.2L55.4,27.2z M44.5,9.9
			c-0.5,0.9-1.3,1.5-3,1.4c-8,10.5-20.5,21.9-36,27.6l-0.3-0.7C17.2,29.3,27.3,15,32.7,3.9L44.5,9.9z M61.8,5.5
			c-1.1,1.1-3.9,1.8-6.9,2.1C57.2,15,65.3,21.5,75.7,24l-0.3,1C71.2,26.7,67,30.9,65,35.3C57.5,29,53.3,19.1,53.2,7.2h-7.8L45.4,5
			h6.5l3.8-5L61.8,5.5z"/>
		<path class="st0" d="M189.5,45.9c0,0,4.8,5.2,7.5,8.7c-0.3,0.9-1.3,1.3-2.4,1.3h-27l-1.6,7.1c-1.8,7.7-4.4,11.6-16.6,12.7
			c0.5-3.6,0.7-6-0.4-7.8c-1-1.6-2.3-2.8-6.5-3.6l0.2-1c0,0,9.1,0.6,10.7,0.6c0.9,0,1.4-0.3,1.6-1.3l1.5-6.7h-27.3l-0.1-2.2h27.9
			l1.9-8.4l10,0.9c3.4-1.4,6.8-3,9.7-4.5h-39.8l-0.1-2.2H182l7-5.6l6.6,9.3c-0.8,0.7-1.6,1-3.2,1c-6.3,1.8-15.3,3.4-23,4.5l-1.2,5.1
			h14.2L189.5,45.9z M139.9,11.7h29.6c-0.2-0.2-0.5-0.3-0.7-0.6c0.5-4-0.4-8.2-1.9-10.7l0.5-0.4c15.4-0.6,13.5,8.6,8.4,11.6h15.4
			l7.1-8.1c0,0,4.7,5.4,7.4,9c-0.4,0.9-1.4,1.3-2.4,1.3H140L139.9,11.7z M180.8,19.4l5.8-5.5l7.8,7.9c-0.6,0.6-1.6,1.3-3.2,1.7
			l-2.4,10.3c-0.2,0.6-6,2.3-9.3,2.3h-1.9l0.7-3.2h-21.3l-0.3,1.5c-0.2,1-5.5,3.4-9.7,3.4h-1.4l5.2-22.9l9.9,4.5H180.8z M178.9,30.7
			l2.1-9h-21.3l-2.1,9H178.9z"/>
	</g>
</g>
</svg>
