<!-- Generator: Adobe Illustrator 25.0.0, SVG Export Plug-In  -->
<svg version="1.1" xmlns="http://www.w3.org/2000/svg" xmlns:xlink="http://www.w3.org/1999/xlink" x="0px" y="0px" width="353px"
	 height="75.4px" viewBox="0 0 353 75.4" style="overflow:visible;enable-background:new 0 0 353 75.4;" xml:space="preserve">
<style type="text/css">
	.st0{fill:#FFFFFF;}
</style>
<defs>
</defs>
<g>
	<g>
		<path class="st0" d="M63.3,42.8c0,0,3.5,4.6,5.4,7.7c-0.4,0.9-1.2,1.3-2.2,1.3h-8.3l-2.4,10.5C54.1,69.8,51.6,74,40,75.1
			c0.6-3.8,0.8-6.5,0-8.2c-0.8-1.7-2-3-5.8-3.8l0.2-1c0,0,7.7,0.6,9.3,0.6c1.2,0,1.6-0.6,1.9-1.7l2.1-9.2H18.5L13.9,72
			c-0.2,0.8-3.9,3.4-9.2,3.4H2.8l5.4-23.6H0.1L0,49.5h8.7l7.7-33.6l10.3,4.6h8.1l2.4-10.3h-25L12.1,8h47.8L67,0.4
			c0,0,5.1,5.1,8.2,8.6c-0.4,0.9-1.4,1.3-2.4,1.3H47.6l-2.4,10.3h8.9l6.1-5.9l7.9,8.3c-0.8,0.8-1.9,1.6-3.7,2l-5.3,23L63.3,42.8z
			 M19,49.5h9.1L31,36.9h-9.1L19,49.5z M25.1,22.7l-2.7,12h9.1l2.7-12H25.1z M48.3,49.5l2.9-12.6h-9.7l-2.9,12.6H48.3z M44.7,22.7
			l-2.7,12h9.7l2.7-12H44.7z"/>
		<path class="st0" d="M155.8,62.3c1.8,1.3,2,2.5,1.5,4.5c-0.9,4-4.4,6.2-12.7,6.2h-4c-6.6,0-7.2-2.1-5.7-8.9l7.6-33.2h-3.7
			c-5.3,20.8-13.3,36.9-36.9,44.5l-0.2-0.8c17.2-10.9,22.6-25.8,26.5-43.7H125l0.1,0.3c-0.4,0.9-1.2,1.3-2.2,1.3h-8l-4.1,17.9
			c3.4-0.8,6.9-1.7,10.3-2.5l0,0.7c-5.3,3.9-13.8,9.5-26.1,16.6c-0.6,1-1.6,2-2.6,2.2l-1.6-12.6c2-0.3,5.4-1,9.5-2l4.6-20.3h-7
			l-0.1-2.2h7.6l4.6-20.3h-7.4l-0.1-2.2h15.2l6.5-7.4c0,0,4,4.8,6.4,8.2h22.8l6.8-7.8c0,0,4.5,5.2,7,8.7c-0.4,0.9-1.3,1.3-2.4,1.3
			h-35l0-1.1c-0.4,0.3-0.9,0.4-1.5,0.4h-8.5l-4.5,19.5l4.8-6.3c0,0,1.8,2.8,3.3,5.5h28l7-8c0,0,4.5,5.4,7.1,9
			c-0.4,0.9-1.3,1.3-2.4,1.3h-10.8l-0.2,0.9l-6.7,29.5c-0.2,1-0.1,1.4,0.9,1.4h1.9h1.6c0.6,0,1-0.2,1.6-1.1
			c1.2-1.7,3.7-6.9,6.3-12.2h0.7L155.8,62.3z"/>
		<path class="st0" d="M238.4,34.8l9-10.5c0,0,5.8,7.2,9,11.7c-0.4,0.9-1.4,1.3-2.6,1.3h-64.8l-0.1-2.5H238.4z"/>
		<path class="st0" d="M300.1,41c0,0,4.4,5.8,6.6,9.5c-0.4,0.9-1.3,1.3-2.3,1.3h-26.6l-0.1-2.2h15.4L300.1,41z M332.5,26.1
			c-0.5,1.1-1.5,1.9-3.3,1.9c-0.4,1.2-0.8,2.5-1.2,3.6c-1.5,14.7,2.4,24.9,15.2,30.2l-0.2,1c-5.5,1.4-9.3,5.5-11.6,12.4
			c-7.8-7.1-7.9-21.6-5.6-37.5c-5.5,14.6-14.4,28.3-40.6,37.6l-0.3-1c24.3-15.5,29.6-32.6,34.4-51.3L332.5,26.1z M286.3,19.2
			l-0.1-2.2h11.5l6.4-7.8c0,0,4,5.4,6,8.8c-0.4,0.9-1.3,1.3-2.3,1.3H286.3z M353,20.5c-0.7,0.7-1.5,1-3.2,1.1
			c-4.1,5.3-11,12.7-16.7,17.2l-0.4-0.5c2.3-5.6,5.1-13.7,6.7-19.4h-18.6c-5.4,8.2-11.5,14.4-18.4,19.3l-0.7-0.6
			C308,28,314.4,13.7,318.3,0l13.5,3.5c-0.5,1.1-1.6,1.8-3.3,1.9c-2,4.1-4.1,7.8-6.3,11.3h17l6.8-6L353,20.5z"/>
	</g>
</g>
</svg>
