<!-- Generator: Adobe Illustrator 25.0.0, SVG Export Plug-In  -->
<svg version="1.1" xmlns="http://www.w3.org/2000/svg" xmlns:xlink="http://www.w3.org/1999/xlink" x="0px" y="0px" width="340.8px"
	 height="129.2px" viewBox="0 0 340.8 129.2" style="overflow:visible;enable-background:new 0 0 340.8 129.2;"
	 xml:space="preserve">
<style type="text/css">
	.st0{fill:#333337;}
</style>
<defs>
</defs>
<g>
	<path class="st0" d="M11.7,16.7H4.3v9.7H1.5v-22H13v2.4H4.3v7.6h7.4V16.7z"/>
	<path class="st0" d="M20.4,26.4v-22h6.3c2,0,3.5,0.5,4.5,1.5c1,1,1.5,2.4,1.5,4.4c0,1-0.3,1.9-0.8,2.7s-1.2,1.4-2.1,1.8
		c1,0.3,1.8,0.9,2.4,1.9s0.9,2.1,0.9,3.4c0,2-0.5,3.5-1.6,4.7c-1.1,1.1-2.6,1.7-4.6,1.7H20.4z M23.2,13.8h3.6c1,0,1.7-0.3,2.3-1
		c0.6-0.6,0.9-1.5,0.9-2.6c0-1.2-0.3-2.1-0.8-2.6c-0.5-0.6-1.4-0.8-2.5-0.8h-3.5V13.8z M23.2,16.1v7.9H27c1,0,1.9-0.3,2.5-1
		c0.6-0.7,0.9-1.7,0.9-2.9c0-2.7-1.1-4-3.4-4H23.2z"/>
	<path class="st0" d="M40.2,11.3l1.6-2.1c0.6,0.3,1.3,0.6,2,1c0.7,0.4,1.4,0.8,2.1,1.1c0.7,0.4,1.3,0.7,1.7,1L46,14.7
		c-0.4-0.3-1-0.7-1.6-1.1c-0.7-0.4-1.4-0.8-2.1-1.2C41.5,12,40.8,11.6,40.2,11.3z M40.8,26.7c0.6-0.8,1.2-1.7,1.9-2.8
		c0.7-1.1,1.4-2.3,2.1-3.5c0.7-1.2,1.4-2.4,2-3.6l2.1,2c-0.5,1.1-1.1,2.2-1.8,3.4c-0.6,1.2-1.3,2.3-1.9,3.4
		c-0.6,1.1-1.3,2.2-1.9,3.2L40.8,26.7z M41.7,2.8l1.7-2.1c0.6,0.3,1.3,0.6,2,1c0.7,0.4,1.4,0.8,2.1,1.1s1.2,0.7,1.7,1l-1.7,2.4
		c-0.4-0.3-1-0.7-1.6-1.1c-0.7-0.4-1.4-0.8-2.1-1.2C43,3.5,42.3,3.1,41.7,2.8z M49,9.3h19.7v2.8H49V9.3z M65.3,0.3l2.3,2.3
		c-1.4,0.5-3.1,1-4.9,1.4c-1.8,0.4-3.7,0.7-5.7,1s-3.9,0.5-5.7,0.7c-0.1-0.4-0.2-0.8-0.4-1.3c-0.2-0.5-0.3-0.9-0.5-1.2
		c1.3-0.1,2.7-0.3,4.1-0.5c1.4-0.2,2.7-0.4,4.1-0.7c1.3-0.2,2.6-0.5,3.7-0.8C63.4,1,64.4,0.7,65.3,0.3z M51.1,16.8H67v12.1h-2.8
		v-9.5H53.8V29h-2.7V16.8z M53,25h12.3v2.7H53V25z M57.7,3.4h2.8v14.9h-2.8V3.4z"/>
	<path class="st0" d="M75.2,25.5c1.3-0.1,2.7-0.3,4.4-0.4c1.7-0.1,3.4-0.3,5.3-0.5c1.9-0.2,3.7-0.3,5.5-0.5l0,2.2
		c-1.8,0.2-3.5,0.4-5.3,0.6c-1.8,0.2-3.5,0.4-5.1,0.6c-1.6,0.2-3.1,0.3-4.4,0.4L75.2,25.5z M75.2,5.6h15.5v2.2H75.2V5.6z M88.9,0.5
		l1.4,2.2C89,3,87.6,3.2,86,3.4s-3.3,0.4-5,0.5c-1.7,0.1-3.3,0.2-4.9,0.3c0-0.3-0.1-0.7-0.3-1.1S75.6,2.3,75.5,2
		C76.6,2,77.8,1.9,79,1.8c1.2-0.1,2.4-0.2,3.6-0.3C83.9,1.3,85,1.2,86.1,1C87.1,0.9,88.1,0.7,88.9,0.5z M76,20.4h14.3v2.2H76V20.4z
		 M76.1,9.4h14.1v9.5H76.1V9.4z M78.5,11.3v1.9h9.2v-1.9H78.5z M78.5,15v1.9h9.2V15H78.5z M81.7,3h2.7v22.6h-2.7V3z M94,0.7h2.8
		c0,2.5-0.1,5-0.1,7.3c-0.1,2.3-0.2,4.5-0.4,6.6c-0.2,2.1-0.6,4-1.1,5.8c-0.5,1.8-1.3,3.4-2.2,4.9c-0.9,1.5-2.1,2.8-3.6,3.9
		c-0.1-0.2-0.3-0.5-0.6-0.8c-0.2-0.3-0.5-0.5-0.8-0.8c-0.3-0.2-0.5-0.4-0.8-0.6c1.4-1,2.5-2.2,3.3-3.5c0.8-1.3,1.5-2.8,2-4.5
		c0.5-1.6,0.8-3.4,1-5.4c0.2-1.9,0.3-4,0.3-6.2C94,5.4,94,3.1,94,0.7z M90.6,7.4h11v2.7h-11V7.4z M100.4,7.4h2.8c0,0.4,0,0.7,0,0.9
		c0,0.2,0,0.4,0,0.5c-0.1,3.2-0.2,6-0.2,8.2c-0.1,2.2-0.2,4.1-0.3,5.5s-0.3,2.5-0.4,3.3c-0.2,0.8-0.4,1.4-0.6,1.7
		c-0.3,0.5-0.6,0.8-1,1c-0.4,0.2-0.8,0.3-1.3,0.4c-0.5,0.1-1,0.1-1.7,0.1c-0.7,0-1.4,0-2.1-0.1c0-0.4-0.1-0.9-0.3-1.4
		c-0.2-0.5-0.3-1-0.6-1.4c0.7,0.1,1.4,0.1,2,0.1c0.6,0,1.1,0,1.4,0c0.2,0,0.5,0,0.6-0.1c0.2-0.1,0.3-0.2,0.5-0.4
		c0.2-0.2,0.3-0.7,0.5-1.4c0.1-0.7,0.2-1.8,0.3-3.1s0.2-3.1,0.3-5.3c0.1-2.1,0.2-4.8,0.2-7.8V7.4z"/>
	<path class="st0" d="M113.5,21.7l2.8,0.7c-0.5,1.3-1,2.5-1.8,3.7c-0.7,1.2-1.5,2.2-2.2,3.1c-0.2-0.2-0.4-0.4-0.7-0.6
		c-0.3-0.2-0.6-0.4-0.9-0.6c-0.3-0.2-0.6-0.4-0.8-0.5c0.8-0.7,1.5-1.6,2.1-2.6C112.6,23.8,113.1,22.8,113.5,21.7z M111.7,1.5H122
		v19.7h-10.4V1.5z M114.3,3.8v3.5h4.9V3.8H114.3z M114.3,9.5v3.5h4.9V9.5H114.3z M114.3,15.3v3.5h4.9v-3.5H114.3z M117.6,22.7
		l2.4-1.1c0.6,0.8,1.2,1.6,1.8,2.5c0.6,0.9,1,1.7,1.3,2.4l-2.5,1.2c-0.2-0.7-0.7-1.5-1.2-2.5C118.8,24.3,118.2,23.4,117.6,22.7z
		 M124,15.2h13.6v13.7h-2.9V17.8h-8V29H124V15.2z M125.4,25h10.9v2.6h-10.9V25z M128.9,0.3h2.9v16.1h-2.9V0.3z M130.4,7h8.6v2.7
		h-8.6V7z"/>
	<path class="st0" d="M166.1,7l3,0.8c-1.3,3.8-2.9,7-5,9.8s-4.5,5-7.3,6.9c-2.9,1.8-6.2,3.4-10,4.5c-0.1-0.2-0.3-0.5-0.5-0.9
		c-0.2-0.4-0.4-0.7-0.7-1c-0.2-0.3-0.5-0.6-0.7-0.9c3.7-1,6.9-2.3,9.6-4c2.7-1.7,5-3.8,6.9-6.3C163.5,13.5,165,10.5,166.1,7z
		 M145.6,5.6h28.2v2.9h-28.2V5.6z M152.9,7.2c1.1,3.1,2.7,5.9,4.6,8.5c2,2.5,4.3,4.7,7.1,6.5c2.8,1.8,6,3.1,9.6,4
		c-0.2,0.2-0.4,0.5-0.7,0.8c-0.3,0.3-0.5,0.7-0.7,1c-0.2,0.3-0.4,0.6-0.6,0.9c-3.7-1-7-2.5-9.8-4.4c-2.8-1.9-5.2-4.3-7.2-7
		c-2-2.8-3.6-5.9-4.9-9.4L152.9,7.2z M157,0.9l3.1-0.9c0.5,0.7,0.9,1.6,1.3,2.4c0.4,0.9,0.8,1.7,0.9,2.3l-3.3,1
		c-0.2-0.6-0.5-1.4-0.9-2.3C157.9,2.5,157.5,1.7,157,0.9z"/>
	<path class="st0" d="M180.8,2.5h27.7v3h-27.7V2.5z M192.4,5.1h3.1V29h-3.1V5.1z M194.1,12.5l2-2.3c0.9,0.4,1.9,0.9,2.9,1.4
		c1,0.5,2,1.1,3,1.7s1.9,1.1,2.8,1.7c0.9,0.6,1.6,1.1,2.2,1.6l-2.1,2.7c-0.6-0.5-1.3-1-2.1-1.6c-0.8-0.6-1.7-1.2-2.7-1.8
		s-2-1.2-3-1.8C196,13.5,195,13,194.1,12.5z"/>
	<path class="st0" d="M217.9,14.4c-0.1-0.2-0.2-0.4-0.4-0.7c-0.2-0.3-0.4-0.5-0.6-0.8c-0.2-0.3-0.4-0.5-0.5-0.6
		c0.3-0.2,0.5-0.6,0.8-1.1c0.3-0.5,0.4-1.1,0.4-1.9V2.9h2.9v8.3c-0.4,0.3-0.7,0.6-0.9,0.8c-0.3,0.2-0.5,0.5-0.8,0.8
		c-0.3,0.3-0.5,0.6-0.6,0.9C218,14,217.9,14.2,217.9,14.4z M226.4,0.2l1.9,2.2c-0.9,0.4-1.9,0.7-3.1,1S223,4,221.8,4.3
		c-1.2,0.3-2.3,0.5-3.4,0.7c0-0.3-0.1-0.6-0.3-1.1c-0.2-0.4-0.3-0.8-0.5-1.1c1.1-0.2,2.1-0.5,3.2-0.8c1.1-0.3,2.1-0.6,3.1-0.9
		C224.8,0.8,225.7,0.5,226.4,0.2z M217.9,14.5l-0.2-2.4l1.2-1l7.6-1.8c0.1,0.4,0.2,0.8,0.3,1.3c0.1,0.5,0.2,0.9,0.3,1.2
		c-1.9,0.5-3.4,0.9-4.5,1.2c-1.1,0.3-2,0.6-2.6,0.8s-1.1,0.4-1.4,0.5C218.3,14.2,218.1,14.4,217.9,14.5z M219.2,15.8h21.2v13.1h-3.1
		V18.2h-15.1V29h-3V15.8z M220.7,20.7h17.9v2.2h-17.9V20.7z M220.7,25.6h17.9V28h-17.9V25.6z M223.3,6.6l2.4-0.9
		c0.5,0.7,0.9,1.5,1.4,2.3c0.5,0.8,0.9,1.6,1.2,2.4c0.4,0.8,0.7,1.5,0.8,2.1l-2.6,1.1c-0.1-0.6-0.4-1.3-0.7-2.1
		c-0.4-0.8-0.7-1.6-1.2-2.5C224.2,8.1,223.8,7.3,223.3,6.6z M233.1,2.8h2.7c-0.1,1.9-0.4,3.6-0.8,5.1c-0.4,1.5-1,2.9-1.9,4.1
		c-0.9,1.2-2.2,2.2-3.9,3c-0.2-0.3-0.4-0.7-0.7-1.1c-0.3-0.4-0.6-0.7-0.9-1c1.5-0.7,2.6-1.5,3.3-2.5c0.8-1,1.3-2.1,1.6-3.4
		C232.8,5.7,233,4.3,233.1,2.8z M228.3,16.8h2.8v10.1h-2.8V16.8z M229.6,1.9H241v2.6h-11.3V1.9z M240,1.9h2.8c0,0.3,0,0.5,0,0.7
		c0,0.2,0,0.3,0,0.5c-0.1,2.2-0.2,4-0.3,5.4c-0.1,1.4-0.3,2.5-0.4,3.2c-0.2,0.7-0.4,1.3-0.7,1.6c-0.3,0.3-0.6,0.6-0.9,0.7
		s-0.7,0.2-1.1,0.3c-0.4,0-0.9,0.1-1.5,0.1s-1.3,0-2-0.1c0-0.4-0.1-0.8-0.2-1.3c-0.1-0.5-0.3-0.9-0.5-1.2c0.6,0.1,1.2,0.1,1.8,0.1
		c0.5,0,0.9,0,1.2,0c0.2,0,0.4,0,0.6-0.1c0.1,0,0.3-0.1,0.4-0.3c0.2-0.2,0.3-0.6,0.4-1.2s0.2-1.6,0.3-2.9c0.1-1.3,0.2-3,0.2-5.1V1.9
		z"/>
	<path class="st0" d="M250.8,4.7h28v2.5h-28V4.7z M254.8,19.2h19.8v9.8h-3v-7.3h-14V29h-2.9V19.2z M255.2,9.5h19.2v2.4h-19.2V9.5z
		 M255.2,14.2h19.2v2.4h-19.2V14.2z M256.8,25.4h16v2.4h-16V25.4z M261.7,1l2.9-0.8c0.6,0.7,1.2,1.4,1.7,2.3c0.6,0.8,1,1.5,1.2,2.2
		l-3.1,0.9c-0.2-0.6-0.6-1.4-1.1-2.2C262.8,2.4,262.3,1.7,261.7,1z"/>
	<path class="st0" d="M7.9,51.3L11,52c-0.6,1.8-1.3,3.5-2.2,5.1c-0.9,1.6-1.9,3.1-2.9,4.4C4.8,62.8,3.7,64,2.5,65
		c-0.2-0.2-0.4-0.4-0.7-0.7c-0.3-0.3-0.6-0.5-0.9-0.8c-0.3-0.3-0.6-0.5-0.8-0.6c1.8-1.3,3.4-2.9,4.8-4.9C6.1,55.9,7.2,53.7,7.9,51.3
		z M11.1,62.7h3.2c-0.2,1.7-0.4,3.4-0.8,5c-0.4,1.6-0.9,3.2-1.7,4.6c-0.8,1.4-1.8,2.8-3.2,3.9c-1.4,1.2-3.2,2.2-5.4,3
		C3.1,79,3,78.7,2.8,78.3c-0.2-0.3-0.4-0.7-0.7-1s-0.5-0.6-0.7-0.8c2.1-0.7,3.7-1.5,4.9-2.5s2.2-2.1,2.8-3.3
		c0.7-1.2,1.1-2.5,1.4-3.9C10.8,65.5,11,64.1,11.1,62.7z M5.1,61.8h17.3v2.9H5.1V61.8z M13.1,50.8H20v2.8h-6.9V50.8z M21.4,61.8h3.1
		c0,0.4,0,0.6,0,0.8c0,0.2,0,0.4,0,0.5c-0.1,2.4-0.2,4.4-0.3,6.1c-0.1,1.7-0.2,3.1-0.4,4.2c-0.1,1.1-0.3,2-0.5,2.7
		c-0.2,0.7-0.4,1.1-0.7,1.4c-0.4,0.5-0.7,0.8-1.1,0.9c-0.4,0.2-0.9,0.3-1.5,0.3c-0.5,0.1-1.2,0.1-2.1,0.1c-0.9,0-1.8,0-2.7-0.1
		c0-0.5-0.1-1-0.3-1.5c-0.2-0.5-0.4-1-0.7-1.5c1,0.1,1.8,0.1,2.7,0.2c0.8,0,1.4,0,1.8,0c0.3,0,0.6,0,0.8-0.1
		c0.2-0.1,0.4-0.2,0.5-0.3c0.3-0.3,0.5-0.9,0.7-1.8s0.3-2.3,0.5-4.2c0.1-1.9,0.3-4.3,0.4-7.3V61.8z M17.2,50.8h3.3
		c0.5,1.6,1.2,3.1,2,4.6c0.9,1.5,1.9,2.8,3.1,4c1.2,1.2,2.4,2.2,3.8,2.9c-0.2,0.2-0.4,0.5-0.7,0.8c-0.3,0.3-0.5,0.6-0.8,1
		s-0.5,0.6-0.6,0.9c-1.4-0.9-2.8-2.1-4-3.4c-1.2-1.3-2.3-2.8-3.2-4.4c-0.9-1.6-1.7-3.2-2.2-4.8h-0.7V50.8z"/>
	<path class="st0" d="M35.8,70.7h27.8v2.5H35.8V70.7z M36.1,52.8h27v2.5h-27V52.8z M38.7,65.2h19.1v2.3H38.7V65.2z M39.9,57h19.7
		v6.5H39.9V57z M48,69.1h3.1v7.2c0,0.8-0.1,1.3-0.4,1.7c-0.3,0.4-0.7,0.7-1.3,0.8C48.8,78.9,48,79,47.1,79c-1,0-2.1,0-3.5,0
		c-0.1-0.4-0.2-0.8-0.4-1.2c-0.2-0.4-0.4-0.8-0.6-1.2c0.7,0,1.3,0,2,0c0.7,0,1.2,0,1.8,0c0.5,0,0.9,0,1,0c0.3,0,0.5-0.1,0.6-0.2
		c0.1-0.1,0.2-0.2,0.2-0.5V69.1z M42.8,59.1v2.3h13.7v-2.3H42.8z M47.3,50.6l3-0.6c0.3,0.6,0.6,1.3,0.9,2c0.3,0.7,0.5,1.3,0.6,1.9
		l-3.1,0.6c-0.1-0.5-0.3-1.1-0.5-1.9C47.8,51.9,47.6,51.2,47.3,50.6z M57.2,65.2H58l0.7-0.1l1.9,1.6c-1,0.6-2.1,1.1-3.3,1.6
		c-1.2,0.5-2.5,1-3.8,1.4c-1.3,0.4-2.6,0.8-4,1.1c-0.2-0.2-0.4-0.5-0.7-0.9c-0.3-0.3-0.5-0.6-0.7-0.8c1.1-0.2,2.3-0.6,3.4-0.9
		c1.2-0.4,2.3-0.8,3.3-1.2c1-0.4,1.8-0.8,2.5-1.2V65.2z"/>
	<path class="st0" d="M71,62.2c0-0.2-0.1-0.4-0.2-0.7c-0.1-0.3-0.2-0.6-0.3-1s-0.2-0.6-0.3-0.9c0.3-0.1,0.5-0.2,0.8-0.5
		c0.3-0.3,0.6-0.7,0.9-1.1c0.2-0.2,0.4-0.6,0.7-1.1c0.3-0.5,0.7-1.1,1.1-1.9c0.4-0.7,0.8-1.5,1.2-2.3c0.4-0.8,0.7-1.7,1.1-2.5
		l2.6,1.1c-0.8,1.7-1.7,3.4-2.8,5.1c-1,1.7-2.1,3.1-3.1,4.4v0.1c-0.4,0.2-0.6,0.4-0.9,0.5c-0.2,0.1-0.4,0.3-0.6,0.4
		C71.1,61.9,71,62,71,62.2z M71.6,70.5l2.4,0.4c-0.1,1.4-0.4,2.8-0.6,4.2c-0.3,1.4-0.6,2.6-0.9,3.6c-0.3-0.1-0.6-0.3-1.1-0.4
		c-0.5-0.2-0.9-0.3-1.2-0.4c0.4-1,0.7-2.1,0.9-3.4C71.3,73,71.5,71.7,71.6,70.5z M71.2,69.3c0-0.2-0.1-0.4-0.2-0.8
		c-0.1-0.3-0.2-0.7-0.3-1c-0.1-0.3-0.2-0.6-0.3-0.9c0.4-0.1,0.7-0.3,1.1-0.6s0.8-0.8,1.3-1.4c0.3-0.3,0.6-0.7,1.1-1.4
		c0.5-0.6,1-1.4,1.7-2.3s1.2-1.8,1.9-2.9S78.6,56,79,55l2.4,1.5c-0.8,1.4-1.6,2.8-2.6,4.1C78,61.9,77,63.2,76,64.5
		c-1,1.2-2,2.4-3,3.4v0.1c-0.4,0.2-0.6,0.4-0.9,0.5c-0.2,0.1-0.4,0.3-0.6,0.4C71.3,69,71.2,69.1,71.2,69.3z M71,62.2l-0.1-2l1.3-0.8
		l5.5-0.5c-0.1,0.4-0.1,0.8-0.2,1.2c-0.1,0.5-0.1,0.8-0.1,1.1c-1.2,0.1-2.2,0.3-3,0.4s-1.4,0.2-1.8,0.2c-0.4,0.1-0.8,0.1-1,0.2
		C71.4,62.1,71.2,62.1,71,62.2z M71.2,69.3l-0.1-2.1l1.3-0.9l8.3-1.1c-0.1,0.4-0.1,0.8-0.1,1.2c0,0.5,0,0.8,0,1.1
		c-1.9,0.3-3.4,0.5-4.6,0.7c-1.2,0.2-2.1,0.3-2.7,0.4c-0.6,0.1-1.1,0.2-1.4,0.3C71.6,69.1,71.4,69.2,71.2,69.3z M75.1,70.8l2.2-0.4
		c0.2,1.1,0.4,2.3,0.6,3.6c0.2,1.3,0.3,2.4,0.3,3.4l-2.3,0.4c0-0.6-0.1-1.4-0.1-2.2c-0.1-0.8-0.2-1.6-0.3-2.5
		C75.4,72.3,75.3,71.5,75.1,70.8z M78.1,62.7l2.1-0.7c0.3,0.7,0.6,1.4,0.8,2.2c0.3,0.8,0.5,1.6,0.7,2.3c0.2,0.7,0.4,1.4,0.5,2
		L80,69.4c-0.1-0.6-0.2-1.3-0.4-2c-0.2-0.8-0.4-1.5-0.7-2.4S78.4,63.4,78.1,62.7z M78.4,70.1l2-0.6c0.4,1,0.7,2,1.1,3.1
		c0.4,1.1,0.6,2.1,0.7,2.9l-2.1,0.7c-0.1-0.8-0.4-1.8-0.7-3C79,72.2,78.7,71.1,78.4,70.1z M82.2,54.3h16.6V57H82.2V54.3z M83,61.3
		H98V64H83V61.3z M83.7,66.9h13.5v12h-2.9v-9.4h-7.8V79h-2.8V66.9z M85.3,75h10.4v2.6H85.3V75z M88.8,50.2h3v12.5h-3V50.2z"/>
	<path class="st0" d="M117.3,67.9l2.4,1.1c-1,1.3-2.1,2.5-3.5,3.7c-1.4,1.2-2.8,2.2-4.4,3.2c-1.6,0.9-3.1,1.7-4.7,2.3
		c-0.1-0.2-0.3-0.5-0.6-0.8c-0.2-0.3-0.5-0.6-0.7-0.9c-0.2-0.3-0.5-0.5-0.7-0.7c1.2-0.4,2.3-0.8,3.5-1.4c1.1-0.5,2.3-1.2,3.3-1.8
		c1.1-0.7,2.1-1.4,3-2.2C115.9,69.5,116.7,68.7,117.3,67.9z M106,66.7h27.4v2.7H106V66.7z M109.1,51.7h21.5v12.6h-21.5V51.7z
		 M112.1,54.2v2.7h15.3v-2.7H112.1z M112.1,59.2v2.7h15.3v-2.7H112.1z M118.2,52.7h3.1V79h-3.1V52.7z M122,67.8
		c0.7,0.8,1.5,1.6,2.4,2.3c0.9,0.8,1.9,1.5,3,2.2c1.1,0.7,2.2,1.3,3.4,1.8c1.2,0.5,2.3,1,3.5,1.4c-0.2,0.2-0.4,0.4-0.7,0.7
		c-0.3,0.3-0.5,0.6-0.7,0.9c-0.2,0.3-0.4,0.6-0.6,0.9c-1.1-0.5-2.3-1-3.5-1.7c-1.2-0.7-2.3-1.4-3.4-2.2c-1.1-0.8-2.2-1.6-3.1-2.6
		c-1-0.9-1.8-1.8-2.6-2.8L122,67.8z"/>
	<path class="st0" d="M141.7,51.4h26.3V79h-2.9V53.9h-20.7V79h-2.7V51.4z M143.4,75.4h23.1v2.4h-23.1V75.4z M145.7,61.3h18.2v1.7
		h-18.2V61.3z M147.5,64.1h14.4V74h-14.4V64.1z M148.5,55.1h12.4V60h-12.4V55.1z M149.8,65.8v6.5h9.8v-6.5H149.8z M150.9,56.7v1.7
		h7.5v-1.7H150.9z M151.4,67h6.5v4.2h-6.5V67z M153.1,68.3v1.5h3v-1.5H153.1z M153.4,59h2.5v3h-2.5V59z"/>
	<path class="st0" d="M183.3,64.6h5v2.6h-5v7h-2.7v-7h-5v-2.6h5v-6.4h2.7V64.6z"/>
	<path class="st0" d="M216,68.8c-0.1,2.4-0.6,4.3-1.5,5.7c-0.9,1.4-2.2,2.2-3.8,2.2c-1.6,0-2.6-0.8-3.1-2.4c-0.5,0.8-1,1.4-1.5,1.8
		c-0.6,0.4-1.1,0.6-1.7,0.6c-1.2,0-2.2-0.6-2.8-1.8c-0.6-1.2-0.8-2.8-0.7-4.9c0.1-1.6,0.4-3.1,1-4.4c0.5-1.3,1.2-2.3,2-3.1
		c0.8-0.7,1.6-1.1,2.5-1.1c0.7,0,1.4,0.1,1.9,0.3c0.6,0.2,1.2,0.6,1.9,1.3l-0.7,8.4c-0.2,2.3,0.3,3.5,1.5,3.5c0.9,0,1.6-0.5,2.2-1.6
		s0.9-2.6,1-4.5c0.2-3.9-0.5-6.9-1.8-9c-1.4-2-3.4-3.1-6.2-3.1c-1.7,0-3.2,0.5-4.5,1.5c-1.3,1-2.3,2.5-3,4.3
		c-0.7,1.9-1.1,4.1-1.2,6.6c-0.1,3.8,0.5,6.8,1.9,9c1.4,2.2,3.4,3.2,6,3.2c0.8,0,1.6-0.1,2.3-0.3c0.8-0.2,1.4-0.5,1.9-0.9l0.5,1.7
		c-0.5,0.4-1.2,0.7-2.1,1c-0.9,0.3-1.8,0.4-2.7,0.4c-2.1,0-3.9-0.6-5.5-1.7c-1.5-1.1-2.7-2.8-3.4-4.9c-0.8-2.1-1.1-4.6-1-7.5
		c0.1-2.8,0.6-5.3,1.6-7.5c0.9-2.2,2.2-3.9,3.8-5.1c1.6-1.2,3.4-1.8,5.4-1.8c2.1,0,3.9,0.6,5.4,1.7c1.5,1.1,2.6,2.8,3.4,4.9
		C215.8,63.5,216.1,66,216,68.8z M203.2,70.1c-0.1,1.4,0,2.5,0.3,3.3c0.3,0.8,0.8,1.2,1.5,1.2c0.4,0,0.9-0.2,1.3-0.7s0.7-1.2,1-2.1
		l0-0.3l0.6-7.7c-0.4-0.2-0.9-0.3-1.3-0.3c-0.9,0-1.7,0.6-2.3,1.8C203.7,66.4,203.4,68.1,203.2,70.1z"/>
	<path class="st0" d="M231.3,76.4h-2.7V57.8l-4.6,2.1v-2.5l6.9-3h0.4V76.4z"/>
	<path class="st0" d="M249.4,50.4l2.8,0.8c-0.7,1.8-1.4,3.5-2.4,5.2c-0.9,1.7-1.9,3.4-2.9,4.9c-1.1,1.5-2.1,2.9-3.3,4.1
		c-0.1-0.2-0.2-0.6-0.4-0.9s-0.4-0.8-0.6-1.1c-0.2-0.4-0.4-0.7-0.6-0.9c1-1,1.9-2.1,2.9-3.4c0.9-1.3,1.8-2.7,2.6-4.2
		C248.2,53.4,248.8,51.9,249.4,50.4z M246.2,58.6l2.9-2.9v0V79h-2.9V58.6z M251,75h19.5v2.8H251V75z M252.3,55.7h17.1v2.9h-17.1
		V55.7z M254.2,60.7l2.7-0.6c0.2,1.1,0.5,2.2,0.7,3.3c0.2,1.2,0.4,2.3,0.6,3.5c0.2,1.2,0.4,2.3,0.5,3.3c0.2,1,0.3,1.9,0.4,2.7
		l-2.9,0.8c-0.1-0.8-0.2-1.7-0.3-2.8c-0.1-1.1-0.3-2.2-0.5-3.4c-0.2-1.2-0.4-2.4-0.6-3.6C254.7,62.8,254.4,61.7,254.2,60.7z
		 M258.3,50.7l2.8-0.7c0.3,0.8,0.6,1.6,0.9,2.5s0.5,1.7,0.7,2.3l-2.9,0.8c-0.1-0.7-0.3-1.5-0.6-2.4
		C258.9,52.3,258.6,51.4,258.3,50.7z M264.7,59.9l3.1,0.5c-0.2,1.3-0.4,2.6-0.7,4c-0.3,1.4-0.6,2.8-0.9,4.2c-0.3,1.4-0.6,2.7-0.9,4
		c-0.3,1.3-0.6,2.4-0.9,3.4l-2.6-0.6c0.3-1,0.6-2.2,0.9-3.5c0.3-1.3,0.6-2.7,0.8-4.1c0.3-1.4,0.5-2.8,0.7-4.2
		C264.4,62.3,264.6,61.1,264.7,59.9z"/>
	<path class="st0" d="M277,57.3c1.2,0,2.5-0.1,3.9-0.2c1.4-0.1,3-0.2,4.6-0.2c1.6-0.1,3.2-0.2,4.9-0.3v2.7c-2.3,0.1-4.7,0.3-6.9,0.4
		c-2.3,0.1-4.3,0.3-6.1,0.4L277,57.3z M285.9,54.7h2.7v3.2c0,1.2-0.1,2.5-0.2,3.9c-0.1,1.4-0.3,2.9-0.7,4.4c-0.3,1.5-0.9,3-1.5,4.5
		c-0.7,1.5-1.6,3-2.8,4.4c-1.1,1.4-2.6,2.8-4.3,4.1c-0.1-0.2-0.3-0.5-0.6-0.7s-0.5-0.5-0.8-0.7c-0.3-0.2-0.5-0.4-0.7-0.6
		c1.6-1.2,3-2.4,4-3.7c1.1-1.3,1.9-2.6,2.6-4c0.6-1.4,1.1-2.7,1.4-4.1c0.3-1.4,0.5-2.7,0.6-3.9c0.1-1.3,0.1-2.4,0.1-3.5V54.7z
		 M277.7,67.2c0.3-1.1,0.7-2.3,1-3.7s0.6-2.8,0.9-4.3c0.3-1.5,0.5-3,0.7-4.6c0.2-1.5,0.4-3,0.5-4.3l2.9,0.2
		c-0.2,1.4-0.4,2.9-0.6,4.5c-0.2,1.6-0.5,3.2-0.8,4.7c-0.3,1.6-0.6,3.1-0.9,4.5c-0.3,1.4-0.6,2.7-0.9,3.8L277.7,67.2z M277.7,67.2
		l1.8-2c0.9,0.7,1.8,1.4,2.8,2.2c1,0.8,2,1.6,2.9,2.5c1,0.8,1.9,1.7,2.7,2.5c0.8,0.8,1.5,1.5,2.1,2.2l-1.9,2.4
		c-0.5-0.7-1.2-1.4-2-2.2c-0.8-0.8-1.7-1.7-2.7-2.6c-1-0.9-1.9-1.7-2.9-2.6C279.5,68.7,278.6,68,277.7,67.2z M289.3,63.3h16.6v2.8
		h-16.6V63.3z M290.6,52.4h12.1v2.7h-12.1V52.4z M296.2,60h3v15.7c0,0.8-0.1,1.4-0.3,1.9c-0.2,0.4-0.6,0.8-1.2,1
		c-0.5,0.2-1.2,0.4-2,0.4c-0.8,0.1-1.8,0.1-3.1,0.1c-0.1-0.4-0.2-0.9-0.4-1.4c-0.2-0.5-0.4-1-0.6-1.4c0.6,0,1.1,0,1.7,0
		c0.5,0,1,0,1.4,0c0.4,0,0.7,0,0.9,0c0.2,0,0.4-0.1,0.5-0.2c0.1-0.1,0.2-0.2,0.2-0.5V60z M301.6,52.4h0.8l0.7-0.2l2,1.4
		c-0.6,0.9-1.3,1.9-2.1,2.9c-0.8,1-1.6,1.9-2.5,2.8c-0.9,0.9-1.7,1.7-2.6,2.3c-0.2-0.2-0.5-0.5-0.8-0.9c-0.4-0.3-0.7-0.6-0.9-0.8
		c0.7-0.6,1.4-1.3,2.1-2.1c0.7-0.8,1.3-1.7,1.9-2.5c0.6-0.9,1.1-1.6,1.4-2.3V52.4z"/>
	<path class="st0" d="M321.1,50.2h3c0,0.6-0.1,1.4-0.2,2.4s-0.2,2.2-0.3,3.5c-0.1,1.3-0.4,2.7-0.6,4.2c-0.3,1.5-0.6,3.1-1.1,4.6
		c-0.5,1.6-1,3.2-1.7,4.7c-0.7,1.5-1.5,3-2.4,4.4c-0.9,1.4-2.1,2.7-3.4,3.8c-0.3-0.4-0.7-0.7-1.1-1.1c-0.5-0.4-0.9-0.7-1.4-0.9
		c1.3-1,2.4-2.2,3.3-3.5c0.9-1.3,1.7-2.7,2.4-4.2c0.7-1.5,1.2-3,1.6-4.4c0.4-1.5,0.8-3,1-4.4c0.2-1.4,0.4-2.7,0.5-4
		c0.1-1.2,0.2-2.3,0.2-3.2C321,51.4,321.1,50.7,321.1,50.2z M313,55.2H340v2.9H313V55.2z M333.8,61.8h0.6l0.5-0.2l2,0.9
		c-0.6,2.3-1.5,4.4-2.6,6.2c-1.1,1.8-2.4,3.3-3.9,4.7c-1.5,1.3-3.1,2.5-4.9,3.4c-1.8,0.9-3.7,1.7-5.6,2.3c-0.2-0.4-0.4-0.8-0.8-1.3
		c-0.3-0.5-0.6-0.9-0.9-1.2c1.8-0.5,3.6-1.1,5.2-1.9c1.7-0.8,3.2-1.8,4.5-3c1.4-1.2,2.6-2.5,3.6-4.1c1-1.5,1.8-3.3,2.3-5.2V61.8z
		 M323.2,63.2c1.3,3.5,3.5,6.4,6.4,8.6c2.9,2.2,6.6,3.7,11.1,4.5c-0.2,0.2-0.5,0.5-0.7,0.8c-0.2,0.3-0.5,0.6-0.7,1
		c-0.2,0.3-0.4,0.6-0.5,0.9c-3.1-0.7-5.8-1.7-8.2-3c-2.3-1.3-4.3-3-6-5c-1.6-2-3-4.4-4-7L323.2,63.2z M321.6,61.8h12.6v2.8h-13.4
		L321.6,61.8z"/>
	<path class="st0" d="M3.2,117.9l2.4,0.5c-0.3,1.5-0.8,2.9-1.3,4.3c-0.5,1.4-1.2,2.6-1.8,3.6c-0.1-0.1-0.3-0.3-0.6-0.5
		s-0.5-0.4-0.8-0.5c-0.3-0.2-0.5-0.3-0.7-0.4c0.6-0.9,1.2-1.9,1.7-3.2C2.5,120.4,2.9,119.2,3.2,117.9z M0.7,104h14.2v2.6H0.7V104z
		 M2.2,108.6h11.5v7.9H2.2V108.6z M6.8,115.8h2.6v10.3c0,0.6-0.1,1.1-0.2,1.5c-0.1,0.4-0.4,0.7-0.8,0.9c-0.4,0.2-0.9,0.3-1.5,0.4
		c-0.6,0-1.3,0.1-2.1,0.1c0-0.4-0.1-0.8-0.3-1.2c-0.2-0.5-0.3-0.9-0.5-1.2c0.5,0,1,0,1.5,0c0.5,0,0.8,0,0.9,0c0.3,0,0.4-0.1,0.4-0.4
		V115.8z M4.8,111v3.3H11V111H4.8z M5.7,100.8l2.7-0.6c0.3,0.7,0.7,1.4,1,2.2c0.3,0.8,0.6,1.5,0.7,2l-2.8,0.7
		c-0.1-0.6-0.3-1.3-0.6-2.1C6.3,102.2,6,101.5,5.7,100.8z M10.3,118.4l2.1-0.9c0.5,0.8,1,1.8,1.4,2.8c0.4,1,0.7,1.9,0.9,2.7l-2.2,1
		c-0.2-0.8-0.4-1.7-0.9-2.7C11.3,120.2,10.8,119.3,10.3,118.4z M19.4,100.3h2.8c0,2-0.1,4-0.1,6.1c-0.1,2.1-0.2,4.2-0.5,6.3
		c-0.2,2.1-0.6,4.2-1.2,6.1c-0.5,2-1.3,3.8-2.2,5.6c-0.9,1.7-2.1,3.3-3.5,4.6c-0.2-0.3-0.5-0.6-0.9-1s-0.8-0.6-1.1-0.8
		c1.4-1.2,2.5-2.6,3.3-4.2c0.8-1.6,1.5-3.3,2-5.2s0.8-3.8,1-5.8c0.2-2,0.3-4,0.4-6C19.4,104.1,19.4,102.2,19.4,100.3z M15.2,108.2
		h13.6v2.7H15.2V108.2z M21.4,113h2.5v11.9c0,0.3,0,0.5,0,0.7c0,0.2,0.1,0.3,0.1,0.4c0.1,0.1,0.2,0.1,0.3,0.1c0.1,0,0.2,0,0.4,0
		c0.1,0,0.3,0,0.5,0c0.2,0,0.4,0,0.6,0c0.1,0,0.3,0,0.4,0c0.1,0,0.2-0.1,0.3-0.1c0.2-0.1,0.3-0.4,0.4-0.9c0-0.3,0.1-0.7,0.1-1.3
		c0-0.6,0-1.3,0-2.1c0.3,0.2,0.6,0.5,1.1,0.7c0.4,0.2,0.8,0.4,1.2,0.5c0,0.7-0.1,1.4-0.1,2.2s-0.1,1.3-0.2,1.6
		c-0.2,0.6-0.6,1.1-1.1,1.3c-0.2,0.1-0.5,0.2-0.9,0.3c-0.3,0.1-0.7,0.1-0.9,0.1c-0.1,0-0.3,0-0.6,0s-0.5,0-0.8,0s-0.5,0-0.6,0
		c-0.3,0-0.7-0.1-1.1-0.2c-0.4-0.1-0.7-0.3-1-0.5c-0.2-0.2-0.4-0.5-0.6-0.9s-0.2-1.1-0.2-2.1V113z M22.9,102.7l2-1.1
		c0.6,0.7,1.2,1.5,1.9,2.3c0.6,0.9,1.1,1.6,1.4,2.3l-2.1,1.3c-0.2-0.5-0.4-1-0.8-1.5c-0.3-0.6-0.7-1.1-1.1-1.7
		C23.7,103.7,23.3,103.1,22.9,102.7z"/>
	<path class="st0" d="M37.3,111.4h2.7v7.4c0,1.1-0.1,2.2-0.2,3.5c-0.1,1.3-0.4,2.5-0.7,3.7c-0.4,1.2-0.9,2.3-1.7,3.2
		c-0.1-0.2-0.3-0.4-0.6-0.7c-0.2-0.3-0.5-0.5-0.8-0.8c-0.3-0.2-0.5-0.4-0.7-0.6c0.6-0.8,1-1.7,1.3-2.7c0.3-1,0.4-1.9,0.5-2.9
		c0.1-1,0.1-1.9,0.1-2.8V111.4z M37,109.8c-0.1-0.2-0.1-0.4-0.2-0.8c-0.1-0.3-0.2-0.7-0.3-1c-0.1-0.4-0.2-0.6-0.3-0.9
		c0.2-0.1,0.5-0.2,0.8-0.4s0.6-0.5,0.9-0.8c0.2-0.2,0.6-0.6,1-1.2c0.4-0.6,0.9-1.2,1.5-2c0.5-0.8,1-1.6,1.4-2.4l3,0.9
		c-0.5,0.9-1.1,1.8-1.8,2.7c-0.7,0.9-1.3,1.7-2,2.5s-1.4,1.5-2,2v0.1c-0.4,0.2-0.6,0.4-0.9,0.5c-0.2,0.1-0.4,0.3-0.6,0.5
		C37.1,109.6,37,109.7,37,109.8z M37,109.8l-0.1-2.1l1.5-0.9l9.7-0.7c0.1,0.4,0.1,0.8,0.2,1.2s0.2,0.8,0.3,1.1
		c-2.4,0.2-4.3,0.4-5.7,0.5c-1.4,0.1-2.5,0.3-3.3,0.4c-0.8,0.1-1.4,0.2-1.7,0.2C37.5,109.7,37.2,109.7,37,109.8z M38.7,111.4h8.6
		v2.5h-8.6V111.4z M39.6,122.8c0.9-0.4,2-0.9,3.2-1.5c1.3-0.6,2.5-1.3,3.8-2l0.6,1.8c-1.2,0.7-2.3,1.4-3.5,2.2
		c-1.1,0.7-2.2,1.4-3.2,2L39.6,122.8z M40.1,116.6l1.5-1.4c0.5,0.3,1,0.7,1.6,1.1s1.1,0.8,1.6,1.1c0.5,0.4,0.9,0.7,1.2,1l-1.5,1.6
		c-0.3-0.3-0.7-0.7-1.2-1.1c-0.5-0.4-1-0.8-1.6-1.2C41.1,117.3,40.5,116.9,40.1,116.6z M45.8,111.4h2.8v14.8c0,0.7-0.1,1.2-0.2,1.6
		c-0.2,0.4-0.5,0.7-0.9,0.9c-0.5,0.2-1.1,0.3-1.8,0.3c-0.7,0-1.5,0.1-2.5,0.1c-0.1-0.4-0.2-0.7-0.4-1.2s-0.4-0.8-0.6-1.2
		c0.7,0,1.3,0,1.8,0c0.6,0,1,0,1.2,0c0.2,0,0.3,0,0.4-0.1c0.1-0.1,0.1-0.2,0.1-0.4V111.4z M44.3,103.4l2.4-0.9
		c0.5,0.7,1,1.5,1.5,2.4s1,1.7,1.4,2.5c0.4,0.8,0.8,1.5,1.1,2.2l-2.5,1.1c-0.2-0.6-0.5-1.4-1-2.2c-0.4-0.8-0.9-1.7-1.4-2.6
		S44.8,104.2,44.3,103.4z M51.2,100.3h2.9v9.5c0,0.6,0.1,1,0.2,1.2c0.2,0.2,0.5,0.3,1,0.3c0.2,0,0.5,0,1,0c0.5,0,1,0,1.6,0
		c0.6,0,1.1,0,1.6,0c0.5,0,0.8,0,1.1,0c0.4,0,0.9,0,1.4-0.1c0.5,0,1-0.1,1.3-0.2c0,0.4,0.1,0.8,0.1,1.3c0,0.5,0.1,0.9,0.2,1.2
		c-0.3,0.1-0.7,0.1-1.3,0.2c-0.5,0-1.1,0-1.7,0c-0.2,0-0.5,0-0.9,0c-0.4,0-0.8,0-1.3,0s-0.9,0-1.3,0c-0.4,0-0.8,0-1.2,0
		s-0.6,0-0.7,0c-1.1,0-1.9-0.1-2.4-0.4c-0.6-0.3-1-0.7-1.2-1.3c-0.2-0.6-0.4-1.4-0.4-2.4V100.3z M51.2,114.8h2.9V125
		c0,0.5,0.1,0.9,0.3,1c0.2,0.2,0.7,0.2,1.3,0.2c0.1,0,0.4,0,0.8,0s0.8,0,1.3,0c0.5,0,0.9,0,1.3,0c0.4,0,0.7,0,0.9,0
		c0.4,0,0.7-0.1,0.9-0.3c0.2-0.2,0.4-0.5,0.4-1.1s0.1-1.3,0.2-2.4c0.3,0.2,0.7,0.4,1.3,0.6c0.5,0.2,1,0.4,1.3,0.4
		c-0.1,1.4-0.3,2.4-0.5,3.2c-0.3,0.8-0.7,1.3-1.2,1.6c-0.5,0.3-1.2,0.4-2.2,0.4c-0.1,0-0.4,0-0.7,0s-0.7,0-1.2,0s-0.9,0-1.3,0
		s-0.8,0-1.2,0s-0.6,0-0.7,0c-1.1,0-1.9-0.1-2.6-0.3c-0.6-0.2-1-0.6-1.3-1.2c-0.2-0.5-0.3-1.3-0.3-2.3V114.8z M53,104.3h9.2v2.5H53
		V104.3z M53,118.3h9.5v2.6H53V118.3z"/>
	<path class="st0" d="M70,116.5c1.4-0.3,3-0.7,4.9-1.3c1.9-0.5,3.8-1,5.7-1.6l0.4,2.7c-1.8,0.5-3.6,1-5.3,1.6
		c-1.8,0.5-3.4,1-4.9,1.4L70,116.5z M70.4,106.4h10.1v2.7H70.4V106.4z M74.5,100.3h2.8v25.6c0,0.7-0.1,1.3-0.2,1.7
		c-0.2,0.4-0.5,0.7-0.9,0.9c-0.5,0.2-1,0.4-1.7,0.4c-0.7,0.1-1.6,0.1-2.6,0.1c0-0.4-0.1-0.8-0.3-1.3c-0.2-0.5-0.3-1-0.5-1.3
		c0.7,0,1.3,0,1.8,0c0.6,0,0.9,0,1.1,0c0.2,0,0.4,0,0.5-0.1s0.1-0.2,0.1-0.5V100.3z M81.5,107.3h17v21.5h-2.9v-18.7H84.3V129h-2.8
		V107.3z M83.2,115.5h13.2v2.8H83.2V115.5z M83.3,123.9h13.2v2.8H83.3V123.9z M88.4,100.3h2.8v25.4h-2.8V100.3z"/>
	<path class="st0" d="M118.1,100.3h3.2c0,1.5,0,3-0.1,4.7c-0.1,1.7-0.2,3.4-0.5,5.2c-0.2,1.8-0.7,3.6-1.2,5.3
		c-0.6,1.8-1.3,3.5-2.3,5.1c-1,1.7-2.3,3.2-3.8,4.6c-1.6,1.4-3.4,2.7-5.7,3.7c-0.2-0.4-0.6-0.8-1-1.3c-0.4-0.5-0.8-0.9-1.2-1.2
		c2.1-1,4-2.1,5.4-3.4s2.7-2.7,3.6-4.2c0.9-1.5,1.6-3.1,2.1-4.7c0.5-1.6,0.8-3.3,1.1-4.9c0.2-1.6,0.3-3.2,0.4-4.7
		C118.1,103,118.1,101.6,118.1,100.3z M106.1,108.9h27.4v3h-27.4V108.9z M121.5,110.1c0.7,2.4,1.6,4.7,2.7,6.8
		c1.1,2.1,2.5,4,4.2,5.5s3.5,2.8,5.7,3.7c-0.2,0.2-0.5,0.5-0.8,0.8c-0.3,0.3-0.5,0.7-0.8,1c-0.2,0.3-0.5,0.6-0.6,0.9
		c-2.3-1.1-4.3-2.5-6-4.3s-3.1-3.8-4.3-6.2c-1.2-2.3-2.2-4.9-3-7.7L121.5,110.1z"/>
	<path class="st0" d="M153.2,117h2.9v2.1c0,0.7-0.1,1.4-0.3,2.1c-0.2,0.8-0.6,1.5-1.1,2.3c-0.5,0.8-1.3,1.5-2.4,2.2
		c-1,0.7-2.4,1.3-4.1,1.9c-1.7,0.6-3.8,1.1-6.3,1.5c-0.2-0.3-0.4-0.7-0.7-1.2c-0.3-0.5-0.6-0.9-0.9-1.2c2.3-0.4,4.2-0.8,5.7-1.3
		c1.5-0.5,2.8-1,3.7-1.5c1-0.5,1.7-1.1,2.2-1.7c0.5-0.6,0.8-1.1,1-1.7s0.2-1.1,0.2-1.6V117z M142.7,110.6h2.6v1.5
		c0,0.5-0.1,1.2-0.2,1.9c-0.1,0.8-0.4,1.5-0.8,2.3c-0.4,0.8-0.9,1.4-1.6,2c-0.2-0.1-0.4-0.3-0.7-0.4c-0.3-0.2-0.5-0.3-0.8-0.5
		c-0.3-0.1-0.5-0.3-0.8-0.4c0.6-0.5,1.1-1.1,1.4-1.7c0.3-0.6,0.5-1.2,0.6-1.8c0.1-0.6,0.2-1.1,0.2-1.5V110.6z M140.5,120.1h28.6v2.4
		h-28.6V120.1z M140.6,109.7h8.4v2.3h-8.4V109.7z M142,101h2.5v4.3h4.5v2.3H142V101z M147.4,100.4h2.7V118h-2.7V100.4z M165.2,101.9
		h0.5l0.5-0.1l1.6,0.8c-0.7,1.2-1.6,2.3-2.7,3.1c-1.1,0.9-2.3,1.6-3.6,2.2c-1.4,0.6-2.8,1.1-4.4,1.5c-1.6,0.4-3.2,0.7-4.8,0.9
		c-0.1-0.3-0.3-0.6-0.5-0.9c-0.2-0.3-0.4-0.6-0.7-0.8c1.5-0.2,3-0.4,4.4-0.7c1.4-0.3,2.8-0.7,4-1.3c1.3-0.5,2.4-1.1,3.3-1.8
		c1-0.7,1.7-1.6,2.3-2.5V101.9z M151.2,110.2h17.4v2h-17.4V110.2z M159.6,100.2l2.5,0.6c-1.1,1-2.4,1.8-3.9,2.6
		c-1.5,0.7-3.3,1.4-5.3,2c-0.1-0.2-0.4-0.5-0.7-0.9c-0.3-0.3-0.6-0.6-0.8-0.8c1.9-0.4,3.5-1,4.9-1.6
		C157.6,101.5,158.8,100.8,159.6,100.2z M152.1,105.8c0.7,0,1.5-0.1,2.3-0.2s1.7-0.1,2.7-0.2l0.1,1.5c-0.9,0.1-1.7,0.2-2.5,0.2
		c-0.8,0.1-1.6,0.1-2.4,0.2L152.1,105.8z M153.3,113.2l1.8-1.4c0.6,0.4,1.2,0.8,1.9,1.3c0.6,0.5,1.1,1,1.5,1.4l-1.9,1.5
		c-0.3-0.4-0.8-0.9-1.4-1.5C154.6,114,153.9,113.6,153.3,113.2z M155.6,124l1.3-2c1,0.3,2,0.7,3.1,1.1c1.1,0.4,2.2,0.8,3.4,1.2
		c1.1,0.4,2.2,0.8,3.2,1.3c1,0.4,1.9,0.8,2.6,1.1l-1.4,2.3c-0.7-0.4-1.5-0.7-2.5-1.2c-1-0.4-2-0.9-3.2-1.3c-1.1-0.5-2.3-0.9-3.4-1.4
		C157.6,124.7,156.6,124.3,155.6,124z M156.1,103.6l1.9-0.7c0.7,0.5,1.5,1.1,2.3,1.9c0.8,0.7,1.4,1.4,1.8,2l-2,0.7
		c-0.4-0.6-0.9-1.2-1.6-1.9C157.6,104.8,156.9,104.2,156.1,103.6z M158.5,101.9h7.4v1.7h-9.6L158.5,101.9z M162.1,108h2.8v6.8
		c0,0.6-0.1,1.1-0.2,1.4c-0.2,0.3-0.5,0.6-0.9,0.8c-0.5,0.2-1,0.3-1.7,0.3c-0.7,0-1.5,0-2.4,0c-0.1-0.4-0.2-0.7-0.3-1.1
		c-0.1-0.4-0.3-0.8-0.5-1.1c0.6,0,1.2,0,1.8,0c0.5,0,0.9,0,1,0c0.2,0,0.3-0.1,0.4-0.1s0.1-0.2,0.1-0.3V108z M159.7,118.2l1.4-1.3
		c0.5,0.4,1.1,0.8,1.7,1.2c0.6,0.5,1.1,0.9,1.4,1.2l-1.5,1.5c-0.3-0.4-0.8-0.8-1.4-1.3C160.8,119,160.2,118.6,159.7,118.2z"/>
	<path class="st0" d="M182,126.7c-0.7,0-1.2-0.2-1.7-0.7c-0.4-0.4-0.7-1-0.7-1.7c0-0.7,0.2-1.3,0.7-1.7c0.5-0.4,1-0.7,1.6-0.7
		s1.2,0.2,1.6,0.7c0.5,0.4,0.7,1,0.7,1.7c0,0.7-0.2,1.3-0.7,1.7S182.7,126.7,182,126.7z M180.8,118.8l-0.7-11.4l-0.1-4.1h4.2
		l-0.1,4.1l-0.7,11.4H180.8z"/>
</g>
</svg>
