<!-- Generator: Adobe Illustrator 25.0.0, SVG Export Plug-In  -->
<svg version="1.1" xmlns="http://www.w3.org/2000/svg" xmlns:xlink="http://www.w3.org/1999/xlink" x="0px" y="0px" width="114.6px"
	 height="105.6px" viewBox="0 0 114.6 105.6" style="overflow:visible;enable-background:new 0 0 114.6 105.6;"
	 xml:space="preserve">
<style type="text/css">
	.st0{fill:none;stroke:#000000;stroke-width:3;stroke-miterlimit:10;}
	.st1{fill:#333337;}
	.st2{fill:#FFFFFF;}
</style>
<defs>
</defs>
<g>
	<g>
		<circle class="st0" cx="61.9" cy="52.7" r="51.2"/>
		<path d="M53.7,61.3v31.6h15.9V61.3h10.4L82.7,48H70.1V37.4c0-2.4,1.9-4.4,4.4-4.4h8.3V21.2l-12.4-1l0,0
			c-9.4,0.6-16.7,8.3-16.7,17.7v10.6H42.8v12.6L53.7,61.3z"/>
	</g>
	<g>
		<circle class="st1" cx="18.2" cy="87.4" r="18.2"/>
		<path class="st2" d="M28.1,86.3l-7.3-6.8c-0.5-0.5-1.3-0.1-1.3,0.5v3.3c-2.2,0.2-9.2,1.5-11.6,11.8c-0.1,0.3,0.2,0.5,0.5,0.3
			c1.8-1.2,6.9-4.3,11.1-4.5v2.8c0,0.7,0.8,1,1.3,0.5l7.3-6.8C28.5,87.1,28.5,86.6,28.1,86.3z"/>
	</g>
</g>
</svg>
