<!-- Generator: Adobe Illustrator 25.0.0, SVG Export Plug-In  -->
<svg version="1.1" xmlns="http://www.w3.org/2000/svg" xmlns:xlink="http://www.w3.org/1999/xlink" x="0px" y="0px"
	 width="1145.5px" height="153.2px" viewBox="0 0 1145.5 153.2" style="overflow:visible;enable-background:new 0 0 1145.5 153.2;"
	 xml:space="preserve">
<style type="text/css">
	.st0{fill:#333337;}
	.st1{fill:none;stroke:#000000;stroke-miterlimit:10;}
	.st2{fill:none;stroke:#000000;stroke-width:3;stroke-miterlimit:10;}
	.st3{fill:#FFFFFF;}
</style>
<defs>
</defs>
<g>
	<g>
		<path class="st0" d="M135.7,26.8l2.7,0.6c-0.5,1.5-1.1,3-1.9,4.4c-0.8,1.4-1.6,2.7-2.5,3.8c-0.9,1.2-1.9,2.2-3,3
			c-0.1-0.2-0.4-0.4-0.6-0.6s-0.5-0.5-0.8-0.7c-0.3-0.2-0.5-0.4-0.7-0.6c1.6-1.1,3-2.5,4.1-4.3C134.1,30.8,135,28.9,135.7,26.8z
			 M138.5,36.7h2.8c-0.1,1.5-0.4,2.9-0.7,4.4c-0.3,1.4-0.8,2.7-1.5,4c-0.7,1.3-1.6,2.4-2.8,3.4c-1.2,1-2.8,1.9-4.7,2.6
			c-0.1-0.2-0.3-0.5-0.4-0.8c-0.2-0.3-0.4-0.6-0.6-0.8c-0.2-0.3-0.4-0.5-0.6-0.7c1.8-0.6,3.2-1.3,4.3-2.2c1.1-0.9,1.9-1.8,2.5-2.9
			c0.6-1.1,1-2.2,1.2-3.4S138.4,37.9,138.5,36.7z M133.2,36h15.1v2.5h-15.1V36z M140.2,26.3h6v2.4h-6V26.3z M147.4,36h2.7
			c0,0.3,0,0.5,0,0.7c0,0.2,0,0.3,0,0.4c-0.1,2.1-0.2,3.8-0.3,5.3c-0.1,1.5-0.2,2.7-0.3,3.7c-0.1,1-0.3,1.7-0.4,2.3
			c-0.2,0.6-0.4,1-0.6,1.2c-0.3,0.4-0.6,0.7-1,0.8c-0.4,0.2-0.8,0.2-1.3,0.3c-0.5,0.1-1.1,0.1-1.8,0.1c-0.8,0-1.6,0-2.4-0.1
			c0-0.4-0.1-0.8-0.3-1.3c-0.2-0.5-0.3-0.9-0.6-1.3c0.8,0.1,1.6,0.1,2.3,0.1c0.7,0,1.2,0,1.6,0c0.3,0,0.5,0,0.7-0.1
			c0.2-0.1,0.3-0.2,0.5-0.3c0.2-0.2,0.4-0.8,0.6-1.6c0.2-0.8,0.3-2,0.4-3.7c0.1-1.6,0.2-3.7,0.3-6.3V36z M143.8,26.3h2.9
			c0.4,1.4,1,2.7,1.8,4c0.8,1.3,1.6,2.4,2.7,3.5c1,1,2.1,1.9,3.3,2.5c-0.2,0.2-0.4,0.4-0.6,0.7c-0.2,0.3-0.5,0.6-0.7,0.9
			c-0.2,0.3-0.4,0.6-0.5,0.8c-1.3-0.8-2.4-1.8-3.5-2.9c-1.1-1.2-2-2.4-2.8-3.8c-0.8-1.4-1.5-2.8-2-4.2h-0.6V26.3z"/>
		<path class="st0" d="M158.9,43.7h24.2v2.2h-24.2V43.7z M159.2,28.1h23.5v2.2h-23.5V28.1z M161.4,38.8h16.7v2h-16.7V38.8z
			 M162.5,31.8h17.2v5.7h-17.2V31.8z M169.6,42.2h2.7v6.2c0,0.7-0.1,1.2-0.3,1.5c-0.2,0.3-0.6,0.6-1.1,0.7c-0.5,0.1-1.2,0.2-2.1,0.2
			c-0.8,0-1.9,0-3.1,0c-0.1-0.3-0.2-0.7-0.4-1.1c-0.2-0.4-0.3-0.7-0.5-1c0.6,0,1.2,0,1.7,0c0.6,0,1.1,0,1.5,0c0.4,0,0.7,0,0.9,0
			c0.3,0,0.4-0.1,0.5-0.1c0.1-0.1,0.1-0.2,0.1-0.4V42.2z M165,33.6v2h11.9v-2H165z M168.9,26.2l2.6-0.5c0.3,0.5,0.6,1.1,0.8,1.7
			c0.2,0.6,0.4,1.2,0.5,1.6l-2.7,0.5c-0.1-0.4-0.2-1-0.5-1.6C169.4,27.3,169.1,26.7,168.9,26.2z M177.6,38.8h0.7l0.6-0.1l1.6,1.4
			c-0.9,0.5-1.9,0.9-2.9,1.4c-1.1,0.4-2.2,0.8-3.3,1.2c-1.1,0.4-2.3,0.7-3.4,0.9c-0.1-0.2-0.3-0.5-0.6-0.8c-0.3-0.3-0.5-0.5-0.6-0.7
			c1-0.2,2-0.5,3-0.8c1-0.3,2-0.7,2.8-1c0.9-0.4,1.6-0.7,2.2-1.1V38.8z"/>
		<path class="st0" d="M189,30.3h9.8v2.3h-7.2v5.1h7.2v2.3h-7.2v8.6H189V30.3z"/>
		<path class="st0" d="M210.3,48.7H204V30.3h4.8c1.5,0,2.7,0.2,3.6,0.6c0.9,0.4,1.5,1,2,1.7c0.4,0.7,0.7,1.5,0.7,2.5
			c0,1.8-0.9,3.1-2.8,3.9c1.3,0.3,2.4,0.8,3.2,1.7c0.8,0.9,1.2,1.9,1.2,3.1c0,0.9-0.2,1.8-0.7,2.5c-0.5,0.7-1.2,1.3-2.1,1.8
			S211.7,48.7,210.3,48.7z M208.9,32.6h-2.3v5.5h1.8c1.4,0,2.4-0.3,3-0.8s0.9-1.2,0.9-2.1C212.3,33.5,211.2,32.6,208.9,32.6z
			 M209.1,40.5h-2.5v5.8h2.6c1.4,0,2.4-0.1,2.9-0.3c0.5-0.2,0.9-0.6,1.2-1c0.3-0.5,0.5-1,0.5-1.5c0-0.6-0.2-1.1-0.5-1.5
			s-0.8-0.8-1.4-1S210.4,40.5,209.1,40.5z"/>
		<path class="st0" d="M220.7,35.5l1.4-1.9c0.5,0.2,1.1,0.5,1.7,0.9c0.6,0.3,1.2,0.7,1.8,1c0.6,0.3,1.1,0.6,1.5,0.9l-1.4,2.1
			c-0.4-0.3-0.8-0.6-1.4-0.9c-0.6-0.3-1.2-0.7-1.8-1.1C221.8,36.1,221.2,35.8,220.7,35.5z M221.2,48.9c0.5-0.7,1-1.5,1.6-2.5
			c0.6-1,1.2-2,1.8-3c0.6-1.1,1.2-2.1,1.7-3.1l1.9,1.7c-0.5,0.9-1,1.9-1.5,2.9c-0.5,1-1.1,2-1.7,3c-0.6,1-1.1,1.9-1.7,2.8
			L221.2,48.9z M222,28l1.5-1.8c0.5,0.2,1.1,0.5,1.7,0.9c0.6,0.3,1.3,0.7,1.8,1c0.6,0.3,1.1,0.6,1.5,0.9L227,31
			c-0.4-0.3-0.9-0.6-1.4-0.9c-0.6-0.4-1.2-0.7-1.8-1.1C223.1,28.7,222.5,28.3,222,28z M228.4,33.8h17.2v2.5h-17.2V33.8z M242.5,25.9
			l2,2c-1.3,0.5-2.7,0.9-4.3,1.2s-3.2,0.6-5,0.9c-1.7,0.2-3.4,0.4-4.9,0.6c-0.1-0.3-0.2-0.7-0.3-1.1c-0.2-0.4-0.3-0.8-0.4-1.1
			c1.2-0.1,2.4-0.3,3.6-0.4c1.2-0.2,2.4-0.4,3.5-0.6c1.2-0.2,2.2-0.4,3.2-0.7S241.7,26.2,242.5,25.9z M230.2,40.2H244v10.6h-2.4
			v-8.2h-9v8.3h-2.3V40.2z M231.9,47.5h10.7v2.3h-10.7V47.5z M235.9,28.6h2.4v13h-2.4V28.6z"/>
		<path class="st0" d="M250.1,47.8c1.1-0.1,2.4-0.2,3.8-0.3c1.4-0.1,3-0.3,4.6-0.4c1.6-0.2,3.2-0.3,4.8-0.4l0,1.9
			c-1.5,0.2-3.1,0.4-4.6,0.5c-1.6,0.2-3,0.3-4.5,0.5c-1.4,0.2-2.7,0.3-3.9,0.4L250.1,47.8z M250.1,30.5h13.5v1.9h-13.5V30.5z
			 M262,26.1l1.2,1.9c-1.1,0.2-2.3,0.4-3.7,0.6c-1.4,0.2-2.8,0.3-4.3,0.4c-1.5,0.1-2.9,0.2-4.3,0.2c0-0.3-0.1-0.6-0.2-0.9
			c-0.1-0.4-0.2-0.7-0.4-0.9c1-0.1,2-0.1,3.1-0.2c1.1-0.1,2.1-0.2,3.2-0.3c1-0.1,2-0.2,3-0.4C260.5,26.4,261.3,26.3,262,26.1z
			 M250.8,43.4h12.4v1.9h-12.4V43.4z M250.9,33.8h12.3v8.2h-12.3V33.8z M252.9,35.5v1.6h8v-1.6H252.9z M252.9,38.7v1.6h8v-1.6H252.9
			z M255.8,28.3h2.3v19.7h-2.3V28.3z M266.5,26.3h2.5c0,2.2,0,4.3-0.1,6.4c0,2-0.2,4-0.4,5.8s-0.5,3.5-1,5.1s-1.1,3-1.9,4.3
			c-0.8,1.3-1.8,2.4-3.1,3.4c-0.1-0.2-0.3-0.4-0.5-0.7c-0.2-0.2-0.4-0.5-0.7-0.7c-0.2-0.2-0.5-0.4-0.7-0.5c1.2-0.9,2.2-1.9,2.9-3.1
			c0.7-1.2,1.3-2.5,1.7-3.9c0.4-1.4,0.7-3,0.8-4.7c0.2-1.7,0.2-3.5,0.3-5.4C266.5,30.4,266.5,28.4,266.5,26.3z M263.5,32.1h9.6v2.4
			h-9.6V32.1z M272.1,32.1h2.5c0,0.3,0,0.6,0,0.8c0,0.2,0,0.3,0,0.5c-0.1,2.8-0.1,5.2-0.2,7.1c-0.1,2-0.2,3.6-0.3,4.8
			c-0.1,1.2-0.2,2.2-0.4,2.9c-0.2,0.7-0.3,1.2-0.6,1.5c-0.3,0.4-0.6,0.7-0.9,0.8c-0.3,0.2-0.7,0.3-1.1,0.3c-0.4,0.1-0.9,0.1-1.5,0.1
			s-1.2,0-1.8-0.1c0-0.3-0.1-0.7-0.3-1.2s-0.3-0.9-0.5-1.2c0.6,0.1,1.2,0.1,1.7,0.1c0.5,0,0.9,0,1.2,0c0.2,0,0.4,0,0.5-0.1
			c0.1-0.1,0.3-0.2,0.4-0.4c0.2-0.2,0.3-0.6,0.4-1.2c0.1-0.6,0.2-1.5,0.3-2.7c0.1-1.2,0.2-2.7,0.2-4.6c0.1-1.9,0.1-4.1,0.2-6.8V32.1
			z"/>
		<path class="st0" d="M282.3,44.5l2.4,0.6c-0.4,1.1-0.9,2.2-1.5,3.2c-0.6,1.1-1.3,1.9-2,2.7c-0.1-0.1-0.3-0.3-0.6-0.5
			c-0.3-0.2-0.5-0.4-0.8-0.5c-0.3-0.2-0.5-0.3-0.7-0.4c0.7-0.6,1.3-1.4,1.8-2.3S282,45.5,282.3,44.5z M280.8,26.9h9v17.2h-9V26.9z
			 M283.1,29v3h4.3v-3H283.1z M283.1,34V37h4.3V34H283.1z M283.1,38.9V42h4.3v-3.1H283.1z M286,45.4l2.1-0.9
			c0.5,0.7,1.1,1.4,1.6,2.2c0.5,0.8,0.9,1.5,1.1,2.1l-2.2,1.1c-0.2-0.6-0.6-1.3-1.1-2.2C287,46.8,286.5,46.1,286,45.4z M291.5,38.9
			h11.9v11.9h-2.5v-9.7h-7v9.8h-2.4V38.9z M292.7,47.4h9.5v2.3h-9.5V47.4z M295.7,25.9h2.5v14h-2.5V25.9z M297.1,31.8h7.5v2.3h-7.5
			V31.8z"/>
		<path class="st0" d="M327.1,31.7l2.6,0.7c-1.1,3.3-2.6,6.1-4.3,8.5c-1.8,2.4-3.9,4.4-6.4,6c-2.5,1.6-5.4,2.9-8.7,4
			c-0.1-0.2-0.3-0.5-0.4-0.8c-0.2-0.3-0.4-0.6-0.6-0.9c-0.2-0.3-0.4-0.5-0.6-0.7c3.2-0.9,6-2,8.4-3.5c2.4-1.5,4.4-3.3,6-5.5
			C324.8,37.4,326.1,34.8,327.1,31.7z M309.2,30.6h24.5V33h-24.5V30.6z M315.6,31.9c1,2.7,2.3,5.2,4,7.4c1.7,2.2,3.8,4.1,6.2,5.6
			c2.4,1.5,5.2,2.7,8.3,3.5c-0.2,0.2-0.4,0.4-0.6,0.7c-0.2,0.3-0.4,0.6-0.6,0.9c-0.2,0.3-0.4,0.6-0.5,0.8c-3.3-0.9-6.1-2.2-8.6-3.9
			c-2.5-1.7-4.6-3.7-6.3-6.1c-1.7-2.4-3.2-5.1-4.3-8.2L315.6,31.9z M319.2,26.4l2.7-0.8c0.4,0.6,0.8,1.4,1.2,2.1
			c0.4,0.8,0.7,1.4,0.8,2l-2.8,0.9c-0.1-0.6-0.4-1.2-0.8-2C320,27.8,319.6,27.1,319.2,26.4z"/>
		<path class="st0" d="M341.9,43.9l-0.7-1.8c1.1-0.4,2-1,2.6-1.6c0.6-0.7,0.9-1.5,0.9-2.4l-0.4-2.5l1.5,2.2
			c-0.2,0.2-0.5,0.4-0.7,0.5c-0.3,0.1-0.5,0.1-0.8,0.1c-0.6,0-1.1-0.2-1.6-0.6c-0.4-0.4-0.7-0.9-0.7-1.6c0-0.7,0.2-1.2,0.7-1.6
			s1-0.6,1.6-0.6c0.8,0,1.5,0.3,1.9,0.9c0.4,0.6,0.7,1.4,0.7,2.5c0,1.5-0.4,2.8-1.3,3.9C344.6,42.6,343.4,43.4,341.9,43.9z"/>
		<path class="st0" d="M354.7,47.2h24.2v2.6h-24.2V47.2z M355.3,31h23v2.5h-23V31z M356.5,36.5l2.3-0.6c0.4,0.9,0.8,1.8,1.2,2.8
			c0.4,1,0.7,2,0.9,3c0.2,1,0.4,1.8,0.5,2.6l-2.5,0.6c-0.1-0.8-0.2-1.6-0.4-2.6c-0.2-1-0.5-2-0.9-3
			C357.3,38.3,356.9,37.4,356.5,36.5z M358.9,26.8l2.3-0.9c0.5,0.7,1.1,1.4,1.5,2.3c0.5,0.8,0.8,1.6,1.1,2.2l-2.4,1
			c-0.1-0.4-0.3-0.9-0.6-1.5c-0.3-0.5-0.6-1.1-0.9-1.6C359.6,27.8,359.2,27.3,358.9,26.8z M362.6,32.8h2.5v15.8h-2.5V32.8z
			 M368.3,32.8h2.6v15.7h-2.6V32.8z M372.4,25.9l2.8,0.8c-0.5,0.9-1,1.8-1.6,2.7c-0.5,0.9-1.1,1.7-1.6,2.3l-2.3-0.8
			c0.3-0.4,0.6-1,1-1.5c0.3-0.6,0.7-1.2,1-1.8C372,26.9,372.2,26.4,372.4,25.9z M374.6,35.6l2.8,0.7c-0.3,1-0.7,2-1,3.1
			c-0.4,1.1-0.7,2.1-1.1,3c-0.4,1-0.7,1.8-1.1,2.6l-2.3-0.6c0.3-0.8,0.7-1.7,1-2.7c0.4-1,0.7-2,1-3.1
			C374.2,37.5,374.4,36.5,374.6,35.6z"/>
		<path class="st0" d="M393,25.9l2.7,0.6c-0.6,2.1-1.5,4.2-2.4,6.3c-1,2.1-2.2,4-3.6,5.8c-1.4,1.8-3,3.3-4.9,4.6
			c-0.1-0.3-0.2-0.5-0.4-0.8c-0.2-0.3-0.3-0.6-0.5-0.9c-0.2-0.3-0.3-0.5-0.4-0.7c1.2-0.8,2.3-1.8,3.3-2.9c1-1.1,1.9-2.3,2.7-3.7
			c0.8-1.3,1.5-2.7,2-4.1C392.2,28.6,392.7,27.2,393,25.9z M384.3,29.9h23.8v2.5h-23.8V29.9z M387.7,37.1h2.6v13.8h-2.6V37.1z
			 M391.8,47.9h16.3v2.4h-16.3V47.9z M392.9,38.5h14.2v2.3h-14.2V38.5z M398.7,33.6h2.6v15.6h-2.6V33.6z"/>
		<path class="st0" d="M415.4,38.2c-0.1-0.2-0.2-0.4-0.4-0.6c-0.2-0.2-0.3-0.5-0.5-0.7c-0.2-0.2-0.3-0.4-0.5-0.5
			c0.2-0.2,0.5-0.5,0.7-0.9c0.2-0.4,0.4-1,0.4-1.6v-5.7h2.5v7.3c-0.3,0.3-0.6,0.5-0.8,0.7c-0.2,0.2-0.4,0.5-0.7,0.7
			c-0.2,0.3-0.4,0.5-0.6,0.7C415.5,37.8,415.4,38,415.4,38.2z M422.8,25.8l1.6,1.9c-0.8,0.3-1.7,0.6-2.7,0.9c-1,0.3-2,0.5-3,0.8
			c-1,0.2-2,0.4-3,0.6c0-0.3-0.1-0.6-0.3-0.9c-0.1-0.4-0.3-0.7-0.4-0.9c0.9-0.2,1.8-0.4,2.8-0.7c0.9-0.2,1.8-0.5,2.7-0.8
			C421.5,26.3,422.2,26.1,422.8,25.8z M415.4,38.2l-0.2-2.1l1.1-0.9l6.6-1.6c0.1,0.3,0.2,0.7,0.3,1.1c0.1,0.4,0.2,0.7,0.3,1
			c-1.6,0.4-2.9,0.8-3.9,1.1c-1,0.3-1.7,0.5-2.3,0.7c-0.5,0.2-0.9,0.3-1.2,0.4C415.8,38,415.5,38.1,415.4,38.2z M416.6,39.4H435
			v11.4h-2.7v-9.4h-13.2v9.5h-2.6V39.4z M417.9,43.7h15.6v1.9h-15.6V43.7z M417.9,47.9h15.6V50h-15.6V47.9z M420.1,31.4l2.1-0.8
			c0.4,0.6,0.8,1.3,1.2,2c0.4,0.7,0.8,1.4,1.1,2.1c0.3,0.7,0.6,1.3,0.7,1.8l-2.2,0.9c-0.1-0.5-0.3-1.2-0.6-1.9
			c-0.3-0.7-0.6-1.4-1-2.1C420.9,32.7,420.5,32,420.1,31.4z M428.7,28h2.4c-0.1,1.6-0.3,3.1-0.7,4.5c-0.3,1.3-0.9,2.6-1.7,3.6
			c-0.8,1.1-1.9,1.9-3.4,2.6c-0.1-0.3-0.4-0.6-0.6-1c-0.3-0.4-0.6-0.6-0.8-0.8c1.3-0.6,2.2-1.3,2.9-2.2c0.7-0.9,1.1-1.8,1.4-3
			C428.4,30.6,428.6,29.4,428.7,28z M424.5,40.3h2.4v8.8h-2.4V40.3z M425.6,27.3h9.9v2.2h-9.9V27.3z M434.6,27.3h2.5
			c0,0.3,0,0.5,0,0.6c0,0.2,0,0.3,0,0.4c-0.1,1.9-0.2,3.5-0.3,4.7c-0.1,1.2-0.2,2.1-0.4,2.8c-0.1,0.6-0.3,1.1-0.6,1.4
			c-0.2,0.3-0.5,0.5-0.8,0.6c-0.3,0.1-0.6,0.2-1,0.3c-0.3,0-0.8,0.1-1.4,0.1c-0.6,0-1.1,0-1.7-0.1c0-0.3-0.1-0.7-0.2-1.1
			c-0.1-0.4-0.3-0.8-0.5-1.1c0.6,0.1,1.1,0.1,1.5,0.1c0.5,0,0.8,0,1,0c0.2,0,0.4,0,0.5-0.1c0.1,0,0.2-0.1,0.4-0.2
			c0.1-0.2,0.3-0.5,0.4-1.1c0.1-0.6,0.2-1.4,0.3-2.5c0.1-1.1,0.1-2.6,0.2-4.4V27.3z"/>
		<path class="st0" d="M129.4,71.7h24.4V74h-24.4V71.7z M133,84.3h17.3v8.5h-2.6v-6.3h-12.2v6.4H133V84.3z M133.2,75.9H150V78h-16.7
			V75.9z M133.2,80H150v2.1h-16.7V80z M134.7,89.7h14v2.1h-14V89.7z M138.9,68.5l2.5-0.7c0.5,0.6,1,1.3,1.5,2
			c0.5,0.7,0.8,1.3,1.1,1.9l-2.7,0.8c-0.2-0.5-0.5-1.2-1-1.9C139.9,69.8,139.4,69.1,138.9,68.5z"/>
		<path class="st0" d="M170.8,76.4c1.7,0,3,0.8,4,2.4l0.5-2.1h2.4l-2.1,9.8c-0.1,0.6-0.2,0.9-0.2,1.1c0,0.2,0.1,0.5,0.3,0.6
			c0.2,0.2,0.4,0.3,0.6,0.3c0.6,0,1.3-0.4,2.2-1.1s1.6-1.7,2.1-2.8s0.8-2.3,0.8-3.5c0-2.4-0.9-4.4-2.7-5.9s-4-2.4-6.7-2.4
			c-3.2,0-5.8,1.1-7.9,3.2c-2.1,2.1-3.1,4.9-3.1,8.2c0,3.2,1,5.7,3,7.4c2,1.8,4.8,2.6,8.4,2.6c2.1,0,4-0.4,5.6-1.1
			c0.6-0.3,1.2-0.6,1.9-1.1c0.6-0.4,1.2-1,1.8-1.8h2.4c-0.5,1.1-1.4,2.1-2.6,3c-1.2,1-2.6,1.7-4,2.1c-1.4,0.5-3.1,0.7-5,0.7
			c-4.1,0-7.4-1-9.8-3.1c-2.4-2.1-3.6-5-3.6-8.6c0-2.5,0.6-4.9,1.8-7.1s2.7-3.8,4.7-4.9c1.9-1.1,4.2-1.6,6.7-1.6c3.3,0,6,1,8.1,2.9
			c2.1,1.9,3.2,4.4,3.2,7.4c0,1.6-0.4,3.1-1.1,4.5c-0.8,1.5-1.8,2.6-3,3.5s-2.5,1.3-3.8,1.3c-0.9,0-1.5-0.2-1.9-0.5
			c-0.4-0.3-0.6-0.9-0.7-1.7c-0.6,0.7-1.2,1.2-1.9,1.6c-0.7,0.4-1.4,0.6-2.1,0.6c-1.4,0-2.5-0.6-3.4-1.7s-1.4-2.5-1.4-4.2
			c0-1.4,0.3-2.7,1-4c0.7-1.3,1.5-2.4,2.6-3.2C168.6,76.8,169.7,76.4,170.8,76.4z M166.4,85c0,1.1,0.3,2,0.8,2.7
			c0.5,0.7,1.2,1.1,2,1.1c1.2,0,2.3-0.7,3.3-2c1-1.4,1.5-2.9,1.5-4.6c0-1.1-0.3-2.1-0.8-2.8c-0.6-0.7-1.3-1-2.2-1
			c-1.2,0-2.2,0.7-3.2,2C166.9,81.7,166.4,83.3,166.4,85z"/>
		<path class="st0" d="M192.7,88.1h7v2.5h-11.7v-0.2l1.1-1.3c1.7-2.1,3.1-4,4.1-5.5c1-1.5,1.7-2.6,2-3.4c0.3-0.8,0.5-1.5,0.5-2.3
			c0-1-0.3-1.9-0.9-2.5c-0.6-0.6-1.4-0.9-2.3-0.9c-0.7,0-1.5,0.2-2.2,0.7c-0.7,0.4-1.4,1-1.9,1.8v-3.3c1.4-1.2,2.9-1.8,4.4-1.8
			c1.6,0,2.9,0.5,4,1.6c1,1.1,1.6,2.4,1.6,4.1c0,0.7-0.1,1.5-0.4,2.4c-0.3,0.8-0.7,1.8-1.4,2.9c-0.7,1.1-1.8,2.6-3.4,4.5L192.7,88.1
			z"/>
		<path class="st0" d="M210.5,68l2.4,0.7c-0.6,1.5-1.3,3.1-2.1,4.6c-0.8,1.5-1.6,2.9-2.6,4.3c-0.9,1.3-1.9,2.5-2.8,3.5
			c-0.1-0.2-0.2-0.5-0.4-0.8c-0.2-0.3-0.3-0.7-0.5-1c-0.2-0.3-0.4-0.6-0.5-0.8c0.9-0.9,1.7-1.9,2.5-3c0.8-1.1,1.5-2.3,2.2-3.6
			C209.4,70.6,210,69.3,210.5,68z M207.7,75.1l2.6-2.5v0v20.3h-2.6V75.1z M211.9,89.4h17v2.5h-17V89.4z M213,72.6h14.9v2.5H213V72.6
			z M214.7,76.9l2.3-0.5c0.2,0.9,0.4,1.9,0.6,2.9c0.2,1,0.4,2,0.6,3.1c0.2,1,0.3,2,0.5,2.9s0.2,1.7,0.3,2.4l-2.5,0.7
			c-0.1-0.7-0.1-1.5-0.2-2.4c-0.1-0.9-0.2-1.9-0.4-2.9c-0.2-1-0.3-2.1-0.5-3.1C215.1,78.8,214.9,77.8,214.7,76.9z M218.3,68.2
			l2.4-0.6c0.3,0.7,0.5,1.4,0.8,2.2s0.5,1.4,0.6,2l-2.5,0.7c-0.1-0.6-0.3-1.3-0.5-2.1S218.5,68.9,218.3,68.2z M223.8,76.3l2.7,0.4
			c-0.2,1.1-0.4,2.3-0.6,3.5c-0.2,1.2-0.5,2.4-0.8,3.7c-0.3,1.2-0.5,2.4-0.8,3.5c-0.3,1.1-0.5,2.1-0.8,3l-2.2-0.5
			c0.3-0.9,0.5-1.9,0.8-3c0.3-1.1,0.5-2.3,0.7-3.5c0.2-1.2,0.4-2.4,0.6-3.6S223.7,77.3,223.8,76.3z"/>
		<path class="st0" d="M233.4,74c1,0,2.1-0.1,3.4-0.1c1.3-0.1,2.6-0.1,4-0.2c1.4-0.1,2.8-0.2,4.2-0.2v2.3c-2,0.1-4.1,0.3-6,0.4
			s-3.8,0.2-5.3,0.3L233.4,74z M241.2,71.7h2.4v2.8c0,1,0,2.2-0.1,3.4c-0.1,1.2-0.3,2.5-0.6,3.8c-0.3,1.3-0.7,2.6-1.4,3.9
			c-0.6,1.3-1.4,2.6-2.4,3.8c-1,1.2-2.3,2.4-3.8,3.5c-0.1-0.2-0.3-0.4-0.5-0.6c-0.2-0.2-0.4-0.4-0.7-0.6c-0.2-0.2-0.4-0.4-0.6-0.5
			c1.4-1,2.6-2.1,3.5-3.2c0.9-1.1,1.7-2.3,2.3-3.5c0.6-1.2,1-2.4,1.2-3.6c0.3-1.2,0.4-2.3,0.5-3.4c0.1-1.1,0.1-2.1,0.1-3.1V71.7z
			 M234.1,82.6c0.3-0.9,0.6-2,0.8-3.2s0.5-2.5,0.8-3.8c0.2-1.3,0.4-2.6,0.6-4c0.2-1.3,0.3-2.6,0.4-3.8l2.5,0.1
			c-0.1,1.2-0.3,2.6-0.5,3.9c-0.2,1.4-0.4,2.7-0.7,4.1c-0.3,1.4-0.5,2.7-0.8,3.9c-0.3,1.2-0.5,2.4-0.8,3.3L234.1,82.6z M234.1,82.6
			l1.5-1.8c0.8,0.6,1.6,1.2,2.4,1.9c0.9,0.7,1.7,1.4,2.6,2.2c0.9,0.7,1.6,1.5,2.4,2.1s1.3,1.3,1.8,1.9l-1.7,2.1
			c-0.5-0.6-1.1-1.2-1.8-1.9c-0.7-0.7-1.5-1.5-2.3-2.2s-1.7-1.5-2.5-2.3C235.6,84,234.8,83.3,234.1,82.6z M244.1,79.2h14.4v2.4
			h-14.4V79.2z M245.3,69.7h10.6V72h-10.6V69.7z M250.2,76.3h2.6V90c0,0.7-0.1,1.2-0.3,1.6s-0.5,0.7-1,0.9c-0.5,0.2-1.1,0.3-1.8,0.4
			c-0.7,0-1.6,0.1-2.7,0.1c-0.1-0.4-0.2-0.8-0.4-1.2c-0.2-0.5-0.4-0.9-0.5-1.2c0.5,0,1,0,1.4,0c0.5,0,0.9,0,1.2,0s0.6,0,0.7,0
			c0.2,0,0.4-0.1,0.5-0.1c0.1-0.1,0.1-0.2,0.1-0.4V76.3z M254.9,69.7h0.7l0.6-0.1l1.8,1.2c-0.5,0.8-1.1,1.6-1.8,2.5
			c-0.7,0.8-1.4,1.7-2.1,2.4c-0.8,0.8-1.5,1.4-2.3,2c-0.2-0.2-0.4-0.5-0.7-0.8c-0.3-0.3-0.6-0.5-0.8-0.7c0.6-0.5,1.2-1.1,1.8-1.8
			c0.6-0.7,1.2-1.4,1.7-2.2c0.5-0.7,0.9-1.4,1.2-2V69.7z"/>
		<path class="st0" d="M270.8,67.9h2.6c0,0.5-0.1,1.2-0.1,2.1c-0.1,0.9-0.1,1.9-0.3,3.1c-0.1,1.2-0.3,2.4-0.6,3.7
			c-0.2,1.3-0.6,2.7-1,4c-0.4,1.4-0.9,2.8-1.5,4.1s-1.3,2.6-2.1,3.8c-0.8,1.2-1.8,2.3-2.9,3.3c-0.3-0.3-0.6-0.6-1-1
			c-0.4-0.3-0.8-0.6-1.2-0.8c1.1-0.9,2.1-1.9,2.9-3.1c0.8-1.1,1.5-2.3,2.1-3.6c0.6-1.3,1-2.6,1.4-3.9c0.4-1.3,0.7-2.6,0.9-3.8
			c0.2-1.2,0.4-2.4,0.5-3.5c0.1-1.1,0.2-2,0.2-2.8C270.7,68.9,270.8,68.3,270.8,67.9z M263.8,72.2h23.4v2.5h-23.4V72.2z M281.9,77.9
			h0.5l0.5-0.1l1.8,0.8c-0.6,2-1.3,3.8-2.3,5.4c-1,1.6-2.1,2.9-3.4,4.1c-1.3,1.2-2.7,2.1-4.3,2.9c-1.5,0.8-3.2,1.5-4.9,2
			c-0.2-0.3-0.4-0.7-0.7-1.1c-0.3-0.4-0.5-0.8-0.8-1c1.6-0.4,3.1-0.9,4.5-1.7c1.4-0.7,2.8-1.6,4-2.6c1.2-1,2.2-2.2,3.1-3.6
			c0.9-1.4,1.5-2.9,2-4.6V77.9z M272.6,79.1c1.2,3,3,5.5,5.5,7.5c2.5,1.9,5.8,3.3,9.7,4c-0.2,0.2-0.4,0.4-0.6,0.7
			c-0.2,0.3-0.4,0.6-0.6,0.9c-0.2,0.3-0.3,0.5-0.4,0.8c-2.7-0.6-5.1-1.4-7.1-2.6c-2-1.2-3.8-2.6-5.2-4.4c-1.4-1.7-2.6-3.8-3.5-6.1
			L272.6,79.1z M271.2,77.9h11v2.5h-11.7L271.2,77.9z"/>
		<path class="st0" d="M299.2,80.4h4.3v2.3h-4.3v6.1h-2.3v-6.1h-4.4v-2.3h4.4v-5.6h2.3V80.4z"/>
		<path class="st0" d="M308.5,89.1h24.4v2.6h-24.4V89.1z M318.5,68.3h2.7v22.2h-2.7V68.3z M319.9,76.3h11.2v2.6h-11.2V76.3z"/>
		<path class="st0" d="M343.5,68l2.4,0.7c-0.6,1.5-1.3,3.1-2.1,4.6c-0.8,1.5-1.6,2.9-2.6,4.3c-0.9,1.3-1.9,2.5-2.8,3.5
			c-0.1-0.2-0.2-0.5-0.4-0.8c-0.2-0.3-0.3-0.7-0.5-1c-0.2-0.3-0.4-0.6-0.5-0.8c0.9-0.9,1.7-1.9,2.5-3c0.8-1.1,1.5-2.3,2.2-3.6
			C342.4,70.6,343,69.3,343.5,68z M340.8,75.1l2.4-2.4l0,0v20.1h-2.4V75.1z M344.6,85.1h18.1v2h-18.1V85.1z M345.2,81.9
			c1.3,0,2.8,0,4.5-0.1c1.7,0,3.5,0,5.4-0.1c1.9,0,3.8-0.1,5.7-0.1l-0.1,1.8c-1.8,0.1-3.6,0.1-5.5,0.2c-1.8,0.1-3.6,0.1-5.2,0.1
			c-1.7,0-3.2,0.1-4.5,0.1L345.2,81.9z M345.3,69.9h17.1v1.9h-17.1V69.9z M346.4,73.1h15.1v7.3h-15.1V73.1z M347.3,88l1.9-1.2
			c0.6,0.5,1.2,1.1,1.9,1.8c0.7,0.7,1.2,1.3,1.5,1.8l-2,1.3c-0.3-0.5-0.8-1.1-1.4-1.8C348.5,89.1,347.9,88.5,347.3,88z M348.7,74.5
			V76H359v-1.5H348.7z M348.7,77.4v1.4H359v-1.4H348.7z M352.6,68.1h2.5v14.6l-2.5,0.2V68.1z M356.6,82.9h2.5v7.6
			c0,0.6-0.1,1.1-0.2,1.4c-0.2,0.3-0.5,0.6-0.9,0.8c-0.5,0.2-1,0.3-1.7,0.3c-0.7,0-1.6,0-2.6,0c-0.1-0.3-0.2-0.7-0.3-1.1
			c-0.1-0.4-0.3-0.8-0.5-1.1c0.5,0,1,0,1.4,0c0.4,0,0.8,0,1.2,0c0.3,0,0.6,0,0.7,0c0.2,0,0.4,0,0.4-0.1c0.1-0.1,0.1-0.2,0.1-0.3
			V82.9z M357.2,80.6l1.7-0.9c0.5,0.4,1,0.8,1.5,1.2c0.5,0.5,1,0.9,1.5,1.4c0.5,0.5,0.8,0.9,1.1,1.2l-1.8,1.1
			c-0.3-0.4-0.6-0.8-1-1.3c-0.4-0.5-0.9-0.9-1.4-1.4S357.7,81,357.2,80.6z"/>
		<path class="st0" d="M367.7,78.2c0-0.2-0.1-0.4-0.2-0.6c-0.1-0.3-0.2-0.5-0.3-0.8c-0.1-0.3-0.2-0.5-0.3-0.8
			c0.2-0.1,0.5-0.2,0.7-0.5c0.3-0.3,0.5-0.6,0.8-1c0.1-0.2,0.4-0.5,0.6-1c0.3-0.4,0.6-1,1-1.6c0.4-0.6,0.7-1.3,1-2
			c0.3-0.7,0.6-1.4,0.9-2.2l2.3,0.9c-0.7,1.5-1.5,3-2.4,4.4c-0.9,1.5-1.8,2.7-2.7,3.8V77c-0.3,0.2-0.6,0.3-0.8,0.4
			c-0.2,0.1-0.4,0.3-0.5,0.4C367.7,78,367.7,78.1,367.7,78.2z M368.2,85.5l2.1,0.3c-0.1,1.2-0.3,2.4-0.5,3.6
			c-0.2,1.2-0.5,2.3-0.8,3.1c-0.2-0.1-0.6-0.3-1-0.4c-0.4-0.1-0.8-0.2-1.1-0.3c0.3-0.8,0.6-1.8,0.8-3S368,86.6,368.2,85.5z
			 M367.9,84.4c0-0.2-0.1-0.4-0.2-0.7c-0.1-0.3-0.2-0.6-0.3-0.9c-0.1-0.3-0.2-0.6-0.3-0.8c0.3-0.1,0.6-0.2,1-0.5
			c0.3-0.3,0.7-0.7,1.1-1.2c0.2-0.2,0.6-0.6,1-1.2c0.4-0.6,0.9-1.2,1.4-2s1.1-1.6,1.6-2.5c0.5-0.9,1-1.8,1.5-2.7l2.1,1.3
			c-0.7,1.2-1.4,2.4-2.3,3.6c-0.8,1.2-1.7,2.3-2.5,3.4c-0.9,1.1-1.8,2-2.6,2.9v0.1c-0.3,0.2-0.6,0.3-0.8,0.4
			c-0.2,0.1-0.4,0.3-0.5,0.4C367.9,84.2,367.9,84.3,367.9,84.4z M367.7,78.2l-0.1-1.8l1.1-0.7l4.8-0.4c-0.1,0.3-0.1,0.7-0.1,1.1
			c0,0.4-0.1,0.7-0.1,0.9c-1.1,0.1-2,0.2-2.6,0.3s-1.2,0.2-1.6,0.2c-0.4,0.1-0.7,0.1-0.9,0.2C368,78.1,367.8,78.2,367.7,78.2z
			 M367.9,84.4l-0.1-1.9l1.1-0.8l7.3-0.9c-0.1,0.3-0.1,0.7-0.1,1.1c0,0.4,0,0.7,0,1c-1.7,0.3-3,0.5-4,0.6c-1,0.2-1.8,0.3-2.3,0.4
			c-0.6,0.1-1,0.2-1.2,0.3C368.2,84.3,368,84.3,367.9,84.4z M371.2,85.7l1.9-0.4c0.2,1,0.4,2,0.5,3.2c0.1,1.1,0.2,2.1,0.3,3l-2,0.4
			c0-0.6-0.1-1.2-0.1-1.9c-0.1-0.7-0.1-1.4-0.2-2.2C371.5,87.1,371.4,86.4,371.2,85.7z M373.9,78.7l1.9-0.6c0.3,0.6,0.5,1.2,0.7,1.9
			c0.2,0.7,0.4,1.4,0.6,2s0.3,1.2,0.4,1.7l-2,0.7c-0.1-0.5-0.2-1.1-0.4-1.8c-0.2-0.7-0.4-1.4-0.6-2.1
			C374.3,80,374.1,79.3,373.9,78.7z M374.1,85.2l1.7-0.5c0.3,0.8,0.6,1.7,0.9,2.7c0.3,1,0.5,1.8,0.6,2.6l-1.8,0.6
			c-0.1-0.7-0.3-1.6-0.6-2.6C374.6,87,374.4,86,374.1,85.2z M377.4,71.4h14.4v2.4h-14.4V71.4z M378.1,77.5h13v2.4h-13V77.5z
			 M378.7,82.3h11.7v10.5h-2.5v-8.2h-6.8v8.3h-2.4V82.3z M380.1,89.5h9.1v2.3h-9.1V89.5z M383.1,67.9h2.6v10.9h-2.6V67.9z"/>
		<path class="st0" d="M406.9,83.2l2.1,0.9c-0.8,1.1-1.8,2.2-3,3.2s-2.5,1.9-3.8,2.8c-1.4,0.8-2.7,1.5-4.1,2
			c-0.1-0.2-0.3-0.5-0.5-0.7c-0.2-0.3-0.4-0.5-0.6-0.8c-0.2-0.3-0.4-0.5-0.6-0.6c1-0.3,2-0.7,3-1.2c1-0.5,2-1,2.9-1.6
			c0.9-0.6,1.8-1.2,2.6-1.9C405.7,84.6,406.3,83.9,406.9,83.2z M397.1,82.2H421v2.3h-23.9V82.2z M399.7,69.1h18.8v11h-18.8V69.1z
			 M402.4,71.3v2.3h13.4v-2.3H402.4z M402.4,75.7V78h13.4v-2.3H402.4z M407.7,70h2.7v22.9h-2.7V70z M411,83.1c0.6,0.7,1.3,1.4,2.1,2
			c0.8,0.7,1.7,1.3,2.6,1.9c1,0.6,1.9,1.1,3,1.6c1,0.5,2,0.9,3,1.2c-0.2,0.2-0.4,0.4-0.6,0.6c-0.2,0.3-0.4,0.5-0.6,0.8
			c-0.2,0.3-0.4,0.5-0.5,0.7c-1-0.4-2-0.9-3-1.4c-1-0.6-2-1.2-3-1.9c-1-0.7-1.9-1.4-2.7-2.2c-0.9-0.8-1.6-1.6-2.3-2.4L411,83.1z"/>
		<path class="st0" d="M427,68.9h22.9v24h-2.5V71h-18v21.9H427V68.9z M428.6,89.8h20.1v2.1h-20.1V89.8z M430.5,77.4h15.9v1.5h-15.9
			V77.4z M432.1,79.9h12.6v8.6h-12.6V79.9z M433,72.1h10.8v4.3H433V72.1z M434.1,81.4v5.6h8.5v-5.6H434.1z M435.1,73.5V75h6.6v-1.5
			H435.1z M435.5,82.4h5.6v3.6h-5.6V82.4z M437,83.6v1.3h2.6v-1.3H437z M437.3,75.4h2.2v2.6h-2.2V75.4z"/>
		<path class="st0" d="M131.5,125.2l2.1,0.4c-0.3,1.3-0.7,2.5-1.1,3.8c-0.5,1.2-1,2.3-1.6,3.1c-0.1-0.1-0.3-0.2-0.5-0.4
			c-0.2-0.2-0.4-0.3-0.7-0.5c-0.2-0.2-0.4-0.3-0.6-0.4c0.6-0.8,1-1.7,1.4-2.8C131,127.4,131.3,126.3,131.5,125.2z M129.4,113.1h12.4
			v2.2h-12.4V113.1z M130.7,117.2h10v6.9h-10V117.2z M134.7,123.4h2.3v8.9c0,0.5-0.1,0.9-0.2,1.3c-0.1,0.3-0.4,0.6-0.7,0.8
			c-0.4,0.2-0.8,0.3-1.3,0.3c-0.5,0-1.1,0.1-1.8,0.1c0-0.3-0.1-0.7-0.3-1.1c-0.1-0.4-0.3-0.8-0.5-1.1c0.5,0,0.9,0,1.3,0
			c0.4,0,0.7,0,0.8,0c0.2,0,0.4-0.1,0.4-0.4V123.4z M133,119.2v2.8h5.4v-2.8H133z M133.8,110.3l2.3-0.5c0.3,0.6,0.6,1.2,0.9,1.9
			c0.3,0.7,0.5,1.3,0.6,1.8l-2.5,0.6c-0.1-0.5-0.3-1.1-0.6-1.8C134.3,111.6,134,110.9,133.8,110.3z M137.8,125.7l1.8-0.8
			c0.4,0.7,0.8,1.6,1.2,2.5c0.4,0.9,0.7,1.7,0.8,2.3l-1.9,0.9c-0.1-0.7-0.4-1.5-0.7-2.4C138.6,127.3,138.2,126.4,137.8,125.7z
			 M145.7,109.9h2.4c0,1.7-0.1,3.5-0.1,5.3c-0.1,1.8-0.2,3.7-0.4,5.5c-0.2,1.8-0.5,3.6-1,5.3c-0.5,1.7-1.1,3.3-1.9,4.8
			c-0.8,1.5-1.8,2.8-3.1,4c-0.2-0.3-0.5-0.6-0.8-0.9c-0.3-0.3-0.7-0.5-1-0.7c1.2-1.1,2.2-2.3,2.9-3.7c0.7-1.4,1.3-2.9,1.7-4.5
			c0.4-1.6,0.7-3.3,0.9-5c0.2-1.7,0.3-3.5,0.3-5.2C145.7,113.2,145.7,111.6,145.7,109.9z M142.1,116.8h11.9v2.3h-11.9V116.8z
			 M147.4,121h2.2v10.4c0,0.3,0,0.5,0,0.6c0,0.2,0.1,0.3,0.1,0.3c0.1,0.1,0.2,0.1,0.3,0.1c0.1,0,0.2,0,0.3,0c0.1,0,0.3,0,0.4,0
			s0.4,0,0.5,0c0.1,0,0.3,0,0.4,0c0.1,0,0.2,0,0.3-0.1c0.2-0.1,0.3-0.3,0.4-0.8c0-0.2,0.1-0.6,0.1-1.1c0-0.5,0-1.1,0-1.8
			c0.2,0.2,0.5,0.4,0.9,0.6c0.4,0.2,0.7,0.4,1.1,0.5c0,0.6-0.1,1.3-0.1,1.9c-0.1,0.6-0.1,1.1-0.2,1.4c-0.2,0.6-0.5,0.9-1,1.2
			c-0.2,0.1-0.4,0.2-0.7,0.2c-0.3,0-0.6,0.1-0.8,0.1c-0.1,0-0.3,0-0.5,0c-0.2,0-0.4,0-0.7,0c-0.2,0-0.4,0-0.5,0
			c-0.3,0-0.6,0-0.9-0.1c-0.3-0.1-0.6-0.2-0.8-0.4c-0.2-0.2-0.4-0.5-0.5-0.8c-0.1-0.3-0.2-1-0.2-1.9V121z M148.7,112l1.7-1
			c0.5,0.6,1.1,1.3,1.6,2c0.5,0.8,0.9,1.4,1.2,2l-1.8,1.1c-0.1-0.4-0.4-0.8-0.7-1.3c-0.3-0.5-0.6-1-1-1.5
			C149.5,112.8,149.1,112.4,148.7,112z"/>
		<path class="st0" d="M160.2,119.5h2.4v6.4c0,0.9-0.1,1.9-0.2,3c-0.1,1.1-0.3,2.2-0.6,3.2c-0.3,1.1-0.8,2-1.4,2.8
			c-0.1-0.2-0.3-0.4-0.5-0.6c-0.2-0.2-0.4-0.4-0.7-0.7c-0.2-0.2-0.4-0.4-0.6-0.5c0.5-0.7,0.9-1.5,1.1-2.3c0.2-0.8,0.4-1.7,0.4-2.6
			c0.1-0.9,0.1-1.7,0.1-2.5V119.5z M160,118.2c-0.1-0.2-0.1-0.4-0.2-0.7c-0.1-0.3-0.2-0.6-0.3-0.9c-0.1-0.3-0.2-0.6-0.3-0.8
			c0.2-0.1,0.4-0.2,0.7-0.4c0.2-0.2,0.5-0.4,0.8-0.7c0.2-0.2,0.5-0.5,0.9-1c0.4-0.5,0.8-1.1,1.3-1.8c0.5-0.7,0.9-1.4,1.2-2.1
			l2.6,0.8c-0.5,0.8-1,1.6-1.6,2.3c-0.6,0.8-1.2,1.5-1.8,2.2c-0.6,0.7-1.2,1.3-1.7,1.8v0.1c-0.3,0.2-0.6,0.3-0.8,0.4
			c-0.2,0.1-0.4,0.3-0.5,0.4C160,118,160,118.1,160,118.2z M160,118.2l-0.1-1.9l1.3-0.8l8.4-0.6c0.1,0.3,0.1,0.7,0.2,1.1
			c0.1,0.4,0.2,0.7,0.3,1c-2.1,0.2-3.7,0.3-5,0.5c-1.3,0.1-2.2,0.2-2.9,0.3c-0.7,0.1-1.2,0.2-1.5,0.2
			C160.4,118.1,160.1,118.1,160,118.2z M161.4,119.5h7.5v2.2h-7.5V119.5z M162.2,129.5c0.8-0.4,1.7-0.8,2.8-1.3
			c1.1-0.5,2.2-1.1,3.3-1.7l0.5,1.6c-1,0.6-2,1.3-3,1.9c-1,0.6-1.9,1.2-2.8,1.8L162.2,129.5z M162.6,124.1l1.3-1.2
			c0.4,0.3,0.9,0.6,1.4,0.9c0.5,0.3,1,0.7,1.4,1c0.4,0.3,0.8,0.6,1.1,0.9l-1.3,1.4c-0.3-0.3-0.6-0.6-1.1-0.9c-0.4-0.3-0.9-0.7-1.4-1
			C163.5,124.7,163,124.4,162.6,124.1z M167.6,119.5h2.4v12.9c0,0.6-0.1,1-0.2,1.4c-0.1,0.3-0.4,0.6-0.8,0.8
			c-0.4,0.2-0.9,0.3-1.5,0.3c-0.6,0-1.3,0.1-2.1,0.1c-0.1-0.3-0.2-0.7-0.3-1c-0.2-0.4-0.3-0.7-0.5-1c0.6,0,1.1,0,1.6,0
			c0.5,0,0.8,0,1,0c0.2,0,0.3,0,0.4-0.1c0.1-0.1,0.1-0.2,0.1-0.3V119.5z M166.3,112.6l2.1-0.8c0.4,0.6,0.8,1.3,1.3,2.1
			c0.4,0.7,0.8,1.5,1.2,2.2c0.4,0.7,0.7,1.3,0.9,1.9l-2.2,0.9c-0.2-0.6-0.5-1.2-0.8-1.9c-0.4-0.7-0.8-1.5-1.2-2.2
			C167.2,114,166.7,113.3,166.3,112.6z M172.3,109.9h2.5v8.2c0,0.5,0.1,0.9,0.2,1.1c0.1,0.2,0.4,0.3,0.9,0.3c0.2,0,0.5,0,0.9,0
			c0.4,0,0.9,0,1.3,0c0.5,0,0.9,0,1.4,0c0.4,0,0.7,0,0.9,0c0.4,0,0.8,0,1.3-0.1c0.5,0,0.9-0.1,1.1-0.1c0,0.3,0.1,0.7,0.1,1.1
			c0,0.4,0.1,0.8,0.1,1.1c-0.3,0.1-0.6,0.1-1.1,0.1c-0.5,0-1,0-1.4,0c-0.2,0-0.4,0-0.7,0c-0.3,0-0.7,0-1.1,0c-0.4,0-0.8,0-1.2,0
			c-0.4,0-0.7,0-1,0c-0.3,0-0.5,0-0.6,0c-0.9,0-1.6-0.1-2.1-0.4c-0.5-0.2-0.9-0.6-1.1-1.1c-0.2-0.5-0.3-1.2-0.3-2.1V109.9z
			 M172.3,122.5h2.5v8.9c0,0.5,0.1,0.7,0.3,0.9c0.2,0.1,0.6,0.2,1.2,0.2c0.1,0,0.4,0,0.7,0c0.3,0,0.7,0,1.1,0c0.4,0,0.8,0,1.2,0
			c0.4,0,0.6,0,0.8,0c0.4,0,0.6-0.1,0.8-0.2c0.2-0.2,0.3-0.5,0.4-0.9c0.1-0.5,0.1-1.2,0.2-2.1c0.3,0.2,0.7,0.4,1.1,0.5
			c0.4,0.2,0.8,0.3,1.2,0.4c-0.1,1.2-0.2,2.1-0.5,2.8c-0.2,0.7-0.6,1.1-1,1.4c-0.5,0.3-1.1,0.4-1.9,0.4c-0.1,0-0.3,0-0.6,0
			c-0.3,0-0.6,0-1,0c-0.4,0-0.8,0-1.1,0c-0.4,0-0.7,0-1,0c-0.3,0-0.5,0-0.6,0c-1,0-1.7-0.1-2.2-0.3c-0.5-0.2-0.9-0.5-1.1-1
			c-0.2-0.5-0.3-1.1-0.3-2V122.5z M173.9,113.4h8v2.2h-8V113.4z M173.9,125.5h8.3v2.3h-8.3V125.5z"/>
		<path class="st0" d="M187.6,124c1.2-0.3,2.6-0.7,4.2-1.1c1.6-0.4,3.3-0.9,5-1.4l0.3,2.3c-1.5,0.4-3.1,0.9-4.6,1.4
			c-1.5,0.5-3,0.9-4.2,1.2L187.6,124z M188,115.2h8.8v2.4H188V115.2z M191.5,109.9h2.5v22.3c0,0.6-0.1,1.2-0.2,1.5
			c-0.1,0.4-0.4,0.6-0.8,0.8c-0.4,0.2-0.9,0.3-1.5,0.4c-0.6,0.1-1.4,0.1-2.3,0.1c0-0.3-0.1-0.7-0.3-1.1c-0.2-0.4-0.3-0.8-0.4-1.2
			c0.6,0,1.1,0,1.6,0c0.5,0,0.8,0,1,0c0.2,0,0.3,0,0.4-0.1c0.1-0.1,0.1-0.2,0.1-0.4V109.9z M197.6,116h14.8v18.7h-2.5v-16.3H200
			v16.4h-2.4V116z M199.1,123.1h11.5v2.4h-11.5V123.1z M199.2,130.5h11.5v2.5h-11.5V130.5z M203.7,109.9h2.4V132h-2.4V109.9z"/>
		<path class="st0" d="M228.4,109.9h2.8c0,1.3,0,2.7-0.1,4.1c-0.1,1.5-0.2,3-0.4,4.5c-0.2,1.5-0.6,3.1-1.1,4.6c-0.5,1.5-1.2,3-2,4.5
			c-0.9,1.4-2,2.8-3.3,4c-1.4,1.2-3,2.3-4.9,3.2c-0.2-0.3-0.5-0.7-0.9-1.1c-0.4-0.4-0.7-0.7-1.1-1c1.9-0.8,3.5-1.8,4.7-3
			c1.3-1.1,2.3-2.3,3.1-3.7c0.8-1.3,1.4-2.7,1.8-4.1c0.4-1.4,0.7-2.8,0.9-4.3c0.2-1.4,0.3-2.8,0.3-4.1
			C228.4,112.3,228.4,111,228.4,109.9z M217.9,117.4h23.9v2.6h-23.9V117.4z M231.4,118.5c0.6,2.1,1.4,4.1,2.3,5.9
			c1,1.8,2.2,3.4,3.6,4.8c1.4,1.4,3.1,2.5,5,3.3c-0.2,0.2-0.4,0.4-0.7,0.7c-0.2,0.3-0.5,0.6-0.7,0.9c-0.2,0.3-0.4,0.6-0.5,0.8
			c-2-0.9-3.7-2.2-5.2-3.7c-1.5-1.5-2.7-3.3-3.8-5.4c-1-2-1.9-4.3-2.6-6.7L231.4,118.5z"/>
		<path class="st0" d="M257.9,124.5h2.5v1.8c0,0.6-0.1,1.2-0.3,1.8c-0.2,0.7-0.5,1.3-1,2c-0.5,0.7-1.2,1.3-2.1,1.9
			c-0.9,0.6-2.1,1.2-3.6,1.7c-1.5,0.5-3.3,0.9-5.5,1.3c-0.1-0.3-0.4-0.6-0.6-1c-0.3-0.4-0.6-0.7-0.8-1c2-0.3,3.7-0.7,5-1.1
			c1.3-0.4,2.4-0.9,3.2-1.4c0.8-0.5,1.5-1,1.9-1.5c0.4-0.5,0.7-1,0.9-1.5c0.1-0.5,0.2-0.9,0.2-1.4V124.5z M248.7,118.9h2.3v1.4
			c0,0.4-0.1,1-0.2,1.7c-0.1,0.7-0.3,1.3-0.7,2c-0.3,0.7-0.8,1.3-1.4,1.8c-0.1-0.1-0.3-0.2-0.6-0.4c-0.2-0.1-0.5-0.3-0.7-0.4
			c-0.2-0.1-0.5-0.2-0.7-0.3c0.6-0.4,1-0.9,1.2-1.5s0.4-1.1,0.5-1.6c0.1-0.5,0.1-1,0.1-1.3V118.9z M246.9,127.1h24.9v2.1h-24.9
			V127.1z M247,118.1h7.3v2H247V118.1z M248.2,110.5h2.2v3.7h3.9v2h-6V110.5z M252.9,110h2.3v15.4h-2.3V110z M268.4,111.3h0.4
			l0.4-0.1l1.4,0.7c-0.6,1.1-1.4,2-2.3,2.7c-0.9,0.8-2,1.4-3.2,1.9c-1.2,0.5-2.4,0.9-3.8,1.3c-1.3,0.3-2.7,0.6-4.2,0.8
			c-0.1-0.2-0.3-0.5-0.5-0.8c-0.2-0.3-0.4-0.5-0.6-0.7c1.3-0.1,2.6-0.4,3.8-0.6c1.3-0.3,2.4-0.7,3.5-1.1c1.1-0.4,2.1-1,2.9-1.6
			c0.8-0.6,1.5-1.4,2-2.2V111.3z M256.2,118.5h15.2v1.8h-15.2V118.5z M263.4,109.8l2.2,0.5c-1,0.8-2.1,1.6-3.4,2.2s-2.9,1.2-4.7,1.7
			c-0.1-0.2-0.3-0.5-0.6-0.8c-0.3-0.3-0.5-0.5-0.7-0.7c1.6-0.4,3.1-0.8,4.3-1.4C261.8,110.9,262.7,110.4,263.4,109.8z M256.9,114.7
			c0.6,0,1.3-0.1,2-0.1s1.5-0.1,2.4-0.2l0.1,1.3c-0.8,0.1-1.5,0.1-2.2,0.2c-0.7,0.1-1.4,0.1-2.1,0.2L256.9,114.7z M258,121.1
			l1.6-1.2c0.5,0.3,1.1,0.7,1.6,1.1c0.6,0.4,1,0.9,1.3,1.3l-1.7,1.3c-0.3-0.4-0.7-0.8-1.2-1.3C259.1,121.9,258.6,121.5,258,121.1z
			 M260,130.5l1.1-1.7c0.8,0.3,1.8,0.6,2.7,1c1,0.4,2,0.7,2.9,1.1c1,0.4,1.9,0.7,2.8,1.1c0.9,0.4,1.6,0.7,2.3,1l-1.2,2
			c-0.6-0.3-1.3-0.6-2.2-1c-0.9-0.4-1.8-0.8-2.8-1.2c-1-0.4-2-0.8-3-1.2C261.8,131.2,260.9,130.8,260,130.5z M260.4,112.8l1.6-0.6
			c0.6,0.5,1.3,1,2,1.6c0.7,0.6,1.2,1.2,1.5,1.7l-1.7,0.6c-0.3-0.5-0.8-1-1.4-1.7C261.8,113.8,261.1,113.3,260.4,112.8z
			 M262.6,111.3h6.5v1.5h-8.4L262.6,111.3z M265.7,116.6h2.4v5.9c0,0.5-0.1,0.9-0.2,1.2c-0.1,0.3-0.4,0.5-0.8,0.7
			c-0.4,0.1-0.9,0.2-1.5,0.3c-0.6,0-1.3,0-2.1,0c-0.1-0.3-0.1-0.6-0.3-1c-0.1-0.4-0.3-0.7-0.4-0.9c0.6,0,1.1,0,1.5,0s0.8,0,0.9,0
			c0.2,0,0.3-0.1,0.4-0.1c0.1-0.1,0.1-0.1,0.1-0.3V116.6z M263.6,125.5l1.2-1.1c0.5,0.3,1,0.7,1.5,1.1c0.5,0.4,0.9,0.7,1.2,1.1
			l-1.3,1.3c-0.3-0.3-0.7-0.7-1.2-1.1C264.5,126.2,264,125.8,263.6,125.5z"/>
		<path class="st0" d="M281.9,132.9c-0.6,0-1.1-0.2-1.4-0.6c-0.4-0.4-0.6-0.9-0.6-1.5s0.2-1.1,0.6-1.5c0.4-0.4,0.9-0.6,1.4-0.6
			c0.6,0,1,0.2,1.4,0.6c0.4,0.4,0.6,0.9,0.6,1.5s-0.2,1.1-0.6,1.5C283,132.7,282.5,132.9,281.9,132.9z M280.8,126l-0.6-9.9l-0.1-3.6
			h3.6l-0.1,3.6L283,126H280.8z"/>
	</g>
	<g>
		<g>
			<path class="st0" d="M636.4,23.8V3.9h3.1v19.9H636.4z"/>
			<path class="st0" d="M655.3,24.1c-1.8,0-3.3-0.4-4.7-1.2c-1.4-0.8-2.5-2-3.3-3.5c-0.8-1.5-1.2-3.4-1.2-5.6c0-1.6,0.2-3.1,0.7-4.3
				c0.5-1.3,1.1-2.4,2-3.3c0.8-0.9,1.8-1.6,2.9-2c1.1-0.5,2.4-0.7,3.7-0.7c1.4,0,2.6,0.3,3.6,0.8c1,0.5,1.7,1.1,2.3,1.7l-1.7,2
				c-0.5-0.5-1.1-0.9-1.7-1.3s-1.4-0.5-2.4-0.5c-1.2,0-2.3,0.3-3.2,0.9c-0.9,0.6-1.6,1.5-2.2,2.6c-0.5,1.1-0.8,2.5-0.8,4
				c0,1.6,0.2,2.9,0.7,4.1c0.5,1.1,1.2,2,2.1,2.6c0.9,0.6,2.1,0.9,3.5,0.9c0.6,0,1.2-0.1,1.7-0.3c0.5-0.2,1-0.4,1.3-0.7v-4.6h-3.9
				v-2.6h6.8v8.6c-0.7,0.7-1.5,1.2-2.6,1.7C657.8,23.9,656.6,24.1,655.3,24.1z"/>
			<path class="st0" d="M666.9,10.6l1.4-1.9c0.5,0.2,1.1,0.5,1.7,0.9c0.6,0.3,1.2,0.7,1.8,1c0.6,0.3,1.1,0.6,1.5,0.9l-1.4,2.1
				c-0.4-0.3-0.8-0.6-1.4-0.9c-0.6-0.3-1.2-0.7-1.8-1.1C668.1,11.2,667.5,10.9,666.9,10.6z M667.5,24c0.5-0.7,1-1.5,1.6-2.5
				c0.6-1,1.2-2,1.8-3c0.6-1.1,1.2-2.1,1.7-3.1l1.9,1.7c-0.5,0.9-1,1.9-1.5,2.9c-0.5,1-1.1,2-1.7,3c-0.6,1-1.1,1.9-1.7,2.8L667.5,24
				z M668.2,3.1l1.5-1.8c0.5,0.2,1.1,0.5,1.7,0.9c0.6,0.3,1.3,0.7,1.8,1c0.6,0.3,1.1,0.6,1.5,0.9l-1.5,2.1c-0.4-0.3-0.9-0.6-1.4-0.9
				c-0.6-0.4-1.2-0.7-1.8-1.1C669.4,3.7,668.8,3.4,668.2,3.1z M674.6,8.9h17.2v2.5h-17.2V8.9z M688.8,1l2,2
				c-1.3,0.5-2.7,0.9-4.3,1.2s-3.2,0.6-5,0.9c-1.7,0.2-3.4,0.4-4.9,0.6c-0.1-0.3-0.2-0.7-0.3-1.1c-0.2-0.4-0.3-0.8-0.4-1.1
				c1.2-0.1,2.4-0.3,3.6-0.4c1.2-0.2,2.4-0.4,3.5-0.6c1.2-0.2,2.2-0.4,3.2-0.7S688,1.3,688.8,1z M676.5,15.3h13.8v10.6h-2.4v-8.2h-9
				V26h-2.3V15.3z M678.1,22.5h10.7v2.3h-10.7V22.5z M682.2,3.7h2.4v13h-2.4V3.7z"/>
			<path class="st0" d="M696.3,22.9c1.1-0.1,2.4-0.2,3.8-0.3c1.4-0.1,3-0.3,4.6-0.4c1.6-0.2,3.2-0.3,4.8-0.4l0,1.9
				c-1.5,0.2-3.1,0.4-4.6,0.5c-1.6,0.2-3,0.3-4.5,0.5c-1.4,0.2-2.7,0.3-3.9,0.4L696.3,22.9z M696.4,5.6h13.5v1.9h-13.5V5.6z
				 M708.3,1.2l1.2,1.9c-1.1,0.2-2.3,0.4-3.7,0.6c-1.4,0.2-2.8,0.3-4.3,0.4c-1.5,0.1-2.9,0.2-4.3,0.2c0-0.3-0.1-0.6-0.2-0.9
				c-0.1-0.4-0.2-0.7-0.4-0.9c1-0.1,2-0.1,3.1-0.2c1.1-0.1,2.1-0.2,3.2-0.3c1-0.1,2-0.2,3-0.4C706.7,1.5,707.6,1.4,708.3,1.2z
				 M697,18.5h12.4v1.9H697V18.5z M697.1,8.9h12.3v8.2h-12.3V8.9z M699.2,10.6v1.6h8v-1.6H699.2z M699.2,13.8v1.6h8v-1.6H699.2z
				 M702,3.4h2.3V23H702V3.4z M712.7,1.4h2.5c0,2.2,0,4.3-0.1,6.4c0,2-0.2,4-0.4,5.8s-0.5,3.5-1,5.1s-1.1,3-1.9,4.3
				c-0.8,1.3-1.8,2.4-3.1,3.4c-0.1-0.2-0.3-0.4-0.5-0.7c-0.2-0.2-0.4-0.5-0.7-0.7c-0.2-0.2-0.5-0.4-0.7-0.5c1.2-0.9,2.2-1.9,2.9-3.1
				c0.7-1.2,1.3-2.5,1.7-3.9c0.4-1.4,0.7-3,0.8-4.7c0.2-1.7,0.2-3.5,0.3-5.4C712.7,5.5,712.7,3.5,712.7,1.4z M709.8,7.2h9.6v2.4
				h-9.6V7.2z M718.3,7.2h2.5c0,0.3,0,0.6,0,0.8c0,0.2,0,0.3,0,0.5c-0.1,2.8-0.1,5.2-0.2,7.1c-0.1,2-0.2,3.6-0.3,4.8
				c-0.1,1.2-0.2,2.2-0.4,2.9c-0.2,0.7-0.3,1.2-0.6,1.5c-0.3,0.4-0.6,0.7-0.9,0.8c-0.3,0.2-0.7,0.3-1.1,0.3
				c-0.4,0.1-0.9,0.1-1.5,0.1s-1.2,0-1.8-0.1c0-0.3-0.1-0.7-0.3-1.2s-0.3-0.9-0.5-1.2c0.6,0.1,1.2,0.1,1.7,0.1c0.5,0,0.9,0,1.2,0
				c0.2,0,0.4,0,0.5-0.1c0.1-0.1,0.3-0.2,0.4-0.4c0.2-0.2,0.3-0.6,0.4-1.2c0.1-0.6,0.2-1.5,0.3-2.7c0.1-1.2,0.2-2.7,0.2-4.6
				c0.1-1.9,0.1-4.1,0.2-6.8V7.2z"/>
			<path class="st0" d="M728.6,19.6l2.4,0.6c-0.4,1.1-0.9,2.2-1.5,3.2c-0.6,1.1-1.3,1.9-2,2.7c-0.1-0.1-0.3-0.3-0.6-0.5
				c-0.3-0.2-0.5-0.4-0.8-0.5c-0.3-0.2-0.5-0.3-0.7-0.4c0.7-0.6,1.3-1.4,1.8-2.3S728.3,20.6,728.6,19.6z M727,2h9v17.2h-9V2z
				 M729.3,4.1v3h4.3v-3H729.3z M729.3,9v3.1h4.3V9H729.3z M729.3,14v3.1h4.3V14H729.3z M732.2,20.5l2.1-0.9
				c0.5,0.7,1.1,1.4,1.6,2.2c0.5,0.8,0.9,1.5,1.1,2.1l-2.2,1.1c-0.2-0.6-0.6-1.3-1.1-2.2C733.3,21.9,732.7,21.2,732.2,20.5z
				 M737.7,14h11.9v11.9h-2.5v-9.7h-7V26h-2.4V14z M739,22.5h9.5v2.3H739V22.5z M742,1h2.5v14H742V1z M743.3,6.9h7.5v2.3h-7.5V6.9z"
				/>
			<path class="st0" d="M773.3,6.8l2.6,0.7c-1.1,3.3-2.6,6.1-4.3,8.5c-1.8,2.4-3.9,4.4-6.4,6c-2.5,1.6-5.4,2.9-8.7,4
				c-0.1-0.2-0.3-0.5-0.4-0.8c-0.2-0.3-0.4-0.6-0.6-0.9c-0.2-0.3-0.4-0.5-0.6-0.7c3.2-0.9,6-2,8.4-3.5c2.4-1.5,4.4-3.3,6-5.5
				C771.1,12.5,772.4,9.8,773.3,6.8z M755.5,5.6H780v2.5h-24.5V5.6z M761.9,7c1,2.7,2.3,5.2,4,7.4c1.7,2.2,3.8,4.1,6.2,5.6
				c2.4,1.5,5.2,2.7,8.3,3.5c-0.2,0.2-0.4,0.4-0.6,0.7c-0.2,0.3-0.4,0.6-0.6,0.9c-0.2,0.3-0.4,0.6-0.5,0.8c-3.3-0.9-6.1-2.2-8.6-3.9
				c-2.5-1.7-4.6-3.7-6.3-6.1c-1.7-2.4-3.2-5.1-4.3-8.2L761.9,7z M765.5,1.5l2.7-0.8c0.4,0.6,0.8,1.4,1.2,2.1c0.4,0.8,0.7,1.4,0.8,2
				l-2.8,0.9c-0.1-0.6-0.4-1.2-0.8-2C766.2,2.9,765.8,2.2,765.5,1.5z"/>
			<path class="st0" d="M785.1,2.9h24.1v2.6h-24.1V2.9z M795.2,5.1h2.7V26h-2.7V5.1z M796.7,11.6l1.7-2c0.8,0.4,1.6,0.8,2.5,1.3
				c0.9,0.5,1.7,1,2.6,1.5c0.9,0.5,1.7,1,2.4,1.5c0.8,0.5,1.4,0.9,1.9,1.4l-1.8,2.3c-0.5-0.4-1.1-0.9-1.8-1.4
				c-0.7-0.5-1.5-1-2.4-1.6c-0.9-0.5-1.7-1-2.6-1.6C798.3,12.5,797.5,12,796.7,11.6z"/>
			<path class="st0" d="M826.4,9.5c1.7,0,3,0.8,4,2.4l0.5-2.1h2.4l-2.1,9.8c-0.1,0.6-0.2,0.9-0.2,1.1c0,0.2,0.1,0.5,0.3,0.6
				c0.2,0.2,0.4,0.3,0.6,0.3c0.6,0,1.3-0.4,2.2-1.1s1.6-1.7,2.1-2.8s0.8-2.3,0.8-3.5c0-2.4-0.9-4.4-2.7-5.9s-4-2.4-6.7-2.4
				c-3.2,0-5.8,1.1-7.9,3.2c-2.1,2.1-3.1,4.9-3.1,8.2c0,3.2,1,5.7,3,7.4c2,1.8,4.8,2.6,8.4,2.6c2.1,0,4-0.4,5.6-1.1
				c0.6-0.3,1.2-0.6,1.9-1.1c0.6-0.4,1.2-1,1.8-1.8h2.4c-0.5,1.1-1.4,2.1-2.6,3c-1.2,1-2.6,1.7-4,2.1c-1.4,0.5-3.1,0.7-5,0.7
				c-4.1,0-7.4-1-9.8-3.1c-2.4-2.1-3.6-5-3.6-8.6c0-2.5,0.6-4.9,1.8-7.1s2.7-3.8,4.7-4.9c1.9-1.1,4.2-1.6,6.7-1.6c3.3,0,6,1,8.1,2.9
				c2.1,1.9,3.2,4.4,3.2,7.4c0,1.6-0.4,3.1-1.1,4.5c-0.8,1.5-1.8,2.6-3,3.5s-2.5,1.3-3.8,1.3c-0.9,0-1.5-0.2-1.9-0.5
				c-0.4-0.3-0.6-0.9-0.7-1.7c-0.6,0.7-1.2,1.2-1.9,1.6c-0.7,0.4-1.4,0.6-2.1,0.6c-1.4,0-2.5-0.6-3.4-1.7s-1.4-2.5-1.4-4.2
				c0-1.4,0.3-2.7,1-4c0.7-1.3,1.5-2.4,2.6-3.2C824.2,9.9,825.3,9.5,826.4,9.5z M822,18.1c0,1.1,0.3,2,0.8,2.7
				c0.5,0.7,1.2,1.1,2,1.1c1.2,0,2.3-0.7,3.3-2c1-1.4,1.5-2.9,1.5-4.6c0-1.1-0.3-2.1-0.8-2.8c-0.6-0.7-1.3-1-2.2-1
				c-1.2,0-2.2,0.7-3.2,2C822.4,14.8,822,16.4,822,18.1z"/>
			<path class="st0" d="M848.3,21.2h7v2.5h-11.7v-0.2l1.1-1.3c1.7-2.1,3.1-4,4.1-5.5c1-1.5,1.7-2.6,2-3.4c0.3-0.8,0.5-1.5,0.5-2.3
				c0-1-0.3-1.9-0.9-2.5c-0.6-0.6-1.4-0.9-2.3-0.9c-0.7,0-1.5,0.2-2.2,0.7c-0.7,0.4-1.4,1-1.9,1.8V6.9c1.4-1.2,2.9-1.8,4.4-1.8
				c1.6,0,2.9,0.5,4,1.6c1,1.1,1.6,2.4,1.6,4.1c0,0.7-0.1,1.5-0.4,2.4c-0.3,0.8-0.7,1.8-1.4,2.9c-0.7,1.1-1.8,2.6-3.4,4.5
				L848.3,21.2z"/>
			<path class="st0" d="M866.1,1.1l2.4,0.7c-0.6,1.5-1.3,3.1-2.1,4.6c-0.8,1.5-1.6,2.9-2.6,4.3c-0.9,1.3-1.9,2.5-2.8,3.5
				c-0.1-0.2-0.2-0.5-0.4-0.8c-0.2-0.3-0.3-0.7-0.5-1c-0.2-0.3-0.4-0.6-0.5-0.8c0.9-0.9,1.7-1.9,2.5-3c0.8-1.1,1.5-2.3,2.2-3.6
				C865,3.7,865.6,2.4,866.1,1.1z M863.3,8.2l2.6-2.5v0V26h-2.6V8.2z M867.5,22.5h17v2.5h-17V22.5z M868.5,5.7h14.9v2.5h-14.9V5.7z
				 M870.2,10l2.3-0.5c0.2,0.9,0.4,1.9,0.6,2.9c0.2,1,0.4,2,0.6,3.1c0.2,1,0.3,2,0.5,2.9s0.2,1.7,0.3,2.4l-2.5,0.7
				c-0.1-0.7-0.1-1.5-0.2-2.4c-0.1-0.9-0.2-1.9-0.4-2.9c-0.2-1-0.3-2.1-0.5-3.1C870.6,11.9,870.4,10.9,870.2,10z M873.8,1.3l2.4-0.6
				c0.3,0.7,0.5,1.4,0.8,2.2s0.5,1.4,0.6,2l-2.5,0.7c-0.1-0.6-0.3-1.3-0.5-2.1S874.1,2,873.8,1.3z M879.4,9.3l2.7,0.4
				c-0.2,1.1-0.4,2.3-0.6,3.5c-0.2,1.2-0.5,2.4-0.8,3.7c-0.3,1.2-0.5,2.4-0.8,3.5c-0.3,1.1-0.5,2.1-0.8,3l-2.2-0.5
				c0.3-0.9,0.5-1.9,0.8-3c0.3-1.1,0.5-2.3,0.7-3.5c0.2-1.2,0.4-2.4,0.6-3.6S879.3,10.4,879.4,9.3z"/>
			<path class="st0" d="M889,7c1,0,2.1-0.1,3.4-0.1c1.3-0.1,2.6-0.1,4-0.2s2.8-0.2,4.2-0.2v2.3c-2,0.1-4,0.3-6,0.4s-3.8,0.2-5.3,0.3
				L889,7z M896.7,4.8h2.4v2.8c0,1,0,2.2-0.1,3.4c-0.1,1.2-0.3,2.5-0.6,3.8s-0.7,2.6-1.4,3.9s-1.4,2.6-2.4,3.8s-2.3,2.4-3.8,3.5
				c-0.1-0.2-0.3-0.4-0.5-0.6c-0.2-0.2-0.4-0.4-0.7-0.6c-0.2-0.2-0.4-0.4-0.6-0.5c1.4-1,2.6-2.1,3.5-3.2c0.9-1.1,1.7-2.3,2.3-3.5
				c0.6-1.2,1-2.4,1.2-3.6c0.3-1.2,0.4-2.3,0.5-3.4c0.1-1.1,0.1-2.1,0.1-3.1V4.8z M889.6,15.7c0.3-0.9,0.6-2,0.8-3.2
				s0.5-2.5,0.8-3.8c0.2-1.3,0.4-2.6,0.6-4c0.2-1.3,0.3-2.6,0.4-3.8l2.5,0.1c-0.1,1.2-0.3,2.6-0.5,3.9c-0.2,1.4-0.4,2.7-0.7,4.1
				c-0.3,1.4-0.5,2.7-0.8,3.9c-0.3,1.2-0.5,2.4-0.8,3.3L889.6,15.7z M889.6,15.7l1.5-1.8c0.8,0.6,1.6,1.2,2.4,1.9
				c0.9,0.7,1.7,1.4,2.6,2.2c0.9,0.7,1.6,1.5,2.4,2.1c0.7,0.7,1.3,1.3,1.8,1.9l-1.7,2.1c-0.5-0.6-1.1-1.2-1.8-1.9
				c-0.7-0.7-1.5-1.5-2.3-2.2s-1.7-1.5-2.5-2.3C891.2,17.1,890.4,16.4,889.6,15.7z M899.7,12.3h14.4v2.4h-14.4V12.3z M900.9,2.8
				h10.6v2.3h-10.6V2.8z M905.7,9.4h2.6v13.7c0,0.7-0.1,1.2-0.3,1.6c-0.2,0.4-0.5,0.7-1,0.9c-0.5,0.2-1.1,0.3-1.8,0.4
				c-0.7,0-1.6,0.1-2.7,0.1c-0.1-0.4-0.2-0.8-0.4-1.2c-0.2-0.5-0.4-0.9-0.5-1.2c0.5,0,1,0,1.4,0c0.5,0,0.9,0,1.2,0s0.6,0,0.7,0
				c0.2,0,0.4-0.1,0.5-0.1c0.1-0.1,0.1-0.2,0.1-0.4V9.4z M910.5,2.8h0.7l0.6-0.1l1.8,1.2c-0.5,0.8-1.1,1.6-1.8,2.5
				c-0.7,0.8-1.4,1.7-2.1,2.4c-0.8,0.8-1.5,1.4-2.3,2c-0.2-0.2-0.4-0.5-0.7-0.8c-0.3-0.3-0.6-0.5-0.8-0.7c0.6-0.5,1.2-1.1,1.8-1.8
				c0.6-0.7,1.2-1.4,1.7-2.2c0.5-0.7,0.9-1.4,1.2-2V2.8z"/>
			<path class="st0" d="M926.3,0.9h2.6c0,0.5-0.1,1.2-0.1,2.1c-0.1,0.9-0.1,1.9-0.3,3.1c-0.1,1.2-0.3,2.4-0.6,3.7
				c-0.2,1.3-0.6,2.7-1,4c-0.4,1.4-0.9,2.7-1.5,4.1s-1.3,2.6-2.1,3.8c-0.8,1.2-1.8,2.3-2.9,3.3c-0.3-0.3-0.6-0.6-1-1
				c-0.4-0.3-0.8-0.6-1.2-0.8c1.1-0.9,2.1-1.9,2.9-3.1c0.8-1.1,1.5-2.3,2.1-3.6c0.6-1.3,1-2.6,1.4-3.9c0.4-1.3,0.7-2.6,0.9-3.8
				c0.2-1.2,0.4-2.4,0.5-3.5c0.1-1.1,0.2-2,0.2-2.8S926.3,1.4,926.3,0.9z M919.3,5.3h23.4v2.5h-23.4V5.3z M937.4,11h0.5l0.5-0.1
				l1.8,0.8c-0.6,2-1.3,3.8-2.3,5.4c-1,1.6-2.1,2.9-3.4,4.1c-1.3,1.2-2.7,2.1-4.3,2.9c-1.5,0.8-3.2,1.5-4.9,2
				c-0.2-0.3-0.4-0.7-0.7-1.1c-0.3-0.4-0.5-0.8-0.8-1c1.6-0.4,3.1-0.9,4.5-1.7c1.4-0.7,2.8-1.6,4-2.6c1.2-1,2.2-2.2,3.1-3.6
				s1.5-2.9,2-4.6V11z M928.2,12.2c1.2,3,3,5.5,5.5,7.5c2.5,1.9,5.8,3.3,9.7,4c-0.2,0.2-0.4,0.4-0.6,0.7c-0.2,0.3-0.4,0.6-0.6,0.9
				c-0.2,0.3-0.3,0.5-0.4,0.8c-2.7-0.6-5.1-1.4-7.1-2.6c-2-1.2-3.8-2.6-5.2-4.4c-1.4-1.7-2.6-3.8-3.5-6.1L928.2,12.2z M926.8,11h11
				v2.5H926L926.8,11z"/>
			<path class="st0" d="M951.5,19l-0.7-1.8c1.1-0.4,2-1,2.6-1.6c0.6-0.7,0.9-1.5,0.9-2.4l-0.4-2.5l1.5,2.2c-0.2,0.2-0.5,0.4-0.7,0.5
				c-0.3,0.1-0.5,0.1-0.8,0.1c-0.6,0-1.1-0.2-1.6-0.6c-0.4-0.4-0.7-0.9-0.7-1.6c0-0.7,0.2-1.2,0.7-1.6s1-0.6,1.6-0.6
				c0.8,0,1.5,0.3,1.9,0.9c0.4,0.6,0.7,1.4,0.7,2.5c0,1.5-0.4,2.8-1.3,3.9C954.2,17.7,953,18.5,951.5,19z"/>
			<path class="st0" d="M964.3,22.3h24.2v2.6h-24.2V22.3z M964.9,6.1h23v2.5h-23V6.1z M966.1,11.6l2.3-0.6c0.4,0.9,0.8,1.8,1.2,2.8
				c0.4,1,0.7,2,0.9,3c0.2,1,0.4,1.8,0.5,2.6l-2.5,0.6c-0.1-0.8-0.2-1.6-0.4-2.6c-0.2-1-0.5-2-0.9-3
				C966.9,13.4,966.5,12.4,966.1,11.6z M968.5,1.9l2.3-0.9c0.5,0.7,1.1,1.4,1.5,2.3s0.8,1.6,1.1,2.2l-2.4,1
				c-0.1-0.4-0.3-0.9-0.6-1.5c-0.3-0.5-0.6-1.1-0.9-1.6C969.2,2.9,968.8,2.4,968.5,1.9z M972.2,7.9h2.5v15.8h-2.5V7.9z M977.9,7.9
				h2.6v15.7h-2.6V7.9z M982,0.9l2.8,0.8c-0.5,0.9-1,1.8-1.6,2.7c-0.5,0.9-1.1,1.7-1.6,2.3l-2.3-0.8c0.3-0.4,0.6-1,1-1.5
				c0.3-0.6,0.7-1.2,1-1.8S981.8,1.4,982,0.9z M984.2,10.7l2.8,0.7c-0.3,1-0.7,2-1,3.1c-0.4,1.1-0.7,2.1-1.1,3s-0.7,1.8-1.1,2.6
				l-2.3-0.6c0.3-0.8,0.7-1.7,1-2.7c0.4-1,0.7-2,1-3.1C983.8,12.6,984,11.6,984.2,10.7z"/>
			<path class="st0" d="M995.6,13.3c-0.1-0.2-0.2-0.4-0.4-0.6s-0.3-0.5-0.5-0.7c-0.2-0.2-0.3-0.4-0.5-0.5c0.2-0.2,0.5-0.5,0.7-0.9
				s0.4-1,0.4-1.6V3.2h2.5v7.3c-0.3,0.3-0.6,0.5-0.8,0.7c-0.2,0.2-0.5,0.5-0.7,0.7c-0.2,0.3-0.4,0.5-0.6,0.7
				C995.6,12.9,995.6,13.1,995.6,13.3z M1003,0.9l1.6,1.9c-0.8,0.3-1.7,0.6-2.7,0.9c-1,0.3-2,0.5-3,0.8c-1,0.2-2,0.4-3,0.6
				c0-0.3-0.1-0.6-0.3-0.9c-0.1-0.4-0.3-0.7-0.4-0.9c0.9-0.2,1.8-0.4,2.8-0.7c0.9-0.2,1.8-0.5,2.7-0.8
				C1001.6,1.4,1002.4,1.2,1003,0.9z M995.6,13.3l-0.2-2.1l1.1-0.9l6.6-1.6c0.1,0.3,0.2,0.7,0.3,1.1c0.1,0.4,0.2,0.7,0.3,1
				c-1.6,0.4-2.9,0.8-3.9,1.1s-1.7,0.5-2.3,0.7c-0.5,0.2-0.9,0.3-1.2,0.4C995.9,13.1,995.7,13.2,995.6,13.3z M996.7,14.5h18.5v11.4
				h-2.7v-9.4h-13.2V26h-2.6V14.5z M998,18.8h15.6v1.9H998V18.8z M998,23h15.6v2.1H998V23z M1000.3,6.5l2.1-0.8
				c0.4,0.6,0.8,1.3,1.2,2c0.4,0.7,0.8,1.4,1.1,2.1c0.3,0.7,0.6,1.3,0.7,1.8l-2.2,0.9c-0.1-0.5-0.3-1.2-0.6-1.9
				c-0.3-0.7-0.6-1.4-1-2.1S1000.7,7.1,1000.3,6.5z M1008.9,3.1h2.4c-0.1,1.6-0.3,3.1-0.7,4.5c-0.3,1.3-0.9,2.6-1.7,3.6
				c-0.8,1.1-1.9,1.9-3.4,2.6c-0.1-0.3-0.4-0.6-0.6-1c-0.3-0.4-0.6-0.6-0.8-0.8c1.3-0.6,2.2-1.3,2.9-2.2c0.7-0.9,1.1-1.8,1.4-3
				C1008.6,5.7,1008.8,4.5,1008.9,3.1z M1004.7,15.4h2.4v8.8h-2.4V15.4z M1005.8,2.3h9.9v2.2h-9.9V2.3z M1014.8,2.3h2.5
				c0,0.3,0,0.5,0,0.6c0,0.2,0,0.3,0,0.4c-0.1,1.9-0.2,3.5-0.3,4.7c-0.1,1.2-0.2,2.1-0.4,2.8c-0.1,0.6-0.3,1.1-0.6,1.4
				c-0.2,0.3-0.5,0.5-0.8,0.6c-0.3,0.1-0.6,0.2-1,0.3c-0.3,0-0.8,0.1-1.4,0.1s-1.1,0-1.7-0.1c0-0.3-0.1-0.7-0.2-1.1
				s-0.3-0.8-0.5-1.1c0.6,0.1,1.1,0.1,1.5,0.1c0.5,0,0.8,0,1,0c0.2,0,0.4,0,0.5-0.1c0.1,0,0.2-0.1,0.4-0.2c0.1-0.2,0.3-0.5,0.4-1.1
				c0.1-0.6,0.2-1.4,0.3-2.5c0.1-1.1,0.1-2.6,0.2-4.4V2.3z"/>
			<path class="st0" d="M1023.1,4.8h24.4V7h-24.4V4.8z M1026.7,17.4h17.3v8.5h-2.6v-6.3h-12.1V26h-2.5V17.4z M1027,9h16.7V11H1027V9
				z M1027,13.1h16.7v2.1H1027V13.1z M1028.4,22.8h14v2.1h-14V22.8z M1032.6,1.6l2.5-0.7c0.5,0.6,1,1.3,1.5,2
				c0.5,0.7,0.8,1.3,1.1,1.9l-2.7,0.8c-0.2-0.5-0.5-1.2-1-1.9C1033.6,2.9,1033.2,2.2,1032.6,1.6z"/>
			<path class="st0" d="M638.2,42.9h8.7v2.3h-6.2v15h-2.5V42.9z"/>
			<path class="st0" d="M651.7,48.2l1.9,0.3c-0.1,0.7-0.1,1.6-0.3,2.5c-0.1,0.9-0.3,1.8-0.4,2.6c-0.2,0.9-0.4,1.6-0.6,2.3l-1.9-0.7
				c0.3-0.6,0.5-1.3,0.6-2.1c0.2-0.8,0.3-1.6,0.5-2.5C651.5,49.8,651.6,49,651.7,48.2z M654.1,43h2.5v25h-2.5V43z M656.3,48.1
				l1.8-0.8c0.3,0.5,0.5,1.1,0.8,1.7c0.3,0.6,0.5,1.2,0.8,1.8c0.2,0.6,0.4,1.1,0.5,1.5l-1.9,0.9c-0.1-0.5-0.3-1-0.5-1.6
				c-0.2-0.6-0.4-1.2-0.7-1.8C656.9,49.3,656.6,48.7,656.3,48.1z M665.1,43h2.6v9.2c0,1.1-0.1,2.2-0.2,3.3c-0.1,1.1-0.3,2.3-0.6,3.4
				c-0.3,1.2-0.8,2.3-1.4,3.4c-0.6,1.1-1.4,2.1-2.4,3.1c-1,1-2.2,1.9-3.7,2.7c-0.1-0.2-0.3-0.4-0.5-0.7c-0.2-0.2-0.4-0.5-0.7-0.7
				c-0.2-0.2-0.5-0.4-0.6-0.6c1.4-0.7,2.6-1.5,3.5-2.3c0.9-0.9,1.6-1.8,2.2-2.7c0.5-1,0.9-1.9,1.2-3c0.2-1,0.4-2,0.5-3
				c0.1-1,0.1-2,0.1-2.9V43z M658.7,55.2h17v2.4h-17V55.2z M660.1,47.2h13.6v9.4h-2.5v-7h-11.1V47.2z M667.8,59.1l2.1-1.1
				c0.6,0.9,1.3,1.8,2,2.9c0.7,1,1.4,2.1,2.1,3.1c0.7,1,1.2,1.9,1.6,2.6l-2.3,1.3c-0.4-0.7-0.9-1.6-1.5-2.6c-0.6-1-1.3-2.1-2-3.1
				C669.1,61.1,668.4,60.1,667.8,59.1z"/>
			<path class="st0" d="M691.5,55l2.2,0.8c-0.7,1.2-1.4,2.3-2.3,3.4c-0.9,1.1-1.8,2.1-2.9,3.1c-1,1-2.1,1.8-3.2,2.6
				c-1.1,0.8-2.3,1.4-3.4,2c-0.1-0.2-0.3-0.5-0.5-0.7c-0.2-0.3-0.4-0.5-0.7-0.8c-0.2-0.3-0.4-0.5-0.6-0.7c1.2-0.4,2.3-1,3.4-1.7
				c1.1-0.7,2.2-1.4,3.2-2.3c1-0.8,1.9-1.8,2.8-2.7C690.2,57,690.9,56,691.5,55z M685.6,49.5l2.5,0.5c-0.5,2-1.2,3.7-2.1,5.3
				c-0.9,1.6-2,2.9-3.3,4c-0.1-0.1-0.3-0.3-0.6-0.5c-0.2-0.2-0.5-0.4-0.8-0.6c-0.3-0.2-0.5-0.4-0.7-0.5c1.2-0.9,2.2-2.1,3.1-3.5
				C684.6,52.7,685.2,51.2,685.6,49.5z M681,46.6h23.4v2.5H681V46.6z M684.5,53.8l1.7-1.6c0.4,0.3,0.9,0.7,1.4,1.2
				c0.5,0.4,0.9,0.9,1.4,1.3c0.4,0.4,0.8,0.8,1.1,1.1l-1.7,1.8c-0.3-0.3-0.6-0.7-1-1.2c-0.4-0.4-0.9-0.9-1.4-1.3
				C685.3,54.6,684.9,54.2,684.5,53.8z M691.2,43h2.7V68h-2.7V43z M693.8,55.2c0.8,1.3,1.8,2.6,3,3.8c1.2,1.2,2.5,2.3,4,3.3
				c1.5,1,3,1.7,4.5,2.3c-0.2,0.2-0.4,0.4-0.7,0.7c-0.2,0.3-0.5,0.6-0.7,0.9c-0.2,0.3-0.4,0.5-0.5,0.8c-1.5-0.7-3.1-1.6-4.5-2.7
				c-1.5-1.1-2.8-2.4-4-3.8c-1.2-1.4-2.3-2.9-3.1-4.4L693.8,55.2z M698.3,49.5l2.5,0.5c-0.4,1.7-0.9,3.2-1.6,4.5s-1.5,2.5-2.5,3.4
				c-0.2-0.1-0.4-0.3-0.6-0.4c-0.3-0.2-0.5-0.3-0.8-0.5c-0.3-0.2-0.5-0.3-0.7-0.4c1-0.8,1.8-1.8,2.4-3.1
				C697.6,52.3,698.1,50.9,698.3,49.5z M697.5,53.9l1.7-1.5c0.6,0.4,1.2,0.9,1.9,1.5c0.7,0.6,1.3,1.1,2,1.6c0.6,0.5,1.2,1,1.6,1.4
				l-1.8,1.8c-0.4-0.4-0.9-0.9-1.5-1.5c-0.6-0.5-1.3-1.1-2-1.7C698.7,54.9,698,54.4,697.5,53.9z"/>
			<path class="st0" d="M709.4,52.3l1.4-1.9c0.5,0.2,1.1,0.4,1.6,0.7c0.6,0.3,1.1,0.6,1.6,0.9c0.5,0.3,0.9,0.6,1.2,0.9l-1.5,2.1
				c-0.3-0.3-0.7-0.6-1.2-0.9c-0.5-0.3-1-0.6-1.6-0.9C710.5,52.8,710,52.6,709.4,52.3z M710,66.4c0.4-0.7,0.8-1.5,1.2-2.5
				c0.4-1,0.9-2,1.3-3c0.4-1.1,0.8-2.1,1.2-3.1l2.1,1.4c-0.3,0.9-0.7,1.9-1.1,2.9s-0.8,2-1.2,3c-0.4,1-0.8,1.9-1.2,2.8L710,66.4z
				 M710.6,45.1l1.4-1.8c0.5,0.2,1,0.5,1.6,0.8s1.1,0.6,1.6,0.9c0.5,0.3,0.9,0.6,1.2,0.9l-1.5,2.1c-0.3-0.3-0.6-0.6-1.1-1
				c-0.5-0.4-1-0.7-1.5-1C711.6,45.6,711.1,45.3,710.6,45.1z M717.9,61.8l2.3,0.6c-0.5,1-1,2.1-1.7,3.1s-1.4,1.9-2.1,2.6
				c-0.1-0.1-0.3-0.3-0.6-0.5c-0.3-0.2-0.5-0.3-0.8-0.5c-0.3-0.2-0.5-0.3-0.7-0.4c0.7-0.6,1.4-1.4,2-2.2
				C717,63.6,717.5,62.7,717.9,61.8z M716.9,44.1h8v17.3h-8V44.1z M719.1,46.3v2.9h3.6v-2.9H719.1z M719.1,51.3v2.9h3.6v-2.9H719.1z
				 M719.1,56.3v2.9h3.6v-2.9H719.1z M721.6,62.8l1.9-1.1c0.4,0.4,0.7,0.9,1.1,1.4c0.4,0.5,0.7,1,1.1,1.5c0.3,0.5,0.6,0.9,0.8,1.3
				l-2,1.2c-0.2-0.4-0.4-0.8-0.8-1.4s-0.7-1-1-1.5C722.3,63.7,722,63.2,721.6,62.8z M726.7,45.8h2.2v15.6h-2.2V45.8z M731.3,43h2.3
				v22c0,0.7-0.1,1.3-0.2,1.6s-0.5,0.7-0.9,0.9c-0.4,0.2-1,0.3-1.7,0.4c-0.7,0.1-1.6,0.1-2.7,0.1c0-0.3-0.1-0.7-0.3-1.2
				c-0.1-0.5-0.3-0.9-0.5-1.2c0.8,0,1.4,0,2.1,0c0.6,0,1,0,1.3,0c0.2,0,0.4,0,0.5-0.1c0.1-0.1,0.1-0.2,0.1-0.4V43z"/>
			<path class="st0" d="M738.9,52.3l1.4-1.9c0.5,0.2,1.1,0.4,1.6,0.7c0.6,0.3,1.1,0.6,1.6,0.9c0.5,0.3,0.9,0.6,1.2,0.9l-1.5,2.1
				c-0.3-0.3-0.7-0.6-1.2-0.9c-0.5-0.3-1-0.6-1.6-0.9C739.9,52.8,739.4,52.6,738.9,52.3z M739.4,66.4c0.4-0.7,0.8-1.5,1.2-2.5
				c0.4-1,0.9-2,1.3-3c0.4-1.1,0.8-2.1,1.2-3.1l2.1,1.4c-0.3,0.9-0.7,1.9-1.1,2.9s-0.8,2-1.2,3c-0.4,1-0.8,1.9-1.2,2.8L739.4,66.4z
				 M740,45.1l1.4-1.8c0.5,0.2,1,0.5,1.6,0.8s1.1,0.6,1.6,0.9c0.5,0.3,0.9,0.6,1.2,0.9l-1.5,2.1c-0.3-0.3-0.6-0.6-1.1-1
				c-0.5-0.4-1-0.7-1.5-1C741,45.6,740.5,45.3,740,45.1z M747.3,61.8l2.3,0.6c-0.5,1-1,2.1-1.7,3.1s-1.4,1.9-2.1,2.6
				c-0.1-0.1-0.3-0.3-0.6-0.5c-0.3-0.2-0.5-0.3-0.8-0.5c-0.3-0.2-0.5-0.3-0.7-0.4c0.7-0.6,1.4-1.4,2-2.2
				C746.4,63.6,746.9,62.7,747.3,61.8z M746.3,44.1h8v17.3h-8V44.1z M748.5,46.3v2.9h3.6v-2.9H748.5z M748.5,51.3v2.9h3.6v-2.9
				H748.5z M748.5,56.3v2.9h3.6v-2.9H748.5z M751,62.8l1.9-1.1c0.4,0.4,0.7,0.9,1.1,1.4c0.4,0.5,0.7,1,1.1,1.5
				c0.3,0.5,0.6,0.9,0.8,1.3l-2,1.2c-0.2-0.4-0.4-0.8-0.8-1.4s-0.7-1-1-1.5C751.8,63.7,751.4,63.2,751,62.8z M756.1,45.8h2.2v15.6
				h-2.2V45.8z M760.7,43h2.3v22c0,0.7-0.1,1.3-0.2,1.6s-0.5,0.7-0.9,0.9c-0.4,0.2-1,0.3-1.7,0.4c-0.7,0.1-1.6,0.1-2.7,0.1
				c0-0.3-0.1-0.7-0.3-1.2c-0.1-0.5-0.3-0.9-0.5-1.2c0.8,0,1.4,0,2.1,0c0.6,0,1,0,1.3,0c0.2,0,0.4,0,0.5-0.1
				c0.1-0.1,0.1-0.2,0.1-0.4V43z"/>
			<path class="st0" d="M774.2,43.1l2.4,0.7c-0.6,1.5-1.3,3.1-2.1,4.6c-0.8,1.5-1.6,2.9-2.6,4.3c-0.9,1.3-1.9,2.5-2.8,3.5
				c-0.1-0.2-0.2-0.5-0.4-0.8c-0.2-0.3-0.3-0.7-0.5-1c-0.2-0.3-0.4-0.6-0.5-0.8c0.9-0.9,1.7-1.9,2.5-3c0.8-1.1,1.5-2.3,2.2-3.6
				C773.2,45.7,773.7,44.4,774.2,43.1z M771.5,50.2l2.4-2.4l0,0V68h-2.4V50.2z M779.8,43.1l2.5,0.6c-0.4,1.4-0.8,2.8-1.3,4.2
				c-0.5,1.4-1.1,2.7-1.7,3.8c-0.6,1.2-1.3,2.3-2,3.2c-0.1-0.1-0.3-0.3-0.6-0.5c-0.3-0.2-0.5-0.4-0.8-0.6c-0.3-0.2-0.5-0.4-0.7-0.5
				c0.7-0.8,1.3-1.8,1.9-2.8s1.1-2.2,1.5-3.5C779.1,45.6,779.5,44.4,779.8,43.1z M779.2,54.8l2.5,0.5c-0.3,1.2-0.6,2.3-1,3.4
				c-0.4,1.1-0.8,2.2-1.3,3.2c-0.5,1-1,1.8-1.5,2.6c-0.1-0.1-0.4-0.3-0.6-0.5c-0.3-0.2-0.5-0.3-0.8-0.5c-0.3-0.2-0.5-0.3-0.7-0.4
				c0.8-1,1.5-2.3,2.1-3.7C778.4,57.8,778.9,56.3,779.2,54.8z M779.9,48h11.7v2.4H779L779.9,48z M783.6,49h2.5v16
				c0,0.7-0.1,1.2-0.2,1.6c-0.2,0.4-0.4,0.7-0.9,0.9c-0.4,0.2-0.9,0.3-1.6,0.4c-0.6,0.1-1.4,0.1-2.2,0.1c-0.1-0.4-0.2-0.8-0.3-1.3
				c-0.2-0.5-0.4-0.9-0.6-1.3c0.6,0,1.2,0,1.7,0c0.5,0,0.9,0,1.1,0c0.2,0,0.3,0,0.4-0.1c0.1-0.1,0.1-0.2,0.1-0.4V49z M787.7,55.3
				l2.3-0.8c0.5,0.9,1,1.9,1.4,3c0.4,1.1,0.8,2.1,1.1,3.2c0.3,1,0.5,2,0.7,2.8l-2.5,0.9c-0.1-0.8-0.3-1.8-0.6-2.8
				c-0.3-1-0.7-2.1-1.1-3.2C788.6,57.3,788.2,56.2,787.7,55.3z M790.9,48h0.4l0.4-0.1l1.8,0.4c-0.2,1-0.4,2.1-0.6,3.2
				c-0.2,1.1-0.4,2.1-0.6,2.8l-2.2-0.4c0.1-0.5,0.2-1,0.3-1.6c0.1-0.6,0.2-1.3,0.3-2c0.1-0.7,0.2-1.3,0.2-1.9V48z"/>
			<path class="st0" d="M803.1,55.9h0.6l0.4-0.1l1.2,0.5c-0.4,2.9-1.2,5.4-2.3,7.3c-1.1,2-2.4,3.4-3.9,4.5c-0.1-0.2-0.3-0.4-0.5-0.6
				c-0.2-0.2-0.4-0.4-0.6-0.6c-0.2-0.2-0.4-0.4-0.6-0.5c1.5-0.9,2.7-2.2,3.6-3.9c1-1.7,1.6-3.7,2-6.2V55.9z M798.5,58.3
				c0-0.2-0.1-0.4-0.2-0.7c-0.1-0.3-0.2-0.5-0.3-0.8c-0.1-0.3-0.2-0.5-0.3-0.7c0.2-0.1,0.4-0.1,0.6-0.3c0.2-0.1,0.4-0.3,0.7-0.6
				c0.2-0.2,0.5-0.5,0.9-1c0.4-0.5,0.8-1,1.2-1.6c0.4-0.6,0.9-1.2,1.2-1.8c0.4-0.6,0.7-1,0.9-1.4v-0.1l0.7-0.3l1.6,0.7
				c-0.3,0.5-0.7,1-1.1,1.6c-0.4,0.6-0.9,1.3-1.4,1.9c-0.5,0.7-1,1.3-1.4,1.9c-0.5,0.6-0.9,1.1-1.3,1.6c-0.4,0.2-0.7,0.4-0.9,0.5
				c-0.2,0.2-0.5,0.3-0.6,0.5C798.6,58,798.5,58.2,798.5,58.3z M798.1,49.2h5.8v2.1h-5.8V49.2z M798.5,58.3v-1.9l1.1-0.5h4.3v2h-3.7
				c-0.3,0-0.7,0-1,0.1S798.6,58.2,798.5,58.3z M798.9,44.1l1.9-1.2c0.4,0.4,0.9,0.9,1.3,1.4c0.4,0.5,0.9,1,1.3,1.5
				c0.4,0.5,0.7,0.9,1,1.2l-1.9,1.4c-0.3-0.4-0.6-0.8-1-1.3c-0.4-0.5-0.8-1-1.2-1.6C799.8,45.1,799.3,44.6,798.9,44.1z M803.2,61.3
				c0.5,1.2,1.2,2.1,2.2,2.6c0.9,0.6,2,1,3.4,1.1c1.3,0.2,2.8,0.3,4.5,0.3c1,0,2,0,3.2-0.1c1.2,0,2.3-0.1,3.5-0.1
				c1.2-0.1,2.3-0.1,3.2-0.2c-0.1,0.2-0.2,0.4-0.4,0.7s-0.2,0.6-0.3,0.9c-0.1,0.3-0.1,0.6-0.2,0.8c-0.9,0.1-1.8,0.1-2.9,0.1
				c-1,0-2.1,0.1-3.1,0.1c-1.1,0-2.1,0-3.1,0c-1.6,0-3-0.1-4.2-0.2c-1.2-0.1-2.3-0.4-3.3-0.8c-0.9-0.4-1.8-0.9-2.5-1.7
				s-1.3-1.7-1.8-2.9L803.2,61.3z M805.5,45.1h17v2h-17V45.1z M806.7,49.5h13.9v2H809v12.3h-2.3V49.5z M808.9,47.3l2.1-0.5
				c0.3,0.4,0.5,0.8,0.7,1.3c0.2,0.5,0.3,0.9,0.4,1.3l-2.2,0.6c-0.1-0.4-0.2-0.8-0.4-1.3S809.1,47.7,808.9,47.3z M809.6,53.1h9.3
				v1.6h-9.3V53.1z M810.6,56.5h1.8v5.8h-1.8V56.5z M811.5,43.5l2-0.8c0.4,0.5,0.8,1,1.2,1.6c0.4,0.6,0.6,1.1,0.8,1.6l-2.1,0.9
				c-0.1-0.5-0.4-1-0.7-1.6C812.3,44.6,811.9,44,811.5,43.5z M811.6,56.5h6.3v4.8h-6.3v-1.5h4.5V58h-4.5V56.5z M813.2,51.3h1.9v5.6
				h-1.9V51.3z M816.7,46.6l2.4,0.6c-0.3,0.6-0.5,1.1-0.8,1.6c-0.3,0.5-0.6,1-0.8,1.4l-2.1-0.5c0.3-0.4,0.5-1,0.7-1.5
				C816.4,47.5,816.6,47,816.7,46.6z M819.4,49.5h2.3v11.8c0,0.6-0.1,1-0.2,1.3c-0.1,0.3-0.4,0.6-0.8,0.8c-0.4,0.2-0.9,0.3-1.5,0.3
				c-0.6,0-1.3,0.1-2.1,0.1c0-0.3-0.1-0.7-0.3-1.1c-0.1-0.4-0.3-0.8-0.5-1.1c0.6,0,1.1,0,1.5,0c0.5,0,0.8,0,0.9,0
				c0.2,0,0.3-0.1,0.3-0.1c0.1-0.1,0.1-0.2,0.1-0.3V49.5z"/>
			<path class="st0" d="M840.1,42.9l2.3,1.2c-1,1.5-2.3,3-3.7,4.3c-1.4,1.4-2.9,2.6-4.6,3.7c-1.6,1.1-3.3,2-5,2.8
				c-0.2-0.4-0.5-0.8-0.8-1.2c-0.3-0.4-0.7-0.8-1-1.1c1.7-0.7,3.3-1.5,5-2.5c1.6-1,3.1-2.1,4.5-3.3C838,45.6,839.2,44.3,840.1,42.9z
				 M831.4,56.9h17.1v10.9h-2.7v-8.6H834V68h-2.6V56.9z M832.6,64.2h14.2v2.4h-14.2V64.2z M833,51.7h13.6v2.3H833V51.7z M840.8,44.6
				c1.7,1.9,3.6,3.4,5.6,4.6c2,1.2,4,2.2,6.2,3.1c-0.3,0.3-0.7,0.6-1,1.1c-0.3,0.4-0.6,0.8-0.8,1.2c-1.5-0.7-2.9-1.4-4.2-2.3
				c-1.4-0.8-2.7-1.8-4-2.8c-1.3-1.1-2.6-2.3-3.9-3.8L840.8,44.6z"/>
			<path class="st0" d="M857.6,45.5h1.9v18.1h-1.9V45.5z M858.6,45.5h4.9v15.4h-4.9v-2.3h2.9V47.8h-2.9V45.5z M866.5,45.3h2.1v7.3
				c0,1.2-0.1,2.4-0.2,3.8c-0.1,1.3-0.3,2.7-0.6,4.1c-0.3,1.4-0.7,2.7-1.3,4.1c-0.6,1.3-1.3,2.5-2.3,3.6c-0.1-0.2-0.3-0.3-0.4-0.6
				s-0.4-0.4-0.6-0.6c-0.2-0.2-0.4-0.3-0.5-0.4c0.9-1,1.6-2.1,2.1-3.3c0.5-1.2,0.9-2.4,1.1-3.6c0.3-1.3,0.4-2.5,0.5-3.7
				c0.1-1.2,0.1-2.3,0.1-3.4V45.3z M864.4,57h7.3v2.2h-7.3V57z M864.4,44.2h7.1v2.2h-7.1V44.2z M864.4,50.6h7.1v2.2h-7.1V50.6z
				 M870.6,44.2h2.1c0,0.3,0,0.6,0,0.7s0,0.3,0,0.4c0,3,0,5.7-0.1,7.9c0,2.2,0,4.2-0.1,5.8c0,1.6-0.1,2.9-0.1,3.9
				c0,1-0.1,1.8-0.2,2.4c-0.1,0.6-0.2,1-0.4,1.2c-0.2,0.4-0.5,0.7-0.7,0.9c-0.3,0.2-0.5,0.3-0.9,0.3c-0.3,0.1-0.7,0.1-1.1,0.1
				c-0.4,0-0.9,0-1.4,0c0-0.3-0.1-0.7-0.2-1.1c-0.1-0.4-0.2-0.8-0.4-1.1c0.4,0,0.8,0.1,1.2,0.1c0.4,0,0.6,0,0.8,0
				c0.2,0,0.3,0,0.4-0.1c0.1-0.1,0.2-0.2,0.3-0.4c0.1-0.2,0.2-0.7,0.3-1.5c0.1-0.8,0.1-1.9,0.2-3.5c0-1.5,0.1-3.6,0.1-6.1
				c0-2.5,0-5.6,0.1-9.3V44.2z M874.1,44.2h5.6v2.1h-3.4v21.7h-2.1V44.2z M879.2,44.2h0.4l0.3-0.1l1.6,0.9c-0.2,0.9-0.5,1.8-0.7,2.8
				c-0.3,1-0.5,2-0.8,3c-0.3,1-0.6,1.9-0.8,2.7c0.8,1.2,1.4,2.4,1.6,3.5c0.3,1.1,0.4,2.1,0.4,3c0,0.9-0.1,1.6-0.2,2.2
				c-0.2,0.6-0.4,1.1-0.8,1.4c-0.2,0.1-0.4,0.3-0.6,0.3c-0.2,0.1-0.5,0.1-0.8,0.2c-0.4,0.1-0.9,0.1-1.5,0c0-0.3,0-0.6-0.1-1.1
				c-0.1-0.4-0.2-0.8-0.4-1.1c0.2,0,0.4,0,0.6,0c0.2,0,0.4,0,0.5,0c0.3,0,0.5-0.1,0.7-0.3c0.2-0.2,0.3-0.4,0.3-0.8
				c0.1-0.4,0.1-0.8,0.1-1.3c0-0.8-0.1-1.7-0.4-2.7c-0.2-1-0.8-2.1-1.6-3.2c0.2-0.7,0.4-1.4,0.6-2.2c0.2-0.8,0.4-1.6,0.6-2.4
				c0.2-0.8,0.4-1.6,0.5-2.3c0.2-0.7,0.3-1.3,0.4-1.8V44.2z"/>
			<path class="st0" d="M890.7,51.5l1.5,0.7c-0.3,1-0.6,1.9-1,3c-0.4,1-0.8,2.1-1.2,3.1c-0.4,1-0.9,2-1.4,2.8
				c-0.5,0.9-1,1.6-1.5,2.3c-0.1-0.4-0.3-0.8-0.6-1.2c-0.3-0.5-0.5-0.8-0.7-1.1c0.5-0.5,1-1.2,1.4-1.9c0.5-0.7,0.9-1.5,1.4-2.4
				c0.4-0.9,0.8-1.7,1.2-2.6C890.1,53.1,890.4,52.3,890.7,51.5z M894.6,43.3l1.8,2c-0.9,0.3-1.9,0.7-2.9,0.9
				c-1.1,0.3-2.2,0.5-3.3,0.7c-1.1,0.2-2.2,0.4-3.3,0.6c-0.1-0.3-0.2-0.6-0.3-1c-0.1-0.4-0.3-0.7-0.4-1c1-0.2,2-0.4,3.1-0.6
				c1.1-0.2,2.1-0.5,3-0.8C893.2,43.9,894,43.6,894.6,43.3z M886.3,50.6h9.9V53h-9.9V50.6z M890.5,45.3h2.5V68h-2.5V45.3z M893,54.2
				c0.2,0.1,0.4,0.4,0.8,0.7c0.3,0.4,0.7,0.7,1.1,1.1c0.4,0.4,0.8,0.8,1.1,1.1s0.5,0.6,0.7,0.8l-1.5,2c-0.2-0.3-0.4-0.6-0.7-1.1
				s-0.6-0.9-0.9-1.3s-0.7-0.9-1-1.3s-0.6-0.7-0.8-1L893,54.2z M895,65.5h16.3v2.1H895V65.5z M895.7,47.7h15v2.1h-15V47.7z
				 M909.2,43.2l1.5,1.9c-0.9,0.2-2,0.4-3.1,0.5c-1.1,0.1-2.3,0.3-3.6,0.4c-1.2,0.1-2.5,0.2-3.7,0.2c-1.3,0.1-2.4,0.1-3.6,0.1
				c0-0.3-0.1-0.6-0.2-1c-0.1-0.4-0.2-0.7-0.4-0.9c1.1-0.1,2.3-0.1,3.5-0.2c1.2-0.1,2.4-0.1,3.6-0.3c1.2-0.1,2.3-0.2,3.3-0.4
				C907.5,43.6,908.4,43.4,909.2,43.2z M896.5,61.7h13.8v2h-13.8V61.7z M896.8,51.3h13.5v8.9h-13.5V51.3z M899,53.1v1.8h8.9v-1.8
				H899z M899,56.4v1.8h8.9v-1.8H899z M902.2,45.1h2.4v21.5h-2.4V45.1z"/>
			<path class="st0" d="M915.3,52.6l1.3-1.9c0.5,0.3,1,0.5,1.6,0.9c0.6,0.3,1.1,0.6,1.7,0.9c0.5,0.3,1,0.6,1.3,0.8l-1.3,2.2
				c-0.3-0.3-0.7-0.6-1.3-0.9c-0.5-0.3-1.1-0.7-1.6-1C916.3,53.2,915.8,52.9,915.3,52.6z M916,66.2c0.4-0.7,0.9-1.6,1.4-2.5
				c0.5-1,1-2,1.6-3.1c0.5-1.1,1-2.1,1.5-3.2l1.8,1.4c-0.4,1-0.8,1.9-1.3,3c-0.5,1-1,2-1.5,3s-1,1.9-1.4,2.8L916,66.2z M916.7,45.1
				l1.5-1.8c0.4,0.3,0.9,0.6,1.5,1c0.5,0.4,1,0.7,1.5,1.1c0.5,0.4,0.9,0.7,1.2,0.9l-1.5,2c-0.3-0.3-0.7-0.6-1.2-1
				c-0.5-0.4-1-0.8-1.5-1.2C917.7,45.8,917.2,45.5,916.7,45.1z M921.9,51.4h18.7v1.9h-18.7V51.4z M922.8,44.6h17.3v1.9h-17.3V44.6z
				 M924.4,54.7h2.5v4.9c0,0.9-0.1,1.8-0.2,2.8c-0.1,1-0.3,2-0.7,3s-0.8,1.9-1.4,2.6c-0.1-0.2-0.3-0.4-0.6-0.6s-0.5-0.5-0.7-0.7
				c-0.3-0.2-0.5-0.4-0.6-0.5c0.5-0.6,0.9-1.4,1.1-2.1c0.2-0.8,0.4-1.5,0.5-2.3c0.1-0.8,0.1-1.5,0.1-2.2V54.7z M923.5,48h15.8v1.8
				h-15.8V48z M925.8,54.7h10.9v1.9h-10.9V54.7z M926.2,61.9h10.6v1.8h-10.6V61.9z M926.2,58.4h10.5v1.7h-10.5V58.4z M930.1,43h2.5
				v10h-2.5V43z M935.9,54.7h2.6v10.6c0,0.6-0.1,1.1-0.2,1.4c-0.2,0.3-0.5,0.6-0.9,0.8c-0.4,0.2-1,0.3-1.6,0.3
				c-0.7,0-1.5,0.1-2.4,0.1c-0.1-0.3-0.2-0.7-0.3-1.1c-0.2-0.4-0.3-0.8-0.5-1.1c0.4,0,0.8,0,1.2,0c0.4,0,0.7,0,1,0
				c0.3,0,0.5,0,0.6,0c0.2,0,0.3-0.1,0.4-0.1c0.1-0.1,0.1-0.2,0.1-0.3V54.7z"/>
			<path class="st0" d="M945,52.3l1.5-1.6c0.4,0.3,0.9,0.6,1.4,1s1,0.7,1.4,1.1s0.8,0.7,1.1,1l-1.6,1.9c-0.3-0.3-0.6-0.7-1-1.1
				c-0.4-0.4-0.9-0.8-1.4-1.2C945.9,53,945.4,52.6,945,52.3z M945.1,66.4c0.3-0.7,0.7-1.5,1.1-2.5c0.4-1,0.8-2,1.2-3
				c0.4-1.1,0.8-2.1,1.1-3.1l1.9,1.4c-0.3,1-0.6,1.9-0.9,2.9c-0.4,1-0.7,2-1.1,3c-0.4,1-0.7,1.9-1.1,2.7L945.1,66.4z M945.5,44.7
				l1.5-1.5c0.4,0.3,0.9,0.6,1.4,1c0.5,0.4,0.9,0.8,1.4,1.2c0.4,0.4,0.8,0.8,1,1.1l-1.6,1.7c-0.2-0.3-0.6-0.7-1-1.1
				c-0.4-0.4-0.8-0.8-1.3-1.2C946.4,45.4,946,45,945.5,44.7z M955.1,62.3l1.9,1.2c-0.7,0.7-1.5,1.4-2.5,2c-1,0.6-1.9,1.2-2.8,1.6
				c-0.1-0.2-0.3-0.5-0.6-0.8c-0.2-0.3-0.5-0.6-0.7-0.8c0.6-0.3,1.2-0.6,1.8-0.9c0.6-0.4,1.2-0.7,1.7-1.1
				C954.4,63.1,954.8,62.7,955.1,62.3z M951.1,51.1c1.1-0.1,2.4-0.1,3.9-0.3s3-0.2,4.6-0.4l0,1.7c-1.5,0.2-3,0.3-4.4,0.4
				c-1.4,0.1-2.7,0.3-3.9,0.4L951.1,51.1z M951.2,44.9h8.3v1.7h-8.3V44.9z M952.4,62.1c-0.1-0.2-0.2-0.4-0.4-0.7
				c-0.2-0.3-0.4-0.6-0.5-0.8c0.4-0.1,0.9-0.2,1.3-0.3c0.5-0.1,1-0.3,1.6-0.6c0.3-0.1,0.8-0.3,1.5-0.6c0.6-0.3,1.3-0.6,2.1-1.1
				c0.8-0.4,1.6-0.9,2.5-1.4c0.9-0.5,1.7-1,2.4-1.5l2.3,1c-1.7,1.1-3.4,2-5.3,2.9c-1.9,0.9-3.7,1.6-5.6,2.3v0.1
				c-0.4,0.1-0.7,0.2-0.9,0.3c-0.2,0.1-0.5,0.2-0.7,0.2S952.4,62,952.4,62.1z M951.6,47.9h7.6v1.6h-7.6V47.9z M952.8,58.6
				c-0.1-0.2-0.2-0.4-0.4-0.7c-0.2-0.3-0.4-0.6-0.5-0.8c0.3,0,0.6-0.1,0.9-0.2c0.3-0.1,0.6-0.2,1-0.4c0.3-0.1,0.6-0.3,1.2-0.6
				c0.5-0.3,1.1-0.7,1.7-1.1c0.6-0.4,1.2-0.9,1.7-1.3l2,1.2c-0.8,0.6-1.7,1.1-2.7,1.7c-1,0.5-2,1-3.1,1.5v0.1
				c-0.4,0.1-0.7,0.2-1,0.2c-0.2,0.1-0.5,0.2-0.7,0.3C952.9,58.4,952.8,58.5,952.8,58.6z M952.4,62.1l-0.1-1.5l1.8-0.6l13.2-0.6
				c-0.1,0.3-0.2,0.5-0.2,0.9c0,0.3-0.1,0.6-0.1,0.8c-2.4,0.1-4.4,0.2-6,0.3c-1.6,0.1-3,0.2-4,0.2c-1,0.1-1.9,0.1-2.5,0.2
				c-0.6,0-1.1,0.1-1.4,0.1C952.9,62,952.6,62,952.4,62.1z M952.8,58.6l-0.1-1.3l1.5-0.5l7.3-0.2c-0.1,0.2-0.2,0.5-0.2,0.7
				c-0.1,0.3-0.1,0.5-0.1,0.7c-1.6,0.1-2.9,0.2-4,0.2c-1,0.1-1.8,0.1-2.4,0.2c-0.6,0.1-1,0.1-1.3,0.2
				C953.3,58.5,953,58.5,952.8,58.6z M954.3,43.6h2.1V54h-2.1V43.6z M958.8,61h2.4v4.6c0,0.5-0.1,0.8-0.2,1.1
				c-0.1,0.3-0.4,0.5-0.8,0.7c-0.4,0.1-0.9,0.2-1.4,0.3c-0.6,0-1.2,0-2,0c-0.1-0.3-0.2-0.6-0.3-0.9c-0.1-0.3-0.3-0.6-0.5-0.9
				c0.5,0,1,0,1.5,0s0.7,0,0.9,0s0.3,0,0.3-0.1c0,0,0.1-0.1,0.1-0.2V61z M962.6,45.7h2.1c-0.1,1.2-0.3,2.3-0.5,3.3
				c-0.3,1-0.7,2-1.2,2.9c-0.5,0.9-1.3,1.6-2.2,2.2c-0.1-0.2-0.4-0.5-0.6-0.8s-0.5-0.5-0.8-0.6c0.8-0.5,1.4-1.1,1.9-1.8
				s0.8-1.5,1-2.4C962.4,47.5,962.6,46.6,962.6,45.7z M960.2,44.6h7.6v1.8h-7.6V44.6z M962.8,63.6l1.5-1.3c0.6,0.4,1.2,0.8,1.8,1.2
				c0.6,0.4,1.3,0.9,1.9,1.3c0.6,0.4,1.1,0.8,1.5,1.1l-1.6,1.5c-0.4-0.3-0.8-0.7-1.4-1.2c-0.6-0.4-1.2-0.9-1.8-1.4
				C963.9,64.4,963.3,64,962.8,63.6z M966.9,44.6h2.3c0,0.4,0,0.7,0,0.9c-0.1,1.6-0.1,2.9-0.2,3.9c-0.1,1-0.2,1.8-0.3,2.3
				c-0.1,0.5-0.3,0.9-0.5,1.1c-0.2,0.2-0.4,0.4-0.6,0.5s-0.5,0.2-0.8,0.2c-0.3,0-0.6,0.1-1,0.1c-0.4,0-0.8,0-1.3,0
				c0-0.3-0.1-0.7-0.2-1c-0.1-0.4-0.2-0.7-0.4-1c0.4,0,0.7,0.1,1,0.1c0.3,0,0.5,0,0.6,0s0.3,0,0.4,0c0.1,0,0.2-0.1,0.3-0.2
				c0.1-0.1,0.2-0.4,0.3-0.9c0.1-0.4,0.1-1.1,0.2-2c0.1-0.9,0.1-2.1,0.2-3.6V44.6z M964.1,58l1.8-0.9c0.5,0.5,1,0.9,1.4,1.5
				c0.5,0.5,0.9,1,1.3,1.5c0.4,0.5,0.7,0.9,0.9,1.3l-1.9,1c-0.2-0.4-0.5-0.9-0.9-1.4c-0.4-0.5-0.8-1-1.2-1.6
				C965,59,964.5,58.5,964.1,58z"/>
			<path class="st0" d="M978.3,51.4h1.6c-0.1,0.6-0.3,1.2-0.6,1.7c-0.3,0.5-0.7,0.8-1.3,1.1c-0.6,0.3-1.4,0.5-2.3,0.7
				c-0.1-0.2-0.2-0.4-0.4-0.7c-0.2-0.3-0.4-0.5-0.5-0.6c0.8-0.1,1.5-0.3,2-0.5c0.5-0.2,0.8-0.4,1.1-0.7
				C978.1,52.2,978.2,51.9,978.3,51.4z M974.8,62.4H999v1.6h-24.2V62.4z M975,44.6h11.5v1.8H975V44.6z M975.1,57.7
				c1,0,2.1-0.1,3.4-0.1c1.3-0.1,2.6-0.1,4-0.2c1.4-0.1,2.9-0.2,4.3-0.2l0,1.4c-1.4,0.1-2.8,0.2-4.2,0.3c-1.4,0.1-2.7,0.2-4,0.3
				c-1.3,0.1-2.4,0.2-3.4,0.2L975.1,57.7z M975.3,50.7h11.7v1.4h-11.7V50.7z M976.3,55h9.7v1.4h-9.7V55z M977.1,68
				c-0.1-0.2-0.2-0.5-0.3-0.9c-0.2-0.4-0.3-0.7-0.4-0.9c0.3,0,0.6-0.1,0.9-0.2c0.3-0.1,0.6-0.2,1-0.4c0.3-0.1,0.7-0.3,1.2-0.6
				s1.2-0.7,1.9-1.1c0.7-0.4,1.3-0.9,1.9-1.4l2.5,0.7c-1.1,0.8-2.3,1.5-3.5,2.2c-1.2,0.7-2.4,1.2-3.5,1.6v0.1
				c-0.3,0.1-0.6,0.2-0.8,0.3c-0.2,0.1-0.4,0.2-0.6,0.3C977.1,67.8,977.1,67.9,977.1,68z M976.5,48.4h9.2v1.3h-9.2V48.4z M977.1,68
				l0-1.4l1.6-0.7l16.3-0.6c0,0.3,0.1,0.5,0.2,0.8c0.1,0.3,0.1,0.5,0.2,0.7c-2.6,0.1-4.8,0.2-6.7,0.3c-1.9,0.1-3.4,0.2-4.7,0.2
				c-1.3,0.1-2.3,0.1-3.2,0.2s-1.5,0.1-2,0.1c-0.5,0-0.8,0.1-1.1,0.1S977.3,68,977.1,68z M978.2,59.7h17.6v1.5h-17.6V59.7z
				 M980,47.6h2.2v4.1H980V47.6z M980,53.6h2.2v4.6H980V53.6z M981.2,42.9h2.5v4.6h-2.5V42.9z M981.9,51.4h1.6v1.1
				c0,0.2,0,0.4,0.1,0.5c0,0.1,0.2,0.1,0.3,0.1c0.1,0,0.2,0,0.4,0s0.4,0,0.5,0c0.2,0,0.3,0,0.4,0c0.2,0,0.4,0,0.6,0
				c0.2,0,0.4,0,0.6-0.1c0,0.2,0.1,0.4,0.1,0.6c0,0.2,0,0.4,0.1,0.6c-0.1,0.1-0.3,0.1-0.6,0.1c-0.2,0-0.5,0-0.7,0
				c-0.1,0-0.3,0-0.5,0s-0.5,0-0.7,0s-0.4,0-0.5,0c-0.7,0-1.1-0.1-1.3-0.4c-0.2-0.3-0.3-0.8-0.3-1.4V51.4z M990.5,47.8h1.9v2.6
				c0,0.7-0.1,1.4-0.2,2.2s-0.3,1.6-0.6,2.4c-0.3,0.8-0.8,1.6-1.4,2.3c-0.6,0.8-1.5,1.5-2.5,2.1c-0.1-0.2-0.4-0.4-0.7-0.7
				c-0.3-0.3-0.6-0.5-0.8-0.6c0.9-0.6,1.7-1.2,2.3-1.9c0.6-0.7,1-1.3,1.3-2c0.3-0.7,0.5-1.4,0.6-2c0.1-0.7,0.1-1.3,0.1-1.8V47.8z
				 M987.1,53.4l1.2-1.4c0.7,0.3,1.4,0.6,2.2,1c0.7,0.4,1.5,0.8,2.1,1.2c0.7,0.4,1.2,0.8,1.6,1.2l-1.2,1.6c-0.4-0.4-0.9-0.8-1.6-1.2
				c-0.6-0.4-1.3-0.9-2.1-1.3C988.5,54.1,987.8,53.7,987.1,53.4z M987.4,44.6h11.5v1.8h-11.5V44.6z M987.5,49.6h7.9v1.9h-7.9V49.6z
				 M990.1,42.9h2.5v4.6h-2.5V42.9z M990.2,64.6l1.7-1.1c0.7,0.3,1.5,0.7,2.3,1.1c0.8,0.4,1.5,0.9,2.2,1.3s1.2,0.9,1.7,1.2l-1.8,1.2
				c-0.4-0.4-1-0.9-1.7-1.3c-0.7-0.5-1.4-0.9-2.2-1.4S990.9,64.9,990.2,64.6z M994.3,49.6h2.1v6.6c0,0.5,0,0.8,0.1,0.9
				c0.1,0.1,0.2,0.1,0.3,0.1c0.1,0,0.2,0,0.3,0c0.1,0,0.2,0,0.3,0c0.1,0,0.1,0,0.2,0c0.1,0,0.1,0,0.2-0.1c0.1-0.1,0.2-0.3,0.2-0.5
				c0-0.2,0.1-0.4,0.1-0.8c0-0.3,0-0.7,0-1.2c0.2,0.1,0.4,0.3,0.7,0.4s0.5,0.3,0.8,0.3c0,0.5,0,1-0.1,1.5s-0.1,0.8-0.2,1
				c-0.1,0.2-0.1,0.4-0.3,0.5c-0.1,0.1-0.3,0.2-0.5,0.3c-0.1,0.1-0.3,0.2-0.5,0.2s-0.4,0.1-0.6,0.1c-0.1,0-0.3,0-0.6,0s-0.4,0-0.5,0
				c-0.3,0-0.5,0-0.8-0.1c-0.3-0.1-0.5-0.2-0.6-0.4c-0.2-0.2-0.3-0.4-0.4-0.7c-0.1-0.3-0.1-0.8-0.1-1.6V49.6z"/>
			<path class="st0" d="M1008.9,48.5l2.3,0.8c-0.5,1.1-1.1,2.3-1.8,3.4c-0.7,1.1-1.4,2.2-2.2,3.2c-0.8,1-1.6,1.9-2.4,2.6
				c-0.1-0.2-0.2-0.4-0.4-0.7c-0.2-0.3-0.4-0.6-0.6-0.9c-0.2-0.3-0.4-0.5-0.5-0.7c1.1-0.9,2.2-2.1,3.2-3.4
				C1007.5,51.4,1008.3,50,1008.9,48.5z M1008.4,43l2.3,0.8c-0.5,0.8-1,1.5-1.6,2.3c-0.6,0.8-1.3,1.5-1.9,2.3
				c-0.7,0.7-1.4,1.3-2,1.9c-0.1-0.2-0.2-0.4-0.4-0.6c-0.2-0.2-0.3-0.5-0.5-0.7c-0.2-0.2-0.3-0.4-0.5-0.6c0.6-0.4,1.2-1,1.8-1.6
				c0.6-0.6,1.1-1.2,1.6-1.9C1007.7,44.2,1008.1,43.6,1008.4,43z M1006.7,54.1l2-2l0.3,0.1v15.9h-2.3V54.1z M1011.8,53.4h1.9
				c0,1.7-0.1,3.3-0.2,4.6c-0.1,1.4-0.3,2.6-0.7,3.6c-0.3,1-0.9,1.9-1.6,2.6c-0.1-0.2-0.3-0.5-0.6-0.8c-0.3-0.3-0.5-0.5-0.7-0.7
				c0.6-0.6,1-1.3,1.2-2.2c0.3-0.9,0.4-1.9,0.5-3C1011.8,56.3,1011.8,55,1011.8,53.4z M1011.1,49.5h10.4v2.3h-10.4V49.5z
				 M1014.9,43.1h2.2v24.8h-2.2V43.1z M1017.8,45.2l1.6-0.9c0.4,0.5,0.9,1.1,1.3,1.8c0.5,0.7,0.8,1.2,1,1.7l-1.7,1
				c-0.2-0.5-0.5-1-1-1.7C1018.7,46.4,1018.3,45.8,1017.8,45.2z M1018.4,53.4h1.9v7.2c0,0.3,0,0.6,0,0.7c0,0.1,0.1,0.2,0.2,0.2
				c0.1,0,0.3,0,0.4,0s0.3,0,0.4,0c0.1,0,0.3,0,0.4,0c0.2,0,0.3,0,0.4-0.1c0,0.2,0.1,0.5,0.1,0.9s0.1,0.7,0.1,0.9
				c-0.1,0.1-0.3,0.1-0.5,0.1c-0.2,0-0.4,0-0.6,0c-0.1,0-0.2,0-0.4,0c-0.2,0-0.3,0-0.4,0c-0.6,0-1.1-0.1-1.4-0.3
				c-0.3-0.2-0.5-0.5-0.6-0.9c-0.1-0.4-0.2-0.9-0.2-1.6V53.4z M1024.1,52.6h2.4v12.3c0,0.6-0.1,1.2-0.2,1.5
				c-0.1,0.4-0.4,0.7-0.9,0.9c-0.4,0.2-1,0.3-1.6,0.4c-0.6,0-1.4,0.1-2.4,0.1c0-0.4-0.1-0.8-0.3-1.2c-0.1-0.5-0.3-0.9-0.4-1.2
				c0.6,0,1.2,0,1.7,0s0.9,0,1.1,0c0.2,0,0.3,0,0.4-0.1c0.1-0.1,0.1-0.2,0.1-0.3V52.6z M1021.4,51.5h7.5v2.3h-7.5V51.5z M1022,45.1
				h6.5v2.3h-6.5V45.1z"/>
			<path class="st0" d="M1033,57.1c1.2-0.3,2.6-0.7,4.2-1.1c1.6-0.4,3.3-0.9,5-1.4l0.3,2.3c-1.5,0.4-3.1,0.9-4.6,1.4
				c-1.5,0.5-3,0.9-4.2,1.2L1033,57.1z M1033.3,48.3h8.8v2.4h-8.8V48.3z M1036.9,43h2.5v22.3c0,0.6-0.1,1.2-0.2,1.5
				c-0.1,0.4-0.4,0.6-0.8,0.8c-0.4,0.2-0.9,0.3-1.5,0.4c-0.6,0.1-1.4,0.1-2.3,0.1c0-0.3-0.1-0.7-0.3-1.1c-0.2-0.4-0.3-0.8-0.4-1.2
				c0.6,0,1.1,0,1.6,0c0.5,0,0.8,0,1,0c0.2,0,0.3,0,0.4-0.1c0.1-0.1,0.1-0.2,0.1-0.4V43z M1043,49.1h14.8v18.7h-2.5V51.5h-9.8V68
				h-2.4V49.1z M1044.5,56.2h11.5v2.4h-11.5V56.2z M1044.6,63.6h11.5V66h-11.5V63.6z M1049,43h2.4v22.1h-2.4V43z"/>
			<path class="st0" d="M1073.8,43h2.8c0,1.3,0,2.7-0.1,4.1c-0.1,1.5-0.2,3-0.4,4.5c-0.2,1.5-0.6,3.1-1.1,4.6c-0.5,1.5-1.2,3-2,4.5
				c-0.9,1.4-2,2.8-3.3,4c-1.4,1.2-3,2.3-4.9,3.2c-0.2-0.3-0.5-0.7-0.9-1.1c-0.4-0.4-0.7-0.7-1.1-1c1.9-0.8,3.5-1.8,4.7-3
				c1.3-1.1,2.3-2.3,3.1-3.7c0.8-1.3,1.4-2.7,1.8-4.1c0.4-1.4,0.7-2.8,0.9-4.3c0.2-1.4,0.3-2.8,0.3-4.1
				C1073.8,45.4,1073.8,44.1,1073.8,43z M1063.3,50.5h23.9v2.6h-23.9V50.5z M1076.8,51.6c0.6,2.1,1.4,4.1,2.3,5.9
				c1,1.8,2.2,3.4,3.6,4.8c1.4,1.4,3.1,2.5,5,3.3c-0.2,0.2-0.4,0.4-0.7,0.7c-0.2,0.3-0.5,0.6-0.7,0.9c-0.2,0.3-0.4,0.6-0.5,0.8
				c-2-0.9-3.7-2.2-5.2-3.7c-1.5-1.5-2.7-3.3-3.8-5.4c-1-2-1.9-4.3-2.6-6.7L1076.8,51.6z"/>
			<path class="st0" d="M1103.3,57.6h2.5v1.8c0,0.6-0.1,1.2-0.3,1.8c-0.2,0.7-0.5,1.3-1,2c-0.5,0.7-1.2,1.3-2.1,1.9
				c-0.9,0.6-2.1,1.2-3.6,1.7c-1.5,0.5-3.3,0.9-5.5,1.3c-0.1-0.3-0.4-0.6-0.6-1c-0.3-0.4-0.6-0.7-0.8-1c2-0.3,3.7-0.7,5-1.1
				s2.4-0.9,3.2-1.4c0.8-0.5,1.5-1,1.9-1.5c0.4-0.5,0.7-1,0.9-1.5c0.1-0.5,0.2-0.9,0.2-1.4V57.6z M1094.1,52h2.3v1.4
				c0,0.4-0.1,1-0.2,1.7c-0.1,0.7-0.3,1.3-0.7,2s-0.8,1.3-1.4,1.8c-0.1-0.1-0.3-0.2-0.6-0.4c-0.2-0.1-0.5-0.3-0.7-0.4
				c-0.2-0.1-0.5-0.2-0.7-0.3c0.6-0.4,1-0.9,1.2-1.5s0.4-1.1,0.5-1.6c0.1-0.5,0.1-1,0.1-1.3V52z M1092.2,60.2h24.9v2.1h-24.9V60.2z
				 M1092.4,51.2h7.3v2h-7.3V51.2z M1093.5,43.6h2.2v3.7h3.9v2h-6V43.6z M1098.2,43.1h2.3v15.4h-2.3V43.1z M1113.8,44.3h0.4l0.4-0.1
				l1.4,0.7c-0.6,1.1-1.4,2-2.3,2.7c-0.9,0.8-2,1.4-3.2,1.9c-1.2,0.5-2.4,0.9-3.8,1.3s-2.7,0.6-4.2,0.8c-0.1-0.2-0.3-0.5-0.5-0.8
				c-0.2-0.3-0.4-0.5-0.6-0.7c1.3-0.1,2.6-0.4,3.8-0.6c1.3-0.3,2.4-0.7,3.5-1.1c1.1-0.4,2.1-1,2.9-1.6c0.8-0.6,1.5-1.4,2-2.2V44.3z
				 M1101.5,51.6h15.2v1.8h-15.2V51.6z M1108.8,42.9l2.2,0.5c-1,0.8-2.1,1.6-3.4,2.2c-1.3,0.6-2.9,1.2-4.7,1.7
				c-0.1-0.2-0.3-0.5-0.6-0.8s-0.5-0.5-0.7-0.7c1.6-0.4,3.1-0.8,4.3-1.4C1107.2,44,1108.1,43.5,1108.8,42.9z M1102.3,47.8
				c0.6,0,1.3-0.1,2-0.1s1.5-0.1,2.4-0.2l0.1,1.3c-0.8,0.1-1.5,0.1-2.2,0.2c-0.7,0.1-1.4,0.1-2.1,0.2L1102.3,47.8z M1103.4,54.2
				l1.6-1.2c0.5,0.3,1.1,0.7,1.6,1.1c0.6,0.4,1,0.9,1.3,1.3l-1.7,1.3c-0.3-0.4-0.7-0.8-1.2-1.3C1104.5,55,1103.9,54.5,1103.4,54.2z
				 M1105.4,63.6l1.1-1.7c0.8,0.3,1.8,0.6,2.7,1c1,0.4,2,0.7,2.9,1.1c1,0.4,1.9,0.7,2.8,1.1c0.9,0.4,1.6,0.7,2.3,1l-1.2,2
				c-0.6-0.3-1.3-0.6-2.2-1c-0.9-0.4-1.8-0.8-2.8-1.2c-1-0.4-2-0.8-3-1.2S1106.2,63.9,1105.4,63.6z M1105.8,45.9l1.6-0.6
				c0.6,0.5,1.3,1,2,1.6c0.7,0.6,1.2,1.2,1.5,1.7l-1.7,0.6c-0.3-0.5-0.8-1-1.4-1.7C1107.1,46.9,1106.5,46.3,1105.8,45.9z
				 M1107.9,44.3h6.5v1.5h-8.4L1107.9,44.3z M1111,49.7h2.4v5.9c0,0.5-0.1,0.9-0.2,1.2c-0.1,0.3-0.4,0.5-0.8,0.7
				c-0.4,0.1-0.9,0.2-1.5,0.3c-0.6,0-1.3,0-2.1,0c-0.1-0.3-0.1-0.6-0.3-1c-0.1-0.4-0.3-0.7-0.4-0.9c0.6,0,1.1,0,1.5,0s0.8,0,0.9,0
				c0.2,0,0.3-0.1,0.4-0.1c0.1-0.1,0.1-0.1,0.1-0.3V49.7z M1109,58.6l1.2-1.1c0.5,0.3,1,0.7,1.5,1.1s0.9,0.7,1.2,1.1l-1.3,1.3
				c-0.3-0.3-0.7-0.7-1.2-1.1C1109.9,59.3,1109.4,58.9,1109,58.6z"/>
			<path class="st0" d="M1127.3,65.9c-0.6,0-1.1-0.2-1.4-0.6c-0.4-0.4-0.6-0.9-0.6-1.5s0.2-1.1,0.6-1.5c0.4-0.4,0.9-0.6,1.4-0.6
				s1,0.2,1.4,0.6s0.6,0.9,0.6,1.5s-0.2,1.1-0.6,1.5S1127.9,65.9,1127.3,65.9z M1126.2,59.1l-0.6-9.9l-0.1-3.6h3.6l-0.1,3.6
				l-0.6,9.9H1126.2z"/>
			<path class="st0" d="M1145.5,68.1h-8.7v-2.3h6.2v-15h2.5V68.1z"/>
			<path class="st0" d="M640.2,104.7v-5.8h-5.5v-2.3h5.5v-5.9h2.4v5.9h5.5v2.3h-5.5v5.8H640.2z"/>
			<path class="st0" d="M653.9,86.1h6.5v2.3h-4.3V110h-2.2V86.1z M659.9,86.1h0.4l0.4-0.1l1.7,0.9c-0.4,1.1-0.8,2.3-1.2,3.6
				c-0.4,1.3-0.9,2.4-1.3,3.5c0.9,1.1,1.5,2.2,1.8,3.1c0.3,1,0.4,1.9,0.4,2.7c0,0.8-0.1,1.5-0.3,2c-0.2,0.6-0.5,1-0.9,1.3
				c-0.2,0.1-0.4,0.3-0.6,0.3c-0.3,0.1-0.5,0.1-0.8,0.2c-0.3,0-0.5,0-0.9,0c-0.3,0-0.6,0-0.9,0c0-0.3-0.1-0.6-0.2-1.1
				c-0.1-0.4-0.3-0.8-0.4-1.1c0.3,0,0.5,0,0.8,0c0.2,0,0.5,0,0.6,0c0.3,0,0.6-0.1,0.8-0.2c0.2-0.1,0.3-0.4,0.4-0.7
				c0.1-0.3,0.1-0.7,0.1-1.1c0-0.7-0.1-1.5-0.4-2.4c-0.3-0.9-0.9-1.8-1.7-2.9c0.2-0.6,0.4-1.2,0.7-1.9c0.2-0.7,0.4-1.4,0.6-2.1
				c0.2-0.7,0.4-1.3,0.6-1.9c0.2-0.6,0.3-1.1,0.4-1.6V86.1z M663.5,110.1c-0.1-0.2-0.1-0.4-0.3-0.7c-0.1-0.3-0.3-0.5-0.4-0.8
				c-0.1-0.3-0.3-0.5-0.4-0.6c0.3-0.1,0.5-0.4,0.7-0.7s0.4-0.8,0.4-1.4V86.1h2.5v21.6c-0.3,0.2-0.6,0.4-0.9,0.6
				c-0.2,0.2-0.5,0.4-0.7,0.6c-0.3,0.2-0.5,0.4-0.6,0.6C663.6,109.7,663.5,109.9,663.5,110.1z M663.5,110.1l-0.2-2.2l1.1-0.9
				l5.9-1.4c0,0.4,0,0.8,0,1.2c0,0.5,0.1,0.8,0.1,1.1c-1.4,0.4-2.5,0.7-3.3,0.9c-0.8,0.2-1.5,0.4-2,0.6c-0.5,0.1-0.8,0.3-1.1,0.4
				C663.8,109.9,663.6,110,663.5,110.1z M664.7,86.1h10.8v12.1h-10.8V96h8.4v-7.7h-8.4V86.1z M664.9,91.1h9.5v2.1h-9.5V91.1z
				 M670,96.9c0.4,1.6,0.9,3.2,1.6,4.6c0.7,1.4,1.5,2.6,2.5,3.7c1,1.1,2.2,1.9,3.6,2.5c-0.2,0.2-0.4,0.4-0.6,0.6
				c-0.2,0.3-0.4,0.5-0.6,0.8c-0.2,0.3-0.4,0.5-0.5,0.8c-1.5-0.7-2.7-1.7-3.8-2.9c-1-1.2-1.9-2.7-2.6-4.3c-0.7-1.6-1.3-3.4-1.7-5.3
				L670,96.9z M675.5,98.9l1.7,1.8c-0.5,0.4-1.1,0.8-1.7,1.3c-0.6,0.4-1.2,0.8-1.8,1.2c-0.6,0.4-1.1,0.7-1.6,1l-1.4-1.6
				c0.5-0.3,1-0.7,1.6-1.1c0.6-0.4,1.1-0.8,1.7-1.3C674.6,99.7,675.1,99.2,675.5,98.9z"/>
			<path class="st0" d="M682,106.9c1.1-0.1,2.4-0.2,3.8-0.3c1.4-0.1,3-0.3,4.6-0.4c1.6-0.2,3.2-0.3,4.8-0.4l0,1.9
				c-1.5,0.2-3.1,0.4-4.6,0.5c-1.6,0.2-3,0.3-4.5,0.5c-1.4,0.2-2.7,0.3-3.9,0.4L682,106.9z M682.1,89.6h13.5v1.9h-13.5V89.6z
				 M694,85.2l1.2,1.9c-1.1,0.2-2.3,0.4-3.7,0.6c-1.4,0.2-2.8,0.3-4.3,0.4c-1.5,0.1-2.9,0.2-4.3,0.2c0-0.3-0.1-0.6-0.2-0.9
				c-0.1-0.4-0.2-0.7-0.4-0.9c1-0.1,2-0.1,3.1-0.2c1.1-0.1,2.1-0.2,3.2-0.3c1-0.1,2-0.2,3-0.4C692.4,85.5,693.2,85.4,694,85.2z
				 M682.7,102.5h12.4v1.9h-12.4V102.5z M682.8,92.9h12.3v8.2h-12.3V92.9z M684.9,94.6v1.6h8v-1.6H684.9z M684.9,97.8v1.6h8v-1.6
				H684.9z M687.7,87.4h2.3V107h-2.3V87.4z M698.4,85.4h2.5c0,2.2,0,4.3-0.1,6.4c0,2-0.2,4-0.4,5.8s-0.5,3.5-1,5.1s-1.1,3-1.9,4.3
				c-0.8,1.3-1.8,2.4-3.1,3.4c-0.1-0.2-0.3-0.4-0.5-0.7c-0.2-0.2-0.4-0.5-0.7-0.7c-0.2-0.2-0.5-0.4-0.7-0.5c1.2-0.9,2.2-1.9,2.9-3.1
				c0.7-1.2,1.3-2.5,1.7-3.9c0.4-1.4,0.7-3,0.8-4.7c0.2-1.7,0.2-3.5,0.3-5.4C698.4,89.5,698.4,87.5,698.4,85.4z M695.5,91.2h9.6v2.4
				h-9.6V91.2z M704,91.2h2.5c0,0.3,0,0.6,0,0.8c0,0.2,0,0.3,0,0.5c-0.1,2.8-0.1,5.2-0.2,7.1c-0.1,2-0.2,3.6-0.3,4.8
				c-0.1,1.2-0.2,2.2-0.4,2.9c-0.2,0.7-0.3,1.2-0.6,1.5c-0.3,0.4-0.6,0.7-0.9,0.8c-0.3,0.2-0.7,0.3-1.1,0.3
				c-0.4,0.1-0.9,0.1-1.5,0.1s-1.2,0-1.8-0.1c0-0.3-0.1-0.7-0.3-1.2s-0.3-0.9-0.5-1.2c0.6,0.1,1.2,0.1,1.7,0.1c0.5,0,0.9,0,1.2,0
				c0.2,0,0.4,0,0.5-0.1c0.1-0.1,0.3-0.2,0.4-0.4c0.2-0.2,0.3-0.6,0.4-1.2c0.1-0.6,0.2-1.5,0.3-2.7c0.1-1.2,0.2-2.7,0.2-4.6
				c0.1-1.9,0.1-4.1,0.2-6.8V91.2z"/>
			<path class="st0" d="M718.1,85.9l2.7,0.6c-0.5,1.5-1.1,3-1.9,4.4c-0.8,1.4-1.6,2.7-2.5,3.8c-0.9,1.2-1.9,2.2-3,3
				c-0.1-0.2-0.4-0.4-0.6-0.6s-0.5-0.5-0.8-0.7c-0.3-0.2-0.5-0.4-0.7-0.6c1.6-1.1,3-2.5,4.1-4.3C716.5,89.9,717.4,88,718.1,85.9z
				 M720.9,95.8h2.8c-0.1,1.5-0.4,2.9-0.7,4.4c-0.3,1.4-0.8,2.7-1.5,4c-0.7,1.3-1.6,2.4-2.8,3.4c-1.2,1-2.8,1.9-4.7,2.6
				c-0.1-0.2-0.3-0.5-0.4-0.8c-0.2-0.3-0.4-0.6-0.6-0.8c-0.2-0.3-0.4-0.5-0.6-0.7c1.8-0.6,3.2-1.3,4.3-2.2c1.1-0.9,1.9-1.8,2.5-2.9
				c0.6-1.1,1-2.2,1.2-3.4S720.8,97,720.9,95.8z M715.6,95h15.1v2.5h-15.1V95z M722.6,85.4h6v2.4h-6V85.4z M729.8,95h2.7
				c0,0.3,0,0.5,0,0.7c0,0.2,0,0.3,0,0.4c-0.1,2.1-0.2,3.8-0.3,5.3c-0.1,1.5-0.2,2.7-0.3,3.7c-0.1,1-0.3,1.7-0.4,2.3
				c-0.2,0.6-0.4,1-0.6,1.2c-0.3,0.4-0.6,0.7-1,0.8c-0.4,0.2-0.8,0.2-1.3,0.3c-0.5,0.1-1.1,0.1-1.8,0.1c-0.8,0-1.6,0-2.4-0.1
				c0-0.4-0.1-0.8-0.3-1.3c-0.2-0.5-0.3-0.9-0.6-1.3c0.8,0.1,1.6,0.1,2.3,0.1c0.7,0,1.2,0,1.6,0c0.3,0,0.5,0,0.7-0.1
				c0.2-0.1,0.3-0.2,0.5-0.3c0.2-0.2,0.4-0.8,0.6-1.6c0.2-0.8,0.3-2,0.4-3.7c0.1-1.6,0.2-3.7,0.3-6.3V95z M726.2,85.4h2.9
				c0.4,1.4,1,2.7,1.8,4c0.8,1.3,1.6,2.4,2.7,3.5c1,1,2.1,1.9,3.3,2.5c-0.2,0.2-0.4,0.4-0.6,0.7c-0.2,0.3-0.5,0.6-0.7,0.9
				c-0.2,0.3-0.4,0.6-0.5,0.8c-1.3-0.8-2.4-1.8-3.5-2.9c-1.1-1.2-2-2.4-2.8-3.8c-0.8-1.4-1.5-2.8-2-4.2h-0.6V85.4z"/>
			<path class="st0" d="M741.3,102.8h24.2v2.2h-24.2V102.8z M741.6,87.2h23.5v2.2h-23.5V87.2z M743.8,97.9h16.7v2h-16.7V97.9z
				 M744.9,90.9H762v5.7h-17.2V90.9z M752,101.3h2.7v6.2c0,0.7-0.1,1.2-0.3,1.5c-0.2,0.3-0.6,0.6-1.1,0.7c-0.5,0.1-1.2,0.2-2.1,0.2
				c-0.8,0-1.9,0-3.1,0c-0.1-0.3-0.2-0.7-0.4-1.1c-0.2-0.4-0.3-0.7-0.5-1c0.6,0,1.2,0,1.7,0c0.6,0,1.1,0,1.5,0c0.4,0,0.7,0,0.9,0
				c0.3,0,0.4-0.1,0.5-0.1c0.1-0.1,0.1-0.2,0.1-0.4V101.3z M747.4,92.7v2h11.9v-2H747.4z M751.3,85.2l2.6-0.5
				c0.3,0.5,0.6,1.1,0.8,1.7c0.2,0.6,0.4,1.2,0.5,1.6l-2.7,0.5c-0.1-0.4-0.2-1-0.5-1.6C751.8,86.4,751.5,85.8,751.3,85.2z M760,97.9
				h0.7l0.6-0.1l1.6,1.4c-0.9,0.5-1.9,0.9-2.9,1.4c-1.1,0.4-2.2,0.8-3.3,1.2c-1.1,0.4-2.3,0.7-3.4,0.9c-0.1-0.2-0.3-0.5-0.6-0.8
				c-0.3-0.3-0.5-0.5-0.6-0.7c1-0.2,2-0.5,3-0.8c1-0.3,2-0.7,2.8-1c0.9-0.4,1.6-0.7,2.2-1.1V97.9z"/>
			<path class="st0" d="M770.9,95.3c0-0.2-0.1-0.4-0.2-0.6c-0.1-0.3-0.2-0.5-0.3-0.8c-0.1-0.3-0.2-0.5-0.3-0.8
				c0.2-0.1,0.5-0.2,0.7-0.5c0.3-0.3,0.5-0.6,0.8-1c0.1-0.2,0.4-0.5,0.6-1c0.3-0.4,0.6-1,1-1.6c0.4-0.6,0.7-1.3,1-2
				c0.3-0.7,0.6-1.4,0.9-2.2l2.3,0.9c-0.7,1.5-1.5,3-2.4,4.4c-0.9,1.5-1.8,2.7-2.7,3.8v0.1c-0.3,0.2-0.6,0.3-0.8,0.4
				c-0.2,0.1-0.4,0.3-0.5,0.4C771,95.1,770.9,95.2,770.9,95.3z M771.4,102.5l2.1,0.3c-0.1,1.2-0.3,2.4-0.5,3.6
				c-0.2,1.2-0.5,2.3-0.8,3.1c-0.2-0.1-0.6-0.3-1-0.4c-0.4-0.1-0.8-0.2-1.1-0.3c0.3-0.8,0.6-1.8,0.8-3S771.3,103.7,771.4,102.5z
				 M771.1,101.5c0-0.2-0.1-0.4-0.2-0.7c-0.1-0.3-0.2-0.6-0.3-0.9c-0.1-0.3-0.2-0.6-0.3-0.8c0.3-0.1,0.6-0.2,1-0.5
				c0.3-0.3,0.7-0.7,1.1-1.2c0.2-0.2,0.6-0.6,1-1.2c0.4-0.6,0.9-1.2,1.4-2s1.1-1.6,1.6-2.5c0.5-0.9,1-1.8,1.5-2.7l2.1,1.3
				c-0.7,1.2-1.4,2.4-2.3,3.6c-0.8,1.2-1.7,2.3-2.5,3.4c-0.9,1.1-1.8,2-2.6,2.9v0.1c-0.3,0.2-0.6,0.3-0.8,0.4
				c-0.2,0.1-0.4,0.3-0.5,0.4C771.2,101.3,771.1,101.4,771.1,101.5z M770.9,95.3l-0.1-1.8l1.1-0.7l4.8-0.4c-0.1,0.3-0.1,0.7-0.1,1.1
				c0,0.4-0.1,0.7-0.1,0.9c-1.1,0.1-2,0.2-2.6,0.3s-1.2,0.2-1.6,0.2c-0.4,0.1-0.7,0.1-0.9,0.2C771.2,95.2,771,95.3,770.9,95.3z
				 M771.1,101.5l-0.1-1.9l1.1-0.8l7.3-0.9c-0.1,0.3-0.1,0.7-0.1,1.1c0,0.4,0,0.7,0,1c-1.7,0.3-3,0.5-4,0.6c-1,0.2-1.8,0.3-2.3,0.4
				c-0.6,0.1-1,0.2-1.2,0.3C771.4,101.4,771.2,101.4,771.1,101.5z M774.5,102.8l1.9-0.4c0.2,1,0.4,2,0.5,3.2c0.1,1.1,0.2,2.1,0.3,3
				l-2,0.4c0-0.6-0.1-1.2-0.1-1.9c-0.1-0.7-0.1-1.4-0.2-2.2C774.7,104.2,774.6,103.5,774.5,102.8z M777.1,95.8l1.9-0.6
				c0.3,0.6,0.5,1.2,0.7,1.9c0.2,0.7,0.4,1.4,0.6,2s0.3,1.2,0.4,1.7l-2,0.7c-0.1-0.5-0.2-1.1-0.4-1.8c-0.2-0.7-0.4-1.4-0.6-2.1
				C777.5,97.1,777.3,96.4,777.1,95.8z M777.3,102.3l1.7-0.5c0.3,0.8,0.6,1.7,0.9,2.7c0.3,1,0.5,1.8,0.6,2.6l-1.8,0.6
				c-0.1-0.7-0.3-1.6-0.6-2.6C777.9,104,777.6,103.1,777.3,102.3z M780.6,88.5H795v2.4h-14.4V88.5z M781.4,94.6h13v2.4h-13V94.6z
				 M781.9,99.4h11.7v10.5h-2.5v-8.2h-6.8v8.3h-2.4V99.4z M783.3,106.5h9.1v2.3h-9.1V106.5z M786.3,84.9h2.6v10.9h-2.6V84.9z"/>
			<path class="st0" d="M810.1,100.3l2.1,0.9c-0.8,1.1-1.8,2.2-3,3.2s-2.5,1.9-3.8,2.8c-1.4,0.8-2.7,1.5-4.1,2
				c-0.1-0.2-0.3-0.5-0.5-0.7c-0.2-0.3-0.4-0.5-0.6-0.8c-0.2-0.3-0.4-0.5-0.6-0.6c1-0.3,2-0.7,3-1.2c1-0.5,2-1,2.9-1.6
				c0.9-0.6,1.8-1.2,2.6-1.9C808.9,101.7,809.6,101,810.1,100.3z M800.3,99.3h23.9v2.3h-23.9V99.3z M802.9,86.2h18.8v11h-18.8V86.2z
				 M805.6,88.4v2.3H819v-2.3H805.6z M805.6,92.7v2.3H819v-2.3H805.6z M810.9,87.1h2.7V110h-2.7V87.1z M814.2,100.2
				c0.6,0.7,1.3,1.4,2.1,2c0.8,0.7,1.7,1.3,2.6,1.9c1,0.6,1.9,1.1,3,1.6c1,0.5,2,0.9,3,1.2c-0.2,0.2-0.4,0.4-0.6,0.6
				c-0.2,0.3-0.4,0.5-0.6,0.8c-0.2,0.3-0.4,0.5-0.5,0.7c-1-0.4-2-0.9-3-1.4c-1-0.6-2-1.2-3-1.9c-1-0.7-1.9-1.4-2.7-2.2
				c-0.9-0.8-1.6-1.6-2.3-2.4L814.2,100.2z"/>
			<path class="st0" d="M830.3,86h22.9v24h-2.5V88.1h-18V110h-2.4V86z M831.8,106.9h20.1v2.1h-20.1V106.9z M833.7,94.5h15.9V96
				h-15.9V94.5z M835.3,97h12.6v8.6h-12.6V97z M836.2,89.2H847v4.3h-10.8V89.2z M837.3,98.5v5.6h8.5v-5.6H837.3z M838.3,90.6v1.5
				h6.6v-1.5H838.3z M838.8,99.5h5.6v3.6h-5.6V99.5z M840.3,100.7v1.3h2.6v-1.3H840.3z M840.5,92.5h2.2v2.6h-2.2V92.5z"/>
			<path class="st0" d="M870.1,112.6c-1.5,0-2.9-0.2-4.2-0.7c-1.3-0.5-2.5-1.2-3.5-2.1c-1-0.9-1.8-2.1-2.4-3.5
				c-0.6-1.4-0.9-3-0.9-4.8c0-2.1,0.3-3.9,1-5.6c0.7-1.7,1.6-3.1,2.8-4.3c1.2-1.2,2.6-2.1,4.2-2.8c1.6-0.6,3.2-1,5-1
				c2.1,0,3.9,0.4,5.4,1.3c1.5,0.9,2.7,2.1,3.5,3.6c0.8,1.5,1.3,3.3,1.3,5.4c0,1.4-0.2,2.5-0.6,3.6s-0.9,1.9-1.5,2.6
				c-0.6,0.7-1.3,1.2-2.1,1.5c-0.7,0.3-1.5,0.5-2.2,0.5c-0.8,0-1.5-0.2-2.1-0.6c-0.6-0.4-1-1-1.1-1.7h-0.1c-0.5,0.6-1,1.1-1.7,1.5
				c-0.7,0.4-1.3,0.6-2,0.6c-1.1,0-2-0.4-2.7-1.2c-0.7-0.8-1.1-1.9-1.1-3.2c0-0.8,0.1-1.7,0.4-2.5c0.3-0.8,0.7-1.6,1.2-2.3
				c0.5-0.7,1.1-1.3,1.9-1.7s1.5-0.6,2.4-0.6c0.5,0,1,0.1,1.4,0.4c0.4,0.2,0.7,0.6,1,1.1h0.1l0.4-1.2h2l-1.3,6.3
				c-0.5,2.2,0,3.3,1.6,3.3c0.6,0,1.3-0.2,1.9-0.7c0.6-0.5,1.1-1.2,1.5-2.1c0.4-0.9,0.6-2,0.6-3.2c0-1.2-0.2-2.3-0.5-3.3
				c-0.3-1-0.9-1.9-1.6-2.7c-0.7-0.8-1.6-1.4-2.6-1.8c-1.1-0.4-2.3-0.6-3.7-0.6c-1.3,0-2.6,0.3-3.9,0.8c-1.3,0.5-2.4,1.3-3.4,2.3
				c-1,1-1.8,2.2-2.4,3.7s-0.9,3-0.9,4.8c0,1.5,0.2,2.8,0.7,3.9c0.5,1.1,1.1,2.1,1.9,2.9c0.8,0.8,1.8,1.4,2.9,1.8
				c1.1,0.4,2.3,0.6,3.5,0.6c0.9,0,1.7-0.1,2.6-0.4c0.8-0.2,1.6-0.6,2.2-0.9l0.8,1.8c-0.9,0.5-1.8,0.9-2.8,1.2
				C872.1,112.5,871.1,112.6,870.1,112.6z M869.6,104.1c0.4,0,0.8-0.1,1.2-0.4c0.4-0.3,0.9-0.7,1.3-1.3l0.8-4.6
				c-0.3-0.4-0.5-0.7-0.8-0.9c-0.3-0.2-0.6-0.3-1-0.3c-0.6,0-1.1,0.2-1.5,0.5c-0.4,0.3-0.8,0.7-1.1,1.2c-0.3,0.5-0.5,1-0.7,1.6
				c-0.2,0.6-0.3,1.1-0.3,1.6c0,0.9,0.2,1.5,0.6,1.9C868.6,103.9,869.1,104.1,869.6,104.1z"/>
			<path class="st0" d="M888.6,107.8V92.9h2.5l0.3,2.7h0.1c0.5-1,1.2-1.7,1.9-2.2c0.7-0.5,1.5-0.8,2.3-0.8c0.4,0,0.7,0,0.9,0.1
				c0.3,0.1,0.5,0.1,0.7,0.2l-0.5,2.7c-0.3-0.1-0.5-0.2-0.7-0.2c-0.2,0-0.5-0.1-0.8-0.1c-0.6,0-1.2,0.2-1.9,0.7
				c-0.7,0.5-1.2,1.3-1.7,2.5v9.2H888.6z"/>
			<path class="st0" d="M907.6,108.1c-1.2,0-2.4-0.3-3.4-0.9c-1.1-0.6-1.9-1.5-2.6-2.7c-0.7-1.2-1-2.6-1-4.2c0-1.7,0.3-3.1,1-4.2
				c0.7-1.2,1.5-2,2.6-2.7c1.1-0.6,2.2-0.9,3.4-0.9c0.9,0,1.8,0.2,2.6,0.5c0.8,0.4,1.6,0.9,2.2,1.5s1.2,1.5,1.5,2.4
				c0.4,1,0.6,2.1,0.6,3.3c0,1.6-0.3,3-1,4.2c-0.7,1.2-1.5,2.1-2.6,2.7C910,107.8,908.9,108.1,907.6,108.1z M907.6,105.5
				c0.8,0,1.4-0.2,2-0.6c0.6-0.4,1-1,1.3-1.8c0.3-0.8,0.5-1.7,0.5-2.7s-0.2-2-0.5-2.7s-0.7-1.4-1.3-1.8c-0.6-0.4-1.2-0.7-2-0.7
				c-0.8,0-1.5,0.2-2,0.7c-0.6,0.4-1,1.1-1.3,1.8s-0.5,1.7-0.5,2.7s0.2,2,0.5,2.7c0.3,0.8,0.7,1.4,1.3,1.8
				C906.2,105.3,906.9,105.5,907.6,105.5z"/>
			<path class="st0" d="M927.6,108.1c-0.7,0-1.4-0.2-2.1-0.5c-0.7-0.3-1.4-0.8-2-1.4h-0.1l-0.3,1.5h-2.5V86.2h3.1v5.7l-0.1,2.5
				c0.6-0.6,1.4-1,2.1-1.4c0.8-0.4,1.5-0.5,2.3-0.5c1.3,0,2.3,0.3,3.2,0.9c0.9,0.6,1.5,1.5,2,2.6c0.5,1.1,0.7,2.5,0.7,4
				c0,1.7-0.3,3.1-0.9,4.3c-0.6,1.2-1.4,2.1-2.4,2.8C929.8,107.8,928.7,108.1,927.6,108.1z M927,105.5c0.7,0,1.4-0.2,1.9-0.6
				s1-1,1.4-1.8c0.3-0.8,0.5-1.8,0.5-2.9c0-1-0.1-1.9-0.4-2.7c-0.2-0.7-0.6-1.3-1.1-1.7c-0.5-0.4-1.2-0.6-2-0.6
				c-0.6,0-1.2,0.1-1.7,0.4c-0.6,0.3-1.2,0.8-1.8,1.4v7.3c0.6,0.5,1.1,0.8,1.7,1C926.1,105.4,926.6,105.5,927,105.5z"/>
			<path class="st0" d="M946.1,108.1c-1.2,0-2.4-0.3-3.4-0.9c-1.1-0.6-1.9-1.5-2.6-2.7c-0.7-1.2-1-2.6-1-4.2c0-1.7,0.3-3.1,1-4.2
				c0.7-1.2,1.5-2,2.6-2.7c1.1-0.6,2.2-0.9,3.4-0.9c0.9,0,1.8,0.2,2.6,0.5c0.8,0.4,1.6,0.9,2.2,1.5c0.6,0.7,1.2,1.5,1.5,2.4
				c0.4,1,0.6,2.1,0.6,3.3c0,1.6-0.3,3-1,4.2s-1.5,2.1-2.6,2.7C948.5,107.8,947.3,108.1,946.1,108.1z M946.1,105.5
				c0.8,0,1.4-0.2,2-0.6c0.6-0.4,1-1,1.3-1.8c0.3-0.8,0.5-1.7,0.5-2.7s-0.2-2-0.5-2.7c-0.3-0.8-0.7-1.4-1.3-1.8
				c-0.6-0.4-1.2-0.7-2-0.7c-0.8,0-1.5,0.2-2,0.7c-0.6,0.4-1,1.1-1.3,1.8c-0.3,0.8-0.5,1.7-0.5,2.7s0.2,2,0.5,2.7
				c0.3,0.8,0.7,1.4,1.3,1.8C944.6,105.3,945.3,105.5,946.1,105.5z"/>
			<path class="st0" d="M959.2,107.8V92.9h2.5l0.3,2.7h0.1c0.5-1,1.2-1.7,1.9-2.2c0.7-0.5,1.5-0.8,2.3-0.8c0.4,0,0.7,0,0.9,0.1
				s0.5,0.1,0.7,0.2l-0.5,2.7c-0.3-0.1-0.5-0.2-0.7-0.2c-0.2,0-0.5-0.1-0.8-0.1c-0.6,0-1.2,0.2-1.9,0.7c-0.7,0.5-1.2,1.3-1.7,2.5
				v9.2H959.2z"/>
			<path class="st0" d="M978.2,108.1c-1.2,0-2.4-0.3-3.4-0.9c-1.1-0.6-1.9-1.5-2.6-2.7s-1-2.6-1-4.2c0-1.7,0.3-3.1,1-4.2
				s1.5-2,2.6-2.7c1.1-0.6,2.2-0.9,3.4-0.9c0.9,0,1.8,0.2,2.6,0.5c0.8,0.4,1.6,0.9,2.2,1.5s1.2,1.5,1.5,2.4s0.6,2.1,0.6,3.3
				c0,1.6-0.3,3-1,4.2s-1.5,2.1-2.6,2.7C980.6,107.8,979.4,108.1,978.2,108.1z M978.2,105.5c0.8,0,1.4-0.2,2-0.6
				c0.6-0.4,1-1,1.3-1.8c0.3-0.8,0.5-1.7,0.5-2.7s-0.2-2-0.5-2.7c-0.3-0.8-0.7-1.4-1.3-1.8c-0.6-0.4-1.2-0.7-2-0.7
				c-0.8,0-1.5,0.2-2,0.7c-0.6,0.4-1,1.1-1.3,1.8c-0.3,0.8-0.5,1.7-0.5,2.7s0.2,2,0.5,2.7c0.3,0.8,0.7,1.4,1.3,1.8
				C976.7,105.3,977.4,105.5,978.2,105.5z"/>
			<path class="st0" d="M997.3,108.1c-1.4,0-2.6-0.3-3.6-0.9c-1.1-0.6-1.9-1.5-2.5-2.7s-0.9-2.6-0.9-4.2c0-1.7,0.3-3.1,1-4.2
				c0.7-1.2,1.6-2,2.7-2.7c1.1-0.6,2.3-0.9,3.6-0.9c1,0,1.8,0.2,2.5,0.5c0.7,0.3,1.3,0.7,1.9,1.2l-1.5,2c-0.4-0.4-0.8-0.6-1.2-0.9
				c-0.4-0.2-0.9-0.3-1.4-0.3c-0.8,0-1.6,0.2-2.2,0.7c-0.6,0.4-1.2,1.1-1.5,1.8s-0.6,1.7-0.6,2.7s0.2,2,0.5,2.7
				c0.4,0.8,0.9,1.4,1.5,1.8c0.6,0.4,1.4,0.6,2.2,0.6c0.6,0,1.2-0.1,1.8-0.4c0.5-0.3,1-0.6,1.5-1l1.3,2.1c-0.7,0.6-1.4,1.1-2.3,1.4
				C999,108,998.2,108.1,997.3,108.1z"/>
			<path class="st0" d="M1007.7,107.8V86.2h3.1v13.9h0.1l5.8-7.2h3.5l-5,6.1l5.6,8.8h-3.4l-4-6.7l-2.5,2.9v3.9H1007.7z"/>
			<path class="st0" d="M1023.6,111.7v-1.9h14.4v1.9H1023.6z"/>
			<path class="st0" d="M1048.2,108.1c-1.1,0-2-0.2-2.7-0.7c-0.7-0.4-1.1-1.1-1.4-1.8c-0.3-0.8-0.4-1.7-0.4-2.7v-7.5h-2.2v-2.3
				l2.3-0.2l0.4-4.1h2.6v4.1h3.9v2.5h-3.9v7.5c0,0.9,0.2,1.6,0.5,2c0.3,0.5,0.9,0.7,1.7,0.7c0.3,0,0.5,0,0.8-0.1
				c0.3-0.1,0.5-0.2,0.8-0.2l0.6,2.3c-0.4,0.1-0.8,0.3-1.3,0.4C1049.3,108.1,1048.8,108.1,1048.2,108.1z"/>
			<path class="st0" d="M1059.1,108.1c-0.8,0-1.6-0.2-2.3-0.5c-0.7-0.4-1.2-0.9-1.6-1.5s-0.6-1.4-0.6-2.3c0-1.6,0.7-2.8,2.1-3.7
				c1.4-0.9,3.7-1.5,6.8-1.8c0-0.6-0.1-1.1-0.3-1.6c-0.2-0.5-0.4-0.9-0.9-1.2c-0.4-0.3-1-0.4-1.7-0.4c-0.8,0-1.5,0.2-2.2,0.5
				c-0.7,0.3-1.4,0.7-2.1,1.1l-1.2-2.1c0.5-0.3,1.1-0.6,1.7-0.9c0.6-0.3,1.3-0.5,2-0.7c0.7-0.2,1.5-0.3,2.2-0.3
				c1.2,0,2.3,0.2,3.1,0.7c0.8,0.5,1.4,1.2,1.8,2.1c0.4,0.9,0.6,2.1,0.6,3.4v8.9h-2.5l-0.2-1.7h-0.1c-0.7,0.6-1.4,1.1-2.2,1.5
				S1060,108.1,1059.1,108.1z M1060,105.7c0.6,0,1.3-0.1,1.8-0.4c0.6-0.3,1.1-0.7,1.8-1.3v-3.6c-1.5,0.2-2.6,0.4-3.5,0.7
				c-0.9,0.3-1.5,0.7-1.8,1.1c-0.4,0.4-0.6,0.9-0.6,1.5c0,0.7,0.2,1.3,0.7,1.6C1058.8,105.5,1059.4,105.7,1060,105.7z"/>
			<path class="st0" d="M1075.1,90.1c-0.6,0-1.1-0.2-1.4-0.5c-0.4-0.3-0.5-0.8-0.5-1.4c0-0.5,0.2-1,0.5-1.3c0.4-0.3,0.8-0.5,1.4-0.5
				c0.6,0,1,0.2,1.4,0.5c0.4,0.3,0.5,0.8,0.5,1.3c0,0.6-0.2,1-0.5,1.4C1076.1,90,1075.7,90.1,1075.1,90.1z M1073.5,107.8V92.9h3.1
				v14.9H1073.5z"/>
			<path class="st0" d="M1086.1,107.8l-4-14.9h3.1l2,8c0.1,0.7,0.3,1.4,0.4,2.1s0.3,1.4,0.4,2.1h0.1c0.1-0.7,0.3-1.4,0.4-2.1
				c0.2-0.7,0.3-1.4,0.5-2.1l2.1-8h2.9l2.1,8c0.2,0.7,0.4,1.4,0.5,2.1c0.2,0.7,0.3,1.4,0.5,2.1h0.1c0.1-0.7,0.3-1.4,0.4-2.1
				c0.1-0.7,0.3-1.4,0.4-2.1l1.9-8h2.9l-3.9,14.9h-3.7l-1.9-7.3c-0.2-0.7-0.3-1.4-0.5-2.1c-0.1-0.7-0.3-1.4-0.5-2.2h-0.1
				c-0.2,0.8-0.3,1.5-0.4,2.2c-0.1,0.7-0.3,1.4-0.5,2.1l-1.8,7.3H1086.1z"/>
			<path class="st0" d="M1111.7,108.1c-0.8,0-1.6-0.2-2.3-0.5c-0.7-0.4-1.2-0.9-1.6-1.5s-0.6-1.4-0.6-2.3c0-1.6,0.7-2.8,2.1-3.7
				c1.4-0.9,3.7-1.5,6.8-1.8c0-0.6-0.1-1.1-0.3-1.6c-0.2-0.5-0.4-0.9-0.9-1.2c-0.4-0.3-1-0.4-1.7-0.4c-0.8,0-1.5,0.2-2.2,0.5
				c-0.7,0.3-1.4,0.7-2.1,1.1l-1.2-2.1c0.5-0.3,1.1-0.6,1.7-0.9c0.6-0.3,1.3-0.5,2-0.7c0.7-0.2,1.5-0.3,2.2-0.3
				c1.2,0,2.3,0.2,3.1,0.7c0.8,0.5,1.4,1.2,1.8,2.1c0.4,0.9,0.6,2.1,0.6,3.4v8.9h-2.5l-0.2-1.7h-0.1c-0.7,0.6-1.4,1.1-2.2,1.5
				S1112.6,108.1,1111.7,108.1z M1112.6,105.7c0.6,0,1.3-0.1,1.8-0.4c0.6-0.3,1.1-0.7,1.8-1.3v-3.6c-1.5,0.2-2.6,0.4-3.5,0.7
				c-0.9,0.3-1.5,0.7-1.8,1.1c-0.4,0.4-0.6,0.9-0.6,1.5c0,0.7,0.2,1.3,0.7,1.6C1111.4,105.5,1112,105.7,1112.6,105.7z"/>
			<path class="st0" d="M1126.1,107.8V92.9h2.5l0.3,2.1h0.1c0.7-0.7,1.4-1.2,2.2-1.7c0.8-0.5,1.7-0.7,2.7-0.7c1.6,0,2.7,0.5,3.5,1.5
				c0.7,1,1.1,2.5,1.1,4.4v9.3h-3.1v-9c0-1.3-0.2-2.2-0.6-2.7c-0.4-0.5-1-0.8-1.9-0.8c-0.7,0-1.3,0.2-1.8,0.5
				c-0.5,0.3-1.1,0.8-1.8,1.5v10.5H1126.1z"/>
			<path class="st0" d="M637.3,142.3l2.1,0.4c-0.3,1.3-0.7,2.5-1.1,3.8c-0.5,1.2-1,2.3-1.6,3.1c-0.1-0.1-0.3-0.2-0.5-0.4
				c-0.2-0.2-0.4-0.3-0.7-0.5c-0.2-0.2-0.4-0.3-0.6-0.4c0.6-0.8,1-1.7,1.4-2.8C636.7,144.5,637,143.4,637.3,142.3z M635.1,130.2
				h12.4v2.2h-12.4V130.2z M636.5,134.3h10v6.9h-10V134.3z M640.4,140.5h2.3v8.9c0,0.5-0.1,0.9-0.2,1.3c-0.1,0.3-0.4,0.6-0.7,0.8
				c-0.4,0.2-0.8,0.3-1.3,0.3c-0.5,0-1.1,0.1-1.8,0.1c0-0.3-0.1-0.7-0.3-1.1c-0.1-0.4-0.3-0.8-0.5-1.1c0.5,0,0.9,0,1.3,0
				c0.4,0,0.7,0,0.8,0c0.2,0,0.4-0.1,0.4-0.4V140.5z M638.7,136.3v2.8h5.4v-2.8H638.7z M639.5,127.4l2.3-0.5
				c0.3,0.6,0.6,1.2,0.9,1.9c0.3,0.7,0.5,1.3,0.6,1.8l-2.5,0.6c-0.1-0.5-0.3-1.1-0.6-1.8C640,128.7,639.8,128,639.5,127.4z
				 M643.5,142.8l1.8-0.8c0.4,0.7,0.8,1.6,1.2,2.5c0.4,0.9,0.7,1.7,0.8,2.3l-1.9,0.9c-0.1-0.7-0.4-1.5-0.7-2.4
				C644.3,144.4,643.9,143.5,643.5,142.8z M651.4,127h2.4c0,1.7-0.1,3.5-0.1,5.3c-0.1,1.8-0.2,3.7-0.4,5.5c-0.2,1.8-0.5,3.6-1,5.3
				c-0.5,1.7-1.1,3.3-1.9,4.8c-0.8,1.5-1.8,2.8-3.1,4c-0.2-0.3-0.5-0.6-0.8-0.9c-0.3-0.3-0.7-0.5-1-0.7c1.2-1.1,2.2-2.3,2.9-3.7
				c0.7-1.4,1.3-2.9,1.7-4.5c0.4-1.6,0.7-3.3,0.9-5c0.2-1.7,0.3-3.5,0.3-5.2C651.4,130.3,651.4,128.6,651.4,127z M647.8,133.9h11.9
				v2.3h-11.9V133.9z M653.1,138h2.2v10.4c0,0.3,0,0.5,0,0.6c0,0.2,0.1,0.3,0.1,0.3c0.1,0.1,0.2,0.1,0.3,0.1c0.1,0,0.2,0,0.3,0
				c0.1,0,0.3,0,0.4,0s0.4,0,0.5,0c0.1,0,0.3,0,0.4,0c0.1,0,0.2,0,0.3-0.1c0.2-0.1,0.3-0.3,0.4-0.8c0-0.2,0.1-0.6,0.1-1.1
				c0-0.5,0-1.1,0-1.8c0.2,0.2,0.5,0.4,0.9,0.6c0.4,0.2,0.7,0.4,1.1,0.5c0,0.6-0.1,1.3-0.1,1.9c-0.1,0.6-0.1,1.1-0.2,1.4
				c-0.2,0.6-0.5,0.9-1,1.2c-0.2,0.1-0.4,0.2-0.7,0.2c-0.3,0-0.6,0.1-0.8,0.1c-0.1,0-0.3,0-0.5,0c-0.2,0-0.4,0-0.7,0
				c-0.2,0-0.4,0-0.5,0c-0.3,0-0.6,0-0.9-0.1c-0.3-0.1-0.6-0.2-0.8-0.4c-0.2-0.2-0.4-0.5-0.5-0.8c-0.1-0.3-0.2-1-0.2-1.9V138z
				 M654.4,129.1l1.7-1c0.5,0.6,1.1,1.3,1.6,2c0.5,0.8,0.9,1.4,1.2,2l-1.8,1.1c-0.1-0.4-0.4-0.8-0.7-1.3c-0.3-0.5-0.6-1-1-1.5
				C655.2,129.9,654.8,129.5,654.4,129.1z"/>
			<path class="st0" d="M665.9,136.6h2.4v6.4c0,0.9-0.1,1.9-0.2,3c-0.1,1.1-0.3,2.2-0.6,3.2c-0.3,1.1-0.8,2-1.4,2.8
				c-0.1-0.2-0.3-0.4-0.5-0.6c-0.2-0.2-0.4-0.4-0.7-0.7c-0.2-0.2-0.4-0.4-0.6-0.5c0.5-0.7,0.9-1.5,1.1-2.3c0.2-0.8,0.4-1.7,0.4-2.6
				c0.1-0.9,0.1-1.7,0.1-2.5V136.6z M665.7,135.3c-0.1-0.2-0.1-0.4-0.2-0.7c-0.1-0.3-0.2-0.6-0.3-0.9c-0.1-0.3-0.2-0.6-0.3-0.8
				c0.2-0.1,0.4-0.2,0.7-0.4c0.2-0.2,0.5-0.4,0.8-0.7c0.2-0.2,0.5-0.5,0.9-1c0.4-0.5,0.8-1.1,1.3-1.8c0.5-0.7,0.9-1.4,1.2-2.1
				l2.6,0.8c-0.5,0.8-1,1.6-1.6,2.3c-0.6,0.8-1.2,1.5-1.8,2.2c-0.6,0.7-1.2,1.3-1.7,1.8v0.1c-0.3,0.2-0.6,0.3-0.8,0.4
				c-0.2,0.1-0.4,0.3-0.5,0.4C665.7,135.1,665.7,135.2,665.7,135.3z M665.7,135.3l-0.1-1.9l1.3-0.8l8.4-0.6c0.1,0.3,0.1,0.7,0.2,1.1
				c0.1,0.4,0.2,0.7,0.3,1c-2.1,0.2-3.7,0.3-5,0.5c-1.3,0.1-2.2,0.2-2.9,0.3c-0.7,0.1-1.2,0.2-1.5,0.2
				C666.1,135.1,665.9,135.2,665.7,135.3z M667.2,136.6h7.5v2.2h-7.5V136.6z M667.9,146.6c0.8-0.4,1.7-0.8,2.8-1.3
				c1.1-0.5,2.2-1.1,3.3-1.7l0.5,1.6c-1,0.6-2,1.3-3,1.9c-1,0.6-1.9,1.2-2.8,1.8L667.9,146.6z M668.3,141.2l1.3-1.2
				c0.4,0.3,0.9,0.6,1.4,0.9c0.5,0.3,1,0.7,1.4,1c0.4,0.3,0.8,0.6,1.1,0.9l-1.3,1.4c-0.3-0.3-0.6-0.6-1.1-0.9
				c-0.4-0.3-0.9-0.7-1.4-1C669.2,141.8,668.7,141.5,668.3,141.2z M673.4,136.6h2.4v12.9c0,0.6-0.1,1-0.2,1.4
				c-0.1,0.3-0.4,0.6-0.8,0.8c-0.4,0.2-0.9,0.3-1.5,0.3c-0.6,0-1.3,0.1-2.1,0.1c-0.1-0.3-0.2-0.7-0.3-1c-0.2-0.4-0.3-0.7-0.5-1
				c0.6,0,1.1,0,1.6,0c0.5,0,0.8,0,1,0c0.2,0,0.3,0,0.4-0.1c0.1-0.1,0.1-0.2,0.1-0.3V136.6z M672,129.7l2.1-0.8
				c0.4,0.6,0.8,1.3,1.3,2.1c0.4,0.7,0.8,1.5,1.2,2.2c0.4,0.7,0.7,1.3,0.9,1.9l-2.2,0.9c-0.2-0.6-0.5-1.2-0.8-1.9
				c-0.4-0.7-0.8-1.5-1.2-2.2C672.9,131.1,672.5,130.4,672,129.7z M678,127h2.5v8.2c0,0.5,0.1,0.9,0.2,1.1c0.1,0.2,0.4,0.3,0.9,0.3
				c0.2,0,0.5,0,0.9,0c0.4,0,0.9,0,1.3,0c0.5,0,0.9,0,1.4,0c0.4,0,0.7,0,0.9,0c0.4,0,0.8,0,1.3-0.1c0.5,0,0.9-0.1,1.1-0.1
				c0,0.3,0.1,0.7,0.1,1.1c0,0.4,0.1,0.8,0.1,1.1c-0.3,0.1-0.6,0.1-1.1,0.1c-0.5,0-1,0-1.4,0c-0.2,0-0.4,0-0.7,0c-0.3,0-0.7,0-1.1,0
				c-0.4,0-0.8,0-1.2,0c-0.4,0-0.7,0-1,0c-0.3,0-0.5,0-0.6,0c-0.9,0-1.6-0.1-2.1-0.4c-0.5-0.2-0.9-0.6-1.1-1.1
				c-0.2-0.5-0.3-1.2-0.3-2.1V127z M678,139.6h2.5v8.9c0,0.5,0.1,0.7,0.3,0.9c0.2,0.1,0.6,0.2,1.2,0.2c0.1,0,0.4,0,0.7,0
				c0.3,0,0.7,0,1.1,0c0.4,0,0.8,0,1.2,0c0.4,0,0.6,0,0.8,0c0.4,0,0.6-0.1,0.8-0.2c0.2-0.2,0.3-0.5,0.4-0.9c0.1-0.5,0.1-1.2,0.2-2.1
				c0.3,0.2,0.7,0.4,1.1,0.5c0.4,0.2,0.8,0.3,1.2,0.4c-0.1,1.2-0.2,2.1-0.5,2.8c-0.2,0.7-0.6,1.1-1,1.4c-0.5,0.3-1.1,0.4-1.9,0.4
				c-0.1,0-0.3,0-0.6,0c-0.3,0-0.6,0-1,0c-0.4,0-0.8,0-1.1,0c-0.4,0-0.7,0-1,0c-0.3,0-0.5,0-0.6,0c-1,0-1.7-0.1-2.2-0.3
				c-0.5-0.2-0.9-0.5-1.1-1c-0.2-0.5-0.3-1.1-0.3-2V139.6z M679.6,130.5h8v2.2h-8V130.5z M679.6,142.6h8.3v2.3h-8.3V142.6z"/>
			<path class="st0" d="M693.3,141.1c1.2-0.3,2.6-0.7,4.2-1.1c1.6-0.4,3.3-0.9,5-1.4l0.3,2.3c-1.5,0.4-3.1,0.9-4.6,1.4
				c-1.5,0.5-3,0.9-4.2,1.2L693.3,141.1z M693.7,132.3h8.8v2.4h-8.8V132.3z M697.2,127h2.5v22.3c0,0.6-0.1,1.2-0.2,1.5
				c-0.1,0.4-0.4,0.6-0.8,0.8c-0.4,0.2-0.9,0.3-1.5,0.4c-0.6,0.1-1.4,0.1-2.3,0.1c0-0.3-0.1-0.7-0.3-1.1c-0.2-0.4-0.3-0.8-0.4-1.2
				c0.6,0,1.1,0,1.6,0c0.5,0,0.8,0,1,0c0.2,0,0.3,0,0.4-0.1c0.1-0.1,0.1-0.2,0.1-0.4V127z M703.3,133.1h14.8v18.7h-2.5v-16.3h-9.8
				V152h-2.4V133.1z M704.8,140.2h11.5v2.4h-11.5V140.2z M704.9,147.6h11.5v2.5h-11.5V147.6z M709.4,127h2.4v22.1h-2.4V127z"/>
			<path class="st0" d="M734.1,127h2.8c0,1.3,0,2.7-0.1,4.1c-0.1,1.5-0.2,3-0.4,4.5c-0.2,1.5-0.6,3.1-1.1,4.6c-0.5,1.5-1.2,3-2,4.5
				c-0.9,1.4-2,2.8-3.3,4c-1.4,1.2-3,2.3-4.9,3.2c-0.2-0.3-0.5-0.7-0.9-1.1c-0.4-0.4-0.7-0.7-1.1-1c1.9-0.8,3.5-1.8,4.7-3
				c1.3-1.1,2.3-2.3,3.1-3.7c0.8-1.3,1.4-2.7,1.8-4.1c0.4-1.4,0.7-2.8,0.9-4.3c0.2-1.4,0.3-2.8,0.3-4.1
				C734.1,129.4,734.1,128.1,734.1,127z M723.7,134.5h23.9v2.6h-23.9V134.5z M737.1,135.6c0.6,2.1,1.4,4.1,2.3,5.9
				c1,1.8,2.2,3.4,3.6,4.8c1.4,1.4,3.1,2.5,5,3.3c-0.2,0.2-0.4,0.4-0.7,0.7c-0.2,0.3-0.5,0.6-0.7,0.9c-0.2,0.3-0.4,0.6-0.5,0.8
				c-2-0.9-3.7-2.2-5.2-3.7c-1.5-1.5-2.7-3.3-3.8-5.4c-1-2-1.9-4.3-2.6-6.7L737.1,135.6z"/>
			<path class="st0" d="M763.6,141.6h2.5v1.8c0,0.6-0.1,1.2-0.3,1.8c-0.2,0.7-0.5,1.3-1,2c-0.5,0.7-1.2,1.3-2.1,1.9
				c-0.9,0.6-2.1,1.2-3.6,1.7c-1.5,0.5-3.3,0.9-5.5,1.3c-0.1-0.3-0.4-0.6-0.6-1c-0.3-0.4-0.6-0.7-0.8-1c2-0.3,3.7-0.7,5-1.1
				c1.3-0.4,2.4-0.9,3.2-1.4c0.8-0.5,1.5-1,1.9-1.5c0.4-0.5,0.7-1,0.9-1.5c0.1-0.5,0.2-0.9,0.2-1.4V141.6z M754.4,136h2.3v1.4
				c0,0.4-0.1,1-0.2,1.7c-0.1,0.7-0.3,1.3-0.7,2c-0.3,0.7-0.8,1.3-1.4,1.8c-0.1-0.1-0.3-0.2-0.6-0.4c-0.2-0.1-0.5-0.3-0.7-0.4
				c-0.2-0.1-0.5-0.2-0.7-0.3c0.6-0.4,1-0.9,1.2-1.5s0.4-1.1,0.5-1.6c0.1-0.5,0.1-1,0.1-1.3V136z M752.6,144.2h24.9v2.1h-24.9V144.2
				z M752.7,135.2h7.3v2h-7.3V135.2z M753.9,127.6h2.2v3.7h3.9v2h-6V127.6z M758.6,127.1h2.3v15.4h-2.3V127.1z M774.1,128.3h0.4
				l0.4-0.1l1.4,0.7c-0.6,1.1-1.4,2-2.3,2.7c-0.9,0.8-2,1.4-3.2,1.9c-1.2,0.5-2.4,0.9-3.8,1.3c-1.3,0.3-2.7,0.6-4.2,0.8
				c-0.1-0.2-0.3-0.5-0.5-0.8c-0.2-0.3-0.4-0.5-0.6-0.7c1.3-0.1,2.6-0.4,3.8-0.6c1.3-0.3,2.4-0.7,3.5-1.1c1.1-0.4,2.1-1,2.9-1.6
				c0.8-0.6,1.5-1.4,2-2.2V128.3z M761.9,135.6H777v1.8h-15.2V135.6z M769.2,126.9l2.2,0.5c-1,0.8-2.1,1.6-3.4,2.2s-2.9,1.2-4.7,1.7
				c-0.1-0.2-0.3-0.5-0.6-0.8c-0.3-0.3-0.5-0.5-0.7-0.7c1.6-0.4,3.1-0.8,4.3-1.4C767.5,128,768.5,127.5,769.2,126.9z M762.6,131.8
				c0.6,0,1.3-0.1,2-0.1s1.5-0.1,2.4-0.2l0.1,1.3c-0.8,0.1-1.5,0.1-2.2,0.2c-0.7,0.1-1.4,0.1-2.1,0.2L762.6,131.8z M763.7,138.2
				l1.6-1.2c0.5,0.3,1.1,0.7,1.6,1.1c0.6,0.4,1,0.9,1.3,1.3l-1.7,1.3c-0.3-0.4-0.7-0.8-1.2-1.3C764.8,139,764.3,138.5,763.7,138.2z
				 M765.7,147.6l1.1-1.7c0.8,0.3,1.8,0.6,2.7,1c1,0.4,2,0.7,2.9,1.1c1,0.4,1.9,0.7,2.8,1.1c0.9,0.4,1.6,0.7,2.3,1l-1.2,2
				c-0.6-0.3-1.3-0.6-2.2-1c-0.9-0.4-1.8-0.8-2.8-1.2c-1-0.4-2-0.8-3-1.2C767.5,148.3,766.6,147.9,765.7,147.6z M766.2,129.9
				l1.6-0.6c0.6,0.5,1.3,1,2,1.6c0.7,0.6,1.2,1.2,1.5,1.7l-1.7,0.6c-0.3-0.5-0.8-1-1.4-1.7C767.5,130.9,766.8,130.3,766.2,129.9z
				 M768.3,128.3h6.5v1.5h-8.4L768.3,128.3z M771.4,133.7h2.4v5.9c0,0.5-0.1,0.9-0.2,1.2c-0.1,0.3-0.4,0.5-0.8,0.7
				c-0.4,0.1-0.9,0.2-1.5,0.3c-0.6,0-1.3,0-2.1,0c-0.1-0.3-0.1-0.6-0.3-1c-0.1-0.4-0.3-0.7-0.4-0.9c0.6,0,1.1,0,1.5,0s0.8,0,0.9,0
				c0.2,0,0.3-0.1,0.4-0.1c0.1-0.1,0.1-0.1,0.1-0.3V133.7z M769.3,142.6l1.2-1.1c0.5,0.3,1,0.7,1.5,1.1c0.5,0.4,0.9,0.7,1.2,1.1
				l-1.3,1.3c-0.3-0.3-0.7-0.7-1.2-1.1C770.3,143.3,769.8,142.9,769.3,142.6z"/>
			<path class="st0" d="M787.7,149.9c-0.6,0-1.1-0.2-1.4-0.6c-0.4-0.4-0.6-0.9-0.6-1.5s0.2-1.1,0.6-1.5c0.4-0.4,0.9-0.6,1.4-0.6
				c0.6,0,1,0.2,1.4,0.6c0.4,0.4,0.6,0.9,0.6,1.5s-0.2,1.1-0.6,1.5C788.7,149.8,788.2,149.9,787.7,149.9z M786.6,143.1l-0.6-9.9
				l-0.1-3.6h3.6l-0.1,3.6l-0.6,9.9H786.6z"/>
		</g>
	</g>
	<line class="st1" x1="477.7" y1="0" x2="477.7" y2="153.2"/>
	<g>
		<g>
			<circle class="st2" cx="61.9" cy="92" r="51.2"/>
			<path d="M53.7,100.6v31.6h15.9v-31.6h10.4l2.8-13.4H70.1V76.6c0-2.4,1.9-4.4,4.4-4.4h8.3V60.4l-12.4-1h0
				C61,60,53.7,67.7,53.7,77.1v10.6H42.8v12.6L53.7,100.6z"/>
		</g>
		<g>
			<circle class="st0" cx="18.2" cy="126.6" r="18.2"/>
			<path class="st3" d="M28.1,125.6l-7.3-6.8c-0.5-0.5-1.3-0.1-1.3,0.5v3.3c-2.2,0.2-9.2,1.5-11.6,11.8c-0.1,0.3,0.2,0.5,0.5,0.3
				c1.8-1.2,6.9-4.3,11.1-4.5v2.8c0,0.7,0.8,1,1.3,0.5l7.3-6.8C28.5,126.4,28.5,125.8,28.1,125.6z"/>
		</g>
	</g>
	<g>
		<g>
			<g>
				<circle class="st2" cx="559.4" cy="83.1" r="51.2"/>
			</g>
			<g>
				<g>
					<path d="M571.7,117.2H547c-12,0-21.8-9.8-21.8-21.8V70.7c0-12,9.8-21.8,21.8-21.8h24.7c12,0,21.8,9.8,21.8,21.8v24.7
						C593.5,107.4,583.7,117.2,571.7,117.2z M547,55.9c-8.2,0-14.8,6.6-14.8,14.8v24.7c0,8.2,6.6,14.8,14.8,14.8h24.7
						c8.2,0,14.8-6.6,14.8-14.8V70.7c0-8.2-6.6-14.8-14.8-14.8H547z"/>
				</g>
				<g>
					<path d="M559.4,99.9c-9.3,0-16.9-7.6-16.9-16.9s7.6-16.9,16.9-16.9c9.3,0,16.9,7.6,16.9,16.9S568.7,99.9,559.4,99.9z
						 M559.4,73.1c-5.5,0-9.9,4.4-9.9,9.9c0,5.5,4.4,9.9,9.9,9.9c5.5,0,9.9-4.4,9.9-9.9C569.3,77.6,564.8,73.1,559.4,73.1z"/>
				</g>
				<circle cx="576.8" cy="65.6" r="4.1"/>
			</g>
		</g>
		<g>
			<circle class="st0" cx="519" cy="126.6" r="18.2"/>
			<path class="st3" d="M528.9,125.6l-7.3-6.8c-0.5-0.5-1.3-0.1-1.3,0.5v3.3c-2.2,0.2-9.2,1.5-11.6,11.8c-0.1,0.3,0.2,0.5,0.5,0.3
				c1.8-1.2,6.9-4.3,11.1-4.5v2.8c0,0.7,0.8,1,1.3,0.5l7.3-6.8C529.3,126.4,529.3,125.8,528.9,125.6z"/>
		</g>
	</g>
</g>
</svg>
