<!-- Generator: Adobe Illustrator 25.0.0, SVG Export Plug-In  -->
<svg version="1.1" xmlns="http://www.w3.org/2000/svg" xmlns:xlink="http://www.w3.org/1999/xlink" x="0px" y="0px" width="318.3px"
	 height="129px" viewBox="0 0 318.3 129" style="overflow:visible;enable-background:new 0 0 318.3 129;" xml:space="preserve">
<style type="text/css">
	.st0{fill:#333337;}
</style>
<defs>
</defs>
<g>
	<path class="st0" d="M6.6,0.2l2.7,0.8C8.7,2.8,8,4.6,7.2,6.3c-0.8,1.8-1.7,3.4-2.7,5c-1,1.6-2,2.9-3.1,4.1
		c-0.1-0.2-0.2-0.5-0.4-0.9c-0.2-0.4-0.3-0.8-0.5-1.2c-0.2-0.4-0.4-0.7-0.5-1c0.9-1,1.8-2.1,2.6-3.4c0.8-1.3,1.6-2.7,2.3-4.2
		C5.5,3.3,6.1,1.8,6.6,0.2z M4.1,8.2l2.8-2.8l0,0v23.4H4.1V8.2z M10.1,1.9h18.4v26.8h-2.8V4.4H12.8v24.4h-2.7V1.9z M11.6,24.5h15.6
		V27H11.6V24.5z M13.9,8.6h10.9v2.2H13.9V8.6z M15,14h8.8v8.3H15V14z M17.1,16v4.2h4.3V16H17.1z M18.1,5.3h2.3v9.9h-2.3V5.3z"/>
	<path class="st0" d="M48.3,0.2h3.3c0,1-0.1,2.2-0.2,3.6c-0.1,1.4-0.2,3-0.5,4.8c-0.3,1.7-0.7,3.5-1.2,5.4c-0.6,1.8-1.3,3.7-2.3,5.5
		c-1,1.8-2.2,3.5-3.7,5.1c-1.5,1.6-3.4,3-5.5,4.2c-0.2-0.4-0.6-0.8-1-1.2c-0.4-0.4-0.9-0.8-1.4-1.1c2.1-1.1,3.9-2.4,5.4-3.9
		c1.4-1.5,2.6-3.1,3.5-4.8c0.9-1.7,1.6-3.4,2.1-5.1c0.5-1.7,0.8-3.4,1.1-5c0.2-1.6,0.3-3.1,0.4-4.4C48.2,2.1,48.3,1,48.3,0.2z
		 M51.3,4c0,0.4,0.1,1.1,0.2,2c0.1,1,0.3,2.2,0.7,3.5c0.3,1.4,0.8,2.8,1.4,4.4c0.6,1.5,1.4,3.1,2.4,4.6c1,1.5,2.2,2.9,3.6,4.3
		c1.4,1.3,3.1,2.4,5.1,3.3c-0.4,0.4-0.8,0.8-1.2,1.2c-0.4,0.5-0.7,0.9-0.9,1.3c-2.1-1-3.8-2.2-5.3-3.6c-1.5-1.4-2.7-3-3.8-4.6
		c-1-1.7-1.8-3.3-2.4-5c-0.6-1.7-1.1-3.3-1.4-4.8c-0.3-1.5-0.6-2.8-0.7-3.9c-0.2-1.1-0.3-1.9-0.3-2.4L51.3,4z"/>
	<path class="st0" d="M74.9,26.3h-2.8v-22h2.8V26.3z"/>
	<path class="st0" d="M97.6,23.5l-0.5,0.6c-1.4,1.6-3.4,2.4-6.1,2.4c-2.4,0-4.3-0.8-5.6-2.4c-1.4-1.6-2.1-3.8-2.1-6.7v-4.3
		c0-3.1,0.6-5.4,1.9-6.9c1.2-1.5,3.1-2.3,5.5-2.3c2.1,0,3.7,0.6,4.9,1.7c1.2,1.2,1.8,2.8,2,5h-2.8c-0.1-1.4-0.5-2.4-1.1-3.2
		c-0.7-0.8-1.6-1.2-3-1.2c-1.6,0-2.7,0.5-3.5,1.6c-0.7,1-1.1,2.7-1.2,5v4.5c0,2.2,0.4,3.9,1.3,5.1c0.8,1.2,2.1,1.8,3.6,1.8
		c1.5,0,2.6-0.4,3.4-1.1l0.4-0.4v-5.1h-4v-2.4h6.8V23.5z"/>
	<path class="st0" d="M104.8,21.1h13v2.6h-13V21.1z M105.2,3.3h12.1v2.6h-12.1V3.3z M105.9,7.9h11.2v11h-11.2V7.9z M108,10v2.4h6.8
		V10H108z M108,14.4v2.4h6.8v-2.4H108z M110.1,0.1h2.6v8.7h-2.6V0.1z M110.4,8.9h2v8.9h0.3v11.1h-2.6V17.8h0.3V8.9z M117.7,16.1
		c1.2,0,2.5,0,4-0.1c1.5,0,3.1,0,4.9-0.1c1.7,0,3.4-0.1,5.1-0.1l-0.1,2c-1.7,0.1-3.3,0.1-5,0.2s-3.2,0.1-4.7,0.1
		c-1.5,0-2.8,0.1-4,0.1L117.7,16.1z M117.7,19.8h15.9V22h-15.9V19.8z M118,2.3h15.2v2.2H118V2.3z M118.6,6h14v8.2h-14V6z
		 M119.3,23.1l2-1.1c0.6,0.5,1.2,1.1,1.7,1.8c0.5,0.7,1,1.3,1.3,1.8l-2.1,1.4c-0.2-0.6-0.6-1.2-1.2-1.9
		C120.5,24.3,119.9,23.6,119.3,23.1z M121,7.7v1.6h9.1V7.7H121z M121,10.9v1.6h9.1v-1.6H121z M127.2,18.3h2.7v7.9
		c0,0.7-0.1,1.2-0.2,1.5c-0.2,0.4-0.5,0.6-1,0.8c-0.5,0.2-1.1,0.3-1.8,0.3c-0.7,0-1.6,0.1-2.7,0.1c-0.1-0.4-0.2-0.8-0.3-1.2
		c-0.2-0.4-0.3-0.8-0.5-1.2c0.7,0,1.4,0,2,0c0.6,0,1.1,0,1.3,0c0.2,0,0.4-0.1,0.4-0.1s0.1-0.2,0.1-0.3V18.3z M124.2,0.1h2.5v16.7
		h-2.5V0.1z M128.4,14.7l2-1c0.7,0.6,1.3,1.3,2,2.1c0.7,0.8,1.1,1.5,1.5,2.1l-2,1.1c-0.3-0.6-0.8-1.4-1.4-2.2
		C129.7,16.1,129,15.4,128.4,14.7z"/>
	<path class="st0" d="M150.8,1.3h0.5l0.5-0.1l1.8,0.9c-0.8,1.8-1.8,3.3-3.1,4.7c-1.3,1.4-2.8,2.5-4.4,3.5c-1.6,1-3.3,1.8-5,2.4
		c-0.2-0.3-0.4-0.7-0.7-1.1c-0.3-0.4-0.6-0.8-0.9-1c1.2-0.4,2.3-0.8,3.5-1.4c1.1-0.6,2.2-1.2,3.2-2c1-0.8,1.9-1.6,2.7-2.5
		c0.8-0.9,1.4-1.9,1.8-2.9V1.3z M142,5.5l1.7-1.6c0.7,0.4,1.4,0.8,2.2,1.3c0.8,0.5,1.4,1,1.8,1.4l-1.8,1.7c-0.4-0.4-1-0.9-1.7-1.5
		C143.5,6.4,142.7,6,142,5.5z M143.3,14.6h2.4c-0.1,1.2-0.3,2.5-0.5,3.8c-0.2,1.3-0.4,2.4-0.6,3.4h-2.4c0.1-0.6,0.3-1.4,0.4-2.2
		c0.1-0.8,0.3-1.7,0.4-2.5C143.1,16.2,143.3,15.4,143.3,14.6z M143,1.3h8.6v2.3H143V1.3z M149.2,19.6h2.7c0,0.5,0,0.9-0.1,1.1
		c-0.1,1.4-0.2,2.6-0.4,3.5c-0.1,0.9-0.3,1.7-0.5,2.2c-0.2,0.5-0.4,1-0.7,1.2c-0.3,0.3-0.6,0.5-1,0.6c-0.3,0.1-0.8,0.2-1.3,0.2
		c-0.4,0-1,0.1-1.7,0.1s-1.5,0-2.4-0.1c0-0.4-0.1-0.8-0.3-1.3c-0.2-0.5-0.3-0.9-0.6-1.2c0.8,0.1,1.6,0.1,2.3,0.2c0.7,0,1.3,0,1.6,0
		c0.3,0,0.5,0,0.7,0c0.2,0,0.3-0.1,0.5-0.2c0.2-0.2,0.5-0.8,0.7-1.7c0.2-0.9,0.3-2.3,0.5-4.3V19.6z M143.5,19.6h6.4v2.2h-6.9
		L143.5,19.6z M144.4,14.6h5.8v2.2H144L144.4,14.6z M144.3,9.5h7.5v7.3h-2.6v-5h-4.9V9.5z M163.1,18.4h0.5l0.5-0.1l1.6,0.6
		c-0.7,1.9-1.7,3.5-2.9,4.8c-1.3,1.3-2.7,2.4-4.4,3.2c-1.7,0.8-3.5,1.5-5.5,2c-0.1-0.3-0.3-0.7-0.5-1.1c-0.2-0.4-0.5-0.8-0.7-1
		c1.7-0.4,3.4-0.9,4.9-1.6s2.9-1.6,4-2.7c1.1-1.1,2-2.3,2.5-3.8V18.4z M154.5,9.4h2.5v2.4c0,0.7-0.1,1.5-0.3,2.2
		c-0.2,0.8-0.5,1.5-1,2.2c-0.5,0.7-1.2,1.3-2.1,1.9c-0.1-0.2-0.3-0.4-0.5-0.6c-0.2-0.2-0.5-0.5-0.7-0.7s-0.4-0.4-0.6-0.5
		c0.8-0.5,1.4-0.9,1.8-1.4c0.4-0.5,0.7-1,0.8-1.5c0.1-0.5,0.2-1,0.2-1.5V9.4z M153,22l1.4-1.6c0.9,0.5,1.9,1,3,1.6s2.1,1.2,3.2,1.8
		c1.1,0.6,2,1.2,3,1.8c0.9,0.6,1.7,1.1,2.4,1.5l-1.5,1.9c-0.6-0.5-1.4-1-2.3-1.6c-0.9-0.6-1.9-1.2-2.9-1.8c-1-0.6-2.1-1.2-3.2-1.9
		C154.9,23.1,153.9,22.5,153,22z M153.2,18.4h10.5v2h-10.5V18.4z M156.4,0.2c0.7,1.6,1.7,3,2.9,4.3c1.2,1.3,2.6,2.4,4.2,3.4
		c1.6,1,3.4,1.7,5.3,2.2c-0.3,0.3-0.6,0.6-0.9,1.1c-0.3,0.5-0.6,0.9-0.8,1.2c-2-0.6-3.8-1.5-5.5-2.6c-1.7-1.1-3.1-2.4-4.4-3.9
		c-1.3-1.5-2.3-3.2-3.1-5L156.4,0.2z M155.6,9.4h6.4v2.3h-6.4V9.4z M162,0.3l2.2,1.5c-0.7,0.7-1.5,1.3-2.4,2
		c-0.8,0.7-1.6,1.2-2.3,1.7l-1.7-1.3c0.5-0.3,0.9-0.7,1.5-1.2c0.5-0.5,1-0.9,1.5-1.4C161.3,1.2,161.7,0.7,162,0.3z M160.6,9.4h2.4
		v4.8c0,0.4,0,0.6,0.1,0.8c0.1,0.1,0.2,0.2,0.4,0.2c0.1,0,0.3,0,0.6,0c0.3,0,0.5,0,0.8,0s0.5,0,0.6,0c0.2,0,0.5,0,0.8,0
		c0.3,0,0.6-0.1,0.7-0.1c0,0.3,0,0.6,0.1,1c0,0.4,0.1,0.7,0.1,1c-0.2,0.1-0.4,0.1-0.7,0.1s-0.6,0-0.9,0c-0.1,0-0.3,0-0.5,0
		s-0.4,0-0.7,0c-0.2,0-0.5,0-0.7,0s-0.4,0-0.5,0c-0.7,0-1.3-0.1-1.7-0.3c-0.4-0.2-0.6-0.5-0.8-1c-0.1-0.4-0.2-1-0.2-1.8V9.4z
		 M165.8,3.4l2.1,1.5c-0.7,0.7-1.5,1.3-2.4,2c-0.9,0.7-1.7,1.2-2.4,1.7l-1.8-1.3c0.5-0.3,1-0.7,1.5-1.2c0.5-0.4,1.1-0.9,1.6-1.4
		S165.5,3.8,165.8,3.4z"/>
	<path class="st0" d="M175.6,12c0-0.2-0.1-0.4-0.2-0.7c-0.1-0.3-0.2-0.6-0.3-1s-0.2-0.6-0.3-0.9c0.3-0.1,0.5-0.2,0.8-0.5
		c0.3-0.3,0.6-0.7,0.9-1.1c0.2-0.2,0.4-0.6,0.7-1.1c0.3-0.5,0.7-1.1,1.1-1.9c0.4-0.7,0.8-1.5,1.2-2.3c0.4-0.8,0.7-1.7,1.1-2.5
		l2.6,1.1c-0.8,1.7-1.7,3.4-2.8,5.1c-1,1.7-2.1,3.1-3.1,4.4v0.1c-0.4,0.2-0.6,0.4-0.9,0.5c-0.2,0.1-0.4,0.3-0.6,0.4
		S175.6,11.9,175.6,12z M176.2,20.3l2.4,0.4c-0.1,1.4-0.4,2.8-0.6,4.2c-0.3,1.4-0.6,2.6-0.9,3.6c-0.3-0.1-0.6-0.3-1.1-0.4
		c-0.5-0.2-0.9-0.3-1.2-0.4c0.4-1,0.7-2.1,0.9-3.4C175.9,22.9,176.1,21.6,176.2,20.3z M175.9,19.1c0-0.2-0.1-0.4-0.2-0.8
		c-0.1-0.3-0.2-0.7-0.3-1c-0.1-0.3-0.2-0.6-0.3-0.9c0.4-0.1,0.7-0.3,1.1-0.6s0.8-0.8,1.3-1.4c0.3-0.3,0.6-0.7,1.1-1.4
		c0.5-0.6,1-1.4,1.7-2.3c0.6-0.9,1.2-1.8,1.9-2.9s1.2-2.1,1.7-3.1l2.4,1.5c-0.8,1.4-1.6,2.8-2.6,4.1c-0.9,1.4-1.9,2.6-2.9,3.9
		c-1,1.2-2,2.4-3,3.4v0.1c-0.4,0.2-0.6,0.4-0.9,0.5c-0.2,0.1-0.4,0.3-0.6,0.4C175.9,18.8,175.9,19,175.9,19.1z M175.6,12l-0.1-2
		l1.3-0.8l5.5-0.5c-0.1,0.4-0.1,0.8-0.2,1.2c-0.1,0.5-0.1,0.8-0.1,1.1c-1.2,0.1-2.2,0.3-3,0.4s-1.4,0.2-1.8,0.2
		c-0.4,0.1-0.8,0.1-1,0.2S175.8,12,175.6,12z M175.9,19.1l-0.1-2.1l1.3-0.9l8.3-1.1c-0.1,0.4-0.1,0.8-0.1,1.2c0,0.5,0,0.8,0,1.1
		c-1.9,0.3-3.4,0.5-4.6,0.7s-2.1,0.3-2.7,0.4c-0.6,0.1-1.1,0.2-1.4,0.3C176.3,18.9,176,19,175.9,19.1z M179.7,20.6l2.2-0.4
		c0.2,1.1,0.4,2.3,0.6,3.6c0.2,1.3,0.3,2.4,0.3,3.4l-2.3,0.4c0-0.6-0.1-1.4-0.1-2.2c-0.1-0.8-0.2-1.6-0.3-2.5
		C180,22.2,179.9,21.4,179.7,20.6z M182.7,12.6l2.1-0.7c0.3,0.7,0.6,1.4,0.8,2.2c0.3,0.8,0.5,1.6,0.7,2.3c0.2,0.7,0.4,1.4,0.5,2
		l-2.3,0.8c-0.1-0.6-0.2-1.3-0.4-2c-0.2-0.8-0.4-1.5-0.7-2.4C183.3,14,183,13.3,182.7,12.6z M183,20l2-0.6c0.4,1,0.7,2,1.1,3.1
		c0.4,1.1,0.6,2.1,0.7,2.9l-2.1,0.7c-0.1-0.8-0.4-1.8-0.7-3C183.6,22,183.3,21,183,20z M186.8,4.1h16.6v2.7h-16.6V4.1z M187.7,11.1
		h14.9v2.7h-14.9V11.1z M188.3,16.7h13.5v12h-2.9v-9.4H191v9.5h-2.8V16.7z M189.9,24.9h10.4v2.6h-10.4V24.9z M193.4,0.1h3v12.5h-3
		V0.1z"/>
	<path class="st0" d="M221.9,17.8l2.4,1.1c-1,1.3-2.1,2.5-3.5,3.7c-1.4,1.2-2.8,2.2-4.4,3.2c-1.6,0.9-3.1,1.7-4.7,2.3
		c-0.1-0.2-0.3-0.5-0.6-0.8c-0.2-0.3-0.5-0.6-0.7-0.9c-0.2-0.3-0.5-0.5-0.7-0.7c1.2-0.4,2.3-0.8,3.5-1.4c1.1-0.5,2.3-1.2,3.3-1.8
		c1.1-0.7,2.1-1.4,3-2.2C220.5,19.4,221.3,18.6,221.9,17.8z M210.6,16.5h27.4v2.7h-27.4V16.5z M213.7,1.6h21.5v12.6h-21.5V1.6z
		 M216.7,4.1v2.7h15.3V4.1H216.7z M216.7,9.1v2.7h15.3V9.1H216.7z M222.8,2.6h3.1v26.3h-3.1V2.6z M226.6,17.6
		c0.7,0.8,1.5,1.6,2.4,2.3c0.9,0.8,1.9,1.5,3,2.2c1.1,0.7,2.2,1.3,3.4,1.8c1.2,0.5,2.3,1,3.5,1.4c-0.2,0.2-0.4,0.4-0.7,0.7
		c-0.3,0.3-0.5,0.6-0.7,0.9c-0.2,0.3-0.4,0.6-0.6,0.9c-1.1-0.5-2.3-1-3.5-1.7c-1.2-0.7-2.3-1.4-3.4-2.2c-1.1-0.8-2.2-1.6-3.1-2.6
		c-1-0.9-1.8-1.8-2.6-2.8L226.6,17.6z"/>
	<path class="st0" d="M246.3,1.3h26.3v27.6h-2.9V3.7H249v25.1h-2.7V1.3z M248,25.3h23.1v2.4H248V25.3z M250.3,11.1h18.2v1.7h-18.2
		V11.1z M252.1,14h14.4v9.9h-14.4V14z M253.1,5h12.4v4.9h-12.4V5z M254.4,15.7v6.5h9.8v-6.5H254.4z M255.5,6.6v1.7h7.5V6.6H255.5z
		 M256.1,16.8h6.5V21h-6.5V16.8z M257.8,18.2v1.5h3v-1.5H257.8z M258,8.8h2.5v3H258V8.8z"/>
	<path class="st0" d="M280.5,25h27.9v2.7h-27.9V25z M281.2,1.7h26.2v2.7h-26.2V1.7z M283.5,13.4c0-0.2-0.1-0.5-0.2-0.8
		c-0.1-0.4-0.2-0.7-0.4-1.1s-0.2-0.7-0.4-0.9c0.3-0.1,0.7-0.2,1-0.5s0.7-0.6,1.1-0.9c0.2-0.2,0.6-0.5,1-0.9c0.4-0.4,0.9-1,1.4-1.5
		c0.5-0.6,1.1-1.3,1.6-2c0.5-0.7,1.1-1.5,1.5-2.2l3.3,0.9c-1.2,1.7-2.5,3.2-3.9,4.7c-1.4,1.5-2.7,2.7-4,3.8v0.1
		c-0.4,0.2-0.8,0.4-1.1,0.5c-0.3,0.2-0.5,0.3-0.8,0.5C283.6,13.1,283.5,13.3,283.5,13.4z M283.3,17.2h22.4v2.7h-22.4V17.2z
		 M283.5,13.4v-2.1l1.9-1l18.1-0.6c0,0.4,0.1,0.8,0.2,1.3c0.1,0.5,0.2,0.9,0.3,1.2c-2.9,0.1-5.4,0.2-7.4,0.3
		c-2.1,0.1-3.8,0.2-5.3,0.2c-1.4,0.1-2.6,0.1-3.5,0.2c-0.9,0-1.6,0.1-2.2,0.1c-0.6,0.1-1,0.1-1.3,0.2S283.7,13.4,283.5,13.4z
		 M292.8,13.6h3.1v13.3h-3.1V13.6z M297.1,6.9l2.3-1.6c0.9,0.7,1.9,1.5,2.9,2.3c1,0.9,2,1.7,2.9,2.6c0.9,0.9,1.6,1.6,2.2,2.4
		l-2.6,1.8c-0.5-0.7-1.2-1.5-2-2.4s-1.8-1.8-2.8-2.7C299.1,8.4,298.1,7.6,297.1,6.9z"/>
	<path class="st0" d="M2.2,51.4h7.5V54H4.8v24.8H2.2V51.4z M9.1,51.4h0.5l0.4-0.1l1.9,1.1c-0.4,1.3-0.9,2.6-1.4,4.1
		c-0.5,1.4-1,2.8-1.5,4c1.1,1.3,1.7,2.5,2.1,3.6c0.3,1.1,0.5,2.1,0.5,3.1c0,0.9-0.1,1.7-0.3,2.3c-0.2,0.7-0.5,1.2-1,1.5
		c-0.2,0.2-0.5,0.3-0.7,0.4c-0.3,0.1-0.6,0.2-0.9,0.2c-0.3,0-0.6,0-1,0c-0.4,0-0.7,0-1.1,0c0-0.3-0.1-0.7-0.2-1.2s-0.3-0.9-0.5-1.3
		c0.3,0,0.6,0,0.9,0s0.5,0,0.7,0c0.4,0,0.7-0.1,0.9-0.2c0.2-0.2,0.4-0.4,0.5-0.8C8.9,67.7,9,67.3,9,66.8c0-0.8-0.2-1.7-0.5-2.7
		c-0.3-1-1-2.1-2-3.3c0.2-0.7,0.5-1.4,0.8-2.2C7.5,57.8,7.8,57,8,56.2c0.2-0.8,0.4-1.5,0.6-2.2c0.2-0.7,0.4-1.3,0.5-1.8V51.4z
		 M13.2,78.9c-0.1-0.2-0.2-0.5-0.3-0.8c-0.1-0.3-0.3-0.6-0.5-0.9c-0.2-0.3-0.3-0.5-0.5-0.7c0.3-0.1,0.6-0.4,0.9-0.8
		c0.3-0.4,0.4-0.9,0.4-1.6V51.4h2.9v24.8c-0.4,0.2-0.7,0.5-1,0.7c-0.3,0.2-0.6,0.4-0.9,0.7c-0.3,0.2-0.5,0.5-0.7,0.7
		C13.3,78.5,13.2,78.7,13.2,78.9z M13.2,78.9L13,76.4l1.3-1l6.8-1.5c0,0.4,0,0.9,0,1.4c0,0.5,0.1,0.9,0.1,1.2
		c-1.6,0.4-2.8,0.8-3.8,1.1c-1,0.3-1.7,0.5-2.3,0.7c-0.5,0.2-1,0.3-1.2,0.4C13.7,78.7,13.4,78.8,13.2,78.9z M14.7,51.4h12.4v13.9
		H14.7v-2.5h9.6V54h-9.6V51.4z M14.9,57.1h10.9v2.4H14.9V57.1z M20.8,63.9c0.4,1.9,1,3.6,1.8,5.3c0.8,1.6,1.7,3,2.9,4.2
		c1.2,1.2,2.5,2.2,4.1,2.8c-0.2,0.2-0.5,0.4-0.7,0.7c-0.2,0.3-0.5,0.6-0.7,0.9c-0.2,0.3-0.4,0.6-0.6,0.9c-1.7-0.8-3.1-2-4.3-3.4
		c-1.2-1.4-2.2-3-3-4.9c-0.8-1.9-1.4-3.9-1.9-6.1L20.8,63.9z M27,66.1l1.9,2c-0.6,0.5-1.2,1-1.9,1.4c-0.7,0.5-1.3,0.9-2,1.4
		c-0.7,0.4-1.3,0.8-1.8,1.1l-1.6-1.9c0.6-0.4,1.2-0.8,1.8-1.2c0.7-0.5,1.3-1,2-1.5C26,67,26.6,66.5,27,66.1z"/>
	<path class="st0" d="M35.7,75.3c1.3-0.1,2.7-0.3,4.4-0.4c1.7-0.1,3.4-0.3,5.3-0.5c1.9-0.2,3.7-0.3,5.5-0.5l0,2.2
		c-1.8,0.2-3.5,0.4-5.3,0.6c-1.8,0.2-3.5,0.4-5.1,0.6c-1.6,0.2-3.1,0.3-4.4,0.4L35.7,75.3z M35.8,55.4h15.5v2.2H35.8V55.4z
		 M49.5,50.4l1.4,2.2c-1.3,0.3-2.7,0.5-4.3,0.7c-1.6,0.2-3.3,0.4-5,0.5c-1.7,0.1-3.3,0.2-4.9,0.3c0-0.3-0.1-0.7-0.3-1.1
		c-0.1-0.4-0.3-0.8-0.4-1.1c1.2-0.1,2.4-0.1,3.6-0.2c1.2-0.1,2.4-0.2,3.6-0.3c1.2-0.1,2.3-0.3,3.4-0.4
		C47.7,50.7,48.6,50.6,49.5,50.4z M36.6,70.3h14.3v2.2H36.6V70.3z M36.7,59.2h14.1v9.5H36.7V59.2z M39.1,61.2v1.9h9.2v-1.9H39.1z
		 M39.1,64.9v1.9h9.2v-1.9H39.1z M42.3,52.9H45v22.6h-2.7V52.9z M54.6,50.6h2.8c0,2.5-0.1,5-0.1,7.3c-0.1,2.3-0.2,4.5-0.4,6.6
		s-0.6,4-1.1,5.8c-0.5,1.8-1.3,3.4-2.2,4.9c-0.9,1.5-2.1,2.8-3.6,3.9c-0.1-0.2-0.3-0.5-0.6-0.8c-0.2-0.3-0.5-0.5-0.8-0.8
		c-0.3-0.2-0.5-0.4-0.8-0.6c1.4-1,2.5-2.2,3.3-3.5c0.8-1.3,1.5-2.8,2-4.5s0.8-3.4,1-5.4c0.2-1.9,0.3-4,0.3-6.2
		C54.6,55.3,54.6,53,54.6,50.6z M51.2,57.3h11V60h-11V57.3z M61,57.3h2.8c0,0.4,0,0.7,0,0.9c0,0.2,0,0.4,0,0.5
		c-0.1,3.2-0.2,6-0.2,8.2c-0.1,2.2-0.2,4.1-0.3,5.5c-0.1,1.4-0.3,2.5-0.4,3.3c-0.2,0.8-0.4,1.4-0.6,1.7c-0.3,0.5-0.6,0.8-1,1
		c-0.4,0.2-0.8,0.3-1.3,0.4c-0.5,0.1-1,0.1-1.7,0.1c-0.7,0-1.4,0-2.1-0.1c0-0.4-0.1-0.9-0.3-1.4c-0.2-0.5-0.3-1-0.6-1.4
		c0.7,0.1,1.4,0.1,2,0.1c0.6,0,1.1,0,1.4,0c0.2,0,0.5,0,0.6-0.1c0.2-0.1,0.3-0.2,0.5-0.4c0.2-0.2,0.3-0.7,0.5-1.4
		c0.1-0.7,0.2-1.8,0.3-3.1c0.1-1.4,0.2-3.1,0.3-5.3c0.1-2.1,0.2-4.8,0.2-7.8V57.3z"/>
	<path class="st0" d="M78.6,64.5h5v2.6h-5v7H76v-7h-5v-2.6h5V58h2.7V64.5z"/>
	<path class="st0" d="M111.4,68.7c-0.1,2.4-0.6,4.3-1.5,5.7c-0.9,1.4-2.2,2.2-3.8,2.2c-1.6,0-2.6-0.8-3.1-2.4
		c-0.5,0.8-1,1.4-1.5,1.8c-0.6,0.4-1.1,0.6-1.7,0.6c-1.2,0-2.2-0.6-2.8-1.8c-0.6-1.2-0.8-2.8-0.7-4.9c0.1-1.6,0.4-3.1,1-4.4
		c0.5-1.3,1.2-2.3,2-3.1c0.8-0.7,1.6-1.1,2.5-1.1c0.7,0,1.4,0.1,1.9,0.3c0.6,0.2,1.2,0.6,1.9,1.3l-0.7,8.4c-0.2,2.3,0.3,3.5,1.5,3.5
		c0.9,0,1.6-0.5,2.2-1.6c0.6-1.1,0.9-2.6,1-4.5c0.2-3.9-0.5-6.9-1.8-9c-1.4-2-3.4-3.1-6.2-3.1c-1.7,0-3.2,0.5-4.5,1.5
		c-1.3,1-2.3,2.5-3,4.3c-0.7,1.9-1.1,4.1-1.2,6.6c-0.1,3.8,0.5,6.8,1.9,9c1.4,2.2,3.4,3.2,6,3.2c0.8,0,1.6-0.1,2.3-0.3
		c0.8-0.2,1.4-0.5,1.9-0.9l0.5,1.7c-0.5,0.4-1.2,0.7-2.1,1c-0.9,0.3-1.8,0.4-2.7,0.4c-2.1,0-3.9-0.6-5.5-1.7
		c-1.5-1.1-2.7-2.8-3.4-4.9c-0.8-2.1-1.1-4.6-1-7.5c0.1-2.8,0.6-5.3,1.6-7.5c0.9-2.2,2.2-3.9,3.8-5.1c1.6-1.2,3.4-1.8,5.4-1.8
		c2.1,0,3.9,0.6,5.4,1.7c1.5,1.1,2.6,2.8,3.4,4.9C111.1,63.3,111.5,65.8,111.4,68.7z M98.6,70c-0.1,1.4,0,2.5,0.3,3.3
		c0.3,0.8,0.8,1.2,1.5,1.2c0.4,0,0.9-0.2,1.3-0.7c0.4-0.5,0.7-1.2,1-2.1l0-0.3l0.6-7.7c-0.4-0.2-0.9-0.3-1.3-0.3
		c-0.9,0-1.7,0.6-2.3,1.8C99.1,66.3,98.7,67.9,98.6,70z"/>
	<path class="st0" d="M121.7,62.4c-0.4-0.1-0.8-0.1-1.2-0.1c-1.4,0-2.3,0.8-2.9,2.3v11.7h-2.7V59.9h2.6l0,1.7c0.7-1.3,1.7-2,3-2
		c0.4,0,0.8,0.1,1.1,0.2L121.7,62.4z"/>
	<path class="st0" d="M123.5,67.3c0-2.4,0.6-4.3,1.7-5.7c1.2-1.4,2.7-2.1,4.6-2.1c1.9,0,3.4,0.7,4.6,2c1.2,1.4,1.7,3.2,1.8,5.5v1.7
		c0,2.4-0.6,4.2-1.7,5.6c-1.2,1.4-2.7,2.1-4.6,2.1c-1.9,0-3.4-0.7-4.6-2c-1.1-1.3-1.7-3.2-1.8-5.4V67.3z M126.1,68.9
		c0,1.7,0.3,3,1,4c0.7,1,1.6,1.4,2.7,1.4c2.4,0,3.6-1.7,3.6-5.1v-1.8c0-1.7-0.3-3-1-4c-0.7-1-1.6-1.5-2.7-1.5c-1.1,0-2,0.5-2.6,1.5
		c-0.7,1-1,2.3-1,4V68.9z"/>
	<path class="st0" d="M151.4,68.9c0,2.6-0.5,4.5-1.4,5.8c-0.9,1.3-2.3,1.9-4,1.9c-1.7,0-3-0.7-3.9-2.2l-0.1,1.9h-2.4V53h2.7v8.7
		c0.9-1.4,2.1-2.1,3.8-2.1c1.8,0,3.1,0.6,4,1.9c0.9,1.3,1.4,3.2,1.4,5.8V68.9z M148.8,67.4c0-1.9-0.3-3.3-0.8-4.1
		c-0.5-0.8-1.4-1.2-2.6-1.2c-1.4,0-2.4,0.7-3.1,2.2V72c0.7,1.5,1.7,2.2,3.1,2.2c1.2,0,2.1-0.4,2.6-1.3s0.8-2.2,0.8-3.9V67.4z"/>
	<path class="st0" d="M154.3,67.3c0-2.4,0.6-4.3,1.7-5.7c1.2-1.4,2.7-2.1,4.6-2.1c1.9,0,3.4,0.7,4.6,2c1.2,1.4,1.7,3.2,1.8,5.5v1.7
		c0,2.4-0.6,4.2-1.7,5.6c-1.2,1.4-2.7,2.1-4.6,2.1c-1.9,0-3.4-0.7-4.6-2c-1.1-1.3-1.7-3.2-1.8-5.4V67.3z M157,68.9c0,1.7,0.3,3,1,4
		c0.7,1,1.6,1.4,2.7,1.4c2.4,0,3.6-1.7,3.6-5.1v-1.8c0-1.7-0.3-3-1-4c-0.7-1-1.6-1.5-2.7-1.5c-1.1,0-2,0.5-2.6,1.5c-0.7,1-1,2.3-1,4
		V68.9z"/>
	<path class="st0" d="M177.2,62.4c-0.4-0.1-0.8-0.1-1.2-0.1c-1.4,0-2.3,0.8-2.9,2.3v11.7h-2.7V59.9h2.6l0,1.7c0.7-1.3,1.7-2,3-2
		c0.4,0,0.8,0.1,1.1,0.2L177.2,62.4z"/>
	<path class="st0" d="M179,67.3c0-2.4,0.6-4.3,1.7-5.7c1.2-1.4,2.7-2.1,4.6-2.1s3.4,0.7,4.6,2c1.2,1.4,1.7,3.2,1.8,5.5v1.7
		c0,2.4-0.6,4.2-1.7,5.6c-1.2,1.4-2.7,2.1-4.6,2.1c-1.9,0-3.4-0.7-4.6-2c-1.1-1.3-1.7-3.2-1.8-5.4V67.3z M181.7,68.9
		c0,1.7,0.3,3,1,4c0.7,1,1.6,1.4,2.7,1.4c2.4,0,3.6-1.7,3.6-5.1v-1.8c0-1.7-0.3-3-1-4c-0.7-1-1.6-1.5-2.7-1.5c-1.1,0-2,0.5-2.6,1.5
		c-0.7,1-1,2.3-1,4V68.9z"/>
	<path class="st0" d="M200.8,74.3c0.9,0,1.6-0.3,2.1-0.8c0.5-0.6,0.8-1.3,0.9-2.4h2.5c-0.1,1.6-0.6,2.9-1.7,3.9
		c-1.1,1-2.3,1.6-3.9,1.6c-2,0-3.6-0.6-4.6-1.9c-1.1-1.3-1.6-3.2-1.6-5.7v-1.8c0-2.5,0.5-4.4,1.6-5.6c1.1-1.3,2.6-1.9,4.6-1.9
		c1.7,0,3,0.5,4,1.6c1,1.1,1.5,2.5,1.6,4.3h-2.5c-0.1-1.2-0.4-2.1-0.9-2.7c-0.5-0.6-1.2-0.9-2.2-0.9c-1.2,0-2.1,0.4-2.6,1.2
		c-0.6,0.8-0.9,2.1-0.9,3.9V69c0,1.9,0.3,3.3,0.9,4.1C198.7,73.9,199.6,74.3,200.8,74.3z"/>
	<path class="st0" d="M213.5,68.8l-1.4,1.6v5.9h-2.7V53h2.7v13.9l5.1-7h3.2l-5.2,6.8l5.9,9.5H218L213.5,68.8z"/>
	<path class="st0" d="M233.6,78.6h-11.8v-2.3h11.8V78.6z"/>
	<path class="st0" d="M249.2,56.6h-5.8v19.7h-2.8V56.6h-5.8v-2.4h14.3V56.6z"/>
	<path class="st0" d="M258.8,76.3c-0.2-0.4-0.3-0.9-0.3-1.8c-0.9,1.4-2.2,2.1-3.6,2.1c-1.5,0-2.6-0.4-3.5-1.2
		c-0.8-0.8-1.2-2-1.2-3.5c0-1.7,0.6-3,1.7-4c1.1-1,2.7-1.5,4.6-1.5h2v-1.7c0-1-0.2-1.7-0.7-2.1c-0.4-0.4-1.1-0.6-2-0.6
		c-0.8,0-1.5,0.2-2,0.7c-0.5,0.5-0.8,1.1-0.8,1.8h-2.7c0-0.8,0.2-1.6,0.7-2.4c0.5-0.8,1.2-1.4,2-1.8c0.8-0.4,1.8-0.7,2.8-0.7
		c1.7,0,2.9,0.4,3.8,1.2c0.9,0.8,1.3,2,1.3,3.6v8.3c0,1.3,0.2,2.4,0.5,3.3v0.2H258.8z M255.2,74.2c0.7,0,1.3-0.2,1.9-0.5
		s1-0.8,1.3-1.4v-3.9h-1.5c-1.3,0-2.3,0.3-3,0.9c-0.7,0.6-1.1,1.3-1.1,2.3c0,0.9,0.2,1.6,0.6,2C253.7,73.9,254.3,74.2,255.2,74.2z"
		/>
	<path class="st0" d="M268.3,55.6c0,0.5-0.1,0.8-0.4,1.1s-0.6,0.5-1.2,0.5c-0.5,0-0.9-0.2-1.1-0.5c-0.3-0.3-0.4-0.7-0.4-1.1
		s0.1-0.8,0.4-1.2c0.3-0.3,0.6-0.5,1.1-0.5s0.9,0.2,1.1,0.5C268.2,54.7,268.3,55.1,268.3,55.6z M268.1,76.3h-2.7V59.9h2.7V76.3z"/>
	<path class="st0" d="M284.5,71.6l2.5-11.7h2.6l-4,16.4h-2.1l-3.2-11.7l-3.1,11.7h-2.1l-4-16.4h2.6l2.5,11.4l3-11.4h2.1L284.5,71.6z
		"/>
	<path class="st0" d="M300.9,76.3c-0.2-0.4-0.3-0.9-0.3-1.8c-0.9,1.4-2.2,2.1-3.6,2.1c-1.5,0-2.6-0.4-3.5-1.2
		c-0.8-0.8-1.2-2-1.2-3.5c0-1.7,0.6-3,1.7-4c1.1-1,2.7-1.5,4.6-1.5h2v-1.7c0-1-0.2-1.7-0.7-2.1c-0.4-0.4-1.1-0.6-2-0.6
		c-0.8,0-1.5,0.2-2,0.7c-0.5,0.5-0.8,1.1-0.8,1.8h-2.7c0-0.8,0.2-1.6,0.7-2.4c0.5-0.8,1.2-1.4,2-1.8c0.8-0.4,1.8-0.7,2.8-0.7
		c1.7,0,2.9,0.4,3.8,1.2c0.9,0.8,1.3,2,1.3,3.6v8.3c0,1.3,0.2,2.4,0.5,3.3v0.2H300.9z M297.3,74.2c0.7,0,1.3-0.2,1.9-0.5
		c0.6-0.4,1-0.8,1.3-1.4v-3.9H299c-1.3,0-2.3,0.3-3,0.9c-0.7,0.6-1.1,1.3-1.1,2.3c0,0.9,0.2,1.6,0.6,2
		C295.8,73.9,296.4,74.2,297.3,74.2z"/>
	<path class="st0" d="M309.8,59.9l0.1,1.8c1-1.4,2.4-2.1,4-2.1c2.9,0,4.4,1.9,4.4,5.8v10.9h-2.7V65.5c0-1.3-0.2-2.2-0.6-2.7
		c-0.4-0.5-1.1-0.8-1.9-0.8c-0.7,0-1.3,0.2-1.8,0.7c-0.5,0.4-1,1-1.3,1.7v11.9h-2.7V59.9H309.8z"/>
	<path class="st0" d="M3.6,117.7l2.4,0.5c-0.3,1.5-0.8,2.9-1.3,4.3c-0.5,1.4-1.2,2.6-1.8,3.6c-0.1-0.1-0.3-0.3-0.6-0.5
		s-0.5-0.4-0.8-0.5c-0.3-0.2-0.5-0.3-0.7-0.4c0.6-0.9,1.2-1.9,1.7-3.2C2.9,120.3,3.3,119,3.6,117.7z M1.1,103.8h14.2v2.6H1.1V103.8z
		 M2.7,108.5h11.5v7.9H2.7V108.5z M7.2,115.7h2.6v10.3c0,0.6-0.1,1.1-0.2,1.5c-0.1,0.4-0.4,0.7-0.8,0.9c-0.4,0.2-0.9,0.3-1.5,0.4
		c-0.6,0-1.3,0.1-2.1,0.1c0-0.4-0.1-0.8-0.3-1.2c-0.2-0.5-0.3-0.9-0.5-1.2c0.5,0,1,0,1.5,0c0.5,0,0.8,0,0.9,0c0.3,0,0.4-0.1,0.4-0.4
		V115.7z M5.2,110.8v3.3h6.2v-3.3H5.2z M6.1,100.7l2.7-0.6c0.3,0.7,0.7,1.4,1,2.2c0.3,0.8,0.6,1.5,0.7,2L7.7,105
		c-0.1-0.6-0.3-1.3-0.6-2.1C6.8,102.1,6.5,101.3,6.1,100.7z M10.8,118.3l2.1-0.9c0.5,0.8,1,1.8,1.4,2.8c0.4,1,0.7,1.9,0.9,2.7
		l-2.2,1c-0.2-0.8-0.4-1.7-0.9-2.7C11.7,120.1,11.3,119.1,10.8,118.3z M19.8,100.2h2.8c0,2-0.1,4-0.1,6.1c-0.1,2.1-0.2,4.2-0.5,6.3
		c-0.2,2.1-0.6,4.2-1.2,6.1c-0.5,2-1.3,3.8-2.2,5.6c-0.9,1.7-2.1,3.3-3.5,4.6c-0.2-0.3-0.5-0.6-0.9-1c-0.4-0.3-0.8-0.6-1.1-0.8
		c1.4-1.2,2.5-2.6,3.3-4.2c0.8-1.6,1.5-3.3,2-5.2c0.5-1.9,0.8-3.8,1-5.8c0.2-2,0.3-4,0.4-6C19.8,104,19.8,102,19.8,100.2z
		 M15.7,108.1h13.6v2.7H15.7V108.1z M21.8,112.8h2.5v11.9c0,0.3,0,0.5,0,0.7s0.1,0.3,0.1,0.4c0.1,0.1,0.2,0.1,0.3,0.1
		c0.1,0,0.2,0,0.4,0c0.1,0,0.3,0,0.5,0s0.4,0,0.6,0c0.1,0,0.3,0,0.4,0c0.1,0,0.2-0.1,0.3-0.1c0.2-0.1,0.3-0.4,0.4-0.9
		c0-0.3,0.1-0.7,0.1-1.3c0-0.6,0-1.3,0-2.1c0.3,0.2,0.6,0.5,1.1,0.7c0.4,0.2,0.8,0.4,1.2,0.5c0,0.7-0.1,1.4-0.1,2.2
		c-0.1,0.7-0.2,1.3-0.2,1.6c-0.2,0.6-0.6,1.1-1.1,1.3c-0.2,0.1-0.5,0.2-0.9,0.3c-0.3,0.1-0.7,0.1-0.9,0.1c-0.1,0-0.3,0-0.6,0
		c-0.3,0-0.5,0-0.8,0s-0.5,0-0.6,0c-0.3,0-0.7-0.1-1.1-0.2c-0.4-0.1-0.7-0.3-1-0.5c-0.2-0.2-0.4-0.5-0.6-0.9s-0.2-1.1-0.2-2.1V112.8
		z M23.3,102.5l2-1.1c0.6,0.7,1.2,1.5,1.9,2.3c0.6,0.9,1.1,1.6,1.4,2.3l-2.1,1.3c-0.2-0.5-0.4-1-0.8-1.5c-0.3-0.6-0.7-1.1-1.1-1.7
		S23.7,103,23.3,102.5z"/>
	<path class="st0" d="M37.8,111.2h2.7v7.4c0,1.1-0.1,2.2-0.2,3.5c-0.1,1.3-0.4,2.5-0.7,3.7c-0.4,1.2-0.9,2.3-1.7,3.2
		c-0.1-0.2-0.3-0.4-0.6-0.7c-0.2-0.3-0.5-0.5-0.8-0.8c-0.3-0.2-0.5-0.4-0.7-0.6c0.6-0.8,1-1.7,1.3-2.7c0.3-1,0.4-1.9,0.5-2.9
		c0.1-1,0.1-1.9,0.1-2.8V111.2z M37.4,109.7c-0.1-0.2-0.1-0.4-0.2-0.8c-0.1-0.3-0.2-0.7-0.3-1c-0.1-0.4-0.2-0.6-0.3-0.9
		c0.2-0.1,0.5-0.2,0.8-0.4c0.3-0.2,0.6-0.5,0.9-0.8c0.2-0.2,0.6-0.6,1-1.2c0.4-0.6,0.9-1.2,1.5-2c0.5-0.8,1-1.6,1.4-2.4l3,0.9
		c-0.5,0.9-1.1,1.8-1.8,2.7c-0.7,0.9-1.3,1.7-2,2.5c-0.7,0.8-1.4,1.5-2,2v0.1c-0.4,0.2-0.6,0.4-0.9,0.5c-0.2,0.1-0.4,0.3-0.6,0.5
		C37.5,109.4,37.4,109.5,37.4,109.7z M37.4,109.7l-0.1-2.1l1.5-0.9l9.7-0.7c0.1,0.4,0.1,0.8,0.2,1.2c0.1,0.4,0.2,0.8,0.3,1.1
		c-2.4,0.2-4.3,0.4-5.7,0.5c-1.4,0.1-2.5,0.3-3.3,0.4c-0.8,0.1-1.4,0.2-1.7,0.2C37.9,109.5,37.7,109.6,37.4,109.7z M39.2,111.2h8.6
		v2.5h-8.6V111.2z M40,122.7c0.9-0.4,2-0.9,3.2-1.5c1.3-0.6,2.5-1.3,3.8-2l0.6,1.8c-1.2,0.7-2.3,1.4-3.5,2.2c-1.1,0.7-2.2,1.4-3.2,2
		L40,122.7z M40.5,116.5l1.5-1.4c0.5,0.3,1,0.7,1.6,1.1s1.1,0.8,1.6,1.1c0.5,0.4,0.9,0.7,1.2,1l-1.6,1.6c-0.3-0.3-0.7-0.7-1.2-1.1
		c-0.5-0.4-1-0.8-1.6-1.2C41.5,117.2,41,116.8,40.5,116.5z M46.3,111.2H49V126c0,0.7-0.1,1.2-0.2,1.6c-0.2,0.4-0.5,0.7-0.9,0.9
		c-0.5,0.2-1.1,0.3-1.8,0.3c-0.7,0-1.5,0.1-2.5,0.1c-0.1-0.4-0.2-0.7-0.4-1.2s-0.4-0.8-0.6-1.2c0.7,0,1.3,0,1.8,0c0.6,0,1,0,1.2,0
		c0.2,0,0.3,0,0.4-0.1c0.1-0.1,0.1-0.2,0.1-0.4V111.2z M44.8,103.3l2.4-0.9c0.5,0.7,1,1.5,1.5,2.4c0.5,0.9,1,1.7,1.4,2.5
		c0.4,0.8,0.8,1.5,1.1,2.2l-2.5,1.1c-0.2-0.6-0.5-1.4-1-2.2c-0.4-0.8-0.9-1.7-1.4-2.6S45.2,104,44.8,103.3z M51.6,100.2h2.9v9.5
		c0,0.6,0.1,1,0.2,1.2c0.2,0.2,0.5,0.3,1,0.3c0.2,0,0.5,0,1,0c0.5,0,1,0,1.6,0c0.6,0,1.1,0,1.6,0c0.5,0,0.8,0,1.1,0
		c0.4,0,0.9,0,1.4-0.1c0.5,0,1-0.1,1.3-0.2c0,0.4,0.1,0.8,0.1,1.3c0,0.5,0.1,0.9,0.2,1.2c-0.3,0.1-0.7,0.1-1.3,0.2
		c-0.5,0-1.1,0-1.7,0c-0.2,0-0.5,0-0.9,0c-0.4,0-0.8,0-1.3,0c-0.5,0-0.9,0-1.3,0c-0.4,0-0.8,0-1.2,0c-0.4,0-0.6,0-0.7,0
		c-1.1,0-1.9-0.1-2.4-0.4c-0.6-0.3-1-0.7-1.2-1.3c-0.2-0.6-0.4-1.4-0.4-2.4V100.2z M51.6,114.7h2.9v10.2c0,0.5,0.1,0.9,0.3,1
		c0.2,0.2,0.7,0.2,1.3,0.2c0.1,0,0.4,0,0.8,0c0.4,0,0.8,0,1.3,0c0.5,0,0.9,0,1.3,0c0.4,0,0.7,0,0.9,0c0.4,0,0.7-0.1,0.9-0.3
		c0.2-0.2,0.4-0.5,0.4-1.1c0.1-0.5,0.1-1.3,0.2-2.4c0.3,0.2,0.7,0.4,1.3,0.6c0.5,0.2,1,0.4,1.3,0.4c-0.1,1.4-0.3,2.4-0.5,3.2
		c-0.3,0.8-0.7,1.3-1.2,1.6c-0.5,0.3-1.2,0.4-2.2,0.4c-0.1,0-0.4,0-0.7,0c-0.3,0-0.7,0-1.2,0s-0.9,0-1.3,0s-0.8,0-1.2,0
		c-0.3,0-0.6,0-0.7,0c-1.1,0-1.9-0.1-2.6-0.3c-0.6-0.2-1-0.6-1.3-1.2c-0.2-0.5-0.3-1.3-0.3-2.3V114.7z M53.4,104.2h9.2v2.5h-9.2
		V104.2z M53.4,118.1h9.5v2.6h-9.5V118.1z"/>
	<path class="st0" d="M70.4,116.3c1.4-0.3,3-0.7,4.9-1.3c1.9-0.5,3.8-1,5.7-1.6l0.4,2.7c-1.8,0.5-3.6,1-5.3,1.6
		c-1.8,0.5-3.4,1-4.9,1.4L70.4,116.3z M70.8,106.2H81v2.7H70.8V106.2z M74.9,100.1h2.8v25.6c0,0.7-0.1,1.3-0.2,1.7
		c-0.2,0.4-0.5,0.7-0.9,0.9c-0.5,0.2-1,0.4-1.7,0.4c-0.7,0.1-1.6,0.1-2.6,0.1c0-0.4-0.2-0.8-0.3-1.3c-0.2-0.5-0.3-1-0.5-1.3
		c0.7,0,1.3,0,1.8,0c0.6,0,0.9,0,1.1,0c0.2,0,0.4,0,0.5-0.1c0.1-0.1,0.1-0.2,0.1-0.5V100.1z M81.9,107.2h17v21.5H96V110H84.7v18.9
		h-2.8V107.2z M83.6,115.3h13.2v2.8H83.6V115.3z M83.7,123.8h13.2v2.8H83.7V123.8z M88.9,100.2h2.8v25.4h-2.8V100.2z"/>
	<path class="st0" d="M118.5,100.1h3.2c0,1.5,0,3-0.1,4.7c-0.1,1.7-0.2,3.4-0.5,5.2c-0.2,1.8-0.7,3.6-1.2,5.3
		c-0.6,1.8-1.3,3.5-2.3,5.1c-1,1.7-2.3,3.2-3.8,4.6c-1.5,1.4-3.4,2.7-5.7,3.7c-0.2-0.4-0.6-0.8-1-1.3c-0.4-0.5-0.8-0.9-1.2-1.2
		c2.1-1,4-2.1,5.4-3.4s2.7-2.7,3.6-4.2c0.9-1.5,1.6-3.1,2.1-4.7c0.5-1.6,0.8-3.3,1.1-4.9c0.2-1.6,0.3-3.2,0.4-4.7
		C118.5,102.9,118.5,101.4,118.5,100.1z M106.5,108.8h27.4v3h-27.4V108.8z M122,110c0.7,2.4,1.6,4.7,2.7,6.8c1.1,2.1,2.5,4,4.2,5.5
		c1.6,1.6,3.5,2.8,5.7,3.7c-0.2,0.2-0.5,0.5-0.8,0.8s-0.5,0.7-0.8,1c-0.2,0.3-0.5,0.6-0.6,0.9c-2.3-1.1-4.3-2.5-6-4.3
		c-1.7-1.8-3.1-3.8-4.3-6.2s-2.2-4.9-3-7.7L122,110z"/>
	<path class="st0" d="M153.6,116.9h2.9v2.1c0,0.7-0.1,1.4-0.3,2.1c-0.2,0.8-0.6,1.5-1.1,2.3c-0.5,0.8-1.3,1.5-2.4,2.2
		c-1,0.7-2.4,1.3-4.1,1.9s-3.8,1.1-6.3,1.5c-0.2-0.3-0.4-0.7-0.7-1.2c-0.3-0.5-0.6-0.9-0.9-1.2c2.3-0.4,4.2-0.8,5.7-1.3
		c1.5-0.5,2.8-1,3.7-1.5c1-0.5,1.7-1.1,2.2-1.7c0.5-0.6,0.8-1.1,1-1.7c0.2-0.6,0.2-1.1,0.2-1.6V116.9z M143.1,110.4h2.6v1.5
		c0,0.5-0.1,1.2-0.2,1.9s-0.4,1.5-0.8,2.3c-0.4,0.8-0.9,1.4-1.6,2c-0.2-0.1-0.4-0.3-0.7-0.4c-0.3-0.2-0.5-0.3-0.8-0.5
		c-0.3-0.1-0.5-0.3-0.8-0.4c0.6-0.5,1.1-1.1,1.4-1.7c0.3-0.6,0.5-1.2,0.6-1.8c0.1-0.6,0.2-1.1,0.2-1.5V110.4z M141,119.9h28.6v2.4
		H141V119.9z M141.1,109.5h8.4v2.3h-8.4V109.5z M142.4,100.9h2.5v4.3h4.5v2.3h-6.9V100.9z M147.8,100.2h2.7v17.6h-2.7V100.2z
		 M165.7,101.7h0.5l0.5-0.1l1.5,0.8c-0.7,1.2-1.6,2.3-2.7,3.1c-1.1,0.9-2.3,1.6-3.6,2.2c-1.4,0.6-2.8,1.1-4.4,1.5
		c-1.5,0.4-3.2,0.7-4.8,0.9c-0.1-0.3-0.3-0.6-0.5-0.9c-0.2-0.3-0.4-0.6-0.7-0.8c1.5-0.2,3-0.4,4.4-0.7c1.4-0.3,2.8-0.7,4-1.3
		c1.3-0.5,2.4-1.1,3.3-1.8c1-0.7,1.7-1.6,2.3-2.5V101.7z M151.6,110H169v2h-17.4V110z M160,100l2.5,0.6c-1.1,1-2.4,1.8-3.9,2.6
		c-1.5,0.7-3.3,1.4-5.3,2c-0.1-0.2-0.4-0.5-0.7-0.9c-0.3-0.3-0.6-0.6-0.8-0.8c1.9-0.4,3.5-1,4.9-1.6
		C158.1,101.3,159.2,100.7,160,100z M152.5,105.6c0.7,0,1.5-0.1,2.3-0.2s1.7-0.1,2.7-0.2l0.1,1.5c-0.9,0.1-1.7,0.2-2.5,0.2
		c-0.8,0.1-1.6,0.1-2.4,0.2L152.5,105.6z M153.8,113l1.8-1.4c0.6,0.4,1.2,0.8,1.9,1.3c0.6,0.5,1.1,1,1.5,1.4l-1.9,1.5
		c-0.3-0.4-0.8-0.9-1.4-1.5C155,113.9,154.4,113.4,153.8,113z M156,123.8l1.3-2c1,0.3,2,0.7,3.1,1.1c1.1,0.4,2.2,0.8,3.4,1.2
		c1.1,0.4,2.2,0.8,3.2,1.3c1,0.4,1.9,0.8,2.6,1.1l-1.4,2.3c-0.7-0.4-1.5-0.7-2.5-1.2c-1-0.4-2-0.9-3.2-1.3c-1.1-0.5-2.3-0.9-3.4-1.4
		C158.1,124.6,157,124.2,156,123.8z M156.6,103.4l1.9-0.7c0.7,0.5,1.5,1.1,2.3,1.9c0.8,0.7,1.4,1.4,1.8,2l-2,0.7
		c-0.4-0.6-0.9-1.2-1.6-1.9C158.1,104.6,157.3,104,156.6,103.4z M159,101.7h7.4v1.7h-9.6L159,101.7z M162.5,107.9h2.8v6.8
		c0,0.6-0.1,1.1-0.2,1.4c-0.2,0.3-0.5,0.6-0.9,0.8c-0.5,0.2-1,0.3-1.7,0.3c-0.7,0-1.5,0-2.4,0c-0.1-0.4-0.2-0.7-0.3-1.1
		c-0.1-0.4-0.3-0.8-0.5-1.1c0.6,0,1.2,0,1.8,0c0.5,0,0.9,0,1,0c0.2,0,0.3-0.1,0.4-0.1c0.1-0.1,0.1-0.2,0.1-0.3V107.9z M160.1,118.1
		l1.4-1.3c0.5,0.4,1.1,0.8,1.7,1.2c0.6,0.5,1.1,0.9,1.4,1.2l-1.5,1.5c-0.3-0.4-0.8-0.8-1.4-1.3S160.7,118.4,160.1,118.1z"/>
	<path class="st0" d="M182.5,126.5c-0.7,0-1.2-0.2-1.7-0.7c-0.4-0.4-0.7-1-0.7-1.7c0-0.7,0.2-1.3,0.7-1.7c0.5-0.4,1-0.7,1.6-0.7
		c0.6,0,1.2,0.2,1.6,0.7c0.5,0.4,0.7,1,0.7,1.7c0,0.7-0.2,1.3-0.7,1.7S183.1,126.5,182.5,126.5z M181.2,118.6l-0.7-11.4l-0.1-4.1
		h4.2l-0.1,4.1l-0.7,11.4H181.2z"/>
</g>
</svg>
