<!-- Generator: Adobe Illustrator 25.0.0, SVG Export Plug-In  -->
<svg version="1.1" xmlns="http://www.w3.org/2000/svg" xmlns:xlink="http://www.w3.org/1999/xlink" x="0px" y="0px" width="111.3px"
	 height="114.5px" viewBox="0 0 111.3 114.5" style="overflow:visible;enable-background:new 0 0 111.3 114.5;"
	 xml:space="preserve">
<style type="text/css">
	.st0{fill:none;stroke:#000000;stroke-width:3;stroke-miterlimit:10;}
	.st1{fill:#333337;}
	.st2{fill:#FFFFFF;}
</style>
<defs>
</defs>
<g>
	<g>
		<g>
			<circle class="st0" cx="58.6" cy="52.7" r="51.2"/>
		</g>
		<g>
			<g>
				<path d="M70.9,86.8H46.2c-12,0-21.8-9.8-21.8-21.8V40.3c0-12,9.8-21.8,21.8-21.8h24.7c12,0,21.8,9.8,21.8,21.8V65
					C92.7,77,83,86.8,70.9,86.8z M46.2,25.5c-8.2,0-14.8,6.6-14.8,14.8V65c0,8.2,6.6,14.8,14.8,14.8h24.7c8.2,0,14.8-6.6,14.8-14.8
					V40.3c0-8.2-6.6-14.8-14.8-14.8H46.2z"/>
			</g>
			<g>
				<path d="M58.6,69.5c-9.3,0-16.9-7.6-16.9-16.9s7.6-16.9,16.9-16.9s16.9,7.6,16.9,16.9S67.9,69.5,58.6,69.5z M58.6,42.8
					c-5.5,0-9.9,4.4-9.9,9.9s4.4,9.9,9.9,9.9c5.5,0,9.9-4.4,9.9-9.9S64,42.8,58.6,42.8z"/>
			</g>
			<circle cx="76" cy="35.2" r="4.1"/>
		</g>
	</g>
	<g>
		<circle class="st1" cx="18.2" cy="96.2" r="18.2"/>
		<path class="st2" d="M28.1,95.2l-7.3-6.8c-0.5-0.5-1.3-0.1-1.3,0.5v3.3c-2.2,0.2-9.2,1.5-11.6,11.8c-0.1,0.3,0.2,0.5,0.5,0.3
			c1.8-1.2,6.9-4.3,11.1-4.5v2.8c0,0.7,0.8,1,1.3,0.5l7.3-6.8C28.5,96,28.5,95.5,28.1,95.2z"/>
	</g>
</g>
</svg>
