<!-- Generator: Adobe Illustrator 25.0.0, SVG Export Plug-In  -->
<svg version="1.1" xmlns="http://www.w3.org/2000/svg" xmlns:xlink="http://www.w3.org/1999/xlink" x="0px" y="0px" width="773.2px"
	 height="107.9px" viewBox="0 0 773.2 107.9" style="overflow:visible;enable-background:new 0 0 773.2 107.9;"
	 xml:space="preserve">
<style type="text/css">
	.st0{fill:#333337;}
</style>
<defs>
</defs>
<g>
	<path class="st0" d="M11,0.6l4.1,1.2c-1,2.6-2.2,5.2-3.5,7.8c-1.4,2.6-2.8,5-4.4,7.3c-1.6,2.3-3.2,4.3-4.8,6
		c-0.2-0.4-0.4-0.8-0.6-1.4s-0.6-1.1-0.9-1.7c-0.3-0.6-0.6-1-0.9-1.3c1.5-1.5,2.9-3.2,4.3-5.1c1.4-1.9,2.6-4,3.8-6.2
		C9.2,5.1,10.2,2.8,11,0.6z M6.4,12.8l4.1-4.1l0,0v34.4H6.4V12.8z M20.6,0.6l4.3,1c-0.6,2.4-1.4,4.8-2.3,7.1
		c-0.9,2.3-1.8,4.5-2.9,6.6c-1,2-2.2,3.8-3.4,5.4c-0.2-0.2-0.6-0.6-1-0.9c-0.4-0.4-0.9-0.7-1.3-1.1c-0.4-0.4-0.9-0.6-1.2-0.9
		c1.2-1.4,2.3-3,3.2-4.8c1-1.8,1.8-3.8,2.6-5.9C19.4,4.9,20.1,2.8,20.6,0.6z M19.6,20.6l4.2,0.8c-0.5,2-1,4-1.7,5.9
		c-0.7,1.9-1.4,3.7-2.3,5.4c-0.8,1.7-1.7,3.1-2.6,4.4c-0.2-0.2-0.6-0.5-1.1-0.8c-0.5-0.3-0.9-0.6-1.4-0.9c-0.5-0.3-0.9-0.5-1.2-0.7
		c1.4-1.7,2.5-3.8,3.6-6.4C18.2,25.8,19,23.2,19.6,20.6z M20.8,9h20v4.1H19.1L20.8,9z M27.1,10.7h4.3v27.4c0,1.1-0.1,2-0.4,2.7
		c-0.3,0.7-0.7,1.2-1.5,1.5c-0.7,0.3-1.6,0.6-2.6,0.7c-1.1,0.1-2.3,0.2-3.8,0.2c-0.1-0.6-0.3-1.4-0.6-2.2c-0.3-0.8-0.6-1.6-0.9-2.1
		c1,0,2,0,2.9,0c0.9,0,1.5,0,1.8,0c0.3,0,0.5,0,0.6-0.1c0.1-0.1,0.2-0.3,0.2-0.6V10.7z M34.1,21.4l3.9-1.3c0.9,1.6,1.7,3.3,2.4,5.1
		s1.4,3.6,1.9,5.4c0.5,1.8,0.9,3.4,1.2,4.8l-4.2,1.5c-0.2-1.4-0.5-3-1.1-4.8c-0.5-1.8-1.1-3.6-1.8-5.5
		C35.6,24.8,34.9,23.1,34.1,21.4z M39.5,9h0.6l0.7-0.1l3,0.6c-0.3,1.8-0.6,3.6-1,5.5c-0.4,1.9-0.7,3.5-1.1,4.8l-3.7-0.7
		c0.2-0.8,0.3-1.7,0.5-2.8c0.2-1.1,0.4-2.2,0.5-3.4c0.2-1.2,0.3-2.3,0.4-3.3V9z"/>
	<path class="st0" d="M55.2,7.8h4v34.1h-4V7.8z M57.6,20.5h12.3v3.8H57.6V20.5z M57.8,7.8h14.1v30.6H57.8v-3.9h10.1V11.7H57.8V7.8z
		 M62,0.3l4.7,0.8c-0.5,1.5-1,3-1.6,4.5c-0.6,1.5-1.1,2.8-1.5,3.8l-3.5-0.8c0.2-0.8,0.4-1.6,0.7-2.6c0.2-1,0.5-2,0.7-2.9
		C61.8,2,61.9,1.1,62,0.3z M78.8,0.3l4.2,1c-0.6,2.3-1.3,4.5-2.1,6.7c-0.8,2.2-1.7,4.3-2.6,6.2c-1,2-2,3.7-3,5.1
		c-0.2-0.2-0.6-0.5-1-0.9c-0.4-0.3-0.9-0.6-1.3-0.9c-0.4-0.3-0.9-0.6-1.2-0.7c1-1.3,2-2.9,2.9-4.7c0.9-1.8,1.7-3.7,2.4-5.7
		C77.7,4.4,78.3,2.4,78.8,0.3z M76.6,20.2l3.4-1.9c0.8,1,1.7,2.2,2.6,3.5c0.9,1.3,1.8,2.5,2.5,3.7c0.8,1.2,1.4,2.3,1.9,3.2l-3.7,2.3
		c-0.4-1-1-2-1.8-3.3c-0.8-1.2-1.6-2.5-2.4-3.8C78.3,22.5,77.4,21.3,76.6,20.2z M78.2,7.6H92v4H78.2V7.6z M90.5,7.6h4.1
		c0,0.5,0,1,0,1.3c0,0.3,0,0.6,0,0.8c-0.2,5.3-0.3,9.7-0.5,13.3c-0.2,3.6-0.4,6.6-0.6,9c-0.2,2.3-0.5,4.1-0.8,5.4
		c-0.3,1.3-0.7,2.2-1.2,2.8c-0.6,0.8-1.2,1.3-1.8,1.6c-0.6,0.3-1.4,0.5-2.3,0.6c-0.8,0.1-1.8,0.1-3.1,0.1c-1.3,0-2.6-0.1-3.9-0.1
		c0-0.6-0.2-1.3-0.4-2.1c-0.3-0.8-0.6-1.5-1-2.1c1.5,0.1,2.9,0.2,4.1,0.2c1.3,0,2.2,0,2.8,0c0.5,0,0.8,0,1.1-0.1
		c0.3-0.1,0.6-0.3,0.9-0.6c0.4-0.4,0.7-1.3,1-2.5c0.3-1.2,0.5-3,0.7-5.3c0.2-2.3,0.4-5.2,0.6-8.7c0.2-3.5,0.3-7.8,0.4-12.7V7.6z"/>
	<path class="st0" d="M127.3,27.3l3,2.3c-1.3,1.1-2.8,2.3-4.5,3.4c-1.7,1.1-3.6,2.2-5.5,3.2c-2,1-4,1.9-6,2.8c-2,0.8-4,1.5-5.9,2.1
		c-0.2-0.5-0.6-1.1-1-1.8s-0.8-1.3-1.3-1.8c1.9-0.4,3.8-1,5.8-1.7c2-0.7,4-1.5,5.9-2.4c1.9-0.9,3.7-1.9,5.4-2.9
		C124.8,29.3,126.1,28.3,127.3,27.3z M124.6,21.8l2.8,2.1c-1.1,0.8-2.4,1.7-3.9,2.5c-1.5,0.8-3,1.7-4.7,2.5c-1.7,0.8-3.4,1.5-5,2.2
		c-1.7,0.7-3.3,1.2-4.8,1.7c-0.2-0.5-0.6-1.1-1-1.7c-0.4-0.7-0.8-1.2-1.2-1.7c1.5-0.3,3-0.8,4.7-1.3c1.7-0.6,3.3-1.2,5-1.9
		c1.6-0.7,3.2-1.4,4.6-2.1S123.6,22.6,124.6,21.8z M126.2,13.1l3.6,1.5c-1.6,1.6-3.5,3.1-5.8,4.4c-2.3,1.3-4.7,2.5-7.2,3.5
		c-2.5,1-5,1.9-7.5,2.6c-0.2-0.3-0.4-0.6-0.6-1.1c-0.3-0.4-0.6-0.9-0.9-1.3c-0.3-0.4-0.6-0.8-0.8-1.1c2.4-0.6,4.8-1.2,7.2-2.1
		c2.4-0.8,4.7-1.8,6.8-2.9C123.1,15.6,124.8,14.4,126.2,13.1z M107.1,4.3h39.2v10h-4.4v-6h-30.5v6h-4.3V4.3z M113.4,11.9h26.4v3.8
		h-26.4V11.9z M121.4,18.9l3.3-1.8c1.8,1.5,3.2,3.2,4.3,5.1c1.1,1.9,1.9,3.8,2.4,5.8c0.5,2,0.7,3.8,0.6,5.6c0,1.8-0.3,3.3-0.8,4.7
		c-0.5,1.4-1.2,2.4-2,3c-0.8,0.7-1.5,1.2-2.3,1.5c-0.8,0.2-1.7,0.4-2.8,0.4c-0.5,0-1.1,0-1.8,0c-0.7,0-1.4,0-2.1-0.1
		c0-0.6-0.1-1.3-0.3-2.1c-0.2-0.8-0.5-1.5-0.9-2.1c0.8,0.1,1.6,0.1,2.4,0.2c0.7,0,1.4,0.1,1.8,0.1c0.6,0,1.1-0.1,1.6-0.2
		c0.4-0.1,0.8-0.4,1.2-0.8c0.5-0.4,0.9-1.2,1.2-2.2c0.3-1,0.5-2.2,0.4-3.6c0-1.4-0.2-2.9-0.6-4.4s-1.1-3.1-2-4.7
		C124.2,21.7,122.9,20.2,121.4,18.9z M122.8,1.3l4.6-1.3c0.5,0.8,1,1.8,1.5,2.8c0.5,1,0.9,1.9,1,2.7l-4.8,1.5
		c-0.2-0.8-0.5-1.7-0.9-2.7C123.7,3.1,123.2,2.2,122.8,1.3z M139.7,17l3.5,2.9c-1.3,1.1-2.8,2.2-4.3,3.2c-1.5,1.1-3.1,2.1-4.6,3.1
		c-1.5,1-3,1.8-4.3,2.6l-2.8-2.5c1.3-0.8,2.7-1.7,4.3-2.7c1.5-1.1,3-2.2,4.5-3.3C137.4,19.1,138.7,18,139.7,17z M136.6,24.4
		c0.6,2,1.5,3.8,2.6,5.6c1.1,1.7,2.5,3.3,4,4.6c1.5,1.3,3.2,2.4,5.1,3.1c-0.3,0.3-0.6,0.6-1,1c-0.4,0.4-0.7,0.8-1,1.3
		c-0.3,0.4-0.6,0.9-0.8,1.2c-2.1-1-3.9-2.2-5.5-3.8c-1.6-1.6-3-3.4-4.3-5.4c-1.2-2-2.2-4.3-2.9-6.7L136.6,24.4z"/>
	<path class="st0" d="M163.3,31.2l-1.2-3c1.9-0.7,3.4-1.6,4.4-2.8c1-1.1,1.5-2.5,1.5-4.1l-0.6-4.2l2.5,3.8c-0.4,0.4-0.8,0.6-1.2,0.8
		c-0.4,0.2-0.9,0.3-1.4,0.3c-1,0-2-0.3-2.7-0.9c-0.8-0.6-1.2-1.5-1.2-2.7c0-1.2,0.4-2.1,1.2-2.7c0.8-0.6,1.7-1,2.7-1
		c1.4,0,2.5,0.5,3.3,1.6c0.8,1,1.1,2.4,1.1,4.2c0,2.6-0.8,4.8-2.3,6.7S166,30.3,163.3,31.2z"/>
	<path class="st0" d="M194.9,25.6l4.3,0.6c-0.7,3.8-1.9,7.1-3.6,10c-1.7,2.9-3.8,5.2-6.3,7.1c-0.2-0.3-0.5-0.7-0.9-1
		c-0.4-0.4-0.8-0.8-1.2-1.2c-0.4-0.4-0.8-0.7-1.1-0.9c2.4-1.5,4.3-3.5,5.8-6C193.3,31.7,194.3,28.8,194.9,25.6z M187.4,20.5h40.8
		v3.9h-40.8V20.5z M192,2.2h31.4v15.6H192V2.2z M197.8,29.7c0.9,2.4,2.1,4.2,3.7,5.4c1.6,1.2,3.5,2.1,5.8,2.5
		c2.3,0.4,4.9,0.6,7.7,0.6c0.4,0,1.1,0,2,0c0.9,0,1.9,0,3.1,0c1.2,0,2.3,0,3.5,0c1.2,0,2.3,0,3.3,0c1,0,1.8,0,2.3,0
		c-0.2,0.3-0.4,0.7-0.6,1.2c-0.2,0.5-0.4,1-0.5,1.5c-0.2,0.5-0.3,1-0.4,1.4H225h-10.1c-2.7,0-5.1-0.2-7.2-0.5
		c-2.2-0.3-4.1-0.9-5.7-1.7c-1.7-0.8-3.2-2-4.4-3.4c-1.3-1.5-2.4-3.4-3.3-5.8L197.8,29.7z M196.2,5.3v3.1H219V5.3H196.2z
		 M196.2,11.4v3.1H219v-3.1H196.2z M206,22.3h4.4v17.3H206V22.3z M207.9,28.7h17.3v3.8h-17.3V28.7z"/>
	<path class="st0" d="M269.2,4.1h0.8l0.7-0.2l2.8,1.7c-1.5,2.7-3.4,5.2-5.7,7.4c-2.3,2.2-4.9,4.1-7.8,5.7c-2.9,1.6-5.9,3-9.1,4.1
		c-3.2,1.1-6.3,2-9.5,2.7c-0.2-0.6-0.5-1.2-0.9-2c-0.4-0.8-0.8-1.4-1.1-1.8c3-0.5,6-1.3,9-2.3c3-1,5.8-2.2,8.5-3.6
		c2.7-1.4,5.1-3.1,7.2-4.9c2.1-1.8,3.8-3.9,5-6.1V4.1z M257.2,0.3l4.8,1.1c-2.2,2.6-4.9,4.9-8,7.1c-3.1,2.2-6.9,4.2-11.2,5.9
		c-0.2-0.4-0.4-0.8-0.8-1.2c-0.3-0.4-0.7-0.8-1.1-1.2c-0.4-0.4-0.7-0.7-1.1-0.9c2.8-0.9,5.3-2,7.5-3.2c2.2-1.2,4.1-2.4,5.8-3.7
		C254.8,2.9,256.2,1.6,257.2,0.3z M275.5,20.5h0.9l0.8-0.2l2.9,1.5c-1.4,3.4-3.3,6.3-5.7,8.8c-2.4,2.5-5.1,4.5-8.2,6.2
		c-3.1,1.7-6.4,3-10,4.1c-3.6,1-7.3,1.8-11.2,2.4c-0.2-0.6-0.4-1.3-0.8-2.1c-0.4-0.8-0.7-1.4-1.1-1.9c3.6-0.4,7.1-1.1,10.5-2
		c3.4-0.9,6.5-2,9.4-3.5c2.9-1.4,5.4-3.2,7.5-5.3c2.2-2.1,3.8-4.6,5-7.4V20.5z M264.7,16.1l4.8,1.1c-2.4,2.9-5.5,5.5-9.1,7.9
		c-3.7,2.4-8,4.5-13.1,6.4c-0.2-0.3-0.4-0.7-0.7-1.2c-0.3-0.4-0.6-0.8-1-1.2c-0.3-0.4-0.7-0.7-1-1c3.2-1,6.1-2.2,8.7-3.5
		s4.8-2.7,6.7-4.1C261.9,19.1,263.5,17.6,264.7,16.1z M248.1,11.2l2.9-2.5c1.1,0.5,2.2,1,3.3,1.7s2.2,1.3,3.3,2
		c1,0.7,1.9,1.3,2.5,1.9l-3.1,2.8c-0.6-0.6-1.4-1.3-2.4-2c-1-0.7-2.1-1.4-3.2-2.1S249.2,11.7,248.1,11.2z M254.1,4.1h16.1v3.6h-16.1
		V4.1z M254.2,28.3l3.2-2.5c1.1,0.6,2.3,1.2,3.5,2c1.2,0.8,2.3,1.5,3.4,2.3c1.1,0.8,1.9,1.5,2.6,2.2l-3.4,2.8
		c-0.6-0.7-1.4-1.4-2.5-2.2c-1-0.8-2.1-1.6-3.3-2.4C256.4,29.6,255.3,28.9,254.2,28.3z M261.2,20.5h15.5v3.7h-15.5V20.5z"/>
	<path class="st0" d="M291.4,3.3h41.2v4.1h-41.2V3.3z M293.4,12.5h37v30.7h-4.4V16.5h-28.3v26.6h-4.2V12.5z M296.1,36.8H328v4h-31.9
		V36.8z M303.4,15.1h4v23.5h-4V15.1z M305.3,20.8h12.4v3.5h-12.4V20.8z M305.3,28.8h12.4v3.5h-12.4V28.8z M309,5.2l5.1,1.1
		c-0.5,1.6-1,3.2-1.5,4.9s-1,3.1-1.5,4.2l-4-1.1c0.2-0.9,0.5-1.8,0.7-2.9c0.2-1.1,0.5-2.2,0.6-3.3C308.8,7.1,308.9,6.1,309,5.2z
		 M315.9,15.1h4v23.4h-4V15.1z"/>
	<path class="st0" d="M345.2,8.2h34.9v4.3h-30.6v30.6h-4.3V8.2z M354.9,17.9h4v18.8h-4V17.9z M356.7,17.9H373v15.5h-16.3v-3.8H369
		v-7.8h-12.3V17.9z M360.7,0.3l5.5,0.9c-0.7,1.7-1.5,3.5-2.4,5.2c-0.9,1.8-1.7,3.2-2.4,4.5l-4.2-1c0.4-0.9,0.9-1.9,1.3-3
		c0.4-1.1,0.9-2.3,1.2-3.4C360.1,2.4,360.5,1.3,360.7,0.3z M378.6,8.2h4.3v29.5c0,1.3-0.2,2.3-0.5,3c-0.3,0.7-0.9,1.3-1.8,1.6
		c-0.9,0.3-2.1,0.6-3.6,0.6c-1.5,0.1-3.2,0.1-5.3,0.1c-0.1-0.4-0.2-0.9-0.3-1.5c-0.2-0.5-0.3-1.1-0.6-1.6c-0.2-0.5-0.4-1-0.6-1.4
		c1,0,2,0.1,3,0.1c1,0,1.8,0,2.6,0c0.7,0,1.3,0,1.6,0c0.5,0,0.8-0.1,0.9-0.2c0.2-0.2,0.3-0.4,0.3-0.9V8.2z"/>
	<path class="st0" d="M396.7,7.8h4v34.1h-4V7.8z M399.1,20.5h12.3v3.8h-12.3V20.5z M399.3,7.8h14.1v30.6h-14.1v-3.9h10.1V11.7h-10.1
		V7.8z M403.6,0.3l4.7,0.8c-0.5,1.5-1,3-1.6,4.5c-0.6,1.5-1.1,2.8-1.5,3.8l-3.5-0.8c0.2-0.8,0.4-1.6,0.7-2.6c0.2-1,0.5-2,0.7-2.9
		C403.3,2,403.5,1.1,403.6,0.3z M420.3,0.3l4.2,1c-0.6,2.3-1.3,4.5-2.1,6.7c-0.8,2.2-1.7,4.3-2.7,6.2c-1,2-2,3.7-3,5.1
		c-0.2-0.2-0.6-0.5-1-0.9c-0.4-0.3-0.9-0.6-1.3-0.9c-0.4-0.3-0.9-0.6-1.2-0.7c1-1.3,2-2.9,2.9-4.7c0.9-1.8,1.7-3.7,2.4-5.7
		C419.2,4.4,419.8,2.4,420.3,0.3z M418.1,20.2l3.4-1.9c0.8,1,1.7,2.2,2.6,3.5c0.9,1.3,1.8,2.5,2.5,3.7s1.4,2.3,1.9,3.2l-3.7,2.3
		c-0.4-1-1-2-1.8-3.3c-0.8-1.2-1.6-2.5-2.4-3.8C419.8,22.5,419,21.3,418.1,20.2z M419.7,7.6h13.8v4h-13.8V7.6z M432,7.6h4.1
		c0,0.5,0,1,0,1.3c0,0.3,0,0.6,0,0.8c-0.2,5.3-0.3,9.7-0.5,13.3s-0.4,6.6-0.6,9c-0.2,2.3-0.5,4.1-0.8,5.4c-0.3,1.3-0.7,2.2-1.2,2.8
		c-0.6,0.8-1.2,1.3-1.8,1.6c-0.6,0.3-1.4,0.5-2.3,0.6c-0.8,0.1-1.8,0.1-3.1,0.1c-1.3,0-2.6-0.1-3.9-0.1c0-0.6-0.2-1.3-0.4-2.1
		c-0.3-0.8-0.6-1.5-1-2.1c1.5,0.1,2.9,0.2,4.1,0.2c1.3,0,2.2,0,2.8,0c0.5,0,0.8,0,1.1-0.1c0.3-0.1,0.6-0.3,0.9-0.6
		c0.4-0.4,0.7-1.3,1-2.5c0.3-1.2,0.5-3,0.7-5.3c0.2-2.3,0.4-5.2,0.6-8.7c0.2-3.5,0.3-7.8,0.4-12.7V7.6z"/>
	<path class="st0" d="M451.2,2.4h4.4v13.6c0,2-0.1,4.1-0.2,6.5c-0.1,2.3-0.4,4.7-0.7,7.2c-0.4,2.4-0.9,4.8-1.6,7.1
		c-0.7,2.3-1.6,4.4-2.8,6.3c-0.3-0.2-0.6-0.5-1.1-0.8c-0.5-0.3-0.9-0.6-1.4-0.8c-0.5-0.3-0.9-0.5-1.3-0.6c1.1-1.8,2-3.8,2.7-5.9
		c0.6-2.1,1.1-4.3,1.4-6.5c0.3-2.2,0.5-4.4,0.6-6.5c0.1-2.1,0.1-4.1,0.1-6V2.4z M453.9,2.4h32.4v10h-32.4V9H482V5.8h-28.1V2.4z
		 M457.4,15.2h28.9v12.2h-28.9V15.2z M459.4,29.2h25.2v13.9h-4.4V32h-16.5v11.2h-4.2V29.2z M461.4,17.7v7.1h20.6v-7.1H461.4z
		 M462.2,13.2l3.3-1.1c0.5,0.5,1,1.1,1.5,1.8s0.8,1.3,1,1.8l-3.5,1.2c-0.2-0.5-0.5-1.1-0.9-1.8C463.1,14.4,462.7,13.7,462.2,13.2z
		 M462.2,34.2h19.4v2.5h-19.4V34.2z M462.2,39h19.4v2.8h-19.4V39z M462.7,19.6l2.6-1.4c0.6,0.7,1.2,1.4,1.8,2.3
		c0.6,0.9,1,1.6,1.3,2.3l-2.8,1.6c-0.2-0.7-0.6-1.5-1.2-2.4C463.8,21.1,463.2,20.3,462.7,19.6z M469.6,16.2h4.1V26h-4.1V16.2z
		 M477.9,18.2l2.7,1.5c-0.6,0.9-1.1,1.7-1.7,2.6c-0.6,0.8-1.1,1.6-1.7,2.1l-2.4-1.4c0.5-0.6,1-1.4,1.6-2.3
		C477,19.7,477.5,18.9,477.9,18.2z M478,12.1l3.8,1.1c-0.6,0.8-1.1,1.5-1.7,2.1c-0.6,0.6-1.1,1.2-1.6,1.7l-3.1-1
		c0.4-0.6,0.9-1.2,1.4-1.9S477.8,12.7,478,12.1z"/>
	<path class="st0" d="M499.3,26.2h14.6v4.3h-14.6V26.2z M500.3,7.4h12.4v4.2h-12.4V7.4z M522.6,14h4.6v4c0,1.5-0.1,3.1-0.3,4.9
		c-0.2,1.7-0.5,3.5-1.1,5.3c-0.6,1.8-1.4,3.6-2.5,5.4c-1.1,1.8-2.6,3.5-4.5,5.2c-1.9,1.7-4.2,3.2-7.1,4.6c-0.2-0.4-0.5-0.8-0.9-1.2
		c-0.4-0.4-0.8-0.9-1.2-1.3c-0.4-0.4-0.8-0.8-1.2-1c2.6-1.3,4.7-2.6,6.5-4.1c1.7-1.5,3.1-3,4.1-4.5c1-1.6,1.8-3.1,2.3-4.7
		c0.5-1.6,0.8-3.1,1-4.6c0.2-1.5,0.3-2.8,0.3-4.1V14z M517.9,0.4l4.8,0.9c-0.6,2.7-1.2,5.3-2.1,7.9c-0.8,2.5-1.7,4.9-2.8,7.1
		c-1,2.2-2.1,4.1-3.3,5.8c-0.3-0.2-0.7-0.5-1.3-0.9s-1.1-0.6-1.6-0.9c-0.6-0.3-1-0.6-1.4-0.7c1.2-1.5,2.3-3.2,3.3-5.3
		c1-2,1.8-4.2,2.6-6.6C516.8,5.3,517.4,2.9,517.9,0.4z M518,8.1h19.2v4.3h-21.3L518,8.1z M526.9,18.1c0.6,3.3,1.6,6.4,2.8,9.2
		c1.2,2.8,2.8,5.2,4.8,7.2c2,2,4.4,3.5,7.3,4.6c-0.3,0.3-0.7,0.6-1.1,1.1c-0.4,0.4-0.7,0.9-1.1,1.4c-0.3,0.5-0.6,1-0.8,1.4
		c-3.1-1.3-5.6-3.1-7.7-5.4s-3.7-5-5-8.2c-1.3-3.2-2.3-6.7-3.1-10.6L526.9,18.1z M535.8,8.1h0.6l0.8-0.3l3.2,1.8
		c-0.4,1.6-0.9,3.1-1.4,4.7c-0.6,1.6-1.1,3.1-1.7,4.5c-0.6,1.4-1.2,2.7-1.7,3.8c-0.3-0.2-0.7-0.3-1.2-0.6s-0.9-0.5-1.4-0.7
		c-0.4-0.2-0.9-0.4-1.2-0.6c0.5-1,1-2.1,1.5-3.5c0.5-1.3,1-2.7,1.4-4.2c0.4-1.4,0.7-2.8,1-4V8.1z"/>
	<path class="st0" d="M552.4,38.1h40v4.1h-40V38.1z M552.5,5.5h39.6v9.8h-4.5V9.5h-30.8v6.8h-4.3V5.5z M565.9,8.5h4.5
		c-0.2,2.2-0.5,4.1-0.9,5.7c-0.4,1.6-1.2,3-2.3,4.2c-1.1,1.2-2.6,2.2-4.6,2.9c-2,0.8-4.6,1.4-7.8,1.9c-0.1-0.4-0.2-0.8-0.5-1.2
		c-0.2-0.4-0.5-0.9-0.8-1.3c-0.3-0.4-0.6-0.8-0.9-1.1c2.9-0.3,5.1-0.8,6.8-1.4c1.7-0.6,3-1.3,3.8-2.2s1.5-1.9,1.8-3.2
		C565.6,11.7,565.8,10.2,565.9,8.5z M557,25.2H588v4.1H557V25.2z M568.2,1.3l4.6-1.2c0.6,1,1.2,2.1,1.8,3.4c0.6,1.2,1,2.3,1.3,3.2
		l-4.8,1.5c-0.2-0.9-0.6-2-1.2-3.2C569.3,3.6,568.7,2.4,568.2,1.3z M570.2,27.3h4.6v12.8h-4.6V27.3z M575.3,8.4h4.3v7.7
		c0,0.6,0.1,1.1,0.3,1.4c0.2,0.3,0.6,0.4,1.3,0.4c0.2,0,0.7,0,1.4,0c0.7,0,1.4,0,2.3,0c0.8,0,1.6,0,2.3,0s1.2,0,1.5,0
		c0.6,0,1.3,0,2.1-0.1c0.8,0,1.5-0.1,1.9-0.2c0.1,0.6,0.1,1.2,0.2,2c0.1,0.8,0.1,1.4,0.2,1.9c-0.4,0.1-1,0.2-1.8,0.2
		c-0.8,0-1.6,0-2.4,0c-0.3,0-0.8,0-1.6,0c-0.7,0-1.5,0-2.4,0c-0.8,0-1.6,0-2.3,0s-1.2,0-1.5,0c-1.5,0-2.7-0.2-3.5-0.5
		c-0.9-0.4-1.5-1-1.8-1.8c-0.3-0.8-0.5-2-0.5-3.3V8.4z"/>
	<path class="st0" d="M605.3,2.3h4.3v40.9h-4.3V2.3z M607.4,8.8h12.3v3.1h-12.3V8.8z M607.8,2.3h14.7v16.2h-14.7v-3.2h10.6V5.5
		h-10.6V2.3z M615.6,21.7h4v19.5h-4V21.7z M617.4,21.7h15.7v17.2h-15.7v-3.3H629V25h-11.6V21.7z M617.7,28.6H631v3.2h-13.4V28.6z
		 M641.6,2.3v3.2h-11.3v9.9h11.3v3.2h-15.4V2.3H641.6z M628.8,8.8h12.4v3.1h-12.4V8.8z M639.4,2.3h4.4v35.4c0,1.3-0.2,2.3-0.5,3
		c-0.3,0.7-0.9,1.3-1.7,1.7c-0.8,0.4-1.9,0.6-3.2,0.7c-1.3,0.1-2.9,0.1-4.9,0.1c0-0.4-0.1-0.9-0.3-1.5c-0.2-0.5-0.3-1.1-0.5-1.6
		c-0.2-0.5-0.4-1-0.6-1.4c0.9,0.1,1.7,0.1,2.6,0.1s1.6,0,2.3,0c0.7,0,1.1,0,1.4,0c0.4,0,0.7-0.1,0.8-0.3c0.2-0.2,0.2-0.4,0.2-0.8
		V2.3z"/>
	<path class="st0" d="M121.8,69.7l4.8,1.8c-1.7,3.2-3.8,6.3-6.2,9.3c-2.4,3-5.2,5.8-8.2,8.4c-3,2.6-6.3,4.8-9.8,6.6
		c-0.2-0.4-0.5-0.8-0.9-1.3c-0.4-0.5-0.7-1-1.1-1.4c-0.4-0.5-0.7-0.9-1-1.2c2.5-1.2,4.9-2.7,7.1-4.3c2.2-1.7,4.3-3.5,6.3-5.4
		s3.7-4,5.2-6.1S120.8,71.8,121.8,69.7z M100.7,68.1h39.9v4.4h-39.9V68.1z M118.2,79.7L123,75v0v32.5h-4.7V79.7z M123.1,82.4
		l3.3-2.8c1.3,0.9,2.7,1.9,4.2,2.9c1.5,1,2.9,2.1,4.4,3.2c1.4,1.1,2.8,2.2,4,3.3c1.2,1.1,2.3,2.1,3.1,2.9l-3.6,3.4
		c-0.8-0.9-1.8-1.9-3-3c-1.2-1.1-2.5-2.2-3.9-3.4c-1.4-1.2-2.8-2.3-4.3-3.4C125.9,84.4,124.5,83.4,123.1,82.4z"/>
	<path class="st0" d="M164.8,93.7l4.6,1.8c-1.2,1.5-2.5,3.1-4.1,4.6c-1.6,1.5-3.2,2.9-4.9,4.3c-1.7,1.3-3.4,2.5-5,3.6
		c-0.3-0.3-0.7-0.7-1.1-1c-0.4-0.4-0.8-0.8-1.3-1.1c-0.4-0.4-0.8-0.7-1.2-0.9c1.6-1,3.3-2.1,4.9-3.3c1.7-1.2,3.2-2.5,4.6-3.9
		C162.8,96.2,163.9,94.9,164.8,93.7z M156.7,68.4h32v21.5h-32V68.4z M161.2,72.5v13.1h22.9V72.5H161.2z M176.6,95.8l3.7-2.3
		c1.5,1.1,3.1,2.4,4.7,3.8c1.6,1.4,3.2,2.7,4.7,4.1c1.5,1.4,2.7,2.6,3.6,3.7l-4.1,2.6c-0.9-1.1-2-2.3-3.4-3.7
		c-1.4-1.4-2.9-2.8-4.6-4.3C179.7,98.2,178.1,96.9,176.6,95.8z"/>
	<path class="st0" d="M203.1,95.8c1.2-0.5,2.7-1,4.3-1.7c1.6-0.7,3.4-1.4,5.2-2.1c1.8-0.8,3.6-1.5,5.5-2.3l1,3.9
		c-2.4,1.2-4.9,2.3-7.4,3.5c-2.5,1.2-4.7,2.2-6.8,3.1L203.1,95.8z M204,75.9H218V80H204V75.9z M209.3,65.5h4.1v30.2h-4.1V65.5z
		 M216.5,83.7L241,73.4l1.6,3.7l-24.4,10.5L216.5,83.7z M221.3,69.3h4.2v30.4c0,0.9,0.1,1.5,0.2,2c0.2,0.4,0.5,0.7,1,0.9
		c0.5,0.2,1.3,0.2,2.2,0.2c0.3,0,0.8,0,1.4,0c0.7,0,1.4,0,2.3,0c0.8,0,1.7,0,2.6,0c0.9,0,1.6,0,2.4,0c0.7,0,1.2,0,1.6,0
		c0.9,0,1.5-0.2,2-0.5c0.4-0.3,0.8-1,1-1.8c0.2-0.9,0.4-2.2,0.5-3.9c0.5,0.3,1.1,0.7,1.9,1s1.4,0.5,2,0.6c-0.2,2.2-0.5,3.8-1,5.1
		s-1.2,2.1-2.1,2.7c-0.9,0.5-2.3,0.8-3.9,0.8c-0.3,0-0.8,0-1.5,0c-0.7,0-1.6,0-2.5,0c-0.9,0-1.9,0-2.8,0c-0.9,0-1.8,0-2.5,0
		c-0.7,0-1.2,0-1.5,0c-1.9,0-3.4-0.2-4.4-0.6c-1.1-0.4-1.9-1.1-2.3-2.1c-0.4-1-0.6-2.5-0.6-4.3V69.3z M230.7,64.9h4.1v32.3h-4.1
		V64.9z M239.8,74.6h-0.5l1.6-1.2l3.3,1.1l-0.2,0.7c-0.1,2.2-0.2,4.5-0.5,6.9c-0.2,2.5-0.5,4.9-0.7,7.2s-0.6,4.4-1,6.2l-3.5-1
		c0.2-1.2,0.4-2.7,0.6-4.3c0.2-1.6,0.3-3.3,0.4-5.1c0.1-1.8,0.3-3.6,0.3-5.4C239.7,77.9,239.8,76.2,239.8,74.6z"/>
	<path class="st0" d="M262.5,77.3l2.6,0.9c-0.4,1.8-0.8,3.8-1.4,5.7c-0.6,2-1.2,3.9-1.9,5.8c-0.7,1.9-1.5,3.7-2.3,5.3
		c-0.8,1.6-1.6,3-2.5,4.2c-0.2-0.6-0.5-1.3-1-2.1c-0.4-0.8-0.8-1.4-1.2-1.9c0.8-1,1.6-2.2,2.3-3.6c0.8-1.4,1.5-2.9,2.1-4.5
		c0.7-1.6,1.3-3.3,1.8-5C261.7,80.6,262.1,78.9,262.5,77.3z M256.1,74.7h16.3v4.1h-16.3V74.7z M262.6,64.9h4.1v42.7h-4.1V64.9z
		 M266.5,81.9c0.3,0.3,0.8,0.8,1.4,1.6c0.6,0.8,1.3,1.6,2,2.5c0.7,0.9,1.3,1.8,1.9,2.5c0.6,0.8,1,1.3,1.2,1.7l-2.6,3.4
		c-0.3-0.6-0.7-1.4-1.2-2.3c-0.5-0.9-1.1-1.8-1.7-2.8c-0.6-1-1.1-1.8-1.7-2.7s-1-1.5-1.4-2L266.5,81.9z M274.6,67.7h4.2v13
		c0,2-0.1,4.1-0.2,6.5c-0.2,2.3-0.5,4.7-0.9,7.1c-0.4,2.4-1.1,4.8-2,7.1c-0.9,2.3-2,4.4-3.4,6.2c-0.2-0.2-0.6-0.5-1-0.9
		c-0.4-0.3-0.9-0.7-1.3-1c-0.4-0.3-0.8-0.6-1.2-0.7c1.3-1.8,2.4-3.7,3.1-5.7c0.8-2.1,1.3-4.2,1.7-6.3c0.4-2.2,0.6-4.3,0.7-6.4
		c0.1-2.1,0.2-4.1,0.2-5.9V67.7z M292.9,79.5h0.7l0.8-0.1l2.7,0.9c-0.8,4.7-2.1,8.8-3.8,12.4c-1.7,3.6-3.8,6.6-6.3,9.1
		c-2.5,2.5-5.2,4.5-8.2,6c-0.2-0.3-0.4-0.7-0.7-1.2c-0.3-0.4-0.6-0.9-0.9-1.3c-0.3-0.4-0.7-0.8-1-1c2.7-1.2,5.2-2.9,7.4-5.2
		c2.3-2.3,4.2-5,5.8-8.2c1.6-3.2,2.8-6.7,3.4-10.6V79.5z M276.8,67.7h20.7v4.1h-20.7V67.7z M276.9,79.5h16.9v4h-16.9V79.5z
		 M281.9,82.3c0.9,3.3,2.1,6.4,3.6,9.3c1.5,2.9,3.4,5.4,5.6,7.6c2.2,2.2,4.8,3.8,7.7,5c-0.3,0.3-0.7,0.6-1.1,1.1
		c-0.4,0.4-0.7,0.9-1,1.3c-0.3,0.5-0.6,0.9-0.9,1.2c-3-1.4-5.7-3.4-7.9-5.8c-2.3-2.4-4.2-5.2-5.8-8.4c-1.6-3.2-2.9-6.7-3.9-10.5
		L281.9,82.3z"/>
	<path class="st0" d="M313.6,95.7l-1.2-3c1.9-0.7,3.4-1.6,4.4-2.8c1-1.1,1.5-2.5,1.5-4.1l-0.6-4.2l2.5,3.8c-0.4,0.4-0.8,0.6-1.2,0.8
		c-0.4,0.2-0.9,0.3-1.4,0.3c-1,0-2-0.3-2.7-0.9c-0.8-0.6-1.2-1.5-1.2-2.7c0-1.2,0.4-2.1,1.2-2.7c0.8-0.6,1.7-1,2.7-1
		c1.4,0,2.5,0.5,3.3,1.6c0.8,1,1.1,2.4,1.1,4.2c0,2.6-0.8,4.8-2.3,6.7C318.3,93.5,316.2,94.9,313.6,95.7z"/>
	<path class="st0" d="M338.3,94.9l3.1,0.5c-0.2,2-0.5,4-0.9,6c-0.4,2-0.8,3.7-1.3,5.1c-0.3-0.2-0.8-0.4-1.5-0.6
		c-0.6-0.2-1.1-0.4-1.5-0.5c0.6-1.4,1-3.1,1.3-5C337.9,98.7,338.1,96.8,338.3,94.9z M337.7,82.6c-0.1-0.2-0.2-0.6-0.3-1.1
		c-0.2-0.5-0.3-0.9-0.5-1.4c-0.2-0.5-0.3-0.9-0.5-1.2c0.4-0.1,0.7-0.4,1.1-0.8c0.4-0.4,0.8-1,1.2-1.7c0.3-0.4,0.8-1.2,1.3-2.4
		s1.2-2.6,1.9-4.2c0.7-1.6,1.2-3.2,1.7-4.8l3.7,1.5c-0.6,1.7-1.3,3.3-2.1,5c-0.8,1.7-1.6,3.3-2.5,4.9c-0.9,1.6-1.7,2.9-2.6,4.2v0.1
		c-0.5,0.3-0.9,0.5-1.2,0.7c-0.3,0.2-0.6,0.4-0.9,0.7S337.7,82.5,337.7,82.6z M337.8,93.2c-0.1-0.2-0.2-0.6-0.3-1
		c-0.1-0.4-0.3-0.9-0.4-1.3c-0.2-0.5-0.3-0.8-0.5-1.2c0.5-0.1,1-0.5,1.5-1c0.5-0.5,1-1.2,1.6-2.1c0.3-0.4,0.8-1.1,1.5-2
		c0.6-1,1.3-2.1,2.1-3.4c0.8-1.3,1.5-2.7,2.3-4.3c0.8-1.5,1.4-3,2-4.6l3.4,1.8c-1,2.1-2.1,4.1-3.3,6.2c-1.2,2.1-2.4,4-3.7,5.9
		c-1.3,1.9-2.6,3.6-3.9,5.1v0c-0.4,0.3-0.8,0.5-1.1,0.7c-0.3,0.2-0.6,0.4-0.8,0.6C337.9,92.8,337.8,93,337.8,93.2z M337.7,82.6
		l-0.1-2.9l1.8-1.2l7.7-0.6c-0.1,0.5-0.2,1.1-0.2,1.7c-0.1,0.6-0.1,1.1-0.1,1.6c-2.4,0.2-4.2,0.4-5.4,0.6c-1.2,0.2-2.1,0.3-2.6,0.5
		C338.3,82.4,337.9,82.5,337.7,82.6z M337.8,93.2l-0.2-3l1.7-1.2l10.6-1.8c-0.1,0.5-0.1,1-0.1,1.7c0,0.6,0,1.1,0,1.5
		c-2.4,0.5-4.4,0.9-5.9,1.2c-1.5,0.3-2.6,0.6-3.5,0.8c-0.8,0.2-1.4,0.3-1.8,0.5S338.1,93,337.8,93.2z M342.9,95.5l2.8-0.6
		c0.2,1.5,0.5,3.2,0.7,5c0.2,1.8,0.4,3.3,0.4,4.6l-2.9,0.7c0-0.9-0.1-1.9-0.2-3c-0.1-1.1-0.2-2.2-0.4-3.4
		C343.2,97.5,343,96.4,342.9,95.5z M346.4,83.7l2.9-0.8c0.4,1,0.7,2,1.1,3.2c0.4,1.1,0.7,2.2,1,3.3s0.5,2,0.6,2.7l-3,1
		c-0.1-0.8-0.3-1.7-0.6-2.8c-0.3-1.1-0.6-2.2-0.9-3.3C347.1,85.8,346.8,84.7,346.4,83.7z M347.4,94.3l2.6-0.8
		c0.4,1.1,0.9,2.4,1.3,3.8c0.4,1.4,0.8,2.5,0.9,3.5l-2.8,1c-0.2-1-0.5-2.2-0.9-3.5C348.2,96.7,347.8,95.5,347.4,94.3z M357.2,86.6
		h1.4l0.6-0.1l1.5,0.7c-0.6,5-1.6,9.2-3,12.7c-1.4,3.5-3.3,6.1-5.4,8c-0.2-0.3-0.4-0.6-0.7-1c-0.3-0.4-0.6-0.7-0.9-1.1
		c-0.3-0.4-0.6-0.6-0.9-0.8c2-1.7,3.6-4,4.9-7c1.2-3,2.1-6.5,2.6-10.7V86.6z M352.8,90.9c-0.1-0.3-0.2-0.7-0.4-1.1
		c-0.2-0.4-0.4-0.8-0.6-1.2c-0.2-0.4-0.4-0.7-0.5-1c0.4-0.1,0.7-0.3,1-0.5c0.3-0.2,0.6-0.5,0.9-1c0.2-0.3,0.5-0.9,0.9-1.8
		c0.4-0.9,0.8-1.8,1.2-2.9c0.4-1.1,0.8-2.2,1.2-3.2c0.4-1,0.7-1.9,0.9-2.5v-0.1l1-0.4l2.5,0.7c-0.3,0.8-0.7,1.7-1.1,2.8
		c-0.4,1.1-0.9,2.3-1.5,3.5c-0.5,1.2-1,2.4-1.5,3.5c-0.5,1.1-0.9,2-1.3,2.8c-0.6,0.3-1,0.6-1.4,0.8c-0.4,0.2-0.7,0.5-1,0.8
		C353,90.3,352.8,90.6,352.8,90.9z M351.5,75.5h7.1v3.7h-7.1V75.5z M351.8,66.4l3.2-1.2c0.7,1.1,1.5,2.3,2.3,3.6
		c0.8,1.3,1.4,2.4,1.8,3.4l-3.3,1.4c-0.4-1-1-2.2-1.7-3.5C353.3,68.8,352.5,67.5,351.8,66.4z M352.8,90.9v-3.4l1.8-0.9h4.7v3.6h-4
		c-0.4,0-0.9,0.1-1.5,0.2C353.4,90.5,353,90.7,352.8,90.9z M358,96.4c0.7,2,1.7,3.5,2.9,4.5c1.2,1,2.6,1.7,4.1,2
		c1.6,0.3,3.4,0.5,5.3,0.5c0.9,0,1.9,0,3,0c1.1,0,2.2-0.1,3.4-0.1c1.1-0.1,2.2-0.1,3.1-0.2c-0.2,0.3-0.4,0.6-0.5,1.1
		s-0.3,0.9-0.4,1.4c-0.1,0.5-0.2,0.9-0.3,1.3c-1.2,0.1-2.6,0.1-4.1,0.2c-1.5,0-2.9,0.1-4.3,0.1c-2.5,0-4.7-0.2-6.6-0.7
		c-1.9-0.5-3.5-1.4-4.9-2.8c-1.4-1.4-2.5-3.4-3.4-6L358,96.4z M367.1,64.8l3.3,0.9c-1,2.2-2.2,4.2-3.8,6c-1.6,1.9-3.2,3.4-4.9,4.7
		c-0.2-0.2-0.4-0.5-0.7-0.8c-0.3-0.3-0.6-0.6-1-0.9c-0.3-0.3-0.6-0.6-0.9-0.7c1.7-1.1,3.2-2.4,4.6-4
		C365.3,68.4,366.4,66.6,367.1,64.8z M374.4,68.4h0.7l0.6-0.1l2.3,1c-1,2.6-2.3,4.9-4,6.8c-1.7,2-3.7,3.6-5.8,5
		c-2.2,1.4-4.4,2.5-6.8,3.3c-0.2-0.4-0.5-0.9-0.9-1.5c-0.4-0.6-0.7-1-1.1-1.4c2.2-0.6,4.3-1.5,6.3-2.7c2-1.2,3.8-2.6,5.3-4.3
		c1.6-1.7,2.7-3.5,3.5-5.5V68.4z M361,95.5h17.7v3H361V95.5z M361.9,84.9h15.6v2.9h-15.6V84.9z M362.4,74.1l2.6-2.3
		c1.7,0.9,3.5,1.9,5.3,3c1.8,1.2,3.5,2.3,5.1,3.5c1.6,1.2,2.9,2.3,3.9,3.4l-2.6,2.6c-1-1.1-2.3-2.2-3.9-3.5
		c-1.6-1.2-3.3-2.5-5.1-3.6C365.9,76,364.2,75,362.4,74.1z M362.7,90.2h14.1v2.9h-14.1V90.2z M366.1,68.4h9.1v2.9h-9.1V68.4z
		 M368.3,82.4h3.4V102h-3.4V82.4z"/>
	<path class="st0" d="M390.6,66.9h10.6v3.9h-6.8v36.9h-3.8V66.9z M400.4,66.9h0.7l0.6-0.2l2.8,1.7c-0.6,1.9-1.3,3.9-2.1,6.1
		c-0.8,2.2-1.5,4.1-2.3,5.9c1.6,1.9,2.6,3.7,3.1,5.3c0.5,1.6,0.7,3.2,0.7,4.6c0,1.3-0.2,2.5-0.5,3.5c-0.3,1-0.8,1.7-1.5,2.2
		c-0.4,0.3-0.8,0.5-1.2,0.6c-0.4,0.1-0.9,0.3-1.4,0.3c-0.4,0-0.9,0.1-1.5,0.1c-0.5,0-1.1,0-1.6,0c0-0.5-0.1-1.1-0.3-1.9
		c-0.2-0.7-0.4-1.4-0.7-1.9c0.5,0,0.9,0.1,1.3,0.1c0.4,0,0.7,0,1.1,0c0.6,0,1-0.2,1.3-0.4c0.3-0.2,0.6-0.6,0.7-1.2
		c0.1-0.6,0.2-1.2,0.2-1.8c0-1.2-0.2-2.6-0.7-4.1c-0.5-1.5-1.5-3.2-3-4.9c0.4-1,0.8-2.2,1.2-3.3c0.4-1.2,0.7-2.3,1.1-3.5
		c0.3-1.2,0.7-2.3,1-3.3c0.3-1,0.6-1.9,0.7-2.7V66.9z M408.1,96l3.8,1c-0.8,1.8-1.8,3.6-3,5.3s-2.5,3.2-3.7,4.4
		c-0.2-0.2-0.6-0.5-1-0.8c-0.4-0.3-0.8-0.6-1.2-0.9c-0.4-0.3-0.8-0.5-1.1-0.7c1.3-1,2.5-2.3,3.5-3.8C406.6,99.1,407.4,97.6,408.1,96
		z M409.3,67.3l3.8,1.1c-0.7,1.4-1.5,2.8-2.6,4.2c-1,1.4-2.1,2.6-3.1,3.5c-0.2-0.2-0.6-0.4-1-0.7c-0.4-0.3-0.8-0.5-1.2-0.8
		c-0.4-0.2-0.8-0.4-1.1-0.6c1-0.9,2-2,2.9-3.2C407.9,69.8,408.7,68.6,409.3,67.3z M406.2,78.4h22.6v15.7h-22.6V78.4z M412.1,74.8
		l4.3,1.2c-0.6,1-1.3,1.9-2,2.7c-0.7,0.8-1.3,1.6-1.9,2.1l-3.8-1.1c0.6-0.7,1.2-1.5,1.8-2.4S411.8,75.5,412.1,74.8z M410.2,81.5v3.3
		h14.5v-3.3H410.2z M410.2,87.8v3.3h14.5v-3.3H410.2z M415.3,92.9h4.1v10.6c0,0.9-0.1,1.7-0.3,2.2c-0.2,0.5-0.7,1-1.4,1.3
		c-0.6,0.3-1.5,0.4-2.5,0.5c-1,0-2.2,0.1-3.5,0.1c-0.1-0.5-0.2-1.1-0.5-1.8c-0.2-0.7-0.4-1.3-0.7-1.8c0.9,0,1.7,0,2.5,0
		c0.8,0,1.3,0,1.5,0c0.5,0,0.7-0.2,0.7-0.6V92.9z M415.3,64.9h4.1v10.8h-4.1V64.9z M421.2,68.7l3.1-1.9c0.8,0.7,1.7,1.4,2.5,2.3
		c0.9,0.9,1.7,1.7,2.4,2.6c0.7,0.8,1.3,1.6,1.8,2.4l-3.3,2.1c-0.4-0.7-1-1.5-1.7-2.4c-0.7-0.9-1.5-1.8-2.3-2.7
		C422.9,70.2,422,69.4,421.2,68.7z M422.1,97.3l3.5-1.6c0.8,0.9,1.6,1.9,2.4,2.9c0.8,1,1.5,2.1,2.2,3.1c0.6,1,1.2,2,1.5,2.9
		l-3.7,1.7c-0.3-0.8-0.8-1.8-1.4-2.8c-0.6-1-1.3-2.1-2.1-3.2C423.7,99.3,422.9,98.3,422.1,97.3z"/>
	<path class="st0" d="M453.8,93.5c-1-1.2-2-2.4-3.2-3.6c-1.2-1.2-2.3-2.4-3.5-3.5c-1.2-1.1-2.3-2.2-3.4-3l3.8-3.3
		c1.1,0.9,2.3,1.9,3.5,3.1c1.2,1.2,2.4,2.4,3.6,3.6c1.2,1.2,2.2,2.4,3.1,3.4L453.8,93.5z"/>
	<path class="st0" d="M470.8,69.5h40.7v3.7h-40.7V69.5z M472.3,87.3h36.5v3.6h-32.3v16.8h-4.2V87.3z M477.4,75.5h28V85h-28V75.5z
		 M480.9,93.2h4.1v12h-4.1V93.2z M481.7,78.5V82h19.1v-3.5H481.7z M483.3,93.2h17.5v9.8h-17.5v-3.1h13.6v-3.6h-13.6V93.2z M488,65.7
		l4.4-1c0.4,1,0.9,2,1.3,3.2c0.4,1.2,0.8,2.2,1,2.9l-4.6,1.3c-0.2-0.8-0.5-1.8-0.9-3C488.7,67.9,488.3,66.8,488,65.7z M505.7,87.3
		h4.4v16.1c0,1-0.1,1.8-0.4,2.3c-0.3,0.5-0.8,0.9-1.6,1.2c-0.7,0.2-1.6,0.4-2.7,0.5c-1.1,0.1-2.4,0.1-4,0c-0.1-0.5-0.3-1-0.6-1.6
		c-0.3-0.6-0.5-1.1-0.8-1.6c0.6,0,1.3,0.1,2,0.1c0.7,0,1.3,0,1.8,0c0.5,0,0.9,0,1,0c0.6,0,0.8-0.2,0.8-0.7V87.3z"/>
	<path class="st0" d="M525.7,73.4h4.1v11.1c0,1.7-0.1,3.5-0.2,5.6c-0.1,2-0.4,4.1-0.7,6.2c-0.3,2.1-0.8,4.2-1.4,6.2
		c-0.6,2-1.5,3.8-2.5,5.4c-0.2-0.2-0.5-0.5-1-0.9c-0.4-0.4-0.9-0.7-1.3-1c-0.4-0.3-0.8-0.5-1.1-0.7c0.9-1.5,1.7-3.2,2.2-5
		c0.5-1.8,0.9-3.6,1.2-5.4c0.3-1.8,0.4-3.7,0.5-5.4c0.1-1.8,0.1-3.4,0.1-4.9V73.4z M541.3,89.3h0.7l0.6-0.1l2.2,0.6
		c-0.6,3.4-1.6,6.3-3,8.6c-1.4,2.4-3.1,4.3-5,5.9c-2,1.5-4.2,2.8-6.8,3.7c-0.2-0.5-0.5-1-0.8-1.6c-0.4-0.6-0.7-1.1-1.1-1.5
		c2.2-0.7,4.3-1.7,6-3c1.8-1.3,3.3-3,4.5-5c1.2-2,2.1-4.4,2.6-7.1V89.3z M528.1,73.4h32.7v3.4h-32.7V73.4z M535.3,85.7l3.4,0.8
		c-0.8,2.5-1.9,4.8-3.3,7c-1.4,2.2-2.9,4.1-4.5,5.5c-0.2-0.2-0.4-0.5-0.7-0.8s-0.6-0.6-0.9-1c-0.3-0.3-0.6-0.6-0.9-0.8
		c1.5-1.3,2.9-2.9,4.1-4.8C533.7,89.8,534.6,87.8,535.3,85.7z M532,79.8l24-1.4l0.2,2.7l-24.1,1.5L532,79.8z M535.2,92.1
		c0.7,2.4,1.6,4.4,2.7,5.9c1.1,1.5,2.4,2.7,3.9,3.4c1.5,0.8,3.1,1.3,4.9,1.6c1.8,0.3,3.8,0.4,5.9,0.4c0.3,0,0.9,0,1.7,0
		c0.8,0,1.7,0,2.7,0c1,0,2.1,0,3.1,0c1.1,0,2,0,2.9,0c0.9,0,1.5,0,1.9,0c-0.3,0.4-0.5,1-0.8,1.7c-0.2,0.7-0.4,1.4-0.6,1.9h-2.4h-8.8
		c-2.6,0-4.9-0.2-7-0.6c-2.1-0.4-4-1-5.6-2s-3.1-2.4-4.4-4.2c-1.2-1.8-2.3-4.2-3.1-7.2L535.2,92.1z M535.2,89.3h7.1v3h-7.1V89.3z
		 M540.6,64.9h4.3v10.3h-4.3V64.9z M540.6,76h4.1v6.4c0,0.6,0.1,1.1,0.3,1.3c0.2,0.3,0.7,0.4,1.5,0.4c0.3,0,0.8,0,1.5,0
		c0.7,0,1.4,0,2.2,0c0.8,0,1.7,0,2.5,0c0.8,0,1.6,0,2.3,0s1.2,0,1.5,0c0.5,0,1.1,0,1.8,0c0.7,0,1.3-0.1,2-0.1
		c0.6-0.1,1.1-0.1,1.5-0.2c0.1,0.6,0.1,1.1,0.2,1.7c0,0.5,0.1,1,0.2,1.5c-0.5,0.2-1.2,0.2-2.2,0.3c-1,0-2,0-3,0c-0.3,0-0.9,0-1.7,0
		c-0.8,0-1.6,0-2.5,0c-0.9,0-1.8,0-2.8,0c-0.9,0-1.7,0-2.4,0s-1.2,0-1.4,0c-1.5,0-2.6-0.2-3.4-0.5c-0.8-0.3-1.4-0.9-1.7-1.6
		c-0.3-0.7-0.4-1.7-0.4-2.8V76z M542.6,67.6h17.8v3.2h-17.8V67.6z M547.1,89.3h3.5v3.5c0,1-0.1,2.1-0.3,3.2
		c-0.2,1.2-0.7,2.3-1.3,3.3c-0.6,1.1-1.5,2.1-2.7,2.9c-0.2-0.2-0.4-0.5-0.7-0.8c-0.3-0.3-0.7-0.6-1-0.9c-0.4-0.3-0.7-0.5-0.9-0.7
		c1.5-1.1,2.5-2.3,2.9-3.6c0.4-1.3,0.6-2.5,0.6-3.7V89.3z M548.9,89.3h7.9v3.2h-7.9V89.3z M554.4,89.3h3.3v8.6c0,0.5,0,0.8,0.1,0.9
		c0.1,0.1,0.3,0.2,0.5,0.2c0.1,0,0.2,0,0.4,0c0.2,0,0.4,0,0.6,0s0.4,0,0.4,0c0.3,0,0.5-0.2,0.6-0.6c0.1-0.4,0.2-1.2,0.3-2.5
		c0.3,0.2,0.7,0.4,1.2,0.6c0.5,0.2,1,0.3,1.4,0.5c-0.1,1.7-0.4,2.9-0.8,3.5c-0.5,0.6-1.2,0.9-2.2,0.9c-0.2,0-0.4,0-0.7,0
		c-0.3,0-0.7,0-1,0c-0.3,0-0.6,0-0.7,0c-1.3,0-2.2-0.2-2.6-0.7c-0.5-0.5-0.7-1.4-0.7-2.7V89.3z M559.4,73.4h0.7l0.7-0.2l3.1,0.8
		c-0.5,1.4-1,2.8-1.5,4.2c-0.6,1.4-1.1,2.6-1.7,3.7l-3.6-1.1c0.4-0.9,0.9-2,1.3-3.2c0.4-1.3,0.8-2.5,1.1-3.6V73.4z"/>
	<path class="st0" d="M595.1,66.7l3.9,1.1c-2.5,5.9-5.7,11.1-9.6,15.6s-8.5,8.1-13.7,10.9c-0.1-0.3-0.3-0.7-0.7-1.2
		c-0.3-0.5-0.7-0.9-1-1.4c-0.3-0.4-0.6-0.8-0.9-1.1c5-2.4,9.4-5.7,13.1-9.8C590,76.8,592.9,72.1,595.1,66.7z M574.2,78.7h23.7v3.8
		h-23.7V78.7z M576.2,70.1h16v3.8h-16V70.1z M582.8,86.5h10.9v3.5h-10.9v17.5h-4V89l2.4-2.5H582.8z M581.4,93.8h12.4v3.4h-12.4V93.8
		z M581.4,101.4h12.4v3.5h-12.4V101.4z M582.9,65.3h4.1v15.8h-4.1V65.3z M591.9,86.5h4.1v20.4h-4.1V86.5z M599.6,67.5h13.7v4.1H604
		v36.1h-4.3V67.5z M612.3,67.5h0.8l0.6-0.1l3.2,2c-0.9,2.2-1.9,4.5-3,7c-1.1,2.5-2.2,4.8-3.2,6.8c1.5,1.4,2.6,2.8,3.4,4
		c0.8,1.3,1.3,2.5,1.6,3.7c0.3,1.2,0.5,2.3,0.5,3.4c0,1.5-0.2,2.9-0.6,3.9c-0.4,1.1-1,1.9-1.9,2.5c-0.8,0.6-1.9,0.9-3.2,1.1
		c-0.6,0.1-1.2,0.1-2,0.1s-1.5,0-2.2,0c0-0.6-0.1-1.3-0.3-2.1s-0.5-1.5-0.9-2.1c0.7,0.1,1.4,0.1,1.9,0.1c0.6,0,1.1,0,1.6,0
		c0.4,0,0.8,0,1.1-0.1c0.4-0.1,0.7-0.2,0.9-0.4c0.5-0.3,0.8-0.7,1-1.3c0.2-0.6,0.3-1.3,0.3-2.1c0-1.4-0.4-2.9-1.2-4.6
		c-0.8-1.7-2.3-3.5-4.4-5.4c0.5-1.2,1.1-2.4,1.6-3.8c0.6-1.4,1.1-2.7,1.6-4.1c0.5-1.4,1-2.6,1.5-3.8c0.4-1.2,0.8-2.3,1.2-3.1V67.5z"
		/>
	<path class="st0" d="M657,88.5l4.2,1.2c-1.1,3.1-2.5,5.8-4.4,7.9c-1.8,2.2-4.1,3.9-6.7,5.3c-2.7,1.4-5.8,2.4-9.4,3.2
		c-3.6,0.7-7.8,1.3-12.5,1.7c-0.2-0.6-0.4-1.3-0.7-2c-0.3-0.7-0.6-1.3-1-1.8c4.5-0.2,8.4-0.7,11.8-1.3c3.4-0.6,6.3-1.5,8.8-2.7
		c2.5-1.2,4.5-2.7,6.1-4.5C654.8,93.6,656.1,91.3,657,88.5z M626.7,91.2h41.5v3.6h-41.5V91.2z M627.4,66.8h40v3.8h-40V66.8z
		 M629.6,73.9h36v12.4h-36V73.9z M632.2,99.9c1-1.1,2.1-2.5,3.2-4c1.1-1.5,2.2-3.1,3.2-4.7c1-1.6,1.9-3.2,2.5-4.7l4.3,1
		c-0.7,1.4-1.5,2.9-2.5,4.4c-1,1.5-2,3-2.9,4.3c-1,1.4-1.9,2.6-2.7,3.6L632.2,99.9z M632.2,99.9l3.4-2.8c3,0.5,6,1,8.9,1.6
		c3,0.6,5.9,1.2,8.7,1.9c2.8,0.6,5.4,1.3,7.9,2c2.4,0.7,4.6,1.3,6.5,2l-4,3.1c-2.3-0.9-5.1-1.8-8.4-2.7c-3.3-0.9-6.9-1.8-10.8-2.7
		C640.5,101.4,636.4,100.6,632.2,99.9z M633.7,77.4v5.4h27.6v-5.4H633.7z M639.8,68.2h4.1v16h-4.1V68.2z M650.4,68.2h4.1v16h-4.1
		V68.2z"/>
	<path class="st0" d="M691.6,93.8l3.5,1.4c-1,1.6-2.3,3.1-3.9,4.7c-1.5,1.5-3.2,2.9-5,4.1c-1.8,1.2-3.5,2.2-5.3,3
		c-0.3-0.5-0.8-1.1-1.3-1.8c-0.5-0.7-1.1-1.2-1.5-1.6c1.7-0.6,3.4-1.5,5.1-2.5c1.7-1,3.3-2.2,4.8-3.4
		C689.5,96.5,690.7,95.1,691.6,93.8z M678.9,85h41.4v3.7h-41.4V85z M679.6,71.2h39.9v3.7h-39.9V71.2z M683,78.3h32.7v17.5h-33.2
		v-3.4h28.9V81.7H683V78.3z M685.5,66.6l3.9-1.8c1,0.8,1.9,1.7,2.9,2.8c1,1,1.7,2,2.2,2.8l-4.2,2c-0.4-0.8-1.1-1.7-2.1-2.8
		C687.4,68.4,686.5,67.5,685.5,66.6z M692.3,73.3h4.2v34.4h-4.2V73.3z M701.9,73.3h4.2v34.4h-4.2V73.3z M706.5,93.5
		c1.1,1.3,2.4,2.6,4,3.9c1.6,1.3,3.3,2.4,5.1,3.4c1.8,1,3.6,1.8,5.5,2.4c-0.3,0.3-0.7,0.6-1.1,1c-0.4,0.4-0.7,0.8-1,1.3
		c-0.3,0.4-0.6,0.8-0.8,1.2c-1.8-0.8-3.6-1.8-5.5-3.1s-3.6-2.6-5.2-4.2c-1.6-1.5-3-3.1-4.1-4.7L706.5,93.5z M709.3,64.8l4.7,1.5
		c-1,1.3-2,2.5-3,3.7c-1,1.2-2,2.3-2.9,3.1l-3.9-1.4c0.6-0.6,1.2-1.4,1.8-2.2c0.6-0.8,1.3-1.6,1.8-2.5
		C708.4,66.3,708.9,65.6,709.3,64.8z"/>
	<path class="st0" d="M732.4,68.4h3.6v14.8c0,1.8,0,3.7-0.1,5.7c-0.1,2.1-0.2,4.2-0.4,6.4c-0.2,2.2-0.5,4.3-0.9,6.3
		c-0.4,2.1-0.9,3.9-1.6,5.6c-0.2-0.2-0.5-0.4-0.9-0.6c-0.4-0.2-0.8-0.5-1.2-0.7c-0.4-0.2-0.8-0.4-1.1-0.5c0.6-1.6,1.1-3.4,1.5-5.3
		c0.4-1.9,0.6-3.8,0.8-5.8s0.3-3.9,0.3-5.8c0-1.9,0.1-3.7,0.1-5.3V68.4z M748.7,65.7l3.2,2.9c-1.7,0.5-3.5,0.9-5.6,1.3
		c-2.1,0.4-4.2,0.7-6.4,1c-2.2,0.2-4.3,0.5-6.3,0.6c-0.1-0.5-0.2-1-0.4-1.6c-0.2-0.6-0.5-1.1-0.7-1.5c1.9-0.2,3.9-0.4,5.9-0.7
		c2-0.3,3.9-0.6,5.8-0.9C745.9,66.5,747.5,66.1,748.7,65.7z M734,73.2h18v10.1h-18V80h14.1v-3.4H734V73.2z M739.3,83.4l3.1,0.8
		c-0.7,2.2-1.6,4.3-2.6,6.3c-1.1,2.1-2.2,3.8-3.5,5.2c-0.1-0.2-0.3-0.5-0.5-0.9c-0.2-0.4-0.5-0.7-0.8-1.1c-0.3-0.4-0.5-0.7-0.7-0.9
		c1.1-1.2,2.1-2.6,2.9-4.3C738.1,87,738.8,85.2,739.3,83.4z M740.8,87.4h11.8v2.9h-11.8v17h-3.2V90.2l2.4-2.8H740.8z M739.1,92.4h13
		v2.5h-13V92.4z M739.1,97.1h13v2.6h-13V97.1z M739.2,101.9h13.6v3h-13.6V101.9z M743.4,84.4l2.9-0.8c0.4,0.7,0.8,1.5,1.2,2.4
		c0.4,0.9,0.7,1.6,0.8,2.3l-3.1,1c-0.2-0.6-0.4-1.4-0.8-2.3C744.2,86,743.8,85.1,743.4,84.4z M744.7,88.8h2.9v14.8h-2.9V88.8z
		 M758.5,99.3l3.5,2.1c-1,1.1-2.1,2.3-3.6,3.5s-2.8,2.2-4.1,2.9c-0.3-0.4-0.7-0.8-1.3-1.3s-1-0.9-1.5-1.3c0.9-0.4,1.7-1,2.6-1.6
		c0.9-0.7,1.7-1.4,2.5-2.1S758.1,100,758.5,99.3z M753.4,67h19.1v3.7h-19.1V67z M754.5,74.4H771v23.9h-16.5V74.4z M758.2,77.8v3.6
		h9.1v-3.6H758.2z M758.2,84.5v3.7h9.1v-3.7H758.2z M758.2,91.3V95h9.1v-3.7H758.2z M760.8,68.9l4.5,0.6c-0.3,1.3-0.7,2.7-1,4
		c-0.3,1.3-0.6,2.5-0.9,3.5l-3.5-0.6c0.2-1,0.4-2.3,0.6-3.7C760.6,71.2,760.7,70,760.8,68.9z M764.2,101.4l3.1-2
		c1,0.9,2.1,1.8,3.2,2.9c1.1,1.1,2,2.1,2.6,2.9l-3.3,2.3c-0.4-0.6-0.9-1.2-1.5-2c-0.6-0.7-1.3-1.4-2.1-2.2
		C765.5,102.6,764.8,101.9,764.2,101.4z"/>
</g>
</svg>
