<!-- Generator: Adobe Illustrator 25.0.0, SVG Export Plug-In  -->
<svg version="1.1" xmlns="http://www.w3.org/2000/svg" xmlns:xlink="http://www.w3.org/1999/xlink" x="0px" y="0px" width="577.9px"
	 height="116.7px" viewBox="0 0 577.9 116.7" style="overflow:visible;enable-background:new 0 0 577.9 116.7;"
	 xml:space="preserve">
<style type="text/css">
	.st0{fill:#76777A;}
	.st1{fill:#EA0029;}
	.st2{fill:#FFFFFF;}
</style>
<defs>
</defs>
<g>
	<g>
		<path class="st0" d="M522.8,43.1v-7.6l-25.1,0c-12.6,0-22.8,9.5-22.8,21.3v2.5c0,11.7,10.2,21.3,22.8,21.3l25.1,0v-7.6h-24.1
			c-9,0-16.2-6.3-16.2-14.1v-1.6c0-7.8,7.3-14.1,16.2-14.1L522.8,43.1z"/>
		<path class="st0" d="M165.9,35.5c-12.6,0-22.8,9.5-22.8,21.3v0.7v23h7.6v-23v-0.3c0-7.8,7.3-14.1,16.2-14.1h17.4
			c0.1,0,4.2,0,4.4,0v-7.6H165.9z"/>
		<path class="st0" d="M390.2,35.5c-12.6,0-22.8,9.5-22.8,21.3v0.7v23h7.6v-23v-0.3c0-7.8,7.3-14.1,16.2-14.1h21.2
			c0.1,0,0.5,0,0.6,0v-7.6H390.2z"/>
		<polygon class="st0" points="536.6,63.9 565,35.9 575.8,35.9 555.3,56.5 577.9,80.2 567.4,80.2 549.8,61.9 536.6,74.5 		"/>
		<rect x="529.9" y="23.3" class="st0" width="7.6" height="57.2"/>
		<path class="st0" d="M226.5,35.7c-1.5-0.4-4.6-0.6-8.3-0.6s-6.8,0.3-8.3,0.6c-10.5,1.9-18.5,10.5-18.5,20.9V59
			c0,10.3,7.9,19,18.5,20.9c1.5,0.4,4.6,0.6,8.3,0.6s6.8-0.3,8.3-0.6C237,77.9,245,69.3,245,59v-2.5C245,46.2,237,37.6,226.5,35.7
			 M237.3,58.6l0,0.4c-0.2,6.7-5.9,12.3-13.3,13.4c-1.3,0.3-3.4,0.4-5.8,0.4c-2.4,0-4.5-0.2-5.8-0.4c-7.4-1.2-13-6.7-13.3-13.4
			l0-0.4v-1.6c0-6.9,5.7-12.6,13.3-13.8c1.3-0.3,3.4-0.4,5.8-0.4c2.4,0,4.5,0.2,5.8,0.4c7.6,1.2,13.3,6.9,13.3,13.8V58.6z"/>
		<path class="st0" d="M343.1,35.7c-1.5-0.4-4.6-0.6-8.3-0.6c-3.7,0-6.8,0.3-8.3,0.6c-10.5,1.9-18.5,10.5-18.5,20.9V59
			c0,10.3,7.9,19,18.5,20.9c1.5,0.4,4.6,0.6,8.3,0.6c3.7,0,6.8-0.3,8.3-0.6c10.5-1.9,18.5-10.5,18.5-20.9v-2.5
			C361.6,46.2,353.7,37.6,343.1,35.7 M354,58.6l0,0.4c-0.2,6.7-5.9,12.3-13.3,13.4c-1.3,0.3-3.4,0.4-5.8,0.4c-2.4,0-4.5-0.2-5.8-0.4
			c-7.4-1.2-13-6.7-13.3-13.4l0-0.4v-1.6c0-6.9,5.7-12.6,13.3-13.8c1.3-0.3,3.4-0.4,5.8-0.4c2.4,0,4.5,0.2,5.8,0.4
			c7.6,1.2,13.3,6.9,13.3,13.8V58.6z"/>
		<path class="st0" d="M450.9,35.7c-1.5-0.4-4.6-0.6-8.3-0.6c-3.7,0-6.8,0.3-8.3,0.6c-10.5,1.9-18.5,10.5-18.5,20.9V59
			c0,10.3,7.9,19,18.5,20.9c1.5,0.4,4.6,0.6,8.3,0.6c3.7,0,6.8-0.3,8.3-0.6c10.5-1.9,18.5-10.5,18.5-20.9v-2.5
			C469.3,46.2,461.4,37.6,450.9,35.7 M461.7,58.6l0,0.4c-0.2,6.7-5.9,12.3-13.3,13.4c-1.3,0.3-3.4,0.4-5.8,0.4
			c-2.4,0-4.5-0.2-5.8-0.4c-7.4-1.2-13-6.7-13.3-13.4l0-0.4v-1.6c0-6.9,5.7-12.6,13.3-13.8c1.3-0.3,3.4-0.4,5.8-0.4
			c2.4,0,4.5,0.2,5.8,0.4c7.6,1.2,13.3,6.9,13.3,13.8V58.6z"/>
		<path class="st0" d="M284.4,35.7c-1.5-0.4-4.5-0.6-8-0.6c-3.5,0-6.6,0.3-8,0.6c-3.8,0.7-7.3,2.4-10.2,4.8V23.3h-7.6v33.3v2.1V59
			c0,10.3,7.7,19,17.8,20.9c1.5,0.4,4.5,0.6,8,0.6c3.5,0,6.6-0.3,8-0.6c10.2-1.9,17.8-10.5,17.8-20.9v-2.5
			C302.2,46.2,294.6,37.6,284.4,35.7 M294.8,58.6l0,0.4c-0.2,6.7-5.7,12.3-12.8,13.4c-1.3,0.3-3.3,0.4-5.6,0.4
			c-2.3,0-4.3-0.2-5.6-0.4c-7.2-1.2-12.6-6.7-12.8-13.4l0-0.4v-1.6c0-6.9,5.5-12.6,12.8-13.8c1.3-0.3,3.3-0.4,5.6-0.4
			c2.3,0,4.3,0.2,5.6,0.4c7.3,1.2,12.8,6.9,12.8,13.8V58.6z"/>
	</g>
	<g>
		<path class="st1" d="M59.2,0C27-0.5,0.5,25.2,0,57.4c-0.5,32.2,25.2,58.7,57.4,59.2c32.2,0.5,58.7-25.2,59.2-57.4
			C117.2,27,91.5,0.5,59.2,0"/>
		<path class="st2" d="M89.1,87.8h-1.5H29h-1.5c-3.2,0-4.8-3.9-2.5-6.2l1.1-1.1l45.2-44.6H33.6c-0.3,0-0.4-0.3-0.2-0.5l6.6-6.6h39.9
			c3.2,0,4.8,3.9,2.5,6.2l-0.9,0.9L36.4,80.6h44L63.2,63.4l5.1-5.1l22.3,22.3l1.1,1.1C94,83.9,92.4,87.8,89.1,87.8"/>
	</g>
</g>
</svg>
