<!-- Generator: Adobe Illustrator 25.0.0, SVG Export Plug-In  -->
<svg version="1.1" xmlns="http://www.w3.org/2000/svg" xmlns:xlink="http://www.w3.org/1999/xlink" x="0px" y="0px" width="860px"
	 height="128.9px" viewBox="0 0 860 128.9" style="overflow:visible;enable-background:new 0 0 860 128.9;" xml:space="preserve">
<defs>
</defs>
<g>
	<path d="M2.7,10.7l3.6,0.5c-0.1,1.4-0.3,3-0.5,4.7c-0.2,1.7-0.5,3.4-0.8,5.1c-0.3,1.7-0.7,3.2-1.2,4.5L0,24.2
		c0.5-1.2,0.9-2.5,1.2-4.1c0.3-1.6,0.6-3.2,0.9-4.8C2.4,13.7,2.5,12.1,2.7,10.7z M7.2,0.6h4.9v48.2H7.2V0.6z M11.6,10.5L15,9
		c0.5,1,1,2.1,1.6,3.3c0.5,1.2,1,2.3,1.5,3.4c0.4,1.1,0.8,2.1,1,3l-3.6,1.8c-0.2-0.9-0.5-1.9-0.9-3.1c-0.4-1.1-0.9-2.3-1.4-3.5
		C12.6,12.7,12.1,11.5,11.6,10.5z M28.5,0.6h4.9v17.8c0,2.1-0.1,4.2-0.3,6.4s-0.6,4.4-1.2,6.6c-0.6,2.2-1.5,4.4-2.6,6.5
		c-1.2,2.1-2.7,4.1-4.6,6c-1.9,1.9-4.2,3.6-7,5.2c-0.2-0.4-0.6-0.8-1-1.3c-0.4-0.5-0.8-0.9-1.3-1.4c-0.5-0.5-0.9-0.9-1.2-1.2
		c2.7-1.4,5-2.9,6.8-4.5s3.2-3.4,4.2-5.3c1-1.9,1.8-3.8,2.2-5.7c0.5-1.9,0.8-3.9,0.9-5.8c0.1-1.9,0.2-3.8,0.2-5.6V0.6z M16.2,24.2
		h32.7v4.7H16.2V24.2z M18.8,8.7H45v18h-4.8V13.3H18.8V8.7z M33.6,31.7l4.1-2c1.2,1.7,2.5,3.6,3.9,5.6c1.4,2,2.7,4,4,5.9
		c1.3,1.9,2.3,3.6,3.1,5l-4.5,2.5c-0.7-1.4-1.7-3.1-2.9-5c-1.2-1.9-2.5-4-3.8-6C36.1,35.5,34.9,33.5,33.6,31.7z"/>
	<path d="M82.4,23.8l4.2,1.6c-1.3,2.3-2.8,4.4-4.4,6.5c-1.7,2.1-3.5,4.1-5.5,5.9c-2,1.8-4.1,3.5-6.2,5c-2.2,1.5-4.4,2.8-6.6,3.8
		c-0.2-0.4-0.6-0.9-1-1.4c-0.4-0.5-0.8-1-1.3-1.5c-0.4-0.5-0.8-0.9-1.2-1.3c2.2-0.9,4.4-2,6.6-3.3c2.1-1.3,4.2-2.8,6.2-4.4
		c2-1.6,3.7-3.4,5.4-5.2C80,27.7,81.3,25.8,82.4,23.8z M71.1,13.1l4.8,0.9c-0.9,3.8-2.3,7.2-4.1,10.3c-1.8,3.1-3.9,5.6-6.3,7.6
		c-0.2-0.3-0.6-0.6-1.1-1c-0.5-0.4-1-0.8-1.5-1.2c-0.5-0.4-0.9-0.7-1.3-0.9c2.3-1.7,4.3-4,5.9-6.7C69.1,19.4,70.3,16.4,71.1,13.1z
		 M62.2,7.5h45v4.8h-45V7.5z M68.9,21.5l3.2-3c0.8,0.7,1.7,1.4,2.6,2.2s1.8,1.6,2.7,2.4c0.8,0.8,1.5,1.5,2.1,2.1l-3.3,3.4
		c-0.5-0.7-1.1-1.4-2-2.2s-1.7-1.7-2.6-2.5C70.6,23,69.7,22.2,68.9,21.5z M81.8,0.6H87v48.3h-5.2V0.6z M86.8,24.1
		c1.5,2.5,3.4,5,5.7,7.3c2.3,2.4,4.9,4.5,7.7,6.3c2.8,1.9,5.8,3.4,8.7,4.5c-0.4,0.3-0.9,0.8-1.3,1.3c-0.5,0.5-0.9,1.1-1.3,1.6
		s-0.8,1.1-1,1.5c-3-1.4-5.9-3.1-8.7-5.3c-2.8-2.1-5.4-4.6-7.8-7.3c-2.4-2.7-4.4-5.5-6.1-8.5L86.8,24.1z M95.6,13.1l4.8,0.9
		c-0.7,3.2-1.7,6.1-3.1,8.8c-1.4,2.7-2.9,4.9-4.7,6.6c-0.3-0.2-0.7-0.5-1.2-0.9c-0.5-0.3-1-0.7-1.6-1c-0.6-0.3-1-0.6-1.4-0.8
		c1.8-1.6,3.4-3.5,4.6-5.9C94.2,18.5,95.1,15.9,95.6,13.1z M93.9,21.7l3.2-3c1.1,0.8,2.4,1.8,3.7,2.9c1.3,1.1,2.6,2.1,3.8,3.1
		c1.2,1,2.2,1.9,3,2.7l-3.4,3.4c-0.7-0.8-1.7-1.8-2.9-2.8c-1.2-1.1-2.5-2.1-3.8-3.3C96.3,23.6,95.1,22.6,93.9,21.7z"/>
	<path d="M120.1,18.6l2.8-3.6c1,0.4,2,0.8,3.1,1.4c1.1,0.5,2.1,1.1,3,1.7c1,0.6,1.7,1.2,2.3,1.7l-2.8,4c-0.6-0.5-1.4-1.1-2.3-1.7
		s-1.9-1.2-3-1.8C122.2,19.5,121.1,19,120.1,18.6z M121.1,45.7c0.7-1.4,1.5-2.9,2.3-4.8c0.8-1.8,1.6-3.8,2.5-5.9
		c0.8-2.1,1.6-4.1,2.3-6.1l4,2.6c-0.6,1.8-1.3,3.7-2,5.6c-0.7,1.9-1.5,3.8-2.3,5.7c-0.8,1.9-1.5,3.6-2.3,5.3L121.1,45.7z M122.3,4.6
		l2.8-3.5c1,0.4,2,0.9,3,1.5c1.1,0.6,2.1,1.2,3,1.8s1.7,1.2,2.3,1.8l-3,4c-0.5-0.6-1.2-1.2-2.2-1.9c-0.9-0.7-1.9-1.3-2.9-2
		C124.3,5.6,123.3,5.1,122.3,4.6z M136.3,36.9l4.5,1.2c-0.9,2-2,4-3.3,5.9c-1.3,2-2.7,3.6-4,4.9c-0.3-0.3-0.7-0.6-1.1-0.9
		c-0.5-0.3-1-0.7-1.5-1c-0.5-0.3-0.9-0.6-1.3-0.8c1.4-1.2,2.6-2.6,3.8-4.3C134.7,40.4,135.6,38.7,136.3,36.9z M134.5,2.8H150v33.3
		h-15.4V2.8z M138.7,7.1v5.5h6.9V7.1H138.7z M138.7,16.6v5.6h6.9v-5.6H138.7z M138.7,26.2v5.6h6.9v-5.6H138.7z M143.6,38.7l3.7-2.1
		c0.7,0.8,1.4,1.7,2.2,2.7c0.7,1,1.4,1.9,2.1,2.9c0.6,0.9,1.2,1.8,1.5,2.5l-3.9,2.4c-0.3-0.8-0.8-1.6-1.5-2.6s-1.3-2-2-3
		C145,40.5,144.3,39.6,143.6,38.7z M153.3,5.9h4.3v30h-4.3V5.9z M162.2,0.6h4.5V43c0,1.4-0.2,2.4-0.5,3.2c-0.3,0.7-0.9,1.3-1.7,1.7
		c-0.8,0.4-1.9,0.6-3.2,0.8s-3.1,0.2-5.2,0.2c-0.1-0.7-0.2-1.4-0.5-2.3c-0.3-0.9-0.6-1.7-0.9-2.4c1.5,0,2.8,0.1,4,0.1
		c1.2,0,2,0,2.4,0c0.5,0,0.8-0.1,0.9-0.2c0.2-0.2,0.3-0.4,0.3-0.9V0.6z"/>
	<path d="M181.9,33l2.7,0.9c-0.1,1.1-0.3,2.4-0.5,3.8s-0.4,2.8-0.7,4.1c-0.3,1.4-0.6,2.5-0.9,3.5l-2.8-1c0.4-1,0.7-2.2,1-3.5
		c0.3-1.3,0.5-2.7,0.8-4.1C181.6,35.3,181.8,34.1,181.9,33z M200.2,2.8v4.1h-13.9v19.9h12.3v4.1h-16.2v-28H200.2z M184.9,11h14.4
		v3.7h-14.4V11z M184.9,18.7h14.5v3.7h-14.5V18.7z M185.4,34l2.2-0.3c0.2,1.5,0.3,3.2,0.4,4.9c0.1,1.8,0.2,3.3,0.2,4.6l-2.3,0.3
		c0-1.3,0-2.8-0.1-4.6C185.7,37.1,185.6,35.5,185.4,34z M188.5,33.5l2.1-0.4c0.4,1.4,0.7,2.8,1.1,4.4c0.3,1.6,0.6,2.9,0.7,4.1
		l-2.2,0.5c-0.1-1.2-0.4-2.6-0.7-4.1C189.2,36.3,188.9,34.8,188.5,33.5z M190.4,5.8h3.8v23.6h-3.8V5.8z M196.5,26.7h3.9
		c0,0.9,0,1.4,0,1.7c-0.1,4.2-0.3,7.6-0.4,10.2c-0.1,2.6-0.3,4.5-0.5,5.8c-0.2,1.3-0.5,2.2-0.9,2.7c-0.4,0.5-0.8,0.8-1.2,1
		c-0.4,0.2-0.9,0.3-1.5,0.4c-0.5,0.1-1.2,0.2-1.9,0.2c-0.7,0-1.5,0-2.3-0.1c0-0.6-0.1-1.2-0.3-1.9c-0.2-0.7-0.4-1.3-0.7-1.8
		c0.7,0.1,1.4,0.1,2,0.1c0.6,0,1,0,1.3,0c0.3,0,0.5,0,0.7-0.1s0.4-0.2,0.6-0.5c0.2-0.3,0.4-1.1,0.6-2.3c0.1-1.2,0.3-2.9,0.4-5.3
		c0.1-2.4,0.2-5.6,0.3-9.5V26.7z M191.6,32.8l1.9-0.7c0.5,1.1,1,2.2,1.6,3.5c0.5,1.3,0.9,2.3,1.1,3.2l-2,0.8c-0.3-0.9-0.7-2-1.1-3.3
		C192.5,35,192.1,33.8,191.6,32.8z M212.9,0l4.5,1.5c-1.7,2.9-3.9,5.7-6.6,8.2c-2.7,2.5-5.6,4.7-8.7,6.6c-0.2-0.3-0.5-0.7-0.9-1.1
		c-0.4-0.4-0.7-0.8-1.1-1.2c-0.4-0.4-0.8-0.7-1.1-0.9c2-1.1,3.8-2.3,5.6-3.7c1.8-1.4,3.3-2.9,4.7-4.6C210.8,3.2,212,1.6,212.9,0z
		 M205.8,33.2L210,34c-0.7,3-1.6,5.8-2.9,8.4c-1.3,2.6-2.8,4.8-4.6,6.5c-0.2-0.2-0.5-0.5-0.9-0.9c-0.4-0.3-0.8-0.7-1.2-1
		c-0.4-0.3-0.8-0.6-1.1-0.8c1.7-1.5,3.1-3.4,4.2-5.6C204.5,38.2,205.3,35.8,205.8,33.2z M202.2,19.5h10.7v12.4h-10.7V19.5z
		 M205.5,40.4l2.4-2.9c1.1,0.7,2.3,1.4,3.5,2.4c1.2,0.9,2.2,1.7,2.9,2.5l-2.5,3.2c-0.7-0.7-1.6-1.6-2.8-2.6
		C207.7,41.9,206.6,41.1,205.5,40.4z M205.5,22.7v5.9h4v-5.9H205.5z M206.3,12.2h15.5V16h-15.5V12.2z M214.9,1.5
		c1,1.2,2.3,2.5,3.8,3.7c1.5,1.3,3.1,2.5,4.9,3.5c1.8,1.1,3.4,2,5,2.7c-0.2,0.3-0.5,0.8-0.8,1.4c-0.3,0.6-0.5,1.1-0.7,1.6
		s-0.4,1-0.5,1.4c-1.7-1-3.5-2.1-5.4-3.5c-1.9-1.4-3.7-2.8-5.3-4.3c-1.7-1.5-3.1-3-4.2-4.5L214.9,1.5z M218.7,33l4.4,0.7
		c-0.6,3.1-1.4,6-2.7,8.6c-1.2,2.6-2.7,4.8-4.4,6.5c-0.2-0.2-0.6-0.5-1-0.9c-0.4-0.3-0.9-0.7-1.4-1c-0.5-0.3-0.9-0.6-1.3-0.8
		c1.7-1.5,3-3.4,4.1-5.7S218.3,35.6,218.7,33z M215.1,19.5h11.1v12.4h-11.1V19.5z M217.6,41.7l2.8-3c0.9,0.6,1.8,1.2,2.8,1.9
		c1,0.7,1.9,1.4,2.8,2.2c0.9,0.7,1.6,1.4,2.2,2l-3,3.4c-0.5-0.6-1.2-1.3-2.1-2.1c-0.8-0.8-1.8-1.5-2.8-2.3
		C219.4,43,218.4,42.3,217.6,41.7z M218.4,22.7v5.9h4.2v-5.9H218.4z"/>
	<path d="M259.1,4.8l5.1,1c-1.1,4.2-2.7,8.3-4.5,12.3s-4.2,7.6-7,11c-2.8,3.3-6.1,6.2-10.1,8.5c-0.2-0.4-0.5-0.8-0.9-1.3
		c-0.4-0.5-0.7-1-1.1-1.4c-0.4-0.5-0.8-0.9-1.1-1.2c3.7-2,6.8-4.6,9.4-7.7c2.6-3.1,4.7-6.4,6.4-10.1C256.9,12.3,258.2,8.6,259.1,4.8
		z M241,16.6H287v4H241V16.6z M280.7,0.9l3,3.5c-2.5,0.5-5.4,0.8-8.5,1.2c-3.1,0.3-6.4,0.6-9.9,0.8c-3.4,0.2-6.9,0.3-10.4,0.4
		C251.6,6.9,248.2,7,245,7c0-0.6-0.1-1.2-0.3-1.9c-0.2-0.7-0.4-1.3-0.6-1.8c3.2,0,6.4-0.1,9.9-0.2c3.4-0.1,6.8-0.2,10.1-0.4
		c3.3-0.2,6.4-0.4,9.3-0.7C276.1,1.6,278.6,1.3,280.7,0.9z M244.7,9.7h39.5v3.8h-39.5V9.7z M251.4,23.7H282V49h-4.9V27.5h-21V49
		h-4.7V23.7z M254.1,43.2h25.1V47h-25.1V43.2z M254.5,30.4h24.5v3.2h-24.5V30.4z M254.5,36.7h24.5v3.2h-24.5V36.7z"/>
	<path d="M318.9,4.8l5.1,1c-1.1,4.2-2.7,8.3-4.5,12.3s-4.2,7.6-7,11c-2.8,3.3-6.1,6.2-10.1,8.5c-0.2-0.4-0.5-0.8-0.9-1.3
		c-0.4-0.5-0.7-1-1.1-1.4c-0.4-0.5-0.8-0.9-1.1-1.2c3.7-2,6.8-4.6,9.4-7.7c2.6-3.1,4.7-6.4,6.4-10.1C316.7,12.3,318,8.6,318.9,4.8z
		 M300.8,16.6h46.1v4h-46.1V16.6z M340.5,0.9l3,3.5c-2.5,0.5-5.4,0.8-8.5,1.2c-3.1,0.3-6.4,0.6-9.9,0.8c-3.4,0.2-6.9,0.3-10.4,0.4
		C311.4,6.9,308,7,304.8,7c0-0.6-0.1-1.2-0.3-1.9c-0.2-0.7-0.4-1.3-0.6-1.8c3.2,0,6.4-0.1,9.9-0.2c3.4-0.1,6.8-0.2,10.1-0.4
		c3.3-0.2,6.4-0.4,9.3-0.7C335.9,1.6,338.4,1.3,340.5,0.9z M304.5,9.7h39.5v3.8h-39.5V9.7z M311.2,23.7h30.6V49h-4.9V27.5h-21V49
		h-4.7V23.7z M313.9,43.2h25.1V47h-25.1V43.2z M314.3,30.4h24.5v3.2h-24.5V30.4z M314.3,36.7h24.5v3.2h-24.5V36.7z"/>
	<path d="M366.3,35.3l-1.4-3.4c2.1-0.8,3.8-1.8,4.9-3.1c1.1-1.3,1.7-2.8,1.7-4.6l-0.7-4.7l2.9,4.3c-0.4,0.4-0.9,0.7-1.4,0.9
		c-0.5,0.2-1,0.3-1.5,0.3c-1.2,0-2.2-0.4-3.1-1.1c-0.9-0.7-1.3-1.7-1.3-3.1c0-1.3,0.4-2.3,1.3-3.1c0.9-0.7,1.9-1.1,3.1-1.1
		c1.6,0,2.9,0.6,3.7,1.8c0.8,1.2,1.3,2.8,1.3,4.7c0,2.9-0.9,5.4-2.6,7.5C371.6,32.8,369.2,34.3,366.3,35.3z"/>
	<path d="M395,5.4h3.7v34.8H395V5.4z M397,5.4h9.5v29.7H397v-4.5h5.7V9.9H397V5.4z M412.3,5.1h4.1v14c0,2.2-0.1,4.6-0.3,7.2
		c-0.2,2.6-0.6,5.2-1.2,7.9c-0.6,2.7-1.4,5.3-2.5,7.8c-1.1,2.5-2.6,4.8-4.4,6.9c-0.2-0.3-0.5-0.7-0.9-1.1c-0.4-0.4-0.7-0.8-1.1-1.1
		c-0.4-0.4-0.7-0.6-1-0.8c1.7-1.9,3-4,4-6.3c1-2.3,1.7-4.6,2.2-7c0.5-2.4,0.8-4.8,0.9-7.1c0.1-2.3,0.2-4.5,0.2-6.6V5.1z M408.2,27.6
		h14.1v4.2h-14.1V27.6z M408.3,3h13.6v4.2h-13.6V3z M408.3,15.2H422v4.2h-13.7V15.2z M420.1,3h4c0,0.6,0,1.1,0,1.4
		c0,0.4,0,0.6,0,0.9c0,5.8-0.1,10.9-0.1,15.2c0,4.3-0.1,8-0.1,11.1c-0.1,3.1-0.1,5.6-0.2,7.6c-0.1,2-0.2,3.5-0.4,4.7
		c-0.2,1.1-0.4,1.9-0.7,2.3c-0.4,0.8-0.9,1.4-1.4,1.7c-0.5,0.3-1.1,0.5-1.7,0.6c-0.7,0.1-1.4,0.2-2.2,0.2c-0.8,0-1.7,0-2.6-0.1
		c0-0.6-0.1-1.4-0.3-2.2c-0.2-0.8-0.4-1.6-0.8-2.2c0.8,0.1,1.5,0.1,2.2,0.1c0.7,0,1.2,0,1.6,0c0.3,0,0.6-0.1,0.8-0.2
		c0.2-0.1,0.4-0.4,0.6-0.8c0.2-0.5,0.4-1.4,0.6-2.9c0.1-1.5,0.2-3.7,0.3-6.7c0.1-3,0.1-6.9,0.2-11.7c0.1-4.8,0.1-10.8,0.1-17.9V3z
		 M426.9,3h10.7v4.1H431v41.8h-4.1V3z M436.7,3h0.8l0.6-0.2l3,1.7c-0.4,1.7-0.9,3.5-1.4,5.5s-1,3.9-1.6,5.8
		c-0.5,1.9-1.1,3.6-1.6,5.1c1.6,2.4,2.7,4.6,3.2,6.7c0.5,2.1,0.7,4,0.7,5.9c0,1.7-0.2,3.1-0.5,4.3c-0.3,1.2-0.8,2-1.5,2.6
		c-0.3,0.3-0.7,0.5-1.2,0.7c-0.5,0.2-0.9,0.3-1.5,0.4c-0.8,0.1-1.8,0.1-2.9,0.1c0-0.6-0.1-1.2-0.2-2c-0.1-0.8-0.4-1.5-0.7-2.1
		c0.4,0,0.8,0.1,1.2,0.1c0.4,0,0.7,0,1,0c0.6,0,1-0.2,1.4-0.5c0.3-0.3,0.5-0.8,0.6-1.5c0.1-0.7,0.2-1.5,0.2-2.4
		c0-1.6-0.2-3.3-0.7-5.3c-0.5-1.9-1.5-4-3-6.2c0.4-1.3,0.8-2.8,1.2-4.3c0.4-1.6,0.8-3.1,1.1-4.7c0.4-1.6,0.7-3,1-4.4
		c0.3-1.4,0.5-2.5,0.8-3.5V3z"/>
	<path d="M453.4,21.5h47.8v5.4h-47.8V21.5z"/>
	<path d="M521.7,17l3,1.3c-0.5,1.8-1.1,3.8-1.9,5.7c-0.7,2-1.5,4-2.4,5.9s-1.8,3.8-2.7,5.5c-1,1.7-2,3.2-3,4.4
		c-0.2-0.7-0.6-1.5-1.1-2.4s-0.9-1.6-1.3-2.2c0.9-1,1.9-2.3,2.8-3.7s1.8-3,2.6-4.6s1.6-3.3,2.3-5C520.7,20.1,521.2,18.5,521.7,17z
		 M529.3,1.2l3.4,3.8c-1.7,0.7-3.6,1.3-5.6,1.8c-2.1,0.5-4.2,1-6.4,1.4c-2.2,0.4-4.3,0.8-6.3,1.1c-0.1-0.6-0.3-1.2-0.6-1.9
		c-0.3-0.7-0.6-1.4-0.8-1.9c1.9-0.3,3.9-0.7,6-1.1c2-0.4,4-0.9,5.8-1.5C526.5,2.3,528,1.8,529.3,1.2z M513.3,15.2h19v4.6h-19V15.2z
		 M521.4,5.1h4.8v43.7h-4.8V5.1z M526.1,22.2c0.3,0.2,0.8,0.7,1.5,1.4c0.7,0.7,1.4,1.4,2.2,2.2c0.8,0.8,1.5,1.5,2.1,2.2
		s1.1,1.2,1.3,1.5l-2.9,3.8c-0.3-0.6-0.7-1.2-1.3-2.1c-0.5-0.8-1.1-1.7-1.8-2.6c-0.6-0.9-1.3-1.7-1.8-2.5c-0.6-0.8-1.1-1.4-1.5-1.9
		L526.1,22.2z M529.9,43.9h31.4v4h-31.4V43.9z M531.4,9.7h28.9v4h-28.9V9.7z M557.3,1.1l2.9,3.7c-1.8,0.4-3.8,0.7-6,1
		c-2.2,0.3-4.5,0.5-6.9,0.7c-2.4,0.2-4.8,0.3-7.2,0.5c-2.4,0.1-4.7,0.2-6.9,0.2c-0.1-0.5-0.2-1.1-0.4-1.9c-0.2-0.7-0.5-1.3-0.7-1.8
		c2.2-0.1,4.4-0.2,6.8-0.3c2.3-0.1,4.6-0.3,6.8-0.5c2.2-0.2,4.4-0.4,6.3-0.7C554.1,1.7,555.8,1.4,557.3,1.1z M532.9,36.7h26.6v3.9
		h-26.6V36.7z M533.4,16.5h25.9v17.1h-25.9V16.5z M537.7,20v3.5h17.2V20H537.7z M537.7,26.5v3.5h17.2v-3.5H537.7z M543.9,4.7h4.7
		v41.3h-4.7V4.7z"/>
	<path d="M572.3,19.1l2.4-3.7c0.9,0.5,1.9,1,3,1.6c1.1,0.6,2.2,1.2,3.2,1.8c1,0.6,1.9,1.1,2.5,1.6l-2.5,4.2
		c-0.6-0.5-1.4-1.1-2.4-1.7c-1-0.6-2.1-1.3-3.1-1.9S573.2,19.6,572.3,19.1z M573.5,45.2c0.8-1.4,1.7-3,2.7-4.8c1-1.8,2-3.8,3-5.9
		c1-2.1,2-4.1,2.8-6.1l3.5,2.7c-0.8,1.8-1.6,3.7-2.5,5.7c-0.9,2-1.9,3.9-2.8,5.8c-1,1.9-1.9,3.7-2.8,5.3L573.5,45.2z M575,4.7
		l2.9-3.4c0.9,0.6,1.8,1.2,2.8,2c1,0.7,2,1.4,2.9,2.1s1.7,1.3,2.3,1.8l-3,3.8c-0.6-0.6-1.4-1.2-2.3-2c-0.9-0.7-1.9-1.5-2.9-2.3
		C576.8,6.1,575.8,5.4,575,4.7z M585,16.8h36v3.6h-36V16.8z M586.6,3.6h33.3v3.6h-33.3V3.6z M589.8,23.2h4.9v9.5
		c0,1.7-0.1,3.5-0.3,5.5c-0.2,2-0.7,3.9-1.3,5.8c-0.6,1.9-1.5,3.6-2.8,5.1c-0.2-0.3-0.6-0.8-1.1-1.2c-0.5-0.5-0.9-0.9-1.4-1.4
		s-0.9-0.8-1.2-1c1-1.2,1.7-2.6,2.1-4.1c0.4-1.5,0.7-3,0.9-4.5c0.1-1.5,0.2-3,0.2-4.3V23.2z M588,10.2h30.4v3.4H588V10.2z
		 M592.5,23.2h21v3.6h-21V23.2z M593.2,37h20.3v3.4h-20.3V37z M593.3,30.3h20.3v3.3h-20.3V30.3z M600.8,0.6h4.9v19.2h-4.9V0.6z
		 M611.9,23.2h5v20.5c0,1.2-0.2,2.1-0.5,2.8c-0.3,0.6-0.9,1.1-1.7,1.5c-0.8,0.3-1.9,0.6-3.2,0.6c-1.3,0.1-2.8,0.1-4.6,0.1
		c-0.1-0.6-0.3-1.3-0.6-2.1c-0.3-0.8-0.6-1.5-0.9-2.1c0.8,0,1.6,0,2.3,0c0.7,0,1.4,0,2,0c0.6,0,1,0,1.2,0c0.4,0,0.6-0.1,0.8-0.2
		c0.1-0.1,0.2-0.3,0.2-0.7V23.2z"/>
	<path d="M632.5,18.5l2.9-3.2c0.8,0.6,1.7,1.2,2.7,1.9c1,0.7,1.9,1.4,2.8,2.2c0.9,0.7,1.6,1.4,2.2,2l-3,3.6c-0.5-0.6-1.2-1.3-2-2.1
		c-0.9-0.8-1.8-1.6-2.7-2.3C634.3,19.8,633.4,19.1,632.5,18.5z M632.8,45.7c0.7-1.4,1.4-2.9,2.1-4.8c0.7-1.8,1.5-3.8,2.3-5.8
		c0.8-2,1.5-4.1,2.1-6l3.6,2.6c-0.5,1.8-1.1,3.7-1.8,5.7c-0.7,1.9-1.4,3.8-2.1,5.7c-0.7,1.9-1.4,3.6-2.1,5.3L632.8,45.7z M633.6,3.8
		l2.9-2.9c0.8,0.6,1.7,1.2,2.6,2c0.9,0.7,1.8,1.5,2.6,2.2s1.4,1.5,1.9,2.1l-3,3.3c-0.5-0.7-1.1-1.4-1.8-2.2
		c-0.8-0.8-1.6-1.6-2.5-2.4C635.3,5.2,634.4,4.5,633.6,3.8z M652.1,37.8l3.6,2.4c-1.3,1.4-2.9,2.6-4.8,3.8s-3.7,2.2-5.5,3.1
		c-0.3-0.5-0.7-1-1.1-1.6c-0.5-0.6-0.9-1.1-1.4-1.5c1.1-0.5,2.3-1.1,3.5-1.8c1.2-0.7,2.3-1.4,3.3-2.2
		C650.7,39.3,651.5,38.5,652.1,37.8z M644.3,16.2c2.1-0.1,4.6-0.3,7.5-0.5c2.9-0.2,5.8-0.5,8.9-0.7l0.1,3.2
		c-2.9,0.3-5.7,0.6-8.5,0.9c-2.8,0.3-5.3,0.5-7.5,0.7L644.3,16.2z M644.5,4.4h16v3.3h-16V4.4z M646.8,37.3c-0.1-0.3-0.4-0.8-0.7-1.4
		c-0.3-0.6-0.7-1.2-1-1.5c0.8-0.1,1.7-0.3,2.6-0.6c0.9-0.3,1.9-0.6,3-1.1c0.7-0.2,1.6-0.7,2.8-1.2c1.2-0.6,2.6-1.2,4.1-2
		c1.5-0.8,3.1-1.6,4.8-2.6s3.2-1.9,4.7-2.9l4.4,1.9c-3.2,2-6.6,3.9-10.2,5.6c-3.6,1.7-7.2,3.1-10.8,4.3v0.1
		c-0.7,0.2-1.3,0.4-1.8,0.5c-0.5,0.2-0.9,0.3-1.3,0.5C647,37,646.8,37.2,646.8,37.3z M645.2,10.1h14.7v3.2h-14.7V10.1z M647.6,30.6
		c-0.1-0.3-0.3-0.8-0.7-1.4c-0.3-0.6-0.7-1.1-1-1.6c0.6-0.1,1.2-0.2,1.8-0.4c0.6-0.2,1.2-0.5,1.9-0.8c0.5-0.2,1.2-0.6,2.3-1.2
		s2.1-1.3,3.3-2.1s2.3-1.7,3.3-2.6l3.9,2.3c-1.5,1.1-3.2,2.2-5.1,3.2c-1.9,1.1-3.9,2-6,2.8v0.2c-0.8,0.2-1.4,0.3-1.8,0.5
		c-0.5,0.1-0.9,0.3-1.3,0.5C647.8,30.3,647.6,30.4,647.6,30.6z M646.8,37.3l-0.2-2.9l3.5-1.2l25.4-1.2c-0.2,0.5-0.3,1-0.4,1.7
		c-0.1,0.6-0.1,1.2-0.1,1.6c-4.6,0.2-8.5,0.5-11.6,0.7c-3.1,0.2-5.7,0.3-7.7,0.5c-2,0.1-3.6,0.2-4.7,0.3c-1.2,0.1-2,0.2-2.7,0.3
		C647.7,37.1,647.2,37.2,646.8,37.3z M647.6,30.6l-0.1-2.5l2.8-1l14-0.5c-0.2,0.4-0.3,0.9-0.4,1.4c-0.1,0.5-0.2,1-0.3,1.3
		c-3.1,0.2-5.7,0.3-7.6,0.4c-2,0.1-3.5,0.2-4.6,0.3c-1.1,0.1-1.9,0.2-2.5,0.3C648.5,30.4,648,30.5,647.6,30.6z M650.5,1.9h4.1v20
		h-4.1V1.9z M659.2,35.3h4.6v8.8c0,0.9-0.1,1.6-0.3,2.2c-0.2,0.6-0.7,1-1.5,1.3c-0.8,0.3-1.7,0.4-2.8,0.5s-2.4,0.1-3.8,0.1
		c-0.1-0.6-0.3-1.2-0.6-1.8c-0.3-0.7-0.6-1.2-0.9-1.8c1,0,2,0.1,2.8,0.1s1.4,0,1.7,0c0.3,0,0.5,0,0.6-0.1c0.1-0.1,0.1-0.2,0.1-0.5
		V35.3z M666.5,5.8h4c-0.2,2.2-0.5,4.3-1,6.3c-0.5,2-1.3,3.8-2.3,5.5c-1,1.7-2.5,3.1-4.3,4.3c-0.3-0.5-0.7-1-1.2-1.5
		c-0.5-0.6-1-1-1.5-1.2c1.5-1,2.7-2.2,3.6-3.6c0.9-1.4,1.5-3,1.9-4.7S666.4,7.6,666.5,5.8z M661.9,3.8h14.6v3.5h-14.6V3.8z
		 M666.7,40.2l2.8-2.5c1.1,0.7,2.3,1.5,3.5,2.3s2.4,1.7,3.6,2.5c1.1,0.8,2.1,1.5,2.8,2.2l-3,3c-0.7-0.7-1.6-1.4-2.7-2.3
		c-1.1-0.9-2.3-1.7-3.5-2.6S667.9,41,666.7,40.2z M674.7,3.8h4.4c0,0.8,0,1.4-0.1,1.7c-0.1,3.1-0.3,5.5-0.4,7.5s-0.3,3.4-0.5,4.5
		s-0.5,1.8-0.9,2.2c-0.3,0.5-0.7,0.8-1.2,1c-0.5,0.2-1,0.3-1.6,0.4c-0.5,0.1-1.1,0.1-1.9,0.1c-0.8,0-1.6,0-2.5,0
		c0-0.6-0.1-1.3-0.3-2c-0.2-0.7-0.4-1.3-0.7-1.8c0.7,0.1,1.3,0.1,1.9,0.1c0.6,0,1,0,1.2,0s0.5,0,0.7-0.1s0.4-0.2,0.6-0.4
		c0.2-0.2,0.4-0.8,0.5-1.7c0.1-0.9,0.3-2.2,0.4-3.9c0.1-1.7,0.2-4,0.4-6.9V3.8z M669.3,29.5l3.4-1.7c0.9,0.9,1.9,1.8,2.8,2.8
		s1.8,2,2.5,3c0.7,1,1.3,1.8,1.7,2.5l-3.7,2c-0.4-0.8-0.9-1.7-1.7-2.7c-0.7-1-1.5-2-2.4-3C671.1,31.4,670.2,30.4,669.3,29.5z"/>
	<path d="M699.8,16.8h3.1c-0.2,1.2-0.5,2.3-1.1,3.2s-1.4,1.6-2.5,2.2c-1.1,0.6-2.6,1-4.5,1.4c-0.1-0.3-0.4-0.8-0.7-1.3
		c-0.3-0.5-0.7-0.9-1-1.1c1.6-0.2,2.9-0.5,3.8-0.9c0.9-0.3,1.6-0.8,2.1-1.4S699.7,17.7,699.8,16.8z M693.1,37.9h46.6v3h-46.6V37.9z
		 M693.5,3.7h22.2v3.5h-22.2V3.7z M693.7,29c1.9-0.1,4.1-0.2,6.5-0.3c2.4-0.1,5-0.3,7.8-0.4c2.8-0.2,5.5-0.3,8.3-0.4l-0.1,2.7
		c-2.7,0.2-5.3,0.4-8,0.6c-2.7,0.2-5.2,0.3-7.7,0.5c-2.4,0.2-4.6,0.3-6.6,0.4L693.7,29z M693.9,15.4h22.5v2.7h-22.5V15.4z M696,23.8
		h18.7v2.7H696V23.8z M697.4,48.8c-0.1-0.4-0.3-0.9-0.6-1.7c-0.3-0.7-0.6-1.3-0.8-1.8c0.5-0.1,1.1-0.2,1.6-0.4s1.2-0.5,1.9-0.8
		c0.5-0.2,1.3-0.7,2.4-1.2c1.1-0.6,2.3-1.3,3.6-2.1s2.5-1.7,3.7-2.6l4.8,1.4c-2.2,1.6-4.4,3-6.8,4.3s-4.6,2.3-6.7,3.1v0.1
		c-0.6,0.2-1.1,0.4-1.6,0.6s-0.8,0.4-1.1,0.6C697.6,48.5,697.4,48.7,697.4,48.8z M696.4,11H714v2.6h-17.6V11z M697.4,48.8l-0.1-2.6
		l3.1-1.3l31.4-1.1c0.1,0.5,0.2,1,0.3,1.6c0.1,0.6,0.3,1.1,0.4,1.4c-5,0.2-9.2,0.4-12.8,0.5c-3.6,0.2-6.6,0.3-9.1,0.4
		c-2.5,0.1-4.5,0.2-6.1,0.3c-1.6,0.1-2.9,0.2-3.8,0.2c-0.9,0.1-1.6,0.1-2.1,0.2C698.2,48.7,697.8,48.8,697.4,48.8z M699.6,32.8h33.9
		v3h-33.9V32.8z M703.1,9.5h4.2v7.9h-4.2V9.5z M703.1,21.1h4.2V30h-4.2V21.1z M705.3,0.5h4.8v8.8h-4.8V0.5z M706.7,16.8h3.1V19
		c0,0.5,0,0.8,0.1,0.9c0.1,0.2,0.3,0.3,0.7,0.3c0.1,0,0.4,0,0.7,0s0.7,0,1,0s0.6,0,0.8,0c0.3,0,0.7,0,1.2-0.1c0.5,0,0.8-0.1,1.1-0.2
		c0.1,0.4,0.1,0.8,0.1,1.2s0.1,0.8,0.1,1.2c-0.3,0.1-0.6,0.2-1.1,0.2c-0.5,0-0.9,0-1.4,0c-0.2,0-0.5,0-1,0c-0.5,0-0.9,0-1.3,0
		c-0.4,0-0.8,0-1,0c-1.3,0-2.2-0.3-2.5-0.9s-0.6-1.5-0.6-2.8V16.8z M723.2,9.9h3.7v5c0,1.4-0.1,2.8-0.3,4.3c-0.2,1.5-0.6,3-1.2,4.5
		c-0.6,1.5-1.5,3-2.7,4.5c-1.2,1.5-2.8,2.8-4.8,4.1c-0.3-0.4-0.7-0.8-1.3-1.4c-0.6-0.5-1.1-0.9-1.6-1.2c1.8-1.1,3.3-2.4,4.4-3.6
		c1.1-1.3,1.9-2.6,2.5-3.9c0.5-1.3,0.9-2.6,1.1-3.9c0.2-1.3,0.3-2.4,0.3-3.5V9.9z M716.7,20.7l2.2-2.7c1.4,0.5,2.7,1.2,4.2,1.9
		c1.4,0.7,2.8,1.5,4.1,2.3c1.3,0.8,2.3,1.6,3.1,2.4l-2.3,3c-0.8-0.7-1.8-1.5-3-2.4s-2.6-1.7-4-2.5C719.4,22,718,21.3,716.7,20.7z
		 M717.4,3.7h22.1v3.5h-22.1V3.7z M717.5,13.3h15.1v3.6h-15.1V13.3z M722.6,0.5h4.8v8.8h-4.8V0.5z M722.7,42.2l3.3-2
		c1.4,0.6,2.9,1.3,4.3,2.1c1.5,0.8,2.9,1.7,4.2,2.5c1.3,0.9,2.4,1.7,3.2,2.4l-3.4,2.3c-0.8-0.8-1.9-1.6-3.2-2.5
		c-1.3-0.9-2.7-1.8-4.2-2.6C725.6,43.5,724.2,42.8,722.7,42.2z M730.6,13.3h4v12.6c0,1,0.1,1.6,0.2,1.7c0.1,0.2,0.3,0.3,0.6,0.3
		c0.1,0,0.3,0,0.5,0c0.2,0,0.4,0,0.5,0c0.1,0,0.3,0,0.4-0.1c0.2,0,0.3-0.1,0.3-0.1c0.2-0.2,0.3-0.5,0.4-1c0.1-0.3,0.1-0.8,0.1-1.5
		c0-0.7,0-1.4,0.1-2.3c0.4,0.3,0.8,0.6,1.4,0.8c0.5,0.3,1,0.5,1.5,0.6c0,0.9-0.1,1.9-0.2,2.8c-0.1,0.9-0.2,1.6-0.3,2
		c-0.1,0.4-0.3,0.8-0.5,1c-0.2,0.3-0.5,0.5-0.9,0.7c-0.2,0.2-0.6,0.3-1,0.4c-0.4,0.1-0.8,0.1-1.2,0.1c-0.3,0-0.6,0-1.1,0s-0.8,0-1,0
		c-0.5,0-1-0.1-1.5-0.2s-0.9-0.4-1.2-0.7c-0.3-0.4-0.6-0.9-0.7-1.4c-0.1-0.6-0.2-1.6-0.2-3V13.3z"/>
	<path d="M762,11.3l4.4,1.5c-1,2.2-2.2,4.4-3.5,6.5c-1.3,2.2-2.8,4.2-4.3,6.1c-1.5,1.9-3.1,3.6-4.7,5.1c-0.1-0.4-0.4-0.8-0.7-1.4
		c-0.3-0.6-0.7-1.1-1.1-1.7c-0.4-0.6-0.7-1-1-1.4c2.1-1.8,4.1-4,6.1-6.6C759.1,16.8,760.7,14.1,762,11.3z M760.9,0.6l4.5,1.6
		c-0.9,1.5-1.9,2.9-3.1,4.5c-1.2,1.5-2.4,3-3.7,4.3c-1.3,1.4-2.6,2.6-3.9,3.6c-0.2-0.3-0.5-0.7-0.8-1.2c-0.3-0.5-0.6-0.9-1-1.4
		c-0.3-0.4-0.6-0.8-0.9-1.1c1.1-0.9,2.3-1.9,3.4-3c1.1-1.2,2.2-2.4,3.1-3.7C759.5,2.9,760.3,1.7,760.9,0.6z M757.7,22l3.9-3.9
		l0.6,0.2v30.6h-4.5V22z M767.5,20.7h3.6c0,3.3-0.1,6.3-0.3,8.9c-0.2,2.6-0.7,4.9-1.3,6.9c-0.6,2-1.6,3.6-3,5
		c-0.2-0.5-0.6-1-1.1-1.6c-0.5-0.6-1-1-1.4-1.4c1.1-1.1,1.9-2.5,2.3-4.2c0.5-1.6,0.8-3.6,1-5.9C767.4,26.3,767.5,23.7,767.5,20.7z
		 M766,13.1h20v4.5h-20V13.1z M773.4,0.9h4.3v47.8h-4.3V0.9z M779.1,4.9l3.1-1.7c0.9,1,1.7,2.1,2.6,3.4c0.9,1.3,1.5,2.3,1.9,3.2
		l-3.2,1.9c-0.4-0.9-1-2-1.8-3.3C780.8,7.2,779.9,6,779.1,4.9z M780.2,20.7h3.6v13.9c0,0.7,0,1.1,0.1,1.4c0,0.2,0.2,0.4,0.4,0.4
		s0.5,0,0.8,0s0.6,0,0.8,0c0.2,0,0.5,0,0.8-0.1c0.3,0,0.6-0.1,0.8-0.2c0.1,0.5,0.1,1,0.2,1.8c0.1,0.7,0.1,1.3,0.2,1.7
		c-0.3,0.1-0.6,0.2-0.9,0.2c-0.3,0-0.7,0.1-1.1,0.1c-0.2,0-0.5,0-0.8,0c-0.3,0-0.5,0-0.8,0c-1.2,0-2.1-0.2-2.7-0.5
		c-0.6-0.3-1-0.9-1.2-1.7c-0.2-0.8-0.3-1.8-0.3-3.1V20.7z M791.2,19h4.7v23.8c0,1.2-0.1,2.2-0.4,3c-0.3,0.7-0.8,1.3-1.6,1.7
		c-0.8,0.4-1.9,0.7-3.1,0.8c-1.2,0.1-2.7,0.1-4.5,0.1c-0.1-0.7-0.2-1.5-0.5-2.4c-0.3-0.9-0.5-1.7-0.9-2.4c1.2,0,2.3,0.1,3.3,0.1
		s1.8,0,2.1,0c0.3,0,0.6-0.1,0.7-0.2c0.1-0.1,0.2-0.3,0.2-0.6V19z M785.9,17h14.5v4.4h-14.5V17z M787.1,4.6h12.4V9h-12.4V4.6z"/>
	<path d="M812.2,41.6c1.7-0.1,3.7-0.3,5.9-0.5c2.2-0.2,4.5-0.4,7-0.7c2.5-0.2,4.9-0.5,7.4-0.7l0.1,3.8c-3.5,0.4-7.1,0.8-10.6,1.2
		c-3.5,0.4-6.6,0.7-9.3,1L812.2,41.6z M812.8,20.4H859v4h-46.2V20.4z M817.1,21.8h4.5v21h-4.5V21.8z M818.3,2.4h35.6v16.3h-5V5.9
		h-25.8v12.8h-4.8V2.4z M820,27.2h12.4v3.5H820V27.2z M820,33.6h12.4v3.5H820V33.6z M825.1,8.6h21.7v3.1h-21.7V8.6z M825.1,14.4
		h21.6v3.2h-21.6V14.4z M829.9,21.7h4.7v27.1h-4.7V21.7z M852.8,27.1h0.9l0.8-0.2l3,1.2c-1.1,3.6-2.7,6.7-4.7,9.4
		c-2,2.7-4.4,4.9-7.1,6.8s-5.6,3.3-8.7,4.4c-0.3-0.6-0.7-1.3-1.2-2c-0.5-0.8-1-1.4-1.5-1.8c2.8-0.8,5.4-2,7.9-3.6
		c2.5-1.6,4.6-3.5,6.4-5.8c1.8-2.3,3.2-4.8,4.1-7.6V27.1z M835.9,27.1h18v3.8h-18V27.1z M842,30.6c1.5,3.5,3.8,6.5,6.9,9
		c3.1,2.5,6.8,4.3,11.1,5.4c-0.3,0.3-0.7,0.7-1,1.1c-0.4,0.5-0.7,0.9-1.1,1.4c-0.3,0.5-0.6,0.9-0.8,1.3c-4.5-1.3-8.4-3.4-11.6-6.4
		c-3.2-2.9-5.7-6.5-7.5-10.6L842,30.6z"/>
	<path d="M98.3,80.2l4.8,1.5c-0.7,1.8-1.6,3.6-2.6,5.4c-1,1.8-2.1,3.5-3.3,5.1c-1.2,1.6-2.4,3-3.7,4.1c-0.2-0.3-0.5-0.8-0.9-1.3
		c-0.4-0.5-0.8-1.1-1.2-1.6c-0.4-0.5-0.8-1-1.2-1.3c1.7-1.4,3.2-3.2,4.6-5.3C96.3,84.7,97.5,82.5,98.3,80.2z M101.7,95.7l4.7,1.6
		c-1,2.1-2.3,4.2-3.6,6.4c-1.4,2.1-2.9,4.2-4.4,6s-3.1,3.5-4.7,4.9c-0.2-0.3-0.5-0.8-0.9-1.3c-0.4-0.5-0.8-1-1.2-1.6
		c-0.4-0.5-0.8-1-1.1-1.3c1.5-1.2,2.9-2.6,4.3-4.2c1.4-1.6,2.7-3.3,4-5.1C99.8,99.4,100.8,97.5,101.7,95.7z M97.9,84.5h16.4v4.3
		H97.9V84.5z M98.2,104.8l4.7-4.7l0.1,0.1v28.6h-4.7V104.8z M100.2,91.3l3.4-2.8c0.9,0.7,1.8,1.6,2.7,2.5c0.9,0.9,1.6,1.7,2.2,2.5
		l-3.5,3.1c-0.5-0.7-1.1-1.6-2-2.6C102,93,101.1,92.1,100.2,91.3z M106.4,101.5h31.1v4.5h-31.1V101.5z M108.9,110.6l3.9-2.1
		c0.8,1,1.6,2.1,2.4,3.3c0.8,1.2,1.7,2.4,2.4,3.5c0.8,1.1,1.4,2.1,1.9,3l-4.2,2.5c-0.4-0.8-1-1.8-1.7-3c-0.7-1.2-1.5-2.4-2.4-3.7
		C110.4,112.8,109.6,111.7,108.9,110.6z M119.1,80.3l5,1.2c-0.6,1.9-1.2,3.8-2.1,5.6c-0.8,1.9-1.7,3.6-2.7,5.2c-1,1.6-2,3.1-3.1,4.3
		c-0.2-0.3-0.6-0.7-1.1-1.1c-0.5-0.5-1-0.9-1.5-1.4c-0.5-0.5-0.9-0.8-1.3-1.1c1.5-1.6,2.8-3.5,4-5.7
		C117.6,85.1,118.5,82.7,119.1,80.3z M126.2,96.2h4.8V123c0,1.4-0.2,2.5-0.6,3.2c-0.4,0.7-1.1,1.3-2,1.7c-1,0.4-2.3,0.6-3.9,0.7
		s-3.6,0.1-5.9,0.1c-0.1-0.7-0.3-1.5-0.7-2.4c-0.3-0.9-0.7-1.7-1-2.4c1.2,0,2.3,0.1,3.4,0.1c1.1,0,2,0,2.8,0c0.8,0,1.4,0,1.7,0
		c0.5,0,0.8-0.1,1-0.2c0.2-0.2,0.3-0.4,0.3-0.9V96.2z M118.7,84.5h19.4v4.3h-19.4V84.5z M122.6,91.1l3.2-2.8
		c0.9,0.7,1.9,1.5,2.9,2.4c1,0.9,1.8,1.8,2.3,2.5l-3.4,3.2c-0.5-0.7-1.2-1.6-2.2-2.6C124.4,92.7,123.5,91.8,122.6,91.1z"/>
	<path d="M175,80.4l4.4,2.2c-2,2.9-4.4,5.7-7.1,8.3c-2.7,2.6-5.7,5-8.8,7.1c-3.2,2.1-6.4,3.9-9.7,5.4c-0.4-0.7-0.9-1.5-1.6-2.3
		c-0.6-0.8-1.3-1.6-2-2.2c3.3-1.3,6.4-2.9,9.6-4.7c3.1-1.9,6-4,8.6-6.3C171,85.6,173.2,83.1,175,80.4z M158.2,107.5h33v21.1H186
		v-16.6h-22.7v16.8h-5V107.5z M160.5,121.5h27.4v4.6h-27.4V121.5z M161.3,97.5h26.2v4.5h-26.2V97.5z M176.4,83.6
		c3.4,3.6,6.9,6.5,10.7,8.8c3.8,2.3,7.7,4.3,11.9,5.9c-0.7,0.6-1.3,1.2-1.9,2.1c-0.6,0.8-1.1,1.6-1.5,2.4c-2.8-1.3-5.5-2.8-8.1-4.3
		c-2.6-1.6-5.2-3.4-7.7-5.5c-2.5-2.1-5-4.5-7.5-7.3L176.4,83.6z"/>
	<path d="M221.2,80.8l4.7,1.4c-1.1,2.9-2.5,5.9-4,8.8c-1.5,2.9-3.2,5.7-4.9,8.2c-1.8,2.6-3.6,4.8-5.5,6.8c-0.2-0.4-0.4-0.9-0.7-1.6
		c-0.3-0.6-0.6-1.3-1-1.9c-0.4-0.7-0.7-1.2-1-1.5c1.7-1.7,3.3-3.6,4.8-5.7c1.5-2.1,3-4.5,4.3-7C219.2,85.8,220.3,83.3,221.2,80.8z
		 M216,94.6l4.6-4.6l0.1,0.1v38.8H216V94.6z M232,80.8l4.9,1.1c-0.7,2.7-1.6,5.4-2.6,8.1c-1,2.6-2.1,5.1-3.2,7.4
		c-1.2,2.3-2.4,4.3-3.8,6.1c-0.3-0.3-0.7-0.6-1.1-1c-0.5-0.4-1-0.8-1.5-1.2c-0.5-0.4-1-0.7-1.4-1c1.4-1.6,2.6-3.4,3.7-5.5
		c1.1-2.1,2.1-4.3,2.9-6.7C230.7,85.7,231.4,83.2,232,80.8z M230.9,103.3l4.8,0.9c-0.5,2.3-1.2,4.5-2,6.6c-0.8,2.2-1.6,4.2-2.5,6.1
		c-0.9,1.9-1.9,3.5-2.9,5c-0.3-0.3-0.7-0.6-1.2-0.9c-0.5-0.3-1-0.7-1.6-1c-0.5-0.3-1-0.6-1.4-0.8c1.5-1.9,2.9-4.3,4-7.2
		C229.3,109.2,230.2,106.3,230.9,103.3z M232.2,90.3h22.5v4.6h-24.4L232.2,90.3z M239.4,92.2h4.9v30.9c0,1.3-0.1,2.3-0.4,3
		c-0.3,0.7-0.8,1.3-1.6,1.7c-0.8,0.4-1.8,0.6-3,0.8c-1.2,0.1-2.6,0.2-4.3,0.2c-0.1-0.7-0.3-1.6-0.6-2.5c-0.3-1-0.7-1.8-1.1-2.4
		c1.2,0,2.3,0.1,3.3,0.1c1,0,1.7,0,2-0.1c0.3,0,0.6-0.1,0.7-0.2c0.1-0.1,0.2-0.3,0.2-0.7V92.2z M247.2,104.3l4.4-1.5
		c1,1.8,1.9,3.7,2.7,5.8c0.8,2.1,1.6,4.1,2.2,6.1c0.6,2,1,3.8,1.3,5.4l-4.7,1.7c-0.2-1.6-0.6-3.4-1.2-5.4c-0.6-2-1.3-4.1-2.1-6.2
		C249,108.1,248.1,106.1,247.2,104.3z M253.3,90.3h0.7l0.8-0.2l3.4,0.7c-0.3,2-0.7,4-1.1,6.2c-0.4,2.2-0.8,4-1.2,5.4l-4.2-0.8
		c0.2-0.9,0.4-2,0.6-3.2c0.2-1.2,0.4-2.5,0.6-3.8c0.2-1.3,0.3-2.5,0.5-3.7V90.3z"/>
	<path d="M272.1,88.9h4.5v38.5h-4.5V88.9z M274.8,103.2h13.9v4.3h-13.9V103.2z M275,88.9h15.9v34.5H275V119h11.4V93.3H275V88.9z
		 M279.8,80.5l5.4,0.9c-0.6,1.7-1.1,3.3-1.8,5c-0.6,1.7-1.2,3.1-1.7,4.3l-3.9-0.9c0.2-0.9,0.5-1.8,0.8-2.9c0.3-1.1,0.5-2.2,0.8-3.3
		C279.5,82.4,279.7,81.4,279.8,80.5z M298.7,80.5l4.7,1.1c-0.7,2.6-1.4,5.1-2.4,7.6c-0.9,2.5-1.9,4.8-3,7c-1.1,2.2-2.2,4.1-3.4,5.8
		c-0.3-0.3-0.7-0.6-1.2-1c-0.5-0.4-1-0.7-1.5-1.1c-0.5-0.3-1-0.6-1.4-0.8c1.2-1.5,2.3-3.2,3.3-5.3c1-2,1.9-4.2,2.8-6.5
		C297.5,85.1,298.2,82.8,298.7,80.5z M296.2,102.9l3.8-2.2c0.9,1.2,1.9,2.5,2.9,3.9c1,1.4,2,2.8,2.9,4.2c0.9,1.4,1.6,2.5,2.2,3.6
		l-4.2,2.6c-0.5-1.1-1.2-2.3-2-3.7c-0.9-1.4-1.8-2.8-2.8-4.3C298.1,105.5,297.2,104.1,296.2,102.9z M298.1,88.7h15.6v4.5h-15.6V88.7
		z M311.9,88.7h4.6c0,0.6,0,1.1,0,1.5c0,0.4,0,0.7,0,0.9c-0.2,5.9-0.4,10.9-0.6,15.1c-0.2,4.1-0.4,7.5-0.7,10.1
		c-0.3,2.6-0.6,4.7-0.9,6.1c-0.4,1.5-0.8,2.5-1.3,3.2c-0.7,0.9-1.3,1.5-2,1.8c-0.7,0.3-1.5,0.6-2.5,0.7c-0.9,0.1-2.1,0.1-3.5,0.1
		c-1.4,0-2.9-0.1-4.4-0.1c0-0.7-0.2-1.5-0.5-2.4c-0.3-0.9-0.7-1.7-1.2-2.4c1.7,0.1,3.3,0.2,4.7,0.3c1.4,0,2.5,0.1,3.1,0.1
		c0.5,0,0.9-0.1,1.3-0.2c0.3-0.1,0.6-0.3,1-0.7c0.4-0.5,0.8-1.4,1.1-2.8c0.3-1.4,0.6-3.4,0.8-6c0.2-2.6,0.5-5.9,0.6-9.9
		c0.2-4,0.4-8.8,0.5-14.4V88.7z"/>
	<path d="M335,83.3h4.9v15.2c0,2.3-0.1,4.7-0.2,7.3c-0.2,2.6-0.5,5.3-0.9,8.1c-0.4,2.7-1.1,5.4-1.9,8c-0.9,2.6-2,5-3.4,7.1
		c-0.3-0.3-0.7-0.6-1.2-0.9c-0.5-0.3-1.1-0.6-1.6-1c-0.6-0.3-1.1-0.5-1.5-0.7c1.4-2,2.4-4.2,3.2-6.6c0.8-2.4,1.4-4.8,1.7-7.3
		c0.4-2.5,0.6-4.9,0.8-7.3c0.1-2.4,0.2-4.7,0.2-6.7V83.3z M338.3,101.9h38.4v4.5h-38.4V101.9z M338.3,83.3h35.5v13.5h-35.5v-4.3
		h30.6v-4.8h-30.6V83.3z M343.3,111.7H373v17.1h-4.9V116H348v12.8h-4.7V111.7z M345.7,122.8h24.9v4.3h-24.9V122.8z M355.6,96.4h4.9
		v16.9h-4.9V96.4z"/>
	<path d="M414.2,110.9l3.4,2.5c-1.5,1.3-3.2,2.6-5.1,3.8c-1.9,1.3-4,2.5-6.2,3.6c-2.2,1.1-4.5,2.2-6.8,3.1c-2.3,1-4.5,1.7-6.7,2.4
		c-0.3-0.6-0.6-1.3-1.1-2.1c-0.5-0.8-0.9-1.5-1.4-2c2.1-0.5,4.3-1.1,6.6-2c2.3-0.8,4.5-1.7,6.7-2.8s4.2-2.1,6.1-3.3
		C411.4,113.2,413,112,414.2,110.9z M411.3,104.8l3.2,2.3c-1.3,0.9-2.8,1.9-4.4,2.8c-1.7,1-3.4,1.9-5.3,2.8
		c-1.9,0.9-3.8,1.7-5.7,2.5c-1.9,0.7-3.7,1.4-5.4,2c-0.3-0.6-0.6-1.2-1.1-2c-0.5-0.7-0.9-1.4-1.4-1.9c1.7-0.4,3.4-0.9,5.3-1.5
		c1.9-0.6,3.7-1.3,5.6-2.1c1.9-0.8,3.6-1.6,5.2-2.4C408.8,106.4,410.2,105.6,411.3,104.8z M413,94.9l4.1,1.7c-1.8,1.8-4,3.5-6.6,5
		c-2.6,1.5-5.3,2.8-8.1,4c-2.9,1.1-5.7,2.1-8.5,2.9c-0.2-0.3-0.4-0.7-0.7-1.2c-0.3-0.5-0.6-1-1-1.5c-0.3-0.5-0.6-0.9-0.9-1.2
		c2.7-0.6,5.4-1.4,8.2-2.3c2.7-0.9,5.3-2,7.6-3.3C409.6,97.7,411.5,96.3,413,94.9z M391.5,85h44.3v11.2h-5v-6.8h-34.4v6.8h-4.8V85z
		 M398.6,93.5h29.7v4.3h-29.7V93.5z M407.6,101.4l3.7-2.1c2,1.7,3.6,3.7,4.9,5.8s2.1,4.3,2.7,6.5c0.5,2.2,0.8,4.3,0.7,6.3
		c-0.1,2-0.4,3.8-0.9,5.3c-0.6,1.5-1.3,2.7-2.2,3.4c-0.9,0.8-1.7,1.4-2.6,1.7c-0.9,0.3-1.9,0.4-3.2,0.5c-0.6,0-1.2,0-2,0
		c-0.8,0-1.5,0-2.3-0.1c0-0.7-0.2-1.4-0.4-2.3c-0.2-0.9-0.5-1.7-1-2.3c0.9,0.1,1.8,0.1,2.7,0.2c0.8,0.1,1.5,0.1,2.1,0.1
		c0.7,0,1.3-0.1,1.8-0.2c0.5-0.1,0.9-0.5,1.4-0.9c0.6-0.5,1-1.3,1.4-2.5c0.3-1.2,0.5-2.5,0.5-4.1c0-1.6-0.3-3.2-0.7-5
		c-0.5-1.8-1.2-3.5-2.2-5.3C410.7,104.5,409.3,102.9,407.6,101.4z M409.2,81.6l5.1-1.5c0.6,0.9,1.1,2,1.7,3.1c0.6,1.2,1,2.2,1.2,3
		l-5.4,1.7c-0.2-0.9-0.6-1.9-1.1-3.1C410.2,83.7,409.7,82.6,409.2,81.6z M428.3,99.2l4,3.2c-1.5,1.2-3.1,2.4-4.8,3.7
		c-1.7,1.2-3.5,2.4-5.2,3.5c-1.7,1.1-3.4,2.1-4.9,2.9l-3.2-2.8c1.5-0.9,3.1-1.9,4.8-3.1c1.7-1.2,3.4-2.4,5-3.7
		C425.7,101.6,427.1,100.4,428.3,99.2z M424.7,107.6c0.7,2.2,1.7,4.3,3,6.3c1.3,2,2.8,3.7,4.5,5.2c1.7,1.5,3.7,2.7,5.8,3.5
		c-0.3,0.3-0.7,0.7-1.1,1.2c-0.4,0.5-0.8,1-1.2,1.5c-0.4,0.5-0.7,1-0.9,1.4c-2.3-1.1-4.4-2.5-6.2-4.3c-1.8-1.8-3.4-3.8-4.8-6.1
		c-1.4-2.3-2.5-4.8-3.3-7.6L424.7,107.6z"/>
	<path d="M451.4,105.7h19.1v22.7h-4.9v-18H456v18.4h-4.6V105.7z M453.4,121.4h14.1v4.7h-14.1V121.4z M458.7,82.7h29.5v18h-29.5V82.7
		z M463.5,87.4V96h19.7v-8.6H463.5z M475.6,105.7h20v22.8h-4.9v-18.1h-10.3v18.4h-4.7V105.7z M477.9,121.4H493v4.7h-15.1V121.4z"/>
	<path d="M510.6,85.2h4.5V120h-4.5V85.2z M513.1,85.2h12.1v30.7h-12.1v-4.8h7.6V89.9h-7.6V85.2z M538.2,104l3.8,1.2
		c-1.1,2.8-2.4,5.5-4,8.1c-1.6,2.6-3.3,5-5.3,7.1c-1.9,2.1-4,3.9-6.2,5.3c-0.2-0.4-0.6-0.9-1-1.3c-0.4-0.5-0.8-0.9-1.2-1.4
		c-0.4-0.5-0.8-0.9-1.2-1.2c2.1-1.1,4.1-2.7,6-4.5c1.9-1.9,3.6-4,5.1-6.2S537.2,106.5,538.2,104z M526.9,101.3h30v4.7h-30V101.3z
		 M528.7,88.8h26.2v4.7h-26.2V88.8z M538.9,80.9h5v47.8h-5V80.9z M544.5,103.9c0.9,2.3,2,4.6,3.4,6.8c1.4,2.3,2.9,4.4,4.5,6.2
		c1.7,1.9,3.4,3.4,5.1,4.7c-0.4,0.3-0.8,0.7-1.3,1.2c-0.5,0.5-0.9,1-1.3,1.5c-0.4,0.5-0.8,1-1.1,1.5c-1.7-1.5-3.4-3.4-5-5.6
		c-1.6-2.2-3.1-4.6-4.5-7.2c-1.4-2.6-2.5-5.2-3.5-7.8L544.5,103.9z"/>
	<path d="M570.1,105.7h45.8v3.9h-45.8V105.7z M570.4,89.6h45v11.4h-4.9v-7.7h-35.4v7.7h-4.7V89.6z M572.7,82.8h40.2v3.6h-40.2V82.8z
		 M574,112.8h35.4v4h-30.7v12H574V112.8z M575.5,101.5c1.6-0.2,3.5-0.4,5.7-0.7c2.2-0.3,4.4-0.6,6.7-1l0.2,2.9
		c-2,0.5-3.9,0.9-5.8,1.3c-1.9,0.4-3.7,0.8-5.4,1.1L575.5,101.5z M577,96.3l1.4-2.5c1.1,0.2,2.2,0.4,3.4,0.7
		c1.2,0.3,2.3,0.6,3.5,0.9c1.1,0.3,2,0.6,2.8,1l-1.4,2.8c-0.7-0.3-1.6-0.7-2.8-1c-1.1-0.3-2.3-0.7-3.5-1
		C579.2,96.8,578.1,96.5,577,96.3z M585.3,115.5h4.5v12.9h-4.5V115.5z M590.5,107.2l5.4,0.2c-0.5,1.5-1,2.9-1.5,4.3
		c-0.5,1.4-1,2.6-1.5,3.6l-4.3-0.4c0.4-1.1,0.8-2.4,1.1-3.8C590,109.6,590.3,108.3,590.5,107.2z M590.3,84h4.8v20.3h-4.8V84z
		 M596.7,115.5h4.5v12.9h-4.5V115.5z M596.8,102.3l1-2.9c1.3,0.1,2.7,0.3,4.2,0.6s3,0.6,4.4,0.9s2.6,0.7,3.5,1l-1,3.2
		c-0.9-0.3-2.1-0.7-3.5-1.1c-1.4-0.4-2.9-0.7-4.4-1C599.5,102.8,598.1,102.5,596.8,102.3z M606.9,93.5l2,2.7c-1,0.4-2,0.7-3.2,1.1
		c-1.2,0.3-2.3,0.7-3.5,0.9s-2.2,0.5-3.2,0.7l-1.6-2.4c0.9-0.2,2-0.5,3.1-0.9s2.3-0.7,3.4-1.1S606.1,93.7,606.9,93.5z M608.3,112.8
		h4.7v11.3c0,1.1-0.1,1.9-0.4,2.5c-0.2,0.6-0.7,1.1-1.5,1.4c-0.7,0.3-1.6,0.6-2.7,0.6s-2.3,0.1-3.6,0.1c-0.1-0.6-0.3-1.3-0.6-2
		c-0.3-0.8-0.6-1.4-0.9-2c0.9,0,1.8,0.1,2.6,0.1s1.3,0,1.6,0c0.3,0,0.5-0.1,0.6-0.2c0.1-0.1,0.2-0.3,0.2-0.5V112.8z"/>
	<path d="M628.6,119.2c1.8-0.9,4-2,6.5-3.4c2.5-1.4,5.2-2.9,8-4.4c2.8-1.6,5.6-3.2,8.3-4.7l1.5,4.1c-2.4,1.5-4.8,3.1-7.3,4.6
		c-2.5,1.5-4.9,3-7.3,4.4c-2.3,1.4-4.5,2.7-6.5,3.9L628.6,119.2z M629.9,88.9h45.8v4.8h-45.8V88.9z M632.2,98.8l3.7-2.5
		c1.1,0.9,2.2,1.9,3.3,3.1c1.1,1.1,2.2,2.3,3.1,3.4c1,1.1,1.7,2.2,2.3,3.1l-4,3c-0.5-0.9-1.2-2-2.2-3.2c-0.9-1.2-1.9-2.4-3-3.6
		C634.4,100.9,633.3,99.8,632.2,98.8z M650.1,80.7h5v41.8c0,1.6-0.2,2.8-0.6,3.6c-0.4,0.8-1.1,1.4-2,1.8c-1,0.5-2.3,0.7-3.9,0.9
		c-1.6,0.1-3.6,0.2-5.9,0.1c-0.1-0.7-0.3-1.5-0.6-2.5c-0.3-1-0.7-1.9-1.1-2.6c1.7,0,3.3,0.1,4.8,0.1c1.5,0,2.5,0,3,0
		c0.5,0,0.8-0.1,1-0.3s0.3-0.5,0.3-1V80.7z M654.7,93.2c1,2.9,2.2,5.7,3.6,8.5s3.1,5.3,5,7.6c1.9,2.4,4,4.5,6.3,6.3s4.8,3.3,7.4,4.5
		c-0.4,0.3-0.8,0.8-1.3,1.3c-0.5,0.5-0.9,1-1.3,1.6c-0.4,0.5-0.7,1-1,1.5c-3.6-1.8-6.9-4.3-9.8-7.3c-2.9-3-5.4-6.5-7.5-10.4
		c-2.2-3.9-3.9-8.1-5.4-12.5L654.7,93.2z M669.5,95.7l4.3,3c-1.1,1.3-2.4,2.7-3.7,4.1c-1.4,1.4-2.7,2.7-4.1,4
		c-1.4,1.2-2.6,2.4-3.8,3.4l-3.6-2.8c1.1-1,2.4-2.1,3.7-3.5c1.4-1.3,2.7-2.7,3.9-4.2S668.6,96.9,669.5,95.7z M659.3,83.8l2.9-3.1
		c1.1,0.5,2.2,1.1,3.4,1.8c1.2,0.7,2.4,1.3,3.5,2c1.1,0.7,2,1.3,2.7,1.9l-3.1,3.5c-0.7-0.6-1.6-1.3-2.7-2c-1.1-0.7-2.2-1.4-3.4-2.2
		C661.5,85,660.4,84.4,659.3,83.8z"/>
	<path d="M690.3,85.3h4.5v34.6h-4.5V85.3z M693.2,85.3h11.7v29.8h-11.7v-4.6h7.1V89.8h-7.1V85.3z M708.9,83.8h4.8v35.9
		c0,1,0.1,1.8,0.3,2.3c0.2,0.5,0.5,0.9,1.1,1.1c0.5,0.2,1.4,0.3,2.5,0.3c0.3,0,0.8,0,1.6,0c0.7,0,1.6,0,2.5,0c0.9,0,1.9,0,2.8,0
		s1.8,0,2.6,0s1.4,0,1.7,0c1,0,1.7-0.2,2.2-0.6c0.5-0.4,0.8-1.1,1.1-2.1c0.2-1,0.4-2.5,0.5-4.4c0.6,0.4,1.3,0.8,2.2,1.2
		c0.9,0.4,1.6,0.6,2.3,0.8c-0.2,2.4-0.6,4.3-1.1,5.7c-0.5,1.4-1.3,2.4-2.3,3c-1,0.6-2.5,0.9-4.5,0.9c-0.3,0-0.9,0-1.7,0
		c-0.8,0-1.7,0-2.8,0s-2.1,0-3.1,0s-2,0-2.8,0s-1.4,0-1.6,0c-2.1,0-3.7-0.2-4.9-0.7c-1.2-0.5-2-1.3-2.5-2.4c-0.5-1.2-0.8-2.9-0.8-5
		V83.8z M711.1,104.1h20.8v4.5h-20.8V104.1z M711.3,83.8h23.7v28h-4.8V88.4h-18.9V83.8z M719.5,85.6h4.5v19.9h-4.5V85.6z"/>
	<path d="M759.3,124.8c-1.1,0-2-0.4-2.8-1.1c-0.7-0.7-1.1-1.7-1.1-2.9s0.4-2.1,1.1-2.9c0.8-0.7,1.7-1.1,2.8-1.1c1.1,0,2,0.4,2.8,1.1
		c0.8,0.7,1.1,1.7,1.1,2.9s-0.4,2.1-1.1,2.9C761.3,124.5,760.4,124.8,759.3,124.8z M757.2,111.6L756,92.4l-0.2-6.9h7l-0.2,6.9
		l-1.2,19.1H757.2z"/>
</g>
</svg>
