<!-- Generator: Adobe Illustrator 25.0.0, SVG Export Plug-In  -->
<svg version="1.1" xmlns="http://www.w3.org/2000/svg" xmlns:xlink="http://www.w3.org/1999/xlink" x="0px" y="0px" width="672.9px"
	 height="48.8px" viewBox="0 0 672.9 48.8" style="overflow:visible;enable-background:new 0 0 672.9 48.8;" xml:space="preserve">
<defs>
</defs>
<path d="M8.1,0.1l4.8,1.5c-0.7,1.8-1.6,3.6-2.6,5.4c-1,1.8-2.1,3.5-3.3,5.1c-1.2,1.6-2.4,3-3.7,4.1c-0.2-0.3-0.5-0.8-0.9-1.3
	c-0.4-0.5-0.8-1.1-1.2-1.6c-0.4-0.5-0.8-1-1.2-1.3c1.7-1.4,3.2-3.2,4.6-5.3C6,4.6,7.2,2.4,8.1,0.1z M11.4,15.6l4.7,1.6
	c-1,2.1-2.3,4.2-3.6,6.4c-1.4,2.1-2.9,4.2-4.4,6s-3.1,3.5-4.7,4.9c-0.2-0.3-0.5-0.8-0.9-1.3c-0.4-0.5-0.8-1-1.2-1.6
	c-0.4-0.5-0.8-1-1.1-1.3c1.5-1.2,2.9-2.6,4.3-4.2c1.4-1.6,2.7-3.3,4-5.1C9.5,19.3,10.6,17.4,11.4,15.6z M7.6,4.4H24v4.3H7.6V4.4z
	 M8,24.7l4.7-4.7l0.1,0.1v28.6H8V24.7z M9.9,11.2l3.4-2.8c0.9,0.7,1.8,1.6,2.7,2.5c0.9,0.9,1.6,1.7,2.2,2.5l-3.5,3.1
	c-0.5-0.7-1.1-1.6-2-2.6C11.7,12.9,10.8,12,9.9,11.2z M16.2,21.4h31.1v4.5H16.2V21.4z M18.6,30.5l3.9-2.1c0.8,1,1.6,2.1,2.4,3.3
	c0.8,1.2,1.7,2.4,2.4,3.5c0.8,1.1,1.4,2.1,1.9,3l-4.2,2.5c-0.4-0.8-1-1.8-1.7-3c-0.7-1.2-1.5-2.4-2.4-3.7
	C20.1,32.7,19.3,31.5,18.6,30.5z M28.9,0.2l5,1.2c-0.6,1.9-1.2,3.8-2.1,5.6c-0.8,1.9-1.7,3.6-2.7,5.2c-1,1.6-2,3.1-3.1,4.3
	c-0.2-0.3-0.6-0.7-1.1-1.1c-0.5-0.5-1-0.9-1.5-1.4c-0.5-0.5-0.9-0.8-1.3-1.1c1.5-1.6,2.8-3.5,4-5.7C27.3,5,28.2,2.6,28.9,0.2z
	 M35.9,16.1h4.8v26.8c0,1.4-0.2,2.5-0.6,3.2c-0.4,0.7-1.1,1.3-2,1.7c-1,0.4-2.3,0.6-3.9,0.7s-3.6,0.1-5.9,0.1
	c-0.1-0.7-0.3-1.5-0.7-2.4c-0.3-0.9-0.7-1.7-1-2.4c1.2,0,2.3,0.1,3.4,0.1c1.1,0,2,0,2.8,0c0.8,0,1.4,0,1.7,0c0.5,0,0.8-0.1,1-0.2
	c0.2-0.2,0.3-0.4,0.3-0.9V16.1z M28.4,4.4h19.4v4.3H28.4V4.4z M32.3,11l3.2-2.8c0.9,0.7,1.9,1.5,2.9,2.4c1,0.9,1.8,1.8,2.3,2.5
	l-3.4,3.2c-0.5-0.7-1.2-1.6-2.2-2.6C34.1,12.6,33.2,11.7,32.3,11z"/>
<path d="M84.7,0.3l4.4,2.2c-2,2.9-4.4,5.7-7.1,8.3c-2.7,2.6-5.7,5-8.8,7.1c-3.2,2.1-6.4,3.9-9.7,5.4c-0.4-0.7-0.9-1.5-1.6-2.3
	c-0.6-0.8-1.3-1.6-2-2.2c3.3-1.3,6.4-2.9,9.6-4.7c3.1-1.9,6-4,8.6-6.3C80.7,5.5,82.9,3,84.7,0.3z M68,27.4h33v21.1h-5.3V31.8H73
	v16.8h-5V27.4z M70.2,41.4h27.4V46H70.2V41.4z M71,17.4h26.2v4.5H71V17.4z M86.1,3.5c3.4,3.6,6.9,6.5,10.7,8.8
	c3.8,2.3,7.7,4.3,11.9,5.9c-0.7,0.6-1.3,1.2-1.9,2.1c-0.6,0.8-1.1,1.6-1.5,2.4c-2.8-1.3-5.5-2.8-8.1-4.3c-2.6-1.6-5.2-3.4-7.7-5.5
	c-2.5-2.1-5-4.5-7.5-7.3L86.1,3.5z"/>
<path d="M130.9,0.7l4.7,1.4c-1.1,2.9-2.5,5.9-4,8.8c-1.5,2.9-3.2,5.7-4.9,8.2c-1.8,2.6-3.6,4.8-5.5,6.8c-0.2-0.4-0.4-0.9-0.7-1.6
	c-0.3-0.6-0.6-1.3-1-1.9c-0.4-0.7-0.7-1.2-1-1.5c1.7-1.7,3.3-3.6,4.8-5.7c1.5-2.1,3-4.5,4.3-7C128.9,5.7,130,3.2,130.9,0.7z
	 M125.7,14.5l4.6-4.6l0.1,0.1v38.8h-4.7V14.5z M141.7,0.7l4.9,1.1c-0.7,2.7-1.6,5.4-2.6,8.1c-1,2.6-2.1,5.1-3.2,7.4
	c-1.2,2.3-2.4,4.3-3.8,6.1c-0.3-0.3-0.7-0.6-1.1-1c-0.5-0.4-1-0.8-1.5-1.2c-0.5-0.4-1-0.7-1.4-1c1.4-1.6,2.6-3.4,3.7-5.5
	c1.1-2.1,2.1-4.3,2.9-6.7C140.4,5.6,141.1,3.1,141.7,0.7z M140.6,23.2l4.8,0.9c-0.5,2.3-1.2,4.5-2,6.6c-0.8,2.2-1.6,4.2-2.5,6.1
	c-0.9,1.9-1.9,3.5-2.9,5c-0.3-0.3-0.7-0.6-1.2-0.9c-0.5-0.3-1-0.7-1.6-1c-0.5-0.3-1-0.6-1.4-0.8c1.5-1.9,2.9-4.3,4-7.2
	C139,29.1,139.9,26.2,140.6,23.2z M142,10.2h22.5v4.6h-24.4L142,10.2z M149.1,12.1h4.9V43c0,1.3-0.1,2.3-0.4,3
	c-0.3,0.7-0.8,1.3-1.6,1.7c-0.8,0.4-1.8,0.6-3,0.8c-1.2,0.1-2.6,0.2-4.3,0.2c-0.1-0.7-0.3-1.6-0.6-2.5c-0.3-1-0.7-1.8-1.1-2.4
	c1.2,0,2.3,0.1,3.3,0.1c1,0,1.7,0,2-0.1c0.3,0,0.6-0.1,0.7-0.2c0.1-0.1,0.2-0.3,0.2-0.7V12.1z M156.9,24.2l4.4-1.5
	c1,1.8,1.9,3.7,2.7,5.8c0.8,2.1,1.6,4.1,2.2,6.1c0.6,2,1,3.8,1.3,5.4l-4.7,1.7c-0.2-1.6-0.6-3.4-1.2-5.4c-0.6-2-1.3-4.1-2.1-6.2
	C158.7,28,157.8,26,156.9,24.2z M163.1,10.2h0.7l0.8-0.2l3.4,0.7c-0.3,2-0.7,4-1.1,6.2c-0.4,2.2-0.8,4-1.2,5.4l-4.2-0.8
	c0.2-0.9,0.4-2,0.6-3.2c0.2-1.2,0.4-2.5,0.6-3.8c0.2-1.3,0.3-2.5,0.5-3.7V10.2z"/>
<path d="M181.8,8.8h4.5v38.5h-4.5V8.8z M184.5,23.1h13.9v4.3h-13.9V23.1z M184.7,8.8h15.9v34.5h-15.9v-4.4h11.4V13.2h-11.4V8.8z
	 M189.5,0.4l5.4,0.9c-0.6,1.7-1.1,3.3-1.8,5c-0.6,1.7-1.2,3.1-1.7,4.3l-3.9-0.9c0.2-0.9,0.5-1.8,0.8-2.9c0.3-1.1,0.5-2.2,0.8-3.3
	C189.3,2.3,189.4,1.3,189.5,0.4z M208.5,0.4l4.7,1.1c-0.7,2.6-1.4,5.1-2.4,7.6c-0.9,2.5-1.9,4.8-3,7c-1.1,2.2-2.2,4.1-3.4,5.8
	c-0.3-0.3-0.7-0.6-1.2-1c-0.5-0.4-1-0.7-1.5-1.1c-0.5-0.3-1-0.6-1.4-0.8c1.2-1.5,2.3-3.2,3.3-5.3c1-2,1.9-4.2,2.8-6.5
	C207.2,5,207.9,2.7,208.5,0.4z M206,22.8l3.8-2.2c0.9,1.2,1.9,2.5,2.9,3.9c1,1.4,2,2.8,2.9,4.2c0.9,1.4,1.6,2.5,2.2,3.6l-4.2,2.6
	c-0.5-1.1-1.2-2.3-2-3.7c-0.9-1.4-1.8-2.8-2.8-4.3C207.9,25.4,206.9,24,206,22.8z M207.8,8.6h15.6v4.5h-15.6V8.6z M221.7,8.6h4.6
	c0,0.6,0,1.1,0,1.5c0,0.4,0,0.7,0,0.9c-0.2,5.9-0.4,10.9-0.6,15.1c-0.2,4.1-0.4,7.5-0.7,10.1c-0.3,2.6-0.6,4.7-0.9,6.1
	c-0.4,1.5-0.8,2.5-1.3,3.2c-0.7,0.9-1.3,1.5-2,1.8c-0.7,0.3-1.5,0.6-2.5,0.7c-0.9,0.1-2.1,0.1-3.5,0.1c-1.4,0-2.9-0.1-4.4-0.1
	c0-0.7-0.2-1.5-0.5-2.4c-0.3-0.9-0.7-1.7-1.2-2.4c1.7,0.1,3.3,0.2,4.7,0.3c1.4,0,2.5,0.1,3.1,0.1c0.5,0,0.9-0.1,1.3-0.2
	c0.3-0.1,0.6-0.3,1-0.7c0.4-0.5,0.8-1.4,1.1-2.8c0.3-1.4,0.6-3.4,0.8-6c0.2-2.6,0.5-5.9,0.6-9.9c0.2-4,0.4-8.8,0.5-14.4V8.6z"/>
<path d="M244.8,3.2h4.9v15.2c0,2.3-0.1,4.7-0.2,7.3c-0.2,2.6-0.5,5.3-0.9,8.1c-0.4,2.7-1.1,5.4-1.9,8c-0.9,2.6-2,5-3.4,7.1
	c-0.3-0.3-0.7-0.6-1.2-0.9c-0.5-0.3-1.1-0.6-1.6-1c-0.6-0.3-1.1-0.5-1.5-0.7c1.4-2,2.4-4.2,3.2-6.6c0.8-2.4,1.4-4.8,1.7-7.3
	c0.4-2.5,0.6-4.9,0.8-7.3c0.1-2.4,0.2-4.7,0.2-6.7V3.2z M248,21.8h38.4v4.5H248V21.8z M248,3.2h35.5v13.5H248v-4.3h30.6V7.5H248V3.2
	z M253,31.6h29.7v17.1h-4.9V35.9h-20.1v12.8H253V31.6z M255.5,42.7h24.9V47h-24.9V42.7z M265.3,16.3h4.9v16.9h-4.9V16.3z"/>
<path d="M324,30.8l3.4,2.5c-1.5,1.3-3.2,2.6-5.1,3.8c-1.9,1.3-4,2.5-6.2,3.6c-2.2,1.1-4.5,2.2-6.8,3.1c-2.3,1-4.5,1.7-6.7,2.4
	c-0.3-0.6-0.6-1.3-1.1-2.1c-0.5-0.8-0.9-1.5-1.4-2c2.1-0.5,4.3-1.1,6.6-2c2.3-0.8,4.5-1.7,6.7-2.8s4.2-2.1,6.1-3.3
	C321.2,33.1,322.7,31.9,324,30.8z M321,24.6l3.2,2.3c-1.3,0.9-2.8,1.9-4.4,2.8c-1.7,1-3.4,1.9-5.3,2.8c-1.9,0.9-3.8,1.7-5.7,2.5
	c-1.9,0.7-3.7,1.4-5.4,2c-0.3-0.6-0.6-1.2-1.1-2c-0.5-0.7-0.9-1.4-1.4-1.9c1.7-0.4,3.4-0.9,5.3-1.5c1.9-0.6,3.7-1.3,5.6-2.1
	c1.9-0.8,3.6-1.6,5.2-2.4C318.5,26.3,319.9,25.5,321,24.6z M322.8,14.8l4.1,1.7c-1.8,1.8-4,3.5-6.6,5c-2.6,1.5-5.3,2.8-8.1,4
	c-2.9,1.1-5.7,2.1-8.5,2.9c-0.2-0.3-0.4-0.7-0.7-1.2c-0.3-0.5-0.6-1-1-1.5c-0.3-0.5-0.6-0.9-0.9-1.2c2.7-0.6,5.4-1.4,8.2-2.3
	c2.7-0.9,5.3-2,7.6-3.3C319.3,17.6,321.2,16.2,322.8,14.8z M301.2,4.9h44.3v11.2h-5V9.4h-34.4v6.8h-4.8V4.9z M308.3,13.4h29.7v4.3
	h-29.7V13.4z M317.3,21.3l3.7-2.1c2,1.7,3.6,3.7,4.9,5.8s2.1,4.3,2.7,6.5c0.5,2.2,0.8,4.3,0.7,6.3c-0.1,2-0.4,3.8-0.9,5.3
	c-0.6,1.5-1.3,2.7-2.2,3.4c-0.9,0.8-1.7,1.4-2.6,1.7c-0.9,0.3-1.9,0.4-3.2,0.5c-0.6,0-1.2,0-2,0c-0.8,0-1.5,0-2.3-0.1
	c0-0.7-0.2-1.4-0.4-2.3c-0.2-0.9-0.5-1.7-1-2.3c0.9,0.1,1.8,0.1,2.7,0.2c0.8,0.1,1.5,0.1,2.1,0.1c0.7,0,1.3-0.1,1.8-0.2
	c0.5-0.1,0.9-0.5,1.4-0.9c0.6-0.5,1-1.3,1.4-2.5c0.3-1.2,0.5-2.5,0.5-4.1c0-1.6-0.3-3.2-0.7-5c-0.5-1.8-1.2-3.5-2.2-5.3
	C320.5,24.4,319.1,22.8,317.3,21.3z M318.9,1.5l5.1-1.5c0.6,0.9,1.1,2,1.7,3.1c0.6,1.2,1,2.2,1.2,3l-5.4,1.7
	c-0.2-0.9-0.6-1.9-1.1-3.1C319.9,3.6,319.4,2.5,318.9,1.5z M338,19.1l4,3.2c-1.5,1.2-3.1,2.4-4.8,3.7c-1.7,1.2-3.5,2.4-5.2,3.5
	c-1.7,1.1-3.4,2.1-4.9,2.9l-3.2-2.8c1.5-0.9,3.1-1.9,4.8-3.1c1.7-1.2,3.4-2.4,5-3.7C335.4,21.5,336.8,20.3,338,19.1z M334.5,27.5
	c0.7,2.2,1.7,4.3,3,6.3c1.3,2,2.8,3.7,4.5,5.2c1.7,1.5,3.7,2.7,5.8,3.5c-0.3,0.3-0.7,0.7-1.1,1.2c-0.4,0.5-0.8,1-1.2,1.5
	c-0.4,0.5-0.7,1-0.9,1.4c-2.3-1.1-4.4-2.5-6.2-4.3c-1.8-1.8-3.4-3.8-4.8-6.1c-1.4-2.3-2.5-4.8-3.3-7.6L334.5,27.5z"/>
<path d="M361.1,25.6h19.1v22.7h-4.9v-18h-9.6v18.4h-4.6V25.6z M363.2,41.3h14.1V46h-14.1V41.3z M368.5,2.6H398v18h-29.5V2.6z
	 M373.2,7.3v8.6h19.7V7.3H373.2z M385.3,25.6h20v22.8h-4.9V30.4H390v18.4h-4.7V25.6z M387.6,41.3h15.1V46h-15.1V41.3z"/>
<path d="M420.4,5.1h4.5v34.8h-4.5V5.1z M422.9,5.1h12.1v30.7h-12.1V31h7.6V9.8h-7.6V5.1z M447.9,23.9l3.8,1.2
	c-1.1,2.8-2.4,5.5-4,8.1c-1.6,2.6-3.3,5-5.3,7.1c-1.9,2.1-4,3.9-6.2,5.3c-0.2-0.4-0.6-0.9-1-1.3c-0.4-0.5-0.8-0.9-1.2-1.4
	c-0.4-0.5-0.8-0.9-1.2-1.2c2.1-1.1,4.1-2.7,6-4.5c1.9-1.9,3.6-4,5.1-6.2S447,26.3,447.9,23.9z M436.6,21.2h30v4.7h-30V21.2z
	 M438.5,8.7h26.2v4.7h-26.2V8.7z M448.6,0.8h5v47.8h-5V0.8z M454.3,23.8c0.9,2.3,2,4.6,3.4,6.8c1.4,2.3,2.9,4.4,4.5,6.2
	c1.7,1.9,3.4,3.4,5.1,4.7c-0.4,0.3-0.8,0.7-1.3,1.2c-0.5,0.5-0.9,1-1.3,1.5c-0.4,0.5-0.8,1-1.1,1.5c-1.7-1.5-3.4-3.4-5-5.6
	c-1.6-2.2-3.1-4.6-4.5-7.2c-1.4-2.6-2.5-5.2-3.5-7.8L454.3,23.8z"/>
<path d="M479.8,25.6h45.8v3.9h-45.8V25.6z M480.2,9.5h45V21h-4.9v-7.7h-35.4V21h-4.7V9.5z M482.5,2.7h40.2v3.6h-40.2V2.7z
	 M483.8,32.7h35.4v4h-30.7v12h-4.6V32.7z M485.2,21.4c1.6-0.2,3.5-0.4,5.7-0.7c2.2-0.3,4.4-0.6,6.7-1l0.2,2.9
	c-2,0.5-3.9,0.9-5.8,1.3c-1.9,0.4-3.7,0.8-5.4,1.1L485.2,21.4z M486.7,16.2l1.4-2.5c1.1,0.2,2.2,0.4,3.4,0.7
	c1.2,0.3,2.3,0.6,3.5,0.9c1.1,0.3,2,0.6,2.8,1l-1.4,2.8c-0.7-0.3-1.6-0.7-2.8-1c-1.1-0.3-2.3-0.7-3.5-1
	C488.9,16.7,487.8,16.4,486.7,16.2z M495,35.4h4.5v12.9H495V35.4z M500.2,27.1l5.4,0.2c-0.5,1.5-1,2.9-1.5,4.3
	c-0.5,1.4-1,2.6-1.5,3.6l-4.3-0.4c0.4-1.1,0.8-2.4,1.1-3.8C499.7,29.5,500,28.2,500.2,27.1z M500,3.8h4.8v20.3H500V3.8z M506.4,35.4
	h4.5v12.9h-4.5V35.4z M506.5,22.2l1-2.9c1.3,0.1,2.7,0.3,4.2,0.6s3,0.6,4.4,0.9s2.6,0.7,3.5,1l-1,3.2c-0.9-0.3-2.1-0.7-3.5-1.1
	c-1.4-0.4-2.9-0.7-4.4-1C509.3,22.7,507.8,22.4,506.5,22.2z M516.7,13.4l2,2.7c-1,0.4-2,0.7-3.2,1.1c-1.2,0.3-2.3,0.7-3.5,0.9
	s-2.2,0.5-3.2,0.7l-1.6-2.4c0.9-0.2,2-0.5,3.1-0.9s2.3-0.7,3.4-1.1S515.8,13.6,516.7,13.4z M518,32.7h4.7V44c0,1.1-0.1,1.9-0.4,2.5
	c-0.2,0.6-0.7,1.1-1.5,1.4c-0.7,0.3-1.6,0.6-2.7,0.6s-2.3,0.1-3.6,0.1c-0.1-0.6-0.3-1.3-0.6-2c-0.3-0.8-0.6-1.4-0.9-2
	c0.9,0,1.8,0.1,2.6,0.1s1.3,0,1.6,0c0.3,0,0.5-0.1,0.6-0.2c0.1-0.1,0.2-0.3,0.2-0.5V32.7z"/>
<path d="M538.3,39.1c1.8-0.9,4-2,6.5-3.4c2.5-1.4,5.2-2.9,8-4.4c2.8-1.6,5.6-3.2,8.3-4.7l1.5,4.1c-2.4,1.5-4.8,3.1-7.3,4.6
	c-2.5,1.5-4.9,3-7.3,4.4c-2.3,1.4-4.5,2.7-6.5,3.9L538.3,39.1z M539.7,8.8h45.8v4.8h-45.8V8.8z M541.9,18.7l3.7-2.5
	c1.1,0.9,2.2,1.9,3.3,3.1c1.1,1.1,2.2,2.3,3.1,3.4c1,1.1,1.7,2.2,2.3,3.1l-4,3c-0.5-0.9-1.2-2-2.2-3.2c-0.9-1.2-1.9-2.4-3-3.6
	C544.1,20.8,543,19.7,541.9,18.7z M559.8,0.6h5v41.8c0,1.6-0.2,2.8-0.6,3.6c-0.4,0.8-1.1,1.4-2,1.8c-1,0.5-2.3,0.7-3.9,0.9
	c-1.6,0.1-3.6,0.2-5.9,0.1c-0.1-0.7-0.3-1.5-0.6-2.5c-0.3-1-0.7-1.9-1.1-2.6c1.7,0,3.3,0.1,4.8,0.1c1.5,0,2.5,0,3,0
	c0.5,0,0.8-0.1,1-0.3s0.3-0.5,0.3-1V0.6z M564.5,13.1c1,2.9,2.2,5.7,3.6,8.5s3.1,5.3,5,7.6c1.9,2.4,4,4.5,6.3,6.3s4.8,3.3,7.4,4.5
	c-0.4,0.3-0.8,0.8-1.3,1.3c-0.5,0.5-0.9,1-1.3,1.6c-0.4,0.5-0.7,1-1,1.5c-3.6-1.8-6.9-4.3-9.8-7.3c-2.9-3-5.4-6.5-7.5-10.4
	c-2.2-3.9-3.9-8.1-5.4-12.5L564.5,13.1z M579.2,15.5l4.3,3c-1.1,1.3-2.4,2.7-3.7,4.1c-1.4,1.4-2.7,2.7-4.1,4
	c-1.4,1.2-2.6,2.4-3.8,3.4l-3.6-2.8c1.1-1,2.4-2.1,3.7-3.5c1.4-1.3,2.7-2.7,3.9-4.2S578.3,16.8,579.2,15.5z M569,3.7l2.9-3.1
	c1.1,0.5,2.2,1.1,3.4,1.8c1.2,0.7,2.4,1.3,3.5,2c1.1,0.7,2,1.3,2.7,1.9l-3.1,3.5c-0.7-0.6-1.6-1.3-2.7-2c-1.1-0.7-2.2-1.4-3.4-2.2
	C571.2,4.9,570.1,4.2,569,3.7z"/>
<path d="M600,5.2h4.5v34.6H600V5.2z M602.9,5.2h11.7V35h-11.7v-4.6h7.1V9.7h-7.1V5.2z M618.6,3.7h4.8v35.9c0,1,0.1,1.8,0.3,2.3
	c0.2,0.5,0.5,0.9,1.1,1.1c0.5,0.2,1.4,0.3,2.5,0.3c0.3,0,0.8,0,1.6,0c0.7,0,1.6,0,2.5,0c0.9,0,1.9,0,2.8,0s1.8,0,2.6,0s1.4,0,1.7,0
	c1,0,1.7-0.2,2.2-0.6c0.5-0.4,0.8-1.1,1.1-2.1c0.2-1,0.4-2.5,0.5-4.4c0.6,0.4,1.3,0.8,2.2,1.2c0.9,0.4,1.6,0.6,2.3,0.8
	c-0.2,2.4-0.6,4.3-1.1,5.7c-0.5,1.4-1.3,2.4-2.3,3c-1,0.6-2.5,0.9-4.5,0.9c-0.3,0-0.9,0-1.7,0c-0.8,0-1.7,0-2.8,0s-2.1,0-3.1,0
	s-2,0-2.8,0s-1.4,0-1.6,0c-2.1,0-3.7-0.2-4.9-0.7c-1.2-0.5-2-1.3-2.5-2.4c-0.5-1.2-0.8-2.9-0.8-5V3.7z M620.8,24h20.8v4.5h-20.8V24z
	 M621,3.7h23.7v28h-4.8V8.3H621V3.7z M629.3,5.5h4.5v19.9h-4.5V5.5z"/>
<path d="M669,44.7c-1.1,0-2-0.4-2.8-1.1c-0.7-0.7-1.1-1.7-1.1-2.9s0.4-2.1,1.1-2.9c0.8-0.7,1.7-1.1,2.8-1.1c1.1,0,2,0.4,2.8,1.1
	c0.8,0.7,1.1,1.7,1.1,2.9s-0.4,2.1-1.1,2.9C671,44.4,670.1,44.7,669,44.7z M666.9,31.5l-1.2-19.1l-0.2-6.9h7l-0.2,6.9l-1.2,19.1
	H666.9z"/>
</svg>
